<?xml version="1.0" encoding="utf-8" ?>
<svg xmlns="http://www.w3.org/2000/svg" xmlns:cc="http://creativecommons.org/ns" xmlns:dc="http://purl.org/dc/elements/1.1/" xmlns:ev="http://www.w3.org/2001/xml-events" xmlns:inkscape="http://www.inkscape.org/namespaces/inkscape" xmlns:rdf="http://www.w3.org/1999/02/22-rdf-syntax-ns" xmlns:sodipodi="http://sodipodi.sourceforge.net/DTD/sodipodi-0.dtd" xmlns:xlink="http://www.w3.org/1999/xlink" baseProfile="tiny" height="7.0cm" version="1.2" viewBox="0 0 1133.8582677165352 264.56692913385825" width="30.0cm">
  <metadata>
    <rdf:RDF>
      <cc:Work>
        <dc:format>image/svg+xml</dc:format>
        <dc:source>vpype -I figures/fig_move.vpy write figures/fig_move.svg
</dc:source>
        <dc:date>2022-03-31T13:50:40.726762</dc:date>
      </cc:Work>
    </rdf:RDF>
  </metadata>
  <defs/>
  <g fill="none" id="layer6" inkscape:groupmode="layer" inkscape:label="6" stroke="#0000ff" style="display:inline">
    <polygon points="11.3386,56.8225 11.3386,181.7502 136.2662,181.7502 136.2662,56.8225"/>
    <line x1="13.0837" x2="13.0837" y1="57.8337" y2="60.4366"/>
    <line x1="15.4387" x2="15.4387" y1="58.7013" y2="60.4366"/>
    <polyline points="15.4387,59.0732 15.1908,58.8253 14.9429,58.7013 14.5711,58.7013 14.3232,58.8253 14.0753,59.0732 13.9513,59.445 13.9513,59.6929 14.0753,60.0648 14.3232,60.3127 14.5711,60.4366 14.9429,60.4366 15.1908,60.3127 15.4387,60.0648"/>
    <line x1="16.1825" x2="16.9262" y1="58.7013" y2="60.4366"/>
    <polyline points="17.6699,58.7013 16.9262,60.4366 16.6783,60.9325 16.4304,61.1804 16.1825,61.3043 16.0585,61.3043"/>
    <polyline points="18.2896,59.445 19.7771,59.445 19.7771,59.1971 19.6531,58.9492 19.5292,58.8253 19.2812,58.7013 18.9094,58.7013 18.6615,58.8253 18.4136,59.0732 18.2896,59.445 18.2896,59.6929 18.4136,60.0648 18.6615,60.3127 18.9094,60.4366 19.2812,60.4366 19.5292,60.3127 19.7771,60.0648"/>
    <line x1="20.6447" x2="20.6447" y1="58.7013" y2="60.4366"/>
    <polyline points="20.6447,59.445 20.7687,59.0732 21.0166,58.8253 21.2645,58.7013 21.6363,58.7013"/>
    <polyline points="24.4872,58.3295 24.7351,58.2055 25.107,57.8337 25.107,60.4366"/>
    <polygon points="14.5528,51.4655 14.5528,187.1072 150.1944,187.1072 150.1944,51.4655"/>
    <line x1="16.4475" x2="16.4475" y1="52.5634" y2="55.3896"/>
    <line x1="19.0046" x2="19.0046" y1="53.5055" y2="55.3896"/>
    <polyline points="19.0046,53.9092 18.7354,53.64 18.4662,53.5055 18.0625,53.5055 17.7933,53.64 17.5242,53.9092 17.3896,54.313 17.3896,54.5821 17.5242,54.9859 17.7933,55.255 18.0625,55.3896 18.4662,55.3896 18.7354,55.255 19.0046,54.9859"/>
    <line x1="19.8121" x2="20.6196" y1="53.5055" y2="55.3896"/>
    <polyline points="21.427,53.5055 20.6196,55.3896 20.3504,55.9279 20.0812,56.1971 19.8121,56.3317 19.6775,56.3317"/>
    <polyline points="22.1,54.313 23.7149,54.313 23.7149,54.0438 23.5804,53.7746 23.4458,53.64 23.1766,53.5055 22.7729,53.5055 22.5037,53.64 22.2345,53.9092 22.1,54.313 22.1,54.5821 22.2345,54.9859 22.5037,55.255 22.7729,55.3896 23.1766,55.3896 23.4458,55.255 23.7149,54.9859"/>
    <line x1="24.657" x2="24.657" y1="53.5055" y2="55.3896"/>
    <polyline points="24.657,54.313 24.7916,53.9092 25.0608,53.64 25.3299,53.5055 25.7337,53.5055"/>
    <polyline points="28.5599,53.2363 28.5599,53.1017 28.6945,52.8326 28.8291,52.698 29.0982,52.5634 29.6365,52.5634 29.9057,52.698 30.0403,52.8326 30.1749,53.1017 30.1749,53.3709 30.0403,53.64 29.7711,54.0438 28.4253,55.3896 30.3095,55.3896"/>
    <polygon points="18.37,45.1035 18.37,193.4692 166.7357,193.4692 166.7357,45.1035"/>
    <line x1="20.4425" x2="20.4425" y1="46.3044" y2="49.3957"/>
    <line x1="23.2394" x2="23.2394" y1="47.3348" y2="49.3957"/>
    <polyline points="23.2394,47.7764 22.945,47.482 22.6506,47.3348 22.209,47.3348 21.9145,47.482 21.6201,47.7764 21.4729,48.218 21.4729,48.5124 21.6201,48.9541 21.9145,49.2485 22.209,49.3957 22.6506,49.3957 22.945,49.2485 23.2394,48.9541"/>
    <line x1="24.1226" x2="25.0059" y1="47.3348" y2="49.3957"/>
    <polyline points="25.8891,47.3348 25.0059,49.3957 24.7115,49.9845 24.417,50.2789 24.1226,50.4261 23.9754,50.4261"/>
    <polyline points="26.6251,48.218 28.3916,48.218 28.3916,47.9236 28.2444,47.6292 28.0972,47.482 27.8028,47.3348 27.3612,47.3348 27.0668,47.482 26.7724,47.7764 26.6251,48.218 26.6251,48.5124 26.7724,48.9541 27.0668,49.2485 27.3612,49.3957 27.8028,49.3957 28.0972,49.2485 28.3916,48.9541"/>
    <line x1="29.4221" x2="29.4221" y1="47.3348" y2="49.3957"/>
    <polyline points="29.4221,48.218 29.5693,47.7764 29.8637,47.482 30.1581,47.3348 30.5997,47.3348"/>
    <polyline points="33.8383,46.3044 35.4575,46.3044 34.5743,47.482 35.0159,47.482 35.3103,47.6292 35.4575,47.7764 35.6047,48.218 35.6047,48.5124 35.4575,48.9541 35.1631,49.2485 34.7215,49.3957 34.2799,49.3957 33.8383,49.2485 33.6911,49.1013 33.5439,48.8069"/>
    <polygon points="22.9775,37.4243 22.9775,201.1484 186.7015,201.1484 186.7015,37.4243"/>
    <line x1="25.2645" x2="25.2645" y1="38.7495" y2="42.1608"/>
    <line x1="28.351" x2="28.351" y1="39.8866" y2="42.1608"/>
    <polyline points="28.351,40.3739 28.0261,40.049 27.7012,39.8866 27.2139,39.8866 26.889,40.049 26.5641,40.3739 26.4016,40.8613 26.4016,41.1862 26.5641,41.6735 26.889,41.9984 27.2139,42.1608 27.7012,42.1608 28.0261,41.9984 28.351,41.6735"/>
    <line x1="29.3256" x2="30.3003" y1="39.8866" y2="42.1608"/>
    <polyline points="31.275,39.8866 30.3003,42.1608 29.9754,42.8106 29.6505,43.1355 29.3256,43.2979 29.1632,43.2979"/>
    <polyline points="32.0872,40.8613 34.0365,40.8613 34.0365,40.5364 33.8741,40.2115 33.7117,40.049 33.3868,39.8866 32.8994,39.8866 32.5745,40.049 32.2497,40.3739 32.0872,40.8613 32.0872,41.1862 32.2497,41.6735 32.5745,41.9984 32.8994,42.1608 33.3868,42.1608 33.7117,41.9984 34.0365,41.6735"/>
    <line x1="35.1737" x2="35.1737" y1="39.8866" y2="42.1608"/>
    <polyline points="35.1737,40.8613 35.3361,40.3739 35.661,40.049 35.9859,39.8866 36.4732,39.8866"/>
    <polyline points="41.3466,38.7495 39.7221,41.0237 42.1588,41.0237"/>
    <line x1="41.3466" x2="41.3466" y1="38.7495" y2="42.1608"/>
    <polygon points="28.6491,27.9717 28.6491,210.601 211.2783,210.601 211.2783,27.9717"/>
    <line x1="31.2002" x2="31.2002" y1="29.4499" y2="33.2551"/>
    <line x1="34.643" x2="34.643" y1="30.7183" y2="33.2551"/>
    <polyline points="34.643,31.2619 34.2806,30.8995 33.9182,30.7183 33.3746,30.7183 33.0122,30.8995 32.6498,31.2619 32.4686,31.8055 32.4686,32.1679 32.6498,32.7115 33.0122,33.0739 33.3746,33.2551 33.9182,33.2551 34.2806,33.0739 34.643,32.7115"/>
    <line x1="35.7302" x2="36.8174" y1="30.7183" y2="33.2551"/>
    <polyline points="37.9047,30.7183 36.8174,33.2551 36.455,33.9799 36.0926,34.3423 35.7302,34.5235 35.549,34.5235"/>
    <polyline points="38.8107,31.8055 40.9851,31.8055 40.9851,31.4431 40.8039,31.0807 40.6227,30.8995 40.2603,30.7183 39.7167,30.7183 39.3543,30.8995 38.9919,31.2619 38.8107,31.8055 38.8107,32.1679 38.9919,32.7115 39.3543,33.0739 39.7167,33.2551 40.2603,33.2551 40.6227,33.0739 40.9851,32.7115"/>
    <line x1="42.2535" x2="42.2535" y1="30.7183" y2="33.2551"/>
    <polyline points="42.2535,31.8055 42.4347,31.2619 42.7971,30.8995 43.1595,30.7183 43.7031,30.7183"/>
    <polyline points="49.5016,29.4499 47.6896,29.4499 47.5084,31.0807 47.6896,30.8995 48.2332,30.7183 48.7768,30.7183 49.3204,30.8995 49.6828,31.2619 49.864,31.8055 49.864,32.1679 49.6828,32.7115 49.3204,33.0739 48.7768,33.2551 48.2332,33.2551 47.6896,33.0739 47.5084,32.8927 47.3272,32.5303"/>
    <line x1="39.0266" x2="39.0266" y1="226.4479" y2="233.2128"/>
    <polyline points="39.0266,228.3807 40.4762,226.9311 41.4426,226.4479 42.8922,226.4479 43.8587,226.9311 44.3419,228.3807 44.3419,233.2128"/>
    <polyline points="44.3419,228.3807 45.7915,226.9311 46.7579,226.4479 48.2075,226.4479 49.1739,226.9311 49.6571,228.3807 49.6571,233.2128"/>
    <polygon points="55.4556,226.4479 54.4892,226.9311 53.5228,227.8975 53.0396,229.3471 53.0396,230.3135 53.5228,231.7631 54.4892,232.7296 55.4556,233.2128 56.9052,233.2128 57.8716,232.7296 58.8381,231.7631 59.3213,230.3135 59.3213,229.3471 58.8381,227.8975 57.8716,226.9311 56.9052,226.4479"/>
    <line x1="61.7373" x2="64.6365" y1="226.4479" y2="233.2128"/>
    <line x1="67.5358" x2="64.6365" y1="226.4479" y2="233.2128"/>
    <polyline points="69.9518,229.3471 75.7503,229.3471 75.7503,228.3807 75.2671,227.4143 74.7839,226.9311 73.8175,226.4479 72.3678,226.4479 71.4014,226.9311 70.435,227.8975 69.9518,229.3471 69.9518,230.3135 70.435,231.7631 71.4014,232.7296 72.3678,233.2128 73.8175,233.2128 74.7839,232.7296 75.7503,231.7631"/>
    <line x1="86.864" x2="95.5618" y1="227.4143" y2="227.4143"/>
    <line x1="86.864" x2="95.5618" y1="230.3135" y2="230.3135"/>
    <polyline points="110.5412,221.1326 109.5747,222.099 108.6083,223.5486 107.6419,225.4815 107.1587,227.8975 107.1587,229.8303 107.6419,232.2463 108.6083,234.1792 109.5747,235.6288 110.5412,236.5952"/>
    <line x1="113.9236" x2="122.6213" y1="228.8639" y2="228.8639"/>
    <polygon points="128.4198,223.0654 126.9702,223.5486 126.487,224.515 126.487,225.4815 126.9702,226.4479 127.9366,226.9311 129.8694,227.4143 131.319,227.8975 132.2855,228.8639 132.7687,229.8303 132.7687,231.2799 132.2855,232.2463 131.8023,232.7296 130.3526,233.2128 128.4198,233.2128 126.9702,232.7296 126.487,232.2463 126.0038,231.2799 126.0038,229.8303 126.487,228.8639 127.4534,227.8975 128.903,227.4143 130.8358,226.9311 131.8023,226.4479 132.2855,225.4815 132.2855,224.515 131.8023,223.5486 130.3526,223.0654"/>
    <polyline points="141.4664,227.8975 140.5,226.9311 139.5336,226.4479 138.0839,226.4479 137.1175,226.9311 136.1511,227.8975 135.6679,229.3471 135.6679,230.3135 136.1511,231.7631 137.1175,232.7296 138.0839,233.2128 139.5336,233.2128 140.5,232.7296 141.4664,231.7631"/>
    <line x1="144.8488" x2="144.8488" y1="226.4479" y2="233.2128"/>
    <polyline points="144.8488,228.3807 146.2984,226.9311 147.2649,226.4479 148.7145,226.4479 149.6809,226.9311 150.1641,228.3807 150.1641,233.2128"/>
    <polyline points="150.1641,228.3807 151.6137,226.9311 152.5801,226.4479 154.0298,226.4479 154.9962,226.9311 155.4794,228.3807 155.4794,233.2128"/>
    <polyline points="159.8282,231.2799 159.345,231.7631 158.8618,231.2799 159.345,230.7967 159.8282,231.2799 159.8282,232.2463 158.8618,233.2128"/>
    <polygon points="173.358,223.0654 171.9084,223.5486 170.942,224.9982 170.4588,227.4143 170.4588,228.8639 170.942,231.2799 171.9084,232.7296 173.358,233.2128 174.3244,233.2128 175.774,232.7296 176.7405,231.2799 177.2237,228.8639 177.2237,227.4143 176.7405,224.9982 175.774,223.5486 174.3244,223.0654"/>
    <polyline points="181.0893,231.2799 180.6061,231.7631 180.1229,231.2799 180.6061,230.7967 181.0893,231.2799 181.0893,232.2463 180.1229,233.2128"/>
    <polygon points="194.6191,223.0654 193.1695,223.5486 192.2031,224.9982 191.7199,227.4143 191.7199,228.8639 192.2031,231.2799 193.1695,232.7296 194.6191,233.2128 195.5855,233.2128 197.0351,232.7296 198.0015,231.2799 198.4848,228.8639 198.4848,227.4143 198.0015,224.9982 197.0351,223.5486 195.5855,223.0654"/>
    <polyline points="201.384,221.1326 202.3504,222.099 203.3168,223.5486 204.2832,225.4815 204.7664,227.8975 204.7664,229.8303 204.2832,232.2463 203.3168,234.1792 202.3504,235.6288 201.384,236.5952"/>
    <polygon points="262.2296,56.8225 262.2296,181.7502 387.1572,181.7502 387.1572,56.8225"/>
    <line x1="263.9747" x2="263.9747" y1="57.8337" y2="60.4366"/>
    <line x1="266.3297" x2="266.3297" y1="58.7013" y2="60.4366"/>
    <polyline points="266.3297,59.0732 266.0818,58.8253 265.8339,58.7013 265.4621,58.7013 265.2142,58.8253 264.9663,59.0732 264.8423,59.445 264.8423,59.6929 264.9663,60.0648 265.2142,60.3127 265.4621,60.4366 265.8339,60.4366 266.0818,60.3127 266.3297,60.0648"/>
    <line x1="267.0734" x2="267.8172" y1="58.7013" y2="60.4366"/>
    <polyline points="268.5609,58.7013 267.8172,60.4366 267.5692,60.9325 267.3213,61.1804 267.0734,61.3043 266.9495,61.3043"/>
    <polyline points="269.1806,59.445 270.668,59.445 270.668,59.1971 270.5441,58.9492 270.4201,58.8253 270.1722,58.7013 269.8004,58.7013 269.5525,58.8253 269.3046,59.0732 269.1806,59.445 269.1806,59.6929 269.3046,60.0648 269.5525,60.3127 269.8004,60.4366 270.1722,60.4366 270.4201,60.3127 270.668,60.0648"/>
    <line x1="271.5357" x2="271.5357" y1="58.7013" y2="60.4366"/>
    <polyline points="271.5357,59.445 271.6597,59.0732 271.9076,58.8253 272.1555,58.7013 272.5273,58.7013"/>
    <polyline points="275.3782,58.3295 275.6261,58.2055 275.998,57.8337 275.998,60.4366"/>
    <polygon points="261.1582,51.4655 261.1582,187.1072 396.7998,187.1072 396.7998,51.4655"/>
    <line x1="263.0529" x2="263.0529" y1="52.5634" y2="55.3896"/>
    <line x1="265.61" x2="265.61" y1="53.5055" y2="55.3896"/>
    <polyline points="265.61,53.9092 265.3408,53.64 265.0716,53.5055 264.6679,53.5055 264.3987,53.64 264.1296,53.9092 263.995,54.313 263.995,54.5821 264.1296,54.9859 264.3987,55.255 264.6679,55.3896 265.0716,55.3896 265.3408,55.255 265.61,54.9859"/>
    <line x1="266.4175" x2="267.225" y1="53.5055" y2="55.3896"/>
    <polyline points="268.0324,53.5055 267.225,55.3896 266.9558,55.9279 266.6866,56.1971 266.4175,56.3317 266.2829,56.3317"/>
    <polyline points="268.7054,54.313 270.3203,54.313 270.3203,54.0438 270.1858,53.7746 270.0512,53.64 269.782,53.5055 269.3783,53.5055 269.1091,53.64 268.8399,53.9092 268.7054,54.313 268.7054,54.5821 268.8399,54.9859 269.1091,55.255 269.3783,55.3896 269.782,55.3896 270.0512,55.255 270.3203,54.9859"/>
    <line x1="271.2624" x2="271.2624" y1="53.5055" y2="55.3896"/>
    <polyline points="271.2624,54.313 271.397,53.9092 271.6662,53.64 271.9353,53.5055 272.3391,53.5055"/>
    <polyline points="275.1653,53.2363 275.1653,53.1017 275.2999,52.8326 275.4345,52.698 275.7036,52.5634 276.2419,52.5634 276.5111,52.698 276.6457,52.8326 276.7803,53.1017 276.7803,53.3709 276.6457,53.64 276.3765,54.0438 275.0307,55.3896 276.9149,55.3896"/>
    <polygon points="259.8858,45.1035 259.8858,193.4692 408.2514,193.4692 408.2514,45.1035"/>
    <line x1="261.9582" x2="261.9582" y1="46.3044" y2="49.3957"/>
    <line x1="264.7552" x2="264.7552" y1="47.3348" y2="49.3957"/>
    <polyline points="264.7552,47.7764 264.4608,47.482 264.1663,47.3348 263.7247,47.3348 263.4303,47.482 263.1359,47.7764 262.9887,48.218 262.9887,48.5124 263.1359,48.9541 263.4303,49.2485 263.7247,49.3957 264.1663,49.3957 264.4608,49.2485 264.7552,48.9541"/>
    <line x1="265.6384" x2="266.5217" y1="47.3348" y2="49.3957"/>
    <polyline points="267.4049,47.3348 266.5217,49.3957 266.2272,49.9845 265.9328,50.2789 265.6384,50.4261 265.4912,50.4261"/>
    <polyline points="268.1409,48.218 269.9074,48.218 269.9074,47.9236 269.7602,47.6292 269.613,47.482 269.3186,47.3348 268.877,47.3348 268.5825,47.482 268.2881,47.7764 268.1409,48.218 268.1409,48.5124 268.2881,48.9541 268.5825,49.2485 268.877,49.3957 269.3186,49.3957 269.613,49.2485 269.9074,48.9541"/>
    <line x1="270.9378" x2="270.9378" y1="47.3348" y2="49.3957"/>
    <polyline points="270.9378,48.218 271.0851,47.7764 271.3795,47.482 271.6739,47.3348 272.1155,47.3348"/>
    <polyline points="275.354,46.3044 276.9733,46.3044 276.0901,47.482 276.5317,47.482 276.8261,47.6292 276.9733,47.7764 277.1205,48.218 277.1205,48.5124 276.9733,48.9541 276.6789,49.2485 276.2373,49.3957 275.7957,49.3957 275.354,49.2485 275.2068,49.1013 275.0596,48.8069"/>
    <polygon points="258.3499,37.4243 258.3499,201.1484 422.074,201.1484 422.074,37.4243"/>
    <line x1="260.6369" x2="260.6369" y1="38.7495" y2="42.1608"/>
    <line x1="263.7234" x2="263.7234" y1="39.8866" y2="42.1608"/>
    <polyline points="263.7234,40.3739 263.3985,40.049 263.0736,39.8866 262.5863,39.8866 262.2614,40.049 261.9365,40.3739 261.7741,40.8613 261.7741,41.1862 261.9365,41.6735 262.2614,41.9984 262.5863,42.1608 263.0736,42.1608 263.3985,41.9984 263.7234,41.6735"/>
    <line x1="264.6981" x2="265.6727" y1="39.8866" y2="42.1608"/>
    <polyline points="266.6474,39.8866 265.6727,42.1608 265.3479,42.8106 265.023,43.1355 264.6981,43.2979 264.5356,43.2979"/>
    <polyline points="267.4596,40.8613 269.409,40.8613 269.409,40.5364 269.2465,40.2115 269.0841,40.049 268.7592,39.8866 268.2719,39.8866 267.947,40.049 267.6221,40.3739 267.4596,40.8613 267.4596,41.1862 267.6221,41.6735 267.947,41.9984 268.2719,42.1608 268.7592,42.1608 269.0841,41.9984 269.409,41.6735"/>
    <line x1="270.5461" x2="270.5461" y1="39.8866" y2="42.1608"/>
    <polyline points="270.5461,40.8613 270.7085,40.3739 271.0334,40.049 271.3583,39.8866 271.8456,39.8866"/>
    <polyline points="276.719,38.7495 275.0945,41.0237 277.5312,41.0237"/>
    <line x1="276.719" x2="276.719" y1="38.7495" y2="42.1608"/>
    <polygon points="256.4594,27.9717 256.4594,210.601 439.0887,210.601 439.0887,27.9717"/>
    <line x1="259.0105" x2="259.0105" y1="29.4499" y2="33.2551"/>
    <line x1="262.4534" x2="262.4534" y1="30.7183" y2="33.2551"/>
    <polyline points="262.4534,31.2619 262.091,30.8995 261.7285,30.7183 261.1849,30.7183 260.8225,30.8995 260.4601,31.2619 260.2789,31.8055 260.2789,32.1679 260.4601,32.7115 260.8225,33.0739 261.1849,33.2551 261.7285,33.2551 262.091,33.0739 262.4534,32.7115"/>
    <line x1="263.5406" x2="264.6278" y1="30.7183" y2="33.2551"/>
    <polyline points="265.715,30.7183 264.6278,33.2551 264.2654,33.9799 263.903,34.3423 263.5406,34.5235 263.3594,34.5235"/>
    <polyline points="266.621,31.8055 268.7954,31.8055 268.7954,31.4431 268.6142,31.0807 268.433,30.8995 268.0706,30.7183 267.527,30.7183 267.1646,30.8995 266.8022,31.2619 266.621,31.8055 266.621,32.1679 266.8022,32.7115 267.1646,33.0739 267.527,33.2551 268.0706,33.2551 268.433,33.0739 268.7954,32.7115"/>
    <line x1="270.0639" x2="270.0639" y1="30.7183" y2="33.2551"/>
    <polyline points="270.0639,31.8055 270.2451,31.2619 270.6075,30.8995 270.9699,30.7183 271.5135,30.7183"/>
    <polyline points="277.312,29.4499 275.4999,29.4499 275.3187,31.0807 275.4999,30.8995 276.0435,30.7183 276.5871,30.7183 277.1308,30.8995 277.4932,31.2619 277.6744,31.8055 277.6744,32.1679 277.4932,32.7115 277.1308,33.0739 276.5871,33.2551 276.0435,33.2551 275.4999,33.0739 275.3187,32.8927 275.1375,32.5303"/>
    <line x1="266.8369" x2="266.8369" y1="226.4479" y2="233.2128"/>
    <polyline points="266.8369,228.3807 268.2866,226.9311 269.253,226.4479 270.7026,226.4479 271.669,226.9311 272.1522,228.3807 272.1522,233.2128"/>
    <polyline points="272.1522,228.3807 273.6018,226.9311 274.5682,226.4479 276.0179,226.4479 276.9843,226.9311 277.4675,228.3807 277.4675,233.2128"/>
    <polygon points="283.266,226.4479 282.2995,226.9311 281.3331,227.8975 280.8499,229.3471 280.8499,230.3135 281.3331,231.7631 282.2995,232.7296 283.266,233.2128 284.7156,233.2128 285.682,232.7296 286.6484,231.7631 287.1316,230.3135 287.1316,229.3471 286.6484,227.8975 285.682,226.9311 284.7156,226.4479"/>
    <line x1="289.5476" x2="292.4469" y1="226.4479" y2="233.2128"/>
    <line x1="295.3461" x2="292.4469" y1="226.4479" y2="233.2128"/>
    <polyline points="297.7622,229.3471 303.5606,229.3471 303.5606,228.3807 303.0774,227.4143 302.5942,226.9311 301.6278,226.4479 300.1782,226.4479 299.2118,226.9311 298.2454,227.8975 297.7622,229.3471 297.7622,230.3135 298.2454,231.7631 299.2118,232.7296 300.1782,233.2128 301.6278,233.2128 302.5942,232.7296 303.5606,231.7631"/>
    <line x1="314.6744" x2="323.3721" y1="227.4143" y2="227.4143"/>
    <line x1="314.6744" x2="323.3721" y1="230.3135" y2="230.3135"/>
    <polyline points="338.3515,221.1326 337.3851,222.099 336.4187,223.5486 335.4523,225.4815 334.9691,227.8975 334.9691,229.8303 335.4523,232.2463 336.4187,234.1792 337.3851,235.6288 338.3515,236.5952"/>
    <line x1="341.734" x2="350.4317" y1="228.8639" y2="228.8639"/>
    <polyline points="358.6462,223.0654 353.8141,229.8303 361.0622,229.8303"/>
    <line x1="358.6462" x2="358.6462" y1="223.0654" y2="233.2128"/>
    <polyline points="369.2767,227.8975 368.3103,226.9311 367.3439,226.4479 365.8943,226.4479 364.9279,226.9311 363.9615,227.8975 363.4782,229.3471 363.4782,230.3135 363.9615,231.7631 364.9279,232.7296 365.8943,233.2128 367.3439,233.2128 368.3103,232.7296 369.2767,231.7631"/>
    <line x1="372.6592" x2="372.6592" y1="226.4479" y2="233.2128"/>
    <polyline points="372.6592,228.3807 374.1088,226.9311 375.0752,226.4479 376.5248,226.4479 377.4912,226.9311 377.9744,228.3807 377.9744,233.2128"/>
    <polyline points="377.9744,228.3807 379.4241,226.9311 380.3905,226.4479 381.8401,226.4479 382.8065,226.9311 383.2897,228.3807 383.2897,233.2128"/>
    <polyline points="387.6386,231.2799 387.1554,231.7631 386.6722,231.2799 387.1554,230.7967 387.6386,231.2799 387.6386,232.2463 386.6722,233.2128"/>
    <polygon points="401.1684,223.0654 399.7187,223.5486 398.7523,224.9982 398.2691,227.4143 398.2691,228.8639 398.7523,231.2799 399.7187,232.7296 401.1684,233.2128 402.1348,233.2128 403.5844,232.7296 404.5508,231.2799 405.034,228.8639 405.034,227.4143 404.5508,224.9982 403.5844,223.5486 402.1348,223.0654"/>
    <polyline points="408.8997,231.2799 408.4165,231.7631 407.9332,231.2799 408.4165,230.7967 408.8997,231.2799 408.8997,232.2463 407.9332,233.2128"/>
    <polygon points="422.4294,223.0654 420.9798,223.5486 420.0134,224.9982 419.5302,227.4143 419.5302,228.8639 420.0134,231.2799 420.9798,232.7296 422.4294,233.2128 423.3959,233.2128 424.8455,232.7296 425.8119,231.2799 426.2951,228.8639 426.2951,227.4143 425.8119,224.9982 424.8455,223.5486 423.3959,223.0654"/>
    <polyline points="429.1943,221.1326 430.1608,222.099 431.1272,223.5486 432.0936,225.4815 432.5768,227.8975 432.5768,229.8303 432.0936,232.2463 431.1272,234.1792 430.1608,235.6288 429.1943,236.5952"/>
    <polygon points="504.4653,56.8225 504.4653,181.7502 629.393,181.7502 629.393,56.8225"/>
    <line x1="506.2104" x2="506.2104" y1="57.8337" y2="60.4366"/>
    <line x1="508.5655" x2="508.5655" y1="58.7013" y2="60.4366"/>
    <polyline points="508.5655,59.0732 508.3176,58.8253 508.0697,58.7013 507.6978,58.7013 507.4499,58.8253 507.202,59.0732 507.0781,59.445 507.0781,59.6929 507.202,60.0648 507.4499,60.3127 507.6978,60.4366 508.0697,60.4366 508.3176,60.3127 508.5655,60.0648"/>
    <line x1="509.3092" x2="510.0529" y1="58.7013" y2="60.4366"/>
    <polyline points="510.7966,58.7013 510.0529,60.4366 509.805,60.9325 509.5571,61.1804 509.3092,61.3043 509.1852,61.3043"/>
    <polyline points="511.4164,59.445 512.9038,59.445 512.9038,59.1971 512.7798,58.9492 512.6559,58.8253 512.408,58.7013 512.0361,58.7013 511.7882,58.8253 511.5403,59.0732 511.4164,59.445 511.4164,59.6929 511.5403,60.0648 511.7882,60.3127 512.0361,60.4366 512.408,60.4366 512.6559,60.3127 512.9038,60.0648"/>
    <line x1="513.7714" x2="513.7714" y1="58.7013" y2="60.4366"/>
    <polyline points="513.7714,59.445 513.8954,59.0732 514.1433,58.8253 514.3912,58.7013 514.7631,58.7013"/>
    <polyline points="517.6139,58.3295 517.8618,58.2055 518.2337,57.8337 518.2337,60.4366"/>
    <polygon points="499.1083,51.4655 499.1083,187.1072 634.7499,187.1072 634.7499,51.4655"/>
    <line x1="501.0031" x2="501.0031" y1="52.5634" y2="55.3896"/>
    <line x1="503.5601" x2="503.5601" y1="53.5055" y2="55.3896"/>
    <polyline points="503.5601,53.9092 503.291,53.64 503.0218,53.5055 502.6181,53.5055 502.3489,53.64 502.0797,53.9092 501.9451,54.313 501.9451,54.5821 502.0797,54.9859 502.3489,55.255 502.6181,55.3896 503.0218,55.3896 503.291,55.255 503.5601,54.9859"/>
    <line x1="504.3676" x2="505.1751" y1="53.5055" y2="55.3896"/>
    <polyline points="505.9826,53.5055 505.1751,55.3896 504.9059,55.9279 504.6368,56.1971 504.3676,56.3317 504.233,56.3317"/>
    <polyline points="506.6555,54.313 508.2705,54.313 508.2705,54.0438 508.1359,53.7746 508.0013,53.64 507.7322,53.5055 507.3284,53.5055 507.0593,53.64 506.7901,53.9092 506.6555,54.313 506.6555,54.5821 506.7901,54.9859 507.0593,55.255 507.3284,55.3896 507.7322,55.3896 508.0013,55.255 508.2705,54.9859"/>
    <line x1="509.2126" x2="509.2126" y1="53.5055" y2="55.3896"/>
    <polyline points="509.2126,54.313 509.3471,53.9092 509.6163,53.64 509.8855,53.5055 510.2892,53.5055"/>
    <polyline points="513.1154,53.2363 513.1154,53.1017 513.25,52.8326 513.3846,52.698 513.6538,52.5634 514.1921,52.5634 514.4613,52.698 514.5958,52.8326 514.7304,53.1017 514.7304,53.3709 514.5958,53.64 514.3267,54.0438 512.9809,55.3896 514.865,55.3896"/>
    <polygon points="492.7463,45.1035 492.7463,193.4692 641.112,193.4692 641.112,45.1035"/>
    <line x1="494.8188" x2="494.8188" y1="46.3044" y2="49.3957"/>
    <line x1="497.6157" x2="497.6157" y1="47.3348" y2="49.3957"/>
    <polyline points="497.6157,47.7764 497.3213,47.482 497.0269,47.3348 496.5853,47.3348 496.2908,47.482 495.9964,47.7764 495.8492,48.218 495.8492,48.5124 495.9964,48.9541 496.2908,49.2485 496.5853,49.3957 497.0269,49.3957 497.3213,49.2485 497.6157,48.9541"/>
    <line x1="498.4989" x2="499.3822" y1="47.3348" y2="49.3957"/>
    <polyline points="500.2654,47.3348 499.3822,49.3957 499.0878,49.9845 498.7934,50.2789 498.4989,50.4261 498.3517,50.4261"/>
    <polyline points="501.0015,48.218 502.7679,48.218 502.7679,47.9236 502.6207,47.6292 502.4735,47.482 502.1791,47.3348 501.7375,47.3348 501.4431,47.482 501.1487,47.7764 501.0015,48.218 501.0015,48.5124 501.1487,48.9541 501.4431,49.2485 501.7375,49.3957 502.1791,49.3957 502.4735,49.2485 502.7679,48.9541"/>
    <line x1="503.7984" x2="503.7984" y1="47.3348" y2="49.3957"/>
    <polyline points="503.7984,48.218 503.9456,47.7764 504.24,47.482 504.5344,47.3348 504.976,47.3348"/>
    <polyline points="508.2146,46.3044 509.8339,46.3044 508.9506,47.482 509.3922,47.482 509.6866,47.6292 509.8339,47.7764 509.9811,48.218 509.9811,48.5124 509.8339,48.9541 509.5394,49.2485 509.0978,49.3957 508.6562,49.3957 508.2146,49.2485 508.0674,49.1013 507.9202,48.8069"/>
    <polygon points="485.0671,37.4243 485.0671,201.1484 648.7911,201.1484 648.7911,37.4243"/>
    <line x1="487.3541" x2="487.3541" y1="38.7495" y2="42.1608"/>
    <line x1="490.4406" x2="490.4406" y1="39.8866" y2="42.1608"/>
    <polyline points="490.4406,40.3739 490.1157,40.049 489.7908,39.8866 489.3035,39.8866 488.9786,40.049 488.6537,40.3739 488.4913,40.8613 488.4913,41.1862 488.6537,41.6735 488.9786,41.9984 489.3035,42.1608 489.7908,42.1608 490.1157,41.9984 490.4406,41.6735"/>
    <line x1="491.4153" x2="492.3899" y1="39.8866" y2="42.1608"/>
    <polyline points="493.3646,39.8866 492.3899,42.1608 492.065,42.8106 491.7402,43.1355 491.4153,43.2979 491.2528,43.2979"/>
    <polyline points="494.1768,40.8613 496.1262,40.8613 496.1262,40.5364 495.9637,40.2115 495.8013,40.049 495.4764,39.8866 494.9891,39.8866 494.6642,40.049 494.3393,40.3739 494.1768,40.8613 494.1768,41.1862 494.3393,41.6735 494.6642,41.9984 494.9891,42.1608 495.4764,42.1608 495.8013,41.9984 496.1262,41.6735"/>
    <line x1="497.2633" x2="497.2633" y1="39.8866" y2="42.1608"/>
    <polyline points="497.2633,40.8613 497.4257,40.3739 497.7506,40.049 498.0755,39.8866 498.5628,39.8866"/>
    <polyline points="503.4362,38.7495 501.8117,41.0237 504.2484,41.0237"/>
    <line x1="503.4362" x2="503.4362" y1="38.7495" y2="42.1608"/>
    <polygon points="475.6145,27.9717 475.6145,210.601 658.2438,210.601 658.2438,27.9717"/>
    <line x1="478.1656" x2="478.1656" y1="29.4499" y2="33.2551"/>
    <line x1="481.6085" x2="481.6085" y1="30.7183" y2="33.2551"/>
    <polyline points="481.6085,31.2619 481.2461,30.8995 480.8836,30.7183 480.34,30.7183 479.9776,30.8995 479.6152,31.2619 479.434,31.8055 479.434,32.1679 479.6152,32.7115 479.9776,33.0739 480.34,33.2551 480.8836,33.2551 481.2461,33.0739 481.6085,32.7115"/>
    <line x1="482.6957" x2="483.7829" y1="30.7183" y2="33.2551"/>
    <polyline points="484.8701,30.7183 483.7829,33.2551 483.4205,33.9799 483.0581,34.3423 482.6957,34.5235 482.5145,34.5235"/>
    <polyline points="485.7761,31.8055 487.9505,31.8055 487.9505,31.4431 487.7693,31.0807 487.5881,30.8995 487.2257,30.7183 486.6821,30.7183 486.3197,30.8995 485.9573,31.2619 485.7761,31.8055 485.7761,32.1679 485.9573,32.7115 486.3197,33.0739 486.6821,33.2551 487.2257,33.2551 487.5881,33.0739 487.9505,32.7115"/>
    <line x1="489.219" x2="489.219" y1="30.7183" y2="33.2551"/>
    <polyline points="489.219,31.8055 489.4002,31.2619 489.7626,30.8995 490.125,30.7183 490.6686,30.7183"/>
    <polyline points="496.4671,29.4499 494.655,29.4499 494.4738,31.0807 494.655,30.8995 495.1986,30.7183 495.7422,30.7183 496.2859,30.8995 496.6483,31.2619 496.8295,31.8055 496.8295,32.1679 496.6483,32.7115 496.2859,33.0739 495.7422,33.2551 495.1986,33.2551 494.655,33.0739 494.4738,32.8927 494.2926,32.5303"/>
    <line x1="492.2737" x2="492.2737" y1="226.4479" y2="233.2128"/>
    <polyline points="492.2737,228.3807 493.7233,226.9311 494.6898,226.4479 496.1394,226.4479 497.1058,226.9311 497.589,228.3807 497.589,233.2128"/>
    <polyline points="497.589,228.3807 499.0386,226.9311 500.005,226.4479 501.4546,226.4479 502.4211,226.9311 502.9043,228.3807 502.9043,233.2128"/>
    <polygon points="508.7027,226.4479 507.7363,226.9311 506.7699,227.8975 506.2867,229.3471 506.2867,230.3135 506.7699,231.7631 507.7363,232.7296 508.7027,233.2128 510.1524,233.2128 511.1188,232.7296 512.0852,231.7631 512.5684,230.3135 512.5684,229.3471 512.0852,227.8975 511.1188,226.9311 510.1524,226.4479"/>
    <line x1="514.9844" x2="517.8837" y1="226.4479" y2="233.2128"/>
    <line x1="520.7829" x2="517.8837" y1="226.4479" y2="233.2128"/>
    <polyline points="523.1989,229.3471 528.9974,229.3471 528.9974,228.3807 528.5142,227.4143 528.031,226.9311 527.0646,226.4479 525.615,226.4479 524.6486,226.9311 523.6821,227.8975 523.1989,229.3471 523.1989,230.3135 523.6821,231.7631 524.6486,232.7296 525.615,233.2128 527.0646,233.2128 528.031,232.7296 528.9974,231.7631"/>
    <line x1="540.1112" x2="548.8089" y1="227.4143" y2="227.4143"/>
    <line x1="540.1112" x2="548.8089" y1="230.3135" y2="230.3135"/>
    <polyline points="563.7883,221.1326 562.8219,222.099 561.8555,223.5486 560.8891,225.4815 560.4058,227.8975 560.4058,229.8303 560.8891,232.2463 561.8555,234.1792 562.8219,235.6288 563.7883,236.5952"/>
    <polygon points="569.5868,223.0654 568.1372,223.5486 567.1707,224.9982 566.6875,227.4143 566.6875,228.8639 567.1707,231.2799 568.1372,232.7296 569.5868,233.2128 570.5532,233.2128 572.0028,232.7296 572.9692,231.2799 573.4524,228.8639 573.4524,227.4143 572.9692,224.9982 572.0028,223.5486 570.5532,223.0654"/>
    <polyline points="582.1501,227.8975 581.1837,226.9311 580.2173,226.4479 578.7677,226.4479 577.8013,226.9311 576.8349,227.8975 576.3517,229.3471 576.3517,230.3135 576.8349,231.7631 577.8013,232.7296 578.7677,233.2128 580.2173,233.2128 581.1837,232.7296 582.1501,231.7631"/>
    <line x1="585.5326" x2="585.5326" y1="226.4479" y2="233.2128"/>
    <polyline points="585.5326,228.3807 586.9822,226.9311 587.9486,226.4479 589.3982,226.4479 590.3647,226.9311 590.8479,228.3807 590.8479,233.2128"/>
    <polyline points="590.8479,228.3807 592.2975,226.9311 593.2639,226.4479 594.7135,226.4479 595.6799,226.9311 596.1631,228.3807 596.1631,233.2128"/>
    <polyline points="600.512,231.2799 600.0288,231.7631 599.5456,231.2799 600.0288,230.7967 600.512,231.2799 600.512,232.2463 599.5456,233.2128"/>
    <polygon points="614.0418,223.0654 612.5922,223.5486 611.6257,224.9982 611.1425,227.4143 611.1425,228.8639 611.6257,231.2799 612.5922,232.7296 614.0418,233.2128 615.0082,233.2128 616.4578,232.7296 617.4242,231.2799 617.9074,228.8639 617.9074,227.4143 617.4242,224.9982 616.4578,223.5486 615.0082,223.0654"/>
    <polyline points="621.7731,231.2799 621.2899,231.7631 620.8067,231.2799 621.2899,230.7967 621.7731,231.2799 621.7731,232.2463 620.8067,233.2128"/>
    <polygon points="635.3029,223.0654 633.8532,223.5486 632.8868,224.9982 632.4036,227.4143 632.4036,228.8639 632.8868,231.2799 633.8532,232.7296 635.3029,233.2128 636.2693,233.2128 637.7189,232.7296 638.6853,231.2799 639.1685,228.8639 639.1685,227.4143 638.6853,224.9982 637.7189,223.5486 636.2693,223.0654"/>
    <polyline points="642.0678,221.1326 643.0342,222.099 644.0006,223.5486 644.967,225.4815 645.4502,227.8975 645.4502,229.8303 644.967,232.2463 644.0006,234.1792 643.0342,235.6288 642.0678,236.5952"/>
    <polygon points="746.7011,56.8225 746.7011,181.7502 871.6287,181.7502 871.6287,56.8225"/>
    <line x1="748.4461" x2="748.4461" y1="57.8337" y2="60.4366"/>
    <line x1="750.8012" x2="750.8012" y1="58.7013" y2="60.4366"/>
    <polyline points="750.8012,59.0732 750.5533,58.8253 750.3054,58.7013 749.9336,58.7013 749.6857,58.8253 749.4378,59.0732 749.3138,59.445 749.3138,59.6929 749.4378,60.0648 749.6857,60.3127 749.9336,60.4366 750.3054,60.4366 750.5533,60.3127 750.8012,60.0648"/>
    <line x1="751.5449" x2="752.2886" y1="58.7013" y2="60.4366"/>
    <polyline points="753.0323,58.7013 752.2886,60.4366 752.0407,60.9325 751.7928,61.1804 751.5449,61.3043 751.421,61.3043"/>
    <polyline points="753.6521,59.445 755.1395,59.445 755.1395,59.1971 755.0156,58.9492 754.8916,58.8253 754.6437,58.7013 754.2719,58.7013 754.024,58.8253 753.7761,59.0732 753.6521,59.445 753.6521,59.6929 753.7761,60.0648 754.024,60.3127 754.2719,60.4366 754.6437,60.4366 754.8916,60.3127 755.1395,60.0648"/>
    <line x1="756.0072" x2="756.0072" y1="58.7013" y2="60.4366"/>
    <polyline points="756.0072,59.445 756.1311,59.0732 756.379,58.8253 756.6269,58.7013 756.9988,58.7013"/>
    <polyline points="759.8497,58.3295 760.0976,58.2055 760.4694,57.8337 760.4694,60.4366"/>
    <polygon points="737.0585,51.4655 737.0585,187.1072 872.7001,187.1072 872.7001,51.4655"/>
    <line x1="738.9532" x2="738.9532" y1="52.5634" y2="55.3896"/>
    <line x1="741.5103" x2="741.5103" y1="53.5055" y2="55.3896"/>
    <polyline points="741.5103,53.9092 741.2411,53.64 740.972,53.5055 740.5682,53.5055 740.299,53.64 740.0299,53.9092 739.8953,54.313 739.8953,54.5821 740.0299,54.9859 740.299,55.255 740.5682,55.3896 740.972,55.3896 741.2411,55.255 741.5103,54.9859"/>
    <line x1="742.3178" x2="743.1253" y1="53.5055" y2="55.3896"/>
    <polyline points="743.9328,53.5055 743.1253,55.3896 742.8561,55.9279 742.5869,56.1971 742.3178,56.3317 742.1832,56.3317"/>
    <polyline points="744.6057,54.313 746.2206,54.313 746.2206,54.0438 746.0861,53.7746 745.9515,53.64 745.6823,53.5055 745.2786,53.5055 745.0094,53.64 744.7402,53.9092 744.6057,54.313 744.6057,54.5821 744.7402,54.9859 745.0094,55.255 745.2786,55.3896 745.6823,55.3896 745.9515,55.255 746.2206,54.9859"/>
    <line x1="747.1627" x2="747.1627" y1="53.5055" y2="55.3896"/>
    <polyline points="747.1627,54.313 747.2973,53.9092 747.5665,53.64 747.8356,53.5055 748.2394,53.5055"/>
    <polyline points="751.0656,53.2363 751.0656,53.1017 751.2002,52.8326 751.3348,52.698 751.6039,52.5634 752.1423,52.5634 752.4114,52.698 752.546,52.8326 752.6806,53.1017 752.6806,53.3709 752.546,53.64 752.2768,54.0438 750.931,55.3896 752.8152,55.3896"/>
    <polygon points="725.6068,45.1035 725.6068,193.4692 873.9725,193.4692 873.9725,45.1035"/>
    <line x1="727.6793" x2="727.6793" y1="46.3044" y2="49.3957"/>
    <line x1="730.4762" x2="730.4762" y1="47.3348" y2="49.3957"/>
    <polyline points="730.4762,47.7764 730.1818,47.482 729.8874,47.3348 729.4458,47.3348 729.1514,47.482 728.857,47.7764 728.7098,48.218 728.7098,48.5124 728.857,48.9541 729.1514,49.2485 729.4458,49.3957 729.8874,49.3957 730.1818,49.2485 730.4762,48.9541"/>
    <line x1="731.3595" x2="732.2427" y1="47.3348" y2="49.3957"/>
    <polyline points="733.126,47.3348 732.2427,49.3957 731.9483,49.9845 731.6539,50.2789 731.3595,50.4261 731.2123,50.4261"/>
    <polyline points="733.862,48.218 735.6285,48.218 735.6285,47.9236 735.4813,47.6292 735.3341,47.482 735.0396,47.3348 734.598,47.3348 734.3036,47.482 734.0092,47.7764 733.862,48.218 733.862,48.5124 734.0092,48.9541 734.3036,49.2485 734.598,49.3957 735.0396,49.3957 735.3341,49.2485 735.6285,48.9541"/>
    <line x1="736.6589" x2="736.6589" y1="47.3348" y2="49.3957"/>
    <polyline points="736.6589,48.218 736.8061,47.7764 737.1005,47.482 737.395,47.3348 737.8366,47.3348"/>
    <polyline points="741.0751,46.3044 742.6944,46.3044 741.8111,47.482 742.2528,47.482 742.5472,47.6292 742.6944,47.7764 742.8416,48.218 742.8416,48.5124 742.6944,48.9541 742.4,49.2485 741.9584,49.3957 741.5167,49.3957 741.0751,49.2485 740.9279,49.1013 740.7807,48.8069"/>
    <polygon points="711.7843,37.4243 711.7843,201.1484 875.5083,201.1484 875.5083,37.4243"/>
    <line x1="714.0713" x2="714.0713" y1="38.7495" y2="42.1608"/>
    <line x1="717.1578" x2="717.1578" y1="39.8866" y2="42.1608"/>
    <polyline points="717.1578,40.3739 716.8329,40.049 716.508,39.8866 716.0207,39.8866 715.6958,40.049 715.3709,40.3739 715.2084,40.8613 715.2084,41.1862 715.3709,41.6735 715.6958,41.9984 716.0207,42.1608 716.508,42.1608 716.8329,41.9984 717.1578,41.6735"/>
    <line x1="718.1325" x2="719.1071" y1="39.8866" y2="42.1608"/>
    <polyline points="720.0818,39.8866 719.1071,42.1608 718.7822,42.8106 718.4573,43.1355 718.1325,43.2979 717.97,43.2979"/>
    <polyline points="720.894,40.8613 722.8434,40.8613 722.8434,40.5364 722.6809,40.2115 722.5185,40.049 722.1936,39.8866 721.7062,39.8866 721.3814,40.049 721.0565,40.3739 720.894,40.8613 720.894,41.1862 721.0565,41.6735 721.3814,41.9984 721.7062,42.1608 722.1936,42.1608 722.5185,41.9984 722.8434,41.6735"/>
    <line x1="723.9805" x2="723.9805" y1="39.8866" y2="42.1608"/>
    <polyline points="723.9805,40.8613 724.1429,40.3739 724.4678,40.049 724.7927,39.8866 725.28,39.8866"/>
    <polyline points="730.1534,38.7495 728.5289,41.0237 730.9656,41.0237"/>
    <line x1="730.1534" x2="730.1534" y1="38.7495" y2="42.1608"/>
    <polygon points="694.7696,27.9717 694.7696,210.601 877.3989,210.601 877.3989,27.9717"/>
    <line x1="697.3207" x2="697.3207" y1="29.4499" y2="33.2551"/>
    <line x1="700.7636" x2="700.7636" y1="30.7183" y2="33.2551"/>
    <polyline points="700.7636,31.2619 700.4012,30.8995 700.0387,30.7183 699.4951,30.7183 699.1327,30.8995 698.7703,31.2619 698.5891,31.8055 698.5891,32.1679 698.7703,32.7115 699.1327,33.0739 699.4951,33.2551 700.0387,33.2551 700.4012,33.0739 700.7636,32.7115"/>
    <line x1="701.8508" x2="702.938" y1="30.7183" y2="33.2551"/>
    <polyline points="704.0252,30.7183 702.938,33.2551 702.5756,33.9799 702.2132,34.3423 701.8508,34.5235 701.6696,34.5235"/>
    <polyline points="704.9312,31.8055 707.1056,31.8055 707.1056,31.4431 706.9244,31.0807 706.7432,30.8995 706.3808,30.7183 705.8372,30.7183 705.4748,30.8995 705.1124,31.2619 704.9312,31.8055 704.9312,32.1679 705.1124,32.7115 705.4748,33.0739 705.8372,33.2551 706.3808,33.2551 706.7432,33.0739 707.1056,32.7115"/>
    <line x1="708.3741" x2="708.3741" y1="30.7183" y2="33.2551"/>
    <polyline points="708.3741,31.8055 708.5553,31.2619 708.9177,30.8995 709.2801,30.7183 709.8237,30.7183"/>
    <polyline points="715.6222,29.4499 713.8101,29.4499 713.6289,31.0807 713.8101,30.8995 714.3537,30.7183 714.8974,30.7183 715.441,30.8995 715.8034,31.2619 715.9846,31.8055 715.9846,32.1679 715.8034,32.7115 715.441,33.0739 714.8974,33.2551 714.3537,33.2551 713.8101,33.0739 713.6289,32.8927 713.4477,32.5303"/>
    <line x1="711.4288" x2="711.4288" y1="226.4479" y2="233.2128"/>
    <polyline points="711.4288,228.3807 712.8784,226.9311 713.8449,226.4479 715.2945,226.4479 716.2609,226.9311 716.7441,228.3807 716.7441,233.2128"/>
    <polyline points="716.7441,228.3807 718.1937,226.9311 719.1601,226.4479 720.6097,226.4479 721.5762,226.9311 722.0594,228.3807 722.0594,233.2128"/>
    <polygon points="727.8578,226.4479 726.8914,226.9311 725.925,227.8975 725.4418,229.3471 725.4418,230.3135 725.925,231.7631 726.8914,232.7296 727.8578,233.2128 729.3075,233.2128 730.2739,232.7296 731.2403,231.7631 731.7235,230.3135 731.7235,229.3471 731.2403,227.8975 730.2739,226.9311 729.3075,226.4479"/>
    <line x1="734.1395" x2="737.0388" y1="226.4479" y2="233.2128"/>
    <line x1="739.938" x2="737.0388" y1="226.4479" y2="233.2128"/>
    <polyline points="742.354,229.3471 748.1525,229.3471 748.1525,228.3807 747.6693,227.4143 747.1861,226.9311 746.2197,226.4479 744.7701,226.4479 743.8037,226.9311 742.8372,227.8975 742.354,229.3471 742.354,230.3135 742.8372,231.7631 743.8037,232.7296 744.7701,233.2128 746.2197,233.2128 747.1861,232.7296 748.1525,231.7631"/>
    <line x1="759.2663" x2="767.964" y1="227.4143" y2="227.4143"/>
    <line x1="759.2663" x2="767.964" y1="230.3135" y2="230.3135"/>
    <polyline points="782.9434,221.1326 781.977,222.099 781.0106,223.5486 780.0442,225.4815 779.5609,227.8975 779.5609,229.8303 780.0442,232.2463 781.0106,234.1792 781.977,235.6288 782.9434,236.5952"/>
    <polyline points="790.6747,223.0654 785.8426,229.8303 793.0907,229.8303"/>
    <line x1="790.6747" x2="790.6747" y1="223.0654" y2="233.2128"/>
    <polyline points="801.3052,227.8975 800.3388,226.9311 799.3724,226.4479 797.9228,226.4479 796.9564,226.9311 795.99,227.8975 795.5068,229.3471 795.5068,230.3135 795.99,231.7631 796.9564,232.7296 797.9228,233.2128 799.3724,233.2128 800.3388,232.7296 801.3052,231.7631"/>
    <line x1="804.6877" x2="804.6877" y1="226.4479" y2="233.2128"/>
    <polyline points="804.6877,228.3807 806.1373,226.9311 807.1037,226.4479 808.5533,226.4479 809.5198,226.9311 810.003,228.3807 810.003,233.2128"/>
    <polyline points="810.003,228.3807 811.4526,226.9311 812.419,226.4479 813.8686,226.4479 814.835,226.9311 815.3182,228.3807 815.3182,233.2128"/>
    <polyline points="819.6671,231.2799 819.1839,231.7631 818.7007,231.2799 819.1839,230.7967 819.6671,231.2799 819.6671,232.2463 818.7007,233.2128"/>
    <polygon points="833.1969,223.0654 831.7473,223.5486 830.7808,224.9982 830.2976,227.4143 830.2976,228.8639 830.7808,231.2799 831.7473,232.7296 833.1969,233.2128 834.1633,233.2128 835.6129,232.7296 836.5793,231.2799 837.0625,228.8639 837.0625,227.4143 836.5793,224.9982 835.6129,223.5486 834.1633,223.0654"/>
    <polyline points="840.9282,231.2799 840.445,231.7631 839.9618,231.2799 840.445,230.7967 840.9282,231.2799 840.9282,232.2463 839.9618,233.2128"/>
    <polygon points="854.458,223.0654 853.0083,223.5486 852.0419,224.9982 851.5587,227.4143 851.5587,228.8639 852.0419,231.2799 853.0083,232.7296 854.458,233.2128 855.4244,233.2128 856.874,232.7296 857.8404,231.2799 858.3236,228.8639 858.3236,227.4143 857.8404,224.9982 856.874,223.5486 855.4244,223.0654"/>
    <polyline points="861.2229,221.1326 862.1893,222.099 863.1557,223.5486 864.1221,225.4815 864.6053,227.8975 864.6053,229.8303 864.1221,232.2463 863.1557,234.1792 862.1893,235.6288 861.2229,236.5952"/>
    <polygon points="997.592,56.8225 997.592,181.7502 1122.5197,181.7502 1122.5197,56.8225"/>
    <line x1="999.3371" x2="999.3371" y1="57.8337" y2="60.4366"/>
    <line x1="1001.6922" x2="1001.6922" y1="58.7013" y2="60.4366"/>
    <polyline points="1001.6922,59.0732 1001.4443,58.8253 1001.1964,58.7013 1000.8245,58.7013 1000.5766,58.8253 1000.3287,59.0732 1000.2048,59.445 1000.2048,59.6929 1000.3287,60.0648 1000.5766,60.3127 1000.8245,60.4366 1001.1964,60.4366 1001.4443,60.3127 1001.6922,60.0648"/>
    <line x1="1002.4359" x2="1003.1796" y1="58.7013" y2="60.4366"/>
    <polyline points="1003.9233,58.7013 1003.1796,60.4366 1002.9317,60.9325 1002.6838,61.1804 1002.4359,61.3043 1002.312,61.3043"/>
    <polyline points="1004.5431,59.445 1006.0305,59.445 1006.0305,59.1971 1005.9066,58.9492 1005.7826,58.8253 1005.5347,58.7013 1005.1629,58.7013 1004.9149,58.8253 1004.667,59.0732 1004.5431,59.445 1004.5431,59.6929 1004.667,60.0648 1004.9149,60.3127 1005.1629,60.4366 1005.5347,60.4366 1005.7826,60.3127 1006.0305,60.0648"/>
    <line x1="1006.8982" x2="1006.8982" y1="58.7013" y2="60.4366"/>
    <polyline points="1006.8982,59.445 1007.0221,59.0732 1007.27,58.8253 1007.5179,58.7013 1007.8898,58.7013"/>
    <polyline points="1010.7407,58.3295 1010.9886,58.2055 1011.3604,57.8337 1011.3604,60.4366"/>
    <polygon points="983.6639,51.4655 983.6639,187.1072 1119.3055,187.1072 1119.3055,51.4655"/>
    <line x1="985.5586" x2="985.5586" y1="52.5634" y2="55.3896"/>
    <line x1="988.1157" x2="988.1157" y1="53.5055" y2="55.3896"/>
    <polyline points="988.1157,53.9092 987.8465,53.64 987.5773,53.5055 987.1736,53.5055 986.9044,53.64 986.6353,53.9092 986.5007,54.313 986.5007,54.5821 986.6353,54.9859 986.9044,55.255 987.1736,55.3896 987.5773,55.3896 987.8465,55.255 988.1157,54.9859"/>
    <line x1="988.9232" x2="989.7307" y1="53.5055" y2="55.3896"/>
    <polyline points="990.5382,53.5055 989.7307,55.3896 989.4615,55.9279 989.1923,56.1971 988.9232,56.3317 988.7886,56.3317"/>
    <polyline points="991.2111,54.313 992.826,54.313 992.826,54.0438 992.6915,53.7746 992.5569,53.64 992.2877,53.5055 991.884,53.5055 991.6148,53.64 991.3456,53.9092 991.2111,54.313 991.2111,54.5821 991.3456,54.9859 991.6148,55.255 991.884,55.3896 992.2877,55.3896 992.5569,55.255 992.826,54.9859"/>
    <line x1="993.7681" x2="993.7681" y1="53.5055" y2="55.3896"/>
    <polyline points="993.7681,54.313 993.9027,53.9092 994.1719,53.64 994.441,53.5055 994.8448,53.5055"/>
    <polyline points="997.671,53.2363 997.671,53.1017 997.8056,52.8326 997.9402,52.698 998.2093,52.5634 998.7476,52.5634 999.0168,52.698 999.1514,52.8326 999.286,53.1017 999.286,53.3709 999.1514,53.64 998.8822,54.0438 997.5364,55.3896 999.4206,55.3896"/>
    <polygon points="967.1226,45.1035 967.1226,193.4692 1115.4883,193.4692 1115.4883,45.1035"/>
    <line x1="969.1951" x2="969.1951" y1="46.3044" y2="49.3957"/>
    <line x1="971.992" x2="971.992" y1="47.3348" y2="49.3957"/>
    <polyline points="971.992,47.7764 971.6976,47.482 971.4032,47.3348 970.9616,47.3348 970.6672,47.482 970.3727,47.7764 970.2255,48.218 970.2255,48.5124 970.3727,48.9541 970.6672,49.2485 970.9616,49.3957 971.4032,49.3957 971.6976,49.2485 971.992,48.9541"/>
    <line x1="972.8753" x2="973.7585" y1="47.3348" y2="49.3957"/>
    <polyline points="974.6417,47.3348 973.7585,49.3957 973.4641,49.9845 973.1697,50.2789 972.8753,50.4261 972.7281,50.4261"/>
    <polyline points="975.3778,48.218 977.1442,48.218 977.1442,47.9236 976.997,47.6292 976.8498,47.482 976.5554,47.3348 976.1138,47.3348 975.8194,47.482 975.525,47.7764 975.3778,48.218 975.3778,48.5124 975.525,48.9541 975.8194,49.2485 976.1138,49.3957 976.5554,49.3957 976.8498,49.2485 977.1442,48.9541"/>
    <line x1="978.1747" x2="978.1747" y1="47.3348" y2="49.3957"/>
    <polyline points="978.1747,48.218 978.3219,47.7764 978.6163,47.482 978.9107,47.3348 979.3523,47.3348"/>
    <polyline points="982.5909,46.3044 984.2102,46.3044 983.3269,47.482 983.7685,47.482 984.063,47.6292 984.2102,47.7764 984.3574,48.218 984.3574,48.5124 984.2102,48.9541 983.9157,49.2485 983.4741,49.3957 983.0325,49.3957 982.5909,49.2485 982.4437,49.1013 982.2965,48.8069"/>
    <polygon points="947.1567,37.4243 947.1567,201.1484 1110.8808,201.1484 1110.8808,37.4243"/>
    <line x1="949.4438" x2="949.4438" y1="38.7495" y2="42.1608"/>
    <line x1="952.5302" x2="952.5302" y1="39.8866" y2="42.1608"/>
    <polyline points="952.5302,40.3739 952.2053,40.049 951.8804,39.8866 951.3931,39.8866 951.0682,40.049 950.7433,40.3739 950.5809,40.8613 950.5809,41.1862 950.7433,41.6735 951.0682,41.9984 951.3931,42.1608 951.8804,42.1608 952.2053,41.9984 952.5302,41.6735"/>
    <line x1="953.5049" x2="954.4796" y1="39.8866" y2="42.1608"/>
    <polyline points="955.4542,39.8866 954.4796,42.1608 954.1547,42.8106 953.8298,43.1355 953.5049,43.2979 953.3424,43.2979"/>
    <polyline points="956.2664,40.8613 958.2158,40.8613 958.2158,40.5364 958.0533,40.2115 957.8909,40.049 957.566,39.8866 957.0787,39.8866 956.7538,40.049 956.4289,40.3739 956.2664,40.8613 956.2664,41.1862 956.4289,41.6735 956.7538,41.9984 957.0787,42.1608 957.566,42.1608 957.8909,41.9984 958.2158,41.6735"/>
    <line x1="959.3529" x2="959.3529" y1="39.8866" y2="42.1608"/>
    <polyline points="959.3529,40.8613 959.5153,40.3739 959.8402,40.049 960.1651,39.8866 960.6525,39.8866"/>
    <polyline points="965.5258,38.7495 963.9014,41.0237 966.338,41.0237"/>
    <line x1="965.5258" x2="965.5258" y1="38.7495" y2="42.1608"/>
    <polygon points="922.58,27.9717 922.58,210.601 1105.2092,210.601 1105.2092,27.9717"/>
    <line x1="925.1311" x2="925.1311" y1="29.4499" y2="33.2551"/>
    <line x1="928.5739" x2="928.5739" y1="30.7183" y2="33.2551"/>
    <polyline points="928.5739,31.2619 928.2115,30.8995 927.8491,30.7183 927.3055,30.7183 926.9431,30.8995 926.5807,31.2619 926.3995,31.8055 926.3995,32.1679 926.5807,32.7115 926.9431,33.0739 927.3055,33.2551 927.8491,33.2551 928.2115,33.0739 928.5739,32.7115"/>
    <line x1="929.6611" x2="930.7483" y1="30.7183" y2="33.2551"/>
    <polyline points="931.8355,30.7183 930.7483,33.2551 930.3859,33.9799 930.0235,34.3423 929.6611,34.5235 929.4799,34.5235"/>
    <polyline points="932.7416,31.8055 934.916,31.8055 934.916,31.4431 934.7348,31.0807 934.5536,30.8995 934.1912,30.7183 933.6476,30.7183 933.2852,30.8995 932.9228,31.2619 932.7416,31.8055 932.7416,32.1679 932.9228,32.7115 933.2852,33.0739 933.6476,33.2551 934.1912,33.2551 934.5536,33.0739 934.916,32.7115"/>
    <line x1="936.1844" x2="936.1844" y1="30.7183" y2="33.2551"/>
    <polyline points="936.1844,31.8055 936.3656,31.2619 936.728,30.8995 937.0904,30.7183 937.634,30.7183"/>
    <polyline points="943.4325,29.4499 941.6205,29.4499 941.4393,31.0807 941.6205,30.8995 942.1641,30.7183 942.7077,30.7183 943.2513,30.8995 943.6137,31.2619 943.7949,31.8055 943.7949,32.1679 943.6137,32.7115 943.2513,33.0739 942.7077,33.2551 942.1641,33.2551 941.6205,33.0739 941.4393,32.8927 941.2581,32.5303"/>
    <line x1="939.2392" x2="939.2392" y1="226.4479" y2="233.2128"/>
    <polyline points="939.2392,228.3807 940.6888,226.9311 941.6552,226.4479 943.1048,226.4479 944.0712,226.9311 944.5544,228.3807 944.5544,233.2128"/>
    <polyline points="944.5544,228.3807 946.0041,226.9311 946.9705,226.4479 948.4201,226.4479 949.3865,226.9311 949.8697,228.3807 949.8697,233.2128"/>
    <polygon points="955.6682,226.4479 954.7018,226.9311 953.7354,227.8975 953.2522,229.3471 953.2522,230.3135 953.7354,231.7631 954.7018,232.7296 955.6682,233.2128 957.1178,233.2128 958.0842,232.7296 959.0506,231.7631 959.5338,230.3135 959.5338,229.3471 959.0506,227.8975 958.0842,226.9311 957.1178,226.4479"/>
    <line x1="961.9499" x2="964.8491" y1="226.4479" y2="233.2128"/>
    <line x1="967.7484" x2="964.8491" y1="226.4479" y2="233.2128"/>
    <polyline points="970.1644,229.3471 975.9629,229.3471 975.9629,228.3807 975.4797,227.4143 974.9964,226.9311 974.03,226.4479 972.5804,226.4479 971.614,226.9311 970.6476,227.8975 970.1644,229.3471 970.1644,230.3135 970.6476,231.7631 971.614,232.7296 972.5804,233.2128 974.03,233.2128 974.9964,232.7296 975.9629,231.7631"/>
    <line x1="987.0766" x2="995.7743" y1="227.4143" y2="227.4143"/>
    <line x1="987.0766" x2="995.7743" y1="230.3135" y2="230.3135"/>
    <polyline points="1010.7537,221.1326 1009.7873,222.099 1008.8209,223.5486 1007.8545,225.4815 1007.3713,227.8975 1007.3713,229.8303 1007.8545,232.2463 1008.8209,234.1792 1009.7873,235.6288 1010.7537,236.5952"/>
    <polygon points="1016.069,223.0654 1014.6194,223.5486 1014.1362,224.515 1014.1362,225.4815 1014.6194,226.4479 1015.5858,226.9311 1017.5186,227.4143 1018.9682,227.8975 1019.9347,228.8639 1020.4179,229.8303 1020.4179,231.2799 1019.9347,232.2463 1019.4515,232.7296 1018.0018,233.2128 1016.069,233.2128 1014.6194,232.7296 1014.1362,232.2463 1013.653,231.2799 1013.653,229.8303 1014.1362,228.8639 1015.1026,227.8975 1016.5522,227.4143 1018.485,226.9311 1019.4515,226.4479 1019.9347,225.4815 1019.9347,224.515 1019.4515,223.5486 1018.0018,223.0654"/>
    <polyline points="1029.1156,227.8975 1028.1492,226.9311 1027.1828,226.4479 1025.7331,226.4479 1024.7667,226.9311 1023.8003,227.8975 1023.3171,229.3471 1023.3171,230.3135 1023.8003,231.7631 1024.7667,232.7296 1025.7331,233.2128 1027.1828,233.2128 1028.1492,232.7296 1029.1156,231.7631"/>
    <line x1="1032.498" x2="1032.498" y1="226.4479" y2="233.2128"/>
    <polyline points="1032.498,228.3807 1033.9476,226.9311 1034.9141,226.4479 1036.3637,226.4479 1037.3301,226.9311 1037.8133,228.3807 1037.8133,233.2128"/>
    <polyline points="1037.8133,228.3807 1039.2629,226.9311 1040.2293,226.4479 1041.679,226.4479 1042.6454,226.9311 1043.1286,228.3807 1043.1286,233.2128"/>
    <polyline points="1047.4774,231.2799 1046.9942,231.7631 1046.511,231.2799 1046.9942,230.7967 1047.4774,231.2799 1047.4774,232.2463 1046.511,233.2128"/>
    <polygon points="1061.0072,223.0654 1059.5576,223.5486 1058.5912,224.9982 1058.108,227.4143 1058.108,228.8639 1058.5912,231.2799 1059.5576,232.7296 1061.0072,233.2128 1061.9736,233.2128 1063.4232,232.7296 1064.3897,231.2799 1064.8729,228.8639 1064.8729,227.4143 1064.3897,224.9982 1063.4232,223.5486 1061.9736,223.0654"/>
    <polyline points="1068.7385,231.2799 1068.2553,231.7631 1067.7721,231.2799 1068.2553,230.7967 1068.7385,231.2799 1068.7385,232.2463 1067.7721,233.2128"/>
    <polygon points="1082.2683,223.0654 1080.8187,223.5486 1079.8523,224.9982 1079.3691,227.4143 1079.3691,228.8639 1079.8523,231.2799 1080.8187,232.7296 1082.2683,233.2128 1083.2347,233.2128 1084.6843,232.7296 1085.6508,231.2799 1086.134,228.8639 1086.134,227.4143 1085.6508,224.9982 1084.6843,223.5486 1083.2347,223.0654"/>
    <polyline points="1089.0332,221.1326 1089.9996,222.099 1090.966,223.5486 1091.9324,225.4815 1092.4156,227.8975 1092.4156,229.8303 1091.9324,232.2463 1090.966,234.1792 1089.9996,235.6288 1089.0332,236.5952"/>
  </g>
</svg>
