<svg xmlns="http://www.w3.org/2000/svg" xmlns:cc="http://creativecommons.org/ns" xmlns:ev="http://www.w3.org/2001/xml-events" xmlns:rdf="http://www.w3.org/1999/02/22-rdf-syntax-ns" xmlns:xlink="http://www.w3.org/1999/xlink" width="10cm" height="10cm" baseProfile="tiny" version="1.2" viewBox="0 0 377.953 377.953"><metadata><rdf:RDF><cc:Work/></rdf:RDF></metadata><g id="layer1" fill="none" stroke="#00f" style="display:inline"><polygon points="59.707 59.707 59.707 318.246 318.246 318.246 318.246 59.707"/><line x1="63.318" x2="63.318" y1="61.8" y2="67.186"/><line x1="68.192" x2="68.192" y1="63.595" y2="67.186"/><polyline points="68.192 64.365 67.679 63.852 67.166 63.595 66.397 63.595 65.884 63.852 65.371 64.365 65.114 65.134 65.114 65.647 65.371 66.417 65.884 66.93 66.397 67.186 67.166 67.186 67.679 66.93 68.192 66.417"/><line x1="69.731" x2="71.27" y1="63.595" y2="67.186"/><polyline points="72.81 63.595 71.27 67.186 70.757 68.213 70.245 68.725 69.731 68.982 69.475 68.982"/><polyline points="74.092 65.134 77.171 65.134 77.171 64.621 76.914 64.108 76.657 63.852 76.144 63.595 75.375 63.595 74.862 63.852 74.349 64.365 74.092 65.134 74.092 65.647 74.349 66.417 74.862 66.93 75.375 67.186 76.144 67.186 76.657 66.93 77.171 66.417"/><line x1="78.966" x2="78.966" y1="63.595" y2="67.186"/><polyline points="78.966 65.134 79.223 64.365 79.736 63.852 80.249 63.595 81.018 63.595"/><polyline points="86.918 62.826 87.431 62.569 88.201 61.8 88.201 67.186"/><polygon points="48.621 48.621 48.621 329.332 329.332 329.332 329.332 48.621"/><line x1="52.542" x2="52.542" y1="50.893" y2="56.742"/><line x1="57.834" x2="57.834" y1="52.842" y2="56.742"/><polyline points="57.834 53.678 57.277 53.121 56.72 52.842 55.884 52.842 55.327 53.121 54.77 53.678 54.492 54.513 54.492 55.07 54.77 55.906 55.327 56.463 55.884 56.742 56.72 56.742 57.277 56.463 57.834 55.906"/><line x1="59.505" x2="61.176" y1="52.842" y2="56.742"/><polyline points="62.847 52.842 61.176 56.742 60.619 57.856 60.062 58.413 59.505 58.691 59.226 58.691"/><polyline points="64.24 54.513 67.582 54.513 67.582 53.956 67.303 53.399 67.025 53.121 66.468 52.842 65.632 52.842 65.075 53.121 64.518 53.678 64.24 54.513 64.24 55.07 64.518 55.906 65.075 56.463 65.632 56.742 66.468 56.742 67.025 56.463 67.582 55.906"/><line x1="69.531" x2="69.531" y1="52.842" y2="56.742"/><polyline points="69.531 54.513 69.81 53.678 70.367 53.121 70.924 52.842 71.76 52.842"/><polyline points="77.609 52.285 77.609 52.007 77.887 51.45 78.165 51.171 78.723 50.893 79.837 50.893 80.394 51.171 80.672 51.45 80.951 52.007 80.951 52.564 80.672 53.121 80.115 53.956 77.33 56.742 81.229 56.742"/><polygon points="35.454 35.454 35.454 342.498 342.498 342.498 342.498 35.454"/><line x1="39.743" x2="39.743" y1="37.94" y2="44.337"/><line x1="45.532" x2="45.532" y1="40.072" y2="44.337"/><polyline points="45.532 40.986 44.922 40.377 44.313 40.072 43.399 40.072 42.79 40.377 42.181 40.986 41.876 41.9 41.876 42.509 42.181 43.423 42.79 44.032 43.399 44.337 44.313 44.337 44.922 44.032 45.532 43.423"/><line x1="47.359" x2="49.187" y1="40.072" y2="44.337"/><polyline points="51.015 40.072 49.187 44.337 48.578 45.556 47.969 46.165 47.359 46.47 47.055 46.47"/><polyline points="52.538 41.9 56.194 41.9 56.194 41.291 55.89 40.681 55.585 40.377 54.976 40.072 54.062 40.072 53.452 40.377 52.843 40.986 52.538 41.9 52.538 42.509 52.843 43.423 53.452 44.032 54.062 44.337 54.976 44.337 55.585 44.032 56.194 43.423"/><line x1="58.327" x2="58.327" y1="40.072" y2="44.337"/><polyline points="58.327 41.9 58.631 40.986 59.241 40.377 59.85 40.072 60.764 40.072"/><polyline points="67.466 37.94 70.817 37.94 68.989 40.377 69.903 40.377 70.513 40.681 70.817 40.986 71.122 41.9 71.122 42.509 70.817 43.423 70.208 44.032 69.294 44.337 68.38 44.337 67.466 44.032 67.162 43.728 66.857 43.118"/><polygon points="19.562 19.562 19.562 358.39 358.39 358.39 358.39 19.562"/><line x1="24.295" x2="24.295" y1="22.305" y2="29.364"/><line x1="30.683" x2="30.683" y1="24.658" y2="29.364"/><polyline points="30.683 25.666 30.01 24.994 29.338 24.658 28.329 24.658 27.657 24.994 26.985 25.666 26.648 26.675 26.648 27.347 26.985 28.356 27.657 29.028 28.329 29.364 29.338 29.364 30.01 29.028 30.683 28.356"/><line x1="32.7" x2="34.717" y1="24.658" y2="29.364"/><polyline points="36.734 24.658 34.717 29.364 34.044 30.709 33.372 31.381 32.7 31.718 32.364 31.718"/><polyline points="38.415 26.675 42.449 26.675 42.449 26.003 42.113 25.33 41.777 24.994 41.104 24.658 40.096 24.658 39.423 24.994 38.751 25.666 38.415 26.675 38.415 27.347 38.751 28.356 39.423 29.028 40.096 29.364 41.104 29.364 41.777 29.028 42.449 28.356"/><line x1="44.802" x2="44.802" y1="24.658" y2="29.364"/><polyline points="44.802 26.675 45.139 25.666 45.811 24.994 46.483 24.658 47.492 24.658"/><polyline points="57.577 22.305 54.215 27.011 59.258 27.011"/><line x1="57.577" x2="57.577" y1="22.305" y2="29.364"/><polygon points="0 0 0 377.953 377.953 377.953 377.953 0"/><line x1="5.279" x2="5.279" y1="3.059" y2="10.934"/><line x1="12.405" x2="12.405" y1="5.684" y2="10.934"/><polyline points="12.405 6.809 11.655 6.059 10.905 5.684 9.78 5.684 9.03 6.059 8.28 6.809 7.904 7.934 7.904 8.684 8.28 9.809 9.03 10.559 9.78 10.934 10.905 10.934 11.655 10.559 12.405 9.809"/><line x1="14.655" x2="16.904" y1="5.684" y2="10.934"/><polyline points="19.154 5.684 16.904 10.934 16.154 12.434 15.405 13.184 14.655 13.559 14.28 13.559"/><polyline points="21.029 7.934 25.529 7.934 25.529 7.184 25.154 6.434 24.779 6.059 24.029 5.684 22.904 5.684 22.154 6.059 21.404 6.809 21.029 7.934 21.029 8.684 21.404 9.809 22.154 10.559 22.904 10.934 24.029 10.934 24.779 10.559 25.529 9.809"/><line x1="28.154" x2="28.154" y1="5.684" y2="10.934"/><polyline points="28.154 7.934 28.529 6.809 29.279 6.059 30.029 5.684 31.154 5.684"/><polyline points="43.154 3.059 39.404 3.059 39.029 6.434 39.404 6.059 40.529 5.684 41.654 5.684 42.779 6.059 43.529 6.809 43.904 7.934 43.904 8.684 43.529 9.809 42.779 10.559 41.654 10.934 40.529 10.934 39.404 10.559 39.029 10.184 38.654 9.434"/></g></svg>