<?xml version="1.0" encoding="utf-8" ?>
<svg xmlns="http://www.w3.org/2000/svg" xmlns:cc="http://creativecommons.org/ns" xmlns:dc="http://purl.org/dc/elements/1.1/" xmlns:ev="http://www.w3.org/2001/xml-events" xmlns:inkscape="http://www.inkscape.org/namespaces/inkscape" xmlns:rdf="http://www.w3.org/1999/02/22-rdf-syntax-ns" xmlns:sodipodi="http://sodipodi.sourceforge.net/DTD/sodipodi-0.dtd" xmlns:xlink="http://www.w3.org/1999/xlink" baseProfile="tiny" height="9.0cm" version="1.2" viewBox="0 0 1133.8582677165352 340.1574803149606" width="30.0cm">
  <metadata>
    <rdf:RDF>
      <cc:Work>
        <dc:format>image/svg+xml</dc:format>
        <dc:source>vpype -I figures/fig_transforms.vpy write figures/fig_transforms.svg
</dc:source>
        <dc:date>2022-03-31T13:17:48.559629</dc:date>
      </cc:Work>
    </rdf:RDF>
  </metadata>
  <defs/>
  <g fill="none" id="layer9" inkscape:groupmode="layer" inkscape:label="9" stroke="#0000ff" style="display:inline">
    <polygon points="171.0262,25.6613 169.0498,132.0839 270.2786,200.3431 284.0327,93.1179"/>
    <line x1="172.7647" x2="172.6825" y1="26.7177" y2="30.7917"/>
    <line x1="176.0331" x2="175.9702" y1="30.0497" y2="32.764"/>
    <polyline points="176.0196,30.6325 175.681,30.0362 175.338,29.6341 174.817,29.3226 174.4657,29.3094 174.1106,29.4902 173.9249,29.9685 173.9167,30.3561 174.0774,31.0407 174.4152,31.6352 174.7572,32.0363 175.2768,32.348 175.6278,32.3625 175.9837,32.1835"/>
    <line x1="177.0772" x2="178.0546" y1="30.674" y2="34.0145"/>
    <polyline points="179.17,31.9253 178.0546,34.0145 177.6876,34.5791 177.3308,34.7567 176.979,34.7411 176.8055,34.6369"/>
    <polyline points="180.0125,33.6135 182.1119,34.8706 182.1231,34.4822 181.9589,33.9886 181.7892,33.6893 181.4442,33.2852 180.9187,32.971 180.5633,32.9561 180.2029,33.1356 180.0125,33.6135 180.0021,34.0016 180.161,34.6877 180.4996,35.2844 180.8435,35.6875 181.3677,36.002 181.7229,36.0181 182.0839,35.8405"/>
    <line x1="183.3744" x2="183.293" y1="34.4393" y2="37.1569"/>
    <polyline points="183.3394,35.6056 183.5325,35.1279 183.8958,34.9492 184.2535,34.9649 184.7814,35.2806"/>
    <polyline points="188.863,37.1242 189.2244,37.141 189.7774,36.8733 189.631,40.9591"/>
    <polygon points="150.4306,38.3302 150.4306,144.9845 251.7795,215.2051 263.6024,107.9447"/>
    <line x1="152.1698" x2="152.1633" y1="39.4185" y2="43.5071"/>
    <line x1="155.4645" x2="155.4519" y1="42.8161" y2="45.5399"/>
    <polyline points="155.4618,43.4009 155.1158,42.7968 154.7691,42.3876 154.248,42.0666 153.9002,42.0476 153.5521,42.2235 153.3772,42.7006 153.3762,43.0896 153.5477,43.7795 153.8928,44.3817 154.2385,44.7898 154.7582,45.1111 155.1058,45.1313 155.4546,44.9573"/>
    <line x1="156.5089" x2="157.5371" y1="43.4596" y2="46.8287"/>
    <polyline points="158.6024,44.7495 157.5371,46.8287 157.1843,47.3896 156.8345,47.5621 156.4861,47.5408 156.3126,47.4334"/>
    <polyline points="159.4669,46.4579 161.5673,47.7537 161.5713,47.364 161.3999,46.8658 161.2264,46.5626 160.8777,46.1513 160.352,45.8274 160.0,45.8068 159.6467,45.9811 159.4669,46.4579 159.4637,46.8472 159.6335,47.5386 159.9795,48.1431 160.3271,48.5533 160.8515,48.8774 161.2033,48.8994 161.5573,48.7269"/>
    <line x1="162.8087" x2="162.7777" y1="47.3411" y2="50.0681"/>
    <polyline points="162.7954,48.5115 162.9778,48.035 163.334,47.8614 163.6883,47.883 164.2165,48.2085"/>
    <polyline points="167.932,50.1028 167.9352,49.9072 168.1188,49.6249 168.2993,49.5382 168.6575,49.5607 169.3678,49.9977 169.7198,50.4123 169.8941,50.7175 170.0648,51.2184 170.0577,51.6097 169.873,51.8912 169.5076,52.2583 167.705,53.1137 170.1819,54.6447"/>
    <polygon points="129.1974,51.3912 131.2918,158.245 232.7255,230.5128 242.4867,123.2689"/>
    <line x1="130.9366" x2="131.0105" y1="52.513" y2="56.615"/>
    <line x1="134.2576" x2="134.2986" y1="55.9785" y2="58.7111"/>
    <polyline points="134.2664,56.5653 133.9128,55.9532 133.5623,55.5367 133.0413,55.2056 132.6974,55.1806 132.357,55.3511 132.1936,55.8268 132.2002,56.217 132.3832,56.9121 132.7358,57.5223 133.0853,57.9377 133.605,58.269 133.9487,58.2953 134.2898,58.1267"/>
    <line x1="135.3019" x2="136.3835" y1="56.6421" y2="60.0402"/>
    <polyline points="137.3953,57.9725 136.3835,60.0402 136.046,60.5968 135.7038,60.7638 135.3593,60.7365 135.1858,60.6257"/>
    <polyline points="138.2827,59.7015 140.383,61.038 140.3794,60.647 140.2003,60.1442 140.0231,59.837 139.6705,59.4183 139.1447,59.0842 138.7966,59.0574 138.451,59.2262 138.2827,59.7015 138.2871,60.0921 138.4684,60.7887 138.822,61.4012 139.1734,61.8187 139.6978,62.153 140.0458,62.1811 140.3922,62.0142"/>
    <line x1="141.6016" x2="141.624" y1="60.6455" y2="63.3809"/>
    <polyline points="141.6112,61.8195 141.7821,61.3445 142.1307,61.1766 142.4811,61.2044 143.0094,61.5401"/>
    <polyline points="146.8916,62.636 148.8458,63.8759 147.7831,64.7694 148.3154,65.1077 148.6708,65.5294 148.8487,65.8382 149.0271,66.5385 149.0276,66.9296 148.851,67.4029 148.4972,67.5675 147.9663,67.424 147.4356,67.0856 146.9045,66.5524 146.7271,66.2447 146.549,65.7416"/>
    <polygon points="37.2587,107.9447 49.0817,215.2051 150.4306,296.6277 150.4306,190.0765"/>
    <line x1="38.9883" x2="39.4386" y1="109.2172" y2="113.3601"/>
    <line x1="42.4146" x2="42.7063" y1="112.9826" y2="115.7416"/>
    <polyline points="42.4773,113.5751 42.09,112.929 41.7236,112.4804 41.2058,112.1041 40.882,112.0509 40.5797,112.1952 40.4711,112.6616 40.5135,113.0557 40.749,113.7715 41.1353,114.4154 41.5005,114.8628 42.017,115.2392 42.3407,115.2938 42.644,115.1516"/>
    <line x1="43.4527" x2="44.7789" y1="113.737" y2="117.252"/>
    <polyline points="45.5338,115.2495 44.7789,117.252 44.5149,117.7856 44.2104,117.926 43.8858,117.8702 43.7133,117.7443"/>
    <polyline points="46.5239,117.0658 48.6126,118.5855 48.573,118.1909 48.359,117.6691 48.1648,117.3447 47.7961,116.8936 47.2733,116.5137 46.9451,116.4582 46.6374,116.6002 46.5239,117.0658 46.5642,117.46 46.7982,118.1773 47.1856,118.8238 47.553,119.2737 48.0745,119.6537 48.4026,119.7106 48.7113,119.5707"/>
    <line x1="49.7167" x2="49.9903" y1="118.2894" y2="121.0499"/>
    <polyline points="49.8341,119.4743 49.9503,119.0093 50.261,118.8685 50.5916,118.9253 51.1172,119.3072"/>
    <line x1="56.9757" x2="55.5965" y1="122.2713" y2="125.1355"/>
    <line x1="54.5007" x2="56.9757" y1="120.4751" y2="122.2713"/>
    <polygon points="12.3463,123.2689 26.9881,230.5128 128.1892,314.4962 125.3096,208.3075"/>
    <line x1="14.0706" x2="14.6308" y1="124.5838" y2="128.733"/>
    <line x1="17.5231" x2="17.888" y1="128.4321" y2="131.1949"/>
    <polyline points="17.6014,129.0254 17.2047,128.3702 16.8342,127.9128 16.3181,127.5237 16.0006,127.4624 15.7099,127.5987 15.6176,128.0618 15.6705,128.4564 15.9211,129.1773 16.3167,129.8303 16.686,130.2864 17.2008,130.6755 17.5183,130.7383 17.81,130.6041"/>
    <line x1="18.5578" x2="19.954" y1="129.212" y2="132.7565"/>
    <polyline points="20.6324,130.7759 19.954,132.7565 19.7119,133.2825 19.4189,133.4149 19.1006,133.3508 18.9287,133.2207"/>
    <polyline points="21.6513,132.6153 23.7335,134.1867 23.6835,133.7916 23.4595,133.265 23.2605,132.936 22.8877,132.476 22.3665,132.0831 22.0446,132.0193 21.7484,132.1533 21.6513,132.6153 21.702,133.01 21.9511,133.7324 22.3479,134.388 22.7195,134.8467 23.2394,135.2396 23.5612,135.3049 23.8584,135.1731"/>
    <line x1="24.8024" x2="25.1494" y1="133.9194" y2="136.6833"/>
    <polyline points="24.9514,135.1058 25.0512,134.6444 25.3504,134.5118 25.6747,134.577 26.1987,134.9719"/>
    <polygon points="30.4153,136.8883 29.9109,136.6891 29.7829,136.9534 29.8309,137.3499 30.0546,137.8786 30.4301,138.3417 31.1578,139.0703 31.7097,139.6666 32.1092,140.3278 32.3324,140.8559 32.4027,141.448 32.2736,141.7093 32.1211,141.7734 31.6172,141.5718 30.9148,141.0409 30.3646,140.4461 30.1654,140.1166 29.9423,139.5898 29.8707,138.9977 29.9984,138.7351 30.302,138.6048 30.8058,138.8049 31.4863,139.138 31.8151,139.2057 31.9443,138.9424 31.8971,138.5459 31.6734,138.0161 31.1204,137.4191"/>
    <line x1="185.7844" x2="185.7844" y1="264.627" y2="271.9956"/>
    <polyline points="185.7844,265.6797 186.4862,264.9779 187.1879,264.627 188.2406,264.627 188.9424,264.9779 189.6441,265.6797 189.995,266.7324 189.995,267.4341 189.6441,268.4868 188.9424,269.1886 188.2406,269.5394 187.1879,269.5394 186.4862,269.1886 185.7844,268.4868"/>
    <polyline points="192.8021,262.1708 192.8021,268.1359 193.153,269.1886 193.8548,269.5394 194.5565,269.5394"/>
    <line x1="191.7494" x2="194.2056" y1="264.627" y2="264.627"/>
    <line x1="196.6618" x2="196.6618" y1="264.627" y2="269.5394"/>
    <polyline points="196.6618,266.7324 197.0127,265.6797 197.7145,264.9779 198.4163,264.627 199.4689,264.627"/>
    <line x1="205.0831" x2="205.0831" y1="264.627" y2="269.5394"/>
    <polyline points="205.0831,265.6797 204.3813,264.9779 203.6796,264.627 202.6269,264.627 201.9251,264.9779 201.2234,265.6797 200.8725,266.7324 200.8725,267.4341 201.2234,268.4868 201.9251,269.1886 202.6269,269.5394 203.6796,269.5394 204.3813,269.1886 205.0831,268.4868"/>
    <line x1="207.8902" x2="207.8902" y1="264.627" y2="269.5394"/>
    <polyline points="207.8902,266.0306 208.9428,264.9779 209.6446,264.627 210.6973,264.627 211.399,264.9779 211.7499,266.0306 211.7499,269.5394"/>
    <polyline points="218.0659,265.6797 217.715,264.9779 216.6623,264.627 215.6097,264.627 214.557,264.9779 214.2061,265.6797 214.557,266.3815 215.2588,266.7324 217.0132,267.0832 217.715,267.4341 218.0659,268.1359 218.0659,268.4868 217.715,269.1886 216.6623,269.5394 215.6097,269.5394 214.557,269.1886 214.2061,268.4868"/>
    <line x1="220.5221" x2="220.5221" y1="262.1708" y2="269.5394"/>
    <line x1="227.1889" x2="227.1889" y1="264.627" y2="269.5394"/>
    <polyline points="227.1889,265.6797 226.4871,264.9779 225.7854,264.627 224.7327,264.627 224.0309,264.9779 223.3292,265.6797 222.9783,266.7324 222.9783,267.4341 223.3292,268.4868 224.0309,269.1886 224.7327,269.5394 225.7854,269.5394 226.4871,269.1886 227.1889,268.4868"/>
    <polyline points="230.3469,262.1708 230.3469,268.1359 230.6978,269.1886 231.3995,269.5394 232.1013,269.5394"/>
    <line x1="229.2942" x2="231.7504" y1="264.627" y2="264.627"/>
    <polyline points="233.8557,266.7324 238.0664,266.7324 238.0664,266.0306 237.7155,265.3288 237.3646,264.9779 236.6628,264.627 235.6102,264.627 234.9084,264.9779 234.2066,265.6797 233.8557,266.7324 233.8557,267.4341 234.2066,268.4868 234.9084,269.1886 235.6102,269.5394 236.6628,269.5394 237.3646,269.1886 238.0664,268.4868"/>
    <line x1="246.1367" x2="252.4527" y1="266.3815" y2="266.3815"/>
    <line x1="255.2598" x2="255.2598" y1="262.1708" y2="269.5394"/>
    <polyline points="266.839,262.1708 263.3301,267.0832 268.5934,267.0832"/>
    <line x1="266.839" x2="266.839" y1="262.1708" y2="269.5394"/>
    <polyline points="271.0496,268.1359 270.6988,268.4868 270.3479,268.1359 270.6988,267.785 271.0496,268.1359 271.0496,268.8377 270.3479,269.5394"/>
    <polyline points="277.3656,262.1708 273.8567,262.1708 273.5058,265.3288 273.8567,264.9779 274.9094,264.627 275.962,264.627 277.0147,264.9779 277.7165,265.6797 278.0674,266.7324 278.0674,267.4341 277.7165,268.4868 277.0147,269.1886 275.962,269.5394 274.9094,269.5394 273.8567,269.1886 273.5058,268.8377 273.155,268.1359"/>
    <polyline points="280.8744,268.1359 280.5236,268.4868 280.1727,268.1359 280.5236,267.785 280.8744,268.1359 280.8744,268.8377 280.1727,269.5394"/>
    <polyline points="287.5413,263.2235 287.1904,262.5217 286.1377,262.1708 285.436,262.1708 284.3833,262.5217 283.6815,263.5744 283.3306,265.3288 283.3306,267.0832 283.6815,268.4868 284.3833,269.1886 285.436,269.5394 285.7868,269.5394 286.8395,269.1886 287.5413,268.4868 287.8922,267.4341 287.8922,267.0832 287.5413,266.0306 286.8395,265.3288 285.7868,264.9779 285.436,264.9779 284.3833,265.3288 283.6815,266.0306 283.3306,267.0832"/>
    <line x1="295.9625" x2="302.2785" y1="266.3815" y2="266.3815"/>
    <line x1="305.0856" x2="311.4015" y1="266.3815" y2="266.3815"/>
    <line x1="319.8228" x2="326.1387" y1="266.3815" y2="266.3815"/>
    <polyline points="332.8055,262.1708 329.2967,262.1708 328.9458,265.3288 329.2967,264.9779 330.3493,264.627 331.402,264.627 332.4547,264.9779 333.1564,265.6797 333.5073,266.7324 333.5073,267.4341 333.1564,268.4868 332.4547,269.1886 331.402,269.5394 330.3493,269.5394 329.2967,269.1886 328.9458,268.8377 328.5949,268.1359"/>
    <polyline points="339.8233,265.6797 339.1215,264.9779 338.4197,264.627 337.3671,264.627 336.6653,264.9779 335.9635,265.6797 335.6126,266.7324 335.6126,267.4341 335.9635,268.4868 336.6653,269.1886 337.3671,269.5394 338.4197,269.5394 339.1215,269.1886 339.8233,268.4868"/>
    <line x1="342.2795" x2="342.2795" y1="264.627" y2="269.5394"/>
    <polyline points="342.2795,266.0306 343.3321,264.9779 344.0339,264.627 345.0865,264.627 345.7883,264.9779 346.1392,266.0306 346.1392,269.5394"/>
    <polyline points="346.1392,266.0306 347.1919,264.9779 347.8936,264.627 348.9463,264.627 349.6481,264.9779 349.9989,266.0306 349.9989,269.5394"/>
    <polygon points="360.1746,262.1708 359.122,262.5217 358.4202,263.5744 358.0693,265.3288 358.0693,266.3815 358.4202,268.1359 359.122,269.1886 360.1746,269.5394 360.8764,269.5394 361.9291,269.1886 362.6308,268.1359 362.9817,266.3815 362.9817,265.3288 362.6308,263.5744 361.9291,262.5217 360.8764,262.1708"/>
    <polygon points="372.8065,262.1708 371.7539,262.5217 371.0521,263.5744 370.7012,265.3288 370.7012,266.3815 371.0521,268.1359 371.7539,269.1886 372.8065,269.5394 373.5083,269.5394 374.561,269.1886 375.2627,268.1359 375.6136,266.3815 375.6136,265.3288 375.2627,263.5744 374.561,262.5217 373.5083,262.1708"/>
    <polygon points="544.4793,25.6613 542.5029,132.0839 643.7316,200.3431 657.4857,93.1179"/>
    <line x1="546.2177" x2="546.1356" y1="26.7177" y2="30.7917"/>
    <line x1="549.4862" x2="549.4232" y1="30.0497" y2="32.764"/>
    <polyline points="549.4727,30.6325 549.134,30.0362 548.791,29.6341 548.2701,29.3226 547.9188,29.3094 547.5636,29.4902 547.378,29.9685 547.3697,30.3561 547.5304,31.0407 547.8682,31.6352 548.2102,32.0363 548.7298,32.348 549.0809,32.3625 549.4367,32.1835"/>
    <line x1="550.5302" x2="551.5077" y1="30.674" y2="34.0145"/>
    <polyline points="552.623,31.9253 551.5077,34.0145 551.1407,34.5791 550.7838,34.7567 550.432,34.7411 550.2586,34.6369"/>
    <polyline points="553.4655,33.6135 555.5649,34.8706 555.5761,34.4822 555.412,33.9886 555.2422,33.6893 554.8972,33.2852 554.3718,32.971 554.0163,32.9561 553.656,33.1356 553.4655,33.6135 553.4551,34.0016 553.614,34.6877 553.9527,35.2844 554.2966,35.6875 554.8207,36.002 555.1759,36.0181 555.537,35.8405"/>
    <line x1="556.8274" x2="556.746" y1="34.4393" y2="37.1569"/>
    <polyline points="556.7925,35.6056 556.9856,35.1279 557.3488,34.9492 557.7065,34.9649 558.2345,35.2806"/>
    <polyline points="562.3161,37.1242 562.6774,37.141 563.2305,36.8733 563.084,40.9591"/>
    <polygon points="523.8836,38.3302 523.8836,144.9845 625.2325,215.2051 637.0554,107.9447"/>
    <line x1="525.6228" x2="525.6163" y1="39.4185" y2="43.5071"/>
    <line x1="528.9175" x2="528.9049" y1="42.8161" y2="45.5399"/>
    <polyline points="528.9148,43.4009 528.5689,42.7968 528.2221,42.3876 527.701,42.0666 527.3532,42.0476 527.0052,42.2235 526.8303,42.7006 526.8292,43.0896 527.0007,43.7795 527.3458,44.3817 527.6915,44.7898 528.2113,45.1111 528.5589,45.1313 528.9076,44.9573"/>
    <line x1="529.9619" x2="530.9901" y1="43.4596" y2="46.8287"/>
    <polyline points="532.0555,44.7495 530.9901,46.8287 530.6373,47.3896 530.2875,47.5621 529.9392,47.5408 529.7656,47.4334"/>
    <polyline points="532.92,46.4579 535.0203,47.7537 535.0243,47.364 534.8529,46.8658 534.6795,46.5626 534.3307,46.1513 533.805,45.8274 533.453,45.8068 533.0997,45.9811 532.92,46.4579 532.9167,46.8472 533.0865,47.5386 533.4325,48.1431 533.7802,48.5533 534.3046,48.8774 534.6563,48.8994 535.0103,48.7269"/>
    <line x1="536.2618" x2="536.2307" y1="47.3411" y2="50.0681"/>
    <polyline points="536.2485,48.5115 536.4308,48.035 536.7871,47.8614 537.1413,47.883 537.6696,48.2085"/>
    <polyline points="541.385,50.1028 541.3882,49.9072 541.5718,49.6249 541.7523,49.5382 542.1105,49.5607 542.8209,49.9977 543.1729,50.4123 543.3471,50.7175 543.5178,51.2184 543.5107,51.6097 543.326,51.8912 542.9607,52.2583 541.1581,53.1137 543.6349,54.6447"/>
    <polygon points="502.6504,51.3912 504.7449,158.245 606.1785,230.5128 615.9398,123.2689"/>
    <line x1="504.3896" x2="504.4635" y1="52.513" y2="56.615"/>
    <line x1="507.7106" x2="507.7516" y1="55.9785" y2="58.7111"/>
    <polyline points="507.7194,56.5653 507.3659,55.9532 507.0153,55.5367 506.4943,55.2056 506.1504,55.1806 505.8101,55.3511 505.6467,55.8268 505.6533,56.217 505.8362,56.9121 506.1889,57.5223 506.5383,57.9377 507.058,58.269 507.4017,58.2953 507.7428,58.1267"/>
    <line x1="508.7549" x2="509.8365" y1="56.6421" y2="60.0402"/>
    <polyline points="510.8483,57.9725 509.8365,60.0402 509.499,60.5968 509.1569,60.7638 508.8124,60.7365 508.6389,60.6257"/>
    <polyline points="511.7358,59.7015 513.8361,61.038 513.8324,60.647 513.6533,60.1442 513.4761,59.837 513.1235,59.4183 512.5978,59.0842 512.2496,59.0574 511.904,59.2262 511.7358,59.7015 511.7402,60.0921 511.9214,60.7887 512.275,61.4012 512.6265,61.8187 513.1509,62.153 513.4988,62.1811 513.8452,62.0142"/>
    <line x1="515.0546" x2="515.0771" y1="60.6455" y2="63.3809"/>
    <polyline points="515.0642,61.8195 515.2352,61.3445 515.5837,61.1766 515.9342,61.2044 516.4625,61.5401"/>
    <polyline points="520.3447,62.636 522.2988,63.8759 521.2361,64.7694 521.7684,65.1077 522.1239,65.5294 522.3017,65.8382 522.4801,66.5385 522.4806,66.9296 522.304,67.4029 521.9502,67.5675 521.4194,67.424 520.8886,67.0856 520.3576,66.5524 520.1802,66.2447 520.002,65.7416"/>
    <polygon points="410.7118,107.9447 422.5347,215.2051 523.8836,296.6277 523.8836,190.0765"/>
    <line x1="412.4414" x2="412.8916" y1="109.2172" y2="113.3601"/>
    <line x1="415.8677" x2="416.1594" y1="112.9826" y2="115.7416"/>
    <polyline points="415.9303,113.5751 415.543,112.929 415.1766,112.4804 414.6588,112.1041 414.335,112.0509 414.0327,112.1952 413.9241,112.6616 413.9665,113.0557 414.2021,113.7715 414.5883,114.4154 414.9535,114.8628 415.47,115.2392 415.7938,115.2938 416.097,115.1516"/>
    <line x1="416.9057" x2="418.232" y1="113.737" y2="117.252"/>
    <polyline points="418.9868,115.2495 418.232,117.252 417.9679,117.7856 417.6634,117.926 417.3388,117.8702 417.1663,117.7443"/>
    <polyline points="419.977,117.0658 422.0656,118.5855 422.0261,118.1909 421.8121,117.6691 421.6178,117.3447 421.2492,116.8936 420.7264,116.5137 420.3982,116.4582 420.0904,116.6002 419.977,117.0658 420.0172,117.46 420.2512,118.1773 420.6386,118.8238 421.006,119.2737 421.5275,119.6537 421.8556,119.7106 422.1643,119.5707"/>
    <line x1="423.1698" x2="423.4433" y1="118.2894" y2="121.0499"/>
    <polyline points="423.2872,119.4743 423.4033,119.0093 423.7141,118.8685 424.0447,118.9253 424.5702,119.3072"/>
    <line x1="430.4287" x2="429.0495" y1="122.2713" y2="125.1355"/>
    <line x1="427.9537" x2="430.4287" y1="120.4751" y2="122.2713"/>
    <polygon points="385.7993,123.2689 400.4412,230.5128 501.6422,314.4962 498.7626,208.3075"/>
    <line x1="387.5237" x2="388.0838" y1="124.5838" y2="128.733"/>
    <line x1="390.9761" x2="391.341" y1="128.4321" y2="131.1949"/>
    <polyline points="391.0545,129.0254 390.6578,128.3702 390.2873,127.9128 389.7711,127.5237 389.4537,127.4624 389.163,127.5987 389.0707,128.0618 389.1235,128.4564 389.3742,129.1773 389.7697,129.8303 390.139,130.2864 390.6539,130.6755 390.9713,130.7383 391.263,130.6041"/>
    <line x1="392.0108" x2="393.4071" y1="129.212" y2="132.7565"/>
    <polyline points="394.0854,130.7759 393.4071,132.7565 393.1649,133.2825 392.872,133.4149 392.5536,133.3508 392.3817,133.2207"/>
    <polyline points="395.1043,132.6153 397.1865,134.1867 397.1365,133.7916 396.9125,133.265 396.7135,132.936 396.3407,132.476 395.8195,132.0831 395.4977,132.0193 395.2015,132.1533 395.1043,132.6153 395.155,133.01 395.4042,133.7324 395.801,134.388 396.1725,134.8467 396.6924,135.2396 397.0143,135.3049 397.3115,135.1731"/>
    <line x1="398.2555" x2="398.6024" y1="133.9194" y2="136.6833"/>
    <polyline points="398.4044,135.1058 398.5043,134.6444 398.8035,134.5118 399.1278,134.577 399.6517,134.9719"/>
    <polygon points="403.8683,136.8883 403.364,136.6891 403.236,136.9534 403.2839,137.3499 403.5076,137.8786 403.8832,138.3417 404.6108,139.0703 405.1627,139.6666 405.5622,140.3278 405.7854,140.8559 405.8557,141.448 405.7266,141.7093 405.5741,141.7734 405.0703,141.5718 404.3678,141.0409 403.8177,140.4461 403.6185,140.1166 403.3954,139.5898 403.3237,138.9977 403.4514,138.7351 403.7551,138.6048 404.2588,138.8049 404.9393,139.138 405.2682,139.2057 405.3974,138.9424 405.3502,138.5459 405.1264,138.0161 404.5734,137.4191"/>
    <line x1="559.2374" x2="559.2374" y1="264.627" y2="271.9956"/>
    <polyline points="559.2374,265.6797 559.9392,264.9779 560.641,264.627 561.6936,264.627 562.3954,264.9779 563.0972,265.6797 563.448,266.7324 563.448,267.4341 563.0972,268.4868 562.3954,269.1886 561.6936,269.5394 560.641,269.5394 559.9392,269.1886 559.2374,268.4868"/>
    <polyline points="566.2551,262.1708 566.2551,268.1359 566.606,269.1886 567.3078,269.5394 568.0096,269.5394"/>
    <line x1="565.2025" x2="567.6587" y1="264.627" y2="264.627"/>
    <line x1="570.1149" x2="570.1149" y1="264.627" y2="269.5394"/>
    <polyline points="570.1149,266.7324 570.4658,265.6797 571.1675,264.9779 571.8693,264.627 572.922,264.627"/>
    <line x1="578.5361" x2="578.5361" y1="264.627" y2="269.5394"/>
    <polyline points="578.5361,265.6797 577.8344,264.9779 577.1326,264.627 576.0799,264.627 575.3782,264.9779 574.6764,265.6797 574.3255,266.7324 574.3255,267.4341 574.6764,268.4868 575.3782,269.1886 576.0799,269.5394 577.1326,269.5394 577.8344,269.1886 578.5361,268.4868"/>
    <line x1="581.3432" x2="581.3432" y1="264.627" y2="269.5394"/>
    <polyline points="581.3432,266.0306 582.3959,264.9779 583.0977,264.627 584.1503,264.627 584.8521,264.9779 585.203,266.0306 585.203,269.5394"/>
    <polyline points="591.5189,265.6797 591.168,264.9779 590.1154,264.627 589.0627,264.627 588.0101,264.9779 587.6592,265.6797 588.0101,266.3815 588.7118,266.7324 590.4663,267.0832 591.168,267.4341 591.5189,268.1359 591.5189,268.4868 591.168,269.1886 590.1154,269.5394 589.0627,269.5394 588.0101,269.1886 587.6592,268.4868"/>
    <line x1="593.9751" x2="593.9751" y1="262.1708" y2="269.5394"/>
    <line x1="600.6419" x2="600.6419" y1="264.627" y2="269.5394"/>
    <polyline points="600.6419,265.6797 599.9402,264.9779 599.2384,264.627 598.1857,264.627 597.484,264.9779 596.7822,265.6797 596.4313,266.7324 596.4313,267.4341 596.7822,268.4868 597.484,269.1886 598.1857,269.5394 599.2384,269.5394 599.9402,269.1886 600.6419,268.4868"/>
    <polyline points="603.7999,262.1708 603.7999,268.1359 604.1508,269.1886 604.8526,269.5394 605.5543,269.5394"/>
    <line x1="602.7473" x2="605.2035" y1="264.627" y2="264.627"/>
    <polyline points="607.3088,266.7324 611.5194,266.7324 611.5194,266.0306 611.1685,265.3288 610.8176,264.9779 610.1159,264.627 609.0632,264.627 608.3614,264.9779 607.6597,265.6797 607.3088,266.7324 607.3088,267.4341 607.6597,268.4868 608.3614,269.1886 609.0632,269.5394 610.1159,269.5394 610.8176,269.1886 611.5194,268.4868"/>
    <line x1="619.5898" x2="625.9057" y1="266.3815" y2="266.3815"/>
    <line x1="628.7128" x2="628.7128" y1="262.1708" y2="269.5394"/>
    <polyline points="640.292,262.1708 636.7832,267.0832 642.0465,267.0832"/>
    <line x1="640.292" x2="640.292" y1="262.1708" y2="269.5394"/>
    <polyline points="644.5027,268.1359 644.1518,268.4868 643.8009,268.1359 644.1518,267.785 644.5027,268.1359 644.5027,268.8377 643.8009,269.5394"/>
    <polyline points="650.8186,262.1708 647.3098,262.1708 646.9589,265.3288 647.3098,264.9779 648.3624,264.627 649.4151,264.627 650.4677,264.9779 651.1695,265.6797 651.5204,266.7324 651.5204,267.4341 651.1695,268.4868 650.4677,269.1886 649.4151,269.5394 648.3624,269.5394 647.3098,269.1886 646.9589,268.8377 646.608,268.1359"/>
    <polyline points="654.3275,268.1359 653.9766,268.4868 653.6257,268.1359 653.9766,267.785 654.3275,268.1359 654.3275,268.8377 653.6257,269.5394"/>
    <polyline points="660.9943,263.2235 660.6434,262.5217 659.5908,262.1708 658.889,262.1708 657.8363,262.5217 657.1346,263.5744 656.7837,265.3288 656.7837,267.0832 657.1346,268.4868 657.8363,269.1886 658.889,269.5394 659.2399,269.5394 660.2925,269.1886 660.9943,268.4868 661.3452,267.4341 661.3452,267.0832 660.9943,266.0306 660.2925,265.3288 659.2399,264.9779 658.889,264.9779 657.8363,265.3288 657.1346,266.0306 656.7837,267.0832"/>
    <line x1="669.4156" x2="675.7315" y1="266.3815" y2="266.3815"/>
    <line x1="678.5386" x2="684.8545" y1="266.3815" y2="266.3815"/>
    <line x1="693.2758" x2="699.5917" y1="266.3815" y2="266.3815"/>
    <polyline points="706.2586,262.1708 702.7497,262.1708 702.3988,265.3288 702.7497,264.9779 703.8024,264.627 704.855,264.627 705.9077,264.9779 706.6095,265.6797 706.9604,266.7324 706.9604,267.4341 706.6095,268.4868 705.9077,269.1886 704.855,269.5394 703.8024,269.5394 702.7497,269.1886 702.3988,268.8377 702.0479,268.1359"/>
    <polyline points="713.2763,265.6797 712.5745,264.9779 711.8728,264.627 710.8201,264.627 710.1183,264.9779 709.4166,265.6797 709.0657,266.7324 709.0657,267.4341 709.4166,268.4868 710.1183,269.1886 710.8201,269.5394 711.8728,269.5394 712.5745,269.1886 713.2763,268.4868"/>
    <line x1="715.7325" x2="715.7325" y1="264.627" y2="269.5394"/>
    <polyline points="715.7325,266.0306 716.7852,264.9779 717.4869,264.627 718.5396,264.627 719.2414,264.9779 719.5922,266.0306 719.5922,269.5394"/>
    <polyline points="719.5922,266.0306 720.6449,264.9779 721.3467,264.627 722.3993,264.627 723.1011,264.9779 723.452,266.0306 723.452,269.5394"/>
    <polygon points="733.6277,262.1708 732.575,262.5217 731.8732,263.5744 731.5224,265.3288 731.5224,266.3815 731.8732,268.1359 732.575,269.1886 733.6277,269.5394 734.3294,269.5394 735.3821,269.1886 736.0839,268.1359 736.4348,266.3815 736.4348,265.3288 736.0839,263.5744 735.3821,262.5217 734.3294,262.1708"/>
    <polygon points="746.2596,262.1708 745.2069,262.5217 744.5051,263.5744 744.1542,265.3288 744.1542,266.3815 744.5051,268.1359 745.2069,269.1886 746.2596,269.5394 746.9613,269.5394 748.014,269.1886 748.7158,268.1359 749.0666,266.3815 749.0666,265.3288 748.7158,263.5744 748.014,262.5217 746.9613,262.1708"/>
    <line x1="559.2374" x2="559.2374" y1="281.6022" y2="288.9708"/>
    <polyline points="559.2374,282.6548 559.9392,281.9531 560.641,281.6022 561.6936,281.6022 562.3954,281.9531 563.0972,282.6548 563.448,283.7075 563.448,284.4093 563.0972,285.4619 562.3954,286.1637 561.6936,286.5146 560.641,286.5146 559.9392,286.1637 559.2374,285.4619"/>
    <line x1="565.9042" x2="565.9042" y1="281.6022" y2="286.5146"/>
    <polyline points="565.9042,283.7075 566.2551,282.6548 566.9569,281.9531 567.6587,281.6022 568.7113,281.6022"/>
    <polygon points="571.8693,281.6022 571.1675,281.9531 570.4658,282.6548 570.1149,283.7075 570.1149,284.4093 570.4658,285.4619 571.1675,286.1637 571.8693,286.5146 572.922,286.5146 573.6237,286.1637 574.3255,285.4619 574.6764,284.4093 574.6764,283.7075 574.3255,282.6548 573.6237,281.9531 572.922,281.6022"/>
    <polyline points="577.4835,279.146 577.4835,285.111 577.8344,286.1637 578.5361,286.5146 579.2379,286.5146"/>
    <line x1="576.4308" x2="578.887" y1="281.6022" y2="281.6022"/>
    <line x1="585.203" x2="585.203" y1="281.6022" y2="286.5146"/>
    <polyline points="585.203,282.6548 584.5012,281.9531 583.7994,281.6022 582.7468,281.6022 582.045,281.9531 581.3432,282.6548 580.9923,283.7075 580.9923,284.4093 581.3432,285.4619 582.045,286.1637 582.7468,286.5146 583.7994,286.5146 584.5012,286.1637 585.203,285.4619"/>
    <polyline points="588.3609,279.146 588.3609,285.111 588.7118,286.1637 589.4136,286.5146 590.1154,286.5146"/>
    <line x1="587.3083" x2="589.7645" y1="281.6022" y2="281.6022"/>
    <polyline points="591.8698,283.7075 596.0804,283.7075 596.0804,283.0057 595.7295,282.304 595.3787,281.9531 594.6769,281.6022 593.6242,281.6022 592.9225,281.9531 592.2207,282.6548 591.8698,283.7075 591.8698,284.4093 592.2207,285.4619 592.9225,286.1637 593.6242,286.5146 594.6769,286.5146 595.3787,286.1637 596.0804,285.4619"/>
    <line x1="604.1508" x2="610.4667" y1="283.3566" y2="283.3566"/>
    <line x1="613.2738" x2="613.2738" y1="279.146" y2="286.5146"/>
    <polyline points="624.8531,279.146 621.3442,284.0584 626.6075,284.0584"/>
    <line x1="624.8531" x2="624.8531" y1="279.146" y2="286.5146"/>
    <polyline points="629.0637,285.111 628.7128,285.4619 628.3619,285.111 628.7128,284.7602 629.0637,285.111 629.0637,285.8128 628.3619,286.5146"/>
    <polyline points="635.3796,279.146 631.8708,279.146 631.5199,282.304 631.8708,281.9531 632.9234,281.6022 633.9761,281.6022 635.0288,281.9531 635.7305,282.6548 636.0814,283.7075 636.0814,284.4093 635.7305,285.4619 635.0288,286.1637 633.9761,286.5146 632.9234,286.5146 631.8708,286.1637 631.5199,285.8128 631.169,285.111"/>
    <polyline points="638.8885,285.111 638.5376,285.4619 638.1867,285.111 638.5376,284.7602 638.8885,285.111 638.8885,285.8128 638.1867,286.5146"/>
    <polyline points="645.5553,280.1986 645.2044,279.4969 644.1518,279.146 643.45,279.146 642.3974,279.4969 641.6956,280.5495 641.3447,282.304 641.3447,284.0584 641.6956,285.4619 642.3974,286.1637 643.45,286.5146 643.8009,286.5146 644.8536,286.1637 645.5553,285.4619 645.9062,284.4093 645.9062,284.0584 645.5553,283.0057 644.8536,282.304 643.8009,281.9531 643.45,281.9531 642.3974,282.304 641.6956,283.0057 641.3447,284.0584"/>
    <line x1="653.2748" x2="655.3801" y1="281.6022" y2="286.5146"/>
    <polyline points="657.4854,281.6022 655.3801,286.5146 654.6784,287.9181 653.9766,288.6199 653.2748,288.9708 652.9239,288.9708"/>
    <polyline points="665.2049,280.9004 665.2049,280.5495 665.5558,279.8478 665.9067,279.4969 666.6085,279.146 668.012,279.146 668.7138,279.4969 669.0647,279.8478 669.4156,280.5495 669.4156,281.2513 669.0647,281.9531 668.3629,283.0057 664.8541,286.5146 669.7665,286.5146"/>
    <polygon points="673.9771,279.146 672.9244,279.4969 672.2227,280.5495 671.8718,282.304 671.8718,283.3566 672.2227,285.111 672.9244,286.1637 673.9771,286.5146 674.6789,286.5146 675.7315,286.1637 676.4333,285.111 676.7842,283.3566 676.7842,282.304 676.4333,280.5495 675.7315,279.4969 674.6789,279.146"/>
    <polygon points="917.9323,25.6613 915.9559,132.0839 1017.1846,200.3431 1030.9387,93.1179"/>
    <line x1="919.6707" x2="919.5886" y1="26.7177" y2="30.7917"/>
    <line x1="922.9392" x2="922.8763" y1="30.0497" y2="32.764"/>
    <polyline points="922.9257,30.6325 922.5871,30.0362 922.244,29.6341 921.7231,29.3226 921.3718,29.3094 921.0167,29.4902 920.831,29.9685 920.8228,30.3561 920.9834,31.0407 921.3212,31.6352 921.6632,32.0363 922.1829,32.348 922.5339,32.3625 922.8897,32.1835"/>
    <line x1="923.9832" x2="924.9607" y1="30.674" y2="34.0145"/>
    <polyline points="926.076,31.9253 924.9607,34.0145 924.5937,34.5791 924.2368,34.7567 923.8851,34.7411 923.7116,34.6369"/>
    <polyline points="926.9185,33.6135 929.0179,34.8706 929.0291,34.4822 928.865,33.9886 928.6953,33.6893 928.3503,33.2852 927.8248,32.971 927.4694,32.9561 927.109,33.1356 926.9185,33.6135 926.9081,34.0016 927.0671,34.6877 927.4057,35.2844 927.7496,35.6875 928.2738,36.002 928.629,36.0181 928.99,35.8405"/>
    <line x1="930.2804" x2="930.1991" y1="34.4393" y2="37.1569"/>
    <polyline points="930.2455,35.6056 930.4386,35.1279 930.8018,34.9492 931.1595,34.9649 931.6875,35.2806"/>
    <polyline points="935.7691,37.1242 936.1304,37.141 936.6835,36.8733 936.5371,40.9591"/>
    <polygon points="897.3366,38.3302 897.3366,144.9845 998.6855,215.2051 1010.5085,107.9447"/>
    <line x1="899.0758" x2="899.0693" y1="39.4185" y2="43.5071"/>
    <line x1="902.3705" x2="902.358" y1="42.8161" y2="45.5399"/>
    <polyline points="902.3678,43.4009 902.0219,42.7968 901.6751,42.3876 901.1541,42.0666 900.8063,42.0476 900.4582,42.2235 900.2833,42.7006 900.2823,43.0896 900.4538,43.7795 900.7989,44.3817 901.1445,44.7898 901.6643,45.1111 902.0119,45.1313 902.3607,44.9573"/>
    <line x1="903.4149" x2="904.4431" y1="43.4596" y2="46.8287"/>
    <polyline points="905.5085,44.7495 904.4431,46.8287 904.0904,47.3896 903.7405,47.5621 903.3922,47.5408 903.2187,47.4334"/>
    <polyline points="906.373,46.4579 908.4733,47.7537 908.4773,47.364 908.3059,46.8658 908.1325,46.5626 907.7838,46.1513 907.258,45.8274 906.9061,45.8068 906.5527,45.9811 906.373,46.4579 906.3698,46.8472 906.5396,47.5386 906.8855,48.1431 907.2332,48.5533 907.7576,48.8774 908.1093,48.8994 908.4634,48.7269"/>
    <line x1="909.7148" x2="909.6838" y1="47.3411" y2="50.0681"/>
    <polyline points="909.7015,48.5115 909.8839,48.035 910.2401,47.8614 910.5944,47.883 911.1226,48.2085"/>
    <polyline points="914.8381,50.1028 914.8412,49.9072 915.0248,49.6249 915.2054,49.5382 915.5635,49.5607 916.2739,49.9977 916.6259,50.4123 916.8001,50.7175 916.9708,51.2184 916.9637,51.6097 916.7791,51.8912 916.4137,52.2583 914.6111,53.1137 917.0879,54.6447"/>
    <polygon points="876.1035,51.3912 878.1979,158.245 979.6316,230.5128 989.3928,123.2689"/>
    <line x1="877.8426" x2="877.9165" y1="52.513" y2="56.615"/>
    <line x1="881.1637" x2="881.2046" y1="55.9785" y2="58.7111"/>
    <polyline points="881.1725,56.5653 880.8189,55.9532 880.4684,55.5367 879.9474,55.2056 879.6034,55.1806 879.2631,55.3511 879.0997,55.8268 879.1063,56.217 879.2893,56.9121 879.6419,57.5223 879.9914,57.9377 880.5111,58.269 880.8548,58.2953 881.1959,58.1267"/>
    <line x1="882.208" x2="883.2896" y1="56.6421" y2="60.0402"/>
    <polyline points="884.3014,57.9725 883.2896,60.0402 882.9521,60.5968 882.6099,60.7638 882.2654,60.7365 882.0919,60.6257"/>
    <polyline points="885.1888,59.7015 887.2891,61.038 887.2854,60.647 887.1064,60.1442 886.9291,59.837 886.5765,59.4183 886.0508,59.0842 885.7027,59.0574 885.357,59.2262 885.1888,59.7015 885.1932,60.0921 885.3744,60.7887 885.728,61.4012 886.0795,61.8187 886.6039,62.153 886.9518,62.1811 887.2982,62.0142"/>
    <line x1="888.5076" x2="888.5301" y1="60.6455" y2="63.3809"/>
    <polyline points="888.5173,61.8195 888.6882,61.3445 889.0368,61.1766 889.3872,61.2044 889.9155,61.5401"/>
    <polyline points="893.7977,62.636 895.7519,63.8759 894.6891,64.7694 895.2215,65.1077 895.5769,65.5294 895.7548,65.8382 895.9331,66.5385 895.9337,66.9296 895.7571,67.4029 895.4032,67.5675 894.8724,67.424 894.3416,67.0856 893.8106,66.5524 893.6332,66.2447 893.4551,65.7416"/>
    <polygon points="784.1648,107.9447 795.9877,215.2051 897.3366,296.6277 897.3366,190.0765"/>
    <line x1="785.8944" x2="786.3446" y1="109.2172" y2="113.3601"/>
    <line x1="789.3207" x2="789.6124" y1="112.9826" y2="115.7416"/>
    <polyline points="789.3834,113.5751 788.996,112.929 788.6297,112.4804 788.1119,112.1041 787.788,112.0509 787.4858,112.1952 787.3772,112.6616 787.4196,113.0557 787.6551,113.7715 788.0414,114.4154 788.4065,114.8628 788.923,115.2392 789.2468,115.2938 789.55,115.1516"/>
    <line x1="790.3587" x2="791.685" y1="113.737" y2="117.252"/>
    <polyline points="792.4399,115.2495 791.685,117.252 791.4209,117.7856 791.1164,117.926 790.7918,117.8702 790.6193,117.7443"/>
    <polyline points="793.43,117.0658 795.5187,118.5855 795.4791,118.1909 795.2651,117.6691 795.0708,117.3447 794.7022,116.8936 794.1794,116.5137 793.8512,116.4582 793.5435,116.6002 793.43,117.0658 793.4703,117.46 793.7042,118.1773 794.0916,118.8238 794.4591,119.2737 794.9805,119.6537 795.3087,119.7106 795.6174,119.5707"/>
    <line x1="796.6228" x2="796.8963" y1="118.2894" y2="121.0499"/>
    <polyline points="796.7402,119.4743 796.8563,119.0093 797.1671,118.8685 797.4977,118.9253 798.0232,119.3072"/>
    <line x1="803.8817" x2="802.5026" y1="122.2713" y2="125.1355"/>
    <line x1="801.4068" x2="803.8817" y1="120.4751" y2="122.2713"/>
    <polygon points="759.2524,123.2689 773.8942,230.5128 875.0953,314.4962 872.2156,208.3075"/>
    <line x1="760.9767" x2="761.5368" y1="124.5838" y2="128.733"/>
    <line x1="764.4291" x2="764.7941" y1="128.4321" y2="131.1949"/>
    <polyline points="764.5075,129.0254 764.1108,128.3702 763.7403,127.9128 763.2242,127.5237 762.9067,127.4624 762.616,127.5987 762.5237,128.0618 762.5766,128.4564 762.8272,129.1773 763.2228,129.8303 763.592,130.2864 764.1069,130.6755 764.4243,130.7383 764.716,130.6041"/>
    <line x1="765.4638" x2="766.8601" y1="129.212" y2="132.7565"/>
    <polyline points="767.5384,130.7759 766.8601,132.7565 766.618,133.2825 766.325,133.4149 766.0067,133.3508 765.8347,133.2207"/>
    <polyline points="768.5573,132.6153 770.6396,134.1867 770.5895,133.7916 770.3656,133.265 770.1666,132.936 769.7937,132.476 769.2726,132.0831 768.9507,132.0193 768.6545,132.1533 768.5573,132.6153 768.6081,133.01 768.8572,133.7324 769.254,134.388 769.6256,134.8467 770.1455,135.2396 770.4673,135.3049 770.7645,135.1731"/>
    <line x1="771.7085" x2="772.0555" y1="133.9194" y2="136.6833"/>
    <polyline points="771.8574,135.1058 771.9573,134.6444 772.2565,134.5118 772.5808,134.577 773.1048,134.9719"/>
    <polygon points="777.3213,136.8883 776.817,136.6891 776.689,136.9534 776.737,137.3499 776.9607,137.8786 777.3362,138.3417 778.0638,139.0703 778.6158,139.6666 779.0153,140.3278 779.2384,140.8559 779.3088,141.448 779.1796,141.7093 779.0272,141.7734 778.5233,141.5718 777.8208,141.0409 777.2707,140.4461 777.0715,140.1166 776.8484,139.5898 776.7767,138.9977 776.9045,138.7351 777.2081,138.6048 777.7118,138.8049 778.3924,139.138 778.7212,139.2057 778.8504,138.9424 778.8032,138.5459 778.5795,138.0161 778.0265,137.4191"/>
    <line x1="932.6905" x2="932.6905" y1="264.627" y2="271.9956"/>
    <polyline points="932.6905,265.6797 933.3922,264.9779 934.094,264.627 935.1467,264.627 935.8484,264.9779 936.5502,265.6797 936.9011,266.7324 936.9011,267.4341 936.5502,268.4868 935.8484,269.1886 935.1467,269.5394 934.094,269.5394 933.3922,269.1886 932.6905,268.4868"/>
    <polyline points="939.7082,262.1708 939.7082,268.1359 940.0591,269.1886 940.7608,269.5394 941.4626,269.5394"/>
    <line x1="938.6555" x2="941.1117" y1="264.627" y2="264.627"/>
    <line x1="943.5679" x2="943.5679" y1="264.627" y2="269.5394"/>
    <polyline points="943.5679,266.7324 943.9188,265.6797 944.6206,264.9779 945.3223,264.627 946.375,264.627"/>
    <line x1="951.9892" x2="951.9892" y1="264.627" y2="269.5394"/>
    <polyline points="951.9892,265.6797 951.2874,264.9779 950.5856,264.627 949.533,264.627 948.8312,264.9779 948.1294,265.6797 947.7785,266.7324 947.7785,267.4341 948.1294,268.4868 948.8312,269.1886 949.533,269.5394 950.5856,269.5394 951.2874,269.1886 951.9892,268.4868"/>
    <line x1="954.7963" x2="954.7963" y1="264.627" y2="269.5394"/>
    <polyline points="954.7963,266.0306 955.8489,264.9779 956.5507,264.627 957.6033,264.627 958.3051,264.9779 958.656,266.0306 958.656,269.5394"/>
    <polyline points="964.9719,265.6797 964.6211,264.9779 963.5684,264.627 962.5157,264.627 961.4631,264.9779 961.1122,265.6797 961.4631,266.3815 962.1649,266.7324 963.9193,267.0832 964.6211,267.4341 964.9719,268.1359 964.9719,268.4868 964.6211,269.1886 963.5684,269.5394 962.5157,269.5394 961.4631,269.1886 961.1122,268.4868"/>
    <line x1="967.4281" x2="967.4281" y1="262.1708" y2="269.5394"/>
    <line x1="974.095" x2="974.095" y1="264.627" y2="269.5394"/>
    <polyline points="974.095,265.6797 973.3932,264.9779 972.6914,264.627 971.6388,264.627 970.937,264.9779 970.2352,265.6797 969.8844,266.7324 969.8844,267.4341 970.2352,268.4868 970.937,269.1886 971.6388,269.5394 972.6914,269.5394 973.3932,269.1886 974.095,268.4868"/>
    <polyline points="977.253,262.1708 977.253,268.1359 977.6038,269.1886 978.3056,269.5394 979.0074,269.5394"/>
    <line x1="976.2003" x2="978.6565" y1="264.627" y2="264.627"/>
    <polyline points="980.7618,266.7324 984.9724,266.7324 984.9724,266.0306 984.6216,265.3288 984.2707,264.9779 983.5689,264.627 982.5162,264.627 981.8145,264.9779 981.1127,265.6797 980.7618,266.7324 980.7618,267.4341 981.1127,268.4868 981.8145,269.1886 982.5162,269.5394 983.5689,269.5394 984.2707,269.1886 984.9724,268.4868"/>
    <line x1="993.0428" x2="999.3588" y1="266.3815" y2="266.3815"/>
    <line x1="1002.1658" x2="1002.1658" y1="262.1708" y2="269.5394"/>
    <polyline points="1013.7451,262.1708 1010.2362,267.0832 1015.4995,267.0832"/>
    <line x1="1013.7451" x2="1013.7451" y1="262.1708" y2="269.5394"/>
    <polyline points="1017.9557,268.1359 1017.6048,268.4868 1017.2539,268.1359 1017.6048,267.785 1017.9557,268.1359 1017.9557,268.8377 1017.2539,269.5394"/>
    <polyline points="1024.2717,262.1708 1020.7628,262.1708 1020.4119,265.3288 1020.7628,264.9779 1021.8155,264.627 1022.8681,264.627 1023.9208,264.9779 1024.6225,265.6797 1024.9734,266.7324 1024.9734,267.4341 1024.6225,268.4868 1023.9208,269.1886 1022.8681,269.5394 1021.8155,269.5394 1020.7628,269.1886 1020.4119,268.8377 1020.061,268.1359"/>
    <polyline points="1027.7805,268.1359 1027.4296,268.4868 1027.0787,268.1359 1027.4296,267.785 1027.7805,268.1359 1027.7805,268.8377 1027.0787,269.5394"/>
    <polyline points="1034.4473,263.2235 1034.0965,262.5217 1033.0438,262.1708 1032.342,262.1708 1031.2894,262.5217 1030.5876,263.5744 1030.2367,265.3288 1030.2367,267.0832 1030.5876,268.4868 1031.2894,269.1886 1032.342,269.5394 1032.6929,269.5394 1033.7456,269.1886 1034.4473,268.4868 1034.7982,267.4341 1034.7982,267.0832 1034.4473,266.0306 1033.7456,265.3288 1032.6929,264.9779 1032.342,264.9779 1031.2894,265.3288 1030.5876,266.0306 1030.2367,267.0832"/>
    <line x1="1042.8686" x2="1049.1845" y1="266.3815" y2="266.3815"/>
    <line x1="1051.9916" x2="1058.3076" y1="266.3815" y2="266.3815"/>
    <line x1="1066.7288" x2="1073.0448" y1="266.3815" y2="266.3815"/>
    <polyline points="1079.7116,262.1708 1076.2028,262.1708 1075.8519,265.3288 1076.2028,264.9779 1077.2554,264.627 1078.3081,264.627 1079.3607,264.9779 1080.0625,265.6797 1080.4134,266.7324 1080.4134,267.4341 1080.0625,268.4868 1079.3607,269.1886 1078.3081,269.5394 1077.2554,269.5394 1076.2028,269.1886 1075.8519,268.8377 1075.501,268.1359"/>
    <polyline points="1086.7293,265.6797 1086.0276,264.9779 1085.3258,264.627 1084.2731,264.627 1083.5714,264.9779 1082.8696,265.6797 1082.5187,266.7324 1082.5187,267.4341 1082.8696,268.4868 1083.5714,269.1886 1084.2731,269.5394 1085.3258,269.5394 1086.0276,269.1886 1086.7293,268.4868"/>
    <line x1="1089.1855" x2="1089.1855" y1="264.627" y2="269.5394"/>
    <polyline points="1089.1855,266.0306 1090.2382,264.9779 1090.94,264.627 1091.9926,264.627 1092.6944,264.9779 1093.0453,266.0306 1093.0453,269.5394"/>
    <polyline points="1093.0453,266.0306 1094.0979,264.9779 1094.7997,264.627 1095.8524,264.627 1096.5541,264.9779 1096.905,266.0306 1096.905,269.5394"/>
    <polygon points="1107.0807,262.1708 1106.0281,262.5217 1105.3263,263.5744 1104.9754,265.3288 1104.9754,266.3815 1105.3263,268.1359 1106.0281,269.1886 1107.0807,269.5394 1107.7825,269.5394 1108.8351,269.1886 1109.5369,268.1359 1109.8878,266.3815 1109.8878,265.3288 1109.5369,263.5744 1108.8351,262.5217 1107.7825,262.1708"/>
    <polygon points="1119.7126,262.1708 1118.6599,262.5217 1117.9582,263.5744 1117.6073,265.3288 1117.6073,266.3815 1117.9582,268.1359 1118.6599,269.1886 1119.7126,269.5394 1120.4144,269.5394 1121.467,269.1886 1122.1688,268.1359 1122.5197,266.3815 1122.5197,265.3288 1122.1688,263.5744 1121.467,262.5217 1120.4144,262.1708"/>
    <line x1="932.6905" x2="932.6905" y1="281.6022" y2="288.9708"/>
    <polyline points="932.6905,282.6548 933.3922,281.9531 934.094,281.6022 935.1467,281.6022 935.8484,281.9531 936.5502,282.6548 936.9011,283.7075 936.9011,284.4093 936.5502,285.4619 935.8484,286.1637 935.1467,286.5146 934.094,286.5146 933.3922,286.1637 932.6905,285.4619"/>
    <line x1="939.3573" x2="939.3573" y1="281.6022" y2="286.5146"/>
    <polyline points="939.3573,283.7075 939.7082,282.6548 940.4099,281.9531 941.1117,281.6022 942.1644,281.6022"/>
    <polygon points="945.3223,281.6022 944.6206,281.9531 943.9188,282.6548 943.5679,283.7075 943.5679,284.4093 943.9188,285.4619 944.6206,286.1637 945.3223,286.5146 946.375,286.5146 947.0768,286.1637 947.7785,285.4619 948.1294,284.4093 948.1294,283.7075 947.7785,282.6548 947.0768,281.9531 946.375,281.6022"/>
    <polyline points="950.9365,279.146 950.9365,285.111 951.2874,286.1637 951.9892,286.5146 952.6909,286.5146"/>
    <line x1="949.8839" x2="952.3401" y1="281.6022" y2="281.6022"/>
    <line x1="958.656" x2="958.656" y1="281.6022" y2="286.5146"/>
    <polyline points="958.656,282.6548 957.9542,281.9531 957.2525,281.6022 956.1998,281.6022 955.498,281.9531 954.7963,282.6548 954.4454,283.7075 954.4454,284.4093 954.7963,285.4619 955.498,286.1637 956.1998,286.5146 957.2525,286.5146 957.9542,286.1637 958.656,285.4619"/>
    <polyline points="961.814,279.146 961.814,285.111 962.1649,286.1637 962.8666,286.5146 963.5684,286.5146"/>
    <line x1="960.7613" x2="963.2175" y1="281.6022" y2="281.6022"/>
    <polyline points="965.3228,283.7075 969.5335,283.7075 969.5335,283.0057 969.1826,282.304 968.8317,281.9531 968.1299,281.6022 967.0773,281.6022 966.3755,281.9531 965.6737,282.6548 965.3228,283.7075 965.3228,284.4093 965.6737,285.4619 966.3755,286.1637 967.0773,286.5146 968.1299,286.5146 968.8317,286.1637 969.5335,285.4619"/>
    <line x1="977.6038" x2="983.9198" y1="283.3566" y2="283.3566"/>
    <line x1="986.7269" x2="986.7269" y1="279.146" y2="286.5146"/>
    <polyline points="998.3061,279.146 994.7972,284.0584 1000.0605,284.0584"/>
    <line x1="998.3061" x2="998.3061" y1="279.146" y2="286.5146"/>
    <polyline points="1002.5167,285.111 1002.1658,285.4619 1001.815,285.111 1002.1658,284.7602 1002.5167,285.111 1002.5167,285.8128 1001.815,286.5146"/>
    <polyline points="1008.8327,279.146 1005.3238,279.146 1004.9729,282.304 1005.3238,281.9531 1006.3765,281.6022 1007.4291,281.6022 1008.4818,281.9531 1009.1836,282.6548 1009.5344,283.7075 1009.5344,284.4093 1009.1836,285.4619 1008.4818,286.1637 1007.4291,286.5146 1006.3765,286.5146 1005.3238,286.1637 1004.9729,285.8128 1004.622,285.111"/>
    <polyline points="1012.3415,285.111 1011.9906,285.4619 1011.6398,285.111 1011.9906,284.7602 1012.3415,285.111 1012.3415,285.8128 1011.6398,286.5146"/>
    <polyline points="1019.0084,280.1986 1018.6575,279.4969 1017.6048,279.146 1016.9031,279.146 1015.8504,279.4969 1015.1486,280.5495 1014.7977,282.304 1014.7977,284.0584 1015.1486,285.4619 1015.8504,286.1637 1016.9031,286.5146 1017.2539,286.5146 1018.3066,286.1637 1019.0084,285.4619 1019.3593,284.4093 1019.3593,284.0584 1019.0084,283.0057 1018.3066,282.304 1017.2539,281.9531 1016.9031,281.9531 1015.8504,282.304 1015.1486,283.0057 1014.7977,284.0584"/>
    <line x1="1026.7279" x2="1028.8332" y1="281.6022" y2="286.5146"/>
    <polyline points="1030.9385,281.6022 1028.8332,286.5146 1028.1314,287.9181 1027.4296,288.6199 1026.7279,288.9708 1026.377,288.9708"/>
    <polyline points="1038.658,280.9004 1038.658,280.5495 1039.0089,279.8478 1039.3597,279.4969 1040.0615,279.146 1041.4651,279.146 1042.1668,279.4969 1042.5177,279.8478 1042.8686,280.5495 1042.8686,281.2513 1042.5177,281.9531 1041.8159,283.0057 1038.3071,286.5146 1043.2195,286.5146"/>
    <polygon points="1047.4301,279.146 1046.3775,279.4969 1045.6757,280.5495 1045.3248,282.304 1045.3248,283.3566 1045.6757,285.111 1046.3775,286.1637 1047.4301,286.5146 1048.1319,286.5146 1049.1845,286.1637 1049.8863,285.111 1050.2372,283.3566 1050.2372,282.304 1049.8863,280.5495 1049.1845,279.4969 1048.1319,279.146"/>
    <line x1="932.6905" x2="932.6905" y1="298.5773" y2="305.9459"/>
    <polyline points="932.6905,299.63 933.3922,298.9282 934.094,298.5773 935.1467,298.5773 935.8484,298.9282 936.5502,299.63 936.9011,300.6826 936.9011,301.3844 936.5502,302.4371 935.8484,303.1388 935.1467,303.4897 934.094,303.4897 933.3922,303.1388 932.6905,302.4371"/>
    <polyline points="942.8661,299.63 942.5153,298.9282 941.4626,298.5773 940.4099,298.5773 939.3573,298.9282 939.0064,299.63 939.3573,300.3317 940.0591,300.6826 941.8135,301.0335 942.5153,301.3844 942.8661,302.0862 942.8661,302.4371 942.5153,303.1388 941.4626,303.4897 940.4099,303.4897 939.3573,303.1388 939.0064,302.4371"/>
    <polyline points="949.1821,299.63 948.4803,298.9282 947.7785,298.5773 946.7259,298.5773 946.0241,298.9282 945.3223,299.63 944.9715,300.6826 944.9715,301.3844 945.3223,302.4371 946.0241,303.1388 946.7259,303.4897 947.7785,303.4897 948.4803,303.1388 949.1821,302.4371"/>
    <line x1="955.498" x2="955.498" y1="298.5773" y2="303.4897"/>
    <polyline points="955.498,299.63 954.7963,298.9282 954.0945,298.5773 953.0418,298.5773 952.3401,298.9282 951.6383,299.63 951.2874,300.6826 951.2874,301.3844 951.6383,302.4371 952.3401,303.1388 953.0418,303.4897 954.0945,303.4897 954.7963,303.1388 955.498,302.4371"/>
    <line x1="958.3051" x2="958.3051" y1="296.1211" y2="303.4897"/>
    <polyline points="960.7613,300.6826 964.9719,300.6826 964.9719,299.9809 964.6211,299.2791 964.2702,298.9282 963.5684,298.5773 962.5157,298.5773 961.814,298.9282 961.1122,299.63 960.7613,300.6826 960.7613,301.3844 961.1122,302.4371 961.814,303.1388 962.5157,303.4897 963.5684,303.4897 964.2702,303.1388 964.9719,302.4371"/>
    <line x1="973.0423" x2="979.3583" y1="300.3317" y2="300.3317"/>
    <line x1="982.1654" x2="982.1654" y1="296.1211" y2="303.4897"/>
    <polyline points="994.4464,296.1211 990.9375,296.1211 990.5866,299.2791 990.9375,298.9282 991.9902,298.5773 993.0428,298.5773 994.0955,298.9282 994.7972,299.63 995.1481,300.6826 995.1481,301.3844 994.7972,302.4371 994.0955,303.1388 993.0428,303.4897 991.9902,303.4897 990.9375,303.1388 990.5866,302.7879 990.2357,302.0862"/>
    <polygon points="1004.9729,296.1211 1003.9203,296.472 1003.2185,297.5247 1002.8676,299.2791 1002.8676,300.3317 1003.2185,302.0862 1003.9203,303.1388 1004.9729,303.4897 1005.6747,303.4897 1006.7274,303.1388 1007.4291,302.0862 1007.78,300.3317 1007.78,299.2791 1007.4291,297.5247 1006.7274,296.472 1005.6747,296.1211"/>
    <polygon points="1010.2362,301.7353 1009.8853,302.0862 1010.2362,302.4371 1010.5871,302.0862"/>
    <polyline points="1016.9031,296.1211 1013.3942,296.1211 1013.0433,299.2791 1013.3942,298.9282 1014.4469,298.5773 1015.4995,298.5773 1016.5522,298.9282 1017.2539,299.63 1017.6048,300.6826 1017.6048,301.3844 1017.2539,302.4371 1016.5522,303.1388 1015.4995,303.4897 1014.4469,303.4897 1013.3942,303.1388 1013.0433,302.7879 1012.6924,302.0862"/>
    <polygon points="1027.4296,296.1211 1026.377,296.472 1025.6752,297.5247 1025.3243,299.2791 1025.3243,300.3317 1025.6752,302.0862 1026.377,303.1388 1027.4296,303.4897 1028.1314,303.4897 1029.1841,303.1388 1029.8858,302.0862 1030.2367,300.3317 1030.2367,299.2791 1029.8858,297.5247 1029.1841,296.472 1028.1314,296.1211"/>
    <polygon points="1032.6929,301.7353 1032.342,302.0862 1032.6929,302.4371 1033.0438,302.0862"/>
    <polyline points="1039.3597,296.1211 1035.8509,296.1211 1035.5,299.2791 1035.8509,298.9282 1036.9035,298.5773 1037.9562,298.5773 1039.0089,298.9282 1039.7106,299.63 1040.0615,300.6826 1040.0615,301.3844 1039.7106,302.4371 1039.0089,303.1388 1037.9562,303.4897 1036.9035,303.4897 1035.8509,303.1388 1035.5,302.7879 1035.1491,302.0862"/>
    <polygon points="1049.8863,296.1211 1048.8337,296.472 1048.1319,297.5247 1047.781,299.2791 1047.781,300.3317 1048.1319,302.0862 1048.8337,303.1388 1049.8863,303.4897 1050.5881,303.4897 1051.6407,303.1388 1052.3425,302.0862 1052.6934,300.3317 1052.6934,299.2791 1052.3425,297.5247 1051.6407,296.472 1050.5881,296.1211"/>
    <polygon points="1055.1496,301.7353 1054.7987,302.0862 1055.1496,302.4371 1055.5005,302.0862"/>
    <polyline points="1061.8164,296.1211 1058.3076,296.1211 1057.9567,299.2791 1058.3076,298.9282 1059.3602,298.5773 1060.4129,298.5773 1061.4656,298.9282 1062.1673,299.63 1062.5182,300.6826 1062.5182,301.3844 1062.1673,302.4371 1061.4656,303.1388 1060.4129,303.4897 1059.3602,303.4897 1058.3076,303.1388 1057.9567,302.7879 1057.6058,302.0862"/>
  </g>
  <g fill="none" id="layer10" inkscape:groupmode="layer" inkscape:label="10" stroke="#008800" style="display:inline">
    <polygon points="57.0491,31.9479 66.0714,138.4901 160.4911,207.7196 161.6552,100.4707"/>
    <line x1="58.6592" x2="58.9992" y1="33.02" y2="37.1015"/>
    <line x1="61.8222" x2="62.0416" y1="36.3845" y2="39.1036"/>
    <polyline points="61.8693,36.9683 61.5163,36.3681 61.179,35.9625 60.6971,35.6463 60.3919,35.6303 60.103,35.8087 59.9906,36.2864 60.0226,36.6747 60.2306,37.362 60.5828,37.9603 60.919,38.3649 61.3999,38.6813 61.705,38.6987 61.9947,38.5221"/>
    <line x1="62.7882" x2="63.9706" y1="37.0183" y2="40.3731"/>
    <polyline points="64.7246,38.2887 63.9706,40.3731 63.7101,40.9359 63.4194,41.111 63.1135,41.0926 62.953,40.9868"/>
    <polyline points="65.6236,39.9869 67.5663,41.2632 67.5368,40.8741 67.3451,40.3782 67.1681,40.077 66.8289,39.6693 66.3427,39.3503 66.0338,39.3326 65.7401,39.5095 65.6236,39.9869 65.6537,40.3756 65.8604,41.0644 66.2135,41.665 66.5516,42.0716 67.0367,42.3908 67.3456,42.4098 67.64,42.2347"/>
    <line x1="68.6149" x2="68.8185" y1="40.841" y2="43.5634"/>
    <polyline points="68.7023,42.0094 68.8212,41.5322 69.1173,41.3561 69.4283,41.3747 69.9169,41.6953"/>
    <polyline points="74.728,43.5462 73.28,45.2023 75.7379,46.8173"/>
    <line x1="74.728" x2="75.012" y1="43.5462" y2="47.6392"/>
    <polygon points="34.5448,44.8106 45.8966,151.5688 140.2202,222.802 139.0192,115.5431"/>
    <line x1="36.1513" x2="36.5812" y1="45.9154" y2="50.0109"/>
    <line x1="39.337" x2="39.6163" y1="49.3466" y2="52.0749"/>
    <polyline points="39.397,49.9324 39.0361,49.3244 38.6953,48.9116 38.2145,48.5856 37.9144,48.5636 37.6349,48.7369 37.5358,49.2133 37.5763,49.6029 37.7968,50.2954 38.1566,50.9016 38.4964,51.3133 38.9761,51.6396 39.2761,51.6628 39.5565,51.4915"/>
    <line x1="40.3007" x2="41.5407" y1="50.0001" y2="53.3837"/>
    <polyline points="42.2325,51.31 41.5407,53.3837 41.298,53.9425 41.0166,54.1123 40.7158,54.088 40.5556,53.9789"/>
    <polyline points="43.1554,53.0286 45.0937,54.3446 45.0556,53.9542 44.8557,53.4537 44.6747,53.1485 44.332,52.7335 43.8469,52.4046 43.543,52.3809 43.2587,52.5526 43.1554,53.0286 43.1941,53.4186 43.4132,54.1126 43.7741,54.7211 44.1158,55.1349 44.5998,55.4641 44.9036,55.489 45.1887,55.3193"/>
    <line x1="46.114" x2="46.3776" y1="53.9418" y2="56.6731"/>
    <polyline points="46.2271,55.1141 46.3327,54.6383 46.6196,54.4675 46.9256,54.4921 47.4131,54.8227"/>
    <polyline points="52.5116,56.992 50.8728,55.8825 50.8721,57.5349 51.0175,57.4501 51.49,57.5871 51.981,57.92 52.4902,58.4489 52.8535,59.0625 53.0705,59.7601 53.1058,60.1507 52.9952,60.6249 52.7035,60.7924 52.231,60.6538 51.7411,60.3207 51.2337,59.793 51.0526,59.4873 50.8534,58.9865"/>
    <polygon points="11.3386,58.0745 25.1549,165.0149 119.3368,238.3401 115.6175,131.1254"/>
    <line x1="12.9405" x2="13.4657" y1="59.2136" y2="63.322"/>
    <line x1="16.1486" x2="16.4915" y1="62.7141" y2="65.4508"/>
    <polyline points="16.2223,63.3017 15.8533,62.6856 15.509,62.2653 15.0296,61.929 14.735,61.9009 14.4656,62.0685 14.3806,62.5434 14.4302,62.9342 14.6637,63.6319 15.0317,64.2461 15.375,64.6653 15.8532,65.0018 16.1478,65.0312 16.4182,64.8656"/>
    <line x1="17.1094" x2="18.4101" y1="63.3881" y2="66.8007"/>
    <polyline points="19.0355,64.7394 18.4101,66.8007 18.1865,67.355 17.9151,67.5191 17.6197,67.4886 17.46,67.3761"/>
    <polyline points="19.9833,66.4789 21.9159,67.8364 21.8687,67.4448 21.6601,66.9397 21.4751,66.6304 21.1288,66.208 20.6451,65.8686 20.3467,65.8386 20.0724,66.0045 19.9833,66.4789 20.031,66.87 20.2633,67.5693 20.6323,68.1858 20.9776,68.6072 21.4602,68.9467 21.7586,68.978 22.0337,68.8141"/>
    <line x1="22.9055" x2="23.2329" y1="67.4545" y2="70.1939"/>
    <polyline points="23.046,68.6303 23.1375,68.1562 23.4144,67.9912 23.7149,68.0223 24.201,68.3633"/>
    <polyline points="29.4837,71.3461 29.2753,70.838 28.7622,70.2974 28.4352,70.0684 27.9678,69.9218 27.7093,70.283 27.6596,71.1504 27.7727,72.1303 28.0257,73.0274 28.3962,73.6472 28.9071,74.1862 29.07,74.3008 29.5366,74.4493 29.8183,74.2878 29.9148,73.8155 29.8926,73.6197 29.6624,72.9171 29.291,72.2954 28.7786,71.7554 28.6154,71.6408 28.1485,71.4936 27.8677,71.657 27.7727,72.1303"/>
    <polygon points="414.2189,44.8866 424.9621,151.646 547.7629,192.9892 550.481,85.8001"/>
    <line x1="416.3824" x2="416.7866" y1="45.5541" y2="49.6492"/>
    <line x1="420.6093" x2="420.8686" y1="48.1531" y2="50.8806"/>
    <polyline points="420.665,48.7387 420.1967,48.2187 419.7469,47.8938 419.1004,47.6994 418.6885,47.765 418.2958,48.0258 418.1376,48.5459 418.1755,48.9355 418.4472,49.5841 418.9147,50.1025 419.3633,50.4265 420.0082,50.6211 420.4198,50.5565 420.8131,50.2973"/>
    <line x1="421.904" x2="423.4527" y1="48.5425" y2="51.6602"/>
    <polyline points="424.4968,49.3222 423.4527,51.6602 423.0941,52.307 422.6998,52.565 422.2877,52.6289 422.0726,52.564"/>
    <polyline points="425.6846,50.8185 428.2814,51.6005 428.247,51.2104 427.9958,50.7548 427.7618,50.4942 427.311,50.1685 426.661,49.9731 426.2455,50.0382 425.8479,50.2984 425.6846,50.8185 425.7199,51.2083 425.9889,51.8576 426.4561,52.377 426.9056,52.7018 427.554,52.8974 427.9691,52.8333 428.3674,52.5746"/>
    <line x1="429.6966" x2="429.9338" y1="50.8859" y2="53.6153"/>
    <polyline points="429.7984,52.0573 429.9645,51.5372 430.3648,51.2772 430.7823,51.2124 431.4341,51.4085"/>
    <polyline points="437.8598,52.003 435.8985,54.0845 439.168,55.0693"/>
    <line x1="437.8598" x2="438.1857" y1="52.003" y2="56.1045"/>
    <polygon points="391.1076,58.1529 404.2976,165.0943 527.9936,207.6331 528.4691,100.3844"/>
    <line x1="393.2873" x2="393.786" y1="58.8409" y2="62.949"/>
    <line x1="397.5759" x2="397.8979" y1="61.483" y2="64.219"/>
    <polyline points="397.6451,62.0705 397.1646,61.5451 396.7072,61.2155 396.0559,61.0149 395.6453,61.0772 395.2585,61.3351 395.1121,61.855 395.159,62.2458 395.4458,62.8982 395.9254,63.422 396.3816,63.7506 397.0313,63.9513 397.4415,63.8902 397.8291,63.6339"/>
    <line x1="398.8801" x2="400.5012" y1="61.8846" y2="65.023"/>
    <polyline points="401.4921,62.6889 400.5012,65.023 400.1572,65.6682 399.7686,65.9233 399.3578,65.9837 399.1411,65.9167"/>
    <polyline points="402.7148,64.1991 405.331,65.0057 405.2876,64.6144 405.0258,64.1555 404.7857,63.8923 404.3272,63.5619 403.6725,63.3603 403.2582,63.4219 402.8663,63.6793 402.7148,64.1991 402.7591,64.5901 403.0431,65.2432 403.5224,65.7679 403.9796,66.0974 404.6328,66.2991 405.0467,66.2386 405.4392,65.9828"/>
    <line x1="406.7307" x2="407.0303" y1="64.302" y2="67.0396"/>
    <polyline points="406.8593,65.477 407.0136,64.9571 407.4082,64.7 407.8245,64.6388 408.4812,64.841"/>
    <polyline points="415.3654,65.6289 413.164,64.9521 413.1273,66.6512 413.3266,66.5228 413.9655,66.5298 414.6251,66.7328 415.3049,67.1322 415.7846,67.6597 416.064,68.315 416.1035,68.7063 415.9432,69.225 415.5437,69.48 414.9053,69.4719 414.2474,69.2687 413.5695,68.8704 413.3301,68.6075 413.0703,68.1491"/>
    <polygon points="367.2638,71.8396 383.0442,178.9258 507.6359,222.7129 505.725,115.4539"/>
    <line x1="369.4598" x2="370.0588" y1="72.5491" y2="76.6689"/>
    <line x1="373.8119" x2="374.2005" y1="75.2357" y2="77.9794"/>
    <polyline points="373.8953,75.8248 373.4022,75.2941 372.9368,74.9596 372.2808,74.7527 371.8718,74.8112 371.4914,75.066 371.3578,75.5854 371.4142,75.9773 371.7168,76.6335 372.2091,77.1626 372.6732,77.4961 373.3276,77.7031 373.7362,77.6457 374.1174,77.3926"/>
    <line x1="375.1256" x2="376.8227" y1="75.6502" y2="78.809"/>
    <polyline points="377.7567,76.4802 376.8227,78.809 376.4945,79.452 376.1122,79.7039 375.703,79.7606 375.4847,79.6915"/>
    <polyline points="379.0159,78.0044 381.6513,78.8369 381.5984,78.4445 381.3256,77.9823 381.0791,77.7165 380.6127,77.3812 379.9531,77.1731 379.5403,77.2309 379.1548,77.4851 379.0159,78.0044 379.0697,78.3965 379.3695,79.0534 379.8615,79.5834 380.3266,79.9177 380.9846,80.1259 381.397,80.0692 381.7833,79.8166"/>
    <line x1="383.0338" x2="383.3998" y1="78.145" y2="80.8901"/>
    <polyline points="383.1909,79.3232 383.3326,78.8039 383.7209,78.5501 384.1357,78.4926 384.7973,78.7013"/>
    <polyline points="391.9966,80.2162 391.7254,79.7521 391.0349,79.3453 390.5913,79.2055 389.9511,79.1931 389.5831,79.6445 389.4871,80.5581 389.6122,81.5398 389.9331,82.3937 390.4246,82.925 391.1122,83.3304 391.3332,83.4003 391.9718,83.4144 392.3651,83.1627 392.513,82.6447 392.4885,82.4486 392.1934,81.7897 391.7011,81.2569 391.0117,80.8506 390.7902,80.7807 390.1509,80.7677 389.7583,81.0209 389.6122,81.5398"/>
    <polygon points="787.6719,44.8866 798.4152,151.646 921.2159,192.9892 923.934,85.8001"/>
    <line x1="789.8354" x2="790.2396" y1="45.5541" y2="49.6492"/>
    <line x1="794.0624" x2="794.3216" y1="48.1531" y2="50.8806"/>
    <polyline points="794.118,48.7387 793.6497,48.2187 793.1999,47.8938 792.5535,47.6994 792.1415,47.765 791.7488,48.0258 791.5906,48.5459 791.6285,48.9355 791.9003,49.5841 792.3678,50.1025 792.8164,50.4265 793.4613,50.6211 793.8728,50.5565 794.2662,50.2973"/>
    <line x1="795.357" x2="796.9058" y1="48.5425" y2="51.6602"/>
    <polyline points="797.9498,49.3222 796.9058,51.6602 796.5471,52.307 796.1528,52.565 795.7407,52.6289 795.5256,52.564"/>
    <polyline points="799.1376,50.8185 801.7344,51.6005 801.7,51.2104 801.4488,50.7548 801.2148,50.4942 800.764,50.1685 800.1141,49.9731 799.6985,50.0382 799.3009,50.2984 799.1376,50.8185 799.1729,51.2083 799.4419,51.8576 799.9091,52.377 800.3587,52.7018 801.007,52.8974 801.4222,52.8333 801.8204,52.5746"/>
    <line x1="803.1496" x2="803.3868" y1="50.8859" y2="53.6153"/>
    <polyline points="803.2514,52.0573 803.4175,51.5372 803.8178,51.2772 804.2353,51.2124 804.8871,51.4085"/>
    <polyline points="811.3128,52.003 809.3515,54.0845 812.621,55.0693"/>
    <line x1="811.3128" x2="811.6387" y1="52.003" y2="56.1045"/>
    <polygon points="800.391,97.2799 805.3827,150.6943 868.7852,171.9666 867.1989,118.4799"/>
    <line x1="801.4768" x2="801.6572" y1="97.633" y2="99.5849"/>
    <line x1="803.5897" x2="803.7074" y1="98.9363" y2="100.2369"/>
    <polyline points="803.6149,99.2152 803.3819,98.9606 803.1573,98.799 802.8331,98.696 802.6255,98.7204 802.4265,98.8377 802.3441,99.0822 802.3611,99.268 802.4946,99.5809 802.7274,99.8352 802.9517,99.9966 803.2755,100.0995 803.483,100.0754 803.6822,99.9584"/>
    <line x1="804.2385" x2="805.0038" y1="99.1423" y2="100.6491"/>
    <polyline points="805.537,99.5547 805.0038,100.6491 804.8208,100.9514 804.6214,101.0681 804.4138,101.0921 804.3058,101.0577"/>
    <polyline points="806.1276,100.2845 807.4272,100.6974 807.411,100.5115 807.2865,100.2911 807.17,100.1637 806.9451,100.0018 806.6201,99.8986 806.4116,99.9228 806.2113,100.04 806.1276,100.2845 806.144,100.4703 806.2768,100.7833 806.5095,101.0377 806.7341,101.1994 807.0588,101.3026 807.2672,101.2786 807.4676,101.1618"/>
    <line x1="808.1377" x2="808.2499" y1="100.3805" y2="101.6814"/>
    <polyline points="808.1858,100.9384 808.2702,100.694 808.4711,100.5769 808.6801,100.5527 809.0056,100.6561"/>
    <polyline points="812.4291,101.1085 811.341,100.7632 811.302,101.5665 811.4029,101.508 811.7213,101.5185 812.0476,101.6221 812.3815,101.8188 812.6144,102.0739 812.746,102.3874 812.7612,102.5733 812.6754,102.8174 812.4733,102.934 812.155,102.9232 811.8292,102.8196 811.4957,102.6232 811.3794,102.4958 811.2553,102.2755"/>
    <polygon points="740.7169,71.8396 756.4973,178.9258 881.089,222.7129 879.178,115.4539"/>
    <line x1="742.9128" x2="743.5118" y1="72.5491" y2="76.6689"/>
    <line x1="747.2649" x2="747.6536" y1="75.2357" y2="77.9794"/>
    <polyline points="747.3484,75.8248 746.8552,75.2941 746.3898,74.9596 745.7338,74.7527 745.3249,74.8112 744.9444,75.066 744.8108,75.5854 744.8672,75.9773 745.1698,76.6335 745.6621,77.1626 746.1262,77.4961 746.7806,77.7031 747.1892,77.6457 747.5705,77.3926"/>
    <line x1="748.5786" x2="750.2757" y1="75.6502" y2="78.809"/>
    <polyline points="751.2097,76.4802 750.2757,78.809 749.9475,79.452 749.5653,79.7039 749.156,79.7606 748.9378,79.6915"/>
    <polyline points="752.469,78.0044 755.1043,78.8369 755.0515,78.4445 754.7786,77.9823 754.5321,77.7165 754.0657,77.3812 753.4061,77.1731 752.9934,77.2309 752.6078,77.4851 752.469,78.0044 752.5227,78.3965 752.8225,79.0534 753.3145,79.5834 753.7797,79.9177 754.4376,80.1259 754.85,80.0692 755.2363,79.8166"/>
    <line x1="756.4868" x2="756.8528" y1="78.145" y2="80.8901"/>
    <polyline points="756.6439,79.3232 756.7856,78.8039 757.174,78.5501 757.5887,78.4926 758.2503,78.7013"/>
    <polyline points="765.4496,80.2162 765.1784,79.7521 764.488,79.3453 764.0443,79.2055 763.4041,79.1931 763.0361,79.6445 762.9401,80.5581 763.0653,81.5398 763.3861,82.3937 763.8777,82.925 764.5652,83.3304 764.7862,83.4003 765.4248,83.4144 765.8182,83.1627 765.9661,82.6447 765.9416,82.4486 765.6465,81.7897 765.1541,81.2569 764.4647,80.8506 764.2432,80.7807 763.6039,80.7677 763.2114,81.0209 763.0653,81.5398"/>
  </g>
</svg>
