<svg xmlns="http://www.w3.org/2000/svg" xmlns:cc="http://creativecommons.org/ns" xmlns:ev="http://www.w3.org/2001/xml-events" xmlns:rdf="http://www.w3.org/1999/02/22-rdf-syntax-ns" xmlns:xlink="http://www.w3.org/1999/xlink" width="30cm" height="8cm" baseProfile="tiny" version="1.2" viewBox="0 0 1133.858 302.362"><metadata><rdf:RDF><cc:Work/></rdf:RDF></metadata><g id="layer6" fill="none" stroke="#00f" style="display:inline"><polygon points="151.98 99.45 102.311 256.56 340.402 256.56 290.733 99.45"/><line x1="153.689" x2="153.094" y1="100.193" y2="102.131"/><line x1="156.124" x2="155.742" y1="100.835" y2="102.131"/><polyline points="156.043 101.112 155.82 100.927 155.57 100.835 155.155 100.835 154.85 100.927 154.517 101.112 154.294 101.388 154.238 101.574 154.293 101.852 154.516 102.038 154.766 102.131 155.184 102.131 155.49 102.038 155.824 101.852"/><line x1="156.956" x2="157.414" y1="100.835" y2="102.131"/><polyline points="158.618 100.835 157.414 102.131 157.027 102.504 156.694 102.691 156.387 102.784 156.247 102.784"/><polyline points="159.155 101.388 160.822 101.388 160.872 101.204 160.784 101.019 160.671 100.927 160.419 100.835 160.003 100.835 159.701 100.927 159.372 101.112 159.155 101.388 159.103 101.574 159.164 101.852 159.391 102.038 159.643 102.131 160.061 102.131 160.366 102.038 160.695 101.852"/><line x1="161.943" x2="161.594" y1="100.835" y2="102.131"/><polyline points="161.794 101.388 162.007 101.112 162.334 100.927 162.636 100.835 163.051 100.835"/><polyline points="166.306 100.559 166.606 100.468 167.089 100.193 166.611 102.131"/><polygon points="148.35 88.216 91.207 251.19 351.506 251.19 294.363 88.216"/><line x1="150.136" x2="149.476" y1="88.959" y2="90.895"/><line x1="152.688" x2="152.264" y1="89.6" y2="90.895"/><polyline points="152.598 89.877 152.366 89.692 152.105 89.6 151.667 89.6 151.345 89.692 150.992 89.877 150.752 90.153 150.69 90.338 150.744 90.616 150.975 90.802 151.237 90.895 151.677 90.895 152.001 90.802 152.356 90.616"/><line x1="153.563" x2="154.025" y1="89.6" y2="90.895"/><polyline points="155.313 89.6 154.025 90.895 153.612 91.268 153.258 91.455 152.933 91.549 152.786 91.549"/><polyline points="155.87 90.153 157.625 90.153 157.681 89.969 157.591 89.784 157.473 89.692 157.209 89.6 156.772 89.6 156.452 89.692 156.103 89.877 155.87 90.153 155.813 90.338 155.873 90.616 156.108 90.802 156.373 90.895 156.813 90.895 157.135 90.802 157.484 90.616"/><line x1="158.814" x2="158.427" y1="89.6" y2="90.895"/><polyline points="158.649 90.153 158.877 89.877 159.224 89.692 159.543 89.6 159.98 89.6"/><polyline points="163.094 89.417 163.119 89.325 163.316 89.142 163.487 89.05 163.803 88.959 164.384 88.959 164.65 89.05 164.771 89.142 164.867 89.325 164.817 89.509 164.622 89.692 164.255 89.969 162.536 90.895 164.59 90.895"/><polygon points="144.319 75.743 77.817 244.715 364.896 244.715 298.394 75.743"/><line x1="146.189" x2="145.453" y1="76.48" y2="78.402"/><line x1="148.87" x2="148.398" y1="77.116" y2="78.402"/><polyline points="148.769 77.391 148.529 77.208 148.255 77.116 147.793 77.116 147.451 77.208 147.074 77.391 146.816 77.665 146.747 77.849 146.797 78.125 147.038 78.31 147.313 78.402 147.778 78.402 148.122 78.31 148.499 78.125"/><line x1="149.794" x2="150.257" y1="77.116" y2="78.402"/><polyline points="151.641 77.116 150.257 78.402 149.814 78.773 149.436 78.958 149.091 79.051 148.936 79.051"/><polyline points="152.219 77.665 154.071 77.665 154.134 77.482 154.042 77.299 153.919 77.208 153.643 77.116 153.181 77.116 152.841 77.208 152.469 77.391 152.219 77.665 152.155 77.849 152.213 78.125 152.458 78.31 152.736 78.402 153.201 78.402 153.542 78.31 153.915 78.125"/><line x1="155.336" x2="154.905" y1="77.116" y2="78.402"/><polyline points="155.152 77.665 155.398 77.391 155.768 77.208 156.106 77.116 156.568 77.116"/><polyline points="160.153 76.48 161.841 76.48 160.696 77.208 161.158 77.208 161.438 77.299 161.565 77.391 161.636 77.665 161.58 77.849 161.342 78.125 160.976 78.31 160.483 78.402 160.019 78.402 159.583 78.31 159.457 78.218 159.359 78.033"/><polygon points="139.816 61.812 61.357 236.755 381.356 236.755 302.896 61.812"/><line x1="141.779" x2="140.954" y1="62.536" y2="64.428"/><line x1="144.603" x2="144.072" y1="63.162" y2="64.428"/><polyline points="144.49 63.432 144.239 63.252 143.951 63.162 143.462 63.162 143.097 63.252 142.694 63.432 142.415 63.703 142.337 63.883 142.384 64.155 142.634 64.337 142.923 64.428 143.416 64.428 143.782 64.337 144.187 64.155"/><line x1="145.581" x2="146.042" y1="63.162" y2="64.428"/><polyline points="147.537 63.162 146.042 64.428 145.564 64.793 145.16 64.976 144.793 65.067 144.628 65.067"/><polyline points="148.137 63.703 150.099 63.703 150.168 63.522 150.075 63.342 149.947 63.252 149.656 63.162 149.167 63.162 148.805 63.252 148.408 63.432 148.137 63.703 148.065 63.883 148.12 64.155 148.376 64.337 148.668 64.428 149.161 64.428 149.524 64.337 149.923 64.155"/><line x1="151.449" x2="150.966" y1="63.162" y2="64.428"/><polyline points="151.243 63.703 151.509 63.432 151.904 63.252 152.264 63.162 152.753 63.162"/><polyline points="157.861 62.536 155.788 63.793 158.242 63.793"/><line x1="157.861" x2="157.203" y1="62.536" y2="64.428"/><polygon points="134.756 46.151 40.633 226.733 402.08 226.733 307.957 46.151"/><line x1="136.819" x2="135.887" y1="46.854" y2="48.693"/><line x1="139.801" x2="139.202" y1="47.462" y2="48.693"/><polyline points="139.674 47.724 139.412 47.55 139.108 47.462 138.589 47.462 138.199 47.55 137.765 47.724 137.461 47.987 137.373 48.163 137.415 48.427 137.676 48.604 137.981 48.693 138.504 48.693 138.897 48.604 139.331 48.427"/><line x1="140.84" x2="141.296" y1="47.462" y2="48.693"/><polyline points="142.919 47.462 141.296 48.693 140.778 49.047 140.343 49.225 139.95 49.314 139.775 49.314"/><polyline points="143.542 47.987 145.627 47.987 145.706 47.812 145.611 47.637 145.477 47.55 145.171 47.462 144.651 47.462 144.264 47.55 143.837 47.724 143.542 47.987 143.46 48.163 143.512 48.427 143.779 48.604 144.088 48.693 144.611 48.693 145 48.604 145.428 48.427"/><line x1="147.076" x2="146.53" y1="47.462" y2="48.693"/><polyline points="146.843 47.987 147.133 47.724 147.557 47.55 147.942 47.462 148.462 47.462"/><polyline points="154.249 46.854 152.523 46.854 152.027 47.637 152.236 47.55 152.792 47.462 153.311 47.462 153.796 47.55 154.072 47.724 154.14 47.987 154.07 48.163 153.79 48.427 153.371 48.604 152.811 48.693 152.288 48.693 151.801 48.604 151.663 48.516 151.562 48.339"/><polyline points="169.313 276.737 169.313 285.411 169.823 286.942 170.844 287.452 171.864 287.452"/><line x1="167.783" x2="171.354" y1="280.309" y2="280.309"/><polygon points="174.416 276.737 174.926 277.248 175.436 276.737 174.926 276.227"/><line x1="174.926" x2="174.926" y1="280.309" y2="287.452"/><line x1="179.008" x2="179.008" y1="276.737" y2="287.452"/><polyline points="183.6 276.737 183.6 285.411 184.11 286.942 185.13 287.452 186.151 287.452"/><line x1="182.069" x2="185.641" y1="280.309" y2="280.309"/><line x1="197.376" x2="206.56" y1="281.329" y2="281.329"/><line x1="197.376" x2="206.56" y1="284.391" y2="284.391"/><line x1="218.805" x2="227.989" y1="282.86" y2="282.86"/><polyline points="236.663 276.737 231.561 283.88 239.214 283.88"/><line x1="236.663" x2="236.663" y1="276.737" y2="287.452"/><polygon points="244.827 276.737 243.296 277.248 242.276 278.778 241.766 281.329 241.766 282.86 242.276 285.411 243.296 286.942 244.827 287.452 245.847 287.452 247.378 286.942 248.399 285.411 248.909 282.86 248.909 281.329 248.399 278.778 247.378 277.248 245.847 276.737"/><line x1="258.093" x2="258.093" y1="276.737" y2="287.452"/><polyline points="258.093 281.839 257.072 280.819 256.052 280.309 254.521 280.309 253.501 280.819 252.48 281.839 251.97 283.37 251.97 284.391 252.48 285.921 253.501 286.942 254.521 287.452 256.052 287.452 257.072 286.942 258.093 285.921"/><polyline points="261.664 283.37 267.787 283.37 267.787 282.35 267.277 281.329 266.767 280.819 265.746 280.309 264.216 280.309 263.195 280.819 262.175 281.839 261.664 283.37 261.664 284.391 262.175 285.921 263.195 286.942 264.216 287.452 265.746 287.452 266.767 286.942 267.787 285.921"/><polyline points="276.971 280.309 276.971 288.473 276.461 290.003 275.951 290.513 274.93 291.024 273.4 291.024 272.379 290.513"/><polyline points="276.971 281.839 275.951 280.819 274.93 280.309 273.4 280.309 272.379 280.819 271.359 281.839 270.849 283.37 270.849 284.391 271.359 285.921 272.379 286.942 273.4 287.452 274.93 287.452 275.951 286.942 276.971 285.921"/><polygon points="482.504 50.333 482.504 219.182 651.354 219.182 651.354 50.333"/><line x1="484.863" x2="484.863" y1="51.699" y2="55.217"/><line x1="488.046" x2="488.046" y1="52.872" y2="55.217"/><polyline points="488.046 53.375 487.711 53.04 487.376 52.872 486.873 52.872 486.538 53.04 486.203 53.375 486.036 53.877 486.036 54.212 486.203 54.715 486.538 55.05 486.873 55.217 487.376 55.217 487.711 55.05 488.046 54.715"/><line x1="489.051" x2="490.057" y1="52.872" y2="55.217"/><polyline points="491.062 52.872 490.057 55.217 489.721 55.888 489.386 56.223 489.051 56.39 488.884 56.39"/><polyline points="491.899 53.877 493.91 53.877 493.91 53.542 493.742 53.207 493.575 53.04 493.24 52.872 492.737 52.872 492.402 53.04 492.067 53.375 491.899 53.877 491.899 54.212 492.067 54.715 492.402 55.05 492.737 55.217 493.24 55.217 493.575 55.05 493.91 54.715"/><line x1="495.082" x2="495.082" y1="52.872" y2="55.217"/><polyline points="495.082 53.877 495.25 53.375 495.585 53.04 495.92 52.872 496.423 52.872"/><polyline points="500.276 52.369 500.611 52.202 501.113 51.699 501.113 55.217"/><polygon points="475.264 43.092 475.264 226.423 658.594 226.423 658.594 43.092"/><line x1="477.825" x2="477.825" y1="44.576" y2="48.396"/><line x1="481.281" x2="481.281" y1="45.849" y2="48.396"/><polyline points="481.281 46.395 480.917 46.031 480.553 45.849 480.008 45.849 479.644 46.031 479.28 46.395 479.098 46.941 479.098 47.305 479.28 47.85 479.644 48.214 480.008 48.396 480.553 48.396 480.917 48.214 481.281 47.85"/><line x1="482.372" x2="483.464" y1="45.849" y2="48.396"/><polyline points="484.555 45.849 483.464 48.396 483.1 49.124 482.736 49.487 482.372 49.669 482.19 49.669"/><polyline points="485.465 46.941 487.647 46.941 487.647 46.577 487.466 46.213 487.284 46.031 486.92 45.849 486.374 45.849 486.01 46.031 485.647 46.395 485.465 46.941 485.465 47.305 485.647 47.85 486.01 48.214 486.374 48.396 486.92 48.396 487.284 48.214 487.647 47.85"/><line x1="488.921" x2="488.921" y1="45.849" y2="48.396"/><polyline points="488.921 46.941 489.103 46.395 489.466 46.031 489.83 45.849 490.376 45.849"/><polyline points="494.196 45.486 494.196 45.304 494.378 44.94 494.56 44.758 494.923 44.576 495.651 44.576 496.015 44.758 496.197 44.94 496.378 45.304 496.378 45.667 496.197 46.031 495.833 46.577 494.014 48.396 496.56 48.396"/><polygon points="466.665 34.493 466.665 235.021 667.193 235.021 667.193 34.493"/><line x1="469.466" x2="469.466" y1="36.117" y2="40.295"/><line x1="473.247" x2="473.247" y1="37.509" y2="40.295"/><polyline points="473.247 38.106 472.849 37.708 472.451 37.509 471.854 37.509 471.456 37.708 471.058 38.106 470.859 38.703 470.859 39.101 471.058 39.698 471.456 40.096 471.854 40.295 472.451 40.295 472.849 40.096 473.247 39.698"/><line x1="474.44" x2="475.634" y1="37.509" y2="40.295"/><polyline points="476.828 37.509 475.634 40.295 475.236 41.091 474.838 41.489 474.44 41.688 474.241 41.688"/><polyline points="477.823 38.703 480.21 38.703 480.21 38.305 480.011 37.907 479.812 37.708 479.414 37.509 478.818 37.509 478.42 37.708 478.022 38.106 477.823 38.703 477.823 39.101 478.022 39.698 478.42 40.096 478.818 40.295 479.414 40.295 479.812 40.096 480.21 39.698"/><line x1="481.603" x2="481.603" y1="37.509" y2="40.295"/><polyline points="481.603 38.703 481.802 38.106 482.2 37.708 482.598 37.509 483.195 37.509"/><polyline points="487.572 36.117 489.76 36.117 488.567 37.708 489.163 37.708 489.562 37.907 489.76 38.106 489.959 38.703 489.959 39.101 489.76 39.698 489.363 40.096 488.766 40.295 488.169 40.295 487.572 40.096 487.373 39.897 487.174 39.499"/><polygon points="456.286 24.114 456.286 245.4 677.572 245.4 677.572 24.114"/><line x1="459.377" x2="459.377" y1="25.906" y2="30.516"/><line x1="463.549" x2="463.549" y1="27.442" y2="30.516"/><polyline points="463.549 28.101 463.11 27.662 462.671 27.442 462.012 27.442 461.573 27.662 461.134 28.101 460.914 28.76 460.914 29.199 461.134 29.858 461.573 30.297 462.012 30.516 462.671 30.516 463.11 30.297 463.549 29.858"/><line x1="464.866" x2="466.184" y1="27.442" y2="30.516"/><polyline points="467.501 27.442 466.184 30.516 465.745 31.395 465.305 31.834 464.866 32.053 464.647 32.053"/><polyline points="468.599 28.76 471.233 28.76 471.233 28.321 471.014 27.882 470.794 27.662 470.355 27.442 469.697 27.442 469.257 27.662 468.818 28.101 468.599 28.76 468.599 29.199 468.818 29.858 469.257 30.297 469.697 30.516 470.355 30.516 470.794 30.297 471.233 29.858"/><line x1="472.77" x2="472.77" y1="27.442" y2="30.516"/><polyline points="472.77 28.76 472.99 28.101 473.429 27.662 473.868 27.442 474.527 27.442"/><polyline points="481.113 25.906 478.918 28.979 482.211 28.979"/><line x1="481.113" x2="481.113" y1="25.906" y2="30.516"/><polygon points="443.51 11.339 443.51 258.176 690.348 258.176 690.348 11.339"/><line x1="446.958" x2="446.958" y1="13.336" y2="18.48"/><line x1="451.612" x2="451.612" y1="15.051" y2="18.48"/><polyline points="451.612 15.786 451.122 15.296 450.632 15.051 449.897 15.051 449.407 15.296 448.918 15.786 448.673 16.52 448.673 17.01 448.918 17.745 449.407 18.235 449.897 18.48 450.632 18.48 451.122 18.235 451.612 17.745"/><line x1="453.081" x2="454.55" y1="15.051" y2="18.48"/><polyline points="456.02 15.051 454.55 18.48 454.061 19.459 453.571 19.949 453.081 20.194 452.836 20.194"/><polyline points="457.245 16.52 460.183 16.52 460.183 16.03 459.938 15.541 459.694 15.296 459.204 15.051 458.469 15.051 457.979 15.296 457.489 15.786 457.245 16.52 457.245 17.01 457.489 17.745 457.979 18.235 458.469 18.48 459.204 18.48 459.694 18.235 460.183 17.745"/><line x1="461.898" x2="461.898" y1="15.051" y2="18.48"/><polyline points="461.898 16.52 462.143 15.786 462.632 15.296 463.122 15.051 463.857 15.051"/><polyline points="471.694 13.336 469.245 13.336 469 15.541 469.245 15.296 469.98 15.051 470.714 15.051 471.449 15.296 471.939 15.786 472.184 16.52 472.184 17.01 471.939 17.745 471.449 18.235 470.714 18.48 469.98 18.48 469.245 18.235 469 17.99 468.755 17.5"/><polyline points="526.621 276.737 526.621 285.411 527.131 286.942 528.152 287.452 529.172 287.452"/><line x1="525.091" x2="528.662" y1="280.309" y2="280.309"/><polygon points="531.723 276.737 532.234 277.248 532.744 276.737 532.234 276.227"/><line x1="532.234" x2="532.234" y1="280.309" y2="287.452"/><line x1="536.316" x2="536.316" y1="276.737" y2="287.452"/><polyline points="540.908 276.737 540.908 285.411 541.418 286.942 542.438 287.452 543.459 287.452"/><line x1="539.377" x2="542.948" y1="280.309" y2="280.309"/><line x1="554.684" x2="563.868" y1="281.329" y2="281.329"/><line x1="554.684" x2="563.868" y1="284.391" y2="284.391"/><polygon points="578.664 276.737 577.134 277.248 576.113 278.778 575.603 281.329 575.603 282.86 576.113 285.411 577.134 286.942 578.664 287.452 579.685 287.452 581.216 286.942 582.236 285.411 582.746 282.86 582.746 281.329 582.236 278.778 581.216 277.248 579.685 276.737"/><line x1="591.93" x2="591.93" y1="276.737" y2="287.452"/><polyline points="591.93 281.839 590.91 280.819 589.889 280.309 588.359 280.309 587.338 280.819 586.318 281.839 585.808 283.37 585.808 284.391 586.318 285.921 587.338 286.942 588.359 287.452 589.889 287.452 590.91 286.942 591.93 285.921"/><polyline points="595.502 283.37 601.625 283.37 601.625 282.35 601.114 281.329 600.604 280.819 599.584 280.309 598.053 280.309 597.033 280.819 596.012 281.839 595.502 283.37 595.502 284.391 596.012 285.921 597.033 286.942 598.053 287.452 599.584 287.452 600.604 286.942 601.625 285.921"/><polyline points="610.809 280.309 610.809 288.473 610.298 290.003 609.788 290.513 608.768 291.024 607.237 291.024 606.217 290.513"/><polyline points="610.809 281.839 609.788 280.819 608.768 280.309 607.237 280.309 606.217 280.819 605.196 281.839 604.686 283.37 604.686 284.391 605.196 285.921 606.217 286.942 607.237 287.452 608.768 287.452 609.788 286.942 610.809 285.921"/><polygon points="793.456 12.955 843.125 170.065 981.879 170.065 1031.547 12.955"/><line x1="797.449" x2="799.13" y1="15.124" y2="20.596"/><line x1="802.455" x2="803.528" y1="16.966" y2="20.596"/><polyline points="802.687 17.75 802.066 17.228 801.521 16.966 800.819 16.966 800.431 17.228 800.121 17.75 800.125 18.53 800.282 19.049 800.749 19.824 801.367 20.339 801.908 20.596 802.602 20.596 802.989 20.339 803.3 19.824"/><line x1="803.858" x2="806.305" y1="16.966" y2="20.596"/><polyline points="806.662 16.966 806.305 20.596 806.138 21.62 805.824 22.13 805.438 22.384 805.207 22.384"/><polyline points="808.27 18.53 811.063 18.53 810.921 18.01 810.545 17.489 810.24 17.228 809.701 16.966 808.999 16.966 808.605 17.228 808.284 17.75 808.27 18.53 808.416 19.049 808.866 19.824 809.473 20.339 810.008 20.596 810.702 20.596 811.095 20.339 811.417 19.824"/><line x1="812.271" x2="813.248" y1="16.966" y2="20.596"/><polyline points="812.692 18.53 812.716 17.75 813.043 17.228 813.44 16.966 814.141 16.966"/><polyline points="819.32 16.179 819.723 15.916 820.231 15.124 821.58 20.596"/><polygon points="782.352 18.325 839.495 181.298 985.509 181.298 1042.652 18.325"/><line x1="786.784" x2="788.789" y1="20.662" y2="26.544"/><line x1="792.31" x2="793.588" y1="22.643" y2="26.544"/><polyline points="792.586 23.486 791.892 22.925 791.289 22.643 790.523 22.643 790.106 22.925 789.784 23.486 789.812 24.325 789.999 24.883 790.532 25.715 791.223 26.268 791.82 26.544 792.577 26.544 792.992 26.268 793.316 25.715"/><line x1="793.841" x2="796.618" y1="22.643" y2="26.544"/><polyline points="796.904 22.643 796.618 26.544 796.466 27.643 796.138 28.19 795.724 28.463 795.472 28.463"/><polyline points="798.705 24.325 801.754 24.325 801.585 23.767 801.16 23.206 800.819 22.925 800.223 22.643 799.457 22.643 799.034 22.925 798.698 23.486 798.705 24.325 798.879 24.883 799.391 25.715 800.068 26.268 800.659 26.544 801.417 26.544 801.838 26.268 802.176 25.715"/><line x1="803.031" x2="804.195" y1="22.643" y2="26.544"/><polyline points="803.533 24.325 803.537 23.486 803.88 22.925 804.307 22.643 805.073 22.643"/><polyline points="810.276 22.079 810.198 21.797 810.296 21.23 810.474 20.946 810.909 20.662 811.935 20.662 812.526 20.946 812.859 21.23 813.268 21.797 813.42 22.362 813.317 22.925 813.036 23.767 811.266 26.544 814.802 26.544"/><polygon points="768.963 24.8 835.464 193.772 989.54 193.772 1056.041 24.8"/><line x1="773.941" x2="776.372" y1="27.331" y2="33.686"/><line x1="780.103" x2="781.652" y1="29.474" y2="33.686"/><polyline points="780.438 30.385 779.653 29.778 778.979 29.474 778.135 29.474 777.687 29.778 777.353 30.385 777.414 31.291 777.641 31.893 778.259 32.792 779.04 33.389 779.707 33.686 780.541 33.686 780.987 33.389 781.323 32.792"/><line x1="781.79" x2="784.987" y1="29.474" y2="33.686"/><polyline points="785.165 29.474 784.987 33.686 784.858 34.871 784.517 35.461 784.071 35.755 783.795 35.755"/><polyline points="787.206 31.291 790.563 31.291 790.358 30.688 789.871 30.082 789.487 29.778 788.82 29.474 787.977 29.474 787.52 29.778 787.17 30.385 787.206 31.291 787.417 31.893 788.01 32.792 788.774 33.389 789.433 33.686 790.267 33.686 790.721 33.389 791.074 32.792"/><line x1="791.913" x2="793.324" y1="29.474" y2="33.686"/><polyline points="792.522 31.291 792.499 30.385 792.858 29.778 793.319 29.474 794.163 29.474"/><polyline points="799.681 27.331 802.793 27.331 801.848 29.778 802.691 29.778 803.345 30.082 803.718 30.385 804.272 31.291 804.454 31.893 804.447 32.792 804.071 33.389 803.328 33.686 802.495 33.686 801.568 33.389 801.197 33.09 800.731 32.493"/><polygon points="752.503 32.76 830.962 207.703 994.042 207.703 1072.501 32.76"/><line x1="758.174" x2="761.185" y1="35.517" y2="42.422"/><line x1="765.138" x2="767.054" y1="37.849" y2="42.422"/><polyline points="765.552 38.839 764.651 38.179 763.886 37.849 762.947 37.849 762.462 38.179 762.119 38.839 762.23 39.823 762.511 40.477 763.24 41.452 764.136 42.099 764.891 42.422 765.818 42.422 766.3 42.099 766.647 41.452"/><line x1="767.015" x2="770.761" y1="37.849" y2="42.422"/><polyline points="770.771 37.849 770.761 42.422 770.67 43.707 770.317 44.346 769.835 44.664 769.528 44.664"/><polyline points="773.123 39.823 776.857 39.823 776.603 39.168 776.035 38.51 775.594 38.179 774.84 37.849 773.901 37.849 773.406 38.179 773.043 38.839 773.123 39.823 773.383 40.477 774.082 41.452 774.957 42.099 775.703 42.422 776.63 42.422 777.122 42.099 777.489 41.452"/><line x1="778.282" x2="780.028" y1="37.849" y2="42.422"/><polyline points="779.036 39.823 778.972 38.839 779.346 38.179 779.847 37.849 780.786 37.849"/><polyline points="789.364 35.517 787.866 40.15 792.53 40.15"/><line x1="789.364" x2="791.766" y1="35.517" y2="42.422"/><polygon points="731.779 42.782 825.901 223.364 999.103 223.364 1093.225 42.782"/><line x1="738.359" x2="742.183" y1="45.806" y2="53.352"/><line x1="746.357" x2="748.789" y1="48.358" y2="53.352"/><polyline points="746.884 49.441 745.828 48.72 744.946 48.358 743.887 48.358 743.361 48.72 743.015 49.441 743.201 50.516 743.557 51.23 744.437 52.294 745.485 53 746.355 53.352 747.398 53.352 747.921 53 748.274 52.294"/><line x1="748.474" x2="752.961" y1="48.358" y2="53.352"/><polyline points="752.708 48.358 752.961 53.352 752.933 54.752 752.574 55.447 752.049 55.794 751.704 55.794"/><polyline points="755.472 50.516 759.68 50.516 759.357 49.8 758.681 49.081 758.165 48.72 757.295 48.358 756.237 48.358 755.698 48.72 755.326 49.441 755.472 50.516 755.803 51.23 756.645 52.294 757.667 53 758.524 53.352 759.567 53.352 760.103 53 760.481 52.294"/><line x1="761.177" x2="763.392" y1="48.358" y2="53.352"/><polyline points="762.134 50.516 762.009 49.441 762.395 48.72 762.941 48.358 764 48.358"/><polyline points="774.264 45.806 770.71 45.806 771.708 49.081 771.912 48.72 772.821 48.358 773.88 48.358 775.084 48.72 776.078 49.441 776.86 50.516 777.146 51.23 777.223 52.294 776.81 53 775.909 53.352 774.866 53.352 773.677 53 773.184 52.647 772.542 51.94"/><polyline points="867.092 276.737 867.092 285.411 867.602 286.942 868.622 287.452 869.643 287.452"/><line x1="865.561" x2="869.133" y1="280.309" y2="280.309"/><polygon points="872.194 276.737 872.704 277.248 873.214 276.737 872.704 276.227"/><line x1="872.704" x2="872.704" y1="280.309" y2="287.452"/><line x1="876.786" x2="876.786" y1="276.737" y2="287.452"/><polyline points="881.378 276.737 881.378 285.411 881.888 286.942 882.909 287.452 883.929 287.452"/><line x1="879.847" x2="883.419" y1="280.309" y2="280.309"/><line x1="895.154" x2="904.338" y1="281.329" y2="281.329"/><line x1="895.154" x2="904.338" y1="284.391" y2="284.391"/><polyline points="921.176 276.737 916.073 283.88 923.727 283.88"/><line x1="921.176" x2="921.176" y1="276.737" y2="287.452"/><polygon points="929.339 276.737 927.809 277.248 926.788 278.778 926.278 281.329 926.278 282.86 926.788 285.411 927.809 286.942 929.339 287.452 930.36 287.452 931.89 286.942 932.911 285.411 933.421 282.86 933.421 281.329 932.911 278.778 931.89 277.248 930.36 276.737"/><line x1="942.605" x2="942.605" y1="276.737" y2="287.452"/><polyline points="942.605 281.839 941.585 280.819 940.564 280.309 939.034 280.309 938.013 280.819 936.993 281.839 936.482 283.37 936.482 284.391 936.993 285.921 938.013 286.942 939.034 287.452 940.564 287.452 941.585 286.942 942.605 285.921"/><polyline points="946.177 283.37 952.3 283.37 952.3 282.35 951.789 281.329 951.279 280.819 950.259 280.309 948.728 280.309 947.707 280.819 946.687 281.839 946.177 283.37 946.177 284.391 946.687 285.921 947.707 286.942 948.728 287.452 950.259 287.452 951.279 286.942 952.3 285.921"/><polyline points="961.484 280.309 961.484 288.473 960.973 290.003 960.463 290.513 959.443 291.024 957.912 291.024 956.892 290.513"/><polyline points="961.484 281.839 960.463 280.819 959.443 280.309 957.912 280.309 956.892 280.819 955.871 281.839 955.361 283.37 955.361 284.391 955.871 285.921 956.892 286.942 957.912 287.452 959.443 287.452 960.463 286.942 961.484 285.921"/></g></svg>