<svg xmlns="http://www.w3.org/2000/svg" xmlns:cc="http://creativecommons.org/ns" xmlns:ev="http://www.w3.org/2001/xml-events" xmlns:rdf="http://www.w3.org/1999/02/22-rdf-syntax-ns" xmlns:xlink="http://www.w3.org/1999/xlink" width="15cm" height="15cm" baseProfile="tiny" version="1.2" viewBox="0 0 566.929 566.929"><metadata><rdf:RDF><cc:Work/></rdf:RDF></metadata><g id="layer1" fill="none" stroke="#000" style="display:inline"><line x1="320.139" x2="319.311" y1="22.031" y2="43.86"/><polyline points="463.234 431.425 493.721 458.697 555.591 121.575 320.139 22.031"/><line x1="486.098" x2="521.119" y1="285.709" y2="309.405"/><line x1="418.458" x2="416.064" y1="63.598" y2="88.368"/><line x1="505.575" x2="504.312" y1="106.754" y2="115.073"/><line x1="510.634" x2="509.77" y1="111.919" y2="117.487"/><polyline points="510.448 113.115 509.992 112.066 509.474 111.415 508.606 111.038 507.967 111.184 507.268 111.728 506.798 112.793 506.677 113.585 506.783 114.899 507.236 115.944 507.75 116.594 508.614 116.976 509.253 116.835 509.954 116.297"/><line x1="512.381" x2="513.256" y1="112.679" y2="119.028"/><polyline points="515.899 114.208 513.256 119.028 512.423 120.359 511.717 120.893 511.075 121.03 510.785 120.901"/><polyline points="516.989 117.255 520.545 118.812 520.675 118.008 520.507 117.073 520.275 116.541 519.745 115.879 518.854 115.492 518.197 115.636 517.477 116.182 516.989 117.255 516.861 118.056 516.965 119.385 517.426 120.445 517.952 121.105 518.839 121.497 519.496 121.359 520.22 120.82"/><line x1="523.029" x2="522.108" y1="117.307" y2="122.943"/><polyline points="522.633 119.727 523.13 118.648 523.862 118.102 524.53 117.96 525.434 118.352"/><polyline points="532.638 120.169 533.322 120.027 534.455 119.198 532.997 127.758"/></g><g id="layer2" fill="none" stroke="#ddd" style="display:inline"><line x1="416.064" x2="389.299" y1="88.368" y2="365.285"/><line x1="314.54" x2="486.098" y1="169.632" y2="285.709"/><polyline points="319.311 43.86 309.816 294.183 463.234 431.425"/><line x1="280.575" x2="299.108" y1="177.112" y2="190.665"/><polyline points="280.769 165.531 278.468 303.214 295.419 319.511"/><line x1="198.731" x2="402.46" y1="283.281" y2="229.119"/></g><g id="layer3" fill="none" stroke="#000" style="display:inline"><line x1="283.081" x2="280.769" y1="27.194" y2="165.531"/><polyline points="295.419 319.511 456.496 474.369 510.262 131.701 283.081 27.194"/><line x1="299.108" x2="480.228" y1="190.665" y2="323.118"/><line x1="377.499" x2="355.174" y1="70.628" y2="376.958"/><line x1="460.137" x2="459.077" y1="115.052" y2="123.531"/><line x1="465.073" x2="464.345" y1="120.39" y2="126.065"/><polyline points="464.917 121.609 464.461 120.531 463.953 119.86 463.115 119.464 462.506 119.606 461.847 120.152 461.416 121.234 461.314 122.042 461.439 123.385 461.891 124.457 462.396 125.127 463.23 125.529 463.839 125.393 464.501 124.852"/><line x1="466.76" x2="467.711" y1="121.187" y2="127.684"/><polyline points="470.157 122.793 467.711 127.684 466.937 129.032 466.271 129.569 465.658 129.701 465.378 129.565"/><polyline points="471.256 125.92 474.69 127.556 474.801 126.736 474.624 125.779 474.391 125.232 473.872 124.549 473.011 124.143 472.384 124.282 471.704 124.83 471.256 125.92 471.148 126.737 471.27 128.096 471.731 129.184 472.247 129.865 473.104 130.277 473.731 130.145 474.414 129.603"/><line x1="477.044" x2="476.262" y1="126.049" y2="131.796"/><polyline points="476.708 128.517 477.166 127.422 477.858 126.873 478.495 126.735 479.368 127.148"/><polyline points="485.656 129.234 485.714 128.818 486.129 128.124 486.485 127.847 487.14 127.709 488.333 128.268 488.871 128.966 489.11 129.525 489.289 130.501 489.169 131.336 488.75 132.029 487.974 132.995 484.422 135.721 488.569 137.715"/></g><g id="layer6" fill="none" stroke="#faa" style="display:inline"><line x1="402.46" x2="404.411" y1="229.119" y2="208.935"/><line x1="402.46" x2="416.199" y1="229.119" y2="238.415"/><line x1="413.468" x2="415.099" y1="241.599" y2="246.693"/><line x1="415.493" x2="413.08" y1="242.984" y2="245.3"/><line x1="408.269" x2="408.992" y1="203.395" y2="207.926"/><polyline points="410.481 204.796 408.992 207.926 408.516 208.782 408.096 209.092 407.703 209.129 407.52 209.011"/><line x1="402.46" x2="384.042" y1="229.119" y2="234.016"/><line x1="387.075" x2="384.066" y1="237.774" y2="242.182"/><line x1="384.381" x2="387.075" y1="238.497" y2="237.774"/><line x1="384.066" x2="386.755" y1="242.182" y2="241.454"/><line x1="407.558" x2="408.297" y1="222.271" y2="226.577"/><line x1="409.961" x2="408.297" y1="221.64" y2="226.577"/><line x1="409.961" x2="410.69" y1="221.64" y2="225.942"/><line x1="412.357" x2="410.69" y1="221.011" y2="225.942"/><polygon points="415.641 220.148 415.01 220.635 414.346 221.452 413.945 222.519 413.876 223.178 414.072 224.086 414.599 224.586 415.159 224.756 416.05 224.52 416.678 224.035 417.341 223.221 417.742 222.157 417.812 221.499 417.62 220.59 417.095 220.087 416.534 219.913"/><line x1="420.099" x2="419.605" y1="218.977" y2="223.577"/><polyline points="419.887 220.952 420.289 219.887 420.952 219.073 421.58 218.588 422.467 218.355"/><line x1="424.197" x2="423.439" y1="215.661" y2="222.56"/><line x1="429.793" x2="429.012" y1="214.198" y2="221.081"/><polyline points="429.42 217.484 428.908 216.982 428.358 216.808 427.477 217.039 426.853 217.522 426.191 218.333 425.788 219.395 425.715 220.051 425.899 220.955 426.413 221.454 426.963 221.625 427.842 221.392 428.464 220.91 429.123 220.102"/><polygon points="437.7 214.354 437.081 214.833 436.423 215.64 436.017 216.697 435.94 217.35 436.115 218.251 436.619 218.748 437.159 218.92 438.028 218.69 438.645 218.211 439.301 217.408 439.707 216.355 439.785 215.703 439.613 214.8 439.112 214.3 438.571 214.125"/><line x1="442.044" x2="441.492" y1="213.213" y2="217.771"/><polyline points="441.807 215.169 442.214 214.116 442.871 213.312 443.487 212.834 444.352 212.607"/><polygon points="445.785 210.018 446.033 210.27 446.361 209.868 446.114 209.616"/><line x1="445.791" x2="445.229" y1="212.229" y2="216.779"/><polyline points="451.237 210.798 450.579 215.985 450.171 217.029 449.846 217.428 449.235 217.902 448.38 218.13 447.849 217.96"/><polyline points="451.114 211.773 450.625 211.274 450.094 211.099 449.235 211.324 448.621 211.8 447.967 212.602 447.558 213.652 447.477 214.302 447.642 215.2 448.133 215.696 448.664 215.868 449.521 215.641 450.132 215.166 450.784 214.368"/><polygon points="453.527 207.995 453.77 208.246 454.098 207.846 453.854 207.595"/><line x1="453.52" x2="452.938" y1="210.198" y2="214.734"/><line x1="455.796" x2="455.208" y1="209.601" y2="214.132"/><polyline points="455.628 210.898 456.606 209.701 457.216 209.228 458.067 209.004 458.591 209.18 458.746 210.077 458.32 213.306"/></g><g id="layer7" fill="none" stroke="#0a0" style="display:inline"><polygon points="310.321 253.615 309.928 251.816 308.695 250.671 306.901 250.446 304.957 251.196 303.312 252.751 302.347 254.751 302.284 256.734 303.133 258.243 304.696 258.935 306.614 258.656 308.45 257.473 309.786 255.655"/></g><g id="layer8" fill="none" stroke="#0a0" style="display:inline"><line x1="310.31" x2="310.151" y1="266.296" y2="270.514"/><polyline points="310.275 267.202 309.701 266.761 309.115 266.622 308.219 266.867 307.61 267.332 306.99 268.1 306.659 269.088 306.638 269.691 306.905 270.513 307.481 270.951 308.066 271.087 308.96 270.841 309.567 270.377 310.185 269.612"/><polygon points="312.478 263.611 312.764 263.833 313.073 263.45 312.787 263.228"/><line x1="312.693" x2="312.528" y1="265.646" y2="269.86"/><line x1="315.07" x2="314.898" y1="264.998" y2="269.208"/><polyline points="315.021 266.203 315.947 265.056 316.552 264.593 317.441 264.351 318.019 264.491 318.276 265.313 318.148 268.314"/><polyline points="318.276 265.313 319.202 264.168 319.805 263.706 320.69 263.464 321.267 263.604 321.521 264.425 321.386 267.423"/><polygon points="323.732 260.554 324.012 260.775 324.321 260.394 324.041 260.173"/><line x1="323.928" x2="323.733" y1="262.581" y2="266.777"/><line x1="326.276" x2="326.075" y1="261.94" y2="266.133"/><polyline points="326.219 263.141 327.14 262.001 327.74 261.541 328.618 261.301 329.187 261.442 329.434 262.261 329.284 265.25"/><polyline points="335.026 259.553 334.769 264.327 334.432 265.299 334.127 265.676 333.532 266.133 332.663 266.373 332.099 266.236"/><polyline points="334.978 260.451 334.43 260.011 333.864 259.87 332.992 260.108 332.394 260.567 331.781 261.324 331.444 262.301 331.413 262.899 331.658 263.715 332.208 264.152 332.773 264.29 333.643 264.051 334.238 263.594 334.849 262.839"/><line x1="306.594" x2="306.374" y1="279.288" y2="285.511"/><polyline points="306.563 280.18 307.178 279.42 307.782 278.957 308.671 278.708 309.253 278.84 309.822 279.268 310.084 280.075 310.062 280.668 309.733 281.639 309.12 282.397 308.519 282.859 307.632 283.109 307.05 282.98 306.479 282.555"/><polygon points="313.401 277.387 312.799 277.848 312.186 278.607 311.856 279.579 311.833 280.171 312.093 280.976 312.659 281.401 313.235 281.531 314.117 281.283 314.716 280.822 315.327 280.067 315.658 279.098 315.682 278.506 315.425 277.7 314.861 277.272 314.284 277.14"/><polygon points="317.607 274.158 317.888 274.374 318.195 273.995 317.914 273.779"/><line x1="317.812" x2="317.635" y1="276.154" y2="280.292"/><line x1="320.156" x2="319.973" y1="275.499" y2="279.634"/><polyline points="320.103 276.683 321.02 275.55 321.618 275.091 322.494 274.846 323.064 274.979 323.314 275.784 323.177 278.731"/><polyline points="326.09 271.798 325.847 276.818 326.095 277.619 326.66 277.75 327.239 277.587"/><line x1="325.117" x2="327.152" y1="274.113" y2="273.545"/></g><g id="layer11" fill="none" stroke="#000" style="display:inline"><polygon points="118.321 50.151 141.477 342.677 288.966 544.898 299.448 178.798"/><line x1="130.979" x2="293.523" y1="210.055" y2="385.733"/><line x1="191.98" x2="204.157" y1="102.468" y2="428.617"/><line x1="258.693" x2="258.666" y1="156.485" y2="165.739"/><line x1="262.995" x2="262.96" y1="162.721" y2="168.916"/><polyline points="262.987 164.053 262.535 162.832 262.081 162.056 261.399 161.559 260.942 161.671 260.485 162.224 260.254 163.383 260.25 164.264 260.471 165.751 260.92 166.965 261.37 167.739 262.05 168.243 262.507 168.138 262.967 167.592"/><line x1="264.37" x2="265.707" y1="163.723" y2="170.949"/><polyline points="267.142 165.743 265.707 170.949 265.235 172.375 264.77 172.916 264.31 173.015 264.082 172.844"/><polyline points="268.282 169.271 271.09 171.33 271.099 170.434 270.874 169.365 270.643 168.745 270.178 167.954 269.474 167.442 269.002 167.548 268.527 168.102 268.282 169.271 268.274 170.162 268.495 171.669 268.952 172.902 269.414 173.692 270.115 174.21 270.587 174.111 271.066 173.565"/><line x1="272.773" x2="272.699" y1="169.845" y2="176.123"/><polyline points="272.741 172.541 272.994 171.367 273.479 170.814 273.961 170.71 274.676 171.231"/><line x1="279.786" x2="279.632" y1="171.728" y2="181.253"/><line x1="279.786" x2="283.042" y1="171.728" y2="183.776"/><line x1="283.217" x2="283.042" y1="174.208" y2="183.776"/></g><g id="layer12" fill="none" stroke="#00f" style="display:inline"><line x1="11.339" x2="293.523" y1="333.101" y2="385.733"/><line x1="11.339" x2="130.979" y1="333.101" y2="210.055"/></g><g id="layer13" fill="none" stroke="#00f" style="display:inline"><line x1="11.339" x2="191.98" y1="333.101" y2="102.468"/><line x1="11.339" x2="204.157" y1="333.101" y2="428.617"/><polyline points="33.563 326.491 32.659 326.028 31.807 325.903 30.604 326.221 29.855 326.772 29.158 327.66 28.915 328.779 29.021 329.453 29.58 330.356 30.485 330.814 31.337 330.937 32.535 330.616 33.281 330.067 33.975 329.183"/><line x1="40.581" x2="41.278" y1="323.577" y2="328.279"/><polyline points="40.731 324.587 39.837 324.125 38.991 323.999 37.797 324.315 37.051 324.864 36.356 325.749 36.111 326.865 36.212 327.537 36.763 328.439 37.659 328.897 38.504 329.02 39.693 328.702 40.436 328.156 41.129 327.274"/><line x1="43.754" x2="44.439" y1="322.737" y2="327.434"/><polyline points="43.95 324.082 44.99 322.759 45.732 322.212 46.917 321.899 47.754 322.025 48.292 322.928 48.77 326.276"/><polyline points="48.292 322.928 49.33 321.607 50.07 321.063 51.25 320.75 52.083 320.877 52.616 321.779 53.083 325.123"/><polyline points="55.45 321.72 60.133 320.474 60.043 319.806 59.563 319.24 59.128 319.009 58.302 318.881 57.13 319.192 56.394 319.734 55.703 320.612 55.45 321.72 55.542 322.389 56.071 323.286 56.943 323.745 57.767 323.87 58.935 323.558 59.668 323.017 60.356 322.143"/><line x1="62.589" x2="63.206" y1="317.745" y2="322.416"/><polyline points="62.854 319.751 63.11 318.645 63.798 317.771 64.531 317.23 65.695 316.922"/><line x1="71.879" x2="72.464" y1="315.283" y2="319.941"/><polyline points="72.005 316.284 71.15 315.821 70.336 315.692 69.178 315.999 68.448 316.538 67.76 317.411 67.502 318.514 67.588 319.18 68.103 320.076 68.96 320.534 69.773 320.66 70.927 320.352 71.654 319.814 72.339 318.945"/></g></svg>