<svg xmlns="http://www.w3.org/2000/svg" xmlns:cc="http://creativecommons.org/ns" xmlns:ev="http://www.w3.org/2001/xml-events" xmlns:rdf="http://www.w3.org/1999/02/22-rdf-syntax-ns" xmlns:xlink="http://www.w3.org/1999/xlink" width="30cm" height="14cm" baseProfile="tiny" version="1.2" viewBox="0 0 1133.858 529.134"><metadata><rdf:RDF><cc:Work/></rdf:RDF></metadata><g id="layer9" fill="none" stroke="#00f" style="display:inline"><polygon points="274.918 17.681 271.635 194.458 439.784 307.841 462.63 129.732"/><line x1="277.806" x2="277.669" y1="19.436" y2="26.203"/><line x1="283.235" x2="283.13" y1="24.971" y2="29.48"/><polyline points="283.212 25.939 282.65 24.948 282.08 24.28 281.215 23.763 280.631 23.741 280.041 24.041 279.733 24.836 279.719 25.48 279.986 26.617 280.547 27.605 281.115 28.271 281.979 28.788 282.562 28.813 283.153 28.515"/><line x1="284.969" x2="286.593" y1="26.008" y2="31.556"/><polyline points="288.445 28.086 286.593 31.556 285.983 32.494 285.39 32.789 284.806 32.764 284.518 32.59"/><polyline points="289.845 30.891 293.332 32.979 293.351 32.334 293.078 31.514 292.796 31.016 292.223 30.345 291.35 29.823 290.76 29.799 290.161 30.097 289.845 30.891 289.828 31.535 290.092 32.675 290.654 33.666 291.225 34.336 292.096 34.858 292.686 34.885 293.286 34.59"/><line x1="295.429" x2="295.294" y1="32.262" y2="36.776"/><polyline points="295.371 34.2 295.692 33.406 296.295 33.109 296.889 33.135 297.767 33.66"/><polyline points="304.546 36.722 305.147 36.75 306.065 36.305 305.822 43.092"/><polygon points="240.707 38.725 240.707 215.886 409.055 332.528 428.694 154.36"/><line x1="243.596" x2="243.585" y1="40.533" y2="47.325"/><line x1="249.069" x2="249.048" y1="46.177" y2="50.701"/><polyline points="249.064 47.148 248.49 46.145 247.914 45.465 247.048 44.932 246.47 44.9 245.892 45.192 245.602 45.985 245.6 46.631 245.885 47.777 246.458 48.777 247.032 49.455 247.896 49.989 248.473 50.023 249.052 49.733"/><line x1="250.804" x2="252.512" y1="47.246" y2="52.842"/><polyline points="254.281 49.388 252.512 52.842 251.926 53.774 251.345 54.06 250.766 54.025 250.478 53.846"/><polyline points="255.717 52.226 259.206 54.379 259.213 53.731 258.928 52.904 258.64 52.4 258.061 51.717 257.187 51.179 256.603 51.145 256.016 51.434 255.717 52.226 255.712 52.873 255.994 54.021 256.569 55.025 257.146 55.707 258.017 56.245 258.601 56.282 259.19 55.995"/><line x1="261.268" x2="261.217" y1="53.693" y2="58.223"/><polyline points="261.246 55.637 261.549 54.846 262.141 54.557 262.729 54.593 263.607 55.134"/><polyline points="269.778 58.281 269.784 57.956 270.089 57.487 270.389 57.343 270.983 57.38 272.163 58.106 272.748 58.794 273.038 59.302 273.321 60.134 273.309 60.784 273.002 61.251 272.396 61.861 269.401 63.282 273.515 65.825"/><polygon points="205.437 60.421 208.916 237.913 377.405 357.955 393.62 179.815"/><line x1="208.326" x2="208.449" y1="62.284" y2="69.098"/><line x1="213.843" x2="213.911" y1="68.04" y2="72.58"/><polyline points="213.857 69.015 213.27 67.998 212.688 67.307 211.822 66.757 211.251 66.715 210.686 66.998 210.414 67.788 210.425 68.437 210.729 69.591 211.315 70.605 211.895 71.295 212.759 71.845 213.329 71.889 213.896 71.609"/><line x1="215.577" x2="217.374" y1="69.143" y2="74.787"/><polyline points="219.054 71.353 217.374 74.787 216.813 75.712 216.245 75.989 215.673 75.944 215.385 75.76"/><polyline points="220.529 74.225 224.017 76.445 224.011 75.795 223.714 74.96 223.419 74.45 222.834 73.754 221.96 73.199 221.382 73.155 220.808 73.435 220.529 74.225 220.536 74.874 220.837 76.031 221.424 77.048 222.008 77.742 222.879 78.297 223.457 78.344 224.033 78.066"/><line x1="226.042" x2="226.079" y1="75.793" y2="80.337"/><polyline points="226.058 77.743 226.341 76.954 226.92 76.675 227.502 76.721 228.38 77.279"/><polyline points="234.829 79.099 238.075 81.159 236.309 82.643 237.194 83.205 237.784 83.905 238.079 84.418 238.376 85.581 238.377 86.231 238.083 87.017 237.496 87.291 236.614 87.052 235.732 86.49 234.85 85.605 234.555 85.093 234.26 84.258"/><polygon points="52.72 154.36 72.359 332.528 240.707 467.777 240.707 290.788"/><line x1="55.593" x2="56.341" y1="156.474" y2="163.356"/><line x1="61.284" x2="61.769" y1="162.729" y2="167.312"/><polyline points="61.389 163.713 60.745 162.64 60.136 161.894 59.276 161.269 58.739 161.181 58.236 161.421 58.056 162.196 58.127 162.85 58.518 164.039 59.159 165.109 59.766 165.852 60.624 166.477 61.162 166.568 61.665 166.332"/><line x1="63.009" x2="65.212" y1="163.982" y2="169.821"/><polyline points="66.466 166.494 65.212 169.821 64.773 170.707 64.267 170.94 63.728 170.847 63.442 170.638"/><polyline points="68.11 169.511 71.58 172.036 71.514 171.38 71.159 170.513 70.836 169.975 70.224 169.225 69.355 168.594 68.81 168.502 68.299 168.738 68.11 169.511 68.177 170.166 68.566 171.357 69.209 172.431 69.82 173.179 70.686 173.81 71.231 173.904 71.744 173.672"/><line x1="73.414" x2="73.868" y1="171.544" y2="176.129"/><polyline points="73.609 173.512 73.802 172.739 74.318 172.506 74.867 172.6 75.74 173.234"/><line x1="85.471" x2="83.18" y1="178.158" y2="182.916"/><line x1="81.36" x2="85.471" y1="175.174" y2="178.158"/><polygon points="11.339 179.815 35.66 357.955 203.762 497.458 198.979 321.071"/><line x1="14.203" x2="15.133" y1="181.999" y2="188.891"/><line x1="19.938" x2="20.544" y1="188.391" y2="192.981"/><polyline points="20.068 189.377 19.409 188.289 18.793 187.529 17.936 186.883 17.409 186.781 16.926 187.007 16.773 187.776 16.86 188.432 17.277 189.629 17.934 190.714 18.547 191.472 19.402 192.118 19.93 192.222 20.414 191.999"/><line x1="21.656" x2="23.976" y1="189.687" y2="195.575"/><polyline points="25.102 192.285 23.976 195.575 23.573 196.448 23.087 196.668 22.558 196.562 22.272 196.346"/><polyline points="26.795 195.34 30.254 197.95 30.171 197.294 29.798 196.419 29.468 195.873 28.849 195.109 27.983 194.456 27.448 194.35 26.956 194.573 26.795 195.34 26.879 195.996 27.293 197.196 27.952 198.285 28.569 199.047 29.433 199.699 29.968 199.808 30.461 199.589"/><line x1="32.029" x2="32.605" y1="197.506" y2="202.097"/><polyline points="32.277 199.477 32.442 198.711 32.939 198.49 33.478 198.599 34.349 199.255"/><polygon points="41.352 202.438 40.515 202.107 40.302 202.546 40.382 203.205 40.753 204.083 41.377 204.852 42.586 206.062 43.503 207.053 44.166 208.151 44.537 209.028 44.654 210.012 44.439 210.446 44.186 210.553 43.349 210.218 42.182 209.336 41.269 208.348 40.938 207.8 40.567 206.925 40.448 205.942 40.66 205.506 41.164 205.289 42.001 205.621 43.132 206.175 43.678 206.287 43.892 205.85 43.814 205.191 43.442 204.311 42.524 203.32"/><line x1="271.236" x2="271.236" y1="499.213" y2="511.452"/><polyline points="271.236 500.961 272.401 499.796 273.567 499.213 275.315 499.213 276.481 499.796 277.647 500.961 278.23 502.71 278.23 503.875 277.647 505.624 276.481 506.79 275.315 507.373 273.567 507.373 272.401 506.79 271.236 505.624"/><line x1="282.31" x2="282.31" y1="499.213" y2="507.373"/><polyline points="282.31 502.71 282.892 500.961 284.058 499.796 285.224 499.213 286.972 499.213"/><polygon points="292.218 499.213 291.052 499.796 289.887 500.961 289.304 502.71 289.304 503.875 289.887 505.624 291.052 506.79 292.218 507.373 293.967 507.373 295.132 506.79 296.298 505.624 296.881 503.875 296.881 502.71 296.298 500.961 295.132 499.796 293.967 499.213"/><polyline points="301.544 495.133 301.544 505.041 302.127 506.79 303.292 507.373 304.458 507.373"/><line x1="299.795" x2="303.875" y1="499.213" y2="499.213"/><line x1="314.366" x2="314.366" y1="499.213" y2="507.373"/><polyline points="314.366 500.961 313.201 499.796 312.035 499.213 310.286 499.213 309.121 499.796 307.955 500.961 307.372 502.71 307.372 503.875 307.955 505.624 309.121 506.79 310.286 507.373 312.035 507.373 313.201 506.79 314.366 505.624"/><polyline points="319.612 495.133 319.612 505.041 320.195 506.79 321.361 507.373 322.526 507.373"/><line x1="317.863" x2="321.943" y1="499.213" y2="499.213"/><polyline points="325.44 502.71 332.435 502.71 332.435 501.544 331.852 500.378 331.269 499.796 330.103 499.213 328.355 499.213 327.189 499.796 326.023 500.961 325.44 502.71 325.44 503.875 326.023 505.624 327.189 506.79 328.355 507.373 330.103 507.373 331.269 506.79 332.435 505.624"/><line x1="345.84" x2="356.331" y1="502.127" y2="502.127"/><line x1="360.994" x2="360.994" y1="495.133" y2="507.373"/><polyline points="380.228 495.133 374.4 503.293 383.142 503.293"/><line x1="380.228" x2="380.228" y1="495.133" y2="507.373"/><polyline points="387.222 505.041 386.639 505.624 386.057 505.041 386.639 504.458 387.222 505.041 387.222 506.207 386.057 507.373"/><polyline points="397.714 495.133 391.885 495.133 391.302 500.378 391.885 499.796 393.634 499.213 395.382 499.213 397.131 499.796 398.296 500.961 398.879 502.71 398.879 503.875 398.296 505.624 397.131 506.79 395.382 507.373 393.634 507.373 391.885 506.79 391.302 506.207 390.719 505.041"/><polyline points="403.542 505.041 402.959 505.624 402.376 505.041 402.959 504.458 403.542 505.041 403.542 506.207 402.376 507.373"/><polyline points="414.616 496.881 414.033 495.716 412.285 495.133 411.119 495.133 409.37 495.716 408.205 497.464 407.622 500.378 407.622 503.293 408.205 505.624 409.37 506.79 411.119 507.373 411.702 507.373 413.45 506.79 414.616 505.624 415.199 503.875 415.199 503.293 414.616 501.544 413.45 500.378 411.702 499.796 411.119 499.796 409.37 500.378 408.205 501.544 407.622 503.293"/><line x1="427.439" x2="430.936" y1="499.213" y2="507.373"/><polyline points="434.433 499.213 430.936 507.373 429.77 509.704 428.604 510.87 427.439 511.452 426.856 511.452"/><polyline points="447.256 498.047 447.256 497.464 447.839 496.298 448.421 495.716 449.587 495.133 451.918 495.133 453.084 495.716 453.667 496.298 454.25 497.464 454.25 498.63 453.667 499.796 452.501 501.544 446.673 507.373 454.833 507.373"/><polygon points="461.827 495.133 460.078 495.716 458.913 497.464 458.33 500.378 458.33 502.127 458.913 505.041 460.078 506.79 461.827 507.373 462.993 507.373 464.741 506.79 465.907 505.041 466.49 502.127 466.49 500.378 465.907 497.464 464.741 495.716 462.993 495.133"/><polygon points="838.858 17.681 835.575 194.458 1003.724 307.841 1026.57 129.732"/><line x1="841.746" x2="841.609" y1="19.436" y2="26.203"/><line x1="847.175" x2="847.071" y1="24.971" y2="29.48"/><polyline points="847.153 25.939 846.59 24.948 846.02 24.28 845.155 23.763 844.571 23.741 843.981 24.041 843.673 24.836 843.659 25.48 843.926 26.617 844.487 27.605 845.056 28.271 845.919 28.788 846.502 28.813 847.093 28.515"/><line x1="848.909" x2="850.533" y1="26.008" y2="31.556"/><polyline points="852.385 28.086 850.533 31.556 849.923 32.494 849.331 32.789 848.746 32.764 848.458 32.59"/><polyline points="853.785 30.891 857.272 32.979 857.291 32.334 857.018 31.514 856.736 31.016 856.163 30.345 855.29 29.823 854.7 29.799 854.101 30.097 853.785 30.891 853.768 31.535 854.032 32.675 854.594 33.666 855.165 34.336 856.036 34.858 856.626 34.885 857.226 34.59"/><line x1="859.369" x2="859.234" y1="32.262" y2="36.776"/><polyline points="859.311 34.2 859.632 33.406 860.235 33.109 860.83 33.135 861.707 33.66"/><polyline points="868.486 36.722 869.087 36.75 870.005 36.305 869.762 43.092"/><polygon points="804.647 38.725 804.647 215.886 972.995 332.528 992.634 154.36"/><line x1="807.536" x2="807.525" y1="40.533" y2="47.325"/><line x1="813.009" x2="812.988" y1="46.177" y2="50.701"/><polyline points="813.004 47.148 812.43 46.145 811.854 45.465 810.988 44.932 810.41 44.9 809.832 45.192 809.542 45.985 809.54 46.631 809.825 47.777 810.398 48.777 810.972 49.455 811.836 49.989 812.413 50.023 812.992 49.733"/><line x1="814.744" x2="816.452" y1="47.246" y2="52.842"/><polyline points="818.221 49.388 816.452 52.842 815.866 53.774 815.284 54.06 814.706 54.025 814.418 53.846"/><polyline points="819.657 52.226 823.146 54.379 823.153 53.731 822.868 52.904 822.58 52.4 822.001 51.717 821.127 51.179 820.543 51.145 819.956 51.434 819.657 52.226 819.652 52.873 819.934 54.021 820.509 55.025 821.086 55.707 821.957 56.245 822.541 56.282 823.13 55.995"/><line x1="825.208" x2="825.157" y1="53.693" y2="58.223"/><polyline points="825.186 55.637 825.489 54.846 826.081 54.557 826.669 54.593 827.547 55.134"/><polyline points="833.718 58.281 833.724 57.956 834.029 57.487 834.328 57.343 834.923 57.38 836.103 58.106 836.688 58.794 836.977 59.302 837.261 60.134 837.249 60.784 836.942 61.251 836.336 61.861 833.341 63.282 837.456 65.825"/><polygon points="769.377 60.421 772.856 237.913 941.345 357.955 957.559 179.815"/><line x1="772.266" x2="772.389" y1="62.284" y2="69.098"/><line x1="777.783" x2="777.851" y1="68.04" y2="72.58"/><polyline points="777.797 69.015 777.21 67.998 776.628 67.307 775.762 66.757 775.191 66.715 774.626 66.998 774.354 67.788 774.365 68.437 774.669 69.591 775.255 70.605 775.835 71.295 776.699 71.845 777.269 71.889 777.836 71.609"/><line x1="779.517" x2="781.314" y1="69.143" y2="74.787"/><polyline points="782.995 71.353 781.314 74.787 780.753 75.712 780.185 75.989 779.613 75.944 779.324 75.76"/><polyline points="784.469 74.225 787.957 76.445 787.951 75.795 787.654 74.96 787.36 74.45 786.774 73.754 785.9 73.199 785.322 73.155 784.748 73.435 784.469 74.225 784.476 74.874 784.777 76.031 785.364 77.048 785.948 77.742 786.819 78.297 787.397 78.344 787.973 78.066"/><line x1="789.981" x2="790.019" y1="75.793" y2="80.337"/><polyline points="789.997 77.743 790.281 76.954 790.86 76.675 791.443 76.721 792.32 77.279"/><polyline points="798.769 79.099 802.015 81.159 800.25 82.643 801.134 83.205 801.724 83.905 802.019 84.418 802.316 85.581 802.317 86.231 802.023 87.017 801.436 87.291 800.554 87.052 799.672 86.49 798.79 85.605 798.495 85.093 798.2 84.258"/><polygon points="616.66 154.36 636.299 332.528 804.647 467.777 804.647 290.788"/><line x1="619.533" x2="620.281" y1="156.474" y2="163.356"/><line x1="625.225" x2="625.709" y1="162.729" y2="167.312"/><polyline points="625.328 163.713 624.685 162.64 624.077 161.894 623.216 161.269 622.679 161.181 622.176 161.421 621.996 162.196 622.067 162.85 622.458 164.039 623.099 165.109 623.706 165.852 624.564 166.477 625.102 166.568 625.605 166.332"/><line x1="626.949" x2="629.152" y1="163.982" y2="169.821"/><polyline points="630.406 166.494 629.152 169.821 628.713 170.707 628.207 170.94 627.668 170.847 627.382 170.638"/><polyline points="632.05 169.511 635.52 172.036 635.454 171.38 635.098 170.513 634.776 169.975 634.163 169.225 633.295 168.594 632.75 168.502 632.239 168.738 632.05 169.511 632.117 170.166 632.506 171.357 633.149 172.431 633.76 173.179 634.626 173.81 635.171 173.904 635.684 173.672"/><line x1="637.354" x2="637.808" y1="171.544" y2="176.129"/><polyline points="637.549 173.512 637.742 172.739 638.258 172.506 638.807 172.6 639.68 173.234"/><line x1="649.411" x2="647.12" y1="178.158" y2="182.916"/><line x1="645.3" x2="649.411" y1="175.174" y2="178.158"/><polygon points="575.279 179.815 599.6 357.955 767.702 497.458 762.919 321.071"/><line x1="578.143" x2="579.073" y1="181.999" y2="188.891"/><line x1="583.878" x2="584.484" y1="188.391" y2="192.981"/><polyline points="584.008 189.377 583.349 188.289 582.733 187.529 581.876 186.883 581.349 186.781 580.866 187.007 580.713 187.776 580.8 188.432 581.217 189.629 581.874 190.714 582.487 191.472 583.342 192.118 583.87 192.222 584.354 191.999"/><line x1="585.596" x2="587.916" y1="189.687" y2="195.575"/><polyline points="589.042 192.285 587.916 195.575 587.514 196.448 587.027 196.668 586.498 196.562 586.212 196.346"/><polyline points="590.735 195.34 594.194 197.95 594.111 197.294 593.739 196.419 593.408 195.873 592.789 195.109 591.923 194.456 591.388 194.35 590.896 194.573 590.735 195.34 590.819 195.996 591.233 197.196 591.892 198.285 592.509 199.047 593.373 199.699 593.908 199.808 594.401 199.589"/><line x1="595.969" x2="596.546" y1="197.506" y2="202.097"/><polyline points="596.217 199.477 596.383 198.711 596.88 198.49 597.418 198.599 598.288 199.255"/><polygon points="605.293 202.438 604.455 202.107 604.242 202.546 604.322 203.205 604.693 204.083 605.317 204.852 606.526 206.062 607.443 207.053 608.106 208.151 608.477 209.028 608.594 210.012 608.379 210.446 608.126 210.553 607.289 210.218 606.122 209.336 605.208 208.348 604.878 207.8 604.507 206.925 604.388 205.942 604.6 205.506 605.104 205.289 605.941 205.621 607.072 206.175 607.618 206.287 607.832 205.85 607.754 205.191 607.382 204.311 606.464 203.32"/><line x1="835.176" x2="835.176" y1="499.213" y2="511.452"/><polyline points="835.176 500.961 836.341 499.796 837.507 499.213 839.255 499.213 840.421 499.796 841.587 500.961 842.17 502.71 842.17 503.875 841.587 505.624 840.421 506.79 839.255 507.373 837.507 507.373 836.341 506.79 835.176 505.624"/><line x1="846.25" x2="846.25" y1="499.213" y2="507.373"/><polyline points="846.25 502.71 846.832 500.961 847.998 499.796 849.164 499.213 850.912 499.213"/><polygon points="856.158 499.213 854.992 499.796 853.827 500.961 853.244 502.71 853.244 503.875 853.827 505.624 854.992 506.79 856.158 507.373 857.907 507.373 859.072 506.79 860.238 505.624 860.821 503.875 860.821 502.71 860.238 500.961 859.072 499.796 857.907 499.213"/><polyline points="865.484 495.133 865.484 505.041 866.067 506.79 867.232 507.373 868.398 507.373"/><line x1="863.735" x2="867.815" y1="499.213" y2="499.213"/><line x1="878.306" x2="878.306" y1="499.213" y2="507.373"/><polyline points="878.306 500.961 877.141 499.796 875.975 499.213 874.226 499.213 873.061 499.796 871.895 500.961 871.312 502.71 871.312 503.875 871.895 505.624 873.061 506.79 874.226 507.373 875.975 507.373 877.141 506.79 878.306 505.624"/><polyline points="883.552 495.133 883.552 505.041 884.135 506.79 885.301 507.373 886.466 507.373"/><line x1="881.803" x2="885.883" y1="499.213" y2="499.213"/><polyline points="889.38 502.71 896.375 502.71 896.375 501.544 895.792 500.378 895.209 499.796 894.043 499.213 892.295 499.213 891.129 499.796 889.963 500.961 889.38 502.71 889.38 503.875 889.963 505.624 891.129 506.79 892.295 507.373 894.043 507.373 895.209 506.79 896.375 505.624"/><line x1="909.78" x2="920.271" y1="502.127" y2="502.127"/><line x1="924.934" x2="924.934" y1="495.133" y2="507.373"/><polyline points="944.168 495.133 938.34 503.293 947.082 503.293"/><line x1="944.168" x2="944.168" y1="495.133" y2="507.373"/><polyline points="951.162 505.041 950.58 505.624 949.997 505.041 950.58 504.458 951.162 505.041 951.162 506.207 949.997 507.373"/><polyline points="961.654 495.133 955.825 495.133 955.242 500.378 955.825 499.796 957.574 499.213 959.322 499.213 961.071 499.796 962.236 500.961 962.819 502.71 962.819 503.875 962.236 505.624 961.071 506.79 959.322 507.373 957.574 507.373 955.825 506.79 955.242 506.207 954.659 505.041"/><polyline points="967.482 505.041 966.899 505.624 966.316 505.041 966.899 504.458 967.482 505.041 967.482 506.207 966.316 507.373"/><polyline points="978.556 496.881 977.973 495.716 976.225 495.133 975.059 495.133 973.311 495.716 972.145 497.464 971.562 500.378 971.562 503.293 972.145 505.624 973.311 506.79 975.059 507.373 975.642 507.373 977.39 506.79 978.556 505.624 979.139 503.875 979.139 503.293 978.556 501.544 977.39 500.378 975.642 499.796 975.059 499.796 973.311 500.378 972.145 501.544 971.562 503.293"/><line x1="992.544" x2="1003.036" y1="502.127" y2="502.127"/><polygon points="1010.03 499.213 1008.864 499.796 1007.699 500.961 1007.116 502.71 1007.116 503.875 1007.699 505.624 1008.864 506.79 1010.03 507.373 1011.779 507.373 1012.944 506.79 1014.11 505.624 1014.693 503.875 1014.693 502.71 1014.11 500.961 1012.944 499.796 1011.779 499.213"/><line x1="1027.515" x2="1029.847" y1="499.213" y2="507.373"/><line x1="1032.178" x2="1029.847" y1="499.213" y2="507.373"/><line x1="1032.178" x2="1034.51" y1="499.213" y2="507.373"/><line x1="1036.841" x2="1034.51" y1="499.213" y2="507.373"/><polygon points="1043.252 499.213 1042.087 499.796 1040.921 500.961 1040.338 502.71 1040.338 503.875 1040.921 505.624 1042.087 506.79 1043.252 507.373 1045.001 507.373 1046.167 506.79 1047.332 505.624 1047.915 503.875 1047.915 502.71 1047.332 500.961 1046.167 499.796 1045.001 499.213"/><line x1="1051.995" x2="1051.995" y1="499.213" y2="507.373"/><polyline points="1051.995 502.71 1052.578 500.961 1053.744 499.796 1054.909 499.213 1056.658 499.213"/><line x1="1059.572" x2="1059.572" y1="495.133" y2="507.373"/><line x1="1070.646" x2="1070.646" y1="495.133" y2="507.373"/><polyline points="1070.646 500.961 1069.48 499.796 1068.315 499.213 1066.566 499.213 1065.401 499.796 1064.235 500.961 1063.652 502.71 1063.652 503.875 1064.235 505.624 1065.401 506.79 1066.566 507.373 1068.315 507.373 1069.48 506.79 1070.646 505.624"/><line x1="1083.469" x2="1086.966" y1="499.213" y2="507.373"/><polyline points="1090.463 499.213 1086.966 507.373 1085.8 509.704 1084.635 510.87 1083.469 511.452 1082.886 511.452"/><polyline points="1103.286 498.047 1103.286 497.464 1103.869 496.298 1104.451 495.716 1105.617 495.133 1107.948 495.133 1109.114 495.716 1109.697 496.298 1110.28 497.464 1110.28 498.63 1109.697 499.796 1108.531 501.544 1102.703 507.373 1110.863 507.373"/><polygon points="1117.857 495.133 1116.108 495.716 1114.943 497.464 1114.36 500.378 1114.36 502.127 1114.943 505.041 1116.108 506.79 1117.857 507.373 1119.023 507.373 1120.771 506.79 1121.937 505.041 1122.52 502.127 1122.52 500.378 1121.937 497.464 1120.771 495.716 1119.023 495.133"/></g><g id="layer10" fill="none" stroke="#080" style="display:inline"><polygon points="142.272 106.027 152.261 284 367.288 357.805 382.301 179.664"/><line x1="146.074" x2="146.444" y1="107.224" y2="114.076"/><line x1="153.392" x2="153.62" y1="111.724" y2="116.287"/><polyline points="153.441 112.704 152.65 111.818 151.876 111.258 150.739 110.909 149.998 111.003 149.275 111.423 148.948 112.286 148.983 112.938 149.412 114.031 150.201 114.914 150.974 115.472 152.107 115.821 152.847 115.729 153.571 115.312"/><line x1="155.668" x2="158.163" y1="112.424" y2="117.688"/><polyline points="160.228 113.825 158.163 117.688 157.468 118.754 156.742 119.169 156.001 119.26 155.623 119.143"/><polyline points="162.218 116.368 166.785 117.773 166.757 117.121 166.348 116.35 165.953 115.906 165.177 115.345 164.034 114.994 163.287 115.087 162.554 115.506 162.218 116.368 162.248 117.02 162.671 118.115 163.46 118.999 164.234 119.559 165.374 119.91 166.121 119.819 166.854 119.403"/><line x1="169.372" x2="169.559" y1="116.635" y2="121.2"/><polyline points="169.452 118.594 169.794 117.732 170.531 117.313 171.282 117.221 172.428 117.573"/><polyline points="183.848 118.813 180.165 122.213 185.916 123.982"/><line x1="183.848" x2="184.072" y1="118.813" y2="125.673"/><polygon points="103.683 129.873 117.791 307.983 334.523 384.002 345.84 205.982"/><line x1="107.517" x2="108.046" y1="131.108" y2="137.976"/><line x1="114.946" x2="115.28" y1="135.687" y2="140.26"/><polyline points="115.018 136.669 114.206 135.773 113.418 135.205 112.272 134.845 111.532 134.932 110.819 135.346 110.511 136.207 110.561 136.86 111.015 137.959 111.826 138.852 112.612 139.418 113.755 139.779 114.493 139.694 115.209 139.282"/><line x1="117.241" x2="119.86" y1="136.409" y2="141.706"/><polyline points="121.838 137.856 119.86 141.706 119.188 142.767 118.471 143.177 117.732 143.261 117.351 143.14"/><polyline points="123.889 140.423 128.493 141.874 128.45 141.22 128.023 140.444 127.617 139.996 126.827 139.426 125.675 139.064 124.929 139.149 124.206 139.563 123.889 140.423 123.933 141.077 124.383 142.177 125.193 143.071 125.981 143.638 127.13 144.001 127.875 143.917 128.599 143.507"/><line x1="131.057" x2="131.349" y1="140.758" y2="145.333"/><polyline points="131.182 142.722 131.504 141.862 132.233 141.449 132.982 141.364 134.138 141.728"/><polyline points="146.376 143.322 142.5 142.104 142.283 144.935 142.65 144.729 143.792 144.767 144.953 145.132 146.133 145.826 146.944 146.725 147.384 147.828 147.42 148.482 147.087 149.34 146.35 149.749 145.209 149.709 144.051 149.344 142.875 148.652 142.47 148.204 142.047 147.429"/><polygon points="63.821 154.506 82.302 332.674 300.746 411.009 308.113 233.214"/><line x1="67.686" x2="68.385" y1="155.781" y2="162.663"/><line x1="75.231" x2="75.677" y1="160.44" y2="165.023"/><polyline points="75.326 161.424 74.492 160.52 73.69 159.943 72.534 159.57 71.797 159.65 71.093 160.058 70.807 160.916 70.873 161.571 71.355 162.676 72.188 163.577 72.988 164.152 74.14 164.525 74.876 164.447 75.581 164.043"/><line x1="77.544" x2="80.294" y1="161.187" y2="166.517"/><polyline points="82.177 162.682 80.294 166.517 79.648 167.572 78.941 167.975 78.203 168.051 77.819 167.927"/><polyline points="84.292 165.273 88.933 166.772 88.875 166.117 88.428 165.336 88.012 164.883 87.207 164.305 86.046 163.93 85.302 164.008 84.588 164.415 84.292 165.273 84.353 165.928 84.829 167.034 85.662 167.937 86.464 168.513 87.622 168.888 88.366 168.812 89.08 168.408"/><line x1="91.472" x2="91.876" y1="165.681" y2="170.264"/><polyline points="91.645 167.648 91.946 166.79 92.665 166.385 93.413 166.307 94.578 166.683"/><polyline points="107.331 169.517 106.888 168.733 105.689 168.025 104.907 167.774 103.761 167.725 103.061 168.46 102.805 169.977 102.939 171.616 103.434 173.05 104.266 173.956 105.46 174.66 105.849 174.786 106.991 174.838 107.719 174.436 108.031 173.581 108.006 173.253 107.538 172.144 106.705 171.236 105.508 170.53 105.118 170.404 103.974 170.354 103.248 170.759 102.939 171.616"/><polygon points="749.4 126.13 755.075 304.223 974.627 379.893 995.077 201.848"/><line x1="753.288" x2="753.492" y1="127.359" y2="134.225"/><line x1="760.715" x2="760.831" y1="131.925" y2="136.497"/><polyline points="760.74 132.907 759.948 132.013 759.164 131.446 758.001 131.087 757.236 131.175 756.479 131.591 756.12 132.452 756.138 133.105 756.552 134.203 757.343 135.094 758.125 135.659 759.284 136.018 760.049 135.932 760.806 135.519"/><line x1="763.043" x2="765.478" y1="132.644" y2="137.936"/><polyline points="767.707 134.083 765.478 137.936 764.733 138.998 763.974 139.408 763.208 139.493 762.822 139.373"/><polyline points="769.693 136.647 774.364 138.09 774.352 137.437 773.951 136.662 773.555 136.214 772.769 135.646 771.6 135.285 770.828 135.372 770.062 135.786 769.693 136.647 769.706 137.3 770.114 138.399 770.904 139.292 771.688 139.858 772.854 140.22 773.626 140.134 774.393 139.723"/><line x1="777.061" x2="777.135" y1="136.971" y2="141.545"/><polyline points="777.093 138.934 777.467 138.073 778.238 137.66 779.015 137.574 780.188 137.936"/><polyline points="791.929 139.268 788.043 142.644 793.926 144.463"/><line x1="791.929" x2="791.98" y1="139.268" y2="146.141"/><polygon points="725.709 157.689 733.972 335.858 956.905 414.495 975.631 236.736"/><line x1="729.661" x2="729.964" y1="158.97" y2="165.852"/><line x1="737.24" x2="737.422" y1="163.639" y2="168.222"/><polyline points="737.279 164.623 736.465 163.717 735.664 163.14 734.482 162.765 733.709 162.844 732.949 163.251 732.598 164.109 732.626 164.764 733.06 165.869 733.873 166.772 734.672 167.348 735.85 167.723 736.623 167.646 737.383 167.242"/><line x1="739.607" x2="742.145" y1="164.388" y2="169.722"/><polyline points="744.346 165.89 742.145 169.722 741.406 170.777 740.644 171.179 739.87 171.254 739.477 171.129"/><polyline points="746.392 168.484 751.139 169.99 751.118 169.334 750.701 168.553 750.295 168.099 749.491 167.52 748.303 167.143 747.522 167.221 746.753 167.626 746.392 168.484 746.414 169.139 746.843 170.245 747.655 171.15 748.456 171.727 749.641 172.104 750.421 172.028 751.191 171.626"/><line x1="753.854" x2="753.991" y1="168.901" y2="173.486"/><polyline points="753.913 170.869 754.28 170.012 755.054 169.607 755.839 169.53 757.031 169.908"/><polyline points="769.735 171.645 765.738 170.381 765.407 173.213 765.798 173.011 766.988 173.062 768.185 173.441 769.39 174.149 770.203 175.059 770.622 176.169 770.635 176.824 770.256 177.679 769.472 178.08 768.284 178.027 767.09 177.648 765.889 176.942 765.483 176.488 765.07 175.708"/><polygon points="700.992 190.615 712.052 368.717 938.465 450.498 955.299 273.215"/><line x1="705.009" x2="705.421" y1="191.95" y2="198.845"/><line x1="712.748" x2="713.002" y1="196.728" y2="201.318"/><polyline points="712.803 197.714 711.965 196.796 711.146 196.206 709.945 195.816 709.163 195.884 708.401 196.281 708.059 197.136 708.097 197.791 708.553 198.904 709.389 199.819 710.206 200.406 711.404 200.797 712.184 200.731 712.947 200.337"/><line x1="715.153" x2="717.802" y1="197.51" y2="202.884"/><polyline points="719.971 199.077 717.802 202.884 717.07 203.93 716.305 204.322 715.524 204.387 715.124 204.256"/><polyline points="722.08 201.702 726.906 203.274 726.875 202.617 726.442 201.829 726.023 201.369 725.202 200.779 723.994 200.386 723.205 200.453 722.433 200.848 722.08 201.702 722.113 202.358 722.563 203.472 723.398 204.388 724.217 204.977 725.422 205.37 726.21 205.305 726.983 204.913"/><line x1="729.636" x2="729.844" y1="202.221" y2="206.813"/><polyline points="729.726 204.192 730.085 203.339 730.862 202.944 731.655 202.878 732.867 203.272"/><polyline points="746.192 206.304 745.761 205.513 744.53 204.787 743.716 204.523 742.51 204.457 741.735 205.181 741.392 206.695 741.455 208.336 741.91 209.779 742.744 210.698 743.971 211.421 744.375 211.553 745.578 211.622 746.366 211.232 746.737 210.381 746.725 210.053 746.284 208.936 745.449 208.015 744.219 207.29 743.813 207.158 742.609 207.09 741.823 207.483 741.455 208.336"/></g></svg>