<?xml version="1.0" encoding="utf-8" ?>
<svg xmlns="http://www.w3.org/2000/svg" xmlns:cc="http://creativecommons.org/ns" xmlns:dc="http://purl.org/dc/elements/1.1/" xmlns:ev="http://www.w3.org/2001/xml-events" xmlns:inkscape="http://www.inkscape.org/namespaces/inkscape" xmlns:rdf="http://www.w3.org/1999/02/22-rdf-syntax-ns" xmlns:sodipodi="http://sodipodi.sourceforge.net/DTD/sodipodi-0.dtd" xmlns:xlink="http://www.w3.org/1999/xlink" baseProfile="tiny" height="10.0cm" version="1.2" viewBox="0 0 1133.8582677165352 377.95275590551176" width="30.0cm">
  <metadata>
    <rdf:RDF>
      <cc:Work>
        <dc:format>image/svg+xml</dc:format>
        <dc:source>vpype -I figures/fig_pan.vpy write figures/fig_pan.svg
</dc:source>
        <dc:date>2022-03-31T12:15:53.504498</dc:date>
      </cc:Work>
    </rdf:RDF>
  </metadata>
  <defs/>
  <g fill="none" id="layer6" inkscape:groupmode="layer" inkscape:label="6" stroke="#0000ff" style="display:inline">
    <polygon points="11.3386,70.7063 11.3386,307.2464 144.0663,249.8175 144.0663,128.1352"/>
    <line x1="14.8958" x2="14.8958" y1="74.135" y2="78.9994"/>
    <line x1="19.5521" x2="19.5521" y1="77.7106" y2="80.8976"/>
    <polyline points="19.5521,78.3936 19.0696,77.7362 18.5853,77.3049 17.8555,76.9986 17.3667,77.023 16.8761,77.2774 16.6302,77.8653 16.6302,78.3256 16.8761,79.1169 17.3667,79.7772 17.8555,80.2059 18.5853,80.5034 19.0696,80.4728 19.5521,80.2147"/>
    <line x1="20.9894" x2="22.4111" y1="78.3138" y2="82.063"/>
    <polyline points="23.8176,79.5007 22.4111,82.063 21.9389,82.7729 21.465,83.0333 20.9894,83.0683 20.7509,82.9725"/>
    <polyline points="24.9781,81.3256 27.7219,82.463 27.7219,82.0217 27.4954,81.4858 27.2686,81.17 26.8138,80.7581 26.1285,80.4705 25.6696,80.5003 25.209,80.753 24.9781,81.3256 24.9781,81.7716 25.209,82.5353 25.6696,83.169 26.1285,83.5784 26.8138,83.8578 27.2686,83.8222 27.7219,83.5661"/>
    <line x1="29.2958" x2="29.2958" y1="81.7997" y2="84.8696"/>
    <polyline points="29.2958,83.1154 29.519,82.5507 29.9644,82.299 30.4082,82.2666 31.0711,82.5448"/>
    <polyline points="36.0402,83.9897 36.4632,83.9552 37.0948,83.5847 37.0948,88.0488"/>
    <polygon points="21.3608,60.5331 21.3608,317.4196 154.6529,252.4018 154.6529,125.551"/>
    <line x1="25.0781" x2="25.0781" y1="64.3962" y2="69.6731"/>
    <line x1="29.9316" x2="29.9316" y1="68.4514" y2="71.9036"/>
    <polyline points="29.9316,69.1912 29.4293,68.4609 28.925,67.9752 28.1648,67.6155 27.6554,67.6233 27.1441,67.8805 26.8876,68.5085 26.8876,69.0075 27.1441,69.8747 27.6554,70.6088 28.1648,71.0916 28.925,71.441 29.4293,71.4257 29.9316,71.1639"/>
    <line x1="31.4268" x2="32.9046" y1="69.1588" y2="73.2699"/>
    <polyline points="34.3652,70.549 32.9046,73.2699 32.4139,74.0211 31.9213,74.2859 31.4268,74.3067 31.1788,74.1944"/>
    <polyline points="35.5695,72.5655 38.413,73.8943 38.413,73.4176 38.1785,72.8304 37.9436,72.4808 37.4724,72.0191 36.7622,71.6831 36.2865,71.6984 35.8089,71.9548 35.5695,72.5655 35.5695,73.0478 35.8089,73.8819 36.2865,74.5836 36.7622,75.0427 37.4724,75.3691 37.9436,75.3468 38.413,75.0862"/>
    <line x1="40.042" x2="40.042" y1="73.2348" y2="76.5499"/>
    <polyline points="40.042,74.6556 40.2729,74.0538 40.7335,73.7981 41.1924,73.779 41.8774,74.1032"/>
    <polyline points="46.5671,75.8609 46.5671,75.6304 46.7859,75.274 47.0043,75.1484 47.4398,75.1274 48.3063,75.5431 48.7371,75.9783 48.9519,76.3093 49.1664,76.8678 49.1664,77.3237 48.9519,77.6784 48.5219,78.1611 46.3478,79.4479 49.3804,80.8415"/>
    <polygon points="33.2694,48.4451 33.2694,329.5077 166.1787,255.2153 166.1787,122.7375"/>
    <line x1="37.1475" x2="37.1475" y1="52.8526" y2="58.6185"/>
    <line x1="42.1954" x2="42.1954" y1="57.5113" y2="61.2768"/>
    <polyline points="42.1954,58.3182 41.6738,57.498 41.1499,56.9445 40.3598,56.5161 39.8302,56.5006 39.2983,56.7572 39.0315,57.4308 39.0315,57.9758 39.2983,58.9346 39.8302,59.7597 40.3598,60.3101 41.1499,60.7262 41.6738,60.7326 42.1954,60.4699"/>
    <line x1="43.747" x2="45.2788" y1="58.3525" y2="62.9007"/>
    <polyline points="46.7913,60.003 45.2788,62.9007 44.7704,63.6973 44.2598,63.9641 43.747,63.9647 43.4898,63.8312"/>
    <polyline points="48.0372,62.2534 50.9748,63.8265 50.9748,63.308 50.7328,62.6589 50.4902,62.2682 50.0037,61.7447 49.2701,61.3469 48.7785,61.3421 48.2848,61.5994 48.0372,62.2534 48.0372,62.7784 48.2848,63.6971 48.7785,64.482 49.2701,65.0026 50.0037,65.3889 50.4902,65.3854 50.9748,65.1226"/>
    <line x1="52.6549" x2="52.6549" y1="63.182" y2="66.7851"/>
    <polyline points="52.6549,64.7262 52.8929,64.0824 53.3676,63.825 53.8403,63.8247 54.5457,64.2071"/>
    <polyline points="59.59,65.1942 62.0302,66.5361 60.7058,67.7953 61.3699,68.1546 61.8105,68.6402 62.0302,69.0058 62.2494,69.8641 62.2494,70.3575 62.0302,70.9815 61.5904,71.2434 60.9276,71.1417 60.2608,70.7906 59.59,70.1877 59.3655,69.8193 59.1406,69.2"/>
    <polygon points="47.6523,33.8454 47.6523,344.1074 178.7745,258.29 178.7745,119.6628"/>
    <line x1="51.682" x2="51.682" y1="38.9512" y2="45.3059"/>
    <line x1="56.9078" x2="56.9078" y1="44.3868" y2="48.5283"/>
    <polyline points="56.9078,45.2743 56.3688,44.3412 55.8272,43.7009 55.01,43.1821 54.462,43.1332 53.9113,43.3838 53.635,44.1096 53.635,44.7098 53.9113,45.7814 54.462,46.7211 55.01,47.3581 55.8272,47.862 56.3688,47.8994 56.9078,47.6408"/>
    <line x1="58.5098" x2="60.0893" y1="45.4037" y2="50.49"/>
    <polyline points="61.6469,47.3952 60.0893,50.49 59.5652,51.3363 59.0387,51.6005 58.5098,51.5722 58.2443,51.411"/>
    <polyline points="62.9285,49.9368 65.9451,51.8282 65.9451,51.26 65.6969,50.5349 65.4481,50.0929 64.9488,49.4912 64.1955,49.013 63.6905,48.9794 63.1831,49.2334 62.9285,49.9368 62.9285,50.5127 63.1831,51.5347 63.6905,52.4235 64.1955,53.022 64.9488,53.4864 65.4481,53.5096 65.9451,53.2486"/>
    <line x1="67.6672" x2="67.6672" y1="51.2169" y2="55.1627"/>
    <polyline points="67.6672,52.9079 67.911,52.2162 68.397,51.961 68.8808,51.9872 69.6024,52.4453"/>
    <polyline points="76.5619,54.9712 74.2927,57.3354 77.6783,59.4538"/>
    <line x1="76.5619" x2="76.5619" y1="54.9712" y2="60.6473"/>
    <polygon points="65.3702,15.8605 65.3702,362.0922 192.5967,261.664 192.5967,116.2887"/>
    <line x1="69.5227" x2="69.5227" y1="21.8876" y2="28.9651"/>
    <line x1="74.8836" x2="74.8836" y1="28.3512" y2="32.952"/>
    <polyline points="74.8836,29.3371 74.3319,28.2583 73.7773,27.5042 72.9399,26.8631 72.3779,26.7654 71.813,27.0006 71.5294,27.7864 71.5294,28.4542 71.813,29.6681 72.3779,30.756 72.9399,31.5065 73.7773,32.1292 74.3319,32.2122 74.8836,31.9661"/>
    <line x1="76.5215" x2="78.1339" y1="29.6052" y2="35.3692"/>
    <polyline points="79.7216,32.0553 78.1339,35.3692 77.5992,36.2691 77.0618,36.5231 76.5215,36.4525 76.2503,36.2537"/>
    <polyline points="81.0262,34.9681 84.0904,37.2853 84.0904,36.6569 83.8385,35.8365 83.5861,35.329 83.0793,34.626 82.3142,34.0403 81.801,33.9651 81.2851,34.2081 81.0262,34.9681 81.0262,35.6061 81.2851,36.7569 81.801,37.7786 82.3142,38.4781 83.0793,39.047 83.5861,39.1089 84.0904,38.8564"/>
    <line x1="85.8356" x2="85.8356" y1="36.7363" y2="41.0969"/>
    <polyline points="85.8356,38.6051 86.0824,37.8585 86.5743,37.6122 87.0637,37.6766 87.7933,38.2352"/>
    <polyline points="95.2533,41.8697 92.9835,40.107 92.7535,42.6341 92.9835,42.5092 93.6701,42.7346 94.3519,43.2566 95.0287,44.0719 95.4773,45.0074 95.7008,46.0655 95.7008,46.6575 95.4773,47.3783 95.0287,47.6367 94.3519,47.4304 93.6701,46.9234 92.9835,46.1125 92.7535,45.6405 92.523,44.8663"/>
    <line x1="125.2099" x2="125.2099" y1="337.4309" y2="348.3594"/>
    <polyline points="125.2099,338.9921 125.8695,337.3351 126.5236,336.2079 127.4948,335.3038 128.1357,335.218 128.7714,335.6418 129.0873,336.8679 129.0873,337.8834 128.7714,339.712 128.1357,341.3483 127.4948,342.4851 126.5236,343.4335 125.8695,343.5542 125.2099,343.1554"/>
    <line x1="134.5623" x2="134.5623" y1="328.7246" y2="335.5829"/>
    <polyline points="134.5623,330.1942 133.973,329.7649 133.3792,329.8259 132.4795,330.6634 131.8738,331.726 131.2632,333.2977 130.9561,335.0915 130.9561,336.0948 131.2632,337.3029 131.8738,337.7099 132.4795,337.617 133.3792,336.7384 133.973,335.6666 134.5623,334.1133"/>
    <line x1="136.8738" x2="136.8738" y1="326.5727" y2="333.3254"/>
    <polyline points="136.8738,328.502 137.7224,326.2623 138.2828,325.2611 139.1153,324.4861 139.6651,324.4475 139.9384,325.6092 139.9384,330.3326"/>
    <line x1="146.2027" x2="150.5563" y1="318.792" y2="314.7107"/>
    <line x1="146.2027" x2="150.5563" y1="321.5034" y2="317.3369"/>
    <line x1="155.9524" x2="159.7229" y1="310.9124" y2="307.3409"/>
    <polyline points="163.4704,299.0445 161.5265,300.8097 161.3287,304.6122 161.5265,304.0249 162.1162,303.074 162.7002,302.5303 163.2788,302.3879 163.6614,302.8203 163.8518,303.8241 163.8518,304.6127 163.6614,305.9797 163.2788,307.142 162.7002,308.1032 162.1162,308.6736 161.5265,308.8476 161.3287,308.6376 161.1302,308.0237"/>
    <polygon points="166.091,296.6648 165.539,297.5548 165.1682,299.0628 164.9819,301.1875 164.9819,302.3594 165.1682,304.1329 165.539,304.942 166.091,304.7917 166.4561,304.4351 166.9997,303.5203 167.3592,302.0217 167.5382,299.9379 167.5382,298.7911 167.3592,297.0446 166.9997,296.2237 166.4561,296.3332"/>
    <line x1="170.6688" x2="170.6688" y1="292.5078" y2="300.321"/>
    <polyline points="170.6688,296.2284 170.3292,295.8015 169.9876,295.7463 169.4714,296.2269 169.1247,296.9267 168.7759,298.0091 168.6007,299.3103 168.6007,300.0679 168.7759,301.0349 169.1247,301.4519 169.4714,301.4904 169.9876,300.9862 170.3292,300.2795 170.6688,299.2048"/>
    <polyline points="171.8415,296.2299 173.7967,294.3714 173.7967,293.6477 173.6364,293.0744 173.4756,292.8622 173.1525,292.8 172.6645,293.2544 172.3367,293.9261 172.0071,294.9694 171.8415,296.2299 171.8415,296.9663 172.0071,297.911 172.3367,298.3255 172.6645,298.372 173.1525,297.8953 173.4756,297.217 173.7967,296.1807"/>
    <polyline points="176.6057,289.5854 176.6057,295.2283 176.4534,296.4376 176.3007,296.9429 175.9939,297.6032 175.5304,298.0664 175.2192,298.0202"/>
    <polyline points="176.6057,290.6434 176.3007,290.2231 175.9939,290.155 175.5304,290.5864 175.2192,291.2333 174.9063,292.2421 174.7491,293.4662 174.7491,294.1836 174.9063,295.1079 175.2192,295.5198 175.5304,295.5731 175.9939,295.1205 176.3007,294.4672 176.6057,293.4649"/>
    <polygon points="245.6335,96.3264 245.6335,281.6264 393.7808,254.7817 393.7808,123.1711"/>
    <line x1="248.5306" x2="248.5306" y1="98.3426" y2="102.1817"/>
    <line x1="252.3888" x2="252.3888" y1="100.3004" y2="102.8403"/>
    <polyline points="252.3888,100.8447 251.9855,100.4111 251.5814,100.1585 250.9742,100.0518 250.5686,100.1626 250.1623,100.4558 249.9589,100.9671 249.9589,101.3317 250.1623,101.9135 250.5686,102.3475 250.9742,102.5988 251.5814,102.7025 251.9855,102.5899 252.3888,102.2961"/>
    <line x1="253.5951" x2="254.7955" y1="100.5124" y2="103.2512"/>
    <polyline points="255.9903,100.9334 254.7955,103.2512 254.396,103.9058 253.9958,104.1997 253.5951,104.3132 253.3944,104.2794"/>
    <polyline points="256.9816,102.1862 259.3448,102.5965 259.3448,102.2386 259.1487,101.8465 258.9525,101.633 258.5596,101.3849 257.969,101.2811 257.5745,101.3914 257.1794,101.6815 256.9816,102.1862 256.9816,102.5458 257.1794,103.1191 257.5745,103.5461 257.969,103.793 258.5596,103.8938 258.9525,103.7818 259.3448,103.4911"/>
    <line x1="260.7131" x2="260.7131" y1="101.7634" y2="104.2614"/>
    <polyline points="260.7131,102.834 260.9079,102.3327 261.2971,102.0443 261.6858,101.9344 262.2676,102.0366"/>
    <polyline points="266.6831,102.2838 267.0633,102.1749 267.6325,101.7479 267.6325,105.4427"/>
    <polygon points="244.6637,87.444 244.6637,290.5087 402.9256,259.1414 402.9256,118.8114"/>
    <line x1="247.8429" x2="247.8429" y1="89.7075" y2="93.9123"/>
    <line x1="252.0713" x2="252.0713" y1="91.9219" y2="94.7018"/>
    <polyline points="252.0713,92.5176 251.6295,92.0357 251.1869,91.7519 250.5216,91.624 250.0771,91.7379 249.6318,92.0516 249.4089,92.6078 249.4089,93.007 249.6318,93.6477 250.0771,94.1301 250.5216,94.4125 251.1869,94.5367 251.6295,94.4206 252.0713,94.1061"/>
    <line x1="253.392" x2="254.7059" y1="92.1758" y2="95.1938"/>
    <polyline points="256.0129,92.6797 254.7059,95.1938 254.2687,95.903 253.8307,96.2176 253.392,96.3348 253.1724,96.2944"/>
    <polyline points="257.0968,94.0676 259.6794,94.5579 259.6794,94.1668 259.4652,93.7346 259.2508,93.4978 258.8215,93.2196 258.1762,93.0955 257.745,93.209 257.3131,93.5191 257.0968,94.0676 257.0968,94.4607 257.3131,95.0911 257.745,95.565 258.1762,95.8418 258.8215,95.9623 259.2508,95.8467 259.6794,95.5358"/>
    <line x1="261.1736" x2="261.1736" y1="93.6717" y2="96.4015"/>
    <polyline points="261.1736,94.8416 261.3863,94.2973 261.8112,93.989 262.2354,93.8758 262.8702,93.9979"/>
    <polyline points="267.2693,94.4584 267.2693,94.2658 267.4768,93.9209 267.6842,93.7688 268.0983,93.6571 268.9246,93.8182 269.3366,94.0903 269.5424,94.3221 269.748,94.7452 269.748,95.1284 269.5424,95.4722 269.1307,95.9688 267.0616,97.501 269.9534,98.041"/>
    <polygon points="243.4882,76.6779 243.4882,301.2748 413.3682,264.1198 413.3682,113.8329"/>
    <line x1="247.0102" x2="247.0102" y1="79.2536" y2="83.9012"/>
    <line x1="251.6875" x2="251.6875" y1="81.795" y2="84.865"/>
    <polyline points="251.6875,82.4528 251.1992,81.9109 250.7099,81.5876 249.9743,81.4316 249.4827,81.5475 248.9901,81.8842 248.7434,82.4938 248.7434,82.935 248.9901,83.6478 249.4827,84.1904 249.9743,84.512 250.7099,84.6635 251.1992,84.5449 251.6875,84.2071"/>
    <line x1="253.1467" x2="254.5976" y1="82.1046" y2="85.4646"/>
    <polyline points="256.0401,82.7183 254.5976,85.4646 254.1149,86.2381 253.6313,86.5761 253.1467,86.6962 252.9041,86.647"/>
    <polyline points="257.2359,84.2733 260.0826,84.8697 260.0826,84.4385 259.8466,83.9573 259.6104,83.6916 259.1373,83.3754 258.426,83.2245 257.9506,83.3402 257.4744,83.6729 257.2359,84.2733 257.2359,84.707 257.4744,85.4071 257.9506,85.939 258.426,86.2535 259.1373,86.4001 259.6104,86.2817 260.0826,85.9479"/>
    <line x1="261.7283" x2="261.7283" y1="83.925" y2="86.934"/>
    <polyline points="261.7283,85.2146 261.9625,84.6192 262.4302,84.2885 262.8971,84.1729 263.5957,84.3212"/>
    <polyline points="268.6593,83.9119 271.1524,84.4483 269.7957,85.8478 270.475,85.9916 270.9268,86.2982 271.1524,86.5567 271.3778,87.2364 271.3778,87.6579 271.1524,88.2434 270.701,88.5718 270.0223,88.643 269.3418,88.5028 268.6593,88.1503 268.4314,87.8912 268.2033,87.4197"/>
    <polygon points="242.0338,63.3578 242.0338,314.5949 425.4059,269.8587 425.4059,108.0941"/>
    <line x1="245.9815" x2="245.9815" y1="66.3388" y2="71.5334"/>
    <line x1="251.2142" x2="251.2142" y1="69.3085" y2="72.7361"/>
    <polyline points="251.2142,70.043 250.6685,69.4245 250.1215,69.05 249.2989,68.8553 248.749,68.9712 248.1979,69.3336 247.9219,70.008 247.9219,70.5009 248.1979,71.304 248.749,71.9235 249.2989,72.2959 250.1215,72.485 250.6685,72.3656 251.2142,72.0016"/>
    <line x1="252.8445" x2="254.4642" y1="69.6943" y2="73.4831"/>
    <polyline points="256.0736,70.4584 254.4642,73.4831 253.9255,74.3334 253.3855,74.6979 252.8445,74.8191 252.5735,74.7578"/>
    <polyline points="257.4069,72.2249 260.578,72.966 260.578,72.4854 260.3153,71.9429 260.0523,71.6404 259.5255,71.2752 258.7331,71.0877 258.2035,71.2038 257.6727,71.5619 257.4069,72.2249 257.4069,72.7085 257.6727,73.4955 258.2035,74.1012 258.7331,74.4643 259.5255,74.6465 260.0523,74.527 260.578,74.1675"/>
    <line x1="262.4093" x2="262.4093" y1="71.9576" y2="75.3093"/>
    <polyline points="262.4093,73.394 262.6699,72.7371 263.1901,72.3813 263.7092,72.2652 264.4858,72.4489"/>
    <polyline points="272.1196,72.6123 269.6014,75.3109 273.3689,76.1896"/>
    <line x1="272.1196" x2="272.1196" y1="72.6123" y2="77.5412"/>
    <polygon points="240.188,46.4526 240.188,331.5002 439.4342,276.5466 439.4342,101.4062"/>
    <line x1="244.6784" x2="244.6784" y1="49.9781" y2="55.8658"/>
    <line x1="250.6162" x2="250.6162" y1="53.5291" y2="57.4087"/>
    <polyline points="250.6162,54.3604 249.9977,53.6411 249.3776,53.1978 248.4447,52.9482 247.8208,53.0599 247.1954,53.451 246.8821,54.2051 246.8821,54.7635 247.1954,55.6828 247.8208,56.4037 248.4447,56.8444 249.3776,57.0868 249.9977,56.9705 250.6162,56.5773"/>
    <line x1="252.4628" x2="254.296" y1="54.0231" y2="58.3649"/>
    <polyline points="256.1159,55.0003 254.296,58.3649 253.6864,59.3082 253.0753,59.7023 252.4628,59.8212 252.156,59.7427"/>
    <polyline points="257.6224,57.043 261.2014,57.9887 261.2014,57.446 260.9051,56.8245 260.6085,56.4738 260.0141,56.0432 259.1199,55.8039 258.522,55.9168 257.9226,56.303 257.6224,57.043 257.6224,57.5896 257.9226,58.4879 258.522,59.1902 259.1199,59.6184 260.0141,59.8507 260.6085,59.7335 261.2014,59.3453"/>
    <line x1="263.2656" x2="263.2656" y1="56.913" y2="60.6956"/>
    <polyline points="263.2656,58.5341 263.559,57.8015 264.1449,57.4179 264.7295,57.3046 265.6036,57.5384"/>
    <polyline points="274.7386,58.1348 271.9206,57.3701 271.637,59.6836 271.9206,59.4937 272.7695,59.4554 273.6154,59.6816 274.4583,60.1712 275.0186,60.8483 275.2983,61.7135 275.2983,62.2407 275.0186,62.9584 274.4583,63.34 273.6154,63.385 272.7695,63.1652 271.9206,62.6792 271.637,62.3397 271.3531,61.7341"/>
    <line x1="315.4349" x2="315.4349" y1="332.5835" y2="343.1551"/>
    <polyline points="315.4349,334.0937 316.4113,332.7682 317.3835,331.9497 318.8337,331.478 319.7951,331.6637 320.7524,332.3459 321.2295,333.6795 321.2295,334.6731 320.7524,336.3247 319.7951,337.645 318.8337,338.4715 317.3835,338.9663 316.4113,338.7958 315.4349,338.121"/>
    <line x1="329.6417" x2="329.6417" y1="327.9625" y2="334.7834"/>
    <polyline points="329.6417,329.4241 328.7231,328.7495 327.8005,328.5613 326.4092,329.0139 325.4766,329.8092 324.54,331.101 324.0701,332.7361 324.0701,333.7232 324.54,335.0452 325.4766,335.7127 326.4092,335.8865 327.8005,335.4117 328.7231,334.6086 329.6417,333.3218"/>
    <line x1="333.2771" x2="333.2771" y1="326.78" y2="333.5429"/>
    <polyline points="333.2771,328.7123 334.6245,326.8233 335.518,326.0511 336.8511,325.6175 337.7353,325.8079 338.1759,327.0965 338.1759,331.8713"/>
    <line x1="348.4807" x2="355.8825" y1="322.7662" y2="320.3418"/>
    <line x1="348.4807" x2="355.8825" y1="325.5606" y2="323.0855"/>
    <line x1="365.3441" x2="372.1524" y1="318.5821" y2="316.3288"/>
    <polyline points="375.1029,312.3046 375.1029,311.8693 375.4686,310.8817 375.8335,310.3305 376.5613,309.665 378.0085,309.2058 378.728,309.4088 379.0868,309.7254 379.4448,310.4718 379.4448,311.3327 379.0868,312.3104 378.3686,313.8398 374.7366,319.3957 379.8022,317.6671"/>
    <polyline points="386.1211,306.6318 382.637,307.7373 382.285,311.6937 382.637,311.1516 383.6891,310.3826 384.7353,310.0423 385.7756,310.1271 386.466,310.7466 386.8102,311.8996 386.8102,312.7436 386.466,314.126 385.7756,315.2056 384.7353,315.9838 383.6891,316.3408 382.637,316.273 382.285,315.9655 381.9323,315.2299"/>
    <line x1="392.8983" x2="392.8983" y1="304.4815" y2="313.1983"/>
    <polyline points="392.8983,308.6324 392.2318,308.0198 391.5628,307.8215 390.5547,308.1494 389.8795,308.7876 389.2018,309.8474 388.8621,311.2181 388.8621,312.0575 389.2018,313.2018 389.8795,313.8099 390.5547,313.998 391.5628,313.654 392.2318,313.0099 392.8983,311.9531"/>
    <polyline points="395.2122,309.1092 399.1111,307.8143 399.1111,306.9983 398.7895,306.2877 398.4672,305.9845 397.8209,305.786 396.847,306.1027 396.1949,306.7262 395.5404,307.764 395.2122,309.1092 395.2122,309.9341 395.5404,311.0606 396.1949,311.6621 396.847,311.8509 397.8209,311.5186 398.4672,310.8893 399.1111,309.8543"/>
    <polyline points="404.8045,303.5144 404.8045,309.9386 404.4929,311.2512 404.1808,311.7617 403.555,312.3825 402.6121,312.7118 401.9806,312.5275"/>
    <polyline points="404.8045,304.719 404.1808,304.1195 403.555,303.9208 402.6121,304.2275 401.9806,304.8377 401.347,305.8554 401.0293,307.1773 401.0293,307.9889 401.347,309.099 401.9806,309.6944 402.6121,309.8837 403.555,309.5619 404.1808,308.9462 404.8045,307.931"/>
    <polygon points="491.1144,113.1617 491.1144,264.7911 642.7438,264.7911 642.7438,113.1617"/>
    <line x1="493.2325" x2="493.2325" y1="114.3889" y2="117.5483"/>
    <line x1="496.091" x2="496.091" y1="115.4421" y2="117.5483"/>
    <polyline points="496.091,115.8934 495.7901,115.5925 495.4892,115.4421 495.0379,115.4421 494.737,115.5925 494.4361,115.8934 494.2856,116.3447 494.2856,116.6456 494.4361,117.0969 494.737,117.3978 495.0379,117.5483 495.4892,117.5483 495.7901,117.3978 496.091,117.0969"/>
    <line x1="496.9936" x2="497.8963" y1="115.4421" y2="117.5483"/>
    <polyline points="498.799,115.4421 497.8963,117.5483 497.5954,118.1501 497.2945,118.4509 496.9936,118.6014 496.8432,118.6014"/>
    <polyline points="499.5512,116.3447 501.3565,116.3447 501.3565,116.0438 501.2061,115.7429 501.0556,115.5925 500.7548,115.4421 500.3034,115.4421 500.0025,115.5925 499.7016,115.8934 499.5512,116.3447 499.5512,116.6456 499.7016,117.0969 500.0025,117.3978 500.3034,117.5483 500.7548,117.5483 501.0556,117.3978 501.3565,117.0969"/>
    <line x1="502.4096" x2="502.4096" y1="115.4421" y2="117.5483"/>
    <polyline points="502.4096,116.3447 502.5601,115.8934 502.861,115.5925 503.1619,115.4421 503.6132,115.4421"/>
    <polyline points="507.0734,114.9907 507.3743,114.8403 507.8257,114.3889 507.8257,117.5483"/>
    <polygon points="484.6125,106.6597 484.6125,271.293 649.2458,271.293 649.2458,106.6597"/>
    <line x1="486.9122" x2="486.9122" y1="107.9922" y2="111.4225"/>
    <line x1="490.0158" x2="490.0158" y1="109.1356" y2="111.4225"/>
    <polyline points="490.0158,109.6257 489.6891,109.299 489.3624,109.1356 488.8724,109.1356 488.5457,109.299 488.219,109.6257 488.0556,110.1157 488.0556,110.4424 488.219,110.9325 488.5457,111.2592 488.8724,111.4225 489.3624,111.4225 489.6891,111.2592 490.0158,110.9325"/>
    <line x1="490.9959" x2="491.976" y1="109.1356" y2="111.4225"/>
    <polyline points="492.956,109.1356 491.976,111.4225 491.6493,112.0759 491.3226,112.4026 490.9959,112.5659 490.8325,112.5659"/>
    <polyline points="493.7728,110.1157 495.7329,110.1157 495.7329,109.789 495.5696,109.4623 495.4062,109.299 495.0795,109.1356 494.5895,109.1356 494.2628,109.299 493.9361,109.6257 493.7728,110.1157 493.7728,110.4424 493.9361,110.9325 494.2628,111.2592 494.5895,111.4225 495.0795,111.4225 495.4062,111.2592 495.7329,110.9325"/>
    <line x1="496.8764" x2="496.8764" y1="109.1356" y2="111.4225"/>
    <polyline points="496.8764,110.1157 497.0397,109.6257 497.3664,109.299 497.6931,109.1356 498.1831,109.1356"/>
    <polyline points="501.6134,108.8089 501.6134,108.6456 501.7768,108.3189 501.9401,108.1556 502.2668,107.9922 502.9202,107.9922 503.2469,108.1556 503.4103,108.3189 503.5736,108.6456 503.5736,108.9723 503.4103,109.299 503.0836,109.789 501.4501,111.4225 503.7369,111.4225"/>
    <polygon points="476.8906,98.9379 476.8906,279.0149 656.9676,279.0149 656.9676,98.9379"/>
    <line x1="479.4061" x2="479.4061" y1="100.3954" y2="104.1475"/>
    <line x1="482.8008" x2="482.8008" y1="101.6461" y2="104.1475"/>
    <polyline points="482.8008,102.1821 482.4435,101.8247 482.0861,101.6461 481.5501,101.6461 481.1928,101.8247 480.8354,102.1821 480.6568,102.7181 480.6568,103.0754 480.8354,103.6114 481.1928,103.9688 481.5501,104.1475 482.0861,104.1475 482.4435,103.9688 482.8008,103.6114"/>
    <line x1="483.8728" x2="484.9449" y1="101.6461" y2="104.1475"/>
    <polyline points="486.0169,101.6461 484.9449,104.1475 484.5875,104.8621 484.2302,105.2195 483.8728,105.3981 483.6942,105.3981"/>
    <polyline points="486.9102,102.7181 489.0543,102.7181 489.0543,102.3608 488.8756,102.0034 488.6969,101.8247 488.3396,101.6461 487.8036,101.6461 487.4462,101.8247 487.0889,102.1821 486.9102,102.7181 486.9102,103.0754 487.0889,103.6114 487.4462,103.9688 487.8036,104.1475 488.3396,104.1475 488.6969,103.9688 489.0543,103.6114"/>
    <line x1="490.305" x2="490.305" y1="101.6461" y2="104.1475"/>
    <polyline points="490.305,102.7181 490.4836,102.1821 490.841,101.8247 491.1983,101.6461 491.7343,101.6461"/>
    <polyline points="495.6651,100.3954 497.6304,100.3954 496.5584,101.8247 497.0944,101.8247 497.4518,102.0034 497.6304,102.1821 497.8091,102.7181 497.8091,103.0754 497.6304,103.6114 497.2731,103.9688 496.7371,104.1475 496.2011,104.1475 495.6651,103.9688 495.4864,103.7901 495.3077,103.4328"/>
    <polygon points="467.5701,89.6174 467.5701,288.3354 666.2881,288.3354 666.2881,89.6174"/>
    <line x1="470.346" x2="470.346" y1="91.2257" y2="95.3662"/>
    <line x1="474.0921" x2="474.0921" y1="92.6059" y2="95.3662"/>
    <polyline points="474.0921,93.1974 473.6978,92.8031 473.3035,92.6059 472.712,92.6059 472.3176,92.8031 471.9233,93.1974 471.7261,93.7889 471.7261,94.1832 471.9233,94.7747 472.3176,95.1691 472.712,95.3662 473.3035,95.3662 473.6978,95.1691 474.0921,94.7747"/>
    <line x1="475.2751" x2="476.4581" y1="92.6059" y2="95.3662"/>
    <polyline points="477.6411,92.6059 476.4581,95.3662 476.0638,96.1549 475.6694,96.5492 475.2751,96.7464 475.0779,96.7464"/>
    <polyline points="478.6269,93.7889 480.9929,93.7889 480.9929,93.3946 480.7957,93.0002 480.5986,92.8031 480.2042,92.6059 479.6127,92.6059 479.2184,92.8031 478.8241,93.1974 478.6269,93.7889 478.6269,94.1832 478.8241,94.7747 479.2184,95.1691 479.6127,95.3662 480.2042,95.3662 480.5986,95.1691 480.9929,94.7747"/>
    <line x1="482.3731" x2="482.3731" y1="92.6059" y2="95.3662"/>
    <polyline points="482.3731,93.7889 482.5702,93.1974 482.9646,92.8031 483.3589,92.6059 483.9504,92.6059"/>
    <polyline points="489.8654,91.2257 487.8937,93.9861 490.8512,93.9861"/>
    <line x1="489.8654" x2="489.8654" y1="91.2257" y2="95.3662"/>
    <polygon points="456.0971,78.1444 456.0971,299.8084 677.7611,299.8084 677.7611,78.1444"/>
    <line x1="459.1935" x2="459.1935" y1="79.9385" y2="84.5571"/>
    <line x1="463.3722" x2="463.3722" y1="81.478" y2="84.5571"/>
    <polyline points="463.3722,82.1378 462.9324,81.6979 462.4925,81.478 461.8327,81.478 461.3928,81.6979 460.953,82.1378 460.733,82.7976 460.733,83.2375 460.953,83.8973 461.3928,84.3371 461.8327,84.5571 462.4925,84.5571 462.9324,84.3371 463.3722,83.8973"/>
    <line x1="464.6918" x2="466.0114" y1="81.478" y2="84.5571"/>
    <polyline points="467.331,81.478 466.0114,84.5571 465.5715,85.4368 465.1317,85.8766 464.6918,86.0966 464.4719,86.0966"/>
    <polyline points="468.4307,82.7976 471.0698,82.7976 471.0698,82.3577 470.8499,81.9179 470.63,81.6979 470.1901,81.478 469.5303,81.478 469.0905,81.6979 468.6506,82.1378 468.4307,82.7976 468.4307,83.2375 468.6506,83.8973 469.0905,84.3371 469.5303,84.5571 470.1901,84.5571 470.63,84.3371 471.0698,83.8973"/>
    <line x1="472.6094" x2="472.6094" y1="81.478" y2="84.5571"/>
    <polyline points="472.6094,82.7976 472.8293,82.1378 473.2692,81.6979 473.709,81.478 474.3688,81.478"/>
    <polyline points="481.4067,79.9385 479.2073,79.9385 478.9874,81.9179 479.2073,81.6979 479.8671,81.478 480.5269,81.478 481.1867,81.6979 481.6266,82.1378 481.8465,82.7976 481.8465,83.2375 481.6266,83.8973 481.1867,84.3371 480.5269,84.5571 479.8671,84.5571 479.2073,84.3371 478.9874,84.1172 478.7675,83.6773"/>
    <line x1="526.8373" x2="526.8373" y1="319.6838" y2="329.3058"/>
    <polyline points="526.8373,321.0584 527.7537,320.142 528.6701,319.6838 530.0447,319.6838 530.961,320.142 531.8774,321.0584 532.3356,322.433 532.3356,323.3493 531.8774,324.7239 530.961,325.6403 530.0447,326.0985 528.6701,326.0985 527.7537,325.6403 526.8373,324.7239"/>
    <line x1="540.5831" x2="540.5831" y1="319.6838" y2="326.0985"/>
    <polyline points="540.5831,321.0584 539.6667,320.142 538.7503,319.6838 537.3757,319.6838 536.4594,320.142 535.543,321.0584 535.0848,322.433 535.0848,323.3493 535.543,324.7239 536.4594,325.6403 537.3757,326.0985 538.7503,326.0985 539.6667,325.6403 540.5831,324.7239"/>
    <line x1="544.2486" x2="544.2486" y1="319.6838" y2="326.0985"/>
    <polyline points="544.2486,321.5166 545.6232,320.142 546.5396,319.6838 547.9142,319.6838 548.8305,320.142 549.2887,321.5166 549.2887,326.0985"/>
    <line x1="560.2853" x2="568.5328" y1="320.6002" y2="320.6002"/>
    <line x1="560.2853" x2="568.5328" y1="323.3493" y2="323.3493"/>
    <polygon points="581.8204,316.4765 580.4458,316.9347 579.5294,318.3092 579.0712,320.6002 579.0712,321.9748 579.5294,324.2657 580.4458,325.6403 581.8204,326.0985 582.7368,326.0985 584.1113,325.6403 585.0277,324.2657 585.4859,321.9748 585.4859,320.6002 585.0277,318.3092 584.1113,316.9347 582.7368,316.4765"/>
    <line x1="593.7334" x2="593.7334" y1="316.4765" y2="326.0985"/>
    <polyline points="593.7334,321.0584 592.817,320.142 591.9006,319.6838 590.526,319.6838 589.6096,320.142 588.6933,321.0584 588.2351,322.433 588.2351,323.3493 588.6933,324.7239 589.6096,325.6403 590.526,326.0985 591.9006,326.0985 592.817,325.6403 593.7334,324.7239"/>
    <polyline points="596.9407,322.433 602.439,322.433 602.439,321.5166 601.9808,320.6002 601.5226,320.142 600.6063,319.6838 599.2317,319.6838 598.3153,320.142 597.3989,321.0584 596.9407,322.433 596.9407,323.3493 597.3989,324.7239 598.3153,325.6403 599.2317,326.0985 600.6063,326.0985 601.5226,325.6403 602.439,324.7239"/>
    <polyline points="610.6865,319.6838 610.6865,327.0149 610.2283,328.3895 609.7701,328.8477 608.8537,329.3058 607.4791,329.3058 606.5628,328.8477"/>
    <polyline points="610.6865,321.0584 609.7701,320.142 608.8537,319.6838 607.4791,319.6838 606.5628,320.142 605.6464,321.0584 605.1882,322.433 605.1882,323.3493 605.6464,324.7239 606.5628,325.6403 607.4791,326.0985 608.8537,326.0985 609.7701,325.6403 610.6865,324.7239"/>
    <polygon points="740.0775,123.1711 740.0775,254.7817 888.2248,281.6264 888.2248,96.3264"/>
    <line x1="741.5533" x2="741.5533" y1="123.9732" y2="126.7266"/>
    <line x1="743.5641" x2="743.5641" y1="124.5376" y2="126.3833"/>
    <polyline points="743.5641,124.9331 743.3514,124.7068 743.1389,124.6123 742.8207,124.6683 742.6088,124.837 742.3972,125.1369 742.2915,125.5495 742.2915,125.8123 742.3972,126.1883 742.6088,126.4149 742.8207,126.5102 743.1389,126.4559 743.3514,126.2879 743.5641,125.9878"/>
    <line x1="744.2037" x2="744.8455" y1="124.4252" y2="126.1646"/>
    <polyline points="745.4896,124.1992 744.8455,126.1646 744.6313,126.73 744.4174,127.0305 744.2037,127.1986 744.0969,127.2166"/>
    <polyline points="746.0281,124.9009 747.3268,124.6754 747.3268,124.4091 747.2183,124.1617 747.1097,124.0476 746.8929,123.9526 746.5681,124.0097 746.3519,124.1805 746.136,124.4839 746.0281,124.9009 746.0281,125.1663 746.136,125.546 746.3519,125.7746 746.5681,125.8705 746.8929,125.815 747.1097,125.6449 747.3268,125.3414"/>
    <line x1="748.0887" x2="748.0887" y1="123.7424" y2="125.6109"/>
    <polyline points="748.0887,124.5432 748.1978,124.1237 748.4161,123.8184 748.6348,123.6464 748.9632,123.5887"/>
    <polyline points="751.5005,122.7387 751.7228,122.5646 752.0567,122.1008 752.0567,124.9335"/>
    <polygon points="730.9326,118.8114 730.9326,259.1414 889.1946,290.5087 889.1946,87.444"/>
    <line x1="732.467" x2="732.467" y1="119.648" y2="122.5845"/>
    <line x1="734.5589" x2="734.5589" y1="120.2247" y2="122.1939"/>
    <polyline points="734.5589,120.6467 734.3375,120.4078 734.1165,120.3097 733.7853,120.3734 733.5649,120.556 733.3448,120.8786 733.2348,121.32 733.2348,121.6003 733.3448,122.0001 733.5649,122.2393 733.7853,122.3384 734.1165,122.2765 734.3375,122.0947 734.5589,121.7719"/>
    <line x1="735.2246" x2="735.8928" y1="120.0967" y2="121.9448"/>
    <polyline points="736.5636,119.8393 735.8928,121.9448 735.6698,122.5509 735.4471,122.8741 735.2246,123.0561 735.1135,123.0765"/>
    <polyline points="737.1244,120.5815 738.4776,120.3246 738.4776,120.0402 738.3644,119.7774 738.2513,119.657 738.0254,119.5583 737.687,119.6233 737.4617,119.8084 737.2368,120.135 737.1244,120.5815 737.1244,120.8648 737.2368,121.2687 737.4617,121.5101 737.687,121.6098 738.0254,121.5466 738.2513,121.3623 738.4776,121.0356"/>
    <line x1="739.2716" x2="739.2716" y1="119.3187" y2="121.3139"/>
    <polyline points="739.2716,120.1738 739.3854,119.7245 739.613,119.3957 739.841,119.2093 740.1834,119.1434"/>
    <polyline points="742.5988,118.3915 742.5988,118.2476 742.7146,117.9375 742.8305,117.7711 743.0625,117.5819 743.5274,117.4913 743.7603,117.5901 743.8769,117.7118 743.9935,117.9779 743.9935,118.2666 743.8769,118.5777 743.6439,119.0551 742.4831,120.7142 744.1102,120.4104"/>
    <polygon points="720.49,113.8329 720.49,264.1198 890.3701,301.2748 890.3701,76.6779"/>
    <line x1="722.0853" x2="722.0853" y1="114.7061" y2="117.852"/>
    <line x1="724.2618" x2="724.2618" y1="115.293" y2="117.4035"/>
    <polyline points="724.2618,115.7452 724.0314,115.4925 723.8013,115.3907 723.4567,115.4638 723.2274,115.6627 722.9984,116.0116 722.884,116.4862 722.884,116.7865 722.9984,117.2132 723.2274,117.4663 723.4567,117.5694 723.8013,117.4984 724.0314,117.3003 724.2618,116.9512"/>
    <line x1="724.9548" x2="725.6506" y1="115.146" y2="117.1173"/>
    <polyline points="726.3492,114.8502 725.6506,117.1173 725.4184,117.7702 725.1865,118.1198 724.9548,118.318 724.8391,118.3415"/>
    <polyline points="726.9335,115.6377 728.3439,115.3422 728.3439,115.0371 728.2259,114.757 728.108,114.6295 727.8725,114.527 727.5198,114.6018 727.285,114.8037 727.0506,115.1573 726.9335,115.6377 726.9335,115.9415 727.0506,116.3729 727.285,116.6284 727.5198,116.7321 727.8725,116.6595 728.108,116.4585 728.3439,116.1048"/>
    <line x1="729.1718" x2="729.1718" y1="114.2514" y2="116.3917"/>
    <polyline points="729.1718,115.1687 729.2904,114.685 729.5278,114.3289 729.7656,114.1254 730.1228,114.0497"/>
    <polyline points="732.7648,112.4081 734.1007,112.1207 733.3708,113.5154 733.7354,113.4382 733.9788,113.5416 734.1007,113.6709 734.2226,114.1104 734.2226,114.4205 734.1007,114.911 733.857,115.2714 733.4922,115.5015 733.1281,115.5765 732.7648,115.4969 732.6439,115.3675 732.523,115.0838"/>
    <polygon points="708.4524,108.0941 708.4524,269.8587 891.8245,314.5949 891.8245,63.3578"/>
    <line x1="710.1099" x2="710.1099" y1="109.0055" y2="112.3929"/>
    <line x1="712.3733" x2="712.3733" y1="109.5991" y2="111.8727"/>
    <polyline points="712.3733,110.0863 712.1336,109.8181 711.8942,109.7124 711.5358,109.7972 711.2973,110.0156 711.0592,110.3953 710.9402,110.9084 710.9402,111.2318 711.0592,111.6894 711.2973,111.9581 711.5358,112.0652 711.8942,111.9828 712.1336,111.7655 712.3733,111.3855"/>
    <line x1="713.0944" x2="713.8187" y1="109.4284" y2="111.5405"/>
    <polyline points="714.546,109.085 713.8187,111.5405 713.5769,112.2479 713.3355,112.6287 713.0944,112.8462 712.974,112.8734"/>
    <polyline points="715.1546,109.9234 716.6241,109.58 716.6241,109.2511 716.5012,108.9511 716.3783,108.8157 716.1329,108.7095 715.7653,108.7964 715.5208,109.0182 715.2766,109.4035 715.1546,109.9234 715.1546,110.2509 715.2766,110.7139 715.5208,110.9853 715.7653,111.093 716.1329,111.0085 716.3783,110.7878 716.6241,110.4023"/>
    <line x1="717.4872" x2="717.4872" y1="108.389" y2="110.6972"/>
    <polyline points="717.4872,109.3782 717.6109,108.8545 717.8585,108.4662 718.1065,108.2425 718.4791,108.1543"/>
    <polyline points="722.2504,106.0916 720.9841,108.7275 722.8871,108.2837"/>
    <line x1="722.2504" x2="722.2504" y1="106.0916" y2="109.6024"/>
    <polygon points="694.4241,101.4062 694.4241,276.5466 893.6703,331.5002 893.6703,46.4526"/>
    <line x1="696.1434" x2="696.1434" y1="102.3572" y2="106.0262"/>
    <line x1="698.4935" x2="698.4935" y1="102.9515" y2="105.4155"/>
    <polyline points="698.4935,103.4795 698.2445,103.194 697.9959,103.0846 697.6237,103.1842 697.376,103.4258 697.1287,103.8424 697.0052,104.4008 697.0052,104.7511 697.1287,105.2444 697.376,105.5305 697.6237,105.6415 697.9959,105.5448 698.2445,105.3043 698.4935,104.8875"/>
    <line x1="699.2428" x2="699.9957" y1="102.7511" y2="105.0252"/>
    <polyline points="700.752,102.3473 699.9957,105.0252 699.7443,105.7972 699.4934,106.215 699.2428,106.4557 699.1177,106.4877"/>
    <polyline points="701.385,103.2435 702.9144,102.8394 702.9144,102.4825 702.7864,102.1598 702.6585,102.0156 702.403,101.9057 702.0205,102.008 701.766,102.2539 701.5119,102.677 701.385,103.2435 701.385,103.5986 701.5119,104.0982 701.766,104.3873 702.0205,104.499 702.403,104.3996 702.6585,104.1549 702.9144,103.7315"/>
    <line x1="703.8132" x2="703.8132" y1="101.5284" y2="104.0332"/>
    <polyline points="703.8132,102.6019 703.942,102.0309 704.1999,101.6041 704.4583,101.3559 704.8465,101.252"/>
    <polyline points="709.0459,98.8562 707.7221,99.2154 707.5903,100.88 707.7221,100.6638 708.1181,100.3768 708.5151,100.2706 708.913,100.3459 709.1788,100.6386 709.3119,101.149 709.3119,101.5128 709.1788,102.0934 708.913,102.5263 708.5151,102.8114 708.1181,102.9146 707.7221,102.8364 707.5903,102.6898 707.4586,102.3623"/>
    <line x1="735.714" x2="735.714" y1="305.6808" y2="314.272"/>
    <polyline points="735.714,306.9081 736.3614,306.3012 737.0112,306.1027 737.9903,306.4212 738.6461,307.0469 739.3042,308.0881 739.6341,309.4373 739.6341,310.2645 739.3042,311.3937 738.6461,311.9963 737.9903,312.185 737.0112,311.8509 736.3614,311.2193 735.714,310.1809"/>
    <line x1="745.6776" x2="745.6776" y1="308.9216" y2="314.8081"/>
    <polyline points="745.6776,310.183 744.9962,309.1197 744.3173,308.4792 743.3036,308.1494 742.6309,308.3476 741.9607,308.9613 741.6265,310.099 741.6265,310.9307 741.9607,312.2911 742.6309,313.3515 743.3036,313.998 744.3173,314.344 744.9962,314.1559 745.6776,313.5467"/>
    <line x1="748.4288" x2="748.4288" y1="309.8165" y2="315.7469"/>
    <polyline points="748.4288,311.5109 749.4711,310.5803 750.1692,310.3826 751.2213,310.7248 751.926,311.3816 752.2793,312.7809 752.2793,317.0608"/>
    <line x1="760.964" x2="767.7458" y1="314.7696" y2="316.991"/>
    <line x1="760.964" x2="767.7458" y1="317.3969" y2="319.6647"/>
    <polyline points="777.1699,318.2523 777.1699,317.7959 777.5724,317.0118 777.9758,316.6834 778.7849,316.4829 780.4131,316.9994 781.2321,317.7203 781.6429,318.3126 782.0544,319.368 782.0544,320.2919 781.6429,321.0814 780.8222,322.1952 776.7682,325.4172 782.4669,327.3618"/>
    <polyline points="790.0369,320.053 785.7968,318.7076 785.3776,322.7662 785.7968,322.4373 787.0597,322.3819 788.3304,322.7952 789.609,323.6816 790.4658,324.9044 790.8955,326.4617 790.8955,327.4057 790.4658,328.6766 789.609,329.3283 788.3304,329.3626 787.0597,328.929 785.7968,328.0318 785.3776,327.4235 784.9592,326.3512"/>
    <line x1="798.7866" x2="798.7866" y1="322.8291" y2="332.9306"/>
    <polyline points="798.7866,327.6393 797.895,326.3863 797.0071,325.6175 795.6824,325.1866 794.8038,325.3773 793.9289,326.0427 793.4929,327.3243 793.4929,328.2743 793.9289,329.8465 794.8038,331.095 795.6824,331.8713 797.0071,332.3234 797.895,332.1463 798.7866,331.4875"/>
    <polyline points="801.9372,330.1287 807.4491,331.9593 807.4491,330.9775 806.9843,329.8435 806.5205,329.2017 805.596,328.4111 804.2166,327.9625 803.3019,328.1511 802.3911,328.8241 801.9372,330.1287 801.9372,331.098 802.3911,332.7051 803.3019,333.9852 804.2166,334.7834 805.596,335.2541 806.5205,335.0798 807.4491,334.4138"/>
    <polyline points="815.9903,331.7921 815.9903,339.8023 815.5069,341.1365 815.0246,341.4687 814.0631,341.6325 812.6288,341.1316 811.6778,340.3038"/>
    <polyline points="815.9903,333.294 815.0246,331.9775 814.0631,331.1652 812.6288,330.6987 811.6778,330.8851 810.7309,331.5653 810.259,332.8925 810.259,333.8807 810.7309,335.5224 811.6778,336.8337 812.6288,337.6539 814.0631,338.1434 815.0246,337.9719 815.9903,337.2991"/>
    <polygon points="989.792,128.1352 989.792,249.8175 1122.5197,307.2464 1122.5197,70.7063"/>
    <line x1="990.7523" x2="990.7523" y1="128.7113" y2="131.264"/>
    <line x1="992.0692" x2="992.0692" y1="129.0095" y2="130.7272"/>
    <polyline points="992.0692,129.3776 991.9294,129.1908 991.7899,129.1267 991.5812,129.2143 991.4423,129.3948 991.3038,129.6968 991.2346,130.0916 991.2346,130.3355 991.3038,130.6731 991.4423,130.8605 991.5812,130.9261 991.7899,130.841 991.9294,130.6616 992.0692,130.3591"/>
    <line x1="992.4902" x2="992.9136" y1="128.8329" y2="130.3829"/>
    <polyline points="993.3396,128.4764 992.9136,130.3829 992.7722,130.9337 992.6311,131.2371 992.4902,131.4169 992.4198,131.4451"/>
    <polyline points="993.6965,129.0711 994.5604,128.713 994.5604,128.4634 994.488,128.244 994.4157,128.1495 994.2713,128.0854 994.0552,128.1761 993.9115,128.3606 993.7681,128.669 993.6965,129.0711 993.6965,129.3193 993.7681,129.6621 993.9115,129.8519 994.0552,129.9176 994.2713,129.8295 994.4157,129.6459 994.5604,129.3371"/>
    <line x1="995.0691" x2="995.0691" y1="127.7506" y2="129.5043"/>
    <polyline points="995.0691,128.5022 995.142,128.0959 995.2882,127.7841 995.4346,127.5972 995.6548,127.5048"/>
    <polyline points="997.3654,126.4052 997.516,126.2142 997.7425,125.7357 997.7425,128.4144"/>
    <polygon points="979.2054,125.551 979.2054,252.4018 1112.4975,317.4196 1112.4975,60.5331"/>
    <line x1="980.1314" x2="980.1314" y1="126.1333" y2="128.7952"/>
    <line x1="981.4021" x2="981.4021" y1="126.4194" y2="128.2112"/>
    <polyline points="981.4021,126.8034 981.2672,126.6111 981.1325,126.5469 980.9311,126.6423 980.7971,126.833 980.6634,127.1507 980.5967,127.5637 980.5967,127.8181 980.6634,128.1689 980.7971,128.3618 980.9311,128.4277 981.1325,128.3351 981.2672,128.1454 981.4021,127.8272"/>
    <line x1="981.8085" x2="982.2175" y1="126.2271" y2="127.8365"/>
    <polyline points="982.6289,125.839 982.2175,127.8365 982.0809,128.4138 981.9446,128.733 981.8085,128.9231 981.7406,128.9538"/>
    <polyline points="982.9738,126.4529 983.8087,126.0627 983.8087,125.8021 983.7387,125.5744 983.6688,125.4772 983.5292,125.413 983.3204,125.5118 983.1815,125.7072 983.043,126.0318 982.9738,126.4529 982.9738,126.7119 983.043,127.0684 983.1815,127.2637 983.3204,127.3296 983.5292,127.2337 983.6688,127.0393 983.8087,126.7143"/>
    <line x1="984.3006" x2="984.3006" y1="125.0481" y2="126.8792"/>
    <polyline points="984.3006,125.8328 984.3711,125.4073 984.5125,125.0788 984.6541,124.8808 984.8671,124.7801"/>
    <polyline points="986.3772,123.8 986.3772,123.6672 986.45,123.3668 986.5228,123.1991 986.6687,122.9961 986.9613,122.8557 987.1082,122.9187 987.1817,123.0171 987.2553,123.2492 987.2553,123.5165 987.1817,123.8186 987.0347,124.2883 986.3045,125.9582 987.329,125.4875"/>
    <polygon points="967.6796,122.7375 967.6796,255.2153 1100.5889,329.5077 1100.5889,48.4451"/>
    <line x1="968.5612" x2="968.5612" y1="123.3249" y2="126.1057"/>
    <line x1="969.7719" x2="969.7719" y1="123.5954" y2="125.4681"/>
    <polyline points="969.7719,123.9967 969.6433,123.7988 969.515,123.7347 969.323,123.8388 969.1954,124.0411 969.068,124.376 969.0044,124.809 969.0044,125.0748 969.068,125.4399 969.1954,125.6386 969.323,125.7045 969.515,125.6034 969.6433,125.4022 969.7719,125.0668"/>
    <line x1="970.1594" x2="970.5494" y1="123.3854" y2="125.0587"/>
    <polyline points="970.9419,122.9611 970.5494,125.0587 970.4191,125.6652 970.2891,126.0018 970.1594,126.2034 970.0947,126.237"/>
    <polyline points="971.2709,123.5953 972.0678,123.1685 972.0678,122.8959 972.001,122.6594 971.9343,122.5593 971.801,122.4953 971.6017,122.6034 971.4692,122.8109 971.3369,123.1535 971.2709,123.5953 971.2709,123.8662 971.3369,124.2375 971.4692,124.4387 971.6017,124.5045 971.801,124.3995 971.9343,124.1932 972.0678,123.8501"/>
    <line x1="972.5375" x2="972.5375" y1="122.096" y2="124.0117"/>
    <polyline points="972.5375,122.917 972.6049,122.4702 972.7399,122.1234 972.8753,121.9129 973.0788,121.8026"/>
    <polyline points="974.5919,120.0085 975.3624,119.5847 974.941,120.9325 975.1514,120.8187 975.292,120.8825 975.3624,120.9844 975.433,121.3665 975.433,121.6466 975.3624,122.1041 975.2216,122.4583 975.011,122.7091 974.8011,122.8196 974.5919,122.7907 974.5223,122.6884 974.4528,122.4472"/>
    <polygon points="955.0837,119.6628 955.0837,258.29 1086.2059,344.1074 1086.2059,33.8454"/>
    <line x1="955.9085" x2="955.9085" y1="120.2537" y2="123.1647"/>
    <line x1="957.0421" x2="957.0421" y1="120.5044" y2="122.4656"/>
    <polyline points="957.0421,120.9247 956.9216,120.7208 956.8015,120.6572 956.6217,120.7713 956.5021,120.9866 956.3829,121.3406 956.3233,121.7956 956.3233,122.0739 956.3829,122.4544 956.5021,122.6592 956.6217,122.7249 956.8015,122.614 956.9216,122.4 957.0421,122.0454"/>
    <line x1="957.4051" x2="957.7706" y1="120.274" y2="122.0165"/>
    <polyline points="958.1385,119.8084 957.7706,122.0165 957.6485,122.6552 957.5267,123.0112 957.4051,123.2257 957.3444,123.2626"/>
    <polyline points="958.447,120.4641 959.1947,119.9953 959.1947,119.7095 959.132,119.4634 959.0693,119.3603 958.9443,119.2969 958.7573,119.4156 958.633,119.6367 958.5089,119.9993 958.447,120.4641 958.447,120.7479 958.5089,121.1352 958.633,121.3425 958.7573,121.408 958.9443,121.2927 959.0693,121.0729 959.1947,120.7097"/>
    <line x1="959.6355" x2="959.6355" y1="118.8581" y2="120.8665"/>
    <polyline points="959.6355,119.7189 959.6988,119.2486 959.8256,118.8812 959.9526,118.6568 960.1437,118.5355"/>
    <polyline points="962.0918,116.2724 961.4349,118.7364 962.4232,118.1181"/>
    <line x1="962.0918" x2="962.0918" y1="116.2724" y2="119.3519"/>
    <polygon points="941.2616,116.2887 941.2616,261.664 1068.4881,362.0922 1068.4881,15.8605"/>
    <line x1="942.0139" x2="942.0139" y1="116.8811" y2="119.9349"/>
    <line x1="943.0489" x2="943.0489" y1="117.1067" y2="119.1652"/>
    <polyline points="943.0489,117.5478 942.9389,117.3378 942.8291,117.2749 942.6649,117.4006 942.5558,117.6305 942.4469,118.0058 942.3926,118.4852 942.3926,118.7772 942.4469,119.1746 942.5558,119.3857 942.6649,119.4508 942.8291,119.3287 942.9389,119.1002 943.0489,118.7241"/>
    <line x1="943.3805" x2="943.7145" y1="116.8527" y2="118.6702"/>
    <polyline points="944.0509,116.3395 943.7145,118.6702 943.6029,119.3448 943.4916,119.7224 943.3805,119.9515 943.3251,119.9921"/>
    <polyline points="944.3331,117.0178 945.0171,116.5005 945.0171,116.2002 944.9597,115.9437 944.9024,115.8375 944.788,115.7752 944.6169,115.9062 944.5031,116.1426 944.3897,116.5275 944.3331,117.0178 944.3331,117.3159 944.3897,117.7206 944.5031,117.9344 944.6169,117.9991 944.788,117.8718 944.9024,117.6368 945.0171,117.2511"/>
    <line x1="945.4207" x2="945.4207" y1="115.2907" y2="117.4013"/>
    <polyline points="945.4207,116.1953 945.4786,115.6989 945.5947,115.3085 945.7111,115.0684 945.8861,114.9344"/>
    <polyline points="947.7937,112.3926 947.1896,112.8618 947.1296,114.2893 947.1896,114.09 947.37,113.7983 947.5512,113.6596 947.733,113.6748 947.8546,113.891 947.9155,114.3087 947.9155,114.618 947.8546,115.1276 947.733,115.5273 947.5512,115.8169 947.37,115.9516 947.1896,115.9323 947.1296,115.8236 947.0696,115.5617"/>
    <line x1="960.544" x2="960.544" y1="292.6494" y2="300.2813"/>
    <polyline points="960.544,293.7397 960.8679,293.3155 961.1938,293.2544 961.6861,293.7127 962.0168,294.3887 962.3494,295.4381 962.5164,296.7048 962.5164,297.4445 962.3494,298.3926 962.0168,298.8075 961.6861,298.8528 961.1938,298.372 960.8679,297.6893 960.544,296.6471"/>
    <line x1="965.6096" x2="965.6096" y1="297.3652" y2="302.6845"/>
    <polyline points="965.6096,298.505 965.2576,297.4163 964.9077,296.7118 964.3868,296.2269 964.0422,296.2808 963.6996,296.7082 963.529,297.6673 963.529,298.4136 963.6996,299.698 964.0422,300.7789 964.3868,301.4904 964.9077,301.9991 965.2576,301.9619 965.6096,301.5447"/>
    <line x1="967.0392" x2="967.0392" y1="298.696" y2="304.0807"/>
    <polyline points="967.0392,300.2345 967.5844,299.59 967.9507,299.5445 968.5044,300.06 968.8764,300.7969 969.0633,302.1451 969.0633,306.0574"/>
    <line x1="973.73" x2="977.4757" y1="305.7376" y2="309.2489"/>
    <line x1="973.73" x2="977.4757" y1="308.1763" y2="311.761"/>
    <polyline points="985.444,312.7167 983.0681,310.5592 982.8351,314.273 983.0681,314.0546 983.7721,314.273 984.4836,314.9354 985.2026,316.0486 985.6862,317.3913 985.9293,318.9588 985.9293,319.8513 985.6862,320.9551 985.2026,321.3753 984.4836,321.117 983.7721,320.4222 983.0681,319.2977 982.8351,318.6347 982.6028,317.5386"/>
    <polygon points="988.9155,315.8691 988.1568,315.6336 987.6555,316.5325 987.4063,318.5583 987.4063,319.9116 987.6555,322.4072 988.1568,324.2508 988.9155,325.4452 989.4259,325.9437 990.1986,326.2381 990.7184,325.3584 990.9798,323.2966 990.9798,321.9083 990.7184,319.3538 990.1986,317.4944 989.4259,316.3326"/>
    <line x1="995.8551" x2="995.8551" y1="322.1708" y2="332.2226"/>
    <polyline points="995.8551,326.9574 995.2969,325.4786 994.743,324.4861 993.9199,323.7198 993.3763,323.6843 992.8368,324.1179 992.5685,325.2694 992.5685,326.2052 992.8368,327.8684 993.3763,329.3311 993.9199,330.3326 994.743,331.1364 995.2969,331.2006 995.8551,330.7866"/>
    <polyline points="997.8429,330.2827 1001.3787,333.6435 1001.3787,332.6502 1001.0777,331.3746 1000.7778,330.5987 1000.1816,329.549 999.296,328.7246 998.7114,328.6683 998.1312,329.0985 997.8429,330.2827 997.8429,331.253 998.1312,332.9872 998.7114,334.524 999.296,335.5829 1000.1816,336.4478 1000.7778,336.5354 1001.3787,336.1269"/>
    <polyline points="1007.0096,335.9053 1007.0096,344.1462 1006.6858,345.3699 1006.3634,345.5627 1005.7226,345.4352 1004.771,344.4841 1004.143,343.3508"/>
    <polyline points="1007.0096,337.4505 1006.3634,335.8167 1005.7226,334.7072 1004.771,333.8214 1004.143,333.7425 1003.5201,334.1679 1003.2105,335.3846 1003.2105,336.3899 1003.5201,338.1972 1004.143,339.8109 1004.771,340.9299 1005.7226,341.8592 1006.3634,341.9721 1007.0096,341.5709"/>
  </g>
</svg>
