<?xml version="1.0" encoding="utf-8" ?>
<svg xmlns="http://www.w3.org/2000/svg" xmlns:cc="http://creativecommons.org/ns" xmlns:dc="http://purl.org/dc/elements/1.1/" xmlns:ev="http://www.w3.org/2001/xml-events" xmlns:inkscape="http://www.inkscape.org/namespaces/inkscape" xmlns:rdf="http://www.w3.org/1999/02/22-rdf-syntax-ns" xmlns:sodipodi="http://sodipodi.sourceforge.net/DTD/sodipodi-0.dtd" xmlns:xlink="http://www.w3.org/1999/xlink" baseProfile="tiny" height="8.0cm" version="1.2" viewBox="0 0 604.7244094488188 302.3622047244094" width="16.0cm">
  <metadata>
    <rdf:RDF>
      <cc:Work>
        <dc:format>image/svg+xml</dc:format>
        <dc:source>vpype -I figures/fig_pscale.vpy write figures/fig_pscale.svg
</dc:source>
        <dc:date>2022-03-31T13:02:42.040147</dc:date>
      </cc:Work>
    </rdf:RDF>
  </metadata>
  <defs/>
  <g fill="none" id="layer9" inkscape:groupmode="layer" inkscape:label="9" stroke="#0000ff" style="display:inline">
    <polygon points="147.195,23.9293 145.5028,115.0447 232.1714,173.4859 243.9472,81.6833"/>
    <line x1="148.6834" x2="148.613" y1="24.8337" y2="28.3218"/>
    <line x1="151.4817" x2="151.4278" y1="27.6865" y2="30.0103"/>
    <polyline points="151.4701,28.1854 151.1802,27.6748 150.8865,27.3306 150.4405,27.0639 150.1398,27.0526 149.8357,27.2074 149.6767,27.6169 149.6697,27.9488 149.8072,28.5349 150.0965,29.0439 150.3893,29.3873 150.8341,29.6542 151.1347,29.6666 151.4393,29.5133"/>
    <line x1="152.3756" x2="153.2124" y1="28.2209" y2="31.0809"/>
    <polyline points="154.1673,29.2923 153.2124,31.0809 152.8982,31.5643 152.5927,31.7164 152.2915,31.7031 152.143,31.6139"/>
    <polyline points="154.8887,30.7377 156.6861,31.8139 156.6957,31.4814 156.5552,31.0588 156.4099,30.8025 156.1145,30.4565 155.6646,30.1875 155.3603,30.1748 155.0517,30.3285 154.8887,30.7377 154.8797,31.0699 155.0158,31.6573 155.3058,32.1682 155.6002,32.5133 156.049,32.7826 156.3531,32.7964 156.6622,32.6443"/>
    <line x1="157.767" x2="157.6973" y1="31.4446" y2="33.7714"/>
    <polyline points="157.7371,32.4432 157.9024,32.0342 158.2134,31.8812 158.5197,31.8947 158.9717,32.165"/>
    <polyline points="162.4662,33.7434 162.7756,33.7578 163.2491,33.5286 163.1237,37.0267"/>
    <polygon points="129.5616,34.7759 129.5616,126.0897 216.3331,186.2102 226.4555,94.3775"/>
    <line x1="131.0507" x2="131.0451" y1="35.7077" y2="39.2082"/>
    <line x1="133.8715" x2="133.8607" y1="38.6166" y2="40.9486"/>
    <polyline points="133.8692,39.1173 133.573,38.6001 133.2761,38.2497 132.83,37.9749 132.5322,37.9586 132.2342,38.1092 132.0845,38.5177 132.0836,38.8508 132.2304,39.4414 132.5259,39.957 132.8218,40.3064 133.2669,40.5815 133.5644,40.5988 133.863,40.4499"/>
    <line x1="134.7657" x2="135.646" y1="39.1675" y2="42.0521"/>
    <polyline points="136.5581,40.2719 135.646,42.0521 135.3439,42.5323 135.0444,42.68 134.7462,42.6618 134.5977,42.5698"/>
    <polyline points="137.2983,41.7345 139.0965,42.844 139.0999,42.5103 138.9532,42.0838 138.8047,41.8242 138.5061,41.4721 138.056,41.1948 137.7547,41.1771 137.4522,41.3264 137.2983,41.7345 137.2955,42.0679 137.4409,42.6598 137.7371,43.1774 138.0347,43.5286 138.4837,43.8061 138.7849,43.8249 139.088,43.6772"/>
    <line x1="140.1594" x2="140.1328" y1="42.4908" y2="44.8255"/>
    <polyline points="140.148,43.4928 140.3042,43.0848 140.6091,42.9362 140.9125,42.9547 141.3647,43.2334"/>
    <polyline points="144.5458,44.8553 144.5485,44.6878 144.7057,44.4461 144.8603,44.3719 145.1669,44.3911 145.7751,44.7652 146.0765,45.1202 146.2256,45.3815 146.3718,45.8104 146.3657,46.1454 146.2076,46.3864 145.8948,46.7007 144.3515,47.4331 146.472,48.7438"/>
    <polygon points="111.3825,45.9583 113.1757,137.4429 200.0198,199.3161 208.377,107.4976"/>
    <line x1="112.8715" x2="112.9348" y1="46.9187" y2="50.4308"/>
    <line x1="115.7149" x2="115.75" y1="49.8858" y2="52.2254"/>
    <polyline points="115.7224,50.3882 115.4197,49.8641 115.1196,49.5075 114.6735,49.2241 114.3791,49.2027 114.0877,49.3486 113.9478,49.7559 113.9535,50.09 114.1101,50.6851 114.412,51.2075 114.7112,51.5632 115.1562,51.8468 115.4504,51.8693 115.7425,51.725"/>
    <line x1="116.609" x2="117.535" y1="50.454" y2="53.3633"/>
    <polyline points="118.4013,51.593 117.535,53.3633 117.2461,53.8398 116.9531,53.9828 116.6582,53.9594 116.5096,53.8646"/>
    <polyline points="119.1611,53.0733 120.9593,54.2175 120.9562,53.8828 120.8029,53.4523 120.6511,53.1893 120.3492,52.8308 119.8991,52.5448 119.6011,52.5218 119.3051,52.6664 119.1611,53.0733 119.1649,53.4077 119.32,54.0041 119.6228,54.5285 119.9237,54.886 120.3726,55.1722 120.6705,55.1963 120.9671,55.0534"/>
    <line x1="122.0026" x2="122.0218" y1="53.8815" y2="56.2235"/>
    <polyline points="122.0108,54.8867 122.1571,54.48 122.4556,54.3362 122.7556,54.36 123.2079,54.6475"/>
    <polyline points="126.5317,55.5858 128.2048,56.6473 127.295,57.4122 127.7507,57.7019 128.055,58.063 128.2073,58.3274 128.36,58.9269 128.3605,59.2618 128.2093,59.667 127.9063,59.8079 127.4519,59.685 126.9974,59.3953 126.5428,58.9388 126.3909,58.6753 126.2384,58.2446"/>
    <polygon points="32.6678,94.3775 42.7902,186.2102 129.5616,255.9214 129.5616,164.696"/>
    <line x1="34.1486" x2="34.5341" y1="95.4669" y2="99.014"/>
    <line x1="37.0821" x2="37.3318" y1="98.6908" y2="101.0529"/>
    <polyline points="37.1357,99.198 36.8041,98.6449 36.4904,98.2608 36.0471,97.9386 35.7699,97.8931 35.5111,98.0166 35.4181,98.416 35.4544,98.7533 35.656,99.3662 35.9867,99.9175 36.2994,100.3005 36.7416,100.6228 37.0188,100.6695 37.2784,100.5478"/>
    <line x1="37.9708" x2="39.1063" y1="99.3367" y2="102.3461"/>
    <polyline points="39.7526,100.6316 39.1063,102.3461 38.8802,102.8029 38.6195,102.9231 38.3416,102.8754 38.1939,102.7676"/>
    <polyline points="40.6003,102.1866 42.3886,103.4878 42.3547,103.1499 42.1715,102.7032 42.0051,102.4255 41.6895,102.0393 41.2419,101.714 40.9609,101.6665 40.6974,101.7881 40.6003,102.1866 40.6348,102.5242 40.8351,103.1383 41.1668,103.6918 41.4814,104.077 41.9278,104.4023 42.2088,104.451 42.4731,104.3313"/>
    <line x1="43.3339" x2="43.5681" y1="103.2343" y2="105.5977"/>
    <polyline points="43.4344,104.2488 43.5338,103.8506 43.7999,103.7301 44.083,103.7787 44.5329,104.1057"/>
    <line x1="49.5487" x2="48.368" y1="106.6435" y2="109.0957"/>
    <line x1="47.4298" x2="49.5487" y1="105.1056" y2="106.6435"/>
    <polygon points="11.3386,107.4976 23.8744,199.3161 110.5193,271.2198 108.0539,180.3047"/>
    <line x1="12.8149" x2="13.2945" y1="108.6234" y2="112.1757"/>
    <line x1="15.7708" x2="16.0832" y1="111.9181" y2="114.2835"/>
    <polyline points="15.8379,112.426 15.4982,111.8651 15.181,111.4735 14.7391,111.1404 14.4673,111.0879 14.2184,111.2046 14.1394,111.6011 14.1847,111.9389 14.3992,112.5561 14.7379,113.1152 15.0541,113.5057 15.4949,113.8388 15.7666,113.8926 16.0164,113.7777"/>
    <line x1="16.6566" x2="17.8521" y1="112.5859" y2="115.6205"/>
    <polyline points="18.4328,113.9248 17.8521,115.6205 17.6448,116.0709 17.3939,116.1842 17.1214,116.1294 16.9742,116.0179"/>
    <polyline points="19.3052,115.4996 21.0879,116.845 21.0451,116.5067 20.8533,116.0559 20.683,115.7742 20.3638,115.3804 19.9175,115.044 19.642,114.9893 19.3884,115.104 19.3052,115.4996 19.3486,115.8376 19.5619,116.456 19.9016,117.0173 20.2198,117.41 20.6649,117.7465 20.9404,117.8023 21.1949,117.6896"/>
    <line x1="22.0031" x2="22.3002" y1="116.6162" y2="118.9825"/>
    <polyline points="22.1306,117.6319 22.2161,117.2369 22.4723,117.1233 22.7499,117.1791 23.1985,117.5173"/>
    <polygon points="26.8086,119.158 26.3768,118.9875 26.2673,119.2137 26.3083,119.5532 26.4998,120.0059 26.8214,120.4024 27.4443,121.0262 27.9169,121.5367 28.2589,122.1028 28.45,122.5549 28.5102,123.0619 28.3996,123.2856 28.2691,123.3405 27.8377,123.1679 27.2363,122.7133 26.7653,122.2041 26.5947,121.9219 26.4037,121.4709 26.3424,120.964 26.4517,120.7392 26.7117,120.6276 27.143,120.7989 27.7256,121.0841 28.0072,121.1421 28.1178,120.9167 28.0774,120.5772 27.8858,120.1236 27.4123,119.6125"/>
    <line x1="145.2968" x2="145.2968" y1="272.1242" y2="278.4329"/>
    <polyline points="145.2968,273.0254 145.8977,272.4246 146.4985,272.1242 147.3998,272.1242 148.0006,272.4246 148.6014,273.0254 148.9018,273.9267 148.9018,274.5275 148.6014,275.4288 148.0006,276.0296 147.3998,276.33 146.4985,276.33 145.8977,276.0296 145.2968,275.4288"/>
    <polyline points="154.0089,273.0254 153.7085,272.4246 152.8073,272.1242 151.906,272.1242 151.0048,272.4246 150.7043,273.0254 151.0048,273.6263 151.6056,273.9267 153.1077,274.2271 153.7085,274.5275 154.0089,275.1284 154.0089,275.4288 153.7085,276.0296 152.8073,276.33 151.906,276.33 151.0048,276.0296 150.7043,275.4288"/>
    <polyline points="159.4164,273.0254 158.8156,272.4246 158.2148,272.1242 157.3135,272.1242 156.7127,272.4246 156.1118,273.0254 155.8114,273.9267 155.8114,274.5275 156.1118,275.4288 156.7127,276.0296 157.3135,276.33 158.2148,276.33 158.8156,276.0296 159.4164,275.4288"/>
    <line x1="164.8239" x2="164.8239" y1="272.1242" y2="276.33"/>
    <polyline points="164.8239,273.0254 164.2231,272.4246 163.6223,272.1242 162.721,272.1242 162.1202,272.4246 161.5193,273.0254 161.2189,273.9267 161.2189,274.5275 161.5193,275.4288 162.1202,276.0296 162.721,276.33 163.6223,276.33 164.2231,276.0296 164.8239,275.4288"/>
    <line x1="167.2273" x2="167.2273" y1="270.0213" y2="276.33"/>
    <polyline points="169.3302,273.9267 172.9352,273.9267 172.9352,273.3259 172.6348,272.725 172.3343,272.4246 171.7335,272.1242 170.8323,272.1242 170.2314,272.4246 169.6306,273.0254 169.3302,273.9267 169.3302,274.5275 169.6306,275.4288 170.2314,276.0296 170.8323,276.33 171.7335,276.33 172.3343,276.0296 172.9352,275.4288"/>
    <line x1="179.8447" x2="185.2522" y1="273.6263" y2="273.6263"/>
    <line x1="187.6556" x2="187.6556" y1="270.0213" y2="276.33"/>
    <polyline points="197.5693,270.0213 194.5652,274.2271 199.0714,274.2271"/>
    <line x1="197.5693" x2="197.5693" y1="270.0213" y2="276.33"/>
    <polyline points="201.1743,275.1284 200.8739,275.4288 200.5735,275.1284 200.8739,274.8279 201.1743,275.1284 201.1743,275.7292 200.5735,276.33"/>
    <polyline points="206.5818,270.0213 203.5777,270.0213 203.2772,272.725 203.5777,272.4246 204.4789,272.1242 205.3802,272.1242 206.2814,272.4246 206.8822,273.0254 207.1826,273.9267 207.1826,274.5275 206.8822,275.4288 206.2814,276.0296 205.3802,276.33 204.4789,276.33 203.5777,276.0296 203.2772,275.7292 202.9768,275.1284"/>
    <polyline points="209.586,275.1284 209.2856,275.4288 208.9851,275.1284 209.2856,274.8279 209.586,275.1284 209.586,275.7292 208.9851,276.33"/>
    <polyline points="215.2939,270.9225 214.9935,270.3217 214.0922,270.0213 213.4914,270.0213 212.5901,270.3217 211.9893,271.2229 211.6889,272.725 211.6889,274.2271 211.9893,275.4288 212.5901,276.0296 213.4914,276.33 213.7918,276.33 214.6931,276.0296 215.2939,275.4288 215.5943,274.5275 215.5943,274.2271 215.2939,273.3259 214.6931,272.725 213.7918,272.4246 213.4914,272.4246 212.5901,272.725 211.9893,273.3259 211.6889,274.2271"/>
    <polygon points="222.5039,274.8279 222.2035,275.1284 222.5039,275.4288 222.8043,275.1284"/>
    <polyline points="228.2118,270.0213 225.2076,270.0213 224.9072,272.725 225.2076,272.4246 226.1089,272.1242 227.0101,272.1242 227.9114,272.4246 228.5122,273.0254 228.8126,273.9267 228.8126,274.5275 228.5122,275.4288 227.9114,276.0296 227.0101,276.33 226.1089,276.33 225.2076,276.0296 224.9072,275.7292 224.6068,275.1284"/>
    <polygon points="235.7222,274.8279 235.4218,275.1284 235.7222,275.4288 236.0226,275.1284"/>
    <polyline points="241.4301,270.0213 238.426,270.0213 238.1256,272.725 238.426,272.4246 239.3272,272.1242 240.2285,272.1242 241.1297,272.4246 241.7305,273.0254 242.031,273.9267 242.031,274.5275 241.7305,275.4288 241.1297,276.0296 240.2285,276.33 239.3272,276.33 238.426,276.0296 238.1256,275.7292 237.8251,275.1284"/>
    <polygon points="248.9405,274.8279 248.6401,275.1284 248.9405,275.4288 249.241,275.1284"/>
    <polyline points="254.6485,270.0213 251.6443,270.0213 251.3439,272.725 251.6443,272.4246 252.5455,272.1242 253.4468,272.1242 254.348,272.4246 254.9489,273.0254 255.2493,273.9267 255.2493,274.5275 254.9489,275.4288 254.348,276.0296 253.4468,276.33 252.5455,276.33 251.6443,276.0296 251.3439,275.7292 251.0435,275.1284"/>
    <polygon points="437.8657,23.9293 436.1736,115.0447 522.8422,173.4859 534.6179,81.6833"/>
    <line x1="439.3541" x2="439.2838" y1="24.8337" y2="28.3218"/>
    <line x1="442.1524" x2="442.0985" y1="27.6865" y2="30.0103"/>
    <polyline points="442.1408,28.1854 441.8509,27.6748 441.5572,27.3306 441.1112,27.0639 440.8105,27.0526 440.5064,27.2074 440.3474,27.6169 440.3404,27.9488 440.478,28.5349 440.7672,29.0439 441.06,29.3873 441.5049,29.6542 441.8054,29.6666 442.1101,29.5133"/>
    <line x1="443.0463" x2="443.8832" y1="28.2209" y2="31.0809"/>
    <polyline points="444.8381,29.2923 443.8832,31.0809 443.5689,31.5643 443.2634,31.7164 442.9622,31.7031 442.8137,31.6139"/>
    <polyline points="445.5594,30.7377 447.3568,31.8139 447.3664,31.4814 447.2259,31.0588 447.0806,30.8025 446.7852,30.4565 446.3353,30.1875 446.031,30.1748 445.7225,30.3285 445.5594,30.7377 445.5505,31.0699 445.6865,31.6573 445.9765,32.1682 446.2709,32.5133 446.7197,32.7826 447.0238,32.7964 447.3329,32.6443"/>
    <line x1="448.4377" x2="448.3681" y1="31.4446" y2="33.7714"/>
    <polyline points="448.4078,32.4432 448.5731,32.0342 448.8841,31.8812 449.1904,31.8947 449.6424,32.165"/>
    <polyline points="453.1369,33.7434 453.4463,33.7578 453.9198,33.5286 453.7945,37.0267"/>
    <polygon points="420.2324,34.7759 420.2324,126.0897 507.0038,186.2102 517.1263,94.3775"/>
    <line x1="421.7214" x2="421.7158" y1="35.7077" y2="39.2082"/>
    <line x1="424.5422" x2="424.5315" y1="38.6166" y2="40.9486"/>
    <polyline points="424.5399,39.1173 424.2437,38.6001 423.9468,38.2497 423.5007,37.9749 423.2029,37.9586 422.905,38.1092 422.7552,38.5177 422.7543,38.8508 422.9012,39.4414 423.1966,39.957 423.4926,40.3064 423.9376,40.5815 424.2352,40.5988 424.5338,40.4499"/>
    <line x1="425.4364" x2="426.3167" y1="39.1675" y2="42.0521"/>
    <polyline points="427.2289,40.2719 426.3167,42.0521 426.0147,42.5323 425.7152,42.68 425.4169,42.6618 425.2684,42.5698"/>
    <polyline points="427.969,41.7345 429.7672,42.844 429.7707,42.5103 429.6239,42.0838 429.4754,41.8242 429.1768,41.4721 428.7267,41.1948 428.4254,41.1771 428.1229,41.3264 427.969,41.7345 427.9662,42.0679 428.1116,42.6598 428.4078,43.1774 428.7055,43.5286 429.1544,43.8061 429.4556,43.8249 429.7587,43.6772"/>
    <line x1="430.8301" x2="430.8036" y1="42.4908" y2="44.8255"/>
    <polyline points="430.8187,43.4928 430.9749,43.0848 431.2799,42.9362 431.5832,42.9547 432.0355,43.2334"/>
    <polyline points="435.2165,44.8553 435.2192,44.6878 435.3764,44.4461 435.531,44.3719 435.8376,44.3911 436.4458,44.7652 436.7472,45.1202 436.8964,45.3815 437.0425,45.8104 437.0364,46.1454 436.8783,46.3864 436.5655,46.7007 435.0222,47.4331 437.1428,48.7438"/>
    <polygon points="402.0532,45.9583 403.8464,137.4429 490.6905,199.3161 499.0477,107.4976"/>
    <line x1="403.5423" x2="403.6055" y1="46.9187" y2="50.4308"/>
    <line x1="406.3856" x2="406.4207" y1="49.8858" y2="52.2254"/>
    <polyline points="406.3932,50.3882 406.0905,49.8641 405.7903,49.5075 405.3443,49.2241 405.0498,49.2027 404.7584,49.3486 404.6185,49.7559 404.6242,50.09 404.7808,50.6851 405.0828,51.2075 405.3819,51.5632 405.8269,51.8468 406.1212,51.8693 406.4132,51.725"/>
    <line x1="407.2797" x2="408.2058" y1="50.454" y2="53.3633"/>
    <polyline points="409.072,51.593 408.2058,53.3633 407.9168,53.8398 407.6238,53.9828 407.3289,53.9594 407.1803,53.8646"/>
    <polyline points="409.8318,53.0733 411.63,54.2175 411.6269,53.8828 411.4736,53.4523 411.3218,53.1893 411.0199,52.8308 410.5698,52.5448 410.2718,52.5218 409.9758,52.6664 409.8318,53.0733 409.8356,53.4077 409.9907,54.0041 410.2935,54.5285 410.5944,54.886 411.0434,55.1722 411.3413,55.1963 411.6378,55.0534"/>
    <line x1="412.6733" x2="412.6925" y1="53.8815" y2="56.2235"/>
    <polyline points="412.6815,54.8867 412.8279,54.48 413.1263,54.3362 413.4263,54.36 413.8787,54.6475"/>
    <polyline points="417.2024,55.5858 418.8755,56.6473 417.9657,57.4122 418.4214,57.7019 418.7257,58.063 418.878,58.3274 419.0307,58.9269 419.0312,59.2618 418.88,59.667 418.5771,59.8079 418.1226,59.685 417.6681,59.3953 417.2135,58.9388 417.0616,58.6753 416.9091,58.2446"/>
    <polygon points="323.3385,94.3775 333.4609,186.2102 420.2324,255.9214 420.2324,164.696"/>
    <line x1="324.8193" x2="325.2048" y1="95.4669" y2="99.014"/>
    <line x1="327.7528" x2="328.0025" y1="98.6908" y2="101.0529"/>
    <polyline points="327.8064,99.198 327.4748,98.6449 327.1611,98.2608 326.7178,97.9386 326.4406,97.8931 326.1818,98.0166 326.0888,98.416 326.1251,98.7533 326.3268,99.3662 326.6575,99.9175 326.9701,100.3005 327.4123,100.6228 327.6895,100.6695 327.9491,100.5478"/>
    <line x1="328.6415" x2="329.777" y1="99.3367" y2="102.3461"/>
    <polyline points="330.4233,100.6316 329.777,102.3461 329.5509,102.8029 329.2903,102.9231 329.0123,102.8754 328.8647,102.7676"/>
    <polyline points="331.2711,102.1866 333.0593,103.4878 333.0254,103.1499 332.8422,102.7032 332.6759,102.4255 332.3603,102.0393 331.9127,101.714 331.6317,101.6665 331.3682,101.7881 331.2711,102.1866 331.3055,102.5242 331.5058,103.1383 331.8375,103.6918 332.1521,104.077 332.5986,104.4023 332.8795,104.451 333.1438,104.3313"/>
    <line x1="334.0046" x2="334.2388" y1="103.2343" y2="105.5977"/>
    <polyline points="334.1051,104.2488 334.2045,103.8506 334.4706,103.7301 334.7537,103.7787 335.2036,104.1057"/>
    <line x1="340.2195" x2="339.0387" y1="106.6435" y2="109.0957"/>
    <line x1="338.1005" x2="340.2195" y1="105.1056" y2="106.6435"/>
    <polygon points="302.0093,107.4976 314.5452,199.3161 401.1901,271.2198 398.7246,180.3047"/>
    <line x1="303.4856" x2="303.9652" y1="108.6234" y2="112.1757"/>
    <line x1="306.4415" x2="306.7539" y1="111.9181" y2="114.2835"/>
    <polyline points="306.5086,112.426 306.1689,111.8651 305.8517,111.4735 305.4098,111.1404 305.138,111.0879 304.8892,111.2046 304.8101,111.6011 304.8554,111.9389 305.07,112.5561 305.4086,113.1152 305.7248,113.5057 306.1656,113.8388 306.4374,113.8926 306.6871,113.7777"/>
    <line x1="307.3274" x2="308.5228" y1="112.5859" y2="115.6205"/>
    <polyline points="309.1036,113.9248 308.5228,115.6205 308.3155,116.0709 308.0647,116.1842 307.7921,116.1294 307.6449,116.0179"/>
    <polyline points="309.9759,115.4996 311.7587,116.845 311.7158,116.5067 311.524,116.0559 311.3537,115.7742 311.0345,115.3804 310.5883,115.044 310.3127,114.9893 310.0591,115.104 309.9759,115.4996 310.0193,115.8376 310.2326,116.456 310.5724,117.0173 310.8905,117.41 311.3356,117.7465 311.6112,117.8023 311.8656,117.6896"/>
    <line x1="312.6738" x2="312.9709" y1="116.6162" y2="118.9825"/>
    <polyline points="312.8013,117.6319 312.8868,117.2369 313.143,117.1233 313.4207,117.1791 313.8693,117.5173"/>
    <polygon points="317.4794,119.158 317.0476,118.9875 316.938,119.2137 316.979,119.5532 317.1705,120.0059 317.4921,120.4024 318.115,121.0262 318.5876,121.5367 318.9296,122.1028 319.1207,122.5549 319.1809,123.0619 319.0704,123.2856 318.9398,123.3405 318.5084,123.1679 317.907,122.7133 317.436,122.2041 317.2655,121.9219 317.0745,121.4709 317.0131,120.964 317.1224,120.7392 317.3824,120.6276 317.8137,120.7989 318.3963,121.0841 318.6779,121.1421 318.7885,120.9167 318.7481,120.5772 318.5565,120.1236 318.083,119.6125"/>
    <line x1="435.9676" x2="435.9676" y1="272.1242" y2="278.4329"/>
    <polyline points="435.9676,273.0254 436.5684,272.4246 437.1692,272.1242 438.0705,272.1242 438.6713,272.4246 439.2722,273.0254 439.5726,273.9267 439.5726,274.5275 439.2722,275.4288 438.6713,276.0296 438.0705,276.33 437.1692,276.33 436.5684,276.0296 435.9676,275.4288"/>
    <polyline points="444.6796,273.0254 444.3792,272.4246 443.478,272.1242 442.5767,272.1242 441.6755,272.4246 441.3751,273.0254 441.6755,273.6263 442.2763,273.9267 443.7784,274.2271 444.3792,274.5275 444.6796,275.1284 444.6796,275.4288 444.3792,276.0296 443.478,276.33 442.5767,276.33 441.6755,276.0296 441.3751,275.4288"/>
    <polyline points="450.0871,273.0254 449.4863,272.4246 448.8855,272.1242 447.9842,272.1242 447.3834,272.4246 446.7826,273.0254 446.4821,273.9267 446.4821,274.5275 446.7826,275.4288 447.3834,276.0296 447.9842,276.33 448.8855,276.33 449.4863,276.0296 450.0871,275.4288"/>
    <line x1="455.4946" x2="455.4946" y1="272.1242" y2="276.33"/>
    <polyline points="455.4946,273.0254 454.8938,272.4246 454.293,272.1242 453.3917,272.1242 452.7909,272.4246 452.1901,273.0254 451.8896,273.9267 451.8896,274.5275 452.1901,275.4288 452.7909,276.0296 453.3917,276.33 454.293,276.33 454.8938,276.0296 455.4946,275.4288"/>
    <line x1="457.898" x2="457.898" y1="270.0213" y2="276.33"/>
    <polyline points="460.0009,273.9267 463.6059,273.9267 463.6059,273.3259 463.3055,272.725 463.0051,272.4246 462.4042,272.1242 461.503,272.1242 460.9021,272.4246 460.3013,273.0254 460.0009,273.9267 460.0009,274.5275 460.3013,275.4288 460.9021,276.0296 461.503,276.33 462.4042,276.33 463.0051,276.0296 463.6059,275.4288"/>
    <line x1="470.5155" x2="475.923" y1="273.6263" y2="273.6263"/>
    <line x1="478.3263" x2="478.3263" y1="270.0213" y2="276.33"/>
    <polyline points="488.24,270.0213 485.2359,274.2271 489.7421,274.2271"/>
    <line x1="488.24" x2="488.24" y1="270.0213" y2="276.33"/>
    <polyline points="491.845,275.1284 491.5446,275.4288 491.2442,275.1284 491.5446,274.8279 491.845,275.1284 491.845,275.7292 491.2442,276.33"/>
    <polyline points="497.2525,270.0213 494.2484,270.0213 493.948,272.725 494.2484,272.4246 495.1496,272.1242 496.0509,272.1242 496.9521,272.4246 497.553,273.0254 497.8534,273.9267 497.8534,274.5275 497.553,275.4288 496.9521,276.0296 496.0509,276.33 495.1496,276.33 494.2484,276.0296 493.948,275.7292 493.6475,275.1284"/>
    <polyline points="500.2567,275.1284 499.9563,275.4288 499.6559,275.1284 499.9563,274.8279 500.2567,275.1284 500.2567,275.7292 499.6559,276.33"/>
    <polyline points="505.9646,270.9225 505.6642,270.3217 504.763,270.0213 504.1621,270.0213 503.2609,270.3217 502.66,271.2229 502.3596,272.725 502.3596,274.2271 502.66,275.4288 503.2609,276.0296 504.1621,276.33 504.4625,276.33 505.3638,276.0296 505.9646,275.4288 506.265,274.5275 506.265,274.2271 505.9646,273.3259 505.3638,272.725 504.4625,272.4246 504.1621,272.4246 503.2609,272.725 502.66,273.3259 502.3596,274.2271"/>
    <line x1="513.1746" x2="518.5821" y1="273.6263" y2="273.6263"/>
    <polygon points="522.1871,272.1242 521.5863,272.4246 520.9854,273.0254 520.685,273.9267 520.685,274.5275 520.9854,275.4288 521.5863,276.0296 522.1871,276.33 523.0884,276.33 523.6892,276.0296 524.29,275.4288 524.5904,274.5275 524.5904,273.9267 524.29,273.0254 523.6892,272.4246 523.0884,272.1242"/>
    <line x1="531.1996" x2="532.4013" y1="272.1242" y2="276.33"/>
    <line x1="533.6029" x2="532.4013" y1="272.1242" y2="276.33"/>
    <line x1="533.6029" x2="534.8046" y1="272.1242" y2="276.33"/>
    <line x1="536.0063" x2="534.8046" y1="272.1242" y2="276.33"/>
    <polygon points="539.3109,272.1242 538.71,272.4246 538.1092,273.0254 537.8088,273.9267 537.8088,274.5275 538.1092,275.4288 538.71,276.0296 539.3109,276.33 540.2121,276.33 540.8129,276.0296 541.4138,275.4288 541.7142,274.5275 541.7142,273.9267 541.4138,273.0254 540.8129,272.4246 540.2121,272.1242"/>
    <line x1="543.8171" x2="543.8171" y1="272.1242" y2="276.33"/>
    <polyline points="543.8171,273.9267 544.1175,273.0254 544.7184,272.4246 545.3192,272.1242 546.2204,272.1242"/>
    <line x1="547.7225" x2="547.7225" y1="270.0213" y2="276.33"/>
    <line x1="553.4304" x2="553.4304" y1="270.0213" y2="276.33"/>
    <polyline points="553.4304,273.0254 552.8296,272.4246 552.2288,272.1242 551.3275,272.1242 550.7267,272.4246 550.1258,273.0254 549.8254,273.9267 549.8254,274.5275 550.1258,275.4288 550.7267,276.0296 551.3275,276.33 552.2288,276.33 552.8296,276.0296 553.4304,275.4288"/>
    <polygon points="560.6404,274.8279 560.34,275.1284 560.6404,275.4288 560.9408,275.1284"/>
    <polyline points="566.3483,270.0213 563.3442,270.0213 563.0438,272.725 563.3442,272.4246 564.2454,272.1242 565.1467,272.1242 566.0479,272.4246 566.6488,273.0254 566.9492,273.9267 566.9492,274.5275 566.6488,275.4288 566.0479,276.0296 565.1467,276.33 564.2454,276.33 563.3442,276.0296 563.0438,275.7292 562.7433,275.1284"/>
    <polygon points="573.8588,274.8279 573.5583,275.1284 573.8588,275.4288 574.1592,275.1284"/>
    <polyline points="579.5667,270.0213 576.5625,270.0213 576.2621,272.725 576.5625,272.4246 577.4638,272.1242 578.365,272.1242 579.2663,272.4246 579.8671,273.0254 580.1675,273.9267 580.1675,274.5275 579.8671,275.4288 579.2663,276.0296 578.365,276.33 577.4638,276.33 576.5625,276.0296 576.2621,275.7292 575.9617,275.1284"/>
    <polygon points="587.0771,274.8279 586.7767,275.1284 587.0771,275.4288 587.3775,275.1284"/>
    <polyline points="592.785,270.0213 589.7808,270.0213 589.4804,272.725 589.7808,272.4246 590.6821,272.1242 591.5833,272.1242 592.4846,272.4246 593.0854,273.0254 593.3858,273.9267 593.3858,274.5275 593.0854,275.4288 592.4846,276.0296 591.5833,276.33 590.6821,276.33 589.7808,276.0296 589.4804,275.7292 589.18,275.1284"/>
  </g>
  <g fill="none" id="layer10" inkscape:groupmode="layer" inkscape:label="10" stroke="#008800" style="display:inline">
    <polygon points="115.8248,97.265 116.5425,143.0425 161.105,174.9145 162.9145,129.1084"/>
    <line x1="116.5773" x2="116.6021" y1="97.7813" y2="99.4555"/>
    <line x1="118.0101" x2="118.0248" y1="99.3041" y2="100.4197"/>
    <polyline points="118.0132,99.5434 117.861,99.2823 117.7099,99.101 117.4848,98.9487 117.336,98.9269 117.1883,98.985 117.1168,99.1734 117.119,99.3327 117.1973,99.6224 117.3493,99.8831 117.5002,100.0642 117.725,100.2165 117.8738,100.2385 118.0217,100.1809"/>
    <line x1="118.4606" x2="118.9252" y1="99.609" y2="101.0298"/>
    <polyline points="119.3628,100.2195 118.9252,101.0298 118.779,101.2463 118.6309,101.3036 118.4819,101.2814 118.4069,101.2305"/>
    <polyline points="119.7446,100.9527 120.6483,101.5646 120.6466,101.4052 120.5696,101.1946 120.4934,101.0638 120.3418,100.882 120.1158,100.729 119.966,100.7069 119.8171,100.7645 119.7446,100.9527 119.7464,101.1121 119.8243,101.402 119.9765,101.6632 120.1278,101.8448 120.3536,101.9978 120.5033,102.0202 120.6523,101.963"/>
    <line x1="121.1715" x2="121.1822" y1="101.4434" y2="102.5593"/>
    <polyline points="121.1761,101.922 121.2492,101.7339 121.3987,101.6765 121.549,101.6989 121.7756,101.8523"/>
    <polyline points="124.0431,102.83 123.2926,103.4345 124.4293,104.2042"/>
    <line x1="124.0431" x2="124.0537" y1="102.83" y2="104.5052"/>
    <polygon points="97.0013,109.6997 98.728,155.5045 143.2909,188.3587 144.0915,142.5811"/>
    <line x1="97.7534" x2="97.8152" y1="110.2323" y2="111.9088"/>
    <line x1="99.1977" x2="99.2371" y1="111.7867" y2="112.9037"/>
    <polyline points="99.2062,112.0263 99.0505,111.7617 98.8977,111.577 98.6728,111.4199 98.5258,111.395 98.3817,111.45 98.3155,111.6372 98.3213,111.7967 98.4048,112.0883 98.5603,112.3525 98.7128,112.5369 98.9375,112.6941 99.0844,112.7192 99.2287,112.6646"/>
    <line x1="99.6481" x2="100.137" y1="112.1013" y2="113.5334"/>
    <polyline points="100.5498,112.7314 100.137,113.5334 99.9978,113.747 99.8534,113.8012 99.7062,113.7759 99.6313,113.7234"/>
    <polyline points="100.9418,113.4734 101.8451,114.1049 101.8399,113.9452 101.7594,113.7328 101.6815,113.6003 101.5282,113.4151 101.3023,113.2572 101.1543,113.2319 101.0091,113.2864 100.9418,113.4734 100.9472,113.633 101.0303,113.9248 101.186,114.1895 101.339,114.3744 101.5646,114.5323 101.7125,114.5579 101.8579,114.5038"/>
    <line x1="102.3575" x2="102.3928" y1="113.9945" y2="115.1118"/>
    <polyline points="102.3726,114.4737 102.4405,114.2869 102.5863,114.2326 102.7348,114.2582 102.9613,114.4164"/>
    <polyline points="105.3672,115.5488 104.6088,115.0192 104.554,115.6859 104.6274,115.6589 104.8524,115.7378 105.0797,115.8967 105.3094,116.1355 105.4656,116.4013 105.5481,116.6938 105.5526,116.8535 105.4835,117.0398 105.3365,117.0933 105.1116,117.0141 104.8845,116.8552 104.6553,116.6167 104.5773,116.4841 104.497,116.2716"/>
    <polygon points="77.5718,122.5347 80.3709,168.346 124.9128,202.2285 124.6372,156.5056"/>
    <line x1="78.3233" x2="78.4244" y1="123.0844" y2="124.7625"/>
    <line x1="79.7791" x2="79.8447" y1="124.6716" y2="125.7896"/>
    <polyline points="79.7931,124.9114 79.6339,124.6433 79.4794,124.4551 79.2547,124.2929 79.1098,124.2647 78.9696,124.3164 78.9091,124.5021 78.9187,124.6618 79.0077,124.9553 79.1667,125.223 79.321,125.4109 79.5454,125.5732 79.6903,125.6016 79.8306,125.5503"/>
    <line x1="80.2289" x2="80.7435" y1="124.9965" y2="126.4397"/>
    <polyline points="81.1296,125.647 80.7435,126.4397 80.612,126.6502 80.4715,126.7012 80.3263,126.6725 80.2515,126.6183"/>
    <polyline points="81.5325,126.3979 82.4348,127.05 82.4259,126.8902 82.3417,126.6759 82.262,126.5416 82.107,126.3529 81.8813,126.1899 81.7354,126.1613 81.5941,126.2125 81.5325,126.3979 81.5416,126.5577 81.6303,126.8514 81.7895,127.1196 81.9442,127.3081 82.1696,127.4711 82.3155,127.5 82.457,127.4492"/>
    <line x1="82.9354" x2="82.997" y1="126.9512" y2="128.0694"/>
    <polyline points="82.9618,127.4308 83.0239,127.2455 83.1659,127.1945 83.3123,127.2235 83.5386,127.3869"/>
    <polyline points="86.0171,128.869 85.9331,128.6541 85.7015,128.4099 85.55,128.3005 85.3269,128.2166 85.1881,128.3474 85.1335,128.6927 85.1545,129.0923 85.2469,129.4663 85.4064,129.7352 85.6374,129.979 85.713,130.0337 85.9358,130.1181 86.079,130.0679 86.1423,129.8831 86.1382,129.8033 86.0501,129.5088 85.8904,129.2395 85.659,128.9954 85.5833,128.9407 85.3604,128.8567 85.2175,128.9072 85.1545,129.0923"/>
    <polygon points="433.6553,79.3234 432.9692,125.0252 477.4949,155.5045 480.7017,109.6997"/>
    <line x1="434.4075" x2="434.381" y1="79.8167" y2="81.4862"/>
    <line x1="435.8231" x2="435.8037" y1="81.2943" y2="82.4068"/>
    <polyline points="435.819,81.5329 435.6717,81.2769 435.523,81.1003 435.2979,80.9549 435.1466,80.9376 434.9941,80.9998 434.9152,81.1898 434.9126,81.3487 434.9836,81.6354 435.1307,81.8911 435.2792,82.0674 435.5039,82.2128 435.6552,82.2304 435.8079,82.1687"/>
    <line x1="436.2737" x2="436.704" y1="81.5854" y2="82.9894"/>
    <polyline points="437.1758,82.1683 436.704,82.9894 436.548,83.2096 436.3951,83.2711 436.2437,83.2532 436.1687,83.2047"/>
    <polyline points="437.5428,82.8887 438.4463,83.4729 438.4496,83.3138 438.3775,83.106 438.3037,82.9777 438.1546,82.8008 437.9286,82.6547 437.7764,82.637 437.6227,82.6988 437.5428,82.8887 437.5397,83.0476 437.6103,83.3346 437.7576,83.5908 437.9065,83.7675 438.1322,83.9136 438.2843,83.9316 438.4382,83.8702"/>
    <line x1="438.9841" x2="438.9606" y1="83.3367" y2="84.4497"/>
    <polyline points="438.974,83.814 439.0545,83.6242 439.2088,83.5626 439.3615,83.5806 439.5881,83.727"/>
    <polyline points="441.8721,84.6363 441.0876,85.2613 442.2239,85.9961"/>
    <line x1="441.8721" x2="441.8314" y1="84.6363" y2="86.3073"/>
    <polygon points="424.741,85.2121 424.5089,130.9435 469.0514,161.8767 471.8072,116.066"/>
    <line x1="425.4934" x2="425.4835" y1="85.7129" y2="87.3842"/>
    <line x1="426.9148" x2="426.9064" y1="87.2053" y2="88.3189"/>
    <polyline points="426.913,87.4442 426.7641,87.1864 426.6146,87.0083 426.3895,86.8607 426.239,86.8419 426.088,86.9028 426.0115,87.0923 426.0104,87.2514 426.0838,87.5391 426.2325,87.7964 426.3818,87.9743 426.6065,88.1219 426.757,88.141 426.9082,88.0805"/>
    <line x1="427.3654" x2="427.8068" y1="87.5009" y2="88.9105"/>
    <polyline points="428.2676,88.0928 427.8068,88.9105 427.6539,89.1295 427.5026,89.1896 427.3519,89.1704 427.2769,89.1211"/>
    <polyline points="428.6394,88.8174 429.5431,89.4106 429.5448,89.2514 429.4711,89.0427 429.3965,88.9136 429.2466,88.735 429.0205,88.5867 428.8691,88.5675 428.717,88.628 428.6394,88.8174 428.6379,88.9765 428.7108,89.2645 428.8598,89.5223 429.0095,89.7006 429.2352,89.8489 429.3866,89.8684 429.5389,89.8083"/>
    <line x1="430.0762" x2="430.0638" y1="89.2793" y2="90.3933"/>
    <polyline points="430.0709,89.7571 430.149,89.5677 430.3018,89.5075 430.4537,89.5269 430.6803,89.6756"/>
    <polyline points="433.1111,90.7066 432.3524,90.2093 432.2669,90.8772 432.3437,90.8472 432.5721,90.9166 432.7995,91.0658 433.0259,91.2948 433.1753,91.5537 433.2476,91.8423 433.2452,92.0015 433.1659,92.1904 433.012,92.2499 432.7837,92.1801 432.5565,92.0309 432.3306,91.8023 432.256,91.6731 432.1825,91.4643"/>
    <polygon points="415.6888,91.1919 415.9245,136.9487 460.4793,168.346 462.7695,122.5347"/>
    <line x1="416.4413" x2="416.4485" y1="91.7004" y2="93.3732"/>
    <line x1="417.8684" x2="417.8714" y1="93.2078" y2="94.3225"/>
    <polyline points="417.869,93.4469 417.7185,93.1875 417.5682,93.0078 417.3431,92.8579 417.1934,92.8377 417.044,92.8971 416.97,93.0861 416.9706,93.2454 417.0463,93.534 417.1967,93.793 417.3468,93.9725 417.5715,94.1224 417.7212,94.1429 417.8707,94.0839"/>
    <line x1="418.319" x2="418.7718" y1="93.508" y2="94.9232"/>
    <polyline points="419.2213,94.1091 418.7718,94.9232 418.6222,95.141 418.4725,95.1997 418.3226,95.179 418.2477,95.129"/>
    <polyline points="419.598,94.838 420.5017,95.4405 420.5018,95.2811 420.4264,95.0715 420.3511,94.9416 420.2003,94.7614 419.9742,94.6108 419.8236,94.5901 419.6731,94.6492 419.598,94.838 419.5981,94.9973 419.6735,95.2862 419.8241,95.5457 419.9746,95.7256 420.2004,95.8763 420.3509,95.8972 420.5016,95.8385"/>
    <line x1="421.03" x2="421.029" y1="95.3141" y2="96.4291"/>
    <polyline points="421.0296,95.7923 421.1053,95.6036 421.2564,95.5447 421.4075,95.5656 421.6342,95.7166"/>
    <polyline points="424.1343,97.0621 424.0591,96.8519 423.8317,96.6204 423.6799,96.5194 423.4521,96.4477 423.2996,96.5862 423.2225,96.9346 423.2211,97.3331 423.2957,97.7021 423.4465,97.9622 423.6734,98.1933 423.7491,98.2438 423.9767,98.3159 424.1289,98.2578 424.2058,98.0695 424.2062,97.9898 424.1314,97.7002 423.9804,97.4397 423.7532,97.2083 423.6774,97.1578 423.4497,97.0861 423.2976,97.1445 423.2211,97.3331"/>
  </g>
</svg>
