<?xml version="1.0" encoding="utf-8" ?>
<svg xmlns="http://www.w3.org/2000/svg" xmlns:cc="http://creativecommons.org/ns" xmlns:dc="http://purl.org/dc/elements/1.1/" xmlns:ev="http://www.w3.org/2001/xml-events" xmlns:inkscape="http://www.inkscape.org/namespaces/inkscape" xmlns:rdf="http://www.w3.org/1999/02/22-rdf-syntax-ns" xmlns:sodipodi="http://sodipodi.sourceforge.net/DTD/sodipodi-0.dtd" xmlns:xlink="http://www.w3.org/1999/xlink" baseProfile="tiny" height="14.0cm" version="1.2" viewBox="0 0 1133.8582677165352 529.1338582677165" width="30.0cm">
  <metadata>
    <rdf:RDF>
      <cc:Work>
        <dc:format>image/svg+xml</dc:format>
        <dc:source>vpype -I figures/fig_protate.vpy write figures/fig_protate.svg
</dc:source>
        <dc:date>2022-03-31T13:50:41.880756</dc:date>
      </cc:Work>
    </rdf:RDF>
  </metadata>
  <defs/>
  <g fill="none" id="layer9" inkscape:groupmode="layer" inkscape:label="9" stroke="#0000ff" style="display:inline">
    <polygon points="274.9181,17.6814 271.6352,194.4575 439.7838,307.8411 462.6304,129.732"/>
    <line x1="277.8058" x2="277.6694" y1="19.436" y2="26.2034"/>
    <line x1="283.2349" x2="283.1304" y1="24.9708" y2="29.4795"/>
    <polyline points="283.2125,25.9388 282.65,24.9483 282.0802,24.2804 281.2149,23.763 280.6314,23.741 280.0415,24.0415 279.7331,24.8359 279.7194,25.4797 279.9863,26.617 280.5474,27.6045 281.1155,28.2707 281.9786,28.7885 282.5617,28.8126 283.1528,28.5152"/>
    <line x1="284.9692" x2="286.5928" y1="26.0078" y2="31.5565"/>
    <polyline points="288.4454,28.0864 286.5928,31.5565 285.9832,32.4944 285.3904,32.7894 284.8061,32.7636 284.518,32.5905"/>
    <polyline points="289.8449,30.8906 293.3322,32.9787 293.3508,32.3335 293.0782,31.5136 292.7962,31.0164 292.2232,30.3452 291.3503,29.8233 290.7599,29.7986 290.1613,30.0967 289.8449,30.8906 289.8276,31.5351 290.0916,32.6749 290.6541,33.6661 291.2254,34.3356 292.0961,34.8579 292.686,34.8847 293.2858,34.5897"/>
    <line x1="295.4293" x2="295.2941" y1="32.2622" y2="36.7764"/>
    <polyline points="295.3713,34.1996 295.692,33.406 296.2954,33.1092 296.8895,33.1353 297.7666,33.6597"/>
    <polyline points="304.5464,36.7221 305.1466,36.7499 306.0653,36.3053 305.822,43.0921"/>
    <polygon points="240.7071,38.7253 240.7071,215.8863 409.0554,332.528 428.6942,154.3604"/>
    <line x1="243.596" x2="243.5853" y1="40.5331" y2="47.3246"/>
    <line x1="249.0688" x2="249.0479" y1="46.1767" y2="50.7011"/>
    <polyline points="249.0643,47.1481 248.4897,46.1447 247.9137,45.465 247.0481,44.9317 246.4704,44.9002 245.8923,45.1924 245.6018,45.9849 245.6,46.6311 245.8849,47.777 246.4581,48.7773 247.0323,49.4553 247.8957,49.9889 248.4731,50.0225 249.0524,49.7335"/>
    <line x1="250.8036" x2="252.5116" y1="47.2456" y2="52.842"/>
    <polyline points="254.2812,49.3883 252.5116,52.842 251.9256,53.7737 251.3445,54.0602 250.7659,54.0249 250.4776,53.8465"/>
    <polyline points="255.7172,52.226 259.206,54.3785 259.2127,53.7311 258.928,52.9036 258.6399,52.4 258.0606,51.7168 257.1873,51.1788 256.6027,51.1445 256.0158,51.4341 255.7172,52.226 255.7119,52.8728 255.9939,54.0212 256.5686,55.0253 257.1461,55.7067 258.0171,56.2451 258.6014,56.2816 259.1895,55.9951"/>
    <line x1="261.2682" x2="261.2167" y1="53.6932" y2="58.2228"/>
    <polyline points="261.2461,55.6372 261.549,54.8457 262.1407,54.5574 262.7292,54.5933 263.6067,55.134"/>
    <polyline points="269.7783,58.2806 269.7836,57.9557 270.0886,57.4867 270.3885,57.3427 270.9834,57.38 272.1634,58.1059 272.7481,58.7945 273.0375,59.3016 273.321,60.1337 273.3092,60.7836 273.0025,61.2512 272.3956,61.861 269.4013,63.2819 273.5155,65.8249"/>
    <polygon points="205.4372,60.4206 208.9162,237.9129 377.4053,357.9553 393.6195,179.815"/>
    <line x1="208.3261" x2="208.4488" y1="62.284" y2="69.0978"/>
    <line x1="213.8426" x2="213.9106" y1="68.0405" y2="72.5796"/>
    <polyline points="213.8572,69.0151 213.2699,67.9984 212.6876,67.3066 211.8222,66.7566 211.2509,66.7151 210.6856,66.9983 210.4142,67.7885 210.4252,68.4367 210.729,69.5913 211.3148,70.6049 211.8953,71.2949 212.7586,71.8452 213.3295,71.8889 213.8961,71.6089"/>
    <line x1="215.5772" x2="217.3739" y1="69.1429" y2="74.7873"/>
    <polyline points="219.0545,71.3526 217.3739,74.7873 216.8133,75.7119 216.2449,75.9893 215.6727,75.9439 215.3845,75.7599"/>
    <polyline points="220.5286,74.2246 224.0174,76.4447 224.0113,75.7952 223.7139,74.96 223.4195,74.4497 222.8338,73.7542 221.9605,73.1993 221.3822,73.1548 220.8081,73.4353 220.5286,74.2246 220.5359,74.8735 220.837,76.0306 221.4243,77.048 222.0082,77.7416 222.8792,78.2968 223.4572,78.3435 224.0326,78.0663"/>
    <line x1="226.0415" x2="226.0788" y1="75.7927" y2="80.3365"/>
    <polyline points="226.0575,77.7429 226.3414,76.9539 226.9204,76.675 227.5025,76.7211 228.3801,77.2788"/>
    <polyline points="234.8287,79.0992 238.0747,81.1587 236.3094,82.6428 237.1936,83.2048 237.784,83.9053 238.0795,84.4183 238.3758,85.5814 238.3767,86.2312 238.0834,87.0173 237.4956,87.2907 236.6138,87.0523 235.7322,86.4903 234.8501,85.6046 234.5554,85.0934 234.2596,84.2577"/>
    <polygon points="52.72,154.3604 72.3589,332.528 240.7071,467.7772 240.7071,290.7876"/>
    <line x1="55.593" x2="56.3409" y1="156.474" y2="163.3558"/>
    <line x1="61.2844" x2="61.7689" y1="162.7287" y2="167.3116"/>
    <polyline points="61.3885,163.7128 60.7451,162.6396 60.1365,161.8945 59.2764,161.2694 58.7385,161.1811 58.2364,161.4207 58.0561,162.1955 58.1265,162.8501 58.5177,164.0391 59.1593,165.1087 59.7659,165.8518 60.6239,166.4771 61.1616,166.5677 61.6653,166.3316"/>
    <line x1="63.0086" x2="65.2117" y1="163.9818" y2="169.8205"/>
    <polyline points="66.4656,166.4941 65.2117,169.8205 64.773,170.7068 64.2673,170.94 63.7281,170.8473 63.4416,170.6383"/>
    <polyline points="68.1103,169.5111 71.5797,172.0355 71.514,171.38 71.1585,170.5133 70.8358,169.9745 70.2235,169.2252 69.3551,168.5941 68.8099,168.5019 68.2987,168.7379 68.1103,169.5111 68.1771,170.166 68.5658,171.3574 69.2093,172.4314 69.8196,173.1786 70.6858,173.8099 71.2309,173.9044 71.7437,173.672"/>
    <line x1="73.4137" x2="73.8681" y1="171.5437" y2="176.129"/>
    <polyline points="73.6088,173.5119 73.8017,172.7395 74.3179,172.5056 74.867,172.5999 75.74,173.2343"/>
    <line x1="85.4714" x2="83.1805" y1="178.158" y2="182.9156"/>
    <line x1="81.3603" x2="85.4714" y1="175.1744" y2="178.158"/>
    <polygon points="11.3386,179.815 35.6598,357.9553 203.7625,497.4581 198.9792,321.0706"/>
    <line x1="14.2029" x2="15.1333" y1="181.9992" y2="188.8913"/>
    <line x1="19.9376" x2="20.5438" y1="188.3914" y2="192.9807"/>
    <polyline points="20.0678,189.377 19.4088,188.2887 18.7934,187.5289 17.936,186.8826 17.4087,186.7807 16.9259,187.0072 16.7725,187.7764 16.8603,188.4319 17.2767,189.6293 17.9337,190.714 18.5471,191.4716 19.4023,192.118 19.9296,192.2222 20.4141,191.9994"/>
    <line x1="21.6563" x2="23.9756" y1="189.687" y2="195.5746"/>
    <polyline points="25.1024,192.2847 23.9756,195.5746 23.5734,196.4484 23.0868,196.6682 22.558,196.5618 22.2724,196.3457"/>
    <polyline points="26.7949,195.34 30.2536,197.9503 30.1705,197.2939 29.7984,196.4193 29.4679,195.8729 28.8486,195.1087 27.9829,194.4561 27.4482,194.3501 26.9563,194.5726 26.7949,195.34 26.8791,195.9958 27.2929,197.1956 27.9521,198.2847 28.5693,199.0466 29.4329,199.6993 29.9675,199.8077 30.4611,199.5888"/>
    <line x1="32.0292" x2="32.6055" y1="197.5063" y2="202.0973"/>
    <polyline points="32.2766,199.477 32.4424,198.7106 32.9394,198.4903 33.4781,198.5986 34.3485,199.2546"/>
    <polygon points="41.3525,202.4378 40.5148,202.107 40.3022,202.546 40.3818,203.2046 40.7534,204.0828 41.3772,204.8521 42.5859,206.0623 43.5027,207.0528 44.1663,208.1512 44.537,209.0283 44.6538,210.0118 44.4393,210.446 44.1861,210.5525 43.3491,210.2175 42.1822,209.3356 41.2685,208.3477 40.9376,207.8002 40.567,206.9252 40.4479,205.9418 40.6601,205.5056 41.1644,205.2891 42.0012,205.6214 43.1316,206.1748 43.6778,206.2873 43.8924,205.8499 43.814,205.1913 43.4424,204.3113 42.5238,203.3196"/>
    <line x1="271.2355" x2="271.2355" y1="499.2127" y2="511.4525"/>
    <polyline points="271.2355,500.9612 272.4012,499.7955 273.5669,499.2127 275.3154,499.2127 276.4811,499.7955 277.6468,500.9612 278.2297,502.7098 278.2297,503.8755 277.6468,505.624 276.4811,506.7897 275.3154,507.3726 273.5669,507.3726 272.4012,506.7897 271.2355,505.624"/>
    <line x1="282.3096" x2="282.3096" y1="499.2127" y2="507.3726"/>
    <polyline points="282.3096,502.7098 282.8925,500.9612 284.0582,499.7955 285.2239,499.2127 286.9724,499.2127"/>
    <polygon points="292.218,499.2127 291.0523,499.7955 289.8866,500.9612 289.3038,502.7098 289.3038,503.8755 289.8866,505.624 291.0523,506.7897 292.218,507.3726 293.9666,507.3726 295.1323,506.7897 296.298,505.624 296.8808,503.8755 296.8808,502.7098 296.298,500.9612 295.1323,499.7955 293.9666,499.2127"/>
    <polyline points="301.5436,495.1327 301.5436,505.0412 302.1265,506.7897 303.2922,507.3726 304.4579,507.3726"/>
    <line x1="299.7951" x2="303.875" y1="499.2127" y2="499.2127"/>
    <line x1="314.3663" x2="314.3663" y1="499.2127" y2="507.3726"/>
    <polyline points="314.3663,500.9612 313.2006,499.7955 312.0349,499.2127 310.2863,499.2127 309.1206,499.7955 307.9549,500.9612 307.3721,502.7098 307.3721,503.8755 307.9549,505.624 309.1206,506.7897 310.2863,507.3726 312.0349,507.3726 313.2006,506.7897 314.3663,505.624"/>
    <polyline points="319.6119,495.1327 319.6119,505.0412 320.1948,506.7897 321.3605,507.3726 322.5261,507.3726"/>
    <line x1="317.8634" x2="321.9433" y1="499.2127" y2="499.2127"/>
    <polyline points="325.4404,502.7098 332.4346,502.7098 332.4346,501.5441 331.8517,500.3784 331.2689,499.7955 330.1032,499.2127 328.3546,499.2127 327.1889,499.7955 326.0232,500.9612 325.4404,502.7098 325.4404,503.8755 326.0232,505.624 327.1889,506.7897 328.3546,507.3726 330.1032,507.3726 331.2689,506.7897 332.4346,505.624"/>
    <line x1="345.8401" x2="356.3313" y1="502.1269" y2="502.1269"/>
    <line x1="360.9941" x2="360.9941" y1="495.1327" y2="507.3726"/>
    <polyline points="380.2281,495.1327 374.3996,503.2926 383.1424,503.2926"/>
    <line x1="380.2281" x2="380.2281" y1="495.1327" y2="507.3726"/>
    <polyline points="387.2223,505.0412 386.6394,505.624 386.0566,505.0412 386.6394,504.4583 387.2223,505.0412 387.2223,506.2069 386.0566,507.3726"/>
    <polyline points="397.7136,495.1327 391.8851,495.1327 391.3022,500.3784 391.8851,499.7955 393.6336,499.2127 395.3822,499.2127 397.1307,499.7955 398.2964,500.9612 398.8793,502.7098 398.8793,503.8755 398.2964,505.624 397.1307,506.7897 395.3822,507.3726 393.6336,507.3726 391.8851,506.7897 391.3022,506.2069 390.7194,505.0412"/>
    <polyline points="403.542,505.0412 402.9592,505.624 402.3763,505.0412 402.9592,504.4583 403.542,505.0412 403.542,506.2069 402.3763,507.3726"/>
    <polyline points="414.6162,496.8813 414.0333,495.7156 412.2848,495.1327 411.1191,495.1327 409.3705,495.7156 408.2048,497.4641 407.622,500.3784 407.622,503.2926 408.2048,505.624 409.3705,506.7897 411.1191,507.3726 411.7019,507.3726 413.4505,506.7897 414.6162,505.624 415.199,503.8755 415.199,503.2926 414.6162,501.5441 413.4505,500.3784 411.7019,499.7955 411.1191,499.7955 409.3705,500.3784 408.2048,501.5441 407.622,503.2926"/>
    <line x1="427.4388" x2="430.9359" y1="499.2127" y2="507.3726"/>
    <polyline points="434.433,499.2127 430.9359,507.3726 429.7702,509.7039 428.6045,510.8696 427.4388,511.4525 426.856,511.4525"/>
    <polyline points="447.2557,498.047 447.2557,497.4641 447.8385,496.2984 448.4214,495.7156 449.587,495.1327 451.9184,495.1327 453.0841,495.7156 453.667,496.2984 454.2498,497.4641 454.2498,498.6298 453.667,499.7955 452.5013,501.5441 446.6728,507.3726 454.8327,507.3726"/>
    <polygon points="461.8269,495.1327 460.0783,495.7156 458.9126,497.4641 458.3298,500.3784 458.3298,502.1269 458.9126,505.0412 460.0783,506.7897 461.8269,507.3726 462.9926,507.3726 464.7411,506.7897 465.9068,505.0412 466.4896,502.1269 466.4896,500.3784 465.9068,497.4641 464.7411,495.7156 462.9926,495.1327"/>
    <polygon points="838.8582,17.6814 835.5752,194.4575 1003.7239,307.8411 1026.5704,129.732"/>
    <line x1="841.7458" x2="841.6094" y1="19.436" y2="26.2034"/>
    <line x1="847.175" x2="847.0705" y1="24.9708" y2="29.4795"/>
    <polyline points="847.1525,25.9388 846.5901,24.9483 846.0202,24.2804 845.1549,23.763 844.5714,23.741 843.9815,24.0415 843.6731,24.8359 843.6594,25.4797 843.9263,26.617 844.4874,27.6045 845.0555,28.2707 845.9186,28.7885 846.5017,28.8126 847.0928,28.5152"/>
    <line x1="848.9092" x2="850.5328" y1="26.0078" y2="31.5565"/>
    <polyline points="852.3855,28.0864 850.5328,31.5565 849.9232,32.4944 849.3305,32.7894 848.7461,32.7636 848.458,32.5905"/>
    <polyline points="853.785,30.8906 857.2722,32.9787 857.2908,32.3335 857.0182,31.5136 856.7363,31.0164 856.1632,30.3452 855.2903,29.8233 854.6999,29.7986 854.1013,30.0967 853.785,30.8906 853.7676,31.5351 854.0316,32.6749 854.5941,33.6661 855.1654,34.3356 856.0361,34.8579 856.6261,34.8847 857.2258,34.5897"/>
    <line x1="859.3693" x2="859.2341" y1="32.2622" y2="36.7764"/>
    <polyline points="859.3113,34.1996 859.632,33.406 860.2354,33.1092 860.8296,33.1353 861.7066,33.6597"/>
    <polyline points="868.4864,36.7221 869.0866,36.7499 870.0053,36.3053 869.7621,43.0921"/>
    <polygon points="804.6471,38.7253 804.6471,215.8863 972.9954,332.528 992.6342,154.3604"/>
    <line x1="807.5361" x2="807.5253" y1="40.5331" y2="47.3246"/>
    <line x1="813.0088" x2="812.988" y1="46.1767" y2="50.7011"/>
    <polyline points="813.0044,47.1481 812.4297,46.1447 811.8537,45.465 810.9882,44.9317 810.4105,44.9002 809.8323,45.1924 809.5418,45.9849 809.54,46.6311 809.8249,47.777 810.3982,48.7773 810.9724,49.4553 811.8358,49.9889 812.4131,50.0225 812.9924,49.7335"/>
    <line x1="814.7437" x2="816.4516" y1="47.2456" y2="52.842"/>
    <polyline points="818.2213,49.3883 816.4516,52.842 815.8656,53.7737 815.2845,54.0602 814.7059,54.0249 814.4177,53.8465"/>
    <polyline points="819.6573,52.226 823.1461,54.3785 823.1527,53.7311 822.868,52.9036 822.5799,52.4 822.0006,51.7168 821.1273,51.1788 820.5427,51.1445 819.9558,51.4341 819.6573,52.226 819.6519,52.8728 819.9339,54.0212 820.5086,55.0253 821.0861,55.7067 821.9571,56.2451 822.5414,56.2816 823.1295,55.9951"/>
    <line x1="825.2083" x2="825.1567" y1="53.6932" y2="58.2228"/>
    <polyline points="825.1861,55.6372 825.4891,54.8457 826.0808,54.5574 826.6692,54.5933 827.5467,55.134"/>
    <polyline points="833.7184,58.2806 833.7236,57.9557 834.0286,57.4867 834.3285,57.3427 834.9234,57.38 836.1034,58.1059 836.6881,58.7945 836.9775,59.3016 837.261,60.1337 837.2493,60.7836 836.9425,61.2512 836.3356,61.861 833.3413,63.2819 837.4556,65.8249"/>
    <polygon points="769.3772,60.4206 772.8562,237.9129 941.3453,357.9553 957.5595,179.815"/>
    <line x1="772.2661" x2="772.3889" y1="62.284" y2="69.0978"/>
    <line x1="777.7826" x2="777.8507" y1="68.0405" y2="72.5796"/>
    <polyline points="777.7972,69.0151 777.21,67.9984 776.6277,67.3066 775.7622,66.7566 775.191,66.7151 774.6257,66.9983 774.3542,67.7885 774.3652,68.4367 774.6691,69.5913 775.2549,70.6049 775.8353,71.2949 776.6986,71.8452 777.2695,71.8889 777.8361,71.6089"/>
    <line x1="779.5172" x2="781.3139" y1="69.1429" y2="74.7873"/>
    <polyline points="782.9946,71.3526 781.3139,74.7873 780.7533,75.7119 780.1849,75.9893 779.6127,75.9439 779.3245,75.7599"/>
    <polyline points="784.4686,74.2246 787.9574,76.4447 787.9513,75.7952 787.6539,74.96 787.3595,74.4497 786.7738,73.7542 785.9005,73.1993 785.3223,73.1548 784.7481,73.4353 784.4686,74.2246 784.476,74.8735 784.777,76.0306 785.3644,77.048 785.9482,77.7416 786.8192,78.2968 787.3972,78.3435 787.9726,78.0663"/>
    <line x1="789.9815" x2="790.0188" y1="75.7927" y2="80.3365"/>
    <polyline points="789.9975,77.7429 790.2814,76.9539 790.8604,76.675 791.4426,76.7211 792.3201,77.2788"/>
    <polyline points="798.7687,79.0992 802.0147,81.1587 800.2495,82.6428 801.1337,83.2048 801.7241,83.9053 802.0195,84.4183 802.3158,85.5814 802.3167,86.2312 802.0234,87.0173 801.4356,87.2907 800.5539,87.0523 799.6722,86.4903 798.7902,85.6046 798.4955,85.0934 798.1996,84.2577"/>
    <polygon points="616.6601,154.3604 636.2989,332.528 804.6471,467.7772 804.6471,290.7876"/>
    <line x1="619.5331" x2="620.281" y1="156.474" y2="163.3558"/>
    <line x1="625.2245" x2="625.709" y1="162.7287" y2="167.3116"/>
    <polyline points="625.3285,163.7128 624.6851,162.6396 624.0765,161.8945 623.2164,161.2694 622.6786,161.1811 622.1764,161.4207 621.9961,162.1955 622.0665,162.8501 622.4577,164.0391 623.0993,165.1087 623.7059,165.8518 624.5639,166.4771 625.1017,166.5677 625.6054,166.3316"/>
    <line x1="626.9487" x2="629.1517" y1="163.9818" y2="169.8205"/>
    <polyline points="630.4056,166.4941 629.1517,169.8205 628.7131,170.7068 628.2073,170.94 627.6681,170.8473 627.3816,170.6383"/>
    <polyline points="632.0503,169.5111 635.5197,172.0355 635.454,171.38 635.0985,170.5133 634.7758,169.9745 634.1635,169.2252 633.2951,168.5941 632.75,168.5019 632.2387,168.7379 632.0503,169.5111 632.1172,170.166 632.5058,171.3574 633.1493,172.4314 633.7596,173.1786 634.6258,173.8099 635.1709,173.9044 635.6837,173.672"/>
    <line x1="637.3538" x2="637.8081" y1="171.5437" y2="176.129"/>
    <polyline points="637.5488,173.5119 637.7417,172.7395 638.2579,172.5056 638.8071,172.5999 639.68,173.2343"/>
    <line x1="649.4114" x2="647.1205" y1="178.158" y2="182.9156"/>
    <line x1="645.3003" x2="649.4114" y1="175.1744" y2="178.158"/>
    <polygon points="575.2786,179.815 599.5998,357.9553 767.7025,497.4581 762.9193,321.0706"/>
    <line x1="578.1429" x2="579.0733" y1="181.9992" y2="188.8913"/>
    <line x1="583.8776" x2="584.4838" y1="188.3914" y2="192.9807"/>
    <polyline points="584.0078,189.377 583.3489,188.2887 582.7334,187.5289 581.8761,186.8826 581.3488,186.7807 580.8659,187.0072 580.7126,187.7764 580.8004,188.4319 581.2167,189.6293 581.8737,190.714 582.4871,191.4716 583.3424,192.118 583.8696,192.2222 584.3542,191.9994"/>
    <line x1="585.5963" x2="587.9156" y1="189.687" y2="195.5746"/>
    <polyline points="589.0424,192.2847 587.9156,195.5746 587.5135,196.4484 587.0268,196.6682 586.498,196.5618 586.2124,196.3457"/>
    <polyline points="590.7349,195.34 594.1936,197.9503 594.1105,197.2939 593.7385,196.4193 593.408,195.8729 592.7887,195.1087 591.9229,194.4561 591.3883,194.3501 590.8963,194.5726 590.7349,195.34 590.8192,195.9958 591.233,197.1956 591.8921,198.2847 592.5093,199.0466 593.3729,199.6993 593.9075,199.8077 594.4011,199.5888"/>
    <line x1="595.9692" x2="596.5456" y1="197.5063" y2="202.0973"/>
    <polyline points="596.2166,199.477 596.3825,198.7106 596.8795,198.4903 597.4182,198.5986 598.2885,199.2546"/>
    <polygon points="605.2926,202.4378 604.4548,202.107 604.2422,202.546 604.3219,203.2046 604.6934,204.0828 605.3173,204.8521 606.5259,206.0623 607.4427,207.0528 608.1063,208.1512 608.477,209.0283 608.5939,210.0118 608.3794,210.446 608.1261,210.5525 607.2891,210.2175 606.1223,209.3356 605.2085,208.3477 604.8776,207.8002 604.507,206.9252 604.3879,205.9418 604.6001,205.5056 605.1044,205.2891 605.9412,205.6214 607.0716,206.1748 607.6179,206.2873 607.8324,205.8499 607.7541,205.1913 607.3824,204.3113 606.4638,203.3196"/>
    <line x1="835.1755" x2="835.1755" y1="499.2127" y2="511.4525"/>
    <polyline points="835.1755,500.9612 836.3412,499.7955 837.5069,499.2127 839.2555,499.2127 840.4212,499.7955 841.5869,500.9612 842.1697,502.7098 842.1697,503.8755 841.5869,505.624 840.4212,506.7897 839.2555,507.3726 837.5069,507.3726 836.3412,506.7897 835.1755,505.624"/>
    <line x1="846.2497" x2="846.2497" y1="499.2127" y2="507.3726"/>
    <polyline points="846.2497,502.7098 846.8325,500.9612 847.9982,499.7955 849.1639,499.2127 850.9124,499.2127"/>
    <polygon points="856.1581,499.2127 854.9924,499.7955 853.8267,500.9612 853.2438,502.7098 853.2438,503.8755 853.8267,505.624 854.9924,506.7897 856.1581,507.3726 857.9066,507.3726 859.0723,506.7897 860.238,505.624 860.8209,503.8755 860.8209,502.7098 860.238,500.9612 859.0723,499.7955 857.9066,499.2127"/>
    <polyline points="865.4836,495.1327 865.4836,505.0412 866.0665,506.7897 867.2322,507.3726 868.3979,507.3726"/>
    <line x1="863.7351" x2="867.815" y1="499.2127" y2="499.2127"/>
    <line x1="878.3063" x2="878.3063" y1="499.2127" y2="507.3726"/>
    <polyline points="878.3063,500.9612 877.1406,499.7955 875.9749,499.2127 874.2264,499.2127 873.0607,499.7955 871.895,500.9612 871.3121,502.7098 871.3121,503.8755 871.895,505.624 873.0607,506.7897 874.2264,507.3726 875.9749,507.3726 877.1406,506.7897 878.3063,505.624"/>
    <polyline points="883.5519,495.1327 883.5519,505.0412 884.1348,506.7897 885.3005,507.3726 886.4662,507.3726"/>
    <line x1="881.8034" x2="885.8833" y1="499.2127" y2="499.2127"/>
    <polyline points="889.3804,502.7098 896.3746,502.7098 896.3746,501.5441 895.7917,500.3784 895.2089,499.7955 894.0432,499.2127 892.2947,499.2127 891.129,499.7955 889.9633,500.9612 889.3804,502.7098 889.3804,503.8755 889.9633,505.624 891.129,506.7897 892.2947,507.3726 894.0432,507.3726 895.2089,506.7897 896.3746,505.624"/>
    <line x1="909.7801" x2="920.2714" y1="502.1269" y2="502.1269"/>
    <line x1="924.9342" x2="924.9342" y1="495.1327" y2="507.3726"/>
    <polyline points="944.1681,495.1327 938.3397,503.2926 947.0824,503.2926"/>
    <line x1="944.1681" x2="944.1681" y1="495.1327" y2="507.3726"/>
    <polyline points="951.1623,505.0412 950.5795,505.624 949.9966,505.0412 950.5795,504.4583 951.1623,505.0412 951.1623,506.2069 949.9966,507.3726"/>
    <polyline points="961.6536,495.1327 955.8251,495.1327 955.2423,500.3784 955.8251,499.7955 957.5737,499.2127 959.3222,499.2127 961.0707,499.7955 962.2364,500.9612 962.8193,502.7098 962.8193,503.8755 962.2364,505.624 961.0707,506.7897 959.3222,507.3726 957.5737,507.3726 955.8251,506.7897 955.2423,506.2069 954.6594,505.0412"/>
    <polyline points="967.4821,505.0412 966.8992,505.624 966.3164,505.0412 966.8992,504.4583 967.4821,505.0412 967.4821,506.2069 966.3164,507.3726"/>
    <polyline points="978.5562,496.8813 977.9733,495.7156 976.2248,495.1327 975.0591,495.1327 973.3106,495.7156 972.1449,497.4641 971.562,500.3784 971.562,503.2926 972.1449,505.624 973.3106,506.7897 975.0591,507.3726 975.6419,507.3726 977.3905,506.7897 978.5562,505.624 979.139,503.8755 979.139,503.2926 978.5562,501.5441 977.3905,500.3784 975.6419,499.7955 975.0591,499.7955 973.3106,500.3784 972.1449,501.5441 971.562,503.2926"/>
    <line x1="992.5445" x2="1003.0358" y1="502.1269" y2="502.1269"/>
    <polygon points="1010.03,499.2127 1008.8643,499.7955 1007.6986,500.9612 1007.1157,502.7098 1007.1157,503.8755 1007.6986,505.624 1008.8643,506.7897 1010.03,507.3726 1011.7785,507.3726 1012.9442,506.7897 1014.1099,505.624 1014.6928,503.8755 1014.6928,502.7098 1014.1099,500.9612 1012.9442,499.7955 1011.7785,499.2127"/>
    <line x1="1027.5154" x2="1029.8468" y1="499.2127" y2="507.3726"/>
    <line x1="1032.1782" x2="1029.8468" y1="499.2127" y2="507.3726"/>
    <line x1="1032.1782" x2="1034.5096" y1="499.2127" y2="507.3726"/>
    <line x1="1036.841" x2="1034.5096" y1="499.2127" y2="507.3726"/>
    <polygon points="1043.2523,499.2127 1042.0866,499.7955 1040.9209,500.9612 1040.3381,502.7098 1040.3381,503.8755 1040.9209,505.624 1042.0866,506.7897 1043.2523,507.3726 1045.0009,507.3726 1046.1666,506.7897 1047.3323,505.624 1047.9151,503.8755 1047.9151,502.7098 1047.3323,500.9612 1046.1666,499.7955 1045.0009,499.2127"/>
    <line x1="1051.9951" x2="1051.9951" y1="499.2127" y2="507.3726"/>
    <polyline points="1051.9951,502.7098 1052.5779,500.9612 1053.7436,499.7955 1054.9093,499.2127 1056.6578,499.2127"/>
    <line x1="1059.5721" x2="1059.5721" y1="495.1327" y2="507.3726"/>
    <line x1="1070.6462" x2="1070.6462" y1="495.1327" y2="507.3726"/>
    <polyline points="1070.6462,500.9612 1069.4805,499.7955 1068.3148,499.2127 1066.5663,499.2127 1065.4006,499.7955 1064.2349,500.9612 1063.652,502.7098 1063.652,503.8755 1064.2349,505.624 1065.4006,506.7897 1066.5663,507.3726 1068.3148,507.3726 1069.4805,506.7897 1070.6462,505.624"/>
    <line x1="1083.4689" x2="1086.9659" y1="499.2127" y2="507.3726"/>
    <polyline points="1090.463,499.2127 1086.9659,507.3726 1085.8003,509.7039 1084.6346,510.8696 1083.4689,511.4525 1082.886,511.4525"/>
    <polyline points="1103.2857,498.047 1103.2857,497.4641 1103.8685,496.2984 1104.4514,495.7156 1105.6171,495.1327 1107.9485,495.1327 1109.1142,495.7156 1109.697,496.2984 1110.2799,497.4641 1110.2799,498.6298 1109.697,499.7955 1108.5313,501.5441 1102.7028,507.3726 1110.8627,507.3726"/>
    <polygon points="1117.8569,495.1327 1116.1084,495.7156 1114.9427,497.4641 1114.3598,500.3784 1114.3598,502.1269 1114.9427,505.0412 1116.1084,506.7897 1117.8569,507.3726 1119.0226,507.3726 1120.7711,506.7897 1121.9368,505.0412 1122.5197,502.1269 1122.5197,500.3784 1121.9368,497.4641 1120.7711,495.7156 1119.0226,495.1327"/>
  </g>
  <g fill="none" id="layer10" inkscape:groupmode="layer" inkscape:label="10" stroke="#008800" style="display:inline">
    <polygon points="142.2716,106.0268 152.2607,284.0003 367.2882,357.8052 382.3009,179.6644"/>
    <line x1="146.0739" x2="146.4439" y1="107.2237" y2="114.0759"/>
    <line x1="153.392" x2="153.6199" y1="111.7243" y2="116.2875"/>
    <polyline points="153.4409,112.7041 152.6501,111.818 151.8756,111.2584 150.7389,110.9091 149.9983,111.0031 149.2754,111.4234 148.9484,112.2857 148.9827,112.9375 149.4117,114.0306 150.2012,114.9139 150.9736,115.4719 152.1074,115.8213 152.8471,115.7292 153.5712,115.3117"/>
    <line x1="155.6684" x2="158.1632" y1="112.4238" y2="117.6877"/>
    <polyline points="160.2277,113.8247 158.1632,117.6877 157.4675,118.7537 156.7418,119.1693 156.0011,119.2601 155.623,119.1434"/>
    <polyline points="162.2182,116.3683 166.7847,117.7733 166.757,117.1206 166.3482,116.3503 165.953,115.9064 165.1767,115.3453 164.0338,114.9941 163.2866,115.0869 162.5545,115.5062 162.2182,116.3683 162.2475,117.0204 162.6714,118.1145 163.4602,118.9995 164.2343,119.5589 165.3744,119.9102 166.1208,119.8193 166.8539,119.4027"/>
    <line x1="169.3724" x2="169.5592" y1="116.6345" y2="121.2"/>
    <polyline points="169.4525,118.594 169.794,117.7321 170.5311,117.3134 171.2819,117.2212 172.4283,117.5735"/>
    <polyline points="183.8479,118.8125 180.1649,122.2126 185.916,123.9824"/>
    <line x1="183.8479" x2="184.0719" y1="118.8125" y2="125.6728"/>
    <polygon points="103.6831,129.873 117.7907,307.9827 334.5234,384.0021 345.8399,205.9825"/>
    <line x1="107.5168" x2="108.0459" y1="131.1082" y2="137.9763"/>
    <line x1="114.9462" x2="115.2798" y1="135.6866" y2="140.2601"/>
    <polyline points="115.0178,136.6687 114.2058,135.7734 113.4175,135.2054 112.2716,134.8447 111.5325,134.9318 110.8186,135.346 110.5113,136.2067 110.5607,136.86 111.0154,137.9592 111.8261,138.8516 112.6121,139.4179 113.7551,139.7787 114.4934,139.6935 115.2085,139.2821"/>
    <line x1="117.2411" x2="119.8599" y1="136.4089" y2="141.7061"/>
    <polyline points="121.8375,137.8558 119.8599,141.7061 119.1881,142.7674 118.4713,143.1767 117.732,143.2606 117.3508,143.1401"/>
    <polyline points="123.8887,140.423 128.4926,141.874 128.4499,141.2199 128.0228,140.4443 127.6171,139.9959 126.827,139.4263 125.6747,139.0636 124.9288,139.1495 124.2056,139.5626 123.8887,140.423 123.9331,141.0765 124.3826,142.1767 125.1926,143.0707 125.9805,143.6385 127.1298,144.0014 127.8749,143.9174 128.5993,143.5071"/>
    <line x1="131.057" x2="131.3489" y1="140.7578" y2="145.3334"/>
    <polyline points="131.1823,142.7218 131.5044,141.8615 132.2327,141.449 132.9822,141.3639 134.1381,141.7277"/>
    <polyline points="146.3761,143.3218 142.5003,142.1036 142.2826,144.9349 142.6504,144.729 143.7922,144.7666 144.9533,145.1321 146.1331,145.8255 146.9436,146.7245 147.3843,147.8283 147.42,148.4822 147.0867,149.3401 146.3496,149.7488 145.2089,149.7092 144.0509,149.3436 142.8747,148.652 142.4702,148.204 142.0468,147.4294"/>
    <polygon points="63.8213,154.5061 82.302,332.6738 300.7456,411.0089 308.1134,233.214"/>
    <line x1="67.6863" x2="68.385" y1="155.7814" y2="162.6628"/>
    <line x1="75.2305" x2="75.6767" y1="160.4403" y2="165.0225"/>
    <polyline points="75.3263,161.4243 74.492,160.5198 73.6896,159.9431 72.5345,159.5704 71.7973,159.6501 71.0934,160.0576 70.8073,160.9162 70.8727,161.5708 71.3547,162.6758 72.1875,163.5774 72.9877,164.1523 74.1397,164.5251 74.8762,164.4473 75.5813,164.0427"/>
    <line x1="77.5439" x2="80.2936" y1="161.1868" y2="166.5165"/>
    <polyline points="82.1774,162.6818 80.2936,166.5165 79.6477,167.5721 78.9407,167.9746 78.2032,168.0511 77.819,167.9266"/>
    <polyline points="84.2923,165.2728 88.9335,166.7723 88.8747,166.117 88.4285,165.3361 88.0116,164.883 87.2073,164.3048 86.0456,163.93 85.3015,164.0084 84.5882,164.4146 84.2923,165.2728 84.3527,165.9275 84.8293,167.0335 85.6615,167.9368 86.4636,168.5132 87.6222,168.8881 88.3656,168.8116 89.0801,168.4083"/>
    <line x1="91.4717" x2="91.8755" y1="165.6808" y2="170.2645"/>
    <polyline points="91.645,167.6483 91.9463,166.7903 92.6648,166.3847 93.4127,166.3071 94.578,166.6831"/>
    <polyline points="107.3306,169.5168 106.8877,168.7327 105.6886,168.0255 104.9069,167.7737 103.7615,167.7252 103.061,168.4604 102.8048,169.9768 102.9386,171.6158 103.4345,173.0505 104.2658,173.956 105.4596,174.6604 105.8489,174.7864 106.9912,174.8377 107.7188,174.4361 108.0315,173.5806 108.0057,173.2532 107.538,172.144 106.7053,171.2359 105.5082,170.5297 105.118,170.4038 103.9743,170.3543 103.248,170.7586 102.9386,171.6158"/>
    <polygon points="749.3999,126.1296 755.0751,304.2231 974.6268,379.8931 995.0765,201.8482"/>
    <line x1="753.2882" x2="753.4918" y1="127.3587" y2="134.2245"/>
    <line x1="760.715" x2="760.8312" y1="131.9249" y2="136.497"/>
    <polyline points="760.7399,132.9067 759.9478,132.0128 759.1639,131.4461 758.0013,131.0872 757.2355,131.1754 756.4793,131.5906 756.1199,132.4516 756.1382,133.1047 756.5521,134.2029 757.3429,135.094 758.1246,135.659 759.2842,136.018 760.0492,135.9317 760.8064,135.5193"/>
    <line x1="763.0434" x2="765.4782" y1="132.6436" y2="137.9358"/>
    <polyline points="767.7071,134.0832 765.4782,137.9358 764.7333,138.9978 763.9744,139.4081 763.2084,139.4931 762.8217,139.3732"/>
    <polyline points="769.6928,136.6468 774.3639,138.0905 774.3524,137.4367 773.951,136.6619 773.5552,136.2141 772.7695,135.6459 771.6004,135.285 770.8276,135.372 770.062,135.7861 769.6928,136.6468 769.706,137.3001 770.1144,138.3994 770.9045,139.292 771.688,139.8584 772.8541,140.2195 773.6259,140.1344 774.3926,139.7231"/>
    <line x1="777.0614" x2="777.1346" y1="136.9707" y2="141.5448"/>
    <polyline points="777.0928,138.934 777.4675,138.0735 778.2383,137.66 779.0148,137.5737 780.1875,137.9357"/>
    <polyline points="791.9294,139.2683 788.0426,142.6443 793.9261,144.4632"/>
    <line x1="791.9294" x2="791.9802" y1="139.2683" y2="146.1413"/>
    <polygon points="725.7088,157.689 733.9716,335.8582 956.905,414.4945 975.631,236.736"/>
    <line x1="729.6606" x2="729.9641" y1="158.9696" y2="165.8525"/>
    <line x1="737.2402" x2="737.4224" y1="163.6389" y2="168.222"/>
    <polyline points="737.2794,164.6231 736.4652,163.7174 735.664,163.1396 734.4824,162.7653 733.7088,162.8441 732.9495,163.2507 732.5981,164.109 732.6259,164.7637 733.0602,165.8694 733.873,166.7722 734.6719,167.3482 735.8503,167.7226 736.6231,167.6457 737.3834,167.242"/>
    <line x1="739.6066" x2="742.1448" y1="164.3885" y2="169.7224"/>
    <polyline points="744.3463,165.8899 742.1448,169.7224 741.4059,170.7771 740.6438,171.1787 739.87,171.2542 739.477,171.1292"/>
    <polyline points="746.3917,168.4839 751.1392,169.9896 751.1184,169.3342 750.7013,168.5527 750.2946,168.099 749.4915,167.5197 748.3032,167.1433 747.5224,167.2207 746.7533,167.626 746.3917,168.4839 746.4143,169.1387 746.8429,170.2454 747.655,171.1499 748.4558,171.7274 749.6409,172.1039 750.4208,172.0284 751.191,171.6259"/>
    <line x1="753.8537" x2="753.9914" y1="168.9015" y2="173.4861"/>
    <polyline points="753.9128,170.8693 754.28,170.0117 755.0544,169.6071 755.8391,169.5304 757.0312,169.908"/>
    <polyline points="769.7353,171.6449 765.7377,170.3805 765.4072,173.213 765.7983,173.0111 766.9877,173.0618 768.1852,173.4412 769.3902,174.1491 770.2026,175.0586 770.6219,176.1689 770.6351,176.8241 770.2562,177.6792 769.4724,178.0799 768.2844,178.027 767.0901,177.6476 765.8888,176.9416 765.4834,176.4884 765.0701,175.708"/>
    <polygon points="700.992,190.615 712.0518,368.7169 938.4653,450.4976 955.2987,273.2148"/>
    <line x1="705.0091" x2="705.421" y1="191.9503" y2="198.8455"/>
    <line x1="712.748" x2="713.0017" y1="196.7276" y2="201.3184"/>
    <polyline points="712.8025,197.7135 711.965,196.7957 711.1457,196.2064 709.9447,195.8157 709.1633,195.8842 708.4014,196.281 708.0589,197.1356 708.097,197.7914 708.5532,198.9042 709.3891,199.819 710.206,200.4064 711.4038,200.7971 712.1843,200.7307 712.9474,200.3368"/>
    <line x1="715.1534" x2="717.8018" y1="197.51" y2="202.8843"/>
    <polyline points="719.9714,199.0772 717.8018,202.8843 717.0702,203.9302 716.3053,204.3218 715.5236,204.387 715.1242,204.2565"/>
    <polyline points="722.0799,201.702 726.906,203.2738 726.8752,202.6173 726.4415,201.8293 726.0231,201.3695 725.2018,200.7786 723.9938,200.3857 723.2049,200.4526 722.4329,200.848 722.0799,201.702 722.1126,202.3579 722.5629,203.4717 723.3981,204.3881 724.217,204.9771 725.4217,205.3701 726.2097,205.3051 726.9829,204.9127"/>
    <line x1="729.6365" x2="729.8443" y1="202.2211" y2="206.8129"/>
    <polyline points="729.7257,204.1921 730.0845,203.3385 730.862,202.9438 731.655,202.8777 732.8669,203.2719"/>
    <polyline points="746.1915,206.3045 745.7615,205.5131 744.5296,204.787 743.7165,204.5229 742.5098,204.4567 741.7352,205.1814 741.3924,206.6945 741.4552,208.3363 741.91,209.7792 742.7441,210.6979 743.9705,211.4211 744.3753,211.5532 745.5784,211.6223 746.3657,211.2319 746.7367,210.3809 746.7251,210.053 746.2845,208.9361 745.4491,208.0147 744.2194,207.2896 743.8135,207.1576 742.6087,207.0903 741.8227,207.4835 741.4552,208.3363"/>
  </g>
</svg>
