<svg xmlns="http://www.w3.org/2000/svg" xmlns:cc="http://creativecommons.org/ns" xmlns:ev="http://www.w3.org/2001/xml-events" xmlns:rdf="http://www.w3.org/1999/02/22-rdf-syntax-ns" xmlns:xlink="http://www.w3.org/1999/xlink" width="30cm" height="9cm" baseProfile="tiny" version="1.2" viewBox="0 0 1133.858 340.157"><metadata><rdf:RDF><cc:Work/></rdf:RDF></metadata><g id="layer6" fill="none" stroke="#00f" style="display:inline"><polygon points="78.456 66.318 78.456 212.102 224.24 212.102 224.24 66.318"/><line x1="80.492" x2="80.492" y1="67.498" y2="70.535"/><line x1="83.24" x2="83.24" y1="68.51" y2="70.535"/><polyline points="83.24 68.944 82.951 68.655 82.662 68.51 82.228 68.51 81.939 68.655 81.649 68.944 81.504 69.378 81.504 69.667 81.649 70.101 81.939 70.391 82.228 70.535 82.662 70.535 82.951 70.391 83.24 70.101"/><line x1="84.108" x2="84.976" y1="68.51" y2="70.535"/><polyline points="85.844 68.51 84.976 70.535 84.687 71.114 84.397 71.403 84.108 71.548 83.963 71.548"/><polyline points="86.567 69.378 88.303 69.378 88.303 69.089 88.158 68.8 88.014 68.655 87.724 68.51 87.29 68.51 87.001 68.655 86.712 68.944 86.567 69.378 86.567 69.667 86.712 70.101 87.001 70.391 87.29 70.535 87.724 70.535 88.014 70.391 88.303 70.101"/><line x1="89.315" x2="89.315" y1="68.51" y2="70.535"/><polyline points="89.315 69.378 89.46 68.944 89.749 68.655 90.039 68.51 90.472 68.51"/><polyline points="93.799 68.076 94.089 67.932 94.523 67.498 94.523 70.535"/><polygon points="72.204 60.066 72.204 218.353 230.491 218.353 230.491 60.066"/><line x1="74.415" x2="74.415" y1="61.348" y2="64.646"/><line x1="77.399" x2="77.399" y1="62.447" y2="64.646"/><polyline points="77.399 62.918 77.085 62.604 76.771 62.447 76.3 62.447 75.986 62.604 75.672 62.918 75.515 63.389 75.515 63.703 75.672 64.174 75.986 64.489 76.3 64.646 76.771 64.646 77.085 64.489 77.399 64.174"/><line x1="78.342" x2="79.284" y1="62.447" y2="64.646"/><polyline points="80.226 62.447 79.284 64.646 78.97 65.274 78.656 65.588 78.342 65.745 78.185 65.745"/><polyline points="81.011 63.389 82.896 63.389 82.896 63.075 82.739 62.761 82.582 62.604 82.268 62.447 81.797 62.447 81.483 62.604 81.168 62.918 81.011 63.389 81.011 63.703 81.168 64.174 81.483 64.489 81.797 64.646 82.268 64.646 82.582 64.489 82.896 64.174"/><line x1="83.995" x2="83.995" y1="62.447" y2="64.646"/><polyline points="83.995 63.389 84.153 62.918 84.467 62.604 84.781 62.447 85.252 62.447"/><polyline points="88.55 62.133 88.55 61.976 88.707 61.662 88.864 61.505 89.178 61.348 89.806 61.348 90.12 61.505 90.277 61.662 90.434 61.976 90.434 62.29 90.277 62.604 89.963 63.075 88.393 64.646 90.591 64.646"/><polygon points="64.78 52.642 64.78 225.777 237.915 225.777 237.915 52.642"/><line x1="67.199" x2="67.199" y1="54.044" y2="57.651"/><line x1="70.463" x2="70.463" y1="55.246" y2="57.651"/><polyline points="70.463 55.761 70.119 55.418 69.775 55.246 69.26 55.246 68.916 55.418 68.573 55.761 68.401 56.277 68.401 56.62 68.573 57.136 68.916 57.479 69.26 57.651 69.775 57.651 70.119 57.479 70.463 57.136"/><line x1="71.493" x2="72.524" y1="55.246" y2="57.651"/><polyline points="73.555 55.246 72.524 57.651 72.18 58.338 71.837 58.682 71.493 58.854 71.321 58.854"/><polyline points="74.413 56.277 76.475 56.277 76.475 55.933 76.303 55.59 76.131 55.418 75.788 55.246 75.272 55.246 74.929 55.418 74.585 55.761 74.413 56.277 74.413 56.62 74.585 57.136 74.929 57.479 75.272 57.651 75.788 57.651 76.131 57.479 76.475 57.136"/><line x1="77.677" x2="77.677" y1="55.246" y2="57.651"/><polyline points="77.677 56.277 77.849 55.761 78.193 55.418 78.536 55.246 79.052 55.246"/><polyline points="82.831 54.044 84.72 54.044 83.69 55.418 84.205 55.418 84.549 55.59 84.72 55.761 84.892 56.277 84.892 56.62 84.72 57.136 84.377 57.479 83.862 57.651 83.346 57.651 82.831 57.479 82.659 57.307 82.487 56.964"/><polygon points="55.819 43.681 55.819 234.738 246.876 234.738 246.876 43.681"/><line x1="58.488" x2="58.488" y1="45.227" y2="49.208"/><line x1="62.09" x2="62.09" y1="46.554" y2="49.208"/><polyline points="62.09 47.123 61.71 46.744 61.331 46.554 60.763 46.554 60.383 46.744 60.004 47.123 59.815 47.692 59.815 48.071 60.004 48.64 60.383 49.019 60.763 49.208 61.331 49.208 61.71 49.019 62.09 48.64"/><line x1="63.227" x2="64.364" y1="46.554" y2="49.208"/><polyline points="65.502 46.554 64.364 49.208 63.985 49.967 63.606 50.346 63.227 50.535 63.037 50.535"/><polyline points="66.45 47.692 68.724 47.692 68.724 47.313 68.535 46.934 68.345 46.744 67.966 46.554 67.397 46.554 67.018 46.744 66.639 47.123 66.45 47.692 66.45 48.071 66.639 48.64 67.018 49.019 67.397 49.208 67.966 49.208 68.345 49.019 68.724 48.64"/><line x1="70.051" x2="70.051" y1="46.554" y2="49.208"/><polyline points="70.051 47.692 70.241 47.123 70.62 46.744 70.999 46.554 71.568 46.554"/><polyline points="77.255 45.227 75.359 47.881 78.203 47.881"/><line x1="77.255" x2="77.255" y1="45.227" y2="49.208"/><polygon points="44.788 32.651 44.788 245.769 257.907 245.769 257.907 32.651"/><line x1="47.765" x2="47.765" y1="34.375" y2="38.816"/><line x1="51.783" x2="51.783" y1="35.856" y2="38.816"/><polyline points="51.783 36.49 51.36 36.067 50.937 35.856 50.303 35.856 49.88 36.067 49.457 36.49 49.245 37.124 49.245 37.547 49.457 38.182 49.88 38.605 50.303 38.816 50.937 38.816 51.36 38.605 51.783 38.182"/><line x1="53.052" x2="54.32" y1="35.856" y2="38.816"/><polyline points="55.589 35.856 54.32 38.816 53.897 39.662 53.474 40.085 53.052 40.296 52.84 40.296"/><polyline points="56.646 37.124 59.184 37.124 59.184 36.701 58.972 36.279 58.761 36.067 58.338 35.856 57.704 35.856 57.281 36.067 56.858 36.49 56.646 37.124 56.646 37.547 56.858 38.182 57.281 38.605 57.704 38.816 58.338 38.816 58.761 38.605 59.184 38.182"/><line x1="60.664" x2="60.664" y1="35.856" y2="38.816"/><polyline points="60.664 37.124 60.875 36.49 61.298 36.067 61.721 35.856 62.355 35.856"/><polyline points="69.122 34.375 67.007 34.375 66.796 36.279 67.007 36.067 67.642 35.856 68.276 35.856 68.911 36.067 69.334 36.49 69.545 37.124 69.545 37.547 69.334 38.182 68.911 38.605 68.276 38.816 67.642 38.816 67.007 38.605 66.796 38.393 66.585 37.97"/><line x1="132.317" x2="132.317" y1="271.393" y2="282.495"/><polyline points="132.317 276.68 131.26 275.623 130.202 275.094 128.616 275.094 127.559 275.623 126.502 276.68 125.973 278.266 125.973 279.323 126.502 280.909 127.559 281.966 128.616 282.495 130.202 282.495 131.26 281.966 132.317 280.909"/><polyline points="136.017 278.266 142.361 278.266 142.361 277.208 141.832 276.151 141.304 275.623 140.246 275.094 138.66 275.094 137.603 275.623 136.546 276.68 136.017 278.266 136.017 279.323 136.546 280.909 137.603 281.966 138.66 282.495 140.246 282.495 141.304 281.966 142.361 280.909"/><polyline points="149.233 271.393 148.176 271.393 147.119 271.922 146.59 273.508 146.59 282.495"/><line x1="145.004" x2="148.704" y1="275.094" y2="275.094"/><line x1="158.22" x2="158.22" y1="275.094" y2="282.495"/><polyline points="158.22 276.68 157.163 275.623 156.105 275.094 154.519 275.094 153.462 275.623 152.405 276.68 151.876 278.266 151.876 279.323 152.405 280.909 153.462 281.966 154.519 282.495 156.105 282.495 157.163 281.966 158.22 280.909"/><polyline points="162.449 275.094 162.449 280.38 162.978 281.966 164.035 282.495 165.621 282.495 166.678 281.966 168.264 280.38"/><line x1="168.264" x2="168.264" y1="275.094" y2="282.495"/><line x1="172.493" x2="172.493" y1="271.393" y2="282.495"/><polyline points="177.251 271.393 177.251 280.38 177.779 281.966 178.837 282.495 179.894 282.495"/><line x1="175.665" x2="179.365" y1="275.094" y2="275.094"/><polygon points="381.757 75.941 381.757 202.478 524.193 228.288 524.193 50.132"/><line x1="383.175" x2="383.175" y1="76.713" y2="79.36"/><line x1="385.109" x2="385.109" y1="77.255" y2="79.03"/><polyline points="385.109 77.635 384.904 77.418 384.7 77.327 384.394 77.381 384.19 77.543 383.987 77.831 383.885 78.228 383.885 78.481 383.987 78.842 384.19 79.06 384.394 79.152 384.7 79.1 384.904 78.938 385.109 78.65"/><line x1="385.724" x2="386.341" y1="77.147" y2="78.819"/><polyline points="386.96 76.93 386.341 78.819 386.135 79.363 385.929 79.652 385.724 79.814 385.621 79.831"/><polyline points="387.478 77.605 388.726 77.388 388.726 77.132 388.622 76.894 388.518 76.784 388.309 76.693 387.997 76.748 387.789 76.912 387.582 77.204 387.478 77.605 387.478 77.86 387.582 78.225 387.789 78.445 387.997 78.537 388.309 78.483 388.518 78.32 388.726 78.028"/><line x1="389.459" x2="389.459" y1="76.491" y2="78.287"/><polyline points="389.459 77.261 389.564 76.857 389.774 76.564 389.984 76.398 390.3 76.343"/><polyline points="392.739 75.526 392.953 75.358 393.274 74.912 393.274 77.636"/><polygon points="372.964 71.75 372.964 206.67 525.125 236.828 525.125 41.592"/><line x1="374.44" x2="374.44" y1="72.554" y2="75.377"/><line x1="376.451" x2="376.451" y1="73.109" y2="75.002"/><polyline points="376.451 73.514 376.238 73.285 376.025 73.19 375.707 73.251 375.495 73.427 375.284 73.737 375.178 74.162 375.178 74.431 375.284 74.816 375.495 75.045 375.707 75.141 376.025 75.081 376.238 74.906 376.451 74.596"/><line x1="377.091" x2="377.733" y1="72.986" y2="74.762"/><polyline points="378.378 72.738 377.733 74.762 377.519 75.345 377.305 75.656 377.091 75.831 376.984 75.85"/><polyline points="378.917 73.452 380.218 73.205 380.218 72.931 380.11 72.678 380.001 72.563 379.784 72.468 379.458 72.53 379.242 72.708 379.025 73.022 378.917 73.452 378.917 73.724 379.025 74.112 379.242 74.344 379.458 74.44 379.784 74.379 380.001 74.202 380.218 73.888"/><line x1="380.982" x2="380.982" y1="72.237" y2="74.156"/><polyline points="380.982 73.06 381.091 72.628 381.31 72.311 381.529 72.132 381.858 72.069"/><polyline points="384.181 71.346 384.181 71.208 384.292 70.909 384.404 70.749 384.627 70.568 385.074 70.481 385.298 70.576 385.41 70.692 385.522 70.948 385.522 71.226 385.41 71.525 385.185 71.984 384.07 73.579 385.634 73.287"/><polygon points="362.924 66.963 362.924 211.457 526.255 247.179 526.255 31.241"/><line x1="364.458" x2="364.458" y1="67.803" y2="70.827"/><line x1="366.551" x2="366.551" y1="68.367" y2="70.396"/><polyline points="366.551 68.802 366.329 68.559 366.108 68.461 365.777 68.531 365.556 68.722 365.336 69.058 365.226 69.514 365.226 69.803 365.336 70.213 365.556 70.457 365.777 70.556 366.108 70.487 366.329 70.297 366.551 69.961"/><line x1="367.217" x2="367.886" y1="68.226" y2="70.121"/><polyline points="368.558 67.941 367.886 70.121 367.663 70.749 367.44 71.085 367.217 71.275 367.106 71.298"/><polyline points="369.119 68.698 370.475 68.414 370.475 68.121 370.362 67.852 370.249 67.729 370.022 67.63 369.683 67.703 369.457 67.897 369.232 68.237 369.119 68.698 369.119 68.99 369.232 69.405 369.457 69.651 369.683 69.751 370.022 69.681 370.249 69.488 370.475 69.147"/><line x1="371.271" x2="371.271" y1="67.365" y2="69.423"/><polyline points="371.271 68.247 371.385 67.782 371.614 67.44 371.842 67.244 372.186 67.172"/><polyline points="374.726 65.593 376.01 65.317 375.308 66.658 375.659 66.584 375.893 66.683 376.01 66.807 376.127 67.23 376.127 67.528 376.01 68 375.776 68.346 375.425 68.567 375.075 68.639 374.726 68.563 374.61 68.439 374.493 68.166"/><polygon points="351.351 61.446 351.351 216.974 527.654 259.986 527.654 18.434"/><line x1="352.944" x2="352.944" y1="62.322" y2="65.579"/><line x1="355.12" x2="355.12" y1="62.893" y2="65.079"/><polyline points="355.12 63.361 354.89 63.103 354.66 63.002 354.315 63.083 354.086 63.293 353.857 63.658 353.743 64.151 353.743 64.462 353.857 64.902 354.086 65.161 354.315 65.264 354.66 65.184 354.89 64.975 355.12 64.61"/><line x1="355.814" x2="356.51" y1="62.728" y2="64.759"/><polyline points="357.209 62.398 356.51 64.759 356.278 65.439 356.046 65.805 355.814 66.014 355.698 66.041"/><polyline points="357.795 63.204 359.207 62.874 359.207 62.558 359.089 62.27 358.971 62.139 358.735 62.037 358.382 62.121 358.147 62.334 357.912 62.705 357.795 63.204 357.795 63.519 357.912 63.964 358.147 64.225 358.382 64.329 358.735 64.248 358.971 64.035 359.207 63.665"/><line x1="360.037" x2="360.037" y1="61.729" y2="63.948"/><polyline points="360.037 62.68 360.156 62.177 360.394 61.803 360.633 61.588 360.991 61.504"/><polyline points="364.617 59.52 363.399 62.055 365.229 61.628"/><line x1="364.617" x2="364.617" y1="59.52" y2="62.896"/><polyline points="337.863 55.016 337.863 223.404 496.223 267.081"/><line x1="529.428" x2="529.428" y1="267.081" y2="11.339"/><line x1="496.223" x2="337.863" y1="11.339" y2="55.016"/><line x1="339.516" x2="339.516" y1="55.93" y2="59.457"/><line x1="341.776" x2="341.776" y1="56.501" y2="58.87"/><polyline points="341.776 57.009 341.536 56.734 341.297 56.629 340.939 56.725 340.701 56.957 340.464 57.358 340.345 57.895 340.345 58.231 340.464 58.706 340.701 58.981 340.939 59.088 341.297 58.995 341.536 58.763 341.776 58.363"/><line x1="342.496" x2="343.22" y1="56.309" y2="58.495"/><polyline points="343.947 55.92 343.22 58.495 342.978 59.237 342.737 59.639 342.496 59.87 342.376 59.901"/><polyline points="344.556 56.782 346.026 56.393 346.026 56.05 345.903 55.74 345.78 55.601 345.534 55.496 345.167 55.594 344.922 55.831 344.678 56.237 344.556 56.782 344.556 57.123 344.678 57.604 344.922 57.882 345.167 57.989 345.534 57.894 345.78 57.658 346.026 57.251"/><line x1="346.89" x2="346.89" y1="55.133" y2="57.541"/><polyline points="346.89 56.165 347.014 55.616 347.262 55.206 347.51 54.967 347.884 54.867"/><polyline points="351.921 52.564 350.649 52.909 350.522 54.51 350.649 54.302 351.029 54.026 351.411 53.924 351.794 53.996 352.049 54.278 352.177 54.768 352.177 55.118 352.049 55.676 351.794 56.092 351.411 56.367 351.029 56.466 350.649 56.391 350.522 56.25 350.395 55.935"/><line x1="376.86" x2="376.86" y1="275.094" y2="286.195"/><polyline points="376.86 276.68 377.917 275.623 378.975 275.094 380.56 275.094 381.618 275.623 382.675 276.68 383.204 278.266 383.204 279.323 382.675 280.909 381.618 281.966 380.56 282.495 378.975 282.495 377.917 281.966 376.86 280.909"/><line x1="392.719" x2="392.719" y1="275.094" y2="282.495"/><polyline points="392.719 276.68 391.662 275.623 390.605 275.094 389.019 275.094 387.961 275.623 386.904 276.68 386.375 278.266 386.375 279.323 386.904 280.909 387.961 281.966 389.019 282.495 390.605 282.495 391.662 281.966 392.719 280.909"/><line x1="396.948" x2="396.948" y1="275.094" y2="282.495"/><polyline points="396.948 277.208 398.534 275.623 399.591 275.094 401.177 275.094 402.235 275.623 402.763 277.208 402.763 282.495"/><line x1="415.45" x2="424.966" y1="276.151" y2="276.151"/><line x1="415.45" x2="424.966" y1="279.323" y2="279.323"/><polyline points="437.653 274.037 437.653 273.508 438.182 272.451 438.71 271.922 439.768 271.393 441.882 271.393 442.939 271.922 443.468 272.451 443.997 273.508 443.997 274.565 443.468 275.623 442.411 277.208 437.124 282.495 444.525 282.495"/><polyline points="454.041 271.393 448.754 271.393 448.226 276.151 448.754 275.623 450.34 275.094 451.926 275.094 453.512 275.623 454.569 276.68 455.098 278.266 455.098 279.323 454.569 280.909 453.512 281.966 451.926 282.495 450.34 282.495 448.754 281.966 448.226 281.437 447.697 280.38"/><line x1="464.613" x2="464.613" y1="271.393" y2="282.495"/><polyline points="464.613 276.68 463.556 275.623 462.499 275.094 460.913 275.094 459.856 275.623 458.798 276.68 458.27 278.266 458.27 279.323 458.798 280.909 459.856 281.966 460.913 282.495 462.499 282.495 463.556 281.966 464.613 280.909"/><polyline points="468.314 278.266 474.658 278.266 474.658 277.208 474.129 276.151 473.6 275.623 472.543 275.094 470.957 275.094 469.9 275.623 468.842 276.68 468.314 278.266 468.314 279.323 468.842 280.909 469.9 281.966 470.957 282.495 472.543 282.495 473.6 281.966 474.658 280.909"/><polyline points="484.173 275.094 484.173 283.552 483.644 285.138 483.116 285.666 482.058 286.195 480.472 286.195 479.415 285.666"/><polyline points="484.173 276.68 483.116 275.623 482.058 275.094 480.472 275.094 479.415 275.623 478.358 276.68 477.829 278.266 477.829 279.323 478.358 280.909 479.415 281.966 480.472 282.495 482.058 282.495 483.116 281.966 484.173 280.909"/><polyline points="636.737 21.553 665.368 147.471 776.424 188.68 833.328 80.358"/><line x1="833.328" x2="636.737" y1="48.341" y2="21.553"/><line x1="639.2" x2="640.17" y1="23.579" y2="27.974"/><line x1="642.334" x2="642.954" y1="25.459" y2="28.387"/><polyline points="642.468 26.091 642.082 25.627 641.741 25.374 641.296 25.311 641.046 25.479 640.842 25.857 640.831 26.464 640.922 26.881 641.204 27.526 641.587 27.984 641.925 28.234 642.365 28.299 642.615 28.136 642.822 27.764"/><line x1="643.228" x2="644.728" y1="25.586" y2="28.65"/><polyline points="645.024 25.842 644.728 28.65 644.603 29.434 644.393 29.801 644.141 29.962 643.994 29.94"/><polyline points="646.03 27.218 647.838 27.48 647.756 27.057 647.522 26.612 647.329 26.378 646.984 26.122 646.53 26.057 646.271 26.226 646.054 26.607 646.03 27.218 646.115 27.638 646.39 28.289 646.773 28.751 647.114 29.003 647.563 29.07 647.823 28.906 648.043 28.532"/><line x1="648.655" x2="649.22" y1="26.36" y2="29.316"/><polyline points="648.899 27.634 648.929 27.02 649.153 26.638 649.418 26.469 649.878 26.534"/><polyline points="653.312 26.394 653.585 26.222 653.941 25.638 654.718 30.131"/><polyline points="623.557 26.183 659.019 155.038 773.987 199.921 833.328 92.675"/><line x1="833.328" x2="623.557" y1="57.589" y2="26.183"/><line x1="626.213" x2="627.452" y1="28.342" y2="32.961"/><line x1="629.554" x2="630.35" y1="30.355" y2="33.432"/><polyline points="629.726 31.02 629.302 30.529 628.935 30.259 628.472 30.186 628.223 30.359 628.032 30.753 628.053 31.389 628.169 31.827 628.495 32.507 628.915 32.991 629.278 33.258 629.737 33.333 629.986 33.165 630.18 32.778"/><line x1="630.484" x2="632.198" y1="30.501" y2="33.733"/><polyline points="632.356 30.794 632.198 33.733 632.109 34.552 631.911 34.934 631.659 35.099 631.506 35.073"/><polyline points="633.47 32.25 635.355 32.55 635.248 32.106 634.982 31.635 634.77 31.387 634.4 31.114 633.927 31.04 633.667 31.214 633.462 31.61 633.47 32.25 633.579 32.692 633.898 33.378 634.318 33.867 634.684 34.137 635.153 34.213 635.413 34.045 635.621 33.656"/><line x1="636.143" x2="636.88" y1="31.386" y2="34.494"/><polyline points="636.461 32.726 636.461 32.083 636.674 31.685 636.94 31.511 637.419 31.586"/><polyline points="640.699 31.662 640.649 31.436 640.711 31.006 640.823 30.803 641.099 30.625 641.753 30.725 642.13 31.004 642.343 31.258 642.605 31.739 642.703 32.194 642.637 32.621 642.458 33.247 641.332 35.218 643.589 35.585"/><polyline points="608.417 31.503 652.15 163.223 771.304 212.296 833.328 107.29"/><line x1="833.328" x2="608.417" y1="68.862" y2="31.503"/><line x1="611.298" x2="612.877" y1="33.812" y2="38.676"/><line x1="614.874" x2="615.894" y1="35.979" y2="39.219"/><polyline points="615.094 36.68 614.625 36.157 614.23 35.868 613.748 35.784 613.502 35.962 613.331 36.371 613.394 37.039 613.542 37.5 613.923 38.218 614.387 38.733 614.778 39.018 615.255 39.104 615.502 38.933 615.677 38.531"/><line x1="615.843" x2="617.819" y1="36.147" y2="39.565"/><polyline points="617.794 36.486 617.819 39.565 617.78 40.422 617.6 40.818 617.351 40.987 617.192 40.958"/><polyline points="619.037 38.033 621.003 38.379 620.865 37.911 620.561 37.412 620.326 37.148 619.926 36.855 619.433 36.77 619.175 36.948 618.989 37.36 619.037 38.033 619.178 38.498 619.551 39.222 620.015 39.742 620.41 40.032 620.899 40.12 621.158 39.947 621.348 39.543"/><line x1="621.745" x2="622.701" y1="37.171" y2="40.444"/><polyline points="622.158 38.583 622.118 37.907 622.313 37.493 622.577 37.315 623.077 37.401"/><polyline points="626.316 36.365 628.198 36.685 627.692 38.429 628.203 38.517 628.608 38.815 628.843 39.083 629.204 39.824 629.331 40.296 629.351 40.972 629.139 41.379 628.696 41.522 628.19 41.431 627.622 41.107 627.39 40.844 627.092 40.346"/><polyline points="590.846 37.677 644.697 172.105 768.335 225.987 833.328 124.911"/><line x1="833.328" x2="590.846" y1="82.908" y2="37.677"/><line x1="593.991" x2="596.008" y1="40.159" y2="45.292"/><line x1="597.838" x2="599.146" y1="42.506" y2="45.923"/><polyline points="598.121 43.245 597.597 42.688 597.168 42.376 596.666 42.278 596.428 42.46 596.286 42.886 596.405 43.587 596.595 44.073 597.043 44.833 597.561 45.382 597.985 45.69 598.482 45.79 598.721 45.615 598.868 45.198"/><line x1="598.848" x2="601.15" y1="42.702" y2="46.327"/><polyline points="600.88 43.097 601.15 46.327 601.178 47.223 601.025 47.634 600.783 47.805 600.617 47.771"/><polyline points="602.281 44.746 604.331 45.151 604.151 44.657 603.799 44.127 603.537 43.845 603.103 43.529 602.588 43.429 602.337 43.611 602.178 44.04 602.281 44.746 602.462 45.237 602.903 46.004 603.422 46.559 603.851 46.87 604.36 46.973 604.612 46.798 604.777 46.379"/><line x1="605" x2="606.24" y1="43.898" y2="47.351"/><polyline points="605.535 45.388 605.441 44.679 605.61 44.249 605.868 44.066 606.39 44.168"/><polyline points="611.08 43.419 610.501 46.6 613.157 47.126"/><line x1="611.08" x2="612.852" y1="43.419" y2="48.682"/><polyline points="577.585 60.147 636.581 181.778 765.034 241.214 833.328 146.572"/><line x1="833.328" x2="577.585" y1="100.892" y2="46.499"/><line x1="577.83" x2="579.514" y1="50.172" y2="53.782"/><polyline points="578.195 50.953 577.604 50.356 577.585 50.342"/><polyline points="577.585 52.912 577.845 53.174 578.308 53.506 578.824 53.624 579.05 53.449 579.157 53.016"/><line x1="578.879" x2="581.598" y1="50.404" y2="54.258"/><polyline points="580.993 50.871 581.598 54.258 581.717 55.195 581.604 55.62 581.374 55.792 581.201 55.752"/><polyline points="582.59 52.635 584.725 53.114 584.491 52.592 584.078 52.027 583.782 51.725 583.306 51.382 582.77 51.264 582.532 51.448 582.413 51.893 582.59 52.635 582.826 53.154 583.353 53.969 583.938 54.563 584.407 54.9 584.938 55.021 585.178 54.846 585.303 54.411"/><line x1="585.283" x2="586.895" y1="51.819" y2="55.469"/><polyline points="585.979 53.395 585.812 52.65 585.941 52.203 586.187 52.019 586.731 52.139"/><polyline points="591.837 51.559 589.97 51.154 590.806 53.522 590.878 53.297 591.321 53.154 591.878 53.277 592.548 53.667 593.143 54.282 593.66 55.118 593.879 55.645 594.021 56.39 593.869 56.827 593.425 56.961 592.873 56.835 592.213 56.45 591.92 56.148 591.515 55.585"/><line x1="653.914" x2="653.914" y1="275.094" y2="286.195"/><polyline points="653.914 276.68 654.972 275.623 656.029 275.094 657.615 275.094 658.672 275.623 659.729 276.68 660.258 278.266 660.258 279.323 659.729 280.909 658.672 281.966 657.615 282.495 656.029 282.495 654.972 281.966 653.914 280.909"/><line x1="669.774" x2="669.774" y1="275.094" y2="282.495"/><polyline points="669.774 276.68 668.716 275.623 667.659 275.094 666.073 275.094 665.016 275.623 663.958 276.68 663.43 278.266 663.43 279.323 663.958 280.909 665.016 281.966 666.073 282.495 667.659 282.495 668.716 281.966 669.774 280.909"/><line x1="674.003" x2="674.003" y1="275.094" y2="282.495"/><polyline points="674.003 277.208 675.588 275.623 676.646 275.094 678.232 275.094 679.289 275.623 679.817 277.208 679.817 282.495"/><line x1="692.505" x2="702.02" y1="276.151" y2="276.151"/><line x1="692.505" x2="702.02" y1="279.323" y2="279.323"/><polyline points="714.707 274.037 714.707 273.508 715.236 272.451 715.765 271.922 716.822 271.393 718.937 271.393 719.994 271.922 720.522 272.451 721.051 273.508 721.051 274.565 720.522 275.623 719.465 277.208 714.179 282.495 721.58 282.495"/><polyline points="731.095 271.393 725.809 271.393 725.28 276.151 725.809 275.623 727.395 275.094 728.981 275.094 730.566 275.623 731.624 276.68 732.152 278.266 732.152 279.323 731.624 280.909 730.566 281.966 728.981 282.495 727.395 282.495 725.809 281.966 725.28 281.437 724.751 280.38"/><line x1="741.668" x2="741.668" y1="271.393" y2="282.495"/><polyline points="741.668 276.68 740.611 275.623 739.553 275.094 737.967 275.094 736.91 275.623 735.853 276.68 735.324 278.266 735.324 279.323 735.853 280.909 736.91 281.966 737.967 282.495 739.553 282.495 740.611 281.966 741.668 280.909"/><polyline points="745.368 278.266 751.712 278.266 751.712 277.208 751.183 276.151 750.654 275.623 749.597 275.094 748.011 275.094 746.954 275.623 745.897 276.68 745.368 278.266 745.368 279.323 745.897 280.909 746.954 281.966 748.011 282.495 749.597 282.495 750.654 281.966 751.712 280.909"/><polyline points="761.227 275.094 761.227 283.552 760.699 285.138 760.17 285.666 759.113 286.195 757.527 286.195 756.47 285.666"/><polyline points="761.227 276.68 760.17 275.623 759.113 275.094 757.527 275.094 756.47 275.623 755.412 276.68 754.884 278.266 754.884 279.323 755.412 280.909 756.47 281.966 757.527 282.495 759.113 282.495 760.17 281.966 761.227 280.909"/><polyline points="658.408 292.705 658.408 301.692 658.937 303.278 659.994 303.807 661.051 303.807"/><line x1="656.822" x2="660.522" y1="296.406" y2="296.406"/><polygon points="663.694 292.705 664.223 293.234 664.751 292.705 664.223 292.177"/><line x1="664.223" x2="664.223" y1="296.406" y2="303.807"/><line x1="668.452" x2="668.452" y1="292.705" y2="303.807"/><polyline points="673.21 292.705 673.21 301.692 673.738 303.278 674.795 303.807 675.853 303.807"/><line x1="671.624" x2="675.324" y1="296.406" y2="296.406"/><line x1="687.483" x2="696.998" y1="297.463" y2="297.463"/><line x1="687.483" x2="696.998" y1="300.635" y2="300.635"/><polyline points="714.443 292.705 709.157 300.106 717.086 300.106"/><line x1="714.443" x2="714.443" y1="292.705" y2="303.807"/><polyline points="726.073 292.705 720.787 292.705 720.258 297.463 720.787 296.934 722.373 296.406 723.958 296.406 725.544 296.934 726.602 297.992 727.13 299.577 727.13 300.635 726.602 302.221 725.544 303.278 723.958 303.807 722.373 303.807 720.787 303.278 720.258 302.749 719.729 301.692"/><line x1="736.646" x2="736.646" y1="292.705" y2="303.807"/><polyline points="736.646 297.992 735.588 296.934 734.531 296.406 732.945 296.406 731.888 296.934 730.831 297.992 730.302 299.577 730.302 300.635 730.831 302.221 731.888 303.278 732.945 303.807 734.531 303.807 735.588 303.278 736.646 302.221"/><polyline points="740.346 299.577 746.69 299.577 746.69 298.52 746.161 297.463 745.633 296.934 744.575 296.406 742.989 296.406 741.932 296.934 740.875 297.992 740.346 299.577 740.346 300.635 740.875 302.221 741.932 303.278 742.989 303.807 744.575 303.807 745.633 303.278 746.69 302.221"/><polyline points="756.205 296.406 756.205 304.864 755.677 306.45 755.148 306.978 754.091 307.507 752.505 307.507 751.447 306.978"/><polyline points="756.205 297.992 755.148 296.934 754.091 296.406 752.505 296.406 751.447 296.934 750.39 297.992 749.862 299.577 749.862 300.635 750.39 302.221 751.447 303.278 752.505 303.807 754.091 303.807 755.148 303.278 756.205 302.221"/><polyline points="913.791 114.762 942.422 201.846 1053.479 254.675 1110.382 199.269"/><line x1="1110.382" x2="913.791" y1="178.868" y2="114.762"/><line x1="916.255" x2="917.225" y1="116.643" y2="119.675"/><line x1="919.389" x2="920.008" y1="118.59" y2="120.604"/><polyline points="919.523 119.025 919.137 118.637 918.795 118.394 918.351 118.248 918.1 118.295 917.896 118.487 917.885 118.871 917.976 119.159 918.258 119.637 918.641 120.02 918.979 120.261 919.42 120.408 919.67 120.364 919.877 120.176"/><line x1="920.282" x2="921.783" y1="118.885" y2="121.196"/><polyline points="922.078 119.478 921.783 121.196 921.657 121.666 921.447 121.85 921.195 121.892 921.048 121.843"/><polyline points="923.085 120.596 924.892 121.195 924.81 120.906 924.576 120.566 924.383 120.371 924.039 120.125 923.585 119.975 923.325 120.021 923.108 120.212 923.085 120.596 923.169 120.884 923.444 121.364 923.827 121.75 924.168 121.993 924.618 122.143 924.877 122.1 925.097 121.914"/><line x1="925.71" x2="926.274" y1="120.677" y2="122.695"/><polyline points="925.953 121.547 925.984 121.163 926.208 120.974 926.473 120.929 926.932 121.081"/><polyline points="930.366 121.813 930.64 121.769 930.996 121.482 931.772 124.531"/><polyline points="900.611 125.844 936.073 211.546 1047.036 267.081"/><line x1="1053.554" x2="1110.382" y1="267.081" y2="221.73"/><line x1="1110.382" x2="900.611" y1="200.999" y2="125.844"/><line x1="903.267" x2="904.506" y1="127.836" y2="130.899"/><line x1="906.608" x2="907.404" y1="129.927" y2="131.96"/><polyline points="906.78 130.366 906.356 129.961 905.99 129.703 905.527 129.535 905.277 129.57 905.086 129.751 905.108 130.133 905.224 130.423 905.55 130.912 905.97 131.312 906.332 131.568 906.791 131.735 907.041 131.704 907.235 131.528"/><line x1="907.538" x2="909.252" y1="130.264" y2="132.636"/><polyline points="909.41 130.942 909.252 132.636 909.163 133.096 908.966 133.268 908.714 133.298 908.561 133.241"/><polyline points="910.524 132.103 912.409 132.789 912.302 132.497 912.037 132.148 911.825 131.944 911.455 131.683 910.981 131.511 910.721 131.544 910.516 131.722 910.524 132.103 910.633 132.394 910.952 132.885 911.372 133.287 911.738 133.545 912.207 133.717 912.467 133.688 912.675 133.514"/><line x1="913.198" x2="913.934" y1="132.314" y2="134.349"/><polyline points="913.515 133.191 913.516 132.811 913.728 132.634 913.994 132.603 914.473 132.776"/><polyline points="917.753 133.706 917.703 133.559 917.765 133.322 917.877 133.232 918.153 133.201 918.807 133.437 919.184 133.703 919.398 133.911 919.659 134.266 919.757 134.561 919.692 134.796 919.512 135.117 918.387 135.978 920.643 136.804"/><polyline points="885.472 138.573 929.205 222.04 1014.513 267.081"/><line x1="1078.666" x2="1110.382" y1="267.081" y2="248.381"/><line x1="1110.382" x2="885.472" y1="227.976" y2="138.573"/><line x1="888.352" x2="889.932" y1="140.69" y2="143.762"/><line x1="891.928" x2="892.948" y1="142.947" y2="144.983"/><polyline points="892.149 143.387 891.68 142.965 891.284 142.689 890.802 142.495 890.556 142.514 890.385 142.678 890.449 143.052 890.597 143.343 890.977 143.842 891.441 144.259 891.832 144.531 892.31 144.725 892.556 144.71 892.731 144.551"/><line x1="892.898" x2="894.873" y1="143.337" y2="145.762"/><polyline points="894.849 144.12 894.873 145.762 894.834 146.205 894.655 146.36 894.405 146.372 894.246 146.308"/><polyline points="896.091 145.325 898.058 146.118 897.919 145.826 897.615 145.467 897.38 145.254 896.981 144.975 896.487 144.777 896.229 144.792 896.043 144.953 896.091 145.325 896.232 145.616 896.605 146.116 897.07 146.536 897.465 146.811 897.954 147.009 898.212 146.998 898.402 146.842"/><line x1="898.8" x2="899.756" y1="145.705" y2="147.739"/><polyline points="899.212 146.583 899.172 146.212 899.367 146.052 899.631 146.039 900.131 146.24"/><polyline points="903.371 146.692 905.252 147.443 904.747 148.213 905.257 148.418 905.662 148.701 905.897 148.916 906.259 149.421 906.385 149.711 906.405 150.076 906.193 150.227 905.75 150.165 905.245 149.961 904.676 149.613 904.444 149.401 904.147 149.045"/><polyline points="867.9 153.348 921.752 233.426 981.99 267.081"/><line x1="1110.382" x2="867.9" y1="261.589" y2="153.348"/><line x1="871.045" x2="873.062" y1="155.606" y2="158.649"/><line x1="874.893" x2="876.2" y1="158.058" y2="160.071"/><polyline points="875.176 158.493 874.652 158.052 874.222 157.756 873.721 157.53 873.482 157.526 873.34 157.666 873.46 158.025 873.649 158.313 874.097 158.818 874.615 159.253 875.039 159.545 875.536 159.77 875.775 159.778 875.923 159.644"/><line x1="875.902" x2="878.205" y1="158.512" y2="160.979"/><polyline points="877.934 159.426 878.205 160.979 878.233 161.393 878.08 161.523 877.837 161.512 877.671 161.436"/><polyline points="879.335 160.677 881.385 161.602 881.206 161.314 880.854 160.948 880.591 160.726 880.157 160.426 879.642 160.195 879.391 160.185 879.232 160.321 879.335 160.677 879.517 160.964 879.957 161.469 880.476 161.907 880.905 162.202 881.415 162.434 881.667 162.446 881.831 162.316"/><line x1="882.054" x2="883.294" y1="161.28" y2="163.285"/><polyline points="882.59 162.145 882.496 161.792 882.664 161.659 882.922 161.67 883.444 161.905"/><polyline points="888.134 163.267 887.556 164.491 890.212 165.69"/><line x1="888.134" x2="889.906" y1="163.267" y2="166.281"/><polyline points="854.639 179.057 913.635 245.826 949.467 267.081"/><line x1="1036.613" x2="854.639" y1="267.081" y2="174.46"/><line x1="854.885" x2="856.569" y1="175.805" y2="177.757"/><polyline points="855.249 176.227 854.658 175.768 854.639 175.755"/><polyline points="854.639 176.621 854.899 176.822 855.362 177.137 855.879 177.402 856.104 177.442 856.212 177.343"/><line x1="855.934" x2="858.652" y1="176.342" y2="178.829"/><polyline points="858.047 177.423 858.652 178.829 858.772 179.197 858.658 179.29 858.428 179.248 858.256 179.159"/><polyline points="859.645 178.716 861.779 179.811 861.546 179.533 861.133 179.162 860.836 178.931 860.36 178.607 859.824 178.333 859.587 178.291 859.468 178.389 859.645 178.716 859.88 178.994 860.407 179.499 860.993 179.955 861.462 180.274 861.992 180.547 862.232 180.592 862.357 180.501"/><line x1="862.337" x2="863.95" y1="179.619" y2="181.553"/><polyline points="863.033 180.454 862.866 180.13 862.995 180.036 863.241 180.082 863.786 180.36"/><polyline points="868.892 182.398 867.024 181.445 867.86 182.608 867.932 182.564 868.375 182.709 868.932 182.994 869.602 183.419 870.197 183.886 870.714 184.393 870.933 184.667 871.075 184.98 870.923 185.061 870.479 184.911 869.928 184.628 869.268 184.209 868.974 183.98 868.569 183.613"/><line x1="930.969" x2="930.969" y1="275.094" y2="286.195"/><polyline points="930.969 276.68 932.026 275.623 933.083 275.094 934.669 275.094 935.726 275.623 936.784 276.68 937.312 278.266 937.312 279.323 936.784 280.909 935.726 281.966 934.669 282.495 933.083 282.495 932.026 281.966 930.969 280.909"/><line x1="946.828" x2="946.828" y1="275.094" y2="282.495"/><polyline points="946.828 276.68 945.771 275.623 944.713 275.094 943.127 275.094 942.07 275.623 941.013 276.68 940.484 278.266 940.484 279.323 941.013 280.909 942.07 281.966 943.127 282.495 944.713 282.495 945.771 281.966 946.828 280.909"/><line x1="951.057" x2="951.057" y1="275.094" y2="282.495"/><polyline points="951.057 277.208 952.643 275.623 953.7 275.094 955.286 275.094 956.343 275.623 956.872 277.208 956.872 282.495"/><line x1="969.559" x2="979.074" y1="276.151" y2="276.151"/><line x1="969.559" x2="979.074" y1="279.323" y2="279.323"/><polyline points="991.762 274.037 991.762 273.508 992.29 272.451 992.819 271.922 993.876 271.393 995.991 271.393 997.048 271.922 997.577 272.451 998.105 273.508 998.105 274.565 997.577 275.623 996.519 277.208 991.233 282.495 998.634 282.495"/><polyline points="1008.149 271.393 1002.863 271.393 1002.335 276.151 1002.863 275.623 1004.449 275.094 1006.035 275.094 1007.621 275.623 1008.678 276.68 1009.207 278.266 1009.207 279.323 1008.678 280.909 1007.621 281.966 1006.035 282.495 1004.449 282.495 1002.863 281.966 1002.335 281.437 1001.806 280.38"/><line x1="1018.722" x2="1018.722" y1="271.393" y2="282.495"/><polyline points="1018.722 276.68 1017.665 275.623 1016.608 275.094 1015.022 275.094 1013.964 275.623 1012.907 276.68 1012.379 278.266 1012.379 279.323 1012.907 280.909 1013.964 281.966 1015.022 282.495 1016.608 282.495 1017.665 281.966 1018.722 280.909"/><polyline points="1022.423 278.266 1028.766 278.266 1028.766 277.208 1028.237 276.151 1027.709 275.623 1026.652 275.094 1025.066 275.094 1024.008 275.623 1022.951 276.68 1022.423 278.266 1022.423 279.323 1022.951 280.909 1024.008 281.966 1025.066 282.495 1026.652 282.495 1027.709 281.966 1028.766 280.909"/><polyline points="1038.282 275.094 1038.282 283.552 1037.753 285.138 1037.224 285.666 1036.167 286.195 1034.581 286.195 1033.524 285.666"/><polyline points="1038.282 276.68 1037.224 275.623 1036.167 275.094 1034.581 275.094 1033.524 275.623 1032.467 276.68 1031.938 278.266 1031.938 279.323 1032.467 280.909 1033.524 281.966 1034.581 282.495 1036.167 282.495 1037.224 281.966 1038.282 280.909"/><polyline points="935.462 292.705 935.462 301.692 935.991 303.278 937.048 303.807 938.105 303.807"/><line x1="933.876" x2="937.577" y1="296.406" y2="296.406"/><polygon points="940.749 292.705 941.277 293.234 941.806 292.705 941.277 292.177"/><line x1="941.277" x2="941.277" y1="296.406" y2="303.807"/><line x1="945.506" x2="945.506" y1="292.705" y2="303.807"/><polyline points="950.264 292.705 950.264 301.692 950.793 303.278 951.85 303.807 952.907 303.807"/><line x1="948.678" x2="952.379" y1="296.406" y2="296.406"/><line x1="964.537" x2="974.053" y1="297.463" y2="297.463"/><line x1="964.537" x2="974.053" y1="300.635" y2="300.635"/><polyline points="991.497 292.705 986.211 300.106 994.141 300.106"/><line x1="991.497" x2="991.497" y1="292.705" y2="303.807"/><polyline points="1003.127 292.705 997.841 292.705 997.312 297.463 997.841 296.934 999.427 296.406 1001.013 296.406 1002.599 296.934 1003.656 297.992 1004.185 299.577 1004.185 300.635 1003.656 302.221 1002.599 303.278 1001.013 303.807 999.427 303.807 997.841 303.278 997.312 302.749 996.784 301.692"/><line x1="1013.7" x2="1013.7" y1="292.705" y2="303.807"/><polyline points="1013.7 297.992 1012.643 296.934 1011.586 296.406 1010 296.406 1008.942 296.934 1007.885 297.992 1007.356 299.577 1007.356 300.635 1007.885 302.221 1008.942 303.278 1010 303.807 1011.586 303.807 1012.643 303.278 1013.7 302.221"/><polyline points="1017.4 299.577 1023.744 299.577 1023.744 298.52 1023.216 297.463 1022.687 296.934 1021.63 296.406 1020.044 296.406 1018.986 296.934 1017.929 297.992 1017.4 299.577 1017.4 300.635 1017.929 302.221 1018.986 303.278 1020.044 303.807 1021.63 303.807 1022.687 303.278 1023.744 302.221"/><polyline points="1033.26 296.406 1033.26 304.864 1032.731 306.45 1032.202 306.978 1031.145 307.507 1029.559 307.507 1028.502 306.978"/><polyline points="1033.26 297.992 1032.202 296.934 1031.145 296.406 1029.559 296.406 1028.502 296.934 1027.445 297.992 1026.916 299.577 1026.916 300.635 1027.445 302.221 1028.502 303.278 1029.559 303.807 1031.145 303.807 1032.202 303.278 1033.26 302.221"/><line x1="900.837" x2="900.837" y1="317.718" y2="325.118"/><polyline points="900.837 319.832 902.423 318.246 903.48 317.718 905.066 317.718 906.123 318.246 906.652 319.832 906.652 325.118"/><polyline points="906.652 319.832 908.237 318.246 909.295 317.718 910.881 317.718 911.938 318.246 912.467 319.832 912.467 325.118"/><polygon points="918.81 317.718 917.753 318.246 916.696 319.303 916.167 320.889 916.167 321.947 916.696 323.533 917.753 324.59 918.81 325.118 920.396 325.118 921.453 324.59 922.511 323.533 923.039 321.947 923.039 320.889 922.511 319.303 921.453 318.246 920.396 317.718"/><line x1="925.683" x2="928.854" y1="317.718" y2="325.118"/><line x1="932.026" x2="928.854" y1="317.718" y2="325.118"/><polyline points="934.669 320.889 941.013 320.889 941.013 319.832 940.484 318.775 939.956 318.246 938.898 317.718 937.312 317.718 936.255 318.246 935.198 319.303 934.669 320.889 934.669 321.947 935.198 323.533 936.255 324.59 937.312 325.118 938.898 325.118 939.956 324.59 941.013 323.533"/><line x1="953.172" x2="962.687" y1="318.775" y2="318.775"/><line x1="953.172" x2="962.687" y1="321.947" y2="321.947"/><polyline points="979.074 311.903 978.017 312.96 976.96 314.546 975.903 316.66 975.374 319.303 975.374 321.418 975.903 324.061 976.96 326.176 978.017 327.762 979.074 328.819"/><polygon points="985.418 314.017 983.832 314.546 982.775 316.132 982.246 318.775 982.246 320.361 982.775 323.004 983.832 324.59 985.418 325.118 986.475 325.118 988.061 324.59 989.119 323.004 989.647 320.361 989.647 318.775 989.119 316.132 988.061 314.546 986.475 314.017"/><polyline points="993.876 323.004 993.348 323.533 992.819 323.004 993.348 322.475 993.876 323.004 993.876 324.061 992.819 325.118"/><polyline points="1011.85 314.017 1006.563 314.017 1006.035 318.775 1006.563 318.246 1008.149 317.718 1009.735 317.718 1011.321 318.246 1012.379 319.303 1012.907 320.889 1012.907 321.947 1012.379 323.533 1011.321 324.59 1009.735 325.118 1008.149 325.118 1006.563 324.59 1006.035 324.061 1005.506 323.004"/><polyline points="1022.423 319.303 1021.365 318.246 1020.308 317.718 1018.722 317.718 1017.665 318.246 1016.608 319.303 1016.079 320.889 1016.079 321.947 1016.608 323.533 1017.665 324.59 1018.722 325.118 1020.308 325.118 1021.365 324.59 1022.423 323.533"/><line x1="1026.123" x2="1026.123" y1="317.718" y2="325.118"/><polyline points="1026.123 319.832 1027.709 318.246 1028.766 317.718 1030.352 317.718 1031.409 318.246 1031.938 319.832 1031.938 325.118"/><polyline points="1031.938 319.832 1033.524 318.246 1034.581 317.718 1036.167 317.718 1037.224 318.246 1037.753 319.832 1037.753 325.118"/><polyline points="1042.511 323.004 1041.982 323.533 1041.453 323.004 1041.982 322.475 1042.511 323.004 1042.511 324.061 1041.453 325.118"/><polygon points="1057.312 314.017 1055.726 314.546 1054.669 316.132 1054.141 318.775 1054.141 320.361 1054.669 323.004 1055.726 324.59 1057.312 325.118 1058.37 325.118 1059.956 324.59 1061.013 323.004 1061.542 320.361 1061.542 318.775 1061.013 316.132 1059.956 314.546 1058.37 314.017"/><polyline points="1064.713 311.903 1065.771 312.96 1066.828 314.546 1067.885 316.66 1068.414 319.303 1068.414 321.418 1067.885 324.061 1066.828 326.176 1065.771 327.762 1064.713 328.819"/></g><g id="layer7" fill="none" stroke="gray" style="display:inline"><polygon points="23.476 11.339 23.476 267.081 279.219 267.081 279.219 11.339"/><polygon points="300.531 11.339 300.531 267.081 556.273 267.081 556.273 11.339"/><polygon points="577.585 11.339 577.585 267.081 833.328 267.081 833.328 11.339"/><polygon points="854.639 11.339 854.639 267.081 1110.382 267.081 1110.382 11.339"/></g></svg>