<?xml version="1.0" encoding="utf-8" ?>
<svg xmlns="http://www.w3.org/2000/svg" xmlns:cc="http://creativecommons.org/ns" xmlns:dc="http://purl.org/dc/elements/1.1/" xmlns:ev="http://www.w3.org/2001/xml-events" xmlns:inkscape="http://www.inkscape.org/namespaces/inkscape" xmlns:rdf="http://www.w3.org/1999/02/22-rdf-syntax-ns" xmlns:sodipodi="http://sodipodi.sourceforge.net/DTD/sodipodi-0.dtd" xmlns:xlink="http://www.w3.org/1999/xlink" baseProfile="tiny" height="15.0cm" version="1.2" viewBox="0 0 566.9291338582676 566.9291338582676" width="15.0cm">
  <metadata>
    <rdf:RDF>
      <cc:Work>
        <dc:format>image/svg+xml</dc:format>
        <dc:source>vpype -I figures/fig_overview.vpy write figures/fig_overview.svg
</dc:source>
        <dc:date>2022-03-31T12:15:56.426380</dc:date>
      </cc:Work>
    </rdf:RDF>
  </metadata>
  <defs/>
  <g fill="none" id="layer1" inkscape:groupmode="layer" inkscape:label="1" stroke="#000000" style="display:inline">
    <line x1="320.1388" x2="319.3108" y1="22.0307" y2="43.8603"/>
    <polyline points="463.2344,431.4253 493.7208,458.6972 555.5906,121.5749 320.1388,22.0307"/>
    <line x1="486.0978" x2="521.1194" y1="285.709" y2="309.4048"/>
    <line x1="418.4582" x2="416.064" y1="63.5981" y2="88.3685"/>
    <line x1="505.5745" x2="504.3124" y1="106.7545" y2="115.0733"/>
    <line x1="510.634" x2="509.7697" y1="111.9194" y2="117.4866"/>
    <polyline points="510.4483,113.1155 509.9916,112.0657 509.4736,111.415 508.6055,111.0377 507.9668,111.1844 507.2684,111.7282 506.7985,112.7929 506.6772,113.5854 506.7826,114.8993 507.2359,115.9439 507.7502,116.5936 508.6144,116.9757 509.253,116.8348 509.9544,116.2968"/>
    <line x1="512.381" x2="513.2559" y1="112.6788" y2="119.0283"/>
    <polyline points="515.8985,114.2077 513.2559,119.0283 512.4231,120.3587 511.7173,120.8929 511.0751,121.0301 510.7853,120.9009"/>
    <polyline points="516.9893,117.2555 520.5446,118.8124 520.6748,118.0081 520.5073,117.0732 520.2747,116.5409 519.7447,115.8795 518.8538,115.4922 518.1966,115.6365 517.4766,116.1819 516.9893,117.2555 516.8615,118.0562 516.9646,119.3855 517.4264,120.4448 517.9525,121.1052 518.8394,121.4974 519.4964,121.3591 520.2196,120.8197"/>
    <line x1="523.0285" x2="522.1082" y1="117.3068" y2="122.943"/>
    <polyline points="522.6333,119.727 523.1303,118.6485 523.8625,118.1023 524.5301,117.9595 525.4337,118.3523"/>
    <polyline points="532.6375,120.1693 533.3217,120.0269 534.4552,119.1983 532.9966,127.7581"/>
  </g>
  <g fill="none" id="layer2" inkscape:groupmode="layer" inkscape:label="2" stroke="#dddddd" style="display:inline">
    <line x1="416.064" x2="389.2987" y1="88.3685" y2="365.2853"/>
    <line x1="314.5403" x2="486.0978" y1="169.6324" y2="285.709"/>
    <polyline points="319.3108,43.8603 309.8161,294.1831 463.2344,431.4253"/>
    <line x1="280.5755" x2="299.1084" y1="177.1118" y2="190.665"/>
    <polyline points="280.7691,165.5306 278.4677,303.2136 295.4192,319.5106"/>
    <line x1="198.7309" x2="402.4598" y1="283.2814" y2="229.1191"/>
  </g>
  <g fill="none" id="layer3" inkscape:groupmode="layer" inkscape:label="3" stroke="#000000" style="display:inline">
    <line x1="283.0813" x2="280.7691" y1="27.194" y2="165.5306"/>
    <polyline points="295.4192,319.5106 456.4964,474.3686 510.2621,131.7014 283.0813,27.194"/>
    <line x1="299.1084" x2="480.2281" y1="190.665" y2="323.1184"/>
    <line x1="377.4987" x2="355.1742" y1="70.6278" y2="376.9584"/>
    <line x1="460.1365" x2="459.0771" y1="115.0516" y2="123.5315"/>
    <line x1="465.0734" x2="464.345" y1="120.3896" y2="126.065"/>
    <polyline points="464.9169,121.6091 464.4608,120.5311 463.9532,119.86 463.1152,119.4638 462.5062,119.6058 461.8472,120.1524 461.4163,121.2339 461.3144,122.0418 461.4388,123.3849 461.8914,124.4574 462.3955,125.1274 463.2297,125.5286 463.8386,125.3928 464.5007,124.8522"/>
    <line x1="466.7602" x2="467.7112" y1="121.1871" y2="127.6839"/>
    <polyline points="470.1568,122.7931 467.7112,127.6839 466.9373,129.0322 466.2709,129.5687 465.6583,129.7006 465.3785,129.5649"/>
    <polyline points="471.256,125.9204 474.6903,127.5561 474.8009,126.7361 474.6237,125.7788 474.3913,125.232 473.8717,124.5495 473.0112,124.1426 472.384,124.2817 471.7038,124.8298 471.256,125.9204 471.1478,126.7367 471.2702,128.0961 471.7315,129.1841 472.2473,129.8654 473.104,130.2774 473.7311,130.1446 474.4145,129.6027"/>
    <line x1="477.0441" x2="476.262" y1="126.0494" y2="131.7962"/>
    <polyline points="476.7083,128.5173 477.1655,127.4216 477.8577,126.8729 478.495,126.7354 479.3682,127.1482"/>
    <polyline points="485.6555,129.2337 485.7145,128.8176 486.1292,128.1242 486.4854,127.8468 487.1398,127.7086 488.3329,128.2678 488.8708,128.9663 489.1099,129.5248 489.2889,130.5013 489.1687,131.3363 488.7499,132.0291 487.9741,132.995 484.4221,135.7206 488.5688,137.7149"/>
  </g>
  <g fill="none" id="layer6" inkscape:groupmode="layer" inkscape:label="6" stroke="#ffaaaa" style="display:inline">
    <line x1="402.4598" x2="404.4107" y1="229.1191" y2="208.9352"/>
    <line x1="402.4598" x2="416.1994" y1="229.1191" y2="238.4154"/>
    <line x1="413.4676" x2="415.099" y1="241.5991" y2="246.6927"/>
    <line x1="415.4925" x2="413.0801" y1="242.984" y2="245.3004"/>
    <line x1="408.2692" x2="408.9921" y1="203.3946" y2="207.9258"/>
    <polyline points="410.4815,204.7956 408.9921,207.9258 408.5164,208.7819 408.0958,209.0916 407.7028,209.1287 407.5199,209.0112"/>
    <line x1="402.4598" x2="384.0419" y1="229.1191" y2="234.0156"/>
    <line x1="387.0755" x2="384.0661" y1="237.7737" y2="242.1816"/>
    <line x1="384.3808" x2="387.0755" y1="238.4971" y2="237.7737"/>
    <line x1="384.0661" x2="386.7548" y1="242.1816" y2="241.4542"/>
    <line x1="407.5582" x2="408.297" y1="222.2711" y2="226.5767"/>
    <line x1="409.9611" x2="408.297" y1="221.64" y2="226.5767"/>
    <line x1="409.9611" x2="410.69" y1="221.64" y2="225.9419"/>
    <line x1="412.3572" x2="410.69" y1="221.0106" y2="225.9419"/>
    <polygon points="415.641,220.148 415.0105,220.6348 414.3455,221.4516 413.9447,222.5193 413.8764,223.178 414.0718,224.0862 414.5986,224.5857 415.1589,224.7564 416.0499,224.52 416.678,224.0345 417.3407,223.2209 417.7419,222.1569 417.8117,221.4992 417.6195,220.5898 417.0947,220.0869 416.5345,219.9134"/>
    <line x1="420.0988" x2="419.6047" y1="218.9771" y2="223.577"/>
    <polyline points="419.8867,220.9519 420.2889,219.8872 420.952,219.073 421.5796,218.5882 422.4668,218.3551"/>
    <line x1="424.1969" x2="423.439" y1="215.6607" y2="222.5598"/>
    <line x1="429.7925" x2="429.0123" y1="214.1983" y2="221.0813"/>
    <polyline points="429.4201,217.4836 428.9081,216.9818 428.3583,216.8077 427.4772,217.0391 426.8525,217.5221 426.1912,218.3335 425.7876,219.3953 425.7148,220.0508 425.8993,220.9552 426.4134,221.4537 426.9632,221.6249 427.842,221.3918 428.4643,220.91 429.1234,220.1018"/>
    <polygon points="437.7005,214.3538 437.081,214.8335 436.4228,215.6403 436.0169,216.6969 435.9402,217.3496 436.1154,218.2508 436.6186,218.7484 437.1595,218.92 438.0278,218.6897 438.645,218.2112 439.3009,217.4076 439.707,216.3546 439.7852,215.7029 439.6131,214.8005 439.1119,214.2996 438.571,214.1251"/>
    <line x1="442.0444" x2="441.4921" y1="213.2128" y2="217.7707"/>
    <polyline points="441.8073,215.1695 442.2144,214.1158 442.8708,213.3116 443.4874,212.8337 444.3521,212.6066"/>
    <polygon points="445.7854,210.0185 446.0331,210.2701 446.3613,209.868 446.1138,209.6162"/>
    <line x1="445.7911" x2="445.2291" y1="212.2286" y2="216.7794"/>
    <polyline points="451.2373,210.7981 450.5791,215.9848 450.1714,217.0292 449.8457,217.4278 449.2351,217.9022 448.3797,218.1303 447.8494,217.9596"/>
    <polyline points="451.1136,211.7733 450.6245,211.2735 450.0937,211.0985 449.2349,211.3241 448.6212,211.8001 447.9666,212.6016 447.5582,213.6524 447.4772,214.302 447.642,215.1995 448.133,215.696 448.6639,215.8682 449.5205,215.6409 450.1319,215.1661 450.7843,214.3677"/>
    <polygon points="453.5269,207.9952 453.7704,208.2465 454.0975,207.8461 453.8541,207.5947"/>
    <line x1="453.5199" x2="452.9379" y1="210.1985" y2="214.7344"/>
    <line x1="455.7963" x2="455.2084" y1="209.6006" y2="214.132"/>
    <polyline points="455.628,210.898 456.6061,209.7012 457.216,209.2277 458.0666,209.0043 458.5905,209.1796 458.7457,210.0768 458.3204,213.3065"/>
  </g>
  <g fill="none" id="layer7" inkscape:groupmode="layer" inkscape:label="7" stroke="#00aa00" style="display:inline">
    <polygon points="310.3206,253.6148 309.9283,251.8159 308.6952,250.6708 306.9008,250.4456 304.9566,251.196 303.3118,252.751 302.3469,254.7511 302.2835,256.7337 303.1328,258.2429 304.6963,258.9351 306.6142,258.6563 308.4497,257.4731 309.7864,255.6552"/>
  </g>
  <g fill="none" id="layer8" inkscape:groupmode="layer" inkscape:label="8" stroke="#00aa00" style="display:inline">
    <line x1="310.3095" x2="310.1511" y1="266.2965" y2="270.5138"/>
    <polyline points="310.2754,267.2022 309.7014,266.7614 309.1155,266.6222 308.219,266.8668 307.61,267.3323 306.9902,268.1001 306.6591,269.0877 306.6378,269.691 306.9048,270.5129 307.4805,270.9507 308.0663,271.0874 308.9604,270.8414 309.5671,270.377 310.1849,269.6121"/>
    <polygon points="312.4775,263.6114 312.7637,263.8331 313.0734,263.4496 312.7874,263.2278"/>
    <line x1="312.6927" x2="312.5279" y1="265.6462" y2="269.8599"/>
    <line x1="315.0697" x2="314.8984" y1="264.9977" y2="269.2077"/>
    <polyline points="315.0207,266.203 315.9471,265.0564 316.5522,264.5933 317.4406,264.3509 318.0195,264.4907 318.2765,265.3126 318.1479,268.3138"/>
    <polyline points="318.2765,265.3126 319.2015,264.168 319.8052,263.7058 320.6903,263.4643 321.2665,263.6043 321.5205,264.4254 321.3857,267.423"/>
    <polygon points="323.7322,260.5539 324.0125,260.7753 324.3207,260.394 324.0405,260.1725"/>
    <line x1="323.9285" x2="323.7332" y1="262.5809" y2="266.7771"/>
    <line x1="326.2762" x2="326.0747" y1="261.9404" y2="266.133"/>
    <polyline points="326.2185,263.1406 327.1405,262.0007 327.7405,261.5409 328.6179,261.3015 329.1873,261.442 329.4343,262.2612 329.2843,265.2499"/>
    <polyline points="335.0262,259.5532 334.7693,264.3272 334.432,265.2988 334.1268,265.6757 333.5322,266.1326 332.6634,266.3726 332.0992,266.2355"/>
    <polyline points="334.9779,260.4506 334.4295,260.0109 333.8644,259.8701 332.9921,260.1081 332.3945,260.5665 331.7813,261.3243 331.4439,262.3014 331.4131,262.8992 331.6576,263.7151 332.2077,264.1519 332.7727,264.2902 333.6426,264.0509 334.2381,263.5937 334.8494,262.8386"/>
    <line x1="306.5943" x2="306.3741" y1="279.2882" y2="285.5114"/>
    <polyline points="306.5628,280.1804 307.1775,279.4198 307.7817,278.9565 308.6712,278.708 309.2526,278.8397 309.8223,279.2682 310.0845,280.0754 310.0621,280.6682 309.7333,281.6394 309.1204,282.3973 308.5185,282.8594 307.6315,283.1093 307.0502,282.9801 306.4788,282.5545"/>
    <polygon points="313.4005,277.3866 312.7989,277.8483 312.1856,278.6067 311.8559,279.5788 311.8329,280.1711 312.0929,280.976 312.6585,281.4014 313.2351,281.531 314.1167,281.2827 314.7161,280.8222 315.3274,280.0665 315.6577,279.0976 315.6822,278.506 315.4251,277.7001 314.8612,277.2717 314.2845,277.1396"/>
    <polygon points="317.6072,274.1583 317.8883,274.3737 318.1947,273.9948 317.9137,273.7793"/>
    <line x1="317.812" x2="317.6347" y1="276.1541" y2="280.2919"/>
    <line x1="320.156" x2="319.9725" y1="275.4992" y2="279.6335"/>
    <polyline points="320.1035,276.6827 321.0202,275.55 321.618,275.0907 322.494,274.846 323.0639,274.9787 323.3142,275.7836 323.1771,278.7309"/>
    <polyline points="326.0897,271.7979 325.8474,276.8184 326.0947,277.6193 326.6601,277.7499 327.2393,277.5868"/>
    <line x1="325.117" x2="327.1519" y1="274.1131" y2="273.5446"/>
  </g>
  <g fill="none" id="layer11" inkscape:groupmode="layer" inkscape:label="11" stroke="#000000" style="display:inline">
    <polygon points="118.3214,50.1506 141.4767,342.6767 288.9657,544.8984 299.4482,178.7977"/>
    <line x1="130.9788" x2="293.5231" y1="210.0546" y2="385.7333"/>
    <line x1="191.9803" x2="204.157" y1="102.4675" y2="428.6174"/>
    <line x1="258.6933" x2="258.6665" y1="156.4851" y2="165.7387"/>
    <line x1="262.9945" x2="262.9598" y1="162.7213" y2="168.9157"/>
    <polyline points="262.987,164.0527 262.5351,162.8322 262.0813,162.0561 261.3985,161.5587 260.9423,161.6705 260.4854,162.2242 260.254,163.3829 260.2505,164.2645 260.4712,165.7515 260.9195,166.9649 261.3701,167.7393 262.0503,168.2426 262.507,168.1383 262.9672,167.5924"/>
    <line x1="264.37" x2="265.7071" y1="163.7233" y2="170.9487"/>
    <polyline points="267.1423,165.7428 265.7071,170.9487 265.2348,172.375 264.7704,172.9155 264.31,173.0147 264.0817,172.8444"/>
    <polyline points="268.2818,169.2707 271.0899,171.3301 271.0994,170.4342 270.8737,169.3655 270.6431,168.7452 270.1778,167.954 269.4743,167.4416 269.0021,167.5484 268.5269,168.102 268.2818,169.2707 268.2739,170.1621 268.4945,171.6689 268.9519,172.9022 269.4139,173.6917 270.1146,174.2102 270.5873,174.1111 271.0659,173.5654"/>
    <line x1="272.7729" x2="272.6992" y1="169.8445" y2="176.1228"/>
    <polyline points="272.7413,172.5413 272.994,171.3672 273.4795,170.8137 273.9607,170.7098 274.6759,171.2307"/>
    <line x1="279.7859" x2="279.6319" y1="171.7279" y2="181.2529"/>
    <line x1="279.7859" x2="283.0418" y1="171.7279" y2="183.7762"/>
    <line x1="283.2173" x2="283.0418" y1="174.2076" y2="183.7762"/>
  </g>
  <g fill="none" id="layer12" inkscape:groupmode="layer" inkscape:label="12" stroke="#0000ff" style="display:inline">
    <line x1="11.3386" x2="293.5231" y1="333.1006" y2="385.7333"/>
    <line x1="11.3386" x2="130.9788" y1="333.1006" y2="210.0546"/>
  </g>
  <g fill="none" id="layer13" inkscape:groupmode="layer" inkscape:label="13" stroke="#0000ff" style="display:inline">
    <line x1="11.3386" x2="191.9803" y1="333.1006" y2="102.4675"/>
    <line x1="11.3386" x2="204.157" y1="333.1006" y2="428.6174"/>
    <polyline points="33.5626,326.4908 32.6593,326.0283 31.8066,325.9029 30.6044,326.2215 29.8548,326.772 29.1579,327.6603 28.9152,328.779 29.0209,329.453 29.5797,330.3558 30.4851,330.8143 31.3368,330.9365 32.5346,330.6162 33.2808,330.0673 33.9753,329.1828"/>
    <line x1="40.5811" x2="41.2775" y1="323.5775" y2="328.2787"/>
    <polyline points="40.7307,324.5875 39.8366,324.125 38.9912,323.9988 37.7972,324.3153 37.0513,324.8636 36.3561,325.749 36.1105,326.8649 36.2125,327.5374 36.763,328.4389 37.6592,328.8975 38.5036,329.0204 39.6933,328.7023 40.4359,328.1556 41.1286,327.2739"/>
    <line x1="43.7537" x2="44.4386" y1="322.7367" y2="327.4336"/>
    <polyline points="43.9498,324.0818 44.9897,322.7585 45.7316,322.2125 46.9166,321.8985 47.7539,322.0254 48.292,322.9282 48.7697,326.2756"/>
    <polyline points="48.292,322.9282 49.3302,321.6074 50.07,321.0628 51.25,320.75 52.0829,320.8774 52.616,321.7793 53.0827,325.1225"/>
    <polyline points="55.4505,321.72 60.1325,320.4745 60.0427,319.8061 59.5631,319.2405 59.1281,319.0092 58.3023,318.8811 57.1302,319.1917 56.394,319.7342 55.7035,320.6119 55.4505,321.72 55.5425,322.3888 56.0709,323.2865 56.9426,323.7451 57.7675,323.87 58.9354,323.5578 59.6684,323.0168 60.3564,322.1428"/>
    <line x1="62.5885" x2="63.2065" y1="317.7451" y2="322.4159"/>
    <polyline points="62.8539,319.7506 63.1098,318.6454 63.7984,317.7707 64.5309,317.2304 65.6946,316.922"/>
    <line x1="71.879" x2="72.4643" y1="315.283" y2="319.9407"/>
    <polyline points="72.0047,316.2836 71.1501,315.8211 70.3364,315.6918 69.1779,315.9988 68.4477,316.5377 67.7602,317.4106 67.5025,318.5139 67.5885,319.1802 68.1032,320.0756 68.9598,320.5342 69.7727,320.6603 70.9271,320.3517 71.6541,319.8144 72.3392,318.9452"/>
  </g>
</svg>
