<?xml version="1.0" encoding="utf-8" ?>
<svg xmlns="http://www.w3.org/2000/svg" xmlns:cc="http://creativecommons.org/ns" xmlns:dc="http://purl.org/dc/elements/1.1/" xmlns:ev="http://www.w3.org/2001/xml-events" xmlns:inkscape="http://www.inkscape.org/namespaces/inkscape" xmlns:rdf="http://www.w3.org/1999/02/22-rdf-syntax-ns" xmlns:sodipodi="http://sodipodi.sourceforge.net/DTD/sodipodi-0.dtd" xmlns:xlink="http://www.w3.org/1999/xlink" baseProfile="tiny" height="7.0cm" version="1.2" viewBox="0 0 1133.8582677165352 264.56692913385825" width="30.0cm">
  <metadata>
    <rdf:RDF>
      <cc:Work>
        <dc:format>image/svg+xml</dc:format>
        <dc:source>vpype -I figures/fig_camera.vpy write figures/fig_camera.svg
</dc:source>
        <dc:date>2022-03-31T12:15:57.059906</dc:date>
      </cc:Work>
    </rdf:RDF>
  </metadata>
  <defs/>
  <g fill="none" id="layer6" inkscape:groupmode="layer" inkscape:label="6" stroke="#0000ff" style="display:inline">
    <polygon points="182.7369,54.5806 182.7369,169.2421 297.3983,169.2421 297.3983,54.5806"/>
    <line x1="184.3385" x2="184.3385" y1="55.5087" y2="57.8978"/>
    <line x1="186.5001" x2="186.5001" y1="56.305" y2="57.8978"/>
    <polyline points="186.5001,56.6463 186.2726,56.4188 186.045,56.305 185.7037,56.305 185.4762,56.4188 185.2487,56.6463 185.1349,56.9876 185.1349,57.2152 185.2487,57.5565 185.4762,57.784 185.7037,57.8978 186.045,57.8978 186.2726,57.784 186.5001,57.5565"/>
    <line x1="187.1827" x2="187.8653" y1="56.305" y2="57.8978"/>
    <polyline points="188.5479,56.305 187.8653,57.8978 187.6377,58.3528 187.4102,58.5804 187.1827,58.6941 187.0689,58.6941"/>
    <polyline points="189.1167,56.9876 190.4819,56.9876 190.4819,56.7601 190.3681,56.5326 190.2544,56.4188 190.0268,56.305 189.6855,56.305 189.458,56.4188 189.2305,56.6463 189.1167,56.9876 189.1167,57.2152 189.2305,57.5565 189.458,57.784 189.6855,57.8978 190.0268,57.8978 190.2544,57.784 190.4819,57.5565"/>
    <line x1="191.2782" x2="191.2782" y1="56.305" y2="57.8978"/>
    <polyline points="191.2782,56.9876 191.392,56.6463 191.6195,56.4188 191.8471,56.305 192.1884,56.305"/>
    <polyline points="194.805,55.9637 195.0325,55.85 195.3738,55.5087 195.3738,57.8978"/>
    <polygon points="177.8201,49.6639 177.8201,174.1589 302.3151,174.1589 302.3151,49.6639"/>
    <line x1="179.5591" x2="179.5591" y1="50.6715" y2="53.2655"/>
    <line x1="181.9061" x2="181.9061" y1="51.5362" y2="53.2655"/>
    <polyline points="181.9061,51.9067 181.659,51.6597 181.412,51.5362 181.0414,51.5362 180.7944,51.6597 180.5473,51.9067 180.4238,52.2773 180.4238,52.5243 180.5473,52.8949 180.7944,53.142 181.0414,53.2655 181.412,53.2655 181.659,53.142 181.9061,52.8949"/>
    <line x1="182.6472" x2="183.3883" y1="51.5362" y2="53.2655"/>
    <polyline points="184.1295,51.5362 183.3883,53.2655 183.1413,53.7596 182.8942,54.0066 182.6472,54.1301 182.5237,54.1301"/>
    <polyline points="184.7471,52.2773 186.2293,52.2773 186.2293,52.0303 186.1058,51.7832 185.9823,51.6597 185.7353,51.5362 185.3647,51.5362 185.1176,51.6597 184.8706,51.9067 184.7471,52.2773 184.7471,52.5243 184.8706,52.8949 185.1176,53.142 185.3647,53.2655 185.7353,53.2655 185.9823,53.142 186.2293,52.8949"/>
    <line x1="187.094" x2="187.094" y1="51.5362" y2="53.2655"/>
    <polyline points="187.094,52.2773 187.2175,51.9067 187.4646,51.6597 187.7116,51.5362 188.0822,51.5362"/>
    <polyline points="190.6762,51.2891 190.6762,51.1656 190.7997,50.9186 190.9232,50.795 191.1702,50.6715 191.6643,50.6715 191.9114,50.795 192.0349,50.9186 192.1584,51.1656 192.1584,51.4126 192.0349,51.6597 191.7879,52.0303 190.5526,53.2655 192.2819,53.2655"/>
    <polygon points="171.9809,43.8247 171.9809,179.9981 308.1543,179.9981 308.1543,43.8247"/>
    <line x1="173.8831" x2="173.8831" y1="44.9268" y2="47.7641"/>
    <line x1="176.4501" x2="176.4501" y1="45.8726" y2="47.7641"/>
    <polyline points="176.4501,46.2779 176.1799,46.0077 175.9097,45.8726 175.5044,45.8726 175.2342,46.0077 174.9639,46.2779 174.8288,46.6832 174.8288,46.9535 174.9639,47.3588 175.2342,47.629 175.5044,47.7641 175.9097,47.7641 176.1799,47.629 176.4501,47.3588"/>
    <line x1="177.2608" x2="178.0715" y1="45.8726" y2="47.7641"/>
    <polyline points="178.8821,45.8726 178.0715,47.7641 177.8012,48.3046 177.531,48.5748 177.2608,48.7099 177.1257,48.7099"/>
    <polyline points="179.5577,46.6832 181.179,46.6832 181.179,46.413 181.0439,46.1428 180.9088,46.0077 180.6385,45.8726 180.2332,45.8726 179.963,46.0077 179.6928,46.2779 179.5577,46.6832 179.5577,46.9535 179.6928,47.3588 179.963,47.629 180.2332,47.7641 180.6385,47.7641 180.9088,47.629 181.179,47.3588"/>
    <line x1="182.1247" x2="182.1247" y1="45.8726" y2="47.7641"/>
    <polyline points="182.1247,46.6832 182.2599,46.2779 182.5301,46.0077 182.8003,45.8726 183.2056,45.8726"/>
    <polyline points="186.178,44.9268 187.6642,44.9268 186.8536,46.0077 187.2589,46.0077 187.5291,46.1428 187.6642,46.2779 187.7993,46.6832 187.7993,46.9535 187.6642,47.3588 187.394,47.629 186.9887,47.7641 186.5834,47.7641 186.178,47.629 186.0429,47.4939 185.9078,47.2237"/>
    <polygon points="164.9328,36.7765 164.9328,187.0462 315.2024,187.0462 315.2024,36.7765"/>
    <line x1="167.0318" x2="167.0318" y1="37.9928" y2="41.1238"/>
    <line x1="169.8647" x2="169.8647" y1="39.0365" y2="41.1238"/>
    <polyline points="169.8647,39.4837 169.5665,39.1855 169.2683,39.0365 168.821,39.0365 168.5228,39.1855 168.2246,39.4837 168.0755,39.931 168.0755,40.2292 168.2246,40.6765 168.5228,40.9747 168.821,41.1238 169.2683,41.1238 169.5665,40.9747 169.8647,40.6765"/>
    <line x1="170.7592" x2="171.6538" y1="39.0365" y2="41.1238"/>
    <polyline points="172.5484,39.0365 171.6538,41.1238 171.3556,41.7202 171.0574,42.0184 170.7592,42.1675 170.6101,42.1675"/>
    <polyline points="173.2939,39.931 175.083,39.931 175.083,39.6328 174.9339,39.3346 174.7848,39.1855 174.4866,39.0365 174.0393,39.0365 173.7411,39.1855 173.443,39.4837 173.2939,39.931 173.2939,40.2292 173.443,40.6765 173.7411,40.9747 174.0393,41.1238 174.4866,41.1238 174.7848,40.9747 175.083,40.6765"/>
    <line x1="176.1267" x2="176.1267" y1="39.0365" y2="41.1238"/>
    <polyline points="176.1267,39.931 176.2758,39.4837 176.574,39.1855 176.8722,39.0365 177.3194,39.0365"/>
    <polyline points="181.7923,37.9928 180.3014,40.0801 182.5378,40.0801"/>
    <line x1="181.7923" x2="181.7923" y1="37.9928" y2="41.1238"/>
    <polygon points="156.2569,28.1007 156.2569,195.722 323.8782,195.722 323.8782,28.1007"/>
    <line x1="158.5984" x2="158.5984" y1="29.4574" y2="32.9499"/>
    <line x1="161.7583" x2="161.7583" y1="30.6216" y2="32.9499"/>
    <polyline points="161.7583,31.1205 161.4257,30.7879 161.0931,30.6216 160.5941,30.6216 160.2615,30.7879 159.9289,31.1205 159.7626,31.6195 159.7626,31.9521 159.9289,32.451 160.2615,32.7836 160.5941,32.9499 161.0931,32.9499 161.4257,32.7836 161.7583,32.451"/>
    <line x1="162.7562" x2="163.7541" y1="30.6216" y2="32.9499"/>
    <polyline points="164.7519,30.6216 163.7541,32.9499 163.4214,33.6152 163.0888,33.9478 162.7562,34.1141 162.5899,34.1141"/>
    <polyline points="165.5835,31.6195 167.5792,31.6195 167.5792,31.2868 167.4129,30.9542 167.2466,30.7879 166.914,30.6216 166.4151,30.6216 166.0824,30.7879 165.7498,31.1205 165.5835,31.6195 165.5835,31.9521 165.7498,32.451 166.0824,32.7836 166.4151,32.9499 166.914,32.9499 167.2466,32.7836 167.5792,32.451"/>
    <line x1="168.7434" x2="168.7434" y1="30.6216" y2="32.9499"/>
    <polyline points="168.7434,31.6195 168.9097,31.1205 169.2424,30.7879 169.575,30.6216 170.0739,30.6216"/>
    <polyline points="175.3959,29.4574 173.7328,29.4574 173.5665,30.9542 173.7328,30.7879 174.2317,30.6216 174.7306,30.6216 175.2296,30.7879 175.5622,31.1205 175.7285,31.6195 175.7285,31.9521 175.5622,32.451 175.2296,32.7836 174.7306,32.9499 174.2317,32.9499 173.7328,32.7836 173.5665,32.6173 173.4001,32.2847"/>
    <line x1="227.5942" x2="227.5942" y1="216.7074" y2="223.9836"/>
    <polyline points="227.5942,220.1722 226.9012,219.4793 226.2083,219.1328 225.1688,219.1328 224.4759,219.4793 223.7829,220.1722 223.4364,221.2117 223.4364,221.9047 223.7829,222.9441 224.4759,223.6371 225.1688,223.9836 226.2083,223.9836 226.9012,223.6371 227.5942,222.9441"/>
    <polyline points="230.0196,221.2117 234.1774,221.2117 234.1774,220.5187 233.8309,219.8258 233.4844,219.4793 232.7915,219.1328 231.752,219.1328 231.059,219.4793 230.3661,220.1722 230.0196,221.2117 230.0196,221.9047 230.3661,222.9441 231.059,223.6371 231.752,223.9836 232.7915,223.9836 233.4844,223.6371 234.1774,222.9441"/>
    <polyline points="238.6817,216.7074 237.9887,216.7074 237.2957,217.0539 236.9492,218.0933 236.9492,223.9836"/>
    <line x1="235.9098" x2="238.3352" y1="219.1328" y2="219.1328"/>
    <line x1="244.5719" x2="244.5719" y1="219.1328" y2="223.9836"/>
    <polyline points="244.5719,220.1722 243.8789,219.4793 243.1859,219.1328 242.1465,219.1328 241.4535,219.4793 240.7606,220.1722 240.4141,221.2117 240.4141,221.9047 240.7606,222.9441 241.4535,223.6371 242.1465,223.9836 243.1859,223.9836 243.8789,223.6371 244.5719,222.9441"/>
    <polyline points="247.3437,219.1328 247.3437,222.5976 247.6902,223.6371 248.3832,223.9836 249.4226,223.9836 250.1156,223.6371 251.155,222.5976"/>
    <line x1="251.155" x2="251.155" y1="219.1328" y2="223.9836"/>
    <line x1="253.9269" x2="253.9269" y1="216.7074" y2="223.9836"/>
    <polyline points="257.0453,216.7074 257.0453,222.5976 257.3917,223.6371 258.0847,223.9836 258.7777,223.9836"/>
    <line x1="256.0058" x2="258.4312" y1="219.1328" y2="219.1328"/>
    <polygon points="421.288,62.1497 421.288,161.673 533.3163,181.9729 533.3163,41.8499"/>
    <line x1="422.404" x2="422.404" y1="62.7563" y2="64.8384"/>
    <line x1="423.9245" x2="423.9245" y1="63.1831" y2="64.5788"/>
    <polyline points="423.9245,63.4822 423.7637,63.311 423.603,63.2396 423.3624,63.2819 423.2022,63.4095 423.0422,63.6363 422.9622,63.9483 422.9622,64.147 423.0422,64.4313 423.2022,64.6027 423.3624,64.6748 423.603,64.6337 423.7637,64.5066 423.9245,64.2797"/>
    <line x1="424.4082" x2="424.8936" y1="63.0981" y2="64.4134"/>
    <polyline points="425.3806,62.9272 424.8936,64.4134 424.7316,64.8409 424.5698,65.0682 424.4082,65.1953 424.3275,65.2089"/>
    <polyline points="425.7878,63.4578 426.7699,63.2873 426.7699,63.0859 426.6878,62.8988 426.6057,62.8125 426.4418,62.7407 426.1962,62.7838 426.0327,62.913 425.8694,63.1424 425.7878,63.4578 425.7878,63.6585 425.8694,63.9456 426.0327,64.1184 426.1962,64.191 426.4418,64.149 426.6057,64.0204 426.7699,63.7909"/>
    <line x1="427.346" x2="427.346" y1="62.5817" y2="63.9947"/>
    <polyline points="427.346,63.1873 427.4285,62.8701 427.5936,62.6392 427.7589,62.5092 428.0073,62.4655"/>
    <polyline points="429.926,61.8227 430.0941,61.6911 430.3466,61.3404 430.3466,63.4824"/>
    <polygon points="414.3727,58.8529 414.3727,164.9698 534.0497,188.6897 534.0497,35.1331"/>
    <line x1="415.533" x2="415.533" y1="59.4855" y2="61.7062"/>
    <line x1="417.1149" x2="417.1149" y1="59.9216" y2="61.4108"/>
    <polyline points="417.1149,60.2407 416.9475,60.0601 416.7803,59.986 416.5299,60.0341 416.3632,60.1722 416.1968,60.4161 416.1136,60.75 416.1136,60.9619 416.1968,61.2642 416.3632,61.4451 416.5299,61.52 416.7803,61.4732 416.9475,61.3357 417.1149,61.0917"/>
    <line x1="417.6183" x2="418.1236" y1="59.8249" y2="61.2224"/>
    <polyline points="418.6308,59.6302 418.1236,61.2224 417.9549,61.6807 417.7865,61.9251 417.6183,62.0627 417.5342,62.0782"/>
    <polyline points="419.0549,60.1915 420.0781,59.9972 420.0781,59.7821 419.9926,59.5834 419.9071,59.4923 419.7362,59.4177 419.4803,59.4669 419.31,59.6069 419.1398,59.8538 419.0549,60.1915 419.0549,60.4057 419.1398,60.7112 419.31,60.8936 419.4803,60.9691 419.7362,60.9213 419.9071,60.7819 420.0781,60.5348"/>
    <line x1="420.6786" x2="420.6786" y1="59.2366" y2="60.7453"/>
    <polyline points="420.6786,59.8832 420.7646,59.5434 420.9368,59.2948 421.1091,59.1538 421.3681,59.104"/>
    <polyline points="423.1946,58.5354 423.1946,58.4266 423.2822,58.1921 423.3698,58.0662 423.5453,57.9232 423.8968,57.8547 424.0729,57.9294 424.1611,58.0214 424.2493,58.2226 424.2493,58.441 424.1611,58.6762 423.9849,59.0372 423.1071,60.2918 424.3375,60.0621"/>
    <polygon points="406.476,55.0882 406.476,168.7345 534.9386,196.831 534.9386,26.9918"/>
    <line x1="407.6824" x2="407.6824" y1="55.7485" y2="58.1274"/>
    <line x1="409.3282" x2="409.3282" y1="56.1923" y2="57.7883"/>
    <polyline points="409.3282,56.5343 409.154,56.3432 408.98,56.2662 408.7194,56.3215 408.546,56.4719 408.3728,56.7357 408.2863,57.0946 408.2863,57.3217 408.3728,57.6444 408.546,57.8358 408.7194,57.9137 408.98,57.86 409.154,57.7102 409.3282,57.4463"/>
    <line x1="409.8523" x2="410.3785" y1="56.0811" y2="57.5719"/>
    <polyline points="410.9067,55.8575 410.3785,57.5719 410.2028,58.0655 410.0274,58.33 409.8523,58.4798 409.7648,58.4976"/>
    <polyline points="411.3486,56.453 412.4151,56.2295 412.4151,55.9988 412.3259,55.787 412.2367,55.6906 412.0586,55.6131 411.7919,55.6697 411.6144,55.8223 411.4371,56.0897 411.3486,56.453 411.3486,56.6827 411.4371,57.009 411.6144,57.2022 411.7919,57.2806 412.0586,57.2256 412.2367,57.0737 412.4151,56.8062"/>
    <line x1="413.0412" x2="413.0412" y1="55.4047" y2="57.0232"/>
    <polyline points="413.0412,56.0983 413.1308,55.7326 413.3104,55.4633 413.4902,55.3094 413.7603,55.2521"/>
    <polyline points="415.7582,54.0108 416.7683,53.7934 416.2164,54.8481 416.4921,54.7897 416.6762,54.8679 416.7683,54.9657 416.8606,55.298 416.8606,55.5326 416.7683,55.9035 416.5841,56.176 416.3082,56.35 416.0329,56.4067 415.7582,56.3465 415.6667,56.2487 415.5753,56.0342"/>
    <polygon points="397.3732,50.7485 397.3732,173.0742 536.0384,206.9036 536.0384,16.9192"/>
    <line x1="398.6266" x2="398.6266" y1="51.4378" y2="53.9993"/>
    <line x1="400.3382" x2="400.3382" y1="51.8866" y2="53.6059"/>
    <polyline points="400.3382,52.255 400.1569,52.0522 399.9759,51.9723 399.7049,52.0365 399.5246,52.2016 399.3445,52.4887 399.2545,52.8767 399.2545,53.1213 399.3445,53.4673 399.5246,53.6705 399.7049,53.7515 399.9759,53.6892 400.1569,53.5248 400.3382,53.2375"/>
    <line x1="400.8835" x2="401.4312" y1="51.7576" y2="53.3547"/>
    <polyline points="401.9812,51.4978 401.4312,53.3547 401.2484,53.8897 401.0658,54.1776 400.8835,54.342 400.7925,54.3627"/>
    <polyline points="402.4414,52.1319 403.5526,51.8722 403.5526,51.6234 403.4597,51.3966 403.3668,51.2942 403.1812,51.2139 402.9033,51.2797 402.7183,51.4474 402.5336,51.7387 402.4414,52.1319 402.4414,52.3795 402.5336,52.7297 402.7183,52.9349 402.9033,53.0163 403.1812,52.9524 403.3668,52.7855 403.5526,52.494"/>
    <line x1="404.2053" x2="404.2053" y1="50.9715" y2="52.717"/>
    <polyline points="404.2053,51.7196 404.2989,51.3236 404.4861,51.0299 404.6736,50.8607 404.9554,50.7941"/>
    <polyline points="407.8072,49.2343 406.8496,51.2275 408.2887,50.8919"/>
    <line x1="407.8072" x2="407.8072" y1="49.2343" y2="51.8891"/>
    <polyline points="386.7651,45.6912 386.7651,178.1315 511.3179,212.4841"/>
    <line x1="537.4342" x2="537.4342" y1="212.4841" y2="11.3386"/>
    <line x1="511.3179" x2="386.7651" y1="11.3386" y2="45.6912"/>
    <line x1="388.0652" x2="388.0652" y1="46.4103" y2="49.1848"/>
    <line x1="389.8424" x2="389.8424" y1="46.8598" y2="48.723"/>
    <polyline points="389.8424,47.259 389.6541,47.0431 389.4661,46.9604 389.1846,47.0357 388.9973,47.2184 388.8103,47.5334 388.7169,47.9557 388.7169,48.2206 388.8103,48.5936 388.9973,48.81 389.1846,48.8939 389.4661,48.8208 389.6541,48.639 389.8424,48.3237"/>
    <line x1="390.409" x2="390.9783" y1="46.7082" y2="48.4278"/>
    <polyline points="391.5502,46.4029 390.9783,48.4278 390.7882,49.0117 390.5985,49.3276 390.409,49.5096 390.3144,49.5338"/>
    <polyline points="392.0289,47.0805 393.1854,46.775 393.1854,46.5051 393.0886,46.2611 392.9919,46.152 392.7987,46.0689 392.5095,46.1463 392.317,46.3322 392.1249,46.6522 392.0289,47.0805 392.0289,47.3491 392.1249,47.7269 392.317,47.9455 392.5095,48.03 392.7987,47.9548 392.9919,47.7698 393.1854,47.4496"/>
    <line x1="393.8651" x2="393.8651" y1="45.7836" y2="47.6777"/>
    <polyline points="393.8651,46.5954 393.9625,46.1636 394.1575,45.8408 394.3529,45.6531 394.6465,45.5746"/>
    <polyline points="397.822,43.7629 396.821,44.0345 396.7213,45.2933 396.821,45.1298 397.1204,44.9128 397.4206,44.8325 397.7216,44.8894 397.9226,45.1107 398.0232,45.4967 398.0232,45.7718 397.9226,46.2108 397.7216,46.5382 397.4206,46.7538 397.1204,46.8318 396.821,46.7727 396.7213,46.6618 396.6217,46.4142"/>
    <line x1="424.1932" x2="424.1932" y1="219.1328" y2="226.4089"/>
    <polyline points="424.1932,220.1722 424.8862,219.4793 425.5791,219.1328 426.6186,219.1328 427.3116,219.4793 428.0045,220.1722 428.351,221.2117 428.351,221.9047 428.0045,222.9441 427.3116,223.6371 426.6186,223.9836 425.5791,223.9836 424.8862,223.6371 424.1932,222.9441"/>
    <line x1="434.5877" x2="434.5877" y1="219.1328" y2="223.9836"/>
    <polyline points="434.5877,220.1722 433.8947,219.4793 433.2018,219.1328 432.1623,219.1328 431.4693,219.4793 430.7764,220.1722 430.4299,221.2117 430.4299,221.9047 430.7764,222.9441 431.4693,223.6371 432.1623,223.9836 433.2018,223.9836 433.8947,223.6371 434.5877,222.9441"/>
    <line x1="437.3596" x2="437.3596" y1="219.1328" y2="223.9836"/>
    <polyline points="437.3596,220.5187 438.399,219.4793 439.092,219.1328 440.1314,219.1328 440.8244,219.4793 441.1709,220.5187 441.1709,223.9836"/>
    <line x1="449.4865" x2="455.7231" y1="219.8258" y2="219.8258"/>
    <line x1="449.4865" x2="455.7231" y1="221.9047" y2="221.9047"/>
    <polyline points="464.0387,218.4398 464.0387,218.0933 464.3852,217.4004 464.7317,217.0539 465.4247,216.7074 466.8106,216.7074 467.5036,217.0539 467.85,217.4004 468.1965,218.0933 468.1965,218.7863 467.85,219.4793 467.1571,220.5187 463.6923,223.9836 468.543,223.9836"/>
    <polyline points="474.7797,216.7074 471.3149,216.7074 470.9684,219.8258 471.3149,219.4793 472.3543,219.1328 473.3938,219.1328 474.4332,219.4793 475.1262,220.1722 475.4727,221.2117 475.4727,221.9047 475.1262,222.9441 474.4332,223.6371 473.3938,223.9836 472.3543,223.9836 471.3149,223.6371 470.9684,223.2906 470.6219,222.5976"/>
    <line x1="481.7094" x2="481.7094" y1="216.7074" y2="223.9836"/>
    <polyline points="481.7094,220.1722 481.0164,219.4793 480.3234,219.1328 479.284,219.1328 478.591,219.4793 477.898,220.1722 477.5516,221.2117 477.5516,221.9047 477.898,222.9441 478.591,223.6371 479.284,223.9836 480.3234,223.9836 481.0164,223.6371 481.7094,222.9441"/>
    <polyline points="484.1347,221.2117 488.2925,221.2117 488.2925,220.5187 487.9461,219.8258 487.5996,219.4793 486.9066,219.1328 485.8672,219.1328 485.1742,219.4793 484.4812,220.1722 484.1347,221.2117 484.1347,221.9047 484.4812,222.9441 485.1742,223.6371 485.8672,223.9836 486.9066,223.9836 487.5996,223.6371 488.2925,222.9441"/>
    <polyline points="494.5292,219.1328 494.5292,224.6765 494.1827,225.716 493.8363,226.0625 493.1433,226.4089 492.1038,226.4089 491.4109,226.0625"/>
    <polyline points="494.5292,220.1722 493.8363,219.4793 493.1433,219.1328 492.1038,219.1328 491.4109,219.4793 490.7179,220.1722 490.3714,221.2117 490.3714,221.9047 490.7179,222.9441 491.4109,223.6371 492.1038,223.9836 493.1433,223.9836 493.8363,223.6371 494.5292,222.9441"/>
    <polyline points="621.8339,19.3723 644.3528,118.4088 731.7006,150.8203 776.4558,65.6237"/>
    <line x1="776.4558" x2="621.8339" y1="40.4415" y2="19.3723"/>
    <line x1="623.7716" x2="624.5345" y1="20.9657" y2="24.4224"/>
    <line x1="626.2366" x2="626.7239" y1="22.4442" y2="24.7471"/>
    <polyline points="626.3418,22.9415 626.0382,22.5768 625.7696,22.3776 625.4201,22.3278 625.2233,22.4603 625.0627,22.7575 625.0542,23.2347 625.1255,23.5628 625.3474,24.0702 625.6486,24.4302 625.9144,24.6271 626.2609,24.6785 626.4576,24.5499 626.6203,24.2575"/>
    <line x1="626.9391" x2="628.1194" y1="22.5444" y2="24.9541"/>
    <polyline points="628.3518,22.7458 628.1194,24.9541 628.0207,25.5706 627.8556,25.8599 627.6575,25.9865 627.5417,25.969"/>
    <polyline points="629.1434,23.8279 630.5653,24.0342 630.5006,23.7016 630.3166,23.351 630.1648,23.1669 629.8938,22.9657 629.5369,22.9148 629.3325,23.0479 629.162,23.3471 629.1434,23.8279 629.2097,24.1586 629.4265,24.6702 629.7275,25.0335 629.9956,25.2323 630.3494,25.2848 630.5535,25.1556 630.7261,24.8614"/>
    <line x1="631.2081" x2="631.6521" y1="23.1531" y2="25.478"/>
    <polyline points="631.3994,24.1552 631.4236,23.6724 631.5998,23.3721 631.8083,23.2387 632.1694,23.2901"/>
    <polyline points="634.8703,23.1801 635.0857,23.0448 635.3655,22.5852 635.9762,26.1193"/>
    <polyline points="611.4678,23.0144 639.3589,124.3603 729.7836,159.6616 776.4558,75.3114"/>
    <line x1="776.4558" x2="611.4678" y1="47.715" y2="23.0144"/>
    <line x1="613.5568" x2="614.5313" y1="24.7118" y2="28.3451"/>
    <line x1="616.1843" x2="616.8103" y1="26.2955" y2="28.7156"/>
    <polyline points="616.3195,26.8184 615.9862,26.4319 615.6979,26.2194 615.3339,26.1624 615.1375,26.2987 614.9875,26.6082 615.0043,27.1082 615.0956,27.453 615.352,27.9876 615.6824,28.3687 615.9675,28.5786 616.3282,28.6372 616.5247,28.5053 616.6773,28.2013"/>
    <line x1="616.9161" x2="618.2638" y1="26.41" y2="28.9519"/>
    <polyline points="618.3884,26.6404 618.2638,28.9519 618.1942,29.5961 618.0387,29.8966 617.8406,30.0263 617.7201,30.0063"/>
    <polyline points="619.2642,27.786 620.7469,28.0219 620.6627,27.6723 620.454,27.302 620.2873,27.1068 619.9962,26.892 619.624,26.8337 619.4193,26.9706 619.2584,27.2821 619.2642,27.786 619.3501,28.1336 619.6011,28.6728 619.9314,29.0577 620.2192,29.2698 620.5881,29.3298 620.7927,29.1973 620.9562,28.8914"/>
    <line x1="621.3672" x2="621.9466" y1="27.1065" y2="29.5506"/>
    <polyline points="621.6171,28.1604 621.6173,27.6544 621.7844,27.3417 621.9937,27.2045 622.3705,27.2635"/>
    <polyline points="624.9503,27.3236 624.9107,27.1452 624.9594,26.8074 625.0479,26.6478 625.2649,26.5076 625.7792,26.5865 626.0758,26.8059 626.2435,27.0054 626.4495,27.384 626.5265,27.7415 626.4748,28.0777 626.3338,28.5696 625.4485,30.1199 627.2233,30.4085"/>
    <polyline points="599.5603,27.1981 633.957,130.7981 727.6731,169.395 776.4558,86.806"/>
    <line x1="776.4558" x2="599.5603" y1="56.5815" y2="27.1981"/>
    <line x1="601.8256" x2="603.0681" y1="29.0141" y2="32.8403"/>
    <line x1="604.6385" x2="605.4405" y1="30.7189" y2="33.267"/>
    <polyline points="604.8119,31.2698 604.4431,30.8588 604.1319,30.6311 603.7528,30.5654 603.5592,30.7052 603.4248,31.0274 603.4747,31.5521 603.5912,31.915 603.8903,32.4796 604.2555,32.8845 604.5629,33.1092 604.9385,33.1767 605.1325,33.0418 605.2701,32.7259"/>
    <line x1="605.401" x2="606.9546" y1="30.8511" y2="33.5394"/>
    <polyline points="606.9355,31.1171 606.9546,33.5394 606.924,34.2131 606.7828,34.525 606.5868,34.6574 606.4613,34.6344"/>
    <polyline points="607.9129,32.334 609.4593,32.6064 609.3503,32.2381 609.1113,31.846 608.9267,31.6382 608.6123,31.4078 608.224,31.3405 608.0213,31.4808 607.8748,31.8051 607.9129,32.334 608.0236,32.7 608.317,33.2697 608.6824,33.6788 608.9929,33.906 609.3776,33.9752 609.5806,33.8399 609.7303,33.522"/>
    <line x1="610.043" x2="610.7949" y1="31.6559" y2="34.2302"/>
    <polyline points="610.3674,32.7664 610.3359,32.2353 610.4891,31.9098 610.697,31.7692 611.0904,31.8375"/>
    <polyline points="613.638,31.0226 615.1177,31.2742 614.7203,32.6454 615.1219,32.7152 615.4406,32.9492 615.6251,33.1597 615.9096,33.7428 616.0093,34.1143 616.025,34.6455 615.858,34.9662 615.5094,35.0782 615.112,35.0067 614.665,34.7521 614.4822,34.5449 614.2484,34.1534"/>
    <polyline points="585.7397,32.054 628.095,137.7841 725.3383,180.1629 776.4558,100.6652"/>
    <line x1="776.4558" x2="585.7397" y1="67.6288" y2="32.054"/>
    <line x1="588.2135" x2="589.8001" y1="34.0061" y2="38.0432"/>
    <line x1="591.2397" x2="592.2681" y1="35.8523" y2="38.54"/>
    <polyline points="591.4622,36.4338 591.0503,35.9951 590.7124,35.7498 590.3179,35.6732 590.1305,35.8159 590.0187,36.1511 590.1125,36.7022 590.2615,37.085 590.614,37.6827 591.0214,38.1145 591.3548,38.3562 591.7456,38.4349 591.9339,38.2977 592.0498,37.9696"/>
    <line x1="592.0336" x2="593.8446" y1="36.0066" y2="38.8574"/>
    <polyline points="593.6321,36.3172 593.8446,38.8574 593.8666,39.5621 593.7465,39.8855 593.5558,40.0198 593.4251,39.9931"/>
    <polyline points="594.7338,37.6142 596.3462,37.9324 596.2051,37.5437 595.9282,37.1272 595.7219,36.9053 595.3801,36.6569 594.9752,36.5782 594.7778,36.7213 594.6528,37.0587 594.7338,37.6142 594.8766,38.0004 595.2232,38.6037 595.6312,39.0402 595.9684,39.2849 596.3694,39.3657 596.5676,39.2282 596.6967,38.8982"/>
    <line x1="596.8726" x2="597.8475" y1="36.9469" y2="39.6632"/>
    <polyline points="597.2934,38.1193 597.2195,37.5613 597.3519,37.2229 597.5551,37.0796 597.9658,37.1594"/>
    <polyline points="601.6545,36.5702 601.1995,39.0725 603.2884,39.4858"/>
    <line x1="601.6545" x2="603.0482" y1="36.5702" y2="40.7101"/>
    <polyline points="575.3102,49.7268 621.7115,145.3915 722.7415,192.1393 776.4558,117.7022"/>
    <line x1="776.4558" x2="575.3102" y1="81.774" y2="38.9929"/>
    <line x1="575.503" x2="576.8275" y1="41.8814" y2="44.721"/>
    <polyline points="575.7898,42.4963 575.3248,42.0261 575.3102,42.0156"/>
    <polyline points="575.3102,44.037 575.5145,44.2426 575.8788,44.5042 576.2848,44.5969 576.4623,44.4587 576.5467,44.1188"/>
    <line x1="576.3281" x2="578.4663" y1="42.0638" y2="45.0955"/>
    <polyline points="577.9905,42.4313 578.4663,45.0955 578.5604,45.8324 578.4709,46.1668 578.2904,46.3017 578.1545,46.2702"/>
    <polyline points="579.2469,43.8191 580.9255,44.1956 580.7422,43.7847 580.4173,43.3409 580.1841,43.1029 579.8098,42.8335 579.3883,42.7403 579.2011,42.8851 579.1078,43.2352 579.2469,43.8191 579.4318,44.2271 579.8467,44.8678 580.3071,45.3353 580.6759,45.6004 581.0934,45.6959 581.2819,45.5576 581.3806,45.2159"/>
    <line x1="581.3644" x2="582.6328" y1="43.1772" y2="46.0477"/>
    <polyline points="581.9122,44.4169 581.7808,43.8304 581.8822,43.4792 582.0757,43.3344 582.5038,43.4291"/>
    <polyline points="586.5198,42.973 585.0509,42.6539 585.7083,44.5163 585.7651,44.3397 586.1135,44.2271 586.5518,44.3239 587.0788,44.6308 587.5465,45.1143 587.9531,45.7718 588.1256,46.1864 588.2373,46.7721 588.1177,47.1162 587.7683,47.2213 587.3345,47.1222 586.8154,46.8192 586.5846,46.582 586.2664,46.1394"/>
    <line x1="642.1009" x2="642.1009" y1="219.1328" y2="226.4089"/>
    <polyline points="642.1009,220.1722 642.7939,219.4793 643.4868,219.1328 644.5263,219.1328 645.2193,219.4793 645.9122,220.1722 646.2587,221.2117 646.2587,221.9047 645.9122,222.9441 645.2193,223.6371 644.5263,223.9836 643.4868,223.9836 642.7939,223.6371 642.1009,222.9441"/>
    <line x1="652.4954" x2="652.4954" y1="219.1328" y2="223.9836"/>
    <polyline points="652.4954,220.1722 651.8024,219.4793 651.1095,219.1328 650.07,219.1328 649.377,219.4793 648.6841,220.1722 648.3376,221.2117 648.3376,221.9047 648.6841,222.9441 649.377,223.6371 650.07,223.9836 651.1095,223.9836 651.8024,223.6371 652.4954,222.9441"/>
    <line x1="655.2673" x2="655.2673" y1="219.1328" y2="223.9836"/>
    <polyline points="655.2673,220.5187 656.3067,219.4793 656.9997,219.1328 658.0391,219.1328 658.7321,219.4793 659.0786,220.5187 659.0786,223.9836"/>
    <line x1="667.3942" x2="673.6308" y1="219.8258" y2="219.8258"/>
    <line x1="667.3942" x2="673.6308" y1="221.9047" y2="221.9047"/>
    <polyline points="681.9464,218.4398 681.9464,218.0933 682.2929,217.4004 682.6394,217.0539 683.3324,216.7074 684.7183,216.7074 685.4113,217.0539 685.7577,217.4004 686.1042,218.0933 686.1042,218.7863 685.7577,219.4793 685.0648,220.5187 681.5999,223.9836 686.4507,223.9836"/>
    <polyline points="692.6874,216.7074 689.2226,216.7074 688.8761,219.8258 689.2226,219.4793 690.262,219.1328 691.3015,219.1328 692.3409,219.4793 693.0339,220.1722 693.3804,221.2117 693.3804,221.9047 693.0339,222.9441 692.3409,223.6371 691.3015,223.9836 690.262,223.9836 689.2226,223.6371 688.8761,223.2906 688.5296,222.5976"/>
    <line x1="699.6171" x2="699.6171" y1="216.7074" y2="223.9836"/>
    <polyline points="699.6171,220.1722 698.9241,219.4793 698.2311,219.1328 697.1917,219.1328 696.4987,219.4793 695.8057,220.1722 695.4593,221.2117 695.4593,221.9047 695.8057,222.9441 696.4987,223.6371 697.1917,223.9836 698.2311,223.9836 698.9241,223.6371 699.6171,222.9441"/>
    <polyline points="702.0424,221.2117 706.2002,221.2117 706.2002,220.5187 705.8537,219.8258 705.5073,219.4793 704.8143,219.1328 703.7748,219.1328 703.0819,219.4793 702.3889,220.1722 702.0424,221.2117 702.0424,221.9047 702.3889,222.9441 703.0819,223.6371 703.7748,223.9836 704.8143,223.9836 705.5073,223.6371 706.2002,222.9441"/>
    <polyline points="712.4369,219.1328 712.4369,224.6765 712.0904,225.716 711.744,226.0625 711.051,226.4089 710.0115,226.4089 709.3186,226.0625"/>
    <polyline points="712.4369,220.1722 711.744,219.4793 711.051,219.1328 710.0115,219.1328 709.3186,219.4793 708.6256,220.1722 708.2791,221.2117 708.2791,221.9047 708.6256,222.9441 709.3186,223.6371 710.0115,223.9836 711.051,223.9836 711.744,223.6371 712.4369,222.9441"/>
    <polyline points="645.046,230.1171 645.046,236.0073 645.3925,237.0468 646.0855,237.3933 646.7784,237.3933"/>
    <line x1="644.0066" x2="646.4319" y1="232.5425" y2="232.5425"/>
    <polygon points="648.5108,230.1171 648.8573,230.4636 649.2038,230.1171 648.8573,229.7706"/>
    <line x1="648.8573" x2="648.8573" y1="232.5425" y2="237.3933"/>
    <line x1="651.6292" x2="651.6292" y1="230.1171" y2="237.3933"/>
    <polyline points="654.7475,230.1171 654.7475,236.0073 655.094,237.0468 655.787,237.3933 656.4799,237.3933"/>
    <line x1="653.7081" x2="656.1335" y1="232.5425" y2="232.5425"/>
    <line x1="664.1026" x2="670.3393" y1="233.2355" y2="233.2355"/>
    <line x1="664.1026" x2="670.3393" y1="235.3144" y2="235.3144"/>
    <polyline points="681.7732,230.1171 678.3084,234.9679 683.5056,234.9679"/>
    <line x1="681.7732" x2="681.7732" y1="230.1171" y2="237.3933"/>
    <polyline points="689.3958,230.1171 685.931,230.1171 685.5845,233.2355 685.931,232.889 686.9704,232.5425 688.0099,232.5425 689.0493,232.889 689.7423,233.582 690.0888,234.6214 690.0888,235.3144 689.7423,236.3538 689.0493,237.0468 688.0099,237.3933 686.9704,237.3933 685.931,237.0468 685.5845,236.7003 685.238,236.0073"/>
    <line x1="696.3255" x2="696.3255" y1="230.1171" y2="237.3933"/>
    <polyline points="696.3255,233.582 695.6325,232.889 694.9395,232.5425 693.9001,232.5425 693.2071,232.889 692.5142,233.582 692.1677,234.6214 692.1677,235.3144 692.5142,236.3538 693.2071,237.0468 693.9001,237.3933 694.9395,237.3933 695.6325,237.0468 696.3255,236.3538"/>
    <polyline points="698.7508,234.6214 702.9086,234.6214 702.9086,233.9284 702.5622,233.2355 702.2157,232.889 701.5227,232.5425 700.4833,232.5425 699.7903,232.889 699.0973,233.582 698.7508,234.6214 698.7508,235.3144 699.0973,236.3538 699.7903,237.0468 700.4833,237.3933 701.5227,237.3933 702.2157,237.0468 702.9086,236.3538"/>
    <polyline points="709.1453,232.5425 709.1453,238.0862 708.7989,239.1257 708.4524,239.4722 707.7594,239.8186 706.72,239.8186 706.027,239.4722"/>
    <polyline points="709.1453,233.582 708.4524,232.889 707.7594,232.5425 706.72,232.5425 706.027,232.889 705.334,233.582 704.9875,234.6214 704.9875,235.3144 705.334,236.3538 706.027,237.0468 706.72,237.3933 707.7594,237.3933 708.4524,237.0468 709.1453,236.3538"/>
    <polyline points="839.7416,92.683 862.2605,161.1754 949.6083,202.7265 994.3635,159.1489"/>
    <line x1="994.3635" x2="839.7416" y1="143.1032" y2="92.683"/>
    <line x1="841.6793" x2="842.4422" y1="94.162" y2="96.5471"/>
    <line x1="844.1443" x2="844.6316" y1="95.6938" y2="97.2778"/>
    <polyline points="844.2495,96.0359 843.9459,95.7308 843.6773,95.5396 843.3278,95.4243 843.131,95.4616 842.9704,95.6126 842.9619,95.9146 843.0332,96.1408 843.2551,96.5172 843.5563,96.8186 843.8221,97.0076 844.1686,97.1233 844.3653,97.0884 844.528,96.941"/>
    <line x1="844.8468" x2="846.0271" y1="95.9257" y2="97.7436"/>
    <polyline points="846.2595,96.3921 846.0271,97.7436 845.9284,98.1128 845.7633,98.2576 845.5652,98.2909 845.4494,98.2521"/>
    <polyline points="847.0511,97.271 848.473,97.7426 848.4083,97.5152 848.2243,97.2478 848.0725,97.0942 847.8015,96.9011 847.4446,96.7833 847.2402,96.8192 847.0697,96.9691 847.0511,97.271 847.1174,97.4976 847.3341,97.8754 847.6352,98.1789 847.9033,98.3698 848.2571,98.4878 848.4612,98.4544 848.6338,98.3082"/>
    <line x1="849.1157" x2="849.5598" y1="97.335" y2="98.9226"/>
    <polyline points="849.3071,98.0193 849.3313,97.7175 849.5075,97.5683 849.716,97.5331 850.0771,97.6523"/>
    <polyline points="852.778,98.2284 852.9934,98.1938 853.2732,97.9679 853.8839,100.3658"/>
    <polyline points="829.3755,101.3989 857.2666,168.8052 944.5407,212.4841"/>
    <line x1="949.6671" x2="994.3635" y1="212.4841" y2="176.8148"/>
    <line x1="994.3635" x2="829.3755" y1="160.5093" y2="101.3989"/>
    <line x1="831.4645" x2="832.439" y1="102.9655" y2="105.3752"/>
    <line x1="834.0919" x2="834.718" y1="104.6101" y2="106.209"/>
    <polyline points="834.2272,104.9556 833.8939,104.6373 833.6056,104.4339 833.2416,104.302 833.0452,104.3296 832.8952,104.472 832.912,104.772 833.0033,105.0003 833.2597,105.3853 833.5901,105.6997 833.8752,105.9006 834.2359,106.0326 834.4324,106.0076 834.585,105.8692"/>
    <line x1="834.8238" x2="836.1715" y1="104.8752" y2="106.7408"/>
    <polyline points="836.2961,105.4086 836.1715,106.7408 836.1019,107.1026 835.9464,107.2382 835.7483,107.2614 835.6277,107.2171"/>
    <polyline points="837.1719,106.3218 838.6546,106.8612 838.5704,106.6319 838.3617,106.3568 838.195,106.1965 837.9039,105.991 837.5317,105.8562 837.327,105.8818 837.1661,106.0225 837.1719,106.3218 837.2578,106.5504 837.5088,106.9367 837.8391,107.2532 838.1269,107.4562 838.4958,107.5911 838.7004,107.5681 838.8639,107.4314"/>
    <line x1="839.2749" x2="839.8543" y1="106.4877" y2="108.0882"/>
    <polyline points="839.5248,107.1778 839.525,106.8789 839.6921,106.7393 839.9014,106.7147 840.2782,106.8512"/>
    <polyline points="842.858,107.5827 842.8184,107.4667 842.8671,107.2802 842.9556,107.2098 843.1726,107.1855 843.6869,107.3709 843.9835,107.5806 844.1512,107.7437 844.3572,108.0229 844.4342,108.2549 844.3825,108.4397 844.2415,108.6923 843.3562,109.3694 845.131,110.0188"/>
    <polyline points="817.468,111.4109 851.8647,177.0583 918.9608,212.4841"/>
    <line x1="969.4181" x2="994.3635" y1="212.4841" y2="197.7758"/>
    <line x1="994.3635" x2="817.468" y1="181.7276" y2="111.4109"/>
    <line x1="819.7333" x2="820.9758" y1="113.0758" y2="115.4917"/>
    <line x1="822.5462" x2="823.3482" y1="114.851" y2="116.4521"/>
    <polyline points="822.7196,115.1972 822.3507,114.8649 822.0396,114.6477 821.6605,114.4956 821.4669,114.5099 821.3325,114.6394 821.3824,114.9335 821.4989,115.1622 821.798,115.5544 822.1632,115.8824 822.4706,116.0968 822.8462,116.2489 823.0401,116.2372 823.1778,116.112"/>
    <line x1="823.3087" x2="824.8623" y1="115.1571" y2="117.065"/>
    <polyline points="824.8432,115.773 824.8623,117.065 824.8317,117.4132 824.6905,117.5352 824.4945,117.5449 824.369,117.4938"/>
    <polyline points="825.8206,116.7214 827.367,117.3444 827.258,117.1151 827.019,116.8329 826.8344,116.6655 826.52,116.446 826.1317,116.2901 825.929,116.3019 825.7825,116.4288 825.8206,116.7214 825.9313,116.95 826.2246,117.3432 826.5901,117.6734 826.9006,117.8902 827.2853,118.0459 827.4883,118.0368 827.638,117.9143"/>
    <line x1="827.9507" x2="828.7026" y1="117.0202" y2="118.6196"/>
    <polyline points="828.2751,117.7102 828.2436,117.4184 828.3968,117.293 828.6047,117.2827 828.9981,117.4406"/>
    <polyline points="831.5457,117.7959 833.0254,118.3872 832.628,118.9923 833.0296,119.1536 833.3483,119.3764 833.5328,119.5453 833.8172,119.9428 833.917,120.171 833.9327,120.4579 833.7657,120.5765 833.4171,120.5281 833.0197,120.3672 832.5727,120.0938 832.3899,119.9273 832.1561,119.6471"/>
    <polyline points="803.6474,123.0314 846.0027,186.0142 893.381,212.4841"/>
    <line x1="994.3635" x2="803.6474" y1="208.1645" y2="123.0314"/>
    <line x1="806.1212" x2="807.7078" y1="124.8072" y2="127.201"/>
    <line x1="809.1474" x2="810.1758" y1="126.7356" y2="128.3191"/>
    <polyline points="809.3699,127.0782 808.958,126.7313 808.6201,126.4983 808.2256,126.3209 808.0382,126.3172 807.9264,126.4278 808.0202,126.71 808.1692,126.9365 808.5217,127.3335 808.9291,127.6756 809.2625,127.9054 809.6533,128.0824 809.8416,128.0888 809.9575,127.983"/>
    <line x1="809.9413" x2="811.7523" y1="127.0927" y2="129.0333"/>
    <polyline points="811.5398,127.8119 811.7523,129.0333 811.7743,129.3588 811.6542,129.461 811.4635,129.4524 811.3328,129.393"/>
    <polyline points="812.6415,128.7954 814.2538,129.523 814.1128,129.2968 813.8359,129.0088 813.6295,128.834 813.2878,128.5983 812.8829,128.4162 812.6854,128.4091 812.5605,128.5158 812.6415,128.7954 812.7843,129.0212 813.1309,129.4186 813.5389,129.7631 813.8761,129.9955 814.2771,130.1772 814.4753,130.1871 814.6044,130.0851"/>
    <line x1="814.7803" x2="815.7552" y1="129.2698" y2="130.8468"/>
    <polyline points="815.2011,129.9505 815.1272,129.6723 815.2596,129.5678 815.4628,129.5768 815.8735,129.7616"/>
    <polyline points="819.5622,130.8327 819.1072,131.7953 821.1961,132.7384"/>
    <line x1="819.5622" x2="820.9559" y1="130.8327" y2="133.2029"/>
    <polyline points="793.2179,143.252 839.6192,195.7669 867.8012,212.4841"/>
    <line x1="936.3433" x2="793.2179" y1="212.4841" y2="139.6366"/>
    <line x1="793.4107" x2="794.7352" y1="140.6938" y2="142.2295"/>
    <polyline points="793.6975,141.0263 793.2325,140.6646 793.2179,140.6547"/>
    <polyline points="793.2179,141.3355 793.4222,141.4941 793.7865,141.7416 794.1925,141.9503 794.37,141.9814 794.4544,141.9038"/>
    <line x1="794.2358" x2="796.374" y1="141.1161" y2="143.0723"/>
    <polyline points="795.8982,141.9669 796.374,143.0723 796.4681,143.3617 796.3786,143.4352 796.1981,143.4017 796.0622,143.3316"/>
    <polyline points="797.1546,142.9838 798.8332,143.8447 798.6499,143.6262 798.325,143.3346 798.0918,143.1524 797.7175,142.898 797.296,142.6823 797.1088,142.6492 797.0155,142.7263 797.1546,142.9838 797.3395,143.2021 797.7543,143.5993 798.2148,143.9582 798.5836,144.2088 799.0011,144.4235 799.1896,144.4593 799.2883,144.3874"/>
    <line x1="799.2721" x2="800.5405" y1="143.6937" y2="145.2152"/>
    <polyline points="799.8199,144.3508 799.6885,144.0958 799.7899,144.0219 799.9834,144.0577 800.4115,144.2768"/>
    <polyline points="804.4275,145.8796 802.9586,145.1297 803.616,146.0445 803.6728,146.0098 804.0212,146.1243 804.4595,146.3486 804.9865,146.6824 805.4541,147.0498 805.8608,147.4491 806.0333,147.6642 806.145,147.9103 806.0254,147.9739 805.676,147.8565 805.2422,147.6334 804.7231,147.3043 804.4923,147.1235 804.1741,146.8353"/>
    <line x1="860.0086" x2="860.0086" y1="219.1328" y2="226.4089"/>
    <polyline points="860.0086,220.1722 860.7016,219.4793 861.3945,219.1328 862.434,219.1328 863.1269,219.4793 863.8199,220.1722 864.1664,221.2117 864.1664,221.9047 863.8199,222.9441 863.1269,223.6371 862.434,223.9836 861.3945,223.9836 860.7016,223.6371 860.0086,222.9441"/>
    <line x1="870.4031" x2="870.4031" y1="219.1328" y2="223.9836"/>
    <polyline points="870.4031,220.1722 869.7101,219.4793 869.0172,219.1328 867.9777,219.1328 867.2847,219.4793 866.5918,220.1722 866.2453,221.2117 866.2453,221.9047 866.5918,222.9441 867.2847,223.6371 867.9777,223.9836 869.0172,223.9836 869.7101,223.6371 870.4031,222.9441"/>
    <line x1="873.1749" x2="873.1749" y1="219.1328" y2="223.9836"/>
    <polyline points="873.1749,220.5187 874.2144,219.4793 874.9074,219.1328 875.9468,219.1328 876.6398,219.4793 876.9863,220.5187 876.9863,223.9836"/>
    <line x1="885.3018" x2="891.5385" y1="219.8258" y2="219.8258"/>
    <line x1="885.3018" x2="891.5385" y1="221.9047" y2="221.9047"/>
    <polyline points="899.8541,218.4398 899.8541,218.0933 900.2006,217.4004 900.5471,217.0539 901.2401,216.7074 902.626,216.7074 903.319,217.0539 903.6654,217.4004 904.0119,218.0933 904.0119,218.7863 903.6654,219.4793 902.9725,220.5187 899.5076,223.9836 904.3584,223.9836"/>
    <polyline points="910.5951,216.7074 907.1303,216.7074 906.7838,219.8258 907.1303,219.4793 908.1697,219.1328 909.2092,219.1328 910.2486,219.4793 910.9416,220.1722 911.2881,221.2117 911.2881,221.9047 910.9416,222.9441 910.2486,223.6371 909.2092,223.9836 908.1697,223.9836 907.1303,223.6371 906.7838,223.2906 906.4373,222.5976"/>
    <line x1="917.5248" x2="917.5248" y1="216.7074" y2="223.9836"/>
    <polyline points="917.5248,220.1722 916.8318,219.4793 916.1388,219.1328 915.0994,219.1328 914.4064,219.4793 913.7134,220.1722 913.367,221.2117 913.367,221.9047 913.7134,222.9441 914.4064,223.6371 915.0994,223.9836 916.1388,223.9836 916.8318,223.6371 917.5248,222.9441"/>
    <polyline points="919.9501,221.2117 924.1079,221.2117 924.1079,220.5187 923.7614,219.8258 923.415,219.4793 922.722,219.1328 921.6825,219.1328 920.9896,219.4793 920.2966,220.1722 919.9501,221.2117 919.9501,221.9047 920.2966,222.9441 920.9896,223.6371 921.6825,223.9836 922.722,223.9836 923.415,223.6371 924.1079,222.9441"/>
    <polyline points="930.3446,219.1328 930.3446,224.6765 929.9981,225.716 929.6517,226.0625 928.9587,226.4089 927.9192,226.4089 927.2263,226.0625"/>
    <polyline points="930.3446,220.1722 929.6517,219.4793 928.9587,219.1328 927.9192,219.1328 927.2263,219.4793 926.5333,220.1722 926.1868,221.2117 926.1868,221.9047 926.5333,222.9441 927.2263,223.6371 927.9192,223.9836 928.9587,223.9836 929.6517,223.6371 930.3446,222.9441"/>
    <polyline points="862.9537,230.1171 862.9537,236.0073 863.3002,237.0468 863.9932,237.3933 864.6861,237.3933"/>
    <line x1="861.9143" x2="864.3396" y1="232.5425" y2="232.5425"/>
    <polygon points="866.4185,230.1171 866.765,230.4636 867.1115,230.1171 866.765,229.7706"/>
    <line x1="866.765" x2="866.765" y1="232.5425" y2="237.3933"/>
    <line x1="869.5369" x2="869.5369" y1="230.1171" y2="237.3933"/>
    <polyline points="872.6552,230.1171 872.6552,236.0073 873.0017,237.0468 873.6947,237.3933 874.3876,237.3933"/>
    <line x1="871.6158" x2="874.0412" y1="232.5425" y2="232.5425"/>
    <line x1="882.0103" x2="888.247" y1="233.2355" y2="233.2355"/>
    <line x1="882.0103" x2="888.247" y1="235.3144" y2="235.3144"/>
    <polyline points="899.6809,230.1171 896.2161,234.9679 901.4133,234.9679"/>
    <line x1="899.6809" x2="899.6809" y1="230.1171" y2="237.3933"/>
    <polyline points="907.3035,230.1171 903.8387,230.1171 903.4922,233.2355 903.8387,232.889 904.8781,232.5425 905.9176,232.5425 906.957,232.889 907.65,233.582 907.9965,234.6214 907.9965,235.3144 907.65,236.3538 906.957,237.0468 905.9176,237.3933 904.8781,237.3933 903.8387,237.0468 903.4922,236.7003 903.1457,236.0073"/>
    <line x1="914.2332" x2="914.2332" y1="230.1171" y2="237.3933"/>
    <polyline points="914.2332,233.582 913.5402,232.889 912.8472,232.5425 911.8078,232.5425 911.1148,232.889 910.4219,233.582 910.0754,234.6214 910.0754,235.3144 910.4219,236.3538 911.1148,237.0468 911.8078,237.3933 912.8472,237.3933 913.5402,237.0468 914.2332,236.3538"/>
    <polyline points="916.6585,234.6214 920.8163,234.6214 920.8163,233.9284 920.4699,233.2355 920.1234,232.889 919.4304,232.5425 918.391,232.5425 917.698,232.889 917.005,233.582 916.6585,234.6214 916.6585,235.3144 917.005,236.3538 917.698,237.0468 918.391,237.3933 919.4304,237.3933 920.1234,237.0468 920.8163,236.3538"/>
    <polyline points="927.053,232.5425 927.053,238.0862 926.7065,239.1257 926.3601,239.4722 925.6671,239.8186 924.6276,239.8186 923.9347,239.4722"/>
    <polyline points="927.053,233.582 926.3601,232.889 925.6671,232.5425 924.6276,232.5425 923.9347,232.889 923.2417,233.582 922.8952,234.6214 922.8952,235.3144 923.2417,236.3538 923.9347,237.0468 924.6276,237.3933 925.6671,237.3933 926.3601,237.0468 927.053,236.3538"/>
    <line x1="840.2591" x2="840.2591" y1="245.9522" y2="250.803"/>
    <polyline points="840.2591,247.3381 841.2985,246.2987 841.9915,245.9522 843.0309,245.9522 843.7239,246.2987 844.0704,247.3381 844.0704,250.803"/>
    <polyline points="844.0704,247.3381 845.1098,246.2987 845.8028,245.9522 846.8423,245.9522 847.5352,246.2987 847.8817,247.3381 847.8817,250.803"/>
    <polygon points="852.0395,245.9522 851.3465,246.2987 850.6536,246.9917 850.3071,248.0311 850.3071,248.7241 850.6536,249.7635 851.3465,250.4565 852.0395,250.803 853.0789,250.803 853.7719,250.4565 854.4649,249.7635 854.8114,248.7241 854.8114,248.0311 854.4649,246.9917 853.7719,246.2987 853.0789,245.9522"/>
    <line x1="856.5438" x2="858.6227" y1="245.9522" y2="250.803"/>
    <line x1="860.7016" x2="858.6227" y1="245.9522" y2="250.803"/>
    <polyline points="862.434,248.0311 866.5918,248.0311 866.5918,247.3381 866.2453,246.6452 865.8988,246.2987 865.2058,245.9522 864.1664,245.9522 863.4734,246.2987 862.7805,246.9917 862.434,248.0311 862.434,248.7241 862.7805,249.7635 863.4734,250.4565 864.1664,250.803 865.2058,250.803 865.8988,250.4565 866.5918,249.7635"/>
    <line x1="874.5609" x2="880.7976" y1="246.6452" y2="246.6452"/>
    <line x1="874.5609" x2="880.7976" y1="248.7241" y2="248.7241"/>
    <polyline points="891.5385,242.1409 890.8456,242.8339 890.1526,243.8733 889.4596,245.2592 889.1132,246.9917 889.1132,248.3776 889.4596,250.11 890.1526,251.4959 890.8456,252.5354 891.5385,253.2283"/>
    <polygon points="895.6963,243.5268 894.6569,243.8733 893.9639,244.9128 893.6174,246.6452 893.6174,247.6846 893.9639,249.417 894.6569,250.4565 895.6963,250.803 896.3893,250.803 897.4287,250.4565 898.1217,249.417 898.4682,247.6846 898.4682,246.6452 898.1217,244.9128 897.4287,243.8733 896.3893,243.5268"/>
    <polyline points="901.2401,249.417 900.8936,249.7635 900.5471,249.417 900.8936,249.0706 901.2401,249.417 901.2401,250.11 900.5471,250.803"/>
    <polyline points="913.0205,243.5268 909.5556,243.5268 909.2092,246.6452 909.5556,246.2987 910.5951,245.9522 911.6345,245.9522 912.674,246.2987 913.367,246.9917 913.7134,248.0311 913.7134,248.7241 913.367,249.7635 912.674,250.4565 911.6345,250.803 910.5951,250.803 909.5556,250.4565 909.2092,250.11 908.8627,249.417"/>
    <polyline points="919.9501,246.9917 919.2572,246.2987 918.5642,245.9522 917.5248,245.9522 916.8318,246.2987 916.1388,246.9917 915.7923,248.0311 915.7923,248.7241 916.1388,249.7635 916.8318,250.4565 917.5248,250.803 918.5642,250.803 919.2572,250.4565 919.9501,249.7635"/>
    <line x1="922.3755" x2="922.3755" y1="245.9522" y2="250.803"/>
    <polyline points="922.3755,247.3381 923.415,246.2987 924.1079,245.9522 925.1474,245.9522 925.8403,246.2987 926.1868,247.3381 926.1868,250.803"/>
    <polyline points="926.1868,247.3381 927.2263,246.2987 927.9192,245.9522 928.9587,245.9522 929.6517,246.2987 929.9981,247.3381 929.9981,250.803"/>
    <polyline points="933.1165,249.417 932.77,249.7635 932.4235,249.417 932.77,249.0706 933.1165,249.417 933.1165,250.11 932.4235,250.803"/>
    <polygon points="942.818,243.5268 941.7785,243.8733 941.0856,244.9128 940.7391,246.6452 940.7391,247.6846 941.0856,249.417 941.7785,250.4565 942.818,250.803 943.511,250.803 944.5504,250.4565 945.2434,249.417 945.5899,247.6846 945.5899,246.6452 945.2434,244.9128 944.5504,243.8733 943.511,243.5268"/>
    <polyline points="947.6688,242.1409 948.3617,242.8339 949.0547,243.8733 949.7477,245.2592 950.0941,246.9917 950.0941,248.3776 949.7477,250.11 949.0547,251.4959 948.3617,252.5354 947.6688,253.2283"/>
  </g>
  <g fill="none" id="layer7" inkscape:groupmode="layer" inkscape:label="7" stroke="#808080" style="display:inline">
    <polygon points="139.4948,11.3386 139.4948,212.4841 340.6404,212.4841 340.6404,11.3386"/>
    <polygon points="357.4025,11.3386 357.4025,212.4841 558.5481,212.4841 558.5481,11.3386"/>
    <polygon points="575.3102,11.3386 575.3102,212.4841 776.4558,212.4841 776.4558,11.3386"/>
    <polygon points="793.2179,11.3386 793.2179,212.4841 994.3635,212.4841 994.3635,11.3386"/>
  </g>
</svg>
