<svg xmlns="http://www.w3.org/2000/svg" xmlns:cc="http://creativecommons.org/ns" xmlns:ev="http://www.w3.org/2001/xml-events" xmlns:rdf="http://www.w3.org/1999/02/22-rdf-syntax-ns" xmlns:xlink="http://www.w3.org/1999/xlink" width="30cm" height="9cm" baseProfile="tiny" version="1.2" viewBox="0 0 1133.858 340.157"><metadata><rdf:RDF><cc:Work/></rdf:RDF></metadata><g id="layer9" fill="none" stroke="#00f" style="display:inline"><polygon points="181.693 16.015 179.585 129.546 287.575 202.365 302.248 87.977"/><line x1="183.548" x2="183.46" y1="17.141" y2="21.488"/><line x1="187.034" x2="186.967" y1="20.696" y2="23.592"/><polyline points="187.02 21.318 186.659 20.682 186.293 20.253 185.737 19.92 185.362 19.906 184.983 20.099 184.785 20.609 184.777 21.023 184.948 21.753 185.308 22.387 185.673 22.815 186.227 23.148 186.602 23.163 186.982 22.972"/><line x1="188.148" x2="189.191" y1="21.362" y2="24.926"/><polyline points="190.381 22.697 189.191 24.926 188.799 25.528 188.419 25.717 188.043 25.701 187.858 25.59"/><polyline points="191.28 24.498 193.519 25.839 193.531 25.425 193.356 24.898 193.175 24.579 192.807 24.148 192.246 23.813 191.867 23.797 191.483 23.988 191.28 24.498 191.268 24.912 191.438 25.644 191.799 26.28 192.166 26.71 192.725 27.046 193.104 27.063 193.489 26.874"/><line x1="194.866" x2="194.779" y1="25.379" y2="28.278"/><polyline points="194.829 26.623 195.035 26.113 195.422 25.923 195.804 25.94 196.367 26.276"/><polyline points="200.721 28.243 201.107 28.261 201.697 27.975 201.541 32.334"/><polygon points="159.722 29.53 159.722 143.308 267.84 218.219 280.453 103.794"/><line x1="161.577" x2="161.57" y1="30.691" y2="35.052"/><line x1="165.092" x2="165.078" y1="34.315" y2="37.221"/><polyline points="165.089 34.939 164.72 34.295 164.35 33.858 163.794 33.516 163.423 33.495 163.052 33.683 162.865 34.192 162.864 34.607 163.047 35.343 163.415 35.985 163.784 36.421 164.338 36.764 164.709 36.785 165.081 36.599"/><line x1="166.206" x2="167.303" y1="35.002" y2="38.596"/><polyline points="168.439 36.378 167.303 38.596 166.927 39.194 166.553 39.378 166.182 39.356 165.997 39.241"/><polyline points="169.362 38.2 171.602 39.583 171.607 39.167 171.424 38.635 171.239 38.312 170.867 37.873 170.306 37.528 169.93 37.506 169.553 37.692 169.362 38.2 169.358 38.616 169.539 39.353 169.908 39.998 170.279 40.436 170.839 40.781 171.214 40.805 171.592 40.621"/><line x1="172.927" x2="172.893" y1="39.142" y2="42.052"/><polyline points="172.912 40.391 173.107 39.883 173.487 39.698 173.865 39.721 174.429 40.068"/><polyline points="178.392 42.089 178.395 41.88 178.591 41.579 178.784 41.486 179.166 41.51 179.924 41.977 180.299 42.419 180.485 42.744 180.667 43.279 180.66 43.696 180.463 43.996 180.073 44.388 178.15 45.301 180.792 46.934"/><polygon points="137.07 43.463 139.304 157.454 247.514 234.55 257.927 120.142"/><line x1="138.925" x2="139.004" y1="44.66" y2="49.036"/><line x1="142.468" x2="142.512" y1="48.357" y2="51.272"/><polyline points="142.478 48.983 142.101 48.33 141.727 47.886 141.171 47.532 140.804 47.506 140.441 47.688 140.267 48.195 140.274 48.611 140.469 49.353 140.845 50.004 141.218 50.447 141.772 50.8 142.139 50.828 142.503 50.649"/><line x1="143.582" x2="144.736" y1="49.065" y2="52.69"/><polyline points="145.816 50.484 144.736 52.69 144.376 53.284 144.011 53.462 143.644 53.433 143.459 53.315"/><polyline points="146.762 52.328 149.003 53.754 148.999 53.337 148.808 52.801 148.619 52.473 148.243 52.026 147.682 51.67 147.311 51.641 146.942 51.822 146.762 52.328 146.767 52.745 146.96 53.488 147.338 54.142 147.713 54.587 148.272 54.944 148.643 54.974 149.013 54.796"/><line x1="150.303" x2="150.327" y1="53.336" y2="56.254"/><polyline points="150.313 54.588 150.495 54.081 150.867 53.902 151.241 53.932 151.805 54.29"/><polyline points="155.946 55.459 158.031 56.782 156.897 57.735 157.465 58.096 157.844 58.546 158.034 58.875 158.224 59.622 158.225 60.039 158.037 60.544 157.659 60.72 157.093 60.567 156.527 60.206 155.96 59.637 155.771 59.309 155.581 58.772"/><polygon points="38.99 103.794 51.603 218.219 159.722 305.081 159.722 191.412"/><line x1="40.835" x2="41.316" y1="105.152" y2="109.572"/><line x1="44.49" x2="44.802" y1="109.169" y2="112.112"/><polyline points="44.557 109.801 44.144 109.112 43.753 108.633 43.201 108.231 42.855 108.175 42.533 108.329 42.417 108.826 42.462 109.247 42.714 110.01 43.126 110.697 43.515 111.174 44.066 111.576 44.412 111.634 44.735 111.483"/><line x1="45.598" x2="47.013" y1="109.974" y2="113.723"/><polyline points="47.818 111.587 47.013 113.723 46.731 114.293 46.406 114.442 46.06 114.383 45.876 114.249"/><polyline points="48.874 113.525 51.102 115.146 51.06 114.725 50.832 114.168 50.625 113.822 50.231 113.341 49.674 112.936 49.324 112.876 48.995 113.028 48.874 113.525 48.917 113.945 49.167 114.71 49.58 115.4 49.972 115.88 50.528 116.285 50.878 116.346 51.208 116.197"/><line x1="52.28" x2="52.572" y1="114.83" y2="117.775"/><polyline points="52.406 116.094 52.529 115.598 52.861 115.448 53.214 115.508 53.774 115.916"/><line x1="60.024" x2="58.553" y1="119.078" y2="122.133"/><line x1="57.384" x2="60.024" y1="117.162" y2="119.078"/><polygon points="12.414 120.142 28.034 234.55 135.995 324.143 132.923 210.861"/><line x1="14.253" x2="14.851" y1="121.545" y2="125.971"/><line x1="17.936" x2="18.326" y1="125.65" y2="128.597"/><polyline points="18.02 126.283 17.597 125.584 17.201 125.096 16.651 124.681 16.312 124.616 16.002 124.761 15.903 125.255 15.96 125.676 16.227 126.445 16.649 127.142 17.043 127.628 17.592 128.043 17.931 128.11 18.242 127.967"/><line x1="19.04" x2="20.529" y1="126.482" y2="130.263"/><polyline points="21.253 128.151 20.529 130.263 20.271 130.825 19.959 130.966 19.619 130.898 19.436 130.759"/><polyline points="22.34 130.113 24.561 131.789 24.508 131.368 24.269 130.806 24.057 130.455 23.659 129.964 23.103 129.545 22.76 129.477 22.444 129.62 22.34 130.113 22.394 130.534 22.66 131.304 23.083 132.004 23.48 132.493 24.034 132.912 24.378 132.982 24.695 132.841"/><line x1="25.702" x2="26.072" y1="131.504" y2="134.452"/><polyline points="25.861 132.77 25.967 132.277 26.286 132.136 26.632 132.206 27.191 132.627"/><polygon points="31.69 134.671 31.151 134.459 31.015 134.741 31.066 135.164 31.305 135.728 31.705 136.222 32.482 136.999 33.071 137.635 33.497 138.34 33.735 138.904 33.81 139.536 33.672 139.814 33.509 139.883 32.972 139.668 32.222 139.101 31.636 138.467 31.423 138.115 31.185 137.553 31.109 136.922 31.245 136.642 31.569 136.502 32.106 136.716 32.832 137.071 33.183 137.143 33.321 136.863 33.27 136.44 33.032 135.874 32.442 135.238"/><line x1="179.448" x2="179.448" y1="270.793" y2="279.283"/><polyline points="179.448 272.006 180.256 271.197 181.065 270.793 182.278 270.793 183.086 271.197 183.895 272.006 184.299 273.219 184.299 274.027 183.895 275.24 183.086 276.048 182.278 276.453 181.065 276.453 180.256 276.048 179.448 275.24"/><polyline points="187.533 267.963 187.533 274.836 187.937 276.048 188.746 276.453 189.554 276.453"/><line x1="186.32" x2="189.15" y1="270.793" y2="270.793"/><line x1="191.98" x2="191.98" y1="270.793" y2="276.453"/><polyline points="191.98 273.219 192.384 272.006 193.193 271.197 194.001 270.793 195.214 270.793"/><line x1="201.683" x2="201.683" y1="270.793" y2="276.453"/><polyline points="201.683 272.006 200.874 271.197 200.065 270.793 198.853 270.793 198.044 271.197 197.236 272.006 196.831 273.219 196.831 274.027 197.236 275.24 198.044 276.048 198.853 276.453 200.065 276.453 200.874 276.048 201.683 275.24"/><line x1="204.917" x2="204.917" y1="270.793" y2="276.453"/><polyline points="204.917 272.41 206.13 271.197 206.938 270.793 208.151 270.793 208.959 271.197 209.364 272.41 209.364 276.453"/><polyline points="216.641 272.006 216.236 271.197 215.024 270.793 213.811 270.793 212.598 271.197 212.194 272.006 212.598 272.814 213.406 273.219 215.428 273.623 216.236 274.027 216.641 274.836 216.641 275.24 216.236 276.048 215.024 276.453 213.811 276.453 212.598 276.048 212.194 275.24"/><line x1="219.47" x2="219.47" y1="267.963" y2="276.453"/><line x1="227.152" x2="227.152" y1="270.793" y2="276.453"/><polyline points="227.152 272.006 226.343 271.197 225.535 270.793 224.322 270.793 223.513 271.197 222.705 272.006 222.3 273.219 222.3 274.027 222.705 275.24 223.513 276.048 224.322 276.453 225.535 276.453 226.343 276.048 227.152 275.24"/><polyline points="230.79 267.963 230.79 274.836 231.194 276.048 232.003 276.453 232.811 276.453"/><line x1="229.577" x2="232.407" y1="270.793" y2="270.793"/><polyline points="234.833 273.219 239.684 273.219 239.684 272.41 239.28 271.601 238.875 271.197 238.067 270.793 236.854 270.793 236.046 271.197 235.237 272.006 234.833 273.219 234.833 274.027 235.237 275.24 236.046 276.048 236.854 276.453 238.067 276.453 238.875 276.048 239.684 275.24"/><line x1="248.982" x2="256.259" y1="272.814" y2="272.814"/><line x1="259.493" x2="259.493" y1="267.963" y2="276.453"/><polyline points="272.834 267.963 268.791 273.623 274.856 273.623"/><line x1="272.834" x2="272.834" y1="267.963" y2="276.453"/><polyline points="277.685 274.836 277.281 275.24 276.877 274.836 277.281 274.431 277.685 274.836 277.685 275.644 276.877 276.453"/><polyline points="284.962 267.963 280.92 267.963 280.515 271.601 280.92 271.197 282.132 270.793 283.345 270.793 284.558 271.197 285.367 272.006 285.771 273.219 285.771 274.027 285.367 275.24 284.558 276.048 283.345 276.453 282.132 276.453 280.92 276.048 280.515 275.644 280.111 274.836"/><polyline points="289.005 274.836 288.601 275.24 288.196 274.836 288.601 274.431 289.005 274.836 289.005 275.644 288.196 276.453"/><polyline points="296.686 269.176 296.282 268.367 295.069 267.963 294.26 267.963 293.048 268.367 292.239 269.58 291.835 271.601 291.835 273.623 292.239 275.24 293.048 276.048 294.26 276.453 294.665 276.453 295.878 276.048 296.686 275.24 297.09 274.027 297.09 273.623 296.686 272.41 295.878 271.601 294.665 271.197 294.26 271.197 293.048 271.601 292.239 272.41 291.835 273.623"/><line x1="306.389" x2="313.666" y1="272.814" y2="272.814"/><line x1="316.9" x2="324.176" y1="272.814" y2="272.814"/><line x1="333.879" x2="341.156" y1="272.814" y2="272.814"/><polyline points="348.837 267.963 344.794 267.963 344.39 271.601 344.794 271.197 346.007 270.793 347.22 270.793 348.433 271.197 349.241 272.006 349.646 273.219 349.646 274.027 349.241 275.24 348.433 276.048 347.22 276.453 346.007 276.453 344.794 276.048 344.39 275.644 343.986 274.836"/><polyline points="356.922 272.006 356.114 271.197 355.305 270.793 354.092 270.793 353.284 271.197 352.475 272.006 352.071 273.219 352.071 274.027 352.475 275.24 353.284 276.048 354.092 276.453 355.305 276.453 356.114 276.048 356.922 275.24"/><line x1="359.752" x2="359.752" y1="270.793" y2="276.453"/><polyline points="359.752 272.41 360.965 271.197 361.774 270.793 362.986 270.793 363.795 271.197 364.199 272.41 364.199 276.453"/><polyline points="364.199 272.41 365.412 271.197 366.221 270.793 367.433 270.793 368.242 271.197 368.646 272.41 368.646 276.453"/><polygon points="380.37 267.963 379.157 268.367 378.349 269.58 377.944 271.601 377.944 272.814 378.349 274.836 379.157 276.048 380.37 276.453 381.179 276.453 382.391 276.048 383.2 274.836 383.604 272.814 383.604 271.601 383.2 269.58 382.391 268.367 381.179 267.963"/><polygon points="394.924 267.963 393.711 268.367 392.902 269.58 392.498 271.601 392.498 272.814 392.902 274.836 393.711 276.048 394.924 276.453 395.732 276.453 396.945 276.048 397.754 274.836 398.158 272.814 398.158 271.601 397.754 269.58 396.945 268.367 395.732 267.963"/><polygon points="543.874 16.015 541.765 129.546 649.756 202.365 664.429 87.977"/><line x1="545.729" x2="545.641" y1="17.141" y2="21.488"/><line x1="549.215" x2="549.148" y1="20.696" y2="23.592"/><polyline points="549.201 21.318 548.84 20.682 548.474 20.253 547.918 19.92 547.543 19.906 547.164 20.099 546.966 20.609 546.957 21.023 547.129 21.753 547.489 22.387 547.854 22.815 548.408 23.148 548.783 23.163 549.163 22.972"/><line x1="550.329" x2="551.372" y1="21.362" y2="24.926"/><polyline points="552.562 22.697 551.372 24.926 550.98 25.528 550.6 25.717 550.224 25.701 550.039 25.59"/><polyline points="553.46 24.498 555.7 25.839 555.712 25.425 555.537 24.898 555.356 24.579 554.988 24.148 554.427 23.813 554.048 23.797 553.664 23.988 553.46 24.498 553.449 24.912 553.619 25.644 553.98 26.28 554.347 26.71 554.906 27.046 555.285 27.063 555.67 26.874"/><line x1="557.047" x2="556.96" y1="25.379" y2="28.278"/><polyline points="557.01 26.623 557.216 26.113 557.603 25.923 557.985 25.94 558.548 26.276"/><polyline points="562.902 28.243 563.288 28.261 563.878 27.975 563.721 32.334"/><polygon points="521.903 29.53 521.903 143.308 630.021 218.219 642.634 103.794"/><line x1="523.758" x2="523.751" y1="30.691" y2="35.052"/><line x1="527.273" x2="527.259" y1="34.315" y2="37.221"/><polyline points="527.27 34.939 526.901 34.295 526.531 33.858 525.975 33.516 525.604 33.495 525.233 33.683 525.046 34.192 525.045 34.607 525.228 35.343 525.596 35.985 525.965 36.421 526.519 36.764 526.89 36.785 527.262 36.599"/><line x1="528.387" x2="529.484" y1="35.002" y2="38.596"/><polyline points="530.62 36.378 529.484 38.596 529.107 39.194 528.734 39.378 528.363 39.356 528.178 39.241"/><polyline points="531.543 38.2 533.783 39.583 533.787 39.167 533.605 38.635 533.419 38.312 533.048 37.873 532.487 37.528 532.111 37.506 531.734 37.692 531.543 38.2 531.539 38.616 531.72 39.353 532.089 39.998 532.46 40.436 533.019 40.781 533.395 40.805 533.773 40.621"/><line x1="535.107" x2="535.074" y1="39.142" y2="42.052"/><polyline points="535.093 40.391 535.288 39.883 535.668 39.698 536.046 39.721 536.609 40.068"/><polyline points="540.573 42.089 540.576 41.88 540.772 41.579 540.965 41.486 541.347 41.51 542.105 41.977 542.48 42.419 542.666 42.744 542.848 43.279 542.841 43.696 542.644 43.996 542.254 44.388 540.331 45.301 542.973 46.934"/><polygon points="499.251 43.463 501.485 157.454 609.695 234.55 620.108 120.142"/><line x1="501.106" x2="501.185" y1="44.66" y2="49.036"/><line x1="504.649" x2="504.693" y1="48.357" y2="51.272"/><polyline points="504.659 48.983 504.281 48.33 503.908 47.886 503.352 47.532 502.985 47.506 502.622 47.688 502.447 48.195 502.454 48.611 502.65 49.353 503.026 50.004 503.399 50.447 503.953 50.8 504.32 50.828 504.684 50.649"/><line x1="505.763" x2="506.917" y1="49.065" y2="52.69"/><polyline points="507.997 50.484 506.917 52.69 506.557 53.284 506.192 53.462 505.825 53.433 505.639 53.315"/><polyline points="508.943 52.328 511.184 53.754 511.18 53.337 510.989 52.801 510.8 52.473 510.424 52.026 509.863 51.67 509.491 51.641 509.123 51.822 508.943 52.328 508.948 52.745 509.141 53.488 509.519 54.142 509.893 54.587 510.453 54.944 510.824 54.974 511.194 54.796"/><line x1="512.484" x2="512.508" y1="53.336" y2="56.254"/><polyline points="512.494 54.588 512.676 54.081 513.048 53.902 513.422 53.932 513.986 54.29"/><polyline points="518.127 55.459 520.212 56.782 519.078 57.735 519.646 58.096 520.025 58.546 520.215 58.875 520.405 59.622 520.406 60.039 520.217 60.544 519.84 60.72 519.274 60.567 518.707 60.206 518.141 59.637 517.952 59.309 517.762 58.772"/><polygon points="401.171 103.794 413.784 218.219 521.903 305.081 521.903 191.412"/><line x1="403.016" x2="403.497" y1="105.152" y2="109.572"/><line x1="406.671" x2="406.983" y1="109.169" y2="112.112"/><polyline points="406.738 109.801 406.325 109.112 405.934 108.633 405.382 108.231 405.036 108.175 404.714 108.329 404.598 108.826 404.643 109.247 404.894 110.01 405.307 110.697 405.696 111.174 406.247 111.576 406.592 111.634 406.916 111.483"/><line x1="407.779" x2="409.193" y1="109.974" y2="113.723"/><polyline points="409.999 111.587 409.193 113.723 408.912 114.293 408.587 114.442 408.241 114.383 408.057 114.249"/><polyline points="411.055 113.525 413.283 115.146 413.241 114.725 413.013 114.168 412.806 113.822 412.412 113.341 411.855 112.936 411.505 112.876 411.176 113.028 411.055 113.525 411.098 113.945 411.348 114.71 411.761 115.4 412.153 115.88 412.709 116.285 413.059 116.346 413.389 116.197"/><line x1="414.461" x2="414.753" y1="114.83" y2="117.775"/><polyline points="414.586 116.094 414.71 115.598 415.042 115.448 415.394 115.508 415.955 115.916"/><line x1="422.205" x2="420.734" y1="119.078" y2="122.133"/><line x1="419.565" x2="422.205" y1="117.162" y2="119.078"/><polygon points="374.594 120.142 390.214 234.55 498.175 324.143 495.103 210.861"/><line x1="376.434" x2="377.032" y1="121.545" y2="125.971"/><line x1="380.117" x2="380.506" y1="125.65" y2="128.597"/><polyline points="380.201 126.283 379.777 125.584 379.382 125.096 378.832 124.681 378.493 124.616 378.183 124.761 378.084 125.255 378.141 125.676 378.408 126.445 378.83 127.142 379.224 127.628 379.773 128.043 380.112 128.11 380.423 127.967"/><line x1="381.221" x2="382.71" y1="126.482" y2="130.263"/><polyline points="383.434 128.151 382.71 130.263 382.452 130.825 382.139 130.966 381.8 130.898 381.616 130.759"/><polyline points="384.521 130.113 386.742 131.789 386.689 131.368 386.45 130.806 386.238 130.455 385.84 129.964 385.284 129.545 384.941 129.477 384.625 129.62 384.521 130.113 384.575 130.534 384.841 131.304 385.264 132.004 385.661 132.493 386.215 132.912 386.558 132.982 386.876 132.841"/><line x1="387.883" x2="388.253" y1="131.504" y2="134.452"/><polyline points="388.041 132.77 388.148 132.277 388.467 132.136 388.813 132.206 389.372 132.627"/><polygon points="393.87 134.671 393.332 134.459 393.196 134.741 393.247 135.164 393.486 135.728 393.886 136.222 394.663 136.999 395.251 137.635 395.678 138.34 395.916 138.904 395.991 139.536 395.853 139.814 395.69 139.883 395.153 139.668 394.403 139.101 393.816 138.467 393.604 138.115 393.366 137.553 393.289 136.922 393.426 136.642 393.75 136.502 394.287 136.716 395.013 137.071 395.364 137.143 395.502 136.863 395.451 136.44 395.213 135.874 394.623 135.238"/><line x1="541.629" x2="541.629" y1="270.793" y2="279.283"/><polyline points="541.629 272.006 542.437 271.197 543.246 270.793 544.458 270.793 545.267 271.197 546.076 272.006 546.48 273.219 546.48 274.027 546.076 275.24 545.267 276.048 544.458 276.453 543.246 276.453 542.437 276.048 541.629 275.24"/><polyline points="549.714 267.963 549.714 274.836 550.118 276.048 550.927 276.453 551.735 276.453"/><line x1="548.501" x2="551.331" y1="270.793" y2="270.793"/><line x1="554.161" x2="554.161" y1="270.793" y2="276.453"/><polyline points="554.161 273.219 554.565 272.006 555.374 271.197 556.182 270.793 557.395 270.793"/><line x1="563.864" x2="563.864" y1="270.793" y2="276.453"/><polyline points="563.864 272.006 563.055 271.197 562.246 270.793 561.034 270.793 560.225 271.197 559.417 272.006 559.012 273.219 559.012 274.027 559.417 275.24 560.225 276.048 561.034 276.453 562.246 276.453 563.055 276.048 563.864 275.24"/><line x1="567.098" x2="567.098" y1="270.793" y2="276.453"/><polyline points="567.098 272.41 568.311 271.197 569.119 270.793 570.332 270.793 571.14 271.197 571.545 272.41 571.545 276.453"/><polyline points="578.822 272.006 578.417 271.197 577.204 270.793 575.992 270.793 574.779 271.197 574.375 272.006 574.779 272.814 575.587 273.219 577.609 273.623 578.417 274.027 578.822 274.836 578.822 275.24 578.417 276.048 577.204 276.453 575.992 276.453 574.779 276.048 574.375 275.24"/><line x1="581.651" x2="581.651" y1="267.963" y2="276.453"/><line x1="589.332" x2="589.332" y1="270.793" y2="276.453"/><polyline points="589.332 272.006 588.524 271.197 587.715 270.793 586.503 270.793 585.694 271.197 584.885 272.006 584.481 273.219 584.481 274.027 584.885 275.24 585.694 276.048 586.503 276.453 587.715 276.453 588.524 276.048 589.332 275.24"/><polyline points="592.971 267.963 592.971 274.836 593.375 276.048 594.184 276.453 594.992 276.453"/><line x1="591.758" x2="594.588" y1="270.793" y2="270.793"/><polyline points="597.014 273.219 601.865 273.219 601.865 272.41 601.461 271.601 601.056 271.197 600.248 270.793 599.035 270.793 598.226 271.197 597.418 272.006 597.014 273.219 597.014 274.027 597.418 275.24 598.226 276.048 599.035 276.453 600.248 276.453 601.056 276.048 601.865 275.24"/><line x1="611.163" x2="618.44" y1="272.814" y2="272.814"/><line x1="621.674" x2="621.674" y1="267.963" y2="276.453"/><polyline points="635.015 267.963 630.972 273.623 637.036 273.623"/><line x1="635.015" x2="635.015" y1="267.963" y2="276.453"/><polyline points="639.866 274.836 639.462 275.24 639.058 274.836 639.462 274.431 639.866 274.836 639.866 275.644 639.058 276.453"/><polyline points="647.143 267.963 643.1 267.963 642.696 271.601 643.1 271.197 644.313 270.793 645.526 270.793 646.739 271.197 647.547 272.006 647.952 273.219 647.952 274.027 647.547 275.24 646.739 276.048 645.526 276.453 644.313 276.453 643.1 276.048 642.696 275.644 642.292 274.836"/><polyline points="651.186 274.836 650.782 275.24 650.377 274.836 650.782 274.431 651.186 274.836 651.186 275.644 650.377 276.453"/><polyline points="658.867 269.176 658.463 268.367 657.25 267.963 656.441 267.963 655.229 268.367 654.42 269.58 654.016 271.601 654.016 273.623 654.42 275.24 655.229 276.048 656.441 276.453 656.846 276.453 658.058 276.048 658.867 275.24 659.271 274.027 659.271 273.623 658.867 272.41 658.058 271.601 656.846 271.197 656.441 271.197 655.229 271.601 654.42 272.41 654.016 273.623"/><line x1="668.569" x2="675.846" y1="272.814" y2="272.814"/><line x1="679.081" x2="686.357" y1="272.814" y2="272.814"/><line x1="696.06" x2="703.337" y1="272.814" y2="272.814"/><polyline points="711.018 267.963 706.975 267.963 706.571 271.601 706.975 271.197 708.188 270.793 709.401 270.793 710.614 271.197 711.422 272.006 711.826 273.219 711.826 274.027 711.422 275.24 710.614 276.048 709.401 276.453 708.188 276.453 706.975 276.048 706.571 275.644 706.167 274.836"/><polyline points="719.103 272.006 718.295 271.197 717.486 270.793 716.273 270.793 715.465 271.197 714.656 272.006 714.252 273.219 714.252 274.027 714.656 275.24 715.465 276.048 716.273 276.453 717.486 276.453 718.295 276.048 719.103 275.24"/><line x1="721.933" x2="721.933" y1="270.793" y2="276.453"/><polyline points="721.933 272.41 723.146 271.197 723.955 270.793 725.167 270.793 725.976 271.197 726.38 272.41 726.38 276.453"/><polyline points="726.38 272.41 727.593 271.197 728.402 270.793 729.614 270.793 730.423 271.197 730.827 272.41 730.827 276.453"/><polygon points="742.551 267.963 741.338 268.367 740.53 269.58 740.125 271.601 740.125 272.814 740.53 274.836 741.338 276.048 742.551 276.453 743.36 276.453 744.572 276.048 745.381 274.836 745.785 272.814 745.785 271.601 745.381 269.58 744.572 268.367 743.36 267.963"/><polygon points="757.105 267.963 755.892 268.367 755.083 269.58 754.679 271.601 754.679 272.814 755.083 274.836 755.892 276.048 757.105 276.453 757.913 276.453 759.126 276.048 759.934 274.836 760.339 272.814 760.339 271.601 759.934 269.58 759.126 268.367 757.913 267.963"/><line x1="541.629" x2="541.629" y1="288.902" y2="297.392"/><polyline points="541.629 290.115 542.437 289.306 543.246 288.902 544.458 288.902 545.267 289.306 546.076 290.115 546.48 291.328 546.48 292.136 546.076 293.349 545.267 294.158 544.458 294.562 543.246 294.562 542.437 294.158 541.629 293.349"/><line x1="549.31" x2="549.31" y1="288.902" y2="294.562"/><polyline points="549.31 291.328 549.714 290.115 550.523 289.306 551.331 288.902 552.544 288.902"/><polygon points="556.182 288.902 555.374 289.306 554.565 290.115 554.161 291.328 554.161 292.136 554.565 293.349 555.374 294.158 556.182 294.562 557.395 294.562 558.204 294.158 559.012 293.349 559.417 292.136 559.417 291.328 559.012 290.115 558.204 289.306 557.395 288.902"/><polyline points="562.651 286.072 562.651 292.945 563.055 294.158 563.864 294.562 564.672 294.562"/><line x1="561.438" x2="564.268" y1="288.902" y2="288.902"/><line x1="571.545" x2="571.545" y1="288.902" y2="294.562"/><polyline points="571.545 290.115 570.736 289.306 569.928 288.902 568.715 288.902 567.906 289.306 567.098 290.115 566.693 291.328 566.693 292.136 567.098 293.349 567.906 294.158 568.715 294.562 569.928 294.562 570.736 294.158 571.545 293.349"/><polyline points="575.183 286.072 575.183 292.945 575.587 294.158 576.396 294.562 577.204 294.562"/><line x1="573.97" x2="576.8" y1="288.902" y2="288.902"/><polyline points="579.226 291.328 584.077 291.328 584.077 290.519 583.673 289.711 583.269 289.306 582.46 288.902 581.247 288.902 580.439 289.306 579.63 290.115 579.226 291.328 579.226 292.136 579.63 293.349 580.439 294.158 581.247 294.562 582.46 294.562 583.269 294.158 584.077 293.349"/><line x1="593.375" x2="600.652" y1="290.923" y2="290.923"/><line x1="603.886" x2="603.886" y1="286.072" y2="294.562"/><polyline points="617.227 286.072 613.184 291.732 619.249 291.732"/><line x1="617.227" x2="617.227" y1="286.072" y2="294.562"/><polyline points="622.078 292.945 621.674 293.349 621.27 292.945 621.674 292.54 622.078 292.945 622.078 293.753 621.27 294.562"/><polyline points="629.355 286.072 625.313 286.072 624.908 289.711 625.313 289.306 626.525 288.902 627.738 288.902 628.951 289.306 629.76 290.115 630.164 291.328 630.164 292.136 629.76 293.349 628.951 294.158 627.738 294.562 626.525 294.562 625.313 294.158 624.908 293.753 624.504 292.945"/><polyline points="633.398 292.945 632.994 293.349 632.589 292.945 632.994 292.54 633.398 292.945 633.398 293.753 632.589 294.562"/><polyline points="641.079 287.285 640.675 286.476 639.462 286.072 638.654 286.072 637.441 286.476 636.632 287.689 636.228 289.711 636.228 291.732 636.632 293.349 637.441 294.158 638.654 294.562 639.058 294.562 640.271 294.158 641.079 293.349 641.483 292.136 641.483 291.732 641.079 290.519 640.271 289.711 639.058 289.306 638.654 289.306 637.441 289.711 636.632 290.519 636.228 291.732"/><line x1="649.973" x2="652.399" y1="288.902" y2="294.562"/><polyline points="654.824 288.902 652.399 294.562 651.59 296.179 650.782 296.987 649.973 297.392 649.569 297.392"/><polyline points="663.718 288.094 663.718 287.689 664.122 286.881 664.527 286.476 665.335 286.072 666.952 286.072 667.761 286.476 668.165 286.881 668.569 287.689 668.569 288.498 668.165 289.306 667.357 290.519 663.314 294.562 668.974 294.562"/><polygon points="673.825 286.072 672.612 286.476 671.804 287.689 671.399 289.711 671.399 290.923 671.804 292.945 672.612 294.158 673.825 294.562 674.634 294.562 675.846 294.158 676.655 292.945 677.059 290.923 677.059 289.711 676.655 287.689 675.846 286.476 674.634 286.072"/><polygon points="906.055 16.015 903.946 129.546 1011.937 202.365 1026.61 87.977"/><line x1="907.909" x2="907.822" y1="17.141" y2="21.488"/><line x1="911.396" x2="911.329" y1="20.696" y2="23.592"/><polyline points="911.382 21.318 911.02 20.682 910.654 20.253 910.099 19.92 909.724 19.906 909.345 20.099 909.147 20.609 909.138 21.023 909.31 21.753 909.67 22.387 910.035 22.815 910.589 23.148 910.964 23.163 911.343 22.972"/><line x1="912.51" x2="913.553" y1="21.362" y2="24.926"/><polyline points="914.742 22.697 913.553 24.926 913.161 25.528 912.78 25.717 912.405 25.701 912.22 25.59"/><polyline points="915.641 24.498 917.881 25.839 917.893 25.425 917.718 24.898 917.537 24.579 917.169 24.148 916.608 23.813 916.229 23.797 915.845 23.988 915.641 24.498 915.63 24.912 915.8 25.644 916.161 26.28 916.528 26.71 917.087 27.046 917.466 27.063 917.851 26.874"/><line x1="919.228" x2="919.141" y1="25.379" y2="28.278"/><polyline points="919.191 26.623 919.396 26.113 919.784 25.923 920.166 25.94 920.729 26.276"/><polyline points="925.083 28.243 925.468 28.261 926.058 27.975 925.902 32.334"/><polygon points="884.083 29.53 884.083 143.308 992.202 218.219 1004.815 103.794"/><line x1="885.939" x2="885.932" y1="30.691" y2="35.052"/><line x1="889.453" x2="889.44" y1="34.315" y2="37.221"/><polyline points="889.451 34.939 889.082 34.295 888.712 33.858 888.156 33.516 887.785 33.495 887.413 33.683 887.227 34.192 887.226 34.607 887.409 35.343 887.777 35.985 888.146 36.421 888.7 36.764 889.071 36.785 889.443 36.599"/><line x1="890.568" x2="891.665" y1="35.002" y2="38.596"/><polyline points="892.801 36.378 891.665 38.596 891.288 39.194 890.915 39.378 890.543 39.356 890.358 39.241"/><polyline points="893.723 38.2 895.964 39.583 895.968 39.167 895.785 38.635 895.6 38.312 895.228 37.873 894.668 37.528 894.292 37.506 893.915 37.692 893.723 38.2 893.72 38.616 893.901 39.353 894.27 39.998 894.641 40.436 895.2 40.781 895.576 40.805 895.953 40.621"/><line x1="897.288" x2="897.255" y1="39.142" y2="42.052"/><polyline points="897.274 40.391 897.469 39.883 897.849 39.698 898.227 39.721 898.79 40.068"/><polyline points="902.754 42.089 902.757 41.88 902.953 41.579 903.146 41.486 903.528 41.51 904.286 41.977 904.661 42.419 904.847 42.744 905.029 43.279 905.021 43.696 904.824 43.996 904.435 44.388 902.512 45.301 905.154 46.934"/><polygon points="861.432 43.463 863.666 157.454 971.875 234.55 982.289 120.142"/><line x1="863.287" x2="863.366" y1="44.66" y2="49.036"/><line x1="866.83" x2="866.874" y1="48.357" y2="51.272"/><polyline points="866.839 48.983 866.462 48.33 866.088 47.886 865.533 47.532 865.166 47.506 864.803 47.688 864.628 48.195 864.635 48.611 864.831 49.353 865.207 50.004 865.58 50.447 866.134 50.8 866.501 50.828 866.864 50.649"/><line x1="867.944" x2="869.098" y1="49.065" y2="52.69"/><polyline points="870.177 50.484 869.098 52.69 868.738 53.284 868.373 53.462 868.005 53.433 867.82 53.315"/><polyline points="871.124 52.328 873.365 53.754 873.361 53.337 873.17 52.801 872.981 52.473 872.605 52.026 872.044 51.67 871.672 51.641 871.303 51.822 871.124 52.328 871.129 52.745 871.322 53.488 871.699 54.142 872.074 54.587 872.634 54.944 873.005 54.974 873.374 54.796"/><line x1="874.665" x2="874.689" y1="53.336" y2="56.254"/><polyline points="874.675 54.588 874.857 54.081 875.229 53.902 875.603 53.932 876.167 54.29"/><polyline points="880.308 55.459 882.393 56.782 881.259 57.735 881.827 58.096 882.206 58.546 882.396 58.875 882.586 59.622 882.587 60.039 882.398 60.544 882.021 60.72 881.455 60.567 880.888 60.206 880.322 59.637 880.133 59.309 879.942 58.772"/><polygon points="763.352 103.794 775.965 218.219 884.083 305.081 884.083 191.412"/><line x1="765.197" x2="765.677" y1="105.152" y2="109.572"/><line x1="768.852" x2="769.163" y1="109.169" y2="112.112"/><polyline points="768.919 109.801 768.506 109.112 768.115 108.633 767.563 108.231 767.217 108.175 766.895 108.329 766.779 108.826 766.824 109.247 767.075 110.01 767.487 110.697 767.877 111.174 768.428 111.576 768.773 111.634 769.097 111.483"/><line x1="769.96" x2="771.374" y1="109.974" y2="113.723"/><polyline points="772.18 111.587 771.374 113.723 771.093 114.293 770.768 114.442 770.422 114.383 770.238 114.249"/><polyline points="773.236 113.525 775.464 115.146 775.422 114.725 775.194 114.168 774.986 113.822 774.593 113.341 774.035 112.936 773.685 112.876 773.357 113.028 773.236 113.525 773.279 113.945 773.529 114.71 773.942 115.4 774.334 115.88 774.89 116.285 775.24 116.346 775.569 116.197"/><line x1="776.642" x2="776.934" y1="114.83" y2="117.775"/><polyline points="776.767 116.094 776.891 115.598 777.223 115.448 777.575 115.508 778.136 115.916"/><line x1="784.386" x2="782.915" y1="119.078" y2="122.133"/><line x1="781.746" x2="784.386" y1="117.162" y2="119.078"/><polygon points="736.775 120.142 752.395 234.55 860.356 324.143 857.284 210.861"/><line x1="738.615" x2="739.212" y1="121.545" y2="125.971"/><line x1="742.298" x2="742.687" y1="125.65" y2="128.597"/><polyline points="742.381 126.283 741.958 125.584 741.563 125.096 741.012 124.681 740.674 124.616 740.364 124.761 740.265 125.255 740.322 125.676 740.589 126.445 741.011 127.142 741.405 127.628 741.954 128.043 742.293 128.11 742.604 127.967"/><line x1="743.402" x2="744.891" y1="126.482" y2="130.263"/><polyline points="745.615 128.151 744.891 130.263 744.633 130.825 744.32 130.966 743.981 130.898 743.797 130.759"/><polyline points="746.702 130.113 748.923 131.789 748.87 131.368 748.631 130.806 748.419 130.455 748.021 129.964 747.465 129.545 747.121 129.477 746.806 129.62 746.702 130.113 746.756 130.534 747.022 131.304 747.445 132.004 747.841 132.493 748.396 132.912 748.739 132.982 749.057 132.841"/><line x1="750.063" x2="750.434" y1="131.504" y2="134.452"/><polyline points="750.222 132.77 750.329 132.277 750.648 132.136 750.994 132.206 751.553 132.627"/><polygon points="756.051 134.671 755.513 134.459 755.377 134.741 755.428 135.164 755.667 135.728 756.067 136.222 756.843 136.999 757.432 137.635 757.858 138.34 758.096 138.904 758.172 139.536 758.034 139.814 757.871 139.883 757.333 139.668 756.584 139.101 755.997 138.467 755.785 138.115 755.547 137.553 755.47 136.922 755.607 136.642 755.931 136.502 756.468 136.716 757.194 137.071 757.545 137.143 757.683 136.863 757.632 136.44 757.394 135.874 756.803 135.238"/><line x1="903.809" x2="903.809" y1="270.793" y2="279.283"/><polyline points="903.809 272.006 904.618 271.197 905.427 270.793 906.639 270.793 907.448 271.197 908.256 272.006 908.661 273.219 908.661 274.027 908.256 275.24 907.448 276.048 906.639 276.453 905.427 276.453 904.618 276.048 903.809 275.24"/><polyline points="911.895 267.963 911.895 274.836 912.299 276.048 913.108 276.453 913.916 276.453"/><line x1="910.682" x2="913.512" y1="270.793" y2="270.793"/><line x1="916.342" x2="916.342" y1="270.793" y2="276.453"/><polyline points="916.342 273.219 916.746 272.006 917.555 271.197 918.363 270.793 919.576 270.793"/><line x1="926.044" x2="926.044" y1="270.793" y2="276.453"/><polyline points="926.044 272.006 925.236 271.197 924.427 270.793 923.215 270.793 922.406 271.197 921.597 272.006 921.193 273.219 921.193 274.027 921.597 275.24 922.406 276.048 923.215 276.453 924.427 276.453 925.236 276.048 926.044 275.24"/><line x1="929.279" x2="929.279" y1="270.793" y2="276.453"/><polyline points="929.279 272.41 930.491 271.197 931.3 270.793 932.513 270.793 933.321 271.197 933.726 272.41 933.726 276.453"/><polyline points="941.002 272.006 940.598 271.197 939.385 270.793 938.173 270.793 936.96 271.197 936.555 272.006 936.96 272.814 937.768 273.219 939.789 273.623 940.598 274.027 941.002 274.836 941.002 275.24 940.598 276.048 939.385 276.453 938.173 276.453 936.96 276.048 936.555 275.24"/><line x1="943.832" x2="943.832" y1="267.963" y2="276.453"/><line x1="951.513" x2="951.513" y1="270.793" y2="276.453"/><polyline points="951.513 272.006 950.705 271.197 949.896 270.793 948.683 270.793 947.875 271.197 947.066 272.006 946.662 273.219 946.662 274.027 947.066 275.24 947.875 276.048 948.683 276.453 949.896 276.453 950.705 276.048 951.513 275.24"/><polyline points="955.152 267.963 955.152 274.836 955.556 276.048 956.365 276.453 957.173 276.453"/><line x1="953.939" x2="956.769" y1="270.793" y2="270.793"/><polyline points="959.194 273.219 964.046 273.219 964.046 272.41 963.641 271.601 963.237 271.197 962.429 270.793 961.216 270.793 960.407 271.197 959.599 272.006 959.194 273.219 959.194 274.027 959.599 275.24 960.407 276.048 961.216 276.453 962.429 276.453 963.237 276.048 964.046 275.24"/><line x1="973.344" x2="980.621" y1="272.814" y2="272.814"/><line x1="983.855" x2="983.855" y1="267.963" y2="276.453"/><polyline points="997.196 267.963 993.153 273.623 999.217 273.623"/><line x1="997.196" x2="997.196" y1="267.963" y2="276.453"/><polyline points="1002.047 274.836 1001.643 275.24 1001.239 274.836 1001.643 274.431 1002.047 274.836 1002.047 275.644 1001.239 276.453"/><polyline points="1009.324 267.963 1005.281 267.963 1004.877 271.601 1005.281 271.197 1006.494 270.793 1007.707 270.793 1008.92 271.197 1009.728 272.006 1010.133 273.219 1010.133 274.027 1009.728 275.24 1008.92 276.048 1007.707 276.453 1006.494 276.453 1005.281 276.048 1004.877 275.644 1004.473 274.836"/><polyline points="1013.367 274.836 1012.962 275.24 1012.558 274.836 1012.962 274.431 1013.367 274.836 1013.367 275.644 1012.558 276.453"/><polyline points="1021.048 269.176 1020.644 268.367 1019.431 267.963 1018.622 267.963 1017.409 268.367 1016.601 269.58 1016.197 271.601 1016.197 273.623 1016.601 275.24 1017.409 276.048 1018.622 276.453 1019.027 276.453 1020.239 276.048 1021.048 275.24 1021.452 274.027 1021.452 273.623 1021.048 272.41 1020.239 271.601 1019.027 271.197 1018.622 271.197 1017.409 271.601 1016.601 272.41 1016.197 273.623"/><line x1="1030.75" x2="1038.027" y1="272.814" y2="272.814"/><line x1="1041.261" x2="1048.538" y1="272.814" y2="272.814"/><line x1="1058.241" x2="1065.518" y1="272.814" y2="272.814"/><polyline points="1073.199 267.963 1069.156 267.963 1068.752 271.601 1069.156 271.197 1070.369 270.793 1071.582 270.793 1072.794 271.197 1073.603 272.006 1074.007 273.219 1074.007 274.027 1073.603 275.24 1072.794 276.048 1071.582 276.453 1070.369 276.453 1069.156 276.048 1068.752 275.644 1068.348 274.836"/><polyline points="1081.284 272.006 1080.476 271.197 1079.667 270.793 1078.454 270.793 1077.646 271.197 1076.837 272.006 1076.433 273.219 1076.433 274.027 1076.837 275.24 1077.646 276.048 1078.454 276.453 1079.667 276.453 1080.476 276.048 1081.284 275.24"/><line x1="1084.114" x2="1084.114" y1="270.793" y2="276.453"/><polyline points="1084.114 272.41 1085.327 271.197 1086.135 270.793 1087.348 270.793 1088.157 271.197 1088.561 272.41 1088.561 276.453"/><polyline points="1088.561 272.41 1089.774 271.197 1090.582 270.793 1091.795 270.793 1092.604 271.197 1093.008 272.41 1093.008 276.453"/><polygon points="1104.732 267.963 1103.519 268.367 1102.71 269.58 1102.306 271.601 1102.306 272.814 1102.71 274.836 1103.519 276.048 1104.732 276.453 1105.54 276.453 1106.753 276.048 1107.562 274.836 1107.966 272.814 1107.966 271.601 1107.562 269.58 1106.753 268.367 1105.54 267.963"/><polygon points="1119.285 267.963 1118.073 268.367 1117.264 269.58 1116.86 271.601 1116.86 272.814 1117.264 274.836 1118.073 276.048 1119.285 276.453 1120.094 276.453 1121.307 276.048 1122.115 274.836 1122.52 272.814 1122.52 271.601 1122.115 269.58 1121.307 268.367 1120.094 267.963"/><line x1="903.809" x2="903.809" y1="288.902" y2="297.392"/><polyline points="903.809 290.115 904.618 289.306 905.427 288.902 906.639 288.902 907.448 289.306 908.256 290.115 908.661 291.328 908.661 292.136 908.256 293.349 907.448 294.158 906.639 294.562 905.427 294.562 904.618 294.158 903.809 293.349"/><line x1="911.491" x2="911.491" y1="288.902" y2="294.562"/><polyline points="911.491 291.328 911.895 290.115 912.703 289.306 913.512 288.902 914.725 288.902"/><polygon points="918.363 288.902 917.555 289.306 916.746 290.115 916.342 291.328 916.342 292.136 916.746 293.349 917.555 294.158 918.363 294.562 919.576 294.562 920.385 294.158 921.193 293.349 921.597 292.136 921.597 291.328 921.193 290.115 920.385 289.306 919.576 288.902"/><polyline points="924.832 286.072 924.832 292.945 925.236 294.158 926.044 294.562 926.853 294.562"/><line x1="923.619" x2="926.449" y1="288.902" y2="288.902"/><line x1="933.726" x2="933.726" y1="288.902" y2="294.562"/><polyline points="933.726 290.115 932.917 289.306 932.108 288.902 930.896 288.902 930.087 289.306 929.279 290.115 928.874 291.328 928.874 292.136 929.279 293.349 930.087 294.158 930.896 294.562 932.108 294.562 932.917 294.158 933.726 293.349"/><polyline points="937.364 286.072 937.364 292.945 937.768 294.158 938.577 294.562 939.385 294.562"/><line x1="936.151" x2="938.981" y1="288.902" y2="288.902"/><polyline points="941.407 291.328 946.258 291.328 946.258 290.519 945.854 289.711 945.449 289.306 944.641 288.902 943.428 288.902 942.619 289.306 941.811 290.115 941.407 291.328 941.407 292.136 941.811 293.349 942.619 294.158 943.428 294.562 944.641 294.562 945.449 294.158 946.258 293.349"/><line x1="955.556" x2="962.833" y1="290.923" y2="290.923"/><line x1="966.067" x2="966.067" y1="286.072" y2="294.562"/><polyline points="979.408 286.072 975.365 291.732 981.429 291.732"/><line x1="979.408" x2="979.408" y1="286.072" y2="294.562"/><polyline points="984.259 292.945 983.855 293.349 983.451 292.945 983.855 292.54 984.259 292.945 984.259 293.753 983.451 294.562"/><polyline points="991.536 286.072 987.493 286.072 987.089 289.711 987.493 289.306 988.706 288.902 989.919 288.902 991.132 289.306 991.94 290.115 992.345 291.328 992.345 292.136 991.94 293.349 991.132 294.158 989.919 294.562 988.706 294.562 987.493 294.158 987.089 293.753 986.685 292.945"/><polyline points="995.579 292.945 995.175 293.349 994.77 292.945 995.175 292.54 995.579 292.945 995.579 293.753 994.77 294.562"/><polyline points="1003.26 287.285 1002.856 286.476 1001.643 286.072 1000.834 286.072 999.621 286.476 998.813 287.689 998.409 289.711 998.409 291.732 998.813 293.349 999.621 294.158 1000.834 294.562 1001.239 294.562 1002.451 294.158 1003.26 293.349 1003.664 292.136 1003.664 291.732 1003.26 290.519 1002.451 289.711 1001.239 289.306 1000.834 289.306 999.621 289.711 998.813 290.519 998.409 291.732"/><line x1="1012.154" x2="1014.58" y1="288.902" y2="294.562"/><polyline points="1017.005 288.902 1014.58 294.562 1013.771 296.179 1012.962 296.987 1012.154 297.392 1011.75 297.392"/><polyline points="1025.899 288.094 1025.899 287.689 1026.303 286.881 1026.708 286.476 1027.516 286.072 1029.133 286.072 1029.942 286.476 1030.346 286.881 1030.75 287.689 1030.75 288.498 1030.346 289.306 1029.537 290.519 1025.495 294.562 1031.155 294.562"/><polygon points="1036.006 286.072 1034.793 286.476 1033.985 287.689 1033.58 289.711 1033.58 290.923 1033.985 292.945 1034.793 294.158 1036.006 294.562 1036.814 294.562 1038.027 294.158 1038.836 292.945 1039.24 290.923 1039.24 289.711 1038.836 287.689 1038.027 286.476 1036.814 286.072"/><line x1="903.809" x2="903.809" y1="307.011" y2="315.501"/><polyline points="903.809 308.224 904.618 307.415 905.427 307.011 906.639 307.011 907.448 307.415 908.256 308.224 908.661 309.437 908.661 310.245 908.256 311.458 907.448 312.267 906.639 312.671 905.427 312.671 904.618 312.267 903.809 311.458"/><polyline points="915.533 308.224 915.129 307.415 913.916 307.011 912.703 307.011 911.491 307.415 911.086 308.224 911.491 309.032 912.299 309.437 914.321 309.841 915.129 310.245 915.533 311.054 915.533 311.458 915.129 312.267 913.916 312.671 912.703 312.671 911.491 312.267 911.086 311.458"/><polyline points="922.81 308.224 922.002 307.415 921.193 307.011 919.98 307.011 919.172 307.415 918.363 308.224 917.959 309.437 917.959 310.245 918.363 311.458 919.172 312.267 919.98 312.671 921.193 312.671 922.002 312.267 922.81 311.458"/><line x1="930.087" x2="930.087" y1="307.011" y2="312.671"/><polyline points="930.087 308.224 929.279 307.415 928.47 307.011 927.257 307.011 926.449 307.415 925.64 308.224 925.236 309.437 925.236 310.245 925.64 311.458 926.449 312.267 927.257 312.671 928.47 312.671 929.279 312.267 930.087 311.458"/><line x1="933.321" x2="933.321" y1="304.181" y2="312.671"/><polyline points="936.151 309.437 941.002 309.437 941.002 308.628 940.598 307.82 940.194 307.415 939.385 307.011 938.173 307.011 937.364 307.415 936.555 308.224 936.151 309.437 936.151 310.245 936.555 311.458 937.364 312.267 938.173 312.671 939.385 312.671 940.194 312.267 941.002 311.458"/><line x1="950.301" x2="957.577" y1="309.032" y2="309.032"/><line x1="960.812" x2="960.812" y1="304.181" y2="312.671"/><polyline points="974.961 304.181 970.918 304.181 970.514 307.82 970.918 307.415 972.131 307.011 973.344 307.011 974.557 307.415 975.365 308.224 975.77 309.437 975.77 310.245 975.365 311.458 974.557 312.267 973.344 312.671 972.131 312.671 970.918 312.267 970.514 311.862 970.11 311.054"/><polygon points="987.089 304.181 985.876 304.585 985.068 305.798 984.663 307.82 984.663 309.032 985.068 311.054 985.876 312.267 987.089 312.671 987.898 312.671 989.111 312.267 989.919 311.054 990.323 309.032 990.323 307.82 989.919 305.798 989.111 304.585 987.898 304.181"/><polygon points="993.153 310.649 992.749 311.054 993.153 311.458 993.558 311.054"/><polyline points="1000.834 304.181 996.792 304.181 996.387 307.82 996.792 307.415 998.005 307.011 999.217 307.011 1000.43 307.415 1001.239 308.224 1001.643 309.437 1001.643 310.245 1001.239 311.458 1000.43 312.267 999.217 312.671 998.005 312.671 996.792 312.267 996.387 311.862 995.983 311.054"/><polygon points="1012.962 304.181 1011.75 304.585 1010.941 305.798 1010.537 307.82 1010.537 309.032 1010.941 311.054 1011.75 312.267 1012.962 312.671 1013.771 312.671 1014.984 312.267 1015.792 311.054 1016.197 309.032 1016.197 307.82 1015.792 305.798 1014.984 304.585 1013.771 304.181"/><polygon points="1019.027 310.649 1018.622 311.054 1019.027 311.458 1019.431 311.054"/><polyline points="1026.708 304.181 1022.665 304.181 1022.261 307.82 1022.665 307.415 1023.878 307.011 1025.091 307.011 1026.303 307.415 1027.112 308.224 1027.516 309.437 1027.516 310.245 1027.112 311.458 1026.303 312.267 1025.091 312.671 1023.878 312.671 1022.665 312.267 1022.261 311.862 1021.856 311.054"/><polygon points="1038.836 304.181 1037.623 304.585 1036.814 305.798 1036.41 307.82 1036.41 309.032 1036.814 311.054 1037.623 312.267 1038.836 312.671 1039.644 312.671 1040.857 312.267 1041.666 311.054 1042.07 309.032 1042.07 307.82 1041.666 305.798 1040.857 304.585 1039.644 304.181"/><polygon points="1044.9 310.649 1044.495 311.054 1044.9 311.458 1045.304 311.054"/><polyline points="1052.581 304.181 1048.538 304.181 1048.134 307.82 1048.538 307.415 1049.751 307.011 1050.964 307.011 1052.177 307.415 1052.985 308.224 1053.389 309.437 1053.389 310.245 1052.985 311.458 1052.177 312.267 1050.964 312.671 1049.751 312.671 1048.538 312.267 1048.134 311.862 1047.73 311.054"/></g><g id="layer10" fill="none" stroke="#080" style="display:inline"><polygon points="60.102 22.721 69.727 136.38 170.454 210.234 171.696 95.821"/><line x1="61.82" x2="62.183" y1="23.865" y2="28.219"/><line x1="65.194" x2="65.428" y1="27.454" y2="30.355"/><polyline points="65.245 28.077 64.868 27.436 64.508 27.004 63.994 26.666 63.669 26.649 63.36 26.84 63.24 27.349 63.275 27.764 63.496 28.497 63.872 29.135 64.231 29.567 64.744 29.904 65.069 29.923 65.378 29.734"/><line x1="66.225" x2="67.486" y1="28.13" y2="31.709"/><polyline points="68.291 29.485 67.486 31.709 67.208 32.309 66.898 32.496 66.572 32.477 66.401 32.364"/><polyline points="69.25 31.297 71.322 32.659 71.291 32.243 71.086 31.715 70.897 31.393 70.536 30.958 70.017 30.618 69.687 30.599 69.374 30.788 69.25 31.297 69.282 31.712 69.502 32.447 69.879 33.087 70.24 33.521 70.757 33.861 71.087 33.882 71.401 33.695"/><line x1="72.441" x2="72.658" y1="32.208" y2="35.112"/><polyline points="72.534 33.455 72.661 32.946 72.977 32.758 73.309 32.778 73.83 33.12"/><polyline points="78.962 35.094 77.418 36.861 80.04 38.584"/><line x1="78.962" x2="79.265" y1="35.094" y2="39.461"/><polygon points="36.095 36.443 48.205 150.332 148.829 226.324 147.548 111.9"/><line x1="37.809" x2="38.267" y1="37.621" y2="41.991"/><line x1="41.207" x2="41.505" y1="41.282" y2="44.193"/><polyline points="41.271 41.907 40.886 41.258 40.523 40.818 40.01 40.47 39.69 40.447 39.391 40.632 39.286 41.14 39.329 41.555 39.564 42.294 39.948 42.941 40.31 43.38 40.822 43.728 41.142 43.753 41.441 43.57"/><line x1="42.235" x2="43.558" y1="41.979" y2="45.589"/><polyline points="44.296 43.377 43.558 45.589 43.299 46.185 42.999 46.366 42.678 46.34 42.507 46.224"/><polyline points="45.281 45.21 47.349 46.614 47.308 46.197 47.094 45.663 46.901 45.338 46.536 44.895 46.018 44.544 45.694 44.519 45.391 44.702 45.281 45.21 45.322 45.626 45.556 46.366 45.941 47.015 46.305 47.457 46.822 47.808 47.146 47.835 47.45 47.654"/><line x1="48.437" x2="48.718" y1="46.184" y2="49.098"/><polyline points="48.558 47.435 48.67 46.927 48.976 46.745 49.303 46.771 49.823 47.124"/><polyline points="55.262 49.438 53.514 48.254 53.513 50.017 53.668 49.927 54.172 50.073 54.696 50.428 55.239 50.992 55.627 51.647 55.858 52.391 55.896 52.808 55.778 53.314 55.467 53.492 54.962 53.344 54.44 52.989 53.899 52.426 53.705 52.1 53.493 51.566"/><polygon points="11.339 50.593 26.078 164.677 126.551 242.9 122.583 128.523"/><line x1="13.047" x2="13.608" y1="51.808" y2="56.191"/><line x1="16.47" x2="16.836" y1="55.542" y2="58.462"/><polyline points="16.549 56.169 16.155 55.512 15.787 55.064 15.276 54.705 14.962 54.675 14.674 54.854 14.584 55.36 14.637 55.777 14.886 56.522 15.278 57.177 15.645 57.624 16.155 57.983 16.469 58.014 16.758 57.837"/><line x1="17.495" x2="18.883" y1="56.261" y2="59.902"/><polyline points="19.55 57.703 18.883 59.902 18.644 60.493 18.354 60.668 18.039 60.636 17.869 60.516"/><polyline points="20.561 59.559 22.622 61.007 22.572 60.589 22.35 60.05 22.152 59.72 21.783 59.27 21.267 58.908 20.948 58.876 20.656 59.053 20.561 59.559 20.612 59.976 20.86 60.722 21.253 61.38 21.622 61.829 22.136 62.191 22.455 62.225 22.748 62.05"/><line x1="23.678" x2="24.027" y1="60.599" y2="63.522"/><polyline points="23.828 61.854 23.926 61.348 24.221 61.172 24.542 61.205 25.06 61.569"/><polyline points="30.696 64.751 30.474 64.209 29.926 63.632 29.577 63.388 29.079 63.232 28.803 63.617 28.75 64.542 28.87 65.588 29.14 66.544 29.536 67.206 30.081 67.781 30.254 67.903 30.752 68.061 31.053 67.889 31.156 67.385 31.132 67.176 30.886 66.427 30.49 65.764 29.944 65.188 29.77 65.065 29.271 64.908 28.972 65.083 28.87 65.588"/><polygon points="404.912 36.524 416.373 150.415 547.377 194.52 550.277 80.17"/><line x1="407.22" x2="407.652" y1="37.236" y2="41.605"/><line x1="411.73" x2="412.006" y1="40.009" y2="42.918"/><polyline points="411.789 40.633 411.289 40.079 410.81 39.732 410.12 39.525 409.681 39.595 409.262 39.873 409.093 40.428 409.133 40.843 409.423 41.535 409.922 42.088 410.401 42.434 411.089 42.642 411.527 42.573 411.947 42.296"/><line x1="413.111" x2="414.763" y1="40.424" y2="43.75"/><polyline points="415.877 41.256 414.763 43.75 414.38 44.44 413.96 44.715 413.52 44.783 413.291 44.714"/><polyline points="417.144 42.852 419.914 43.686 419.877 43.27 419.61 42.784 419.36 42.506 418.879 42.159 418.186 41.95 417.742 42.02 417.318 42.297 417.144 42.852 417.182 43.268 417.469 43.961 417.967 44.515 418.447 44.861 419.138 45.07 419.581 45.002 420.006 44.726"/><line x1="421.424" x2="421.677" y1="42.924" y2="45.836"/><polyline points="421.533 44.174 421.71 43.619 422.137 43.342 422.582 43.272 423.278 43.481"/><polyline points="430.132 44.116 428.04 46.336 431.528 47.387"/><line x1="430.132" x2="430.48" y1="44.116" y2="48.491"/><polygon points="380.257 50.676 394.328 164.761 526.287 210.142 526.794 95.729"/><line x1="382.583" x2="383.115" y1="51.41" y2="55.793"/><line x1="387.158" x2="387.501" y1="54.229" y2="57.148"/><polyline points="387.231 54.856 386.719 54.295 386.231 53.944 385.536 53.73 385.098 53.796 384.685 54.071 384.529 54.626 384.579 55.043 384.885 55.739 385.397 56.297 385.884 56.648 386.577 56.862 387.014 56.797 387.428 56.524"/><line x1="388.549" x2="390.278" y1="54.657" y2="58.005"/><polyline points="391.336 55.516 390.278 58.005 389.911 58.694 389.497 58.966 389.059 59.03 388.827 58.959"/><polyline points="392.64 57.127 395.431 57.987 395.385 57.57 395.105 57.08 394.849 56.799 394.36 56.447 393.661 56.232 393.22 56.297 392.801 56.572 392.64 57.127 392.687 57.544 392.99 58.24 393.501 58.8 393.989 59.152 394.686 59.367 395.127 59.302 395.546 59.029"/><line x1="396.924" x2="397.244" y1="57.236" y2="60.157"/><polyline points="397.061 58.49 397.226 57.935 397.647 57.661 398.091 57.596 398.791 57.811"/><polyline points="406.135 58.652 403.787 57.93 403.748 59.742 403.961 59.605 404.642 59.613 405.346 59.83 406.071 60.255 406.583 60.818 406.881 61.517 406.923 61.935 406.752 62.488 406.326 62.76 405.645 62.752 404.943 62.535 404.22 62.11 403.964 61.829 403.687 61.34"/><polygon points="354.821 65.277 371.655 179.517 504.57 226.229 502.531 111.805"/><line x1="357.163" x2="357.803" y1="66.034" y2="70.429"/><line x1="361.806" x2="362.221" y1="68.9" y2="71.827"/><polyline points="361.895 69.529 361.369 68.963 360.873 68.606 360.173 68.385 359.737 68.448 359.331 68.719 359.188 69.273 359.248 69.692 359.571 70.392 360.096 70.956 360.591 71.312 361.29 71.533 361.726 71.471 362.132 71.201"/><line x1="363.208" x2="365.018" y1="69.343" y2="72.712"/><polyline points="366.015 70.228 365.018 72.712 364.668 73.398 364.26 73.667 363.824 73.728 363.591 73.654"/><polyline points="367.358 71.854 370.169 72.742 370.113 72.323 369.822 71.831 369.559 71.547 369.061 71.189 368.358 70.967 367.917 71.029 367.506 71.3 367.358 71.854 367.415 72.272 367.735 72.973 368.26 73.538 368.756 73.895 369.458 74.117 369.898 74.057 370.31 73.787"/><line x1="371.644" x2="372.035" y1="72.004" y2="74.933"/><polyline points="371.812 73.261 371.963 72.707 372.377 72.436 372.82 72.375 373.526 72.597"/><polyline points="381.206 74.213 380.916 73.719 380.18 73.284 379.707 73.135 379.024 73.122 378.631 73.604 378.529 74.578 378.662 75.626 379.004 76.537 379.529 77.103 380.262 77.536 380.498 77.61 381.179 77.625 381.599 77.357 381.757 76.804 381.731 76.595 381.416 75.892 380.89 75.324 380.155 74.89 379.919 74.816 379.237 74.802 378.818 75.072 378.662 75.626"/><polygon points="767.093 36.524 778.554 150.415 909.558 194.52 912.457 80.17"/><line x1="769.401" x2="769.832" y1="37.236" y2="41.605"/><line x1="773.911" x2="774.187" y1="40.009" y2="42.918"/><polyline points="773.97 40.633 773.47 40.079 772.99 39.732 772.301 39.525 771.861 39.595 771.442 39.873 771.274 40.428 771.314 40.843 771.604 41.535 772.103 42.088 772.581 42.434 773.269 42.642 773.708 42.573 774.128 42.296"/><line x1="775.292" x2="776.944" y1="40.424" y2="43.75"/><polyline points="778.058 41.256 776.944 43.75 776.561 44.44 776.141 44.715 775.701 44.783 775.472 44.714"/><polyline points="779.325 42.852 782.095 43.686 782.058 43.27 781.79 42.784 781.541 42.506 781.06 42.159 780.366 41.95 779.923 42.02 779.499 42.297 779.325 42.852 779.362 43.268 779.649 43.961 780.148 44.515 780.628 44.861 781.319 45.07 781.762 45.002 782.187 44.726"/><line x1="783.605" x2="783.858" y1="42.924" y2="45.836"/><polyline points="783.713 44.174 783.891 43.619 784.318 43.342 784.763 43.272 785.458 43.481"/><polyline points="792.313 44.116 790.221 46.336 793.709 47.387"/><line x1="792.313" x2="792.661" y1="44.116" y2="48.491"/><polygon points="780.662 92.417 785.987 149.399 853.625 172.093 851.932 115.033"/><line x1="781.82" x2="782.013" y1="92.794" y2="94.876"/><line x1="784.074" x2="784.2" y1="94.184" y2="95.572"/><polyline points="784.101 94.482 783.853 94.21 783.613 94.038 783.267 93.928 783.046 93.954 782.833 94.079 782.745 94.34 782.764 94.538 782.906 94.872 783.154 95.143 783.394 95.315 783.739 95.425 783.961 95.399 784.173 95.275"/><line x1="784.766" x2="785.583" y1="94.404" y2="96.011"/><polyline points="786.152 94.844 785.583 96.011 785.388 96.334 785.175 96.458 784.953 96.484 784.838 96.447"/><polyline points="786.782 95.622 788.168 96.063 788.151 95.865 788.018 95.629 787.894 95.493 787.654 95.321 787.307 95.211 787.085 95.237 786.871 95.362 786.782 95.622 786.799 95.821 786.941 96.154 787.189 96.426 787.429 96.598 787.775 96.709 787.997 96.683 788.211 96.558"/><line x1="788.926" x2="789.046" y1="95.725" y2="97.113"/><polyline points="788.977 96.32 789.067 96.059 789.282 95.934 789.505 95.909 789.852 96.019"/><polyline points="793.504 96.501 792.343 96.133 792.302 96.99 792.409 96.928 792.749 96.939 793.097 97.049 793.453 97.259 793.702 97.531 793.842 97.866 793.859 98.064 793.767 98.325 793.551 98.449 793.212 98.437 792.864 98.327 792.508 98.117 792.384 97.981 792.252 97.746"/><polygon points="717.002 65.277 733.836 179.517 866.75 226.229 864.712 111.805"/><line x1="719.344" x2="719.983" y1="66.034" y2="70.429"/><line x1="723.987" x2="724.402" y1="68.9" y2="71.827"/><polyline points="724.076 69.529 723.55 68.963 723.054 68.606 722.354 68.385 721.918 68.448 721.512 68.719 721.369 69.273 721.429 69.692 721.752 70.392 722.277 70.956 722.772 71.312 723.471 71.533 723.906 71.471 724.313 71.201"/><line x1="725.389" x2="727.199" y1="69.343" y2="72.712"/><polyline points="728.196 70.228 727.199 72.712 726.849 73.398 726.441 73.667 726.005 73.728 725.772 73.654"/><polyline points="729.539 71.854 732.35 72.742 732.294 72.323 732.003 71.831 731.74 71.547 731.242 71.189 730.539 70.967 730.098 71.029 729.687 71.3 729.539 71.854 729.596 72.272 729.916 72.973 730.441 73.538 730.937 73.895 731.639 74.117 732.079 74.057 732.491 73.787"/><line x1="733.825" x2="734.216" y1="72.004" y2="74.933"/><polyline points="733.993 73.261 734.144 72.707 734.558 72.436 735.001 72.375 735.706 72.597"/><polyline points="743.387 74.213 743.097 73.719 742.361 73.284 741.887 73.135 741.204 73.122 740.812 73.604 740.709 74.578 740.843 75.626 741.185 76.537 741.71 77.103 742.443 77.536 742.679 77.61 743.36 77.625 743.78 77.357 743.938 76.804 743.911 76.595 743.596 75.892 743.071 75.324 742.336 74.89 742.1 74.816 741.418 74.802 740.999 75.072 740.843 75.626"/></g></svg>