<?xml version="1.0" encoding="utf-8" ?>
<svg xmlns="http://www.w3.org/2000/svg" xmlns:cc="http://creativecommons.org/ns" xmlns:dc="http://purl.org/dc/elements/1.1/" xmlns:ev="http://www.w3.org/2001/xml-events" xmlns:inkscape="http://www.inkscape.org/namespaces/inkscape" xmlns:rdf="http://www.w3.org/1999/02/22-rdf-syntax-ns" xmlns:sodipodi="http://sodipodi.sourceforge.net/DTD/sodipodi-0.dtd" xmlns:xlink="http://www.w3.org/1999/xlink" baseProfile="tiny" height="9.0cm" version="1.2" viewBox="0 0 1133.8582677165352 340.1574803149606" width="30.0cm">
  <metadata>
    <rdf:RDF>
      <cc:Work>
        <dc:format>image/svg+xml</dc:format>
        <dc:source>vpype -I figures/fig_transforms.vpy write figures/fig_transforms.svg
</dc:source>
        <dc:date>2022-03-31T13:50:38.978786</dc:date>
      </cc:Work>
    </rdf:RDF>
  </metadata>
  <defs/>
  <g fill="none" id="layer9" inkscape:groupmode="layer" inkscape:label="9" stroke="#0000ff" style="display:inline">
    <polygon points="181.6931,16.0145 179.5846,129.546 287.5753,202.3647 302.2481,87.9771"/>
    <line x1="183.5476" x2="183.46" y1="17.1414" y2="21.4877"/>
    <line x1="187.0344" x2="186.9673" y1="20.6961" y2="23.5917"/>
    <polyline points="187.02,21.3178 186.6588,20.6816 186.2928,20.2527 185.7371,19.9204 185.3623,19.9062 184.9834,20.0992 184.7854,20.6094 184.7766,21.0229 184.948,21.7533 185.3084,22.3875 185.6732,22.8153 186.2275,23.1479 186.602,23.1634 186.9816,22.9724"/>
    <line x1="188.1482" x2="189.1909" y1="21.362" y2="24.9256"/>
    <polyline points="190.3808,22.697 189.1909,24.9256 188.7994,25.528 188.4187,25.7174 188.0435,25.7009 187.8584,25.5897"/>
    <polyline points="191.2796,24.4979 193.5192,25.839 193.5311,25.4246 193.356,24.898 193.175,24.5788 192.8069,24.1476 192.2463,23.8125 191.8672,23.7966 191.4827,23.9881 191.2796,24.4979 191.2684,24.9119 191.438,25.6439 191.7992,26.2804 192.1661,26.7105 192.7253,27.0459 193.1042,27.0631 193.4894,26.8736"/>
    <line x1="194.866" x2="194.7792" y1="25.3788" y2="28.278"/>
    <polyline points="194.8287,26.6231 195.0347,26.1134 195.4222,25.9228 195.8038,25.9396 196.3671,26.2764"/>
    <polyline points="200.7213,28.2431 201.1068,28.261 201.6968,27.9754 201.5406,32.3342"/>
    <polygon points="159.7216,29.5297 159.7216,143.3082 267.8404,218.2194 280.4531,103.7943"/>
    <line x1="161.577" x2="161.5701" y1="30.6907" y2="35.0524"/>
    <line x1="165.0918" x2="165.0784" y1="34.3152" y2="37.2209"/>
    <polyline points="165.0889,34.9391 164.7199,34.2946 164.3499,33.8581 163.794,33.5156 163.423,33.4954 163.0517,33.683 162.8651,34.192 162.864,34.607 163.047,35.3429 163.4151,35.9854 163.7839,36.4208 164.3384,36.7635 164.7092,36.7851 165.0812,36.5995"/>
    <line x1="166.206" x2="167.3028" y1="35.0017" y2="38.5959"/>
    <polyline points="168.4394,36.3777 167.3028,38.5959 166.9265,39.1942 166.5533,39.3782 166.1817,39.3556 165.9966,39.2409"/>
    <polyline points="169.3616,38.2002 171.6022,39.5827 171.6065,39.1669 171.4237,38.6354 171.2387,38.312 170.8666,37.8732 170.3058,37.5277 169.9303,37.5056 169.5534,37.6917 169.3616,38.2002 169.3582,38.6156 169.5393,39.3532 169.9084,39.9981 170.2793,40.4357 170.8387,40.7814 171.2139,40.8049 171.5916,40.6209"/>
    <line x1="172.9266" x2="172.8935" y1="39.1425" y2="42.0516"/>
    <polyline points="172.9124,40.391 173.107,39.8827 173.487,39.6976 173.8649,39.7206 174.4285,40.0678"/>
    <polyline points="178.3921,42.0887 178.3955,41.88 178.5914,41.5789 178.784,41.4864 179.166,41.5103 179.9239,41.9765 180.2994,42.4188 180.4853,42.7444 180.6674,43.2788 180.6598,43.6962 180.4628,43.9965 180.073,44.3882 178.15,45.3007 180.7923,46.9339"/>
    <polygon points="137.0701,43.4631 139.3045,157.4545 247.5137,234.5497 257.927,120.1421"/>
    <line x1="138.9255" x2="139.0043" y1="44.6598" y2="49.0359"/>
    <line x1="142.4683" x2="142.512" y1="48.3569" y2="51.272"/>
    <polyline points="142.4777,48.9828 142.1006,48.3298 141.7266,47.8855 141.1708,47.5323 140.8039,47.5056 140.4408,47.6875 140.2665,48.195 140.2736,48.6113 140.4687,49.3528 140.8449,50.0037 141.2177,50.4469 141.7722,50.8003 142.1388,50.8284 142.5027,50.6486"/>
    <line x1="143.5824" x2="144.7363" y1="49.0648" y2="52.6899"/>
    <polyline points="145.8156,50.484 144.7363,52.6899 144.3762,53.2836 144.0112,53.4618 143.6437,53.4326 143.4586,53.3145"/>
    <polyline points="146.7623,52.3285 149.0029,53.7543 148.999,53.3372 148.808,52.8008 148.6189,52.473 148.2428,52.0264 147.6819,51.67 147.3106,51.6414 146.9418,51.8215 146.7623,52.3285 146.767,52.7452 146.9604,53.4883 147.3376,54.1417 147.7126,54.5872 148.272,54.9438 148.6431,54.9738 149.0127,54.7957"/>
    <line x1="150.3029" x2="150.3269" y1="53.3355" y2="56.2537"/>
    <polyline points="150.3132,54.588 150.4955,54.0813 150.8673,53.9022 151.2412,53.9318 151.8048,54.29"/>
    <polyline points="155.9463,55.4591 158.031,56.7818 156.8973,57.7349 157.4652,58.0959 157.8443,58.5457 158.0341,58.8752 158.2244,59.6222 158.2249,60.0395 158.0366,60.5444 157.6591,60.7199 157.0928,60.5668 156.5266,60.2059 155.9601,59.6371 155.7708,59.3088 155.5808,58.7721"/>
    <polygon points="38.9901,103.7943 51.6028,218.2194 159.7216,305.0809 159.7216,191.4123"/>
    <line x1="40.8353" x2="41.3156" y1="105.1518" y2="109.5715"/>
    <line x1="44.4905" x2="44.8016" y1="109.1687" y2="112.112"/>
    <polyline points="44.5573,109.8008 44.1441,109.1115 43.7532,108.6329 43.2008,108.2315 42.8554,108.1748 42.5329,108.3287 42.4171,108.8263 42.4623,109.2467 42.7136,110.0103 43.1256,110.6973 43.5152,111.1745 44.0662,111.576 44.4116,111.6342 44.7351,111.4826"/>
    <line x1="45.5978" x2="47.0127" y1="109.9735" y2="113.7233"/>
    <polyline points="47.818,111.587 47.0127,113.7233 46.731,114.2925 46.4061,114.4423 46.0598,114.3828 45.8758,114.2485"/>
    <polyline points="48.8743,113.5246 51.1024,115.1458 51.0602,114.7249 50.8319,114.1683 50.6247,113.8222 50.2314,113.341 49.6737,112.9357 49.3236,112.8765 48.9953,113.028 48.8743,113.5246 48.9172,113.9452 49.1668,114.7104 49.5801,115.4001 49.972,115.88 50.5284,116.2854 50.8784,116.3461 51.2077,116.1969"/>
    <line x1="52.2803" x2="52.5721" y1="114.83" y2="117.7748"/>
    <polyline points="52.4056,116.094 52.5294,115.598 52.861,115.4478 53.2137,115.5083 53.7743,115.9158"/>
    <line x1="60.0241" x2="58.5528" y1="119.0779" y2="122.1334"/>
    <line x1="57.3838" x2="60.0241" y1="117.1617" y2="119.0779"/>
    <polygon points="12.4136,120.1421 28.0335,234.5497 135.9946,324.1429 132.9226,210.8611"/>
    <line x1="14.2531" x2="14.8507" y1="121.5449" y2="125.9712"/>
    <line x1="17.9362" x2="18.3255" y1="125.6502" y2="128.5975"/>
    <polyline points="18.0198,126.2831 17.5966,125.5842 17.2013,125.0962 16.6507,124.6811 16.3121,124.6157 16.0019,124.7611 15.9035,125.2551 15.9599,125.6761 16.2272,126.4452 16.6492,127.1418 17.0432,127.6283 17.5924,128.0435 17.931,128.1104 18.2422,127.9673"/>
    <line x1="19.04" x2="20.5295" y1="126.4822" y2="130.2634"/>
    <polyline points="21.2532,128.1506 20.5295,130.2634 20.2712,130.8246 19.9587,130.9658 19.6191,130.8975 19.4357,130.7587"/>
    <polyline points="22.3401,130.1128 24.5615,131.7892 24.5081,131.3677 24.2691,130.8059 24.0569,130.455 23.6591,129.9642 23.1031,129.5451 22.7598,129.477 22.4438,129.6199 22.3401,130.1128 22.3943,130.5339 22.66,131.3045 23.0833,132.0039 23.4797,132.4932 24.0343,132.9124 24.3777,132.9821 24.6947,132.8415"/>
    <line x1="25.7018" x2="26.0719" y1="131.504" y2="134.4525"/>
    <polyline points="25.8607,132.7697 25.9672,132.2774 26.2864,132.136 26.6324,132.2055 27.1913,132.6269"/>
    <polygon points="31.6896,134.6712 31.1515,134.4587 31.015,134.7407 31.0661,135.1637 31.3048,135.7277 31.7054,136.2217 32.4816,136.999 33.0705,137.6351 33.4966,138.3405 33.7347,138.9039 33.8098,139.5355 33.672,139.8143 33.5093,139.8827 32.9718,139.6676 32.2224,139.1012 31.6355,138.4667 31.423,138.1151 31.185,137.5532 31.1086,136.9216 31.2448,136.6415 31.5687,136.5024 32.1061,136.7158 32.8321,137.0712 33.1829,137.1435 33.3207,136.8626 33.2704,136.4396 33.0317,135.8744 32.4418,135.2375"/>
    <line x1="179.4478" x2="179.4478" y1="270.793" y2="279.2826"/>
    <polyline points="179.4478,272.0058 180.2563,271.1972 181.0648,270.793 182.2776,270.793 183.0862,271.1972 183.8947,272.0058 184.299,273.2186 184.299,274.0271 183.8947,275.2399 183.0862,276.0485 182.2776,276.4527 181.0648,276.4527 180.2563,276.0485 179.4478,275.2399"/>
    <polyline points="187.5332,267.9631 187.5332,274.8357 187.9374,276.0485 188.746,276.4527 189.5545,276.4527"/>
    <line x1="186.3203" x2="189.1502" y1="270.793" y2="270.793"/>
    <line x1="191.9801" x2="191.9801" y1="270.793" y2="276.4527"/>
    <polyline points="191.9801,273.2186 192.3844,272.0058 193.1929,271.1972 194.0015,270.793 195.2143,270.793"/>
    <line x1="201.6826" x2="201.6826" y1="270.793" y2="276.4527"/>
    <polyline points="201.6826,272.0058 200.8741,271.1972 200.0655,270.793 198.8527,270.793 198.0442,271.1972 197.2356,272.0058 196.8314,273.2186 196.8314,274.0271 197.2356,275.2399 198.0442,276.0485 198.8527,276.4527 200.0655,276.4527 200.8741,276.0485 201.6826,275.2399"/>
    <line x1="204.9168" x2="204.9168" y1="270.793" y2="276.4527"/>
    <polyline points="204.9168,272.41 206.1296,271.1972 206.9381,270.793 208.1509,270.793 208.9595,271.1972 209.3638,272.41 209.3638,276.4527"/>
    <polyline points="216.6406,272.0058 216.2363,271.1972 215.0235,270.793 213.8107,270.793 212.5979,271.1972 212.1936,272.0058 212.5979,272.8143 213.4065,273.2186 215.4278,273.6228 216.2363,274.0271 216.6406,274.8357 216.6406,275.2399 216.2363,276.0485 215.0235,276.4527 213.8107,276.4527 212.5979,276.0485 212.1936,275.2399"/>
    <line x1="219.4705" x2="219.4705" y1="267.9631" y2="276.4527"/>
    <line x1="227.1516" x2="227.1516" y1="270.793" y2="276.4527"/>
    <polyline points="227.1516,272.0058 226.3431,271.1972 225.5346,270.793 224.3217,270.793 223.5132,271.1972 222.7047,272.0058 222.3004,273.2186 222.3004,274.0271 222.7047,275.2399 223.5132,276.0485 224.3217,276.4527 225.5346,276.4527 226.3431,276.0485 227.1516,275.2399"/>
    <polyline points="230.7901,267.9631 230.7901,274.8357 231.1943,276.0485 232.0029,276.4527 232.8114,276.4527"/>
    <line x1="229.5773" x2="232.4072" y1="270.793" y2="270.793"/>
    <polyline points="234.8328,273.2186 239.684,273.2186 239.684,272.41 239.2797,271.6015 238.8755,271.1972 238.0669,270.793 236.8541,270.793 236.0456,271.1972 235.237,272.0058 234.8328,273.2186 234.8328,274.0271 235.237,275.2399 236.0456,276.0485 236.8541,276.4527 238.0669,276.4527 238.8755,276.0485 239.684,275.2399"/>
    <line x1="248.9822" x2="256.2591" y1="272.8143" y2="272.8143"/>
    <line x1="259.4933" x2="259.4933" y1="267.9631" y2="276.4527"/>
    <polyline points="272.8342,267.9631 268.7915,273.6228 274.8555,273.6228"/>
    <line x1="272.8342" x2="272.8342" y1="267.9631" y2="276.4527"/>
    <polyline points="277.6854,274.8357 277.2812,275.2399 276.8769,274.8357 277.2812,274.4314 277.6854,274.8357 277.6854,275.6442 276.8769,276.4527"/>
    <polyline points="284.9623,267.9631 280.9196,267.9631 280.5153,271.6015 280.9196,271.1972 282.1324,270.793 283.3452,270.793 284.558,271.1972 285.3666,272.0058 285.7708,273.2186 285.7708,274.0271 285.3666,275.2399 284.558,276.0485 283.3452,276.4527 282.1324,276.4527 280.9196,276.0485 280.5153,275.6442 280.111,274.8357"/>
    <polyline points="289.005,274.8357 288.6007,275.2399 288.1964,274.8357 288.6007,274.4314 289.005,274.8357 289.005,275.6442 288.1964,276.4527"/>
    <polyline points="296.6861,269.1759 296.2819,268.3673 295.069,267.9631 294.2605,267.9631 293.0477,268.3673 292.2392,269.5801 291.8349,271.6015 291.8349,273.6228 292.2392,275.2399 293.0477,276.0485 294.2605,276.4527 294.6648,276.4527 295.8776,276.0485 296.6861,275.2399 297.0904,274.0271 297.0904,273.6228 296.6861,272.41 295.8776,271.6015 294.6648,271.1972 294.2605,271.1972 293.0477,271.6015 292.2392,272.41 291.8349,273.6228"/>
    <line x1="306.3886" x2="313.6655" y1="272.8143" y2="272.8143"/>
    <line x1="316.8996" x2="324.1765" y1="272.8143" y2="272.8143"/>
    <line x1="333.879" x2="341.1559" y1="272.8143" y2="272.8143"/>
    <polyline points="348.837,267.9631 344.7943,267.9631 344.39,271.6015 344.7943,271.1972 346.0071,270.793 347.2199,270.793 348.4327,271.1972 349.2413,272.0058 349.6455,273.2186 349.6455,274.0271 349.2413,275.2399 348.4327,276.0485 347.2199,276.4527 346.0071,276.4527 344.7943,276.0485 344.39,275.6442 343.9857,274.8357"/>
    <polyline points="356.9224,272.0058 356.1138,271.1972 355.3053,270.793 354.0925,270.793 353.284,271.1972 352.4754,272.0058 352.0711,273.2186 352.0711,274.0271 352.4754,275.2399 353.284,276.0485 354.0925,276.4527 355.3053,276.4527 356.1138,276.0485 356.9224,275.2399"/>
    <line x1="359.7523" x2="359.7523" y1="270.793" y2="276.4527"/>
    <polyline points="359.7523,272.41 360.9651,271.1972 361.7736,270.793 362.9864,270.793 363.795,271.1972 364.1993,272.41 364.1993,276.4527"/>
    <polyline points="364.1993,272.41 365.4121,271.1972 366.2206,270.793 367.4334,270.793 368.242,271.1972 368.6462,272.41 368.6462,276.4527"/>
    <polygon points="380.3701,267.9631 379.1573,268.3673 378.3487,269.5801 377.9444,271.6015 377.9444,272.8143 378.3487,274.8357 379.1573,276.0485 380.3701,276.4527 381.1786,276.4527 382.3914,276.0485 383.2,274.8357 383.6042,272.8143 383.6042,271.6015 383.2,269.5801 382.3914,268.3673 381.1786,267.9631"/>
    <polygon points="394.9238,267.9631 393.711,268.3673 392.9024,269.5801 392.4982,271.6015 392.4982,272.8143 392.9024,274.8357 393.711,276.0485 394.9238,276.4527 395.7323,276.4527 396.9451,276.0485 397.7537,274.8357 398.158,272.8143 398.158,271.6015 397.7537,269.5801 396.9451,268.3673 395.7323,267.9631"/>
    <polygon points="543.8739,16.0145 541.7655,129.546 649.7561,202.3647 664.4289,87.9771"/>
    <line x1="545.7285" x2="545.6409" y1="17.1414" y2="21.4877"/>
    <line x1="549.2153" x2="549.1481" y1="20.6961" y2="23.5917"/>
    <polyline points="549.2008,21.3178 548.8396,20.6816 548.4737,20.2527 547.9179,19.9204 547.5432,19.9062 547.1643,20.0992 546.9662,20.6094 546.9574,21.0229 547.1289,21.7533 547.4892,22.3875 547.8541,22.8153 548.4084,23.1479 548.7829,23.1634 549.1625,22.9724"/>
    <line x1="550.329" x2="551.3718" y1="21.362" y2="24.9256"/>
    <polyline points="552.5616,22.697 551.3718,24.9256 550.9803,25.528 550.5996,25.7174 550.2243,25.7009 550.0393,25.5897"/>
    <polyline points="553.4604,24.4979 555.7001,25.839 555.712,25.4246 555.5369,24.898 555.3558,24.5788 554.9878,24.1476 554.4272,23.8125 554.048,23.7966 553.6636,23.9881 553.4604,24.4979 553.4493,24.9119 553.6188,25.6439 553.9801,26.2804 554.347,26.7105 554.9062,27.0459 555.2851,27.0631 555.6703,26.8736"/>
    <line x1="557.0469" x2="556.9601" y1="25.3788" y2="28.278"/>
    <polyline points="557.0096,26.6231 557.2156,26.1134 557.6031,25.9228 557.9847,25.9396 558.5479,26.2764"/>
    <polyline points="562.9022,28.2431 563.2876,28.261 563.8777,27.9754 563.7214,32.3342"/>
    <polygon points="521.9025,29.5297 521.9025,143.3082 630.0213,218.2194 642.634,103.7943"/>
    <line x1="523.7579" x2="523.7509" y1="30.6907" y2="35.0524"/>
    <line x1="527.2726" x2="527.2593" y1="34.3152" y2="37.2209"/>
    <polyline points="527.2698,34.9391 526.9007,34.2946 526.5308,33.8581 525.9749,33.5156 525.6039,33.4954 525.2326,33.683 525.046,34.192 525.0449,34.607 525.2279,35.3429 525.596,35.9854 525.9648,36.4208 526.5193,36.7635 526.8901,36.7851 527.2621,36.5995"/>
    <line x1="528.3868" x2="529.4837" y1="35.0017" y2="38.5959"/>
    <polyline points="530.6202,36.3777 529.4837,38.5959 529.1073,39.1942 528.7342,39.3782 528.3626,39.3556 528.1775,39.2409"/>
    <polyline points="531.5425,38.2002 533.7831,39.5827 533.7874,39.1669 533.6045,38.6354 533.4195,38.312 533.0475,37.8732 532.4866,37.5277 532.1111,37.5056 531.7342,37.6917 531.5425,38.2002 531.539,38.6156 531.7202,39.3532 532.0892,39.9981 532.4601,40.4357 533.0195,40.7814 533.3948,40.8049 533.7725,40.6209"/>
    <line x1="535.1075" x2="535.0744" y1="39.1425" y2="42.0516"/>
    <polyline points="535.0933,40.391 535.2879,39.8827 535.6679,39.6976 536.0458,39.7206 536.6094,40.0678"/>
    <polyline points="540.573,42.0887 540.5764,41.88 540.7722,41.5789 540.9648,41.4864 541.3469,41.5103 542.1047,41.9765 542.4802,42.4188 542.6661,42.7444 542.8482,43.2788 542.8407,43.6962 542.6436,43.9965 542.2539,44.3882 540.3309,45.3007 542.9731,46.9339"/>
    <polygon points="499.251,43.4631 501.4853,157.4545 609.6946,234.5497 620.1078,120.1421"/>
    <line x1="501.1063" x2="501.1852" y1="44.6598" y2="49.0359"/>
    <line x1="504.6492" x2="504.6929" y1="48.3569" y2="51.272"/>
    <polyline points="504.6586,48.9828 504.2814,48.3298 503.9075,47.8855 503.3516,47.5323 502.9848,47.5056 502.6217,47.6875 502.4474,48.195 502.4544,48.6113 502.6496,49.3528 503.0258,50.0037 503.3986,50.4469 503.953,50.8003 504.3197,50.8284 504.6836,50.6486"/>
    <line x1="505.7632" x2="506.9171" y1="49.0648" y2="52.6899"/>
    <polyline points="507.9965,50.484 506.9171,52.6899 506.5571,53.2836 506.192,53.4618 505.8245,53.4326 505.6394,53.3145"/>
    <polyline points="508.9432,52.3285 511.1838,53.7543 511.1799,53.3372 510.9889,52.8008 510.7998,52.473 510.4236,52.0264 509.8628,51.67 509.4914,51.6414 509.1227,51.8215 508.9432,52.3285 508.9479,52.7452 509.1413,53.4883 509.5185,54.1417 509.8934,54.5872 510.4528,54.9438 510.824,54.9738 511.1936,54.7957"/>
    <line x1="512.4837" x2="512.5077" y1="53.3355" y2="56.2537"/>
    <polyline points="512.494,54.588 512.6764,54.0813 513.0482,53.9022 513.4221,53.9318 513.9857,54.29"/>
    <polyline points="518.1272,55.4591 520.2119,56.7818 519.0782,57.7349 519.646,58.0959 520.0252,58.5457 520.215,58.8752 520.4053,59.6222 520.4058,60.0395 520.2174,60.5444 519.84,60.7199 519.2737,60.5668 518.7074,60.2059 518.1409,59.6371 517.9517,59.3088 517.7617,58.7721"/>
    <polygon points="401.171,103.7943 413.7837,218.2194 521.9025,305.0809 521.9025,191.4123"/>
    <line x1="403.0161" x2="403.4965" y1="105.1518" y2="109.5715"/>
    <line x1="406.6713" x2="406.9825" y1="109.1687" y2="112.112"/>
    <polyline points="406.7382,109.8008 406.325,109.1115 405.9341,108.6329 405.3817,108.2315 405.0363,108.1748 404.7138,108.3287 404.598,108.8263 404.6432,109.2467 404.8945,110.0103 405.3065,110.6973 405.6961,111.1745 406.2471,111.576 406.5925,111.6342 406.916,111.4826"/>
    <line x1="407.7787" x2="409.1935" y1="109.9735" y2="113.7233"/>
    <polyline points="409.9989,111.587 409.1935,113.7233 408.9118,114.2925 408.587,114.4423 408.2407,114.3828 408.0567,114.2485"/>
    <polyline points="411.0551,113.5246 413.2833,115.1458 413.2411,114.7249 413.0128,114.1683 412.8056,113.8222 412.4123,113.341 411.8546,112.9357 411.5045,112.8765 411.1761,113.028 411.0551,113.5246 411.0981,113.9452 411.3477,114.7104 411.7609,115.4001 412.1529,115.88 412.7092,116.2854 413.0593,116.3461 413.3886,116.1969"/>
    <line x1="414.4612" x2="414.753" y1="114.83" y2="117.7748"/>
    <polyline points="414.5864,116.094 414.7103,115.598 415.0418,115.4478 415.3945,115.5083 415.9552,115.9158"/>
    <line x1="422.205" x2="420.7337" y1="119.0779" y2="122.1334"/>
    <line x1="419.5647" x2="422.205" y1="117.1617" y2="119.0779"/>
    <polygon points="374.5945,120.1421 390.2144,234.5497 498.1755,324.1429 495.1035,210.8611"/>
    <line x1="376.434" x2="377.0316" y1="121.5449" y2="125.9712"/>
    <line x1="380.117" x2="380.5063" y1="125.6502" y2="128.5975"/>
    <polyline points="380.2006,126.2831 379.7774,125.5842 379.3822,125.0962 378.8316,124.6811 378.4929,124.6157 378.1828,124.7611 378.0843,125.2551 378.1407,125.6761 378.4081,126.4452 378.8301,127.1418 379.224,127.6283 379.7733,128.0435 380.1119,128.1104 380.4231,127.9673"/>
    <line x1="381.2209" x2="382.7104" y1="126.4822" y2="130.2634"/>
    <polyline points="383.434,128.1506 382.7104,130.2634 382.4521,130.8246 382.1395,130.9658 381.7999,130.8975 381.6165,130.7587"/>
    <polyline points="384.521,130.1128 386.7423,131.7892 386.6889,131.3677 386.45,130.8059 386.2377,130.455 385.84,129.9642 385.284,129.5451 384.9406,129.477 384.6247,129.6199 384.521,130.1128 384.5751,130.5339 384.8409,131.3045 385.2642,132.0039 385.6606,132.4932 386.2152,132.9124 386.5585,132.9821 386.8756,132.8415"/>
    <line x1="387.8827" x2="388.2528" y1="131.504" y2="134.4525"/>
    <polyline points="388.0415,132.7697 388.1481,132.2774 388.4672,132.136 388.8132,132.2055 389.3722,132.6269"/>
    <polygon points="393.8704,134.6712 393.3324,134.4587 393.1959,134.7407 393.247,135.1637 393.4856,135.7277 393.8863,136.2217 394.6625,136.999 395.2513,137.6351 395.6775,138.3405 395.9156,138.9039 395.9906,139.5355 395.8529,139.8143 395.6902,139.8827 395.1527,139.6676 394.4033,139.1012 393.8164,138.4667 393.6039,138.1151 393.3659,137.5532 393.2894,136.9216 393.4257,136.6415 393.7496,136.5024 394.287,136.7158 395.013,137.0712 395.3638,137.1435 395.5016,136.8626 395.4513,136.4396 395.2126,135.8744 394.6226,135.2375"/>
    <line x1="541.6286" x2="541.6286" y1="270.793" y2="279.2826"/>
    <polyline points="541.6286,272.0058 542.4372,271.1972 543.2457,270.793 544.4585,270.793 545.2671,271.1972 546.0756,272.0058 546.4799,273.2186 546.4799,274.0271 546.0756,275.2399 545.2671,276.0485 544.4585,276.4527 543.2457,276.4527 542.4372,276.0485 541.6286,275.2399"/>
    <polyline points="549.714,267.9631 549.714,274.8357 550.1183,276.0485 550.9268,276.4527 551.7354,276.4527"/>
    <line x1="548.5012" x2="551.3311" y1="270.793" y2="270.793"/>
    <line x1="554.161" x2="554.161" y1="270.793" y2="276.4527"/>
    <polyline points="554.161,273.2186 554.5653,272.0058 555.3738,271.1972 556.1823,270.793 557.3952,270.793"/>
    <line x1="563.8635" x2="563.8635" y1="270.793" y2="276.4527"/>
    <polyline points="563.8635,272.0058 563.0549,271.1972 562.2464,270.793 561.0336,270.793 560.225,271.1972 559.4165,272.0058 559.0122,273.2186 559.0122,274.0271 559.4165,275.2399 560.225,276.0485 561.0336,276.4527 562.2464,276.4527 563.0549,276.0485 563.8635,275.2399"/>
    <line x1="567.0976" x2="567.0976" y1="270.793" y2="276.4527"/>
    <polyline points="567.0976,272.41 568.3105,271.1972 569.119,270.793 570.3318,270.793 571.1403,271.1972 571.5446,272.41 571.5446,276.4527"/>
    <polyline points="578.8215,272.0058 578.4172,271.1972 577.2044,270.793 575.9916,270.793 574.7788,271.1972 574.3745,272.0058 574.7788,272.8143 575.5873,273.2186 577.6087,273.6228 578.4172,274.0271 578.8215,274.8357 578.8215,275.2399 578.4172,276.0485 577.2044,276.4527 575.9916,276.4527 574.7788,276.0485 574.3745,275.2399"/>
    <line x1="581.6514" x2="581.6514" y1="267.9631" y2="276.4527"/>
    <line x1="589.3325" x2="589.3325" y1="270.793" y2="276.4527"/>
    <polyline points="589.3325,272.0058 588.524,271.1972 587.7154,270.793 586.5026,270.793 585.6941,271.1972 584.8855,272.0058 584.4813,273.2186 584.4813,274.0271 584.8855,275.2399 585.6941,276.0485 586.5026,276.4527 587.7154,276.4527 588.524,276.0485 589.3325,275.2399"/>
    <polyline points="592.9709,267.9631 592.9709,274.8357 593.3752,276.0485 594.1837,276.4527 594.9923,276.4527"/>
    <line x1="591.7581" x2="594.588" y1="270.793" y2="270.793"/>
    <polyline points="597.0136,273.2186 601.8649,273.2186 601.8649,272.41 601.4606,271.6015 601.0563,271.1972 600.2478,270.793 599.035,270.793 598.2265,271.1972 597.4179,272.0058 597.0136,273.2186 597.0136,274.0271 597.4179,275.2399 598.2265,276.0485 599.035,276.4527 600.2478,276.4527 601.0563,276.0485 601.8649,275.2399"/>
    <line x1="611.1631" x2="618.44" y1="272.8143" y2="272.8143"/>
    <line x1="621.6741" x2="621.6741" y1="267.9631" y2="276.4527"/>
    <polyline points="635.015,267.9631 630.9723,273.6228 637.0364,273.6228"/>
    <line x1="635.015" x2="635.015" y1="267.9631" y2="276.4527"/>
    <polyline points="639.8663,274.8357 639.462,275.2399 639.0577,274.8357 639.462,274.4314 639.8663,274.8357 639.8663,275.6442 639.0577,276.4527"/>
    <polyline points="647.1432,267.9631 643.1004,267.9631 642.6962,271.6015 643.1004,271.1972 644.3133,270.793 645.5261,270.793 646.7389,271.1972 647.5474,272.0058 647.9517,273.2186 647.9517,274.0271 647.5474,275.2399 646.7389,276.0485 645.5261,276.4527 644.3133,276.4527 643.1004,276.0485 642.6962,275.6442 642.2919,274.8357"/>
    <polyline points="651.1859,274.8357 650.7816,275.2399 650.3773,274.8357 650.7816,274.4314 651.1859,274.8357 651.1859,275.6442 650.3773,276.4527"/>
    <polyline points="658.867,269.1759 658.4627,268.3673 657.2499,267.9631 656.4414,267.9631 655.2286,268.3673 654.42,269.5801 654.0157,271.6015 654.0157,273.6228 654.42,275.2399 655.2286,276.0485 656.4414,276.4527 656.8456,276.4527 658.0584,276.0485 658.867,275.2399 659.2713,274.0271 659.2713,273.6228 658.867,272.41 658.0584,271.6015 656.8456,271.1972 656.4414,271.1972 655.2286,271.6015 654.42,272.41 654.0157,273.6228"/>
    <line x1="668.5695" x2="675.8463" y1="272.8143" y2="272.8143"/>
    <line x1="679.0805" x2="686.3574" y1="272.8143" y2="272.8143"/>
    <line x1="696.0599" x2="703.3367" y1="272.8143" y2="272.8143"/>
    <polyline points="711.0178,267.9631 706.9751,267.9631 706.5709,271.6015 706.9751,271.1972 708.188,270.793 709.4008,270.793 710.6136,271.1972 711.4221,272.0058 711.8264,273.2186 711.8264,274.0271 711.4221,275.2399 710.6136,276.0485 709.4008,276.4527 708.188,276.4527 706.9751,276.0485 706.5709,275.6442 706.1666,274.8357"/>
    <polyline points="719.1033,272.0058 718.2947,271.1972 717.4862,270.793 716.2734,270.793 715.4648,271.1972 714.6563,272.0058 714.252,273.2186 714.252,274.0271 714.6563,275.2399 715.4648,276.0485 716.2734,276.4527 717.4862,276.4527 718.2947,276.0485 719.1033,275.2399"/>
    <line x1="721.9331" x2="721.9331" y1="270.793" y2="276.4527"/>
    <polyline points="721.9331,272.41 723.146,271.1972 723.9545,270.793 725.1673,270.793 725.9758,271.1972 726.3801,272.41 726.3801,276.4527"/>
    <polyline points="726.3801,272.41 727.5929,271.1972 728.4015,270.793 729.6143,270.793 730.4228,271.1972 730.8271,272.41 730.8271,276.4527"/>
    <polygon points="742.5509,267.9631 741.3381,268.3673 740.5296,269.5801 740.1253,271.6015 740.1253,272.8143 740.5296,274.8357 741.3381,276.0485 742.5509,276.4527 743.3595,276.4527 744.5723,276.0485 745.3808,274.8357 745.7851,272.8143 745.7851,271.6015 745.3808,269.5801 744.5723,268.3673 743.3595,267.9631"/>
    <polygon points="757.1047,267.9631 755.8918,268.3673 755.0833,269.5801 754.679,271.6015 754.679,272.8143 755.0833,274.8357 755.8918,276.0485 757.1047,276.4527 757.9132,276.4527 759.126,276.0485 759.9345,274.8357 760.3388,272.8143 760.3388,271.6015 759.9345,269.5801 759.126,268.3673 757.9132,267.9631"/>
    <line x1="541.6286" x2="541.6286" y1="288.902" y2="297.3917"/>
    <polyline points="541.6286,290.1148 542.4372,289.3063 543.2457,288.902 544.4585,288.902 545.2671,289.3063 546.0756,290.1148 546.4799,291.3276 546.4799,292.1362 546.0756,293.349 545.2671,294.1575 544.4585,294.5618 543.2457,294.5618 542.4372,294.1575 541.6286,293.349"/>
    <line x1="549.3098" x2="549.3098" y1="288.902" y2="294.5618"/>
    <polyline points="549.3098,291.3276 549.714,290.1148 550.5226,289.3063 551.3311,288.902 552.5439,288.902"/>
    <polygon points="556.1823,288.902 555.3738,289.3063 554.5653,290.1148 554.161,291.3276 554.161,292.1362 554.5653,293.349 555.3738,294.1575 556.1823,294.5618 557.3952,294.5618 558.2037,294.1575 559.0122,293.349 559.4165,292.1362 559.4165,291.3276 559.0122,290.1148 558.2037,289.3063 557.3952,288.902"/>
    <polyline points="562.6507,286.0721 562.6507,292.9447 563.0549,294.1575 563.8635,294.5618 564.672,294.5618"/>
    <line x1="561.4379" x2="564.2678" y1="288.902" y2="288.902"/>
    <line x1="571.5446" x2="571.5446" y1="288.902" y2="294.5618"/>
    <polyline points="571.5446,290.1148 570.7361,289.3063 569.9275,288.902 568.7147,288.902 567.9062,289.3063 567.0976,290.1148 566.6934,291.3276 566.6934,292.1362 567.0976,293.349 567.9062,294.1575 568.7147,294.5618 569.9275,294.5618 570.7361,294.1575 571.5446,293.349"/>
    <polyline points="575.183,286.0721 575.183,292.9447 575.5873,294.1575 576.3959,294.5618 577.2044,294.5618"/>
    <line x1="573.9702" x2="576.8001" y1="288.902" y2="288.902"/>
    <polyline points="579.2258,291.3276 584.077,291.3276 584.077,290.5191 583.6727,289.7105 583.2685,289.3063 582.4599,288.902 581.2471,288.902 580.4386,289.3063 579.63,290.1148 579.2258,291.3276 579.2258,292.1362 579.63,293.349 580.4386,294.1575 581.2471,294.5618 582.4599,294.5618 583.2685,294.1575 584.077,293.349"/>
    <line x1="593.3752" x2="600.6521" y1="290.9233" y2="290.9233"/>
    <line x1="603.8862" x2="603.8862" y1="286.0721" y2="294.5618"/>
    <polyline points="617.2272,286.0721 613.1845,291.7319 619.2485,291.7319"/>
    <line x1="617.2272" x2="617.2272" y1="286.0721" y2="294.5618"/>
    <polyline points="622.0784,292.9447 621.6741,293.349 621.2699,292.9447 621.6741,292.5404 622.0784,292.9447 622.0784,293.7532 621.2699,294.5618"/>
    <polyline points="629.3553,286.0721 625.3126,286.0721 624.9083,289.7105 625.3126,289.3063 626.5254,288.902 627.7382,288.902 628.951,289.3063 629.7595,290.1148 630.1638,291.3276 630.1638,292.1362 629.7595,293.349 628.951,294.1575 627.7382,294.5618 626.5254,294.5618 625.3126,294.1575 624.9083,293.7532 624.504,292.9447"/>
    <polyline points="633.398,292.9447 632.9937,293.349 632.5894,292.9447 632.9937,292.5404 633.398,292.9447 633.398,293.7532 632.5894,294.5618"/>
    <polyline points="641.0791,287.2849 640.6748,286.4764 639.462,286.0721 638.6535,286.0721 637.4407,286.4764 636.6321,287.6892 636.2279,289.7105 636.2279,291.7319 636.6321,293.349 637.4407,294.1575 638.6535,294.5618 639.0577,294.5618 640.2706,294.1575 641.0791,293.349 641.4834,292.1362 641.4834,291.7319 641.0791,290.5191 640.2706,289.7105 639.0577,289.3063 638.6535,289.3063 637.4407,289.7105 636.6321,290.5191 636.2279,291.7319"/>
    <line x1="649.973" x2="652.3987" y1="288.902" y2="294.5618"/>
    <polyline points="654.8243,288.902 652.3987,294.5618 651.5901,296.1789 650.7816,296.9874 649.973,297.3917 649.5688,297.3917"/>
    <polyline points="663.7182,288.0935 663.7182,287.6892 664.1225,286.8806 664.5268,286.4764 665.3353,286.0721 666.9524,286.0721 667.7609,286.4764 668.1652,286.8806 668.5695,287.6892 668.5695,288.4977 668.1652,289.3063 667.3567,290.5191 663.314,294.5618 668.9737,294.5618"/>
    <polygon points="673.825,286.0721 672.6122,286.4764 671.8036,287.6892 671.3994,289.7105 671.3994,290.9233 671.8036,292.9447 672.6122,294.1575 673.825,294.5618 674.6335,294.5618 675.8463,294.1575 676.6549,292.9447 677.0591,290.9233 677.0591,289.7105 676.6549,287.6892 675.8463,286.4764 674.6335,286.0721"/>
    <polygon points="906.0548,16.0145 903.9464,129.546 1011.937,202.3647 1026.6098,87.9771"/>
    <line x1="907.9093" x2="907.8217" y1="17.1414" y2="21.4877"/>
    <line x1="911.3961" x2="911.329" y1="20.6961" y2="23.5917"/>
    <polyline points="911.3817,21.3178 911.0205,20.6816 910.6545,20.2527 910.0988,19.9204 909.724,19.9062 909.3452,20.0992 909.1471,20.6094 909.1383,21.0229 909.3097,21.7533 909.6701,22.3875 910.0349,22.8153 910.5893,23.1479 910.9638,23.1634 911.3434,22.9724"/>
    <line x1="912.5099" x2="913.5527" y1="21.362" y2="24.9256"/>
    <polyline points="914.7425,22.697 913.5527,24.9256 913.1612,25.528 912.7805,25.7174 912.4052,25.7009 912.2201,25.5897"/>
    <polyline points="915.6413,24.4979 917.8809,25.839 917.8929,25.4246 917.7178,24.898 917.5367,24.5788 917.1687,24.1476 916.6081,23.8125 916.2289,23.7966 915.8445,23.9881 915.6413,24.4979 915.6302,24.9119 915.7997,25.6439 916.161,26.2804 916.5279,26.7105 917.087,27.0459 917.4659,27.0631 917.8511,26.8736"/>
    <line x1="919.2277" x2="919.1409" y1="25.3788" y2="28.278"/>
    <polyline points="919.1905,26.6231 919.3965,26.1134 919.784,25.9228 920.1656,25.9396 920.7288,26.2764"/>
    <polyline points="925.083,28.2431 925.4685,28.261 926.0585,27.9754 925.9023,32.3342"/>
    <polygon points="884.0834,29.5297 884.0834,143.3082 992.2022,218.2194 1004.8149,103.7943"/>
    <line x1="885.9387" x2="885.9318" y1="30.6907" y2="35.0524"/>
    <line x1="889.4535" x2="889.4401" y1="34.3152" y2="37.2209"/>
    <polyline points="889.4506,34.9391 889.0816,34.2946 888.7117,33.8581 888.1558,33.5156 887.7848,33.4954 887.4135,33.683 887.2269,34.192 887.2257,34.607 887.4087,35.3429 887.7768,35.9854 888.1456,36.4208 888.7001,36.7635 889.0709,36.7851 889.443,36.5995"/>
    <line x1="890.5677" x2="891.6646" y1="35.0017" y2="38.5959"/>
    <polyline points="892.8011,36.3777 891.6646,38.5959 891.2882,39.1942 890.915,39.3782 890.5434,39.3556 890.3583,39.2409"/>
    <polyline points="893.7233,38.2002 895.964,39.5827 895.9682,39.1669 895.7854,38.6354 895.6004,38.312 895.2283,37.8732 894.6675,37.5277 894.292,37.5056 893.9151,37.6917 893.7233,38.2002 893.7199,38.6156 893.901,39.3532 894.2701,39.9981 894.641,40.4357 895.2004,40.7814 895.5757,40.8049 895.9533,40.6209"/>
    <line x1="897.2884" x2="897.2553" y1="39.1425" y2="42.0516"/>
    <polyline points="897.2742,40.391 897.4687,39.8827 897.8487,39.6976 898.2267,39.7206 898.7902,40.0678"/>
    <polyline points="902.7539,42.0887 902.7572,41.88 902.9531,41.5789 903.1457,41.4864 903.5278,41.5103 904.2856,41.9765 904.6611,42.4188 904.847,42.7444 905.0291,43.2788 905.0215,43.6962 904.8245,43.9965 904.4347,44.3882 902.5117,45.3007 905.154,46.9339"/>
    <polygon points="861.4318,43.4631 863.6662,157.4545 971.8754,234.5497 982.2887,120.1421"/>
    <line x1="863.2872" x2="863.366" y1="44.6598" y2="49.0359"/>
    <line x1="866.8301" x2="866.8738" y1="48.3569" y2="51.272"/>
    <polyline points="866.8394,48.9828 866.4623,48.3298 866.0883,47.8855 865.5325,47.5323 865.1656,47.5056 864.8026,47.6875 864.6283,48.195 864.6353,48.6113 864.8305,49.3528 865.2067,50.0037 865.5795,50.4469 866.1339,50.8003 866.5006,50.8284 866.8644,50.6486"/>
    <line x1="867.9441" x2="869.098" y1="49.0648" y2="52.6899"/>
    <polyline points="870.1774,50.484 869.098,52.6899 868.7379,53.2836 868.3729,53.4618 868.0054,53.4326 867.8203,53.3145"/>
    <polyline points="871.1241,52.3285 873.3647,53.7543 873.3608,53.3372 873.1697,52.8008 872.9807,52.473 872.6045,52.0264 872.0437,51.67 871.6723,51.6414 871.3035,51.8215 871.1241,52.3285 871.1288,52.7452 871.3221,53.4883 871.6993,54.1417 872.0743,54.5872 872.6337,54.9438 873.0049,54.9738 873.3744,54.7957"/>
    <line x1="874.6646" x2="874.6886" y1="53.3355" y2="56.2537"/>
    <polyline points="874.6749,54.588 874.8572,54.0813 875.2291,53.9022 875.6029,53.9318 876.1665,54.29"/>
    <polyline points="880.308,55.4591 882.3927,56.7818 881.259,57.7349 881.8269,58.0959 882.2061,58.5457 882.3958,58.8752 882.5861,59.6222 882.5867,60.0395 882.3983,60.5444 882.0208,60.7199 881.4545,60.5668 880.8883,60.2059 880.3218,59.6371 880.1326,59.3088 879.9425,58.7721"/>
    <polygon points="763.3519,103.7943 775.9646,218.2194 884.0834,305.0809 884.0834,191.4123"/>
    <line x1="765.197" x2="765.6773" y1="105.1518" y2="109.5715"/>
    <line x1="768.8522" x2="769.1634" y1="109.1687" y2="112.112"/>
    <polyline points="768.919,109.8008 768.5058,109.1115 768.115,108.6329 767.5626,108.2315 767.2171,108.1748 766.8947,108.3287 766.7788,108.8263 766.8241,109.2467 767.0753,110.0103 767.4874,110.6973 767.8769,111.1745 768.428,111.576 768.7733,111.6342 769.0968,111.4826"/>
    <line x1="769.9595" x2="771.3744" y1="109.9735" y2="113.7233"/>
    <polyline points="772.1797,111.587 771.3744,113.7233 771.0927,114.2925 770.7679,114.4423 770.4216,114.3828 770.2376,114.2485"/>
    <polyline points="773.236,113.5246 775.4641,115.1458 775.422,114.7249 775.1936,114.1683 774.9864,113.8222 774.5932,113.341 774.0354,112.9357 773.6853,112.8765 773.357,113.028 773.236,113.5246 773.2789,113.9452 773.5285,114.7104 773.9418,115.4001 774.3338,115.88 774.8901,116.2854 775.2401,116.3461 775.5695,116.1969"/>
    <line x1="776.642" x2="776.9338" y1="114.83" y2="117.7748"/>
    <polyline points="776.7673,116.094 776.8912,115.598 777.2227,115.4478 777.5754,115.5083 778.136,115.9158"/>
    <line x1="784.3859" x2="782.9146" y1="119.0779" y2="122.1334"/>
    <line x1="781.7456" x2="784.3859" y1="117.1617" y2="119.0779"/>
    <polygon points="736.7753,120.1421 752.3952,234.5497 860.3563,324.1429 857.2843,210.8611"/>
    <line x1="738.6149" x2="739.2124" y1="121.5449" y2="125.9712"/>
    <line x1="742.2979" x2="742.6872" y1="125.6502" y2="128.5975"/>
    <polyline points="742.3815,126.2831 741.9583,125.5842 741.563,125.0962 741.0124,124.6811 740.6738,124.6157 740.3637,124.7611 740.2652,125.2551 740.3216,125.6761 740.589,126.4452 741.0109,127.1418 741.4049,127.6283 741.9541,128.0435 742.2928,128.1104 742.604,127.9673"/>
    <line x1="743.4017" x2="744.8913" y1="126.4822" y2="130.2634"/>
    <polyline points="745.6149,128.1506 744.8913,130.2634 744.6329,130.8246 744.3204,130.9658 743.9808,130.8975 743.7974,130.7587"/>
    <polyline points="746.7019,130.1128 748.9232,131.7892 748.8698,131.3677 748.6309,130.8059 748.4186,130.455 748.0209,129.9642 747.4649,129.5451 747.1215,129.477 746.8055,129.6199 746.7019,130.1128 746.756,130.5339 747.0218,131.3045 747.4451,132.0039 747.8414,132.4932 748.3961,132.9124 748.7394,132.9821 749.0565,132.8415"/>
    <line x1="750.0635" x2="750.4337" y1="131.504" y2="134.4525"/>
    <polyline points="750.2224,132.7697 750.3289,132.2774 750.6481,132.136 750.9941,132.2055 751.5531,132.6269"/>
    <polygon points="756.0513,134.6712 755.5133,134.4587 755.3767,134.7407 755.4279,135.1637 755.6665,135.7277 756.0672,136.2217 756.8434,136.999 757.4322,137.6351 757.8583,138.3405 758.0964,138.9039 758.1715,139.5355 758.0337,139.8143 757.8711,139.8827 757.3335,139.6676 756.5841,139.1012 755.9973,138.4667 755.7848,138.1151 755.5468,137.5532 755.4703,136.9216 755.6066,136.6415 755.9305,136.5024 756.4679,136.7158 757.1938,137.0712 757.5447,137.1435 757.6825,136.8626 757.6321,136.4396 757.3935,135.8744 756.8035,135.2375"/>
    <line x1="903.8095" x2="903.8095" y1="270.793" y2="279.2826"/>
    <polyline points="903.8095,272.0058 904.618,271.1972 905.4266,270.793 906.6394,270.793 907.4479,271.1972 908.2565,272.0058 908.6607,273.2186 908.6607,274.0271 908.2565,275.2399 907.4479,276.0485 906.6394,276.4527 905.4266,276.4527 904.618,276.0485 903.8095,275.2399"/>
    <polyline points="911.8949,267.9631 911.8949,274.8357 912.2992,276.0485 913.1077,276.4527 913.9162,276.4527"/>
    <line x1="910.6821" x2="913.512" y1="270.793" y2="270.793"/>
    <line x1="916.3419" x2="916.3419" y1="270.793" y2="276.4527"/>
    <polyline points="916.3419,273.2186 916.7461,272.0058 917.5547,271.1972 918.3632,270.793 919.576,270.793"/>
    <line x1="926.0443" x2="926.0443" y1="270.793" y2="276.4527"/>
    <polyline points="926.0443,272.0058 925.2358,271.1972 924.4273,270.793 923.2145,270.793 922.4059,271.1972 921.5974,272.0058 921.1931,273.2186 921.1931,274.0271 921.5974,275.2399 922.4059,276.0485 923.2145,276.4527 924.4273,276.4527 925.2358,276.0485 926.0443,275.2399"/>
    <line x1="929.2785" x2="929.2785" y1="270.793" y2="276.4527"/>
    <polyline points="929.2785,272.41 930.4913,271.1972 931.2999,270.793 932.5127,270.793 933.3212,271.1972 933.7255,272.41 933.7255,276.4527"/>
    <polyline points="941.0023,272.0058 940.5981,271.1972 939.3853,270.793 938.1725,270.793 936.9596,271.1972 936.5554,272.0058 936.9596,272.8143 937.7682,273.2186 939.7895,273.6228 940.5981,274.0271 941.0023,274.8357 941.0023,275.2399 940.5981,276.0485 939.3853,276.4527 938.1725,276.4527 936.9596,276.0485 936.5554,275.2399"/>
    <line x1="943.8322" x2="943.8322" y1="267.9631" y2="276.4527"/>
    <line x1="951.5134" x2="951.5134" y1="270.793" y2="276.4527"/>
    <polyline points="951.5134,272.0058 950.7048,271.1972 949.8963,270.793 948.6835,270.793 947.8749,271.1972 947.0664,272.0058 946.6621,273.2186 946.6621,274.0271 947.0664,275.2399 947.8749,276.0485 948.6835,276.4527 949.8963,276.4527 950.7048,276.0485 951.5134,275.2399"/>
    <polyline points="955.1518,267.9631 955.1518,274.8357 955.5561,276.0485 956.3646,276.4527 957.1732,276.4527"/>
    <line x1="953.939" x2="956.7689" y1="270.793" y2="270.793"/>
    <polyline points="959.1945,273.2186 964.0457,273.2186 964.0457,272.41 963.6415,271.6015 963.2372,271.1972 962.4287,270.793 961.2159,270.793 960.4073,271.1972 959.5988,272.0058 959.1945,273.2186 959.1945,274.0271 959.5988,275.2399 960.4073,276.0485 961.2159,276.4527 962.4287,276.4527 963.2372,276.0485 964.0457,275.2399"/>
    <line x1="973.344" x2="980.6208" y1="272.8143" y2="272.8143"/>
    <line x1="983.855" x2="983.855" y1="267.9631" y2="276.4527"/>
    <polyline points="997.1959,267.9631 993.1532,273.6228 999.2173,273.6228"/>
    <line x1="997.1959" x2="997.1959" y1="267.9631" y2="276.4527"/>
    <polyline points="1002.0472,274.8357 1001.6429,275.2399 1001.2386,274.8357 1001.6429,274.4314 1002.0472,274.8357 1002.0472,275.6442 1001.2386,276.4527"/>
    <polyline points="1009.324,267.9631 1005.2813,267.9631 1004.877,271.6015 1005.2813,271.1972 1006.4941,270.793 1007.7069,270.793 1008.9197,271.1972 1009.7283,272.0058 1010.1326,273.2186 1010.1326,274.0271 1009.7283,275.2399 1008.9197,276.0485 1007.7069,276.4527 1006.4941,276.4527 1005.2813,276.0485 1004.877,275.6442 1004.4728,274.8357"/>
    <polyline points="1013.3667,274.8357 1012.9624,275.2399 1012.5582,274.8357 1012.9624,274.4314 1013.3667,274.8357 1013.3667,275.6442 1012.5582,276.4527"/>
    <polyline points="1021.0479,269.1759 1020.6436,268.3673 1019.4308,267.9631 1018.6222,267.9631 1017.4094,268.3673 1016.6009,269.5801 1016.1966,271.6015 1016.1966,273.6228 1016.6009,275.2399 1017.4094,276.0485 1018.6222,276.4527 1019.0265,276.4527 1020.2393,276.0485 1021.0479,275.2399 1021.4521,274.0271 1021.4521,273.6228 1021.0479,272.41 1020.2393,271.6015 1019.0265,271.1972 1018.6222,271.1972 1017.4094,271.6015 1016.6009,272.41 1016.1966,273.6228"/>
    <line x1="1030.7503" x2="1038.0272" y1="272.8143" y2="272.8143"/>
    <line x1="1041.2614" x2="1048.5382" y1="272.8143" y2="272.8143"/>
    <line x1="1058.2407" x2="1065.5176" y1="272.8143" y2="272.8143"/>
    <polyline points="1073.1987,267.9631 1069.156,267.9631 1068.7517,271.6015 1069.156,271.1972 1070.3688,270.793 1071.5816,270.793 1072.7944,271.1972 1073.603,272.0058 1074.0073,273.2186 1074.0073,274.0271 1073.603,275.2399 1072.7944,276.0485 1071.5816,276.4527 1070.3688,276.4527 1069.156,276.0485 1068.7517,275.6442 1068.3475,274.8357"/>
    <polyline points="1081.2841,272.0058 1080.4756,271.1972 1079.667,270.793 1078.4542,270.793 1077.6457,271.1972 1076.8371,272.0058 1076.4329,273.2186 1076.4329,274.0271 1076.8371,275.2399 1077.6457,276.0485 1078.4542,276.4527 1079.667,276.4527 1080.4756,276.0485 1081.2841,275.2399"/>
    <line x1="1084.114" x2="1084.114" y1="270.793" y2="276.4527"/>
    <polyline points="1084.114,272.41 1085.3268,271.1972 1086.1354,270.793 1087.3482,270.793 1088.1567,271.1972 1088.561,272.41 1088.561,276.4527"/>
    <polyline points="1088.561,272.41 1089.7738,271.1972 1090.5823,270.793 1091.7951,270.793 1092.6037,271.1972 1093.008,272.41 1093.008,276.4527"/>
    <polygon points="1104.7318,267.9631 1103.519,268.3673 1102.7104,269.5801 1102.3062,271.6015 1102.3062,272.8143 1102.7104,274.8357 1103.519,276.0485 1104.7318,276.4527 1105.5403,276.4527 1106.7531,276.0485 1107.5617,274.8357 1107.966,272.8143 1107.966,271.6015 1107.5617,269.5801 1106.7531,268.3673 1105.5403,267.9631"/>
    <polygon points="1119.2855,267.9631 1118.0727,268.3673 1117.2642,269.5801 1116.8599,271.6015 1116.8599,272.8143 1117.2642,274.8357 1118.0727,276.0485 1119.2855,276.4527 1120.0941,276.4527 1121.3069,276.0485 1122.1154,274.8357 1122.5197,272.8143 1122.5197,271.6015 1122.1154,269.5801 1121.3069,268.3673 1120.0941,267.9631"/>
    <line x1="903.8095" x2="903.8095" y1="288.902" y2="297.3917"/>
    <polyline points="903.8095,290.1148 904.618,289.3063 905.4266,288.902 906.6394,288.902 907.4479,289.3063 908.2565,290.1148 908.6607,291.3276 908.6607,292.1362 908.2565,293.349 907.4479,294.1575 906.6394,294.5618 905.4266,294.5618 904.618,294.1575 903.8095,293.349"/>
    <line x1="911.4906" x2="911.4906" y1="288.902" y2="294.5618"/>
    <polyline points="911.4906,291.3276 911.8949,290.1148 912.7034,289.3063 913.512,288.902 914.7248,288.902"/>
    <polygon points="918.3632,288.902 917.5547,289.3063 916.7461,290.1148 916.3419,291.3276 916.3419,292.1362 916.7461,293.349 917.5547,294.1575 918.3632,294.5618 919.576,294.5618 920.3846,294.1575 921.1931,293.349 921.5974,292.1362 921.5974,291.3276 921.1931,290.1148 920.3846,289.3063 919.576,288.902"/>
    <polyline points="924.8315,286.0721 924.8315,292.9447 925.2358,294.1575 926.0443,294.5618 926.8529,294.5618"/>
    <line x1="923.6187" x2="926.4486" y1="288.902" y2="288.902"/>
    <line x1="933.7255" x2="933.7255" y1="288.902" y2="294.5618"/>
    <polyline points="933.7255,290.1148 932.9169,289.3063 932.1084,288.902 930.8956,288.902 930.087,289.3063 929.2785,290.1148 928.8742,291.3276 928.8742,292.1362 929.2785,293.349 930.087,294.1575 930.8956,294.5618 932.1084,294.5618 932.9169,294.1575 933.7255,293.349"/>
    <polyline points="937.3639,286.0721 937.3639,292.9447 937.7682,294.1575 938.5767,294.5618 939.3853,294.5618"/>
    <line x1="936.1511" x2="938.981" y1="288.902" y2="288.902"/>
    <polyline points="941.4066,291.3276 946.2579,291.3276 946.2579,290.5191 945.8536,289.7105 945.4493,289.3063 944.6408,288.902 943.428,288.902 942.6194,289.3063 941.8109,290.1148 941.4066,291.3276 941.4066,292.1362 941.8109,293.349 942.6194,294.1575 943.428,294.5618 944.6408,294.5618 945.4493,294.1575 946.2579,293.349"/>
    <line x1="955.5561" x2="962.8329" y1="290.9233" y2="290.9233"/>
    <line x1="966.0671" x2="966.0671" y1="286.0721" y2="294.5618"/>
    <polyline points="979.408,286.0721 975.3653,291.7319 981.4294,291.7319"/>
    <line x1="979.408" x2="979.408" y1="286.0721" y2="294.5618"/>
    <polyline points="984.2593,292.9447 983.855,293.349 983.4507,292.9447 983.855,292.5404 984.2593,292.9447 984.2593,293.7532 983.4507,294.5618"/>
    <polyline points="991.5361,286.0721 987.4934,286.0721 987.0892,289.7105 987.4934,289.3063 988.7062,288.902 989.919,288.902 991.1319,289.3063 991.9404,290.1148 992.3447,291.3276 992.3447,292.1362 991.9404,293.349 991.1319,294.1575 989.919,294.5618 988.7062,294.5618 987.4934,294.1575 987.0892,293.7532 986.6849,292.9447"/>
    <polyline points="995.5788,292.9447 995.1746,293.349 994.7703,292.9447 995.1746,292.5404 995.5788,292.9447 995.5788,293.7532 994.7703,294.5618"/>
    <polyline points="1003.26,287.2849 1002.8557,286.4764 1001.6429,286.0721 1000.8343,286.0721 999.6215,286.4764 998.813,287.6892 998.4087,289.7105 998.4087,291.7319 998.813,293.349 999.6215,294.1575 1000.8343,294.5618 1001.2386,294.5618 1002.4514,294.1575 1003.26,293.349 1003.6642,292.1362 1003.6642,291.7319 1003.26,290.5191 1002.4514,289.7105 1001.2386,289.3063 1000.8343,289.3063 999.6215,289.7105 998.813,290.5191 998.4087,291.7319"/>
    <line x1="1012.1539" x2="1014.5795" y1="288.902" y2="294.5618"/>
    <polyline points="1017.0052,288.902 1014.5795,294.5618 1013.771,296.1789 1012.9624,296.9874 1012.1539,297.3917 1011.7496,297.3917"/>
    <polyline points="1025.8991,288.0935 1025.8991,287.6892 1026.3034,286.8806 1026.7076,286.4764 1027.5162,286.0721 1029.1333,286.0721 1029.9418,286.4764 1030.3461,286.8806 1030.7503,287.6892 1030.7503,288.4977 1030.3461,289.3063 1029.5375,290.5191 1025.4948,294.5618 1031.1546,294.5618"/>
    <polygon points="1036.0059,286.0721 1034.793,286.4764 1033.9845,287.6892 1033.5802,289.7105 1033.5802,290.9233 1033.9845,292.9447 1034.793,294.1575 1036.0059,294.5618 1036.8144,294.5618 1038.0272,294.1575 1038.8357,292.9447 1039.24,290.9233 1039.24,289.7105 1038.8357,287.6892 1038.0272,286.4764 1036.8144,286.0721"/>
    <line x1="903.8095" x2="903.8095" y1="307.011" y2="315.5007"/>
    <polyline points="903.8095,308.2238 904.618,307.4153 905.4266,307.011 906.6394,307.011 907.4479,307.4153 908.2565,308.2238 908.6607,309.4367 908.6607,310.2452 908.2565,311.458 907.4479,312.2666 906.6394,312.6708 905.4266,312.6708 904.618,312.2666 903.8095,311.458"/>
    <polyline points="915.5333,308.2238 915.1291,307.4153 913.9162,307.011 912.7034,307.011 911.4906,307.4153 911.0863,308.2238 911.4906,309.0324 912.2992,309.4367 914.3205,309.8409 915.1291,310.2452 915.5333,311.0537 915.5333,311.458 915.1291,312.2666 913.9162,312.6708 912.7034,312.6708 911.4906,312.2666 911.0863,311.458"/>
    <polyline points="922.8102,308.2238 922.0016,307.4153 921.1931,307.011 919.9803,307.011 919.1718,307.4153 918.3632,308.2238 917.9589,309.4367 917.9589,310.2452 918.3632,311.458 919.1718,312.2666 919.9803,312.6708 921.1931,312.6708 922.0016,312.2666 922.8102,311.458"/>
    <line x1="930.087" x2="930.087" y1="307.011" y2="312.6708"/>
    <polyline points="930.087,308.2238 929.2785,307.4153 928.47,307.011 927.2572,307.011 926.4486,307.4153 925.6401,308.2238 925.2358,309.4367 925.2358,310.2452 925.6401,311.458 926.4486,312.2666 927.2572,312.6708 928.47,312.6708 929.2785,312.2666 930.087,311.458"/>
    <line x1="933.3212" x2="933.3212" y1="304.1811" y2="312.6708"/>
    <polyline points="936.1511,309.4367 941.0023,309.4367 941.0023,308.6281 940.5981,307.8196 940.1938,307.4153 939.3853,307.011 938.1725,307.011 937.3639,307.4153 936.5554,308.2238 936.1511,309.4367 936.1511,310.2452 936.5554,311.458 937.3639,312.2666 938.1725,312.6708 939.3853,312.6708 940.1938,312.2666 941.0023,311.458"/>
    <line x1="950.3006" x2="957.5774" y1="309.0324" y2="309.0324"/>
    <line x1="960.8116" x2="960.8116" y1="304.1811" y2="312.6708"/>
    <polyline points="974.961,304.1811 970.9183,304.1811 970.5141,307.8196 970.9183,307.4153 972.1312,307.011 973.344,307.011 974.5568,307.4153 975.3653,308.2238 975.7696,309.4367 975.7696,310.2452 975.3653,311.458 974.5568,312.2666 973.344,312.6708 972.1312,312.6708 970.9183,312.2666 970.5141,311.8623 970.1098,311.0537"/>
    <polygon points="987.0892,304.1811 985.8763,304.5854 985.0678,305.7982 984.6635,307.8196 984.6635,309.0324 985.0678,311.0537 985.8763,312.2666 987.0892,312.6708 987.8977,312.6708 989.1105,312.2666 989.919,311.0537 990.3233,309.0324 990.3233,307.8196 989.919,305.7982 989.1105,304.5854 987.8977,304.1811"/>
    <polygon points="993.1532,310.6495 992.7489,311.0537 993.1532,311.458 993.5575,311.0537"/>
    <polyline points="1000.8343,304.1811 996.7916,304.1811 996.3874,307.8196 996.7916,307.4153 998.0045,307.011 999.2173,307.011 1000.4301,307.4153 1001.2386,308.2238 1001.6429,309.4367 1001.6429,310.2452 1001.2386,311.458 1000.4301,312.2666 999.2173,312.6708 998.0045,312.6708 996.7916,312.2666 996.3874,311.8623 995.9831,311.0537"/>
    <polygon points="1012.9624,304.1811 1011.7496,304.5854 1010.9411,305.7982 1010.5368,307.8196 1010.5368,309.0324 1010.9411,311.0537 1011.7496,312.2666 1012.9624,312.6708 1013.771,312.6708 1014.9838,312.2666 1015.7923,311.0537 1016.1966,309.0324 1016.1966,307.8196 1015.7923,305.7982 1014.9838,304.5854 1013.771,304.1811"/>
    <polygon points="1019.0265,310.6495 1018.6222,311.0537 1019.0265,311.458 1019.4308,311.0537"/>
    <polyline points="1026.7076,304.1811 1022.6649,304.1811 1022.2607,307.8196 1022.6649,307.4153 1023.8777,307.011 1025.0906,307.011 1026.3034,307.4153 1027.1119,308.2238 1027.5162,309.4367 1027.5162,310.2452 1027.1119,311.458 1026.3034,312.2666 1025.0906,312.6708 1023.8777,312.6708 1022.6649,312.2666 1022.2607,311.8623 1021.8564,311.0537"/>
    <polygon points="1038.8357,304.1811 1037.6229,304.5854 1036.8144,305.7982 1036.4101,307.8196 1036.4101,309.0324 1036.8144,311.0537 1037.6229,312.2666 1038.8357,312.6708 1039.6443,312.6708 1040.8571,312.2666 1041.6656,311.0537 1042.0699,309.0324 1042.0699,307.8196 1041.6656,305.7982 1040.8571,304.5854 1039.6443,304.1811"/>
    <polygon points="1044.8998,310.6495 1044.4955,311.0537 1044.8998,311.458 1045.3041,311.0537"/>
    <polyline points="1052.5809,304.1811 1048.5382,304.1811 1048.134,307.8196 1048.5382,307.4153 1049.751,307.011 1050.9639,307.011 1052.1767,307.4153 1052.9852,308.2238 1053.3895,309.4367 1053.3895,310.2452 1052.9852,311.458 1052.1767,312.2666 1050.9639,312.6708 1049.751,312.6708 1048.5382,312.2666 1048.134,311.8623 1047.7297,311.0537"/>
  </g>
  <g fill="none" id="layer10" inkscape:groupmode="layer" inkscape:label="10" stroke="#008800" style="display:inline">
    <polygon points="60.1024,22.721 69.7274,136.3801 170.4542,210.2339 171.696,95.821"/>
    <line x1="61.8201" x2="62.1828" y1="23.8647" y2="28.2188"/>
    <line x1="65.1944" x2="65.4285" y1="27.454" y2="30.3548"/>
    <polyline points="65.2447,28.0768 64.8681,27.4365 64.5083,27.0038 63.9941,26.6665 63.6686,26.6494 63.3603,26.8397 63.2405,27.3493 63.2746,27.7636 63.4965,28.4968 63.8722,29.1351 64.2309,29.5667 64.7439,29.9042 65.0694,29.9227 65.3784,29.7344"/>
    <line x1="66.225" x2="67.4863" y1="28.1301" y2="31.709"/>
    <polyline points="68.2907,29.4854 67.4863,31.709 67.2084,32.3094 66.8983,32.4962 66.572,32.4766 66.4007,32.3637"/>
    <polyline points="69.2497,31.2971 71.3222,32.6586 71.2908,32.2434 71.0862,31.7145 70.8974,31.3931 70.5356,30.9582 70.0169,30.6179 69.6873,30.599 69.3741,30.7878 69.2497,31.2971 69.2819,31.7117 69.5023,32.4465 69.879,33.0872 70.2397,33.521 70.7572,33.8615 71.0867,33.8818 71.4008,33.695"/>
    <line x1="72.4408" x2="72.6581" y1="32.2082" y2="35.1124"/>
    <polyline points="72.5341,33.4547 72.6609,32.9456 72.9769,32.7577 73.3086,32.7775 73.8298,33.1195"/>
    <polyline points="78.9623,35.0941 77.4176,36.8608 80.0397,38.5837"/>
    <line x1="78.9623" x2="79.2653" y1="35.0941" y2="39.4605"/>
    <polygon points="36.095,36.4429 48.205,150.3324 148.8293,226.3238 147.5481,111.9002"/>
    <line x1="37.8088" x2="38.2674" y1="37.6215" y2="41.9906"/>
    <line x1="41.2072" x2="41.5052" y1="41.282" y2="44.1925"/>
    <polyline points="41.2712,41.9069 40.8863,41.2582 40.5227,40.8178 40.0098,40.4701 39.6897,40.4467 39.3914,40.6315 39.2857,41.1397 39.3289,41.5554 39.5641,42.2941 39.948,42.9408 40.3105,43.38 40.8222,43.7281 41.1423,43.7528 41.4414,43.5701"/>
    <line x1="42.2353" x2="43.5581" y1="41.9791" y2="45.5887"/>
    <polyline points="44.2962,43.3765 43.5581,45.5887 43.2993,46.1848 42.999,46.366 42.6781,46.3401 42.5072,46.2237"/>
    <polyline points="45.2807,45.2099 47.3485,46.6137 47.3079,46.1973 47.0945,45.6634 46.9015,45.3378 46.5359,44.8951 46.0184,44.5442 45.6942,44.5189 45.3909,44.7021 45.2807,45.2099 45.322,45.6259 45.5557,46.3663 45.9407,47.0154 46.3052,47.4569 46.8216,47.808 47.1457,47.8347 47.4499,47.6536"/>
    <line x1="48.4369" x2="48.7181" y1="46.1841" y2="49.0978"/>
    <polyline points="48.5576,47.4346 48.6703,46.9271 48.9763,46.7449 49.3027,46.7712 49.8228,47.1238"/>
    <polyline points="55.2619,49.4381 53.5136,48.2544 53.5129,50.0172 53.668,49.9268 54.1721,50.0729 54.6959,50.428 55.2391,50.9923 55.6266,51.6469 55.8581,52.3911 55.8958,52.8078 55.7778,53.3136 55.4666,53.4923 54.9625,53.3445 54.44,52.9891 53.8986,52.4262 53.7054,52.1 53.4929,51.5658"/>
    <polygon points="11.3386,50.5928 26.0779,164.6767 126.5509,242.8999 122.5831,128.5234"/>
    <line x1="13.0475" x2="13.6078" y1="51.808" y2="56.1908"/>
    <line x1="16.4699" x2="16.8357" y1="55.5424" y2="58.4619"/>
    <polyline points="16.5485,56.1692 16.1549,55.5119 15.7875,55.0636 15.2762,54.7049 14.9619,54.6748 14.6744,54.8537 14.5838,55.3602 14.6367,55.7772 14.8858,56.5215 15.2784,57.1767 15.6446,57.6239 16.1548,57.9828 16.469,58.0143 16.7575,57.8375"/>
    <line x1="17.4949" x2="18.8825" y1="56.2614" y2="59.902"/>
    <polyline points="19.5496,57.7029 18.8825,59.902 18.644,60.4933 18.3543,60.6683 18.0393,60.6357 17.8689,60.5157"/>
    <polyline points="20.5607,59.5586 22.6224,61.0068 22.5721,60.5891 22.3496,60.0502 22.1522,59.7203 21.7827,59.2696 21.2667,58.9076 20.9484,58.8756 20.6558,59.0526 20.5607,59.5586 20.6117,59.9759 20.8595,60.7218 21.2531,61.3796 21.6215,61.8291 22.1363,62.1913 22.4546,62.2247 22.7481,62.0498"/>
    <line x1="23.6782" x2="24.0274" y1="60.5994" y2="63.5218"/>
    <polyline points="23.8281,61.8537 23.9257,61.348 24.221,61.172 24.5416,61.2051 25.0601,61.5689"/>
    <polyline points="30.6958,64.751 30.4735,64.209 29.926,63.6322 29.5772,63.3879 29.0786,63.2316 28.8028,63.6169 28.7498,64.5422 28.8704,65.5876 29.1404,66.5445 29.5357,67.2058 30.0806,67.7807 30.2544,67.903 30.7522,68.0615 31.0527,67.8892 31.1557,67.3853 31.132,67.1764 30.8864,66.4269 30.4902,65.7637 29.9436,65.1876 29.7695,65.0654 29.2714,64.9083 28.9718,65.0826 28.8704,65.5876"/>
    <polygon points="404.9124,36.524 416.3733,150.4147 547.3769,194.5196 550.2766,80.1704"/>
    <line x1="407.2204" x2="407.6516" y1="37.2361" y2="41.6048"/>
    <line x1="411.7297" x2="412.0063" y1="40.0087" y2="42.9184"/>
    <polyline points="411.7891,40.6335 411.2895,40.0787 410.8097,39.7321 410.12,39.5247 409.6806,39.5947 409.2617,39.8729 409.0928,40.4277 409.1333,40.8433 409.4232,41.5353 409.9219,42.0884 410.4005,42.434 411.0885,42.6415 411.5275,42.5726 411.9471,42.2961"/>
    <line x1="413.1108" x2="414.7631" y1="40.4241" y2="43.75"/>
    <polyline points="415.8768,41.2559 414.7631,43.75 414.3804,44.4401 413.9598,44.7154 413.5201,44.7835 413.2907,44.7142"/>
    <polyline points="417.144,42.8522 419.9143,43.6864 419.8775,43.2702 419.6095,42.7842 419.3599,42.5062 418.879,42.1588 418.1857,41.9502 417.7424,42.0197 417.3182,42.2974 417.144,42.8522 417.1817,43.268 417.4686,43.9607 417.967,44.5147 418.4466,44.8612 419.1382,45.0699 419.5811,45.0016 420.006,44.7256"/>
    <line x1="421.424" x2="421.677" y1="42.9241" y2="45.8357"/>
    <polyline points="421.5326,44.1737 421.7098,43.6189 422.1368,43.3415 422.5822,43.2724 423.2776,43.4815"/>
    <polyline points="430.1324,44.1157 428.0401,46.3364 431.528,47.3869"/>
    <line x1="430.1324" x2="430.4801" y1="44.1157" y2="48.4913"/>
    <polygon points="380.2573,50.6765 394.3284,164.7613 526.2871,210.1417 526.7943,95.729"/>
    <line x1="382.5827" x2="383.1147" y1="51.4104" y2="55.7929"/>
    <line x1="387.1577" x2="387.5013" y1="54.229" y2="57.1478"/>
    <polyline points="387.2315,54.8557 386.7189,54.2953 386.2309,53.9436 385.5362,53.7297 385.0982,53.7961 384.6855,54.0712 384.5293,54.6259 384.5794,55.0428 384.8853,55.7388 385.397,56.2975 385.8836,56.6481 386.5767,56.8622 387.0143,56.797 387.4278,56.5236"/>
    <line x1="388.549" x2="390.2784" y1="54.6574" y2="58.0055"/>
    <polyline points="391.3355,55.5155 390.2784,58.0055 389.9114,58.6937 389.4968,58.9659 389.0586,59.0303 388.8275,58.9589"/>
    <polyline points="392.6399,57.1266 395.4308,57.9871 395.3845,57.5696 395.1053,57.0801 394.8491,56.7993 394.36,56.4468 393.6615,56.2317 393.2196,56.2974 392.8015,56.572 392.6399,57.1266 392.6871,57.5437 392.99,58.2404 393.5014,58.8001 393.9892,59.1516 394.6859,59.3668 395.1275,59.3023 395.5463,59.0294"/>
    <line x1="396.924" x2="397.2436" y1="57.2363" y2="60.1568"/>
    <polyline points="397.0612,58.4898 397.2258,57.9352 397.6468,57.661 398.0908,57.5956 398.7914,57.8113"/>
    <polyline points="406.1355,58.6519 403.787,57.9298 403.7478,59.7425 403.9605,59.6055 404.6421,59.6129 405.3457,59.8295 406.0709,60.2555 406.5827,60.8183 406.8807,61.5174 406.9229,61.9349 406.7519,62.4881 406.3257,62.7602 405.6447,62.7515 404.9428,62.5348 404.2197,62.1099 403.9643,61.8294 403.6871,61.3404"/>
    <polygon points="354.8208,65.2774 371.6554,179.5168 504.5695,226.2288 502.5309,111.8051"/>
    <line x1="357.1635" x2="357.8025" y1="66.0343" y2="70.4293"/>
    <line x1="361.8063" x2="362.2209" y1="68.9004" y2="71.8273"/>
    <polyline points="361.8953,69.5289 361.3692,68.9627 360.8727,68.6059 360.1729,68.3851 359.7366,68.4475 359.3308,68.7193 359.1882,69.2735 359.2484,69.6915 359.5713,70.3916 360.0964,70.956 360.5915,71.3118 361.2896,71.5326 361.7256,71.4714 362.1322,71.2014"/>
    <line x1="363.2077" x2="365.0182" y1="69.3425" y2="72.7124"/>
    <polyline points="366.0146,70.228 365.0182,72.7124 364.6681,73.3984 364.2603,73.6671 363.8237,73.7275 363.5909,73.6538"/>
    <polyline points="367.358,71.8541 370.1694,72.7421 370.113,72.3235 369.8219,71.8305 369.5589,71.5469 369.0613,71.1892 368.3577,70.9672 367.9174,71.0289 367.5061,71.3 367.358,71.8541 367.4153,72.2723 367.7351,72.9731 368.26,73.5385 368.7562,73.8951 369.4581,74.1172 369.898,74.0567 370.3102,73.7873"/>
    <line x1="371.6442" x2="372.0346" y1="72.004" y2="74.9325"/>
    <polyline points="371.8118,73.2609 371.9629,72.7069 372.3772,72.4361 372.8197,72.3748 373.5255,72.5975"/>
    <polyline points="381.2057,74.2135 380.9164,73.7185 380.1798,73.2844 379.7065,73.1354 379.0236,73.1221 378.631,73.6036 378.5285,74.5784 378.6621,75.6256 379.0043,76.5365 379.5288,77.1033 380.2622,77.5358 380.498,77.6103 381.1792,77.6254 381.5989,77.3569 381.7566,76.8043 381.7305,76.595 381.4157,75.8922 380.8904,75.3238 380.155,74.8903 379.9187,74.8158 379.2367,74.8019 378.8179,75.072 378.6621,75.6256"/>
    <polygon points="767.0933,36.524 778.5541,150.4147 909.5577,194.5196 912.4574,80.1704"/>
    <line x1="769.4013" x2="769.8325" y1="37.2361" y2="41.6048"/>
    <line x1="773.9106" x2="774.1872" y1="40.0087" y2="42.9184"/>
    <polyline points="773.97,40.6335 773.4704,40.0787 772.9905,39.7321 772.3009,39.5247 771.8614,39.5947 771.4425,39.8729 771.2737,40.4277 771.3142,40.8433 771.604,41.5353 772.1028,42.0884 772.5813,42.434 773.2693,42.6415 773.7084,42.5726 774.128,42.2961"/>
    <line x1="775.2917" x2="776.9439" y1="40.4241" y2="43.75"/>
    <polyline points="778.0577,41.2559 776.9439,43.75 776.5613,44.4401 776.1406,44.7154 775.701,44.7835 775.4716,44.7142"/>
    <polyline points="779.3249,42.8522 782.0951,43.6864 782.0584,43.2702 781.7904,42.7842 781.5408,42.5062 781.0599,42.1588 780.3665,41.9502 779.9232,42.0197 779.4991,42.2974 779.3249,42.8522 779.3625,43.268 779.6495,43.9607 780.1479,44.5147 780.6275,44.8612 781.3191,45.0699 781.762,45.0016 782.1869,44.7256"/>
    <line x1="783.6048" x2="783.8579" y1="42.9241" y2="45.8357"/>
    <polyline points="783.7135,44.1737 783.8906,43.6189 784.3177,43.3415 784.7631,43.2724 785.4584,43.4815"/>
    <polyline points="792.3133,44.1157 790.221,46.3364 793.7089,47.3869"/>
    <line x1="792.3133" x2="792.661" y1="44.1157" y2="48.4913"/>
    <polygon points="780.662,92.4171 785.9871,149.3994 853.6247,172.0927 851.9324,115.0332"/>
    <line x1="781.8203" x2="782.0127" y1="92.7937" y2="94.8761"/>
    <line x1="784.0743" x2="784.1999" y1="94.1841" y2="95.5716"/>
    <polyline points="784.1012,94.4817 783.8526,94.2101 783.613,94.0376 783.2672,93.9278 783.0457,93.9538 782.8334,94.079 782.7455,94.3398 782.7637,94.538 782.906,94.8718 783.1544,95.143 783.3937,95.3152 783.7392,95.4251 783.9605,95.3993 784.173,95.2746"/>
    <line x1="784.7665" x2="785.5828" y1="94.4039" y2="96.0114"/>
    <polyline points="786.1517,94.8438 785.5828,96.0114 785.3877,96.3338 785.175,96.4583 784.9535,96.4839 784.8383,96.4472"/>
    <polyline points="786.7818,95.6223 788.1681,96.0628 788.1509,95.8645 788.018,95.6294 787.8938,95.4935 787.6539,95.3208 787.3071,95.2107 787.0847,95.2365 786.8711,95.3615 786.7818,95.6223 786.7993,95.8206 786.9409,96.1545 787.1892,96.4259 787.4288,96.5984 787.7751,96.7085 787.9975,96.6829 788.2112,96.5583"/>
    <line x1="788.9261" x2="789.0458" y1="95.7248" y2="97.1126"/>
    <polyline points="788.9774,96.32 789.0675,96.0592 789.2818,95.9343 789.5047,95.9085 789.852,96.0188"/>
    <polyline points="793.5042,96.5014 792.3434,96.133 792.3018,96.99 792.4094,96.9276 792.7491,96.9388 793.0972,97.0493 793.4534,97.2591 793.7018,97.5313 793.8422,97.8657 793.8585,98.064 793.7669,98.3245 793.5513,98.4489 793.2118,98.4373 792.8642,98.3268 792.5084,98.1173 792.3843,97.9814 792.252,97.7464"/>
    <polygon points="717.0017,65.2774 733.8362,179.5168 866.7504,226.2288 864.7118,111.8051"/>
    <line x1="719.3444" x2="719.9834" y1="66.0343" y2="70.4293"/>
    <line x1="723.9872" x2="724.4018" y1="68.9004" y2="71.8273"/>
    <polyline points="724.0762,69.5289 723.5501,68.9627 723.0536,68.6059 722.3538,68.3851 721.9175,68.4475 721.5116,68.7193 721.3691,69.2735 721.4293,69.6915 721.7521,70.3916 722.2773,70.956 722.7724,71.3118 723.4705,71.5326 723.9064,71.4714 724.3131,71.2014"/>
    <line x1="725.3886" x2="727.1991" y1="69.3425" y2="72.7124"/>
    <polyline points="728.1955,70.228 727.1991,72.7124 726.8489,73.3984 726.4411,73.6671 726.0046,73.7275 725.7718,73.6538"/>
    <polyline points="729.5388,71.8541 732.3502,72.7421 732.2938,72.3235 732.0027,71.8305 731.7398,71.5469 731.2422,71.1892 730.5386,70.9672 730.0983,71.0289 729.6869,71.3 729.5388,71.8541 729.5962,72.2723 729.916,72.9731 730.4408,73.5385 730.9371,73.8951 731.639,74.1172 732.0789,74.0567 732.491,73.7873"/>
    <line x1="733.8251" x2="734.2155" y1="72.004" y2="74.9325"/>
    <polyline points="733.9926,73.2609 734.1438,72.7069 734.5581,72.4361 735.0006,72.3748 735.7063,72.5975"/>
    <polyline points="743.3866,74.2135 743.0972,73.7185 742.3607,73.2844 741.8874,73.1354 741.2044,73.1221 740.8119,73.6036 740.7094,74.5784 740.8429,75.6256 741.1852,76.5365 741.7096,77.1033 742.4431,77.5358 742.6788,77.6103 743.3601,77.6254 743.7797,77.3569 743.9375,76.8043 743.9114,76.595 743.5965,75.8922 743.0713,75.3238 742.3359,74.8903 742.0996,74.8158 741.4176,74.8019 740.9988,75.072 740.8429,75.6256"/>
  </g>
</svg>
