<?xml version="1.0" encoding="utf-8" ?>
<svg xmlns="http://www.w3.org/2000/svg" xmlns:cc="http://creativecommons.org/ns" xmlns:dc="http://purl.org/dc/elements/1.1/" xmlns:ev="http://www.w3.org/2001/xml-events" xmlns:inkscape="http://www.inkscape.org/namespaces/inkscape" xmlns:rdf="http://www.w3.org/1999/02/22-rdf-syntax-ns" xmlns:sodipodi="http://sodipodi.sourceforge.net/DTD/sodipodi-0.dtd" xmlns:xlink="http://www.w3.org/1999/xlink" baseProfile="tiny" height="9.0cm" version="1.2" viewBox="0 0 1133.8582677165352 340.1574803149606" width="30.0cm">
  <metadata>
    <rdf:RDF>
      <cc:Work>
        <dc:format>image/svg+xml</dc:format>
        <dc:source>vpype -I figures/fig_camera.vpy write figures/fig_camera.svg
</dc:source>
        <dc:date>2022-03-31T13:31:38.106311</dc:date>
      </cc:Work>
    </rdf:RDF>
  </metadata>
  <defs/>
  <g fill="none" id="layer6" inkscape:groupmode="layer" inkscape:label="6" stroke="#0000ff" style="display:inline">
    <polygon points="67.5458,69.0785 67.5458,218.1185 216.5858,218.1185 216.5858,69.0785"/>
    <line x1="69.6277" x2="69.6277" y1="70.2848" y2="73.3902"/>
    <line x1="72.4373" x2="72.4373" y1="71.32" y2="73.3902"/>
    <polyline points="72.4373,71.7636 72.1416,71.4678 71.8458,71.32 71.4022,71.32 71.1064,71.4678 70.8107,71.7636 70.6628,72.2072 70.6628,72.503 70.8107,72.9466 71.1064,73.2423 71.4022,73.3902 71.8458,73.3902 72.1416,73.2423 72.4373,72.9466"/>
    <line x1="73.3246" x2="74.2118" y1="71.32" y2="73.3902"/>
    <polyline points="75.0991,71.32 74.2118,73.3902 73.9161,73.9817 73.6203,74.2775 73.3246,74.4253 73.1767,74.4253"/>
    <polyline points="75.8384,72.2072 77.613,72.2072 77.613,71.9115 77.4651,71.6157 77.3172,71.4678 77.0214,71.32 76.5778,71.32 76.2821,71.4678 75.9863,71.7636 75.8384,72.2072 75.8384,72.503 75.9863,72.9466 76.2821,73.2423 76.5778,73.3902 77.0214,73.3902 77.3172,73.2423 77.613,72.9466"/>
    <line x1="78.6481" x2="78.6481" y1="71.32" y2="73.3902"/>
    <polyline points="78.6481,72.2072 78.796,71.7636 79.0917,71.4678 79.3875,71.32 79.8311,71.32"/>
    <polyline points="83.2322,70.8763 83.528,70.7285 83.9716,70.2848 83.9716,73.3902"/>
    <polygon points="61.1548,62.6876 61.1548,224.5095 222.9767,224.5095 222.9767,62.6876"/>
    <line x1="63.4153" x2="63.4153" y1="63.9973" y2="67.369"/>
    <line x1="66.4659" x2="66.4659" y1="65.1212" y2="67.369"/>
    <polyline points="66.4659,65.6029 66.1448,65.2818 65.8236,65.1212 65.342,65.1212 65.0208,65.2818 64.6997,65.6029 64.5392,66.0846 64.5392,66.4057 64.6997,66.8874 65.0208,67.2085 65.342,67.369 65.8236,67.369 66.1448,67.2085 66.4659,66.8874"/>
    <line x1="67.4292" x2="68.3926" y1="65.1212" y2="67.369"/>
    <polyline points="69.3559,65.1212 68.3926,67.369 68.0714,68.0113 67.7503,68.3324 67.4292,68.493 67.2687,68.493"/>
    <polyline points="70.1587,66.0846 72.0854,66.0846 72.0854,65.7635 71.9248,65.4424 71.7643,65.2818 71.4432,65.1212 70.9615,65.1212 70.6404,65.2818 70.3193,65.6029 70.1587,66.0846 70.1587,66.4057 70.3193,66.8874 70.6404,67.2085 70.9615,67.369 71.4432,67.369 71.7643,67.2085 72.0854,66.8874"/>
    <line x1="73.2093" x2="73.2093" y1="65.1212" y2="67.369"/>
    <polyline points="73.2093,66.0846 73.3698,65.6029 73.691,65.2818 74.0121,65.1212 74.4938,65.1212"/>
    <polyline points="77.8655,64.8001 77.8655,64.6396 78.026,64.3185 78.1866,64.1579 78.5077,63.9973 79.1499,63.9973 79.471,64.1579 79.6316,64.3185 79.7922,64.6396 79.7922,64.9607 79.6316,65.2818 79.3105,65.7635 77.7049,67.369 79.9527,67.369"/>
    <polygon points="53.5649,55.0976 53.5649,232.0995 230.5667,232.0995 230.5667,55.0976"/>
    <line x1="56.0374" x2="56.0374" y1="56.5302" y2="60.2182"/>
    <line x1="59.3741" x2="59.3741" y1="57.7596" y2="60.2182"/>
    <polyline points="59.3741,58.2864 59.0229,57.9352 58.6716,57.7596 58.1448,57.7596 57.7935,57.9352 57.4423,58.2864 57.2667,58.8133 57.2667,59.1645 57.4423,59.6914 57.7935,60.0426 58.1448,60.2182 58.6716,60.2182 59.0229,60.0426 59.3741,59.6914"/>
    <line x1="60.4278" x2="61.4815" y1="57.7596" y2="60.2182"/>
    <polyline points="62.5353,57.7596 61.4815,60.2182 61.1303,60.9207 60.7791,61.2719 60.4278,61.4476 60.2522,61.4476"/>
    <polyline points="63.4134,58.8133 65.5208,58.8133 65.5208,58.462 65.3452,58.1108 65.1695,57.9352 64.8183,57.7596 64.2914,57.7596 63.9402,57.9352 63.589,58.2864 63.4134,58.8133 63.4134,59.1645 63.589,59.6914 63.9402,60.0426 64.2914,60.2182 64.8183,60.2182 65.1695,60.0426 65.5208,59.6914"/>
    <line x1="66.7501" x2="66.7501" y1="57.7596" y2="60.2182"/>
    <polyline points="66.7501,58.8133 66.9257,58.2864 67.277,57.9352 67.6282,57.7596 68.1551,57.7596"/>
    <polyline points="72.0187,56.5302 73.9505,56.5302 72.8968,57.9352 73.4236,57.9352 73.7749,58.1108 73.9505,58.2864 74.1261,58.8133 74.1261,59.1645 73.9505,59.6914 73.5993,60.0426 73.0724,60.2182 72.5455,60.2182 72.0187,60.0426 71.8431,59.867 71.6674,59.5158"/>
    <polygon points="44.4035,45.9363 44.4035,241.2608 239.728,241.2608 239.728,45.9363"/>
    <line x1="47.132" x2="47.132" y1="47.5172" y2="51.587"/>
    <line x1="50.8141" x2="50.8141" y1="48.8738" y2="51.587"/>
    <polyline points="50.8141,49.4552 50.4265,49.0676 50.0389,48.8738 49.4575,48.8738 49.0699,49.0676 48.6823,49.4552 48.4885,50.0366 48.4885,50.4242 48.6823,51.0056 49.0699,51.3932 49.4575,51.587 50.0389,51.587 50.4265,51.3932 50.8141,51.0056"/>
    <line x1="51.9769" x2="53.1397" y1="48.8738" y2="51.587"/>
    <polyline points="54.3025,48.8738 53.1397,51.587 52.7521,52.3622 52.3645,52.7498 51.9769,52.9436 51.7831,52.9436"/>
    <polyline points="55.2715,50.0366 57.5971,50.0366 57.5971,49.649 57.4033,49.2614 57.2095,49.0676 56.8219,48.8738 56.2405,48.8738 55.8529,49.0676 55.4653,49.4552 55.2715,50.0366 55.2715,50.4242 55.4653,51.0056 55.8529,51.3932 56.2405,51.587 56.8219,51.587 57.2095,51.3932 57.5971,51.0056"/>
    <line x1="58.9537" x2="58.9537" y1="48.8738" y2="51.587"/>
    <polyline points="58.9537,50.0366 59.1475,49.4552 59.5351,49.0676 59.9227,48.8738 60.5041,48.8738"/>
    <polyline points="66.318,47.5172 64.38,50.2304 67.287,50.2304"/>
    <line x1="66.318" x2="66.318" y1="47.5172" y2="51.587"/>
    <polygon points="33.1264,34.6592 33.1264,252.5379 251.0051,252.5379 251.0051,34.6592"/>
    <line x1="36.1699" x2="36.1699" y1="36.4227" y2="40.9624"/>
    <line x1="40.2773" x2="40.2773" y1="37.9359" y2="40.9624"/>
    <polyline points="40.2773,38.5844 39.8449,38.1521 39.4126,37.9359 38.7641,37.9359 38.3317,38.1521 37.8994,38.5844 37.6832,39.233 37.6832,39.6653 37.8994,40.3138 38.3317,40.7462 38.7641,40.9624 39.4126,40.9624 39.8449,40.7462 40.2773,40.3138"/>
    <line x1="41.5744" x2="42.8714" y1="37.9359" y2="40.9624"/>
    <polyline points="44.1685,37.9359 42.8714,40.9624 42.4391,41.8271 42.0067,42.2594 41.5744,42.4756 41.3582,42.4756"/>
    <polyline points="45.2494,39.233 47.8435,39.233 47.8435,38.8006 47.6273,38.3683 47.4111,38.1521 46.9788,37.9359 46.3302,37.9359 45.8979,38.1521 45.4655,38.5844 45.2494,39.233 45.2494,39.6653 45.4655,40.3138 45.8979,40.7462 46.3302,40.9624 46.9788,40.9624 47.4111,40.7462 47.8435,40.3138"/>
    <line x1="49.3567" x2="49.3567" y1="37.9359" y2="40.9624"/>
    <polyline points="49.3567,39.233 49.5729,38.5844 50.0052,38.1521 50.4376,37.9359 51.0861,37.9359"/>
    <polyline points="58.0038,36.4227 55.842,36.4227 55.6258,38.3683 55.842,38.1521 56.4905,37.9359 57.1391,37.9359 57.7876,38.1521 58.2199,38.5844 58.4361,39.233 58.4361,39.6653 58.2199,40.3138 57.7876,40.7462 57.1391,40.9624 56.4905,40.9624 55.842,40.7462 55.6258,40.53 55.4096,40.0977"/>
    <line x1="125.8525" x2="125.8525" y1="279.8153" y2="289.273"/>
    <polyline points="125.8525,284.3189 124.9518,283.4182 124.0511,282.9678 122.7,282.9678 121.7992,283.4182 120.8985,284.3189 120.4481,285.67 120.4481,286.5708 120.8985,287.9219 121.7992,288.8226 122.7,289.273 124.0511,289.273 124.9518,288.8226 125.8525,287.9219"/>
    <polyline points="129.0051,285.67 134.4095,285.67 134.4095,284.7693 133.9592,283.8686 133.5088,283.4182 132.6081,282.9678 131.2569,282.9678 130.3562,283.4182 129.4555,284.3189 129.0051,285.67 129.0051,286.5708 129.4555,287.9219 130.3562,288.8226 131.2569,289.273 132.6081,289.273 133.5088,288.8226 134.4095,287.9219"/>
    <polyline points="140.2643,279.8153 139.3636,279.8153 138.4628,280.2656 138.0125,281.6167 138.0125,289.273"/>
    <line x1="136.6614" x2="139.8139" y1="282.9678" y2="282.9678"/>
    <line x1="147.9206" x2="147.9206" y1="282.9678" y2="289.273"/>
    <polyline points="147.9206,284.3189 147.0198,283.4182 146.1191,282.9678 144.768,282.9678 143.8672,283.4182 142.9665,284.3189 142.5161,285.67 142.5161,286.5708 142.9665,287.9219 143.8672,288.8226 144.768,289.273 146.1191,289.273 147.0198,288.8226 147.9206,287.9219"/>
    <polyline points="151.5235,282.9678 151.5235,287.4715 151.9739,288.8226 152.8746,289.273 154.2257,289.273 155.1264,288.8226 156.4775,287.4715"/>
    <line x1="156.4775" x2="156.4775" y1="282.9678" y2="289.273"/>
    <line x1="160.0805" x2="160.0805" y1="279.8153" y2="289.273"/>
    <polyline points="164.1338,279.8153 164.1338,287.4715 164.5842,288.8226 165.4849,289.273 166.3856,289.273"/>
    <line x1="162.7827" x2="165.9353" y1="282.9678" y2="282.9678"/>
    <polygon points="377.6209,78.917 377.6209,208.2801 523.2382,234.6663 523.2382,52.5307"/>
    <line x1="379.0715" x2="379.0715" y1="79.7054" y2="82.4118"/>
    <line x1="381.0479" x2="381.0479" y1="80.2602" y2="82.0744"/>
    <polyline points="381.0479,80.649 380.8389,80.4265 380.63,80.3336 380.3172,80.3886 380.109,80.5545 379.901,80.8493 379.7971,81.2548 379.7971,81.5131 379.901,81.8827 380.109,82.1054 380.3172,82.1991 380.63,82.1457 380.8389,81.9806 381.0479,81.6856"/>
    <line x1="381.6766" x2="382.3075" y1="80.1497" y2="81.8594"/>
    <polyline points="382.9406,79.9276 382.3075,81.8594 382.097,82.4151 381.8867,82.7105 381.6766,82.8757 381.5717,82.8934"/>
    <polyline points="383.4698,80.6173 384.7464,80.3957 384.7464,80.1338 384.6397,79.8907 384.533,79.7785 384.3199,79.6851 384.0007,79.7413 383.7881,79.9092 383.5759,80.2074 383.4698,80.6173 383.4698,80.8782 383.5759,81.2513 383.7881,81.476 384.0007,81.5703 384.3199,81.5158 384.533,81.3486 384.7464,81.0502"/>
    <line x1="385.4952" x2="385.4952" y1="79.4786" y2="81.3151"/>
    <polyline points="385.4952,80.2657 385.6025,79.8534 385.8171,79.5533 386.032,79.3842 386.3548,79.3275"/>
    <polyline points="388.8488,78.492 389.0673,78.3209 389.3955,77.865 389.3955,80.6493"/>
    <polygon points="368.6322,74.6317 368.6322,212.5654 524.1915,243.397 524.1915,43.8"/>
    <line x1="370.1403" x2="370.1403" y1="75.454" y2="78.3405"/>
    <line x1="372.1965" x2="372.1965" y1="76.0209" y2="77.9565"/>
    <polyline points="372.1965,76.4357 371.9789,76.2009 371.7616,76.1045 371.4362,76.1671 371.2195,76.3466 371.0032,76.6637 370.8951,77.0976 370.8951,77.3731 371.0032,77.766 371.2195,78.0011 371.4362,78.0985 371.7616,78.0377 371.9789,77.859 372.1965,77.5417"/>
    <line x1="372.8509" x2="373.5077" y1="75.8951" y2="77.7117"/>
    <polyline points="374.1669,75.6421 373.5077,77.7117 373.2885,78.3074 373.0695,78.6251 372.8509,78.8039 372.7417,78.824"/>
    <polyline points="374.7182,76.3716 376.0483,76.1191 376.0483,75.8395 375.9371,75.5813 375.8259,75.4629 375.6038,75.3659 375.2712,75.4298 375.0498,75.6118 374.8287,75.9328 374.7182,76.3716 374.7182,76.6501 374.8287,77.0471 375.0498,77.2843 375.2712,77.3824 375.6038,77.3203 375.8259,77.1391 376.0483,76.818"/>
    <line x1="376.8288" x2="376.8288" y1="75.1304" y2="77.0915"/>
    <polyline points="376.8288,75.9709 376.9406,75.5293 377.1643,75.2061 377.3884,75.0228 377.725,74.9581"/>
    <polyline points="380.0992,74.219 380.0992,74.0776 380.213,73.7728 380.3269,73.6092 380.555,73.4233 381.0119,73.3342 381.2408,73.4314 381.3554,73.5509 381.47,73.8125 381.47,74.0963 381.3554,74.4021 381.1263,74.8713 379.9854,76.5021 381.5848,76.2034"/>
    <polygon points="358.3679,69.7383 358.3679,217.4588 525.3469,253.9793 525.3469,33.2178"/>
    <line x1="359.9359" x2="359.9359" y1="70.5965" y2="73.6887"/>
    <line x1="362.0753" x2="362.0753" y1="71.1734" y2="73.2479"/>
    <polyline points="362.0753,71.618 361.8488,71.3695 361.6226,71.2694 361.284,71.3413 361.0585,71.5368 360.8334,71.8798 360.721,72.3462 360.721,72.6414 360.8334,73.0609 361.0585,73.3097 361.284,73.4109 361.6226,73.3412 361.8488,73.1465 362.0753,72.8034"/>
    <line x1="362.7565" x2="363.4404" y1="71.0289" y2="72.9666"/>
    <polyline points="364.127,70.7382 363.4404,72.9666 363.2121,73.6083 362.9841,73.952 362.7565,74.1468 362.6427,74.1699"/>
    <polyline points="364.7014,71.5122 366.0876,71.2218 366.0876,70.9219 365.9717,70.6466 365.8558,70.5213 365.6243,70.4206 365.2776,70.4941 365.0469,70.6925 364.8165,71.04 364.7014,71.5122 364.7014,71.8109 364.8165,72.2349 365.0469,72.4861 365.2776,72.588 365.6243,72.5166 365.8558,72.3191 366.0876,71.9714"/>
    <line x1="366.9014" x2="366.9014" y1="70.1496" y2="72.2534"/>
    <polyline points="366.9014,71.0513 367.018,70.5759 367.2514,70.2258 367.4851,70.0258 367.8362,69.9513"/>
    <polyline points="370.4331,68.3378 371.7461,68.0553 371.0287,69.4262 371.387,69.3503 371.6264,69.452 371.7461,69.579 371.866,70.011 371.866,70.3159 371.7461,70.798 371.5067,71.1522 371.1481,71.3784 370.7902,71.4521 370.4331,71.3739 370.3142,71.2467 370.1954,70.9679"/>
    <polygon points="346.5359,64.0975 346.5359,223.0996 526.7765,267.0719 526.7765,20.1252"/>
    <line x1="348.1651" x2="348.1651" y1="64.9934" y2="68.3229"/>
    <line x1="350.3898" x2="350.3898" y1="65.5768" y2="67.8115"/>
    <polyline points="350.3898,66.0557 350.1542,65.792 349.9189,65.6882 349.5666,65.7716 349.3322,65.9861 349.0981,66.3594 348.9812,66.8637 348.9812,67.1816 349.0981,67.6314 349.3322,67.8955 349.5666,68.0007 349.9189,67.9198 350.1542,67.7062 350.3898,67.3327"/>
    <line x1="351.0986" x2="351.8105" y1="65.409" y2="67.485"/>
    <polyline points="352.5254,65.0714 351.8105,67.485 351.5728,68.1804 351.3355,68.5546 351.0986,68.7684 350.9802,68.7952"/>
    <polyline points="353.1236,65.8956 354.568,65.558 354.568,65.2347 354.4472,64.9399 354.3264,64.8068 354.0851,64.7023 353.7239,64.7878 353.4835,65.0058 353.2435,65.3845 353.1236,65.8956 353.1236,66.2175 353.2435,66.6726 353.4835,66.9393 353.7239,67.0452 354.0851,66.9622 354.3264,66.7452 354.568,66.3662"/>
    <line x1="355.4164" x2="355.4164" y1="64.3873" y2="66.6562"/>
    <polyline points="355.4164,65.3597 355.538,64.8449 355.7813,64.4632 356.025,64.2433 356.3913,64.1567"/>
    <polyline points="360.0982,62.1292 358.8535,64.7201 360.724,64.2838"/>
    <line x1="360.0982" x2="360.0982" y1="62.1292" y2="65.5801"/>
    <polyline points="332.7471,57.5238 332.7471,229.6733 494.6441,274.3257"/>
    <line x1="528.5908" x2="528.5908" y1="274.3257" y2="12.8714"/>
    <line x1="494.6441" x2="332.7471" y1="12.8714" y2="57.5238"/>
    <line x1="334.4371" x2="334.4371" y1="58.4585" y2="62.0649"/>
    <line x1="336.747" x2="336.747" y1="59.0427" y2="61.4646"/>
    <polyline points="336.747,59.5617 336.5023,59.2811 336.2579,59.1736 335.892,59.2714 335.6486,59.5089 335.4055,59.9184 335.2842,60.4672 335.2842,60.8116 335.4055,61.2964 335.6486,61.5777 335.892,61.6868 336.2579,61.5917 336.5023,61.3554 336.747,60.9456"/>
    <line x1="337.4835" x2="338.2235" y1="58.8457" y2="61.081"/>
    <polyline points="338.967,58.4489 338.2235,61.081 337.9765,61.8398 337.7298,62.2504 337.4835,62.487 337.3606,62.5185"/>
    <polyline points="339.5892,59.3297 341.0924,58.9325 341.0924,58.5818 340.9666,58.2645 340.8409,58.1228 340.5898,58.0147 340.2138,58.1153 339.9637,58.357 339.7139,58.7729 339.5892,59.3297 339.5892,59.6788 339.7139,60.1698 339.9637,60.454 340.2138,60.5638 340.5898,60.4661 340.8409,60.2256 341.0924,59.8094"/>
    <line x1="341.9759" x2="341.9759" y1="57.6439" y2="60.1059"/>
    <polyline points="341.9759,58.6991 342.1025,58.1378 342.356,57.7183 342.6099,57.4743 342.9915,57.3722"/>
    <polyline points="347.1192,55.0173 345.818,55.3704 345.6884,57.0066 345.818,56.7941 346.2073,56.512 346.5975,56.4076 346.9886,56.4816 347.2499,56.7693 347.3807,57.271 347.3807,57.6286 347.2499,58.1992 346.9886,58.6248 346.5975,58.905 346.2073,59.0064 345.818,58.9296 345.6884,58.7854 345.559,58.4636"/>
    <line x1="381.3972" x2="381.3972" y1="282.9678" y2="292.4255"/>
    <polyline points="381.3972,284.3189 382.2979,283.4182 383.1986,282.9678 384.5497,282.9678 385.4505,283.4182 386.3512,284.3189 386.8016,285.67 386.8016,286.5708 386.3512,287.9219 385.4505,288.8226 384.5497,289.273 383.1986,289.273 382.2979,288.8226 381.3972,287.9219"/>
    <line x1="394.9082" x2="394.9082" y1="282.9678" y2="289.273"/>
    <polyline points="394.9082,284.3189 394.0075,283.4182 393.1067,282.9678 391.7556,282.9678 390.8549,283.4182 389.9542,284.3189 389.5038,285.67 389.5038,286.5708 389.9542,287.9219 390.8549,288.8226 391.7556,289.273 393.1067,289.273 394.0075,288.8226 394.9082,287.9219"/>
    <line x1="398.5111" x2="398.5111" y1="282.9678" y2="289.273"/>
    <polyline points="398.5111,284.7693 399.8622,283.4182 400.763,282.9678 402.1141,282.9678 403.0148,283.4182 403.4652,284.7693 403.4652,289.273"/>
    <line x1="414.274" x2="422.3806" y1="283.8686" y2="283.8686"/>
    <line x1="414.274" x2="422.3806" y1="286.5708" y2="286.5708"/>
    <polyline points="433.1894,282.0671 433.1894,281.6167 433.6398,280.716 434.0902,280.2656 434.9909,279.8153 436.7924,279.8153 437.6931,280.2656 438.1435,280.716 438.5939,281.6167 438.5939,282.5175 438.1435,283.4182 437.2428,284.7693 432.7391,289.273 439.0442,289.273"/>
    <polyline points="447.1508,279.8153 442.6472,279.8153 442.1968,283.8686 442.6472,283.4182 443.9983,282.9678 445.3494,282.9678 446.7005,283.4182 447.6012,284.3189 448.0516,285.67 448.0516,286.5708 447.6012,287.9219 446.7005,288.8226 445.3494,289.273 443.9983,289.273 442.6472,288.8226 442.1968,288.3722 441.7464,287.4715"/>
    <line x1="456.1582" x2="456.1582" y1="279.8153" y2="289.273"/>
    <polyline points="456.1582,284.3189 455.2575,283.4182 454.3567,282.9678 453.0056,282.9678 452.1049,283.4182 451.2042,284.3189 450.7538,285.67 450.7538,286.5708 451.2042,287.9219 452.1049,288.8226 453.0056,289.273 454.3567,289.273 455.2575,288.8226 456.1582,287.9219"/>
    <polyline points="459.3108,285.67 464.7152,285.67 464.7152,284.7693 464.2648,283.8686 463.8144,283.4182 462.9137,282.9678 461.5626,282.9678 460.6619,283.4182 459.7611,284.3189 459.3108,285.67 459.3108,286.5708 459.7611,287.9219 460.6619,288.8226 461.5626,289.273 462.9137,289.273 463.8144,288.8226 464.7152,287.9219"/>
    <polyline points="472.8218,282.9678 472.8218,290.1737 472.3714,291.5248 471.9211,291.9752 471.0203,292.4255 469.6692,292.4255 468.7685,291.9752"/>
    <polyline points="472.8218,284.3189 471.9211,283.4182 471.0203,282.9678 469.6692,282.9678 468.7685,283.4182 467.8678,284.3189 467.4174,285.67 467.4174,286.5708 467.8678,287.9219 468.7685,288.8226 469.6692,289.273 471.0203,289.273 471.9211,288.8226 472.8218,287.9219"/>
    <polyline points="638.2958,23.3137 667.5665,152.0441 781.1035,194.1734 839.2774,83.4326"/>
    <line x1="839.2774" x2="638.2958" y1="50.7" y2="23.3137"/>
    <line x1="640.8145" x2="641.8062" y1="25.3849" y2="29.8781"/>
    <line x1="644.0186" x2="644.6519" y1="27.3067" y2="30.3001"/>
    <polyline points="644.1553,27.9531 643.7607,27.4791 643.4116,27.2202 642.9573,27.1554 642.7014,27.3276 642.4927,27.714 642.4817,28.3343 642.5744,28.7608 642.8628,29.4203 643.2543,29.8882 643.5998,30.1441 644.0502,30.2109 644.3059,30.0437 644.5173,29.6636"/>
    <line x1="644.9317" x2="646.4658" y1="27.4369" y2="30.5691"/>
    <polyline points="646.768,27.6987 646.4658,30.5691 646.3376,31.3706 646.123,31.7465 645.8655,31.9112 645.715,31.8884"/>
    <polyline points="647.7969,29.1053 649.6451,29.3734 649.561,28.9411 649.3218,28.4854 649.1246,28.2461 648.7723,27.9845 648.3084,27.9184 648.0427,28.0914 647.821,28.4804 647.7969,29.1053 647.883,29.5352 648.1648,30.2002 648.5561,30.6723 648.9046,30.9308 649.3645,30.999 649.6298,30.8311 649.8542,30.4486"/>
    <line x1="650.4806" x2="651.0577" y1="28.2281" y2="31.2501"/>
    <polyline points="650.7294,29.5307 650.7608,28.9032 650.9898,28.5129 651.2609,28.3394 651.7302,28.4063"/>
    <polyline points="655.2409,28.2632 655.5208,28.0874 655.8846,27.4901 656.6783,32.0837"/>
    <polyline points="624.8217,28.0479 661.0753,159.7801 778.6117,205.6656 839.2774,96.0249"/>
    <line x1="839.2774" x2="624.8217" y1="60.1544" y2="28.0479"/>
    <line x1="627.537" x2="628.8037" y1="30.2543" y2="34.9769"/>
    <line x1="630.9523" x2="631.766" y1="32.3127" y2="35.4585"/>
    <polyline points="631.1281,32.9924 630.6949,32.49 630.3201,32.2138 629.847,32.1398 629.5917,32.3169 629.3967,32.7192 629.4186,33.3692 629.5372,33.8173 629.8705,34.5121 630.2999,35.0076 630.6705,35.2804 631.1394,35.3566 631.3948,35.1851 631.5931,34.7899"/>
    <line x1="631.9036" x2="633.6554" y1="32.4616" y2="35.7656"/>
    <polyline points="633.8172,32.761 633.6554,35.7656 633.5648,36.603 633.3627,36.9935 633.1052,37.1622 632.9485,37.1362"/>
    <polyline points="634.9557,34.2502 636.8829,34.5568 636.7735,34.1023 636.5022,33.621 636.2855,33.3673 635.9071,33.088 635.4233,33.0123 635.1573,33.1903 634.9481,33.5952 634.9557,34.2502 635.0673,34.702 635.3935,35.4029 635.823,35.9031 636.197,36.1788 636.6765,36.2568 636.9424,36.0846 637.1549,35.6869"/>
    <line x1="637.6893" x2="638.4424" y1="33.3669" y2="36.5438"/>
    <polyline points="638.014,34.7368 638.0143,34.079 638.2315,33.6727 638.5035,33.4943 638.9933,33.571"/>
    <polyline points="642.3465,33.6491 642.2951,33.4172 642.3584,32.9781 642.4734,32.7707 642.7555,32.5884 643.4241,32.691 643.8096,32.9762 644.0275,33.2356 644.2953,33.7276 644.3953,34.1923 644.3282,34.6293 644.1449,35.2687 642.9941,37.2838 645.3011,37.6589"/>
    <polyline points="609.344,33.486 654.0537,168.148 775.8684,218.3174 839.2774,110.966"/>
    <line x1="839.2774" x2="609.344" y1="71.6794" y2="33.486"/>
    <line x1="612.2885" x2="613.9035" y1="35.8464" y2="40.8199"/>
    <line x1="615.9447" x2="616.9872" y1="38.0625" y2="41.3745"/>
    <polyline points="616.1701,38.7785 615.6907,38.2443 615.2863,37.9483 614.7936,37.8629 614.5419,38.0446 614.3672,38.4634 614.432,39.1454 614.5835,39.6172 614.9722,40.3509 615.4469,40.8773 615.8465,41.1693 616.3347,41.2572 616.5868,41.0818 616.7658,40.6711"/>
    <line x1="616.9359" x2="618.9554" y1="38.2343" y2="41.7286"/>
    <polyline points="618.9304,38.5801 618.9554,41.7286 618.9155,42.6042 618.732,43.0096 618.4773,43.1817 618.3141,43.1519"/>
    <polyline points="620.2009,40.1617 622.211,40.5159 622.0694,40.0371 621.7586,39.5274 621.5187,39.2574 621.11,38.9579 620.6053,38.8704 620.3418,39.0528 620.1514,39.4743 620.2009,40.1617 620.3448,40.6375 620.7261,41.378 621.2012,41.9097 621.6048,42.2051 622.1048,42.2951 622.3686,42.1192 622.5632,41.7059"/>
    <line x1="622.9697" x2="623.947" y1="39.2803" y2="42.6264"/>
    <polyline points="623.3913,40.7238 623.3505,40.0334 623.5496,39.6104 623.8197,39.4277 624.3312,39.5163"/>
    <polyline points="627.6426,38.4572 629.566,38.7842 629.0494,40.5665 629.5714,40.6572 629.9857,40.9614 630.2255,41.235 630.5952,41.9929 630.7249,42.4759 630.7452,43.1664 630.5282,43.5831 630.075,43.7287 629.5585,43.6358 628.9774,43.3049 628.7399,43.0356 628.436,42.5267"/>
    <polyline points="591.3797,39.7978 646.4342,177.2286 772.8336,232.3137 839.2774,128.9805"/>
    <line x1="839.2774" x2="591.3797" y1="86.0389" y2="39.7978"/>
    <line x1="594.5951" x2="596.6574" y1="42.3352" y2="47.5828"/>
    <line x1="598.5287" x2="599.8654" y1="44.735" y2="48.2285"/>
    <polyline points="598.8179,45.4908 598.2825,44.9206 597.8433,44.6018 597.3305,44.5021 597.0869,44.6876 596.9416,45.1233 597.0635,45.8397 597.2572,46.3373 597.7153,47.1141 598.2449,47.6753 598.6783,47.9896 599.1863,48.0918 599.431,47.9135 599.5817,47.4871"/>
    <line x1="599.5606" x2="601.9146" y1="44.9355" y2="48.641"/>
    <polyline points="601.6384,45.3393 601.9146,48.641 601.9432,49.5571 601.787,49.9774 601.5392,50.152 601.3693,50.1172"/>
    <polyline points="603.0704,47.0251 605.1662,47.4387 604.9828,46.9334 604.6229,46.392 604.3547,46.1036 603.9105,45.7808 603.3842,45.6785 603.1275,45.8645 602.9651,46.303 603.0704,47.0251 603.256,47.5271 603.7066,48.3113 604.2369,48.8786 604.6752,49.1968 605.1964,49.3017 605.454,49.123 605.6218,48.6941"/>
    <line x1="605.8504" x2="607.1177" y1="46.1578" y2="49.6885"/>
    <polyline points="606.3974,47.6817 606.3014,46.9564 606.4735,46.5165 606.7375,46.3302 607.2714,46.4339"/>
    <polyline points="612.0662,45.668 611.4747,48.9207 614.1899,49.4579"/>
    <line x1="612.0662" x2="613.8776" y1="45.668" y2="51.0493"/>
    <polyline points="577.8231,62.7693 638.1368,187.1169 769.4582,247.8809 839.2774,151.1257"/>
    <line x1="839.2774" x2="577.8231" y1="104.4252" y2="48.8171"/>
    <line x1="578.0737" x2="579.7954" y1="52.5718" y2="56.2627"/>
    <polyline points="578.4465,53.371 577.8421,52.7598 577.8231,52.7461"/>
    <polyline points="577.8231,55.3736 578.0886,55.6408 578.5622,55.9809 579.0898,56.1015 579.3206,55.9217 579.4303,55.48"/>
    <line x1="579.1462" x2="581.9254" y1="52.8089" y2="56.7495"/>
    <polyline points="581.307,53.2865 581.9254,56.7495 582.0478,57.7074 581.9315,58.142 581.6968,58.3174 581.5202,58.2764"/>
    <polyline points="582.9402,55.0904 585.1219,55.5798 584.8837,55.0457 584.4614,54.4688 584.1582,54.1595 583.6718,53.8093 583.1238,53.6882 582.8806,53.8763 582.7593,54.3314 582.9402,55.0904 583.1805,55.6208 583.7197,56.4535 584.3182,57.0612 584.7975,57.4058 585.3402,57.5299 585.5852,57.3501 585.7135,56.906"/>
    <line x1="585.6925" x2="587.3412" y1="54.256" y2="57.9871"/>
    <polyline points="586.4045,55.8674 586.2337,55.1051 586.3656,54.6486 586.617,54.4604 587.1735,54.5834"/>
    <polyline points="592.3936,53.9906 590.4843,53.5759 591.3388,55.9966 591.4126,55.7671 591.8655,55.6207 592.4351,55.7466 593.1202,56.1455 593.7281,56.774 594.2566,57.6286 594.4808,58.1674 594.6261,58.9287 594.4705,59.376 594.0164,59.5126 593.4526,59.3838 592.7779,58.9901 592.4779,58.6817 592.0643,58.1064"/>
    <line x1="664.6394" x2="664.6394" y1="282.9678" y2="292.4255"/>
    <polyline points="664.6394,284.3189 665.5401,283.4182 666.4409,282.9678 667.792,282.9678 668.6927,283.4182 669.5935,284.3189 670.0438,285.67 670.0438,286.5708 669.5935,287.9219 668.6927,288.8226 667.792,289.273 666.4409,289.273 665.5401,288.8226 664.6394,287.9219"/>
    <line x1="678.1504" x2="678.1504" y1="282.9678" y2="289.273"/>
    <polyline points="678.1504,284.3189 677.2497,283.4182 676.349,282.9678 674.9979,282.9678 674.0971,283.4182 673.1964,284.3189 672.746,285.67 672.746,286.5708 673.1964,287.9219 674.0971,288.8226 674.9979,289.273 676.349,289.273 677.2497,288.8226 678.1504,287.9219"/>
    <line x1="681.7534" x2="681.7534" y1="282.9678" y2="289.273"/>
    <polyline points="681.7534,284.7693 683.1045,283.4182 684.0052,282.9678 685.3563,282.9678 686.2571,283.4182 686.7074,284.7693 686.7074,289.273"/>
    <line x1="697.5162" x2="705.6229" y1="283.8686" y2="283.8686"/>
    <line x1="697.5162" x2="705.6229" y1="286.5708" y2="286.5708"/>
    <polyline points="716.4317,282.0671 716.4317,281.6167 716.8821,280.716 717.3324,280.2656 718.2332,279.8153 720.0346,279.8153 720.9354,280.2656 721.3857,280.716 721.8361,281.6167 721.8361,282.5175 721.3857,283.4182 720.485,284.7693 715.9813,289.273 722.2865,289.273"/>
    <polyline points="730.3931,279.8153 725.8894,279.8153 725.439,283.8686 725.8894,283.4182 727.2405,282.9678 728.5916,282.9678 729.9427,283.4182 730.8435,284.3189 731.2938,285.67 731.2938,286.5708 730.8435,287.9219 729.9427,288.8226 728.5916,289.273 727.2405,289.273 725.8894,288.8226 725.439,288.3722 724.9887,287.4715"/>
    <line x1="739.4004" x2="739.4004" y1="279.8153" y2="289.273"/>
    <polyline points="739.4004,284.3189 738.4997,283.4182 737.599,282.9678 736.2479,282.9678 735.3471,283.4182 734.4464,284.3189 733.996,285.67 733.996,286.5708 734.4464,287.9219 735.3471,288.8226 736.2479,289.273 737.599,289.273 738.4997,288.8226 739.4004,287.9219"/>
    <polyline points="742.553,285.67 747.9574,285.67 747.9574,284.7693 747.5071,283.8686 747.0567,283.4182 746.156,282.9678 744.8049,282.9678 743.9041,283.4182 743.0034,284.3189 742.553,285.67 742.553,286.5708 743.0034,287.9219 743.9041,288.8226 744.8049,289.273 746.156,289.273 747.0567,288.8226 747.9574,287.9219"/>
    <polyline points="756.064,282.9678 756.064,290.1737 755.6137,291.5248 755.1633,291.9752 754.2626,292.4255 752.9115,292.4255 752.0107,291.9752"/>
    <polyline points="756.064,284.3189 755.1633,283.4182 754.2626,282.9678 752.9115,282.9678 752.0107,283.4182 751.11,284.3189 750.6596,285.67 750.6596,286.5708 751.11,287.9219 752.0107,288.8226 752.9115,289.273 754.2626,289.273 755.1633,288.8226 756.064,287.9219"/>
    <polyline points="668.4675,297.2455 668.4675,304.9018 668.9179,306.2529 669.8186,306.7033 670.7194,306.7033"/>
    <line x1="667.1164" x2="670.269" y1="300.3981" y2="300.3981"/>
    <polygon points="672.9712,297.2455 673.4216,297.6959 673.8719,297.2455 673.4216,296.7952"/>
    <line x1="673.4216" x2="673.4216" y1="300.3981" y2="306.7033"/>
    <line x1="677.0245" x2="677.0245" y1="297.2455" y2="306.7033"/>
    <polyline points="681.0778,297.2455 681.0778,304.9018 681.5282,306.2529 682.4289,306.7033 683.3297,306.7033"/>
    <line x1="679.7267" x2="682.8793" y1="300.3981" y2="300.3981"/>
    <line x1="693.2378" x2="701.3444" y1="301.2989" y2="301.2989"/>
    <line x1="693.2378" x2="701.3444" y1="304.0011" y2="304.0011"/>
    <polyline points="716.2065,297.2455 711.7028,303.5507 718.4583,303.5507"/>
    <line x1="716.2065" x2="716.2065" y1="297.2455" y2="306.7033"/>
    <polyline points="726.1146,297.2455 721.6109,297.2455 721.1605,301.2989 721.6109,300.8485 722.962,300.3981 724.3131,300.3981 725.6642,300.8485 726.565,301.7492 727.0153,303.1003 727.0153,304.0011 726.565,305.3522 725.6642,306.2529 724.3131,306.7033 722.962,306.7033 721.6109,306.2529 721.1605,305.8025 720.7102,304.9018"/>
    <line x1="735.1219" x2="735.1219" y1="297.2455" y2="306.7033"/>
    <polyline points="735.1219,301.7492 734.2212,300.8485 733.3205,300.3981 731.9694,300.3981 731.0686,300.8485 730.1679,301.7492 729.7175,303.1003 729.7175,304.0011 730.1679,305.3522 731.0686,306.2529 731.9694,306.7033 733.3205,306.7033 734.2212,306.2529 735.1219,305.3522"/>
    <polyline points="738.2745,303.1003 743.6789,303.1003 743.6789,302.1996 743.2286,301.2989 742.7782,300.8485 741.8775,300.3981 740.5264,300.3981 739.6256,300.8485 738.7249,301.7492 738.2745,303.1003 738.2745,304.0011 738.7249,305.3522 739.6256,306.2529 740.5264,306.7033 741.8775,306.7033 742.7782,306.2529 743.6789,305.3522"/>
    <polyline points="751.7855,300.3981 751.7855,307.604 751.3352,308.9551 750.8848,309.4055 749.9841,309.8558 748.633,309.8558 747.7322,309.4055"/>
    <polyline points="751.7855,301.7492 750.8848,300.8485 749.9841,300.3981 748.633,300.3981 747.7322,300.8485 746.8315,301.7492 746.3811,303.1003 746.3811,304.0011 746.8315,305.3522 747.7322,306.2529 748.633,306.7033 749.9841,306.7033 750.8848,306.2529 751.7855,305.3522"/>
    <polyline points="921.538,118.605 950.8088,207.6333 1064.3458,261.6425 1122.5197,204.9991"/>
    <line x1="1122.5197" x2="921.538" y1="184.1425" y2="118.605"/>
    <line x1="924.0567" x2="925.0484" y1="120.5274" y2="123.6276"/>
    <line x1="927.2608" x2="927.8942" y1="122.5185" y2="124.5774"/>
    <polyline points="927.3976,122.9631 927.003,122.5667 926.6538,122.3181 926.1995,122.1682 925.9436,122.2167 925.735,122.413 925.7239,122.8056 925.8166,123.0995 926.105,123.5887 926.4965,123.9805 926.842,124.2263 927.2924,124.3766 927.5481,124.3312 927.7595,124.1396"/>
    <line x1="928.174" x2="929.7081" y1="122.82" y2="125.1828"/>
    <polyline points="930.0102,123.4262 929.7081,125.1828 929.5799,125.6628 929.3652,125.851 929.1077,125.8943 928.9572,125.8438"/>
    <polyline points="931.0392,124.5686 932.8873,125.1816 932.8033,124.8861 932.5641,124.5385 932.3668,124.3388 932.0145,124.0878 931.5506,123.9347 931.285,123.9814 931.0633,124.1761 931.0392,124.5686 931.1253,124.8631 931.4071,125.3542 931.7983,125.7487 932.1469,125.9968 932.6067,126.1503 932.872,126.1068 933.0964,125.9168"/>
    <line x1="933.7228" x2="934.3" y1="124.6518" y2="126.7154"/>
    <polyline points="933.9716,125.5412 934.003,125.1489 934.232,124.955 934.5031,124.9093 934.9724,125.0643"/>
    <polyline points="938.4832,125.8131 938.7631,125.768 939.1268,125.4744 939.9206,128.5913"/>
    <polyline points="908.064,129.9341 944.3175,217.5507 1057.7587,274.3257"/>
    <line x1="1064.4222" x2="1122.5197" y1="274.3257" y2="227.9618"/>
    <line x1="1122.5197" x2="908.064" y1="206.7674" y2="129.9341"/>
    <line x1="910.7792" x2="912.046" y1="131.9704" y2="135.1026"/>
    <line x1="914.1945" x2="915.0082" y1="134.1081" y2="136.1864"/>
    <polyline points="914.3703,134.5572 913.9371,134.1435 913.5623,133.8791 913.0892,133.7077 912.8339,133.7435 912.639,133.9286 912.6608,134.3186 912.7794,134.6153 913.1127,135.1158 913.5422,135.5244 913.9127,135.7856 914.3817,135.9571 914.637,135.9247 914.8353,135.7447"/>
    <line x1="915.1458" x2="916.8976" y1="134.4528" y2="136.8777"/>
    <polyline points="917.0595,135.146 916.8976,136.8777 916.8071,137.348 916.605,137.5242 916.3475,137.5544 916.1908,137.4968"/>
    <polyline points="918.198,136.3331 920.1251,137.0343 920.0157,136.7362 919.7444,136.3786 919.5277,136.1702 919.1494,135.9031 918.6655,135.7279 918.3995,135.7612 918.1903,135.944 918.198,136.3331 918.3095,136.6302 918.6358,137.1323 919.0652,137.5437 919.4393,137.8076 919.9187,137.983 920.1847,137.953 920.3972,137.7754"/>
    <line x1="920.9315" x2="921.6846" y1="136.5488" y2="138.6291"/>
    <polyline points="921.2562,137.4458 921.2566,137.0572 921.4737,136.8757 921.7458,136.8437 922.2356,137.0212"/>
    <polyline points="925.5888,137.9721 925.5374,137.8212 925.6006,137.5788 925.7156,137.4873 925.9978,137.4557 926.6663,137.6967 927.0518,137.9693 927.2697,138.1813 927.5376,138.5442 927.6376,138.8458 927.5705,139.0859 927.3871,139.4143 926.2364,140.2944 928.5434,141.1385"/>
    <polyline points="892.5862,142.948 937.296,228.2782 1024.5094,274.3257"/>
    <line x1="1090.095" x2="1122.5197" y1="274.3257" y2="255.2075"/>
    <line x1="1122.5197" x2="892.5862" y1="234.3475" y2="142.948"/>
    <line x1="895.5308" x2="897.1458" y1="145.1121" y2="148.2524"/>
    <line x1="899.187" x2="900.2294" y1="147.4196" y2="149.5007"/>
    <polyline points="899.4124,147.8695 898.933,147.4376 898.5285,147.1553 898.0358,146.9576 897.7841,146.9762 897.6094,147.1446 897.6743,147.5267 897.8258,147.8241 898.2144,148.3339 898.6892,148.7602 899.0887,149.0389 899.5769,149.2365 899.8291,149.2214 900.008,149.0587"/>
    <line x1="900.1781" x2="902.1976" y1="147.8174" y2="150.2974"/>
    <polyline points="902.1727,148.618 902.1976,150.2974 902.1577,150.75 901.9743,150.9085 901.7195,150.9211 901.5563,150.8548"/>
    <polyline points="903.4432,149.8507 905.4533,150.6605 905.3116,150.3625 905.0009,149.9957 904.7609,149.7781 904.3523,149.4927 903.8475,149.2902 903.584,149.3055 903.3937,149.4704 903.4432,149.8507 903.5871,150.1479 903.9684,150.659 904.4434,151.0882 904.847,151.3699 905.3471,151.5724 905.6109,151.5606 905.8054,151.4013"/>
    <line x1="906.2119" x2="907.1893" y1="150.2391" y2="152.3181"/>
    <polyline points="906.6336,151.136 906.5927,150.7568 906.7918,150.5938 907.062,150.5803 907.5734,150.7856"/>
    <polyline points="910.8848,151.2474 912.8082,152.016 912.2916,152.8025 912.8136,153.0122 913.2279,153.3018 913.4677,153.5213 913.8374,154.0381 913.9671,154.3346 913.9875,154.7075 913.7704,154.8617 913.3173,154.7988 912.8007,154.5897 912.2197,154.2343 911.9822,154.0178 911.6783,153.6536"/>
    <polyline points="874.6219,158.0526 929.6764,239.9194 991.26,274.3257"/>
    <line x1="1122.5197" x2="874.6219" y1="268.7109" y2="158.0526"/>
    <line x1="877.8373" x2="879.8997" y1="160.3609" y2="163.4724"/>
    <line x1="881.7709" x2="883.1076" y1="162.8674" y2="164.9258"/>
    <polyline points="882.0601,163.3127 881.5247,162.8618 881.0855,162.5591 880.5728,162.3284 880.3292,162.3237 880.1838,162.4673 880.3058,162.8343 880.4994,163.1286 880.9576,163.6446 881.4871,164.0893 881.9205,164.388 882.4285,164.6181 882.6732,164.6264 882.8239,164.4889"/>
    <line x1="882.8029" x2="885.1568" y1="163.3317" y2="165.8541"/>
    <polyline points="884.8807,164.2665 885.1568,165.8541 885.1854,166.2772 885.0293,166.41 884.7814,166.3989 884.6115,166.3216"/>
    <polyline points="886.3127,165.5449 888.4084,166.4906 888.225,166.1965 887.8651,165.8222 887.5969,165.5951 887.1527,165.2887 886.6264,165.0519 886.3698,165.0427 886.2073,165.1814 886.3127,165.5449 886.4983,165.8383 886.9488,166.3549 887.4791,166.8027 887.9174,167.1048 888.4387,167.3409 888.6962,167.3538 888.864,167.2213"/>
    <line x1="889.0927" x2="890.3599" y1="166.1615" y2="168.2114"/>
    <polyline points="889.6396,167.0462 889.5437,166.6847 889.7157,166.5488 889.9798,166.5606 890.5137,166.8008"/>
    <polyline points="895.3084,168.1931 894.7169,169.4442 897.4322,170.6701"/>
    <line x1="895.3084" x2="897.1199" y1="168.1931" y2="171.2739"/>
    <polyline points="861.0653,184.3359 921.379,252.5962 958.0106,274.3257"/>
    <line x1="1047.1036" x2="861.0653" y1="274.3257" y2="179.6365"/>
    <line x1="861.3159" x2="863.0376" y1="181.0107" y2="183.0069"/>
    <polyline points="861.6887,181.443 861.0843,180.9727 861.0653,180.9598"/>
    <polyline points="861.0653,181.8448 861.3308,182.051 861.8044,182.3726 862.3321,182.644 862.5629,182.6844 862.6725,182.5836"/>
    <line x1="862.3885" x2="865.1677" y1="181.5597" y2="184.1024"/>
    <polyline points="864.5492,182.6655 865.1677,184.1024 865.2901,184.4785 865.1737,184.5741 864.939,184.5305 864.7624,184.4394"/>
    <polyline points="866.1824,183.9874 868.3642,185.1064 868.1259,184.8223 867.7036,184.4433 867.4005,184.2065 866.914,183.8758 866.3661,183.5954 866.1228,183.5524 866.0015,183.6526 866.1824,183.9874 866.4227,184.2711 866.9619,184.7874 867.5604,185.2538 868.0398,185.5796 868.5824,185.8586 868.8275,185.9053 868.9558,185.8118"/>
    <line x1="868.9347" x2="870.5834" y1="184.91" y2="186.8878"/>
    <polyline points="869.6468,185.7642 869.476,185.4327 869.6078,185.3366 869.8592,185.3832 870.4158,185.668"/>
    <polyline points="875.6359,187.7513 873.7266,186.7766 874.581,187.9656 874.6548,187.9206 875.1078,188.0694 875.6774,188.3609 876.3624,188.7949 876.9703,189.2724 877.4989,189.7914 877.7231,190.071 877.8683,190.3909 877.7128,190.4735 877.2587,190.321 876.6949,190.031 876.0201,189.6033 875.7201,189.3682 875.3065,188.9936"/>
    <line x1="947.8817" x2="947.8817" y1="282.9678" y2="292.4255"/>
    <polyline points="947.8817,284.3189 948.7824,283.4182 949.6831,282.9678 951.0342,282.9678 951.935,283.4182 952.8357,284.3189 953.2861,285.67 953.2861,286.5708 952.8357,287.9219 951.935,288.8226 951.0342,289.273 949.6831,289.273 948.7824,288.8226 947.8817,287.9219"/>
    <line x1="961.3927" x2="961.3927" y1="282.9678" y2="289.273"/>
    <polyline points="961.3927,284.3189 960.4919,283.4182 959.5912,282.9678 958.2401,282.9678 957.3394,283.4182 956.4386,284.3189 955.9883,285.67 955.9883,286.5708 956.4386,287.9219 957.3394,288.8226 958.2401,289.273 959.5912,289.273 960.4919,288.8226 961.3927,287.9219"/>
    <line x1="964.9956" x2="964.9956" y1="282.9678" y2="289.273"/>
    <polyline points="964.9956,284.7693 966.3467,283.4182 967.2475,282.9678 968.5986,282.9678 969.4993,283.4182 969.9497,284.7693 969.9497,289.273"/>
    <line x1="980.7585" x2="988.8651" y1="283.8686" y2="283.8686"/>
    <line x1="980.7585" x2="988.8651" y1="286.5708" y2="286.5708"/>
    <polyline points="999.6739,282.0671 999.6739,281.6167 1000.1243,280.716 1000.5747,280.2656 1001.4754,279.8153 1003.2769,279.8153 1004.1776,280.2656 1004.628,280.716 1005.0783,281.6167 1005.0783,282.5175 1004.628,283.4182 1003.7272,284.7693 999.2236,289.273 1005.5287,289.273"/>
    <polyline points="1013.6353,279.8153 1009.1317,279.8153 1008.6813,283.8686 1009.1317,283.4182 1010.4828,282.9678 1011.8339,282.9678 1013.185,283.4182 1014.0857,284.3189 1014.5361,285.67 1014.5361,286.5708 1014.0857,287.9219 1013.185,288.8226 1011.8339,289.273 1010.4828,289.273 1009.1317,288.8226 1008.6813,288.3722 1008.2309,287.4715"/>
    <line x1="1022.6427" x2="1022.6427" y1="279.8153" y2="289.273"/>
    <polyline points="1022.6427,284.3189 1021.7419,283.4182 1020.8412,282.9678 1019.4901,282.9678 1018.5894,283.4182 1017.6886,284.3189 1017.2383,285.67 1017.2383,286.5708 1017.6886,287.9219 1018.5894,288.8226 1019.4901,289.273 1020.8412,289.273 1021.7419,288.8226 1022.6427,287.9219"/>
    <polyline points="1025.7953,285.67 1031.1997,285.67 1031.1997,284.7693 1030.7493,283.8686 1030.2989,283.4182 1029.3982,282.9678 1028.0471,282.9678 1027.1464,283.4182 1026.2456,284.3189 1025.7953,285.67 1025.7953,286.5708 1026.2456,287.9219 1027.1464,288.8226 1028.0471,289.273 1029.3982,289.273 1030.2989,288.8226 1031.1997,287.9219"/>
    <polyline points="1039.3063,282.9678 1039.3063,290.1737 1038.8559,291.5248 1038.4055,291.9752 1037.5048,292.4255 1036.1537,292.4255 1035.253,291.9752"/>
    <polyline points="1039.3063,284.3189 1038.4055,283.4182 1037.5048,282.9678 1036.1537,282.9678 1035.253,283.4182 1034.3522,284.3189 1033.9019,285.67 1033.9019,286.5708 1034.3522,287.9219 1035.253,288.8226 1036.1537,289.273 1037.5048,289.273 1038.4055,288.8226 1039.3063,287.9219"/>
    <polyline points="951.7098,297.2455 951.7098,304.9018 952.1601,306.2529 953.0609,306.7033 953.9616,306.7033"/>
    <line x1="950.3587" x2="953.5112" y1="300.3981" y2="300.3981"/>
    <polygon points="956.2135,297.2455 956.6638,297.6959 957.1142,297.2455 956.6638,296.7952"/>
    <line x1="956.6638" x2="956.6638" y1="300.3981" y2="306.7033"/>
    <line x1="960.2668" x2="960.2668" y1="297.2455" y2="306.7033"/>
    <polyline points="964.3201,297.2455 964.3201,304.9018 964.7704,306.2529 965.6712,306.7033 966.5719,306.7033"/>
    <line x1="962.969" x2="966.1215" y1="300.3981" y2="300.3981"/>
    <line x1="976.48" x2="984.5866" y1="301.2989" y2="301.2989"/>
    <line x1="976.48" x2="984.5866" y1="304.0011" y2="304.0011"/>
    <polyline points="999.4487,297.2455 994.9451,303.5507 1001.7006,303.5507"/>
    <line x1="999.4487" x2="999.4487" y1="297.2455" y2="306.7033"/>
    <polyline points="1009.3568,297.2455 1004.8532,297.2455 1004.4028,301.2989 1004.8532,300.8485 1006.2043,300.3981 1007.5554,300.3981 1008.9065,300.8485 1009.8072,301.7492 1010.2576,303.1003 1010.2576,304.0011 1009.8072,305.3522 1008.9065,306.2529 1007.5554,306.7033 1006.2043,306.7033 1004.8532,306.2529 1004.4028,305.8025 1003.9524,304.9018"/>
    <line x1="1018.3642" x2="1018.3642" y1="297.2455" y2="306.7033"/>
    <polyline points="1018.3642,301.7492 1017.4635,300.8485 1016.5627,300.3981 1015.2116,300.3981 1014.3109,300.8485 1013.4101,301.7492 1012.9598,303.1003 1012.9598,304.0011 1013.4101,305.3522 1014.3109,306.2529 1015.2116,306.7033 1016.5627,306.7033 1017.4635,306.2529 1018.3642,305.3522"/>
    <polyline points="1021.5168,303.1003 1026.9212,303.1003 1026.9212,302.1996 1026.4708,301.2989 1026.0204,300.8485 1025.1197,300.3981 1023.7686,300.3981 1022.8679,300.8485 1021.9671,301.7492 1021.5168,303.1003 1021.5168,304.0011 1021.9671,305.3522 1022.8679,306.2529 1023.7686,306.7033 1025.1197,306.7033 1026.0204,306.2529 1026.9212,305.3522"/>
    <polyline points="1035.0278,300.3981 1035.0278,307.604 1034.5774,308.9551 1034.1271,309.4055 1033.2263,309.8558 1031.8752,309.8558 1030.9745,309.4055"/>
    <polyline points="1035.0278,301.7492 1034.1271,300.8485 1033.2263,300.3981 1031.8752,300.3981 1030.9745,300.8485 1030.0737,301.7492 1029.6234,303.1003 1029.6234,304.0011 1030.0737,305.3522 1030.9745,306.2529 1031.8752,306.7033 1033.2263,306.7033 1034.1271,306.2529 1035.0278,305.3522"/>
    <line x1="922.2107" x2="922.2107" y1="317.8284" y2="324.1336"/>
    <polyline points="922.2107,319.6299 923.5618,318.2788 924.4625,317.8284 925.8136,317.8284 926.7144,318.2788 927.1647,319.6299 927.1647,324.1336"/>
    <polyline points="927.1647,319.6299 928.5158,318.2788 929.4166,317.8284 930.7677,317.8284 931.6684,318.2788 932.1188,319.6299 932.1188,324.1336"/>
    <polygon points="937.5232,317.8284 936.6225,318.2788 935.7217,319.1795 935.2714,320.5306 935.2714,321.4313 935.7217,322.7825 936.6225,323.6832 937.5232,324.1336 938.8743,324.1336 939.775,323.6832 940.6758,322.7825 941.1261,321.4313 941.1261,320.5306 940.6758,319.1795 939.775,318.2788 938.8743,317.8284"/>
    <line x1="943.378" x2="946.0802" y1="317.8284" y2="324.1336"/>
    <line x1="948.7824" x2="946.0802" y1="317.8284" y2="324.1336"/>
    <polyline points="951.0342,320.5306 956.4386,320.5306 956.4386,319.6299 955.9883,318.7291 955.5379,318.2788 954.6372,317.8284 953.2861,317.8284 952.3853,318.2788 951.4846,319.1795 951.0342,320.5306 951.0342,321.4313 951.4846,322.7825 952.3853,323.6832 953.2861,324.1336 954.6372,324.1336 955.5379,323.6832 956.4386,322.7825"/>
    <line x1="966.7971" x2="974.9037" y1="318.7291" y2="318.7291"/>
    <line x1="966.7971" x2="974.9037" y1="321.4313" y2="321.4313"/>
    <polyline points="988.8651,312.8744 987.9644,313.7751 987.0636,315.1262 986.1629,316.9277 985.7125,319.1795 985.7125,320.981 986.1629,323.2328 987.0636,325.0343 987.9644,326.3854 988.8651,327.2861"/>
    <polygon points="994.2695,314.6758 992.9184,315.1262 992.0177,316.4773 991.5673,318.7291 991.5673,320.0802 992.0177,322.3321 992.9184,323.6832 994.2695,324.1336 995.1703,324.1336 996.5214,323.6832 997.4221,322.3321 997.8725,320.0802 997.8725,318.7291 997.4221,316.4773 996.5214,315.1262 995.1703,314.6758"/>
    <polyline points="1001.4754,322.3321 1001.025,322.7825 1000.5747,322.3321 1001.025,321.8817 1001.4754,322.3321 1001.4754,323.2328 1000.5747,324.1336"/>
    <polyline points="1016.7879,314.6758 1012.2842,314.6758 1011.8339,318.7291 1012.2842,318.2788 1013.6353,317.8284 1014.9864,317.8284 1016.3375,318.2788 1017.2383,319.1795 1017.6886,320.5306 1017.6886,321.4313 1017.2383,322.7825 1016.3375,323.6832 1014.9864,324.1336 1013.6353,324.1336 1012.2842,323.6832 1011.8339,323.2328 1011.3835,322.3321"/>
    <polyline points="1025.7953,319.1795 1024.8945,318.2788 1023.9938,317.8284 1022.6427,317.8284 1021.7419,318.2788 1020.8412,319.1795 1020.3908,320.5306 1020.3908,321.4313 1020.8412,322.7825 1021.7419,323.6832 1022.6427,324.1336 1023.9938,324.1336 1024.8945,323.6832 1025.7953,322.7825"/>
    <line x1="1028.9478" x2="1028.9478" y1="317.8284" y2="324.1336"/>
    <polyline points="1028.9478,319.6299 1030.2989,318.2788 1031.1997,317.8284 1032.5508,317.8284 1033.4515,318.2788 1033.9019,319.6299 1033.9019,324.1336"/>
    <polyline points="1033.9019,319.6299 1035.253,318.2788 1036.1537,317.8284 1037.5048,317.8284 1038.4055,318.2788 1038.8559,319.6299 1038.8559,324.1336"/>
    <polyline points="1042.9092,322.3321 1042.4589,322.7825 1042.0085,322.3321 1042.4589,321.8817 1042.9092,322.3321 1042.9092,323.2328 1042.0085,324.1336"/>
    <polygon points="1055.5195,314.6758 1054.1684,315.1262 1053.2677,316.4773 1052.8173,318.7291 1052.8173,320.0802 1053.2677,322.3321 1054.1684,323.6832 1055.5195,324.1336 1056.4203,324.1336 1057.7714,323.6832 1058.6721,322.3321 1059.1225,320.0802 1059.1225,318.7291 1058.6721,316.4773 1057.7714,315.1262 1056.4203,314.6758"/>
    <polyline points="1061.8247,312.8744 1062.7254,313.7751 1063.6261,315.1262 1064.5269,316.9277 1064.9772,319.1795 1064.9772,320.981 1064.5269,323.2328 1063.6261,325.0343 1062.7254,326.3854 1061.8247,327.2861"/>
  </g>
  <g fill="none" id="layer7" inkscape:groupmode="layer" inkscape:label="7" stroke="#808080" style="display:inline">
    <polygon points="11.3386,12.8714 11.3386,274.3257 272.793,274.3257 272.793,12.8714"/>
    <polygon points="294.5808,12.8714 294.5808,274.3257 556.0352,274.3257 556.0352,12.8714"/>
    <polygon points="577.8231,12.8714 577.8231,274.3257 839.2774,274.3257 839.2774,12.8714"/>
    <polygon points="861.0653,12.8714 861.0653,274.3257 1122.5197,274.3257 1122.5197,12.8714"/>
  </g>
</svg>
