<svg xmlns="http://www.w3.org/2000/svg" xmlns:cc="http://creativecommons.org/ns" xmlns:ev="http://www.w3.org/2001/xml-events" xmlns:rdf="http://www.w3.org/1999/02/22-rdf-syntax-ns" xmlns:xlink="http://www.w3.org/1999/xlink" width="30cm" height="14cm" baseProfile="tiny" version="1.2" viewBox="0 0 1133.858 529.134"><metadata><rdf:RDF><cc:Work/></rdf:RDF></metadata><g id="layer9" fill="none" stroke="#00f" style="display:inline"><polygon points="285.431 11.339 282.157 187.623 449.838 300.691 472.621 123.078"/><line x1="288.31" x2="288.174" y1="13.088" y2="19.837"/><line x1="293.724" x2="293.62" y1="18.608" y2="23.104"/><polyline points="293.702 19.573 293.141 18.585 292.573 17.919 291.71 17.403 291.128 17.381 290.54 17.681 290.232 18.473 290.219 19.115 290.485 20.249 291.044 21.234 291.611 21.898 292.471 22.415 293.053 22.439 293.642 22.142"/><line x1="295.454" x2="297.073" y1="19.642" y2="25.175"/><polyline points="298.92 21.715 297.073 25.175 296.465 26.11 295.874 26.405 295.291 26.379 295.004 26.206"/><polyline points="300.316 24.511 303.793 26.593 303.812 25.95 303.54 25.132 303.259 24.637 302.688 23.967 301.817 23.447 301.228 23.422 300.631 23.719 300.316 24.511 300.299 25.154 300.562 26.29 301.123 27.279 301.692 27.947 302.561 28.467 303.149 28.494 303.747 28.2"/><line x1="305.885" x2="305.75" y1="25.879" y2="30.381"/><polyline points="305.827 27.811 306.147 27.02 306.748 26.724 307.341 26.75 308.216 27.273"/><polyline points="314.976 30.326 315.575 30.354 316.491 29.911 316.248 36.679"/><polygon points="251.315 32.324 251.315 208.992 419.195 325.309 438.779 147.637"/><line x1="254.196" x2="254.185" y1="34.127" y2="40.899"/><line x1="259.653" x2="259.632" y1="39.755" y2="44.267"/><polyline points="259.649 40.723 259.076 39.723 258.501 39.045 257.638 38.513 257.062 38.482 256.486 38.773 256.196 39.563 256.194 40.208 256.478 41.35 257.05 42.348 257.622 43.024 258.483 43.556 259.059 43.59 259.637 43.302"/><line x1="261.383" x2="263.086" y1="40.821" y2="46.401"/><polyline points="264.851 42.957 263.086 46.401 262.502 47.331 261.923 47.616 261.346 47.581 261.058 47.403"/><polyline points="266.283 45.787 269.762 47.934 269.769 47.288 269.485 46.463 269.198 45.961 268.62 45.279 267.749 44.743 267.166 44.709 266.581 44.997 266.283 45.787 266.278 46.432 266.559 47.577 267.132 48.579 267.708 49.258 268.577 49.795 269.159 49.831 269.746 49.546"/><line x1="271.819" x2="271.767" y1="47.25" y2="51.767"/><polyline points="271.797 49.189 272.099 48.4 272.689 48.112 273.276 48.148 274.151 48.687"/><polyline points="280.305 51.825 280.31 51.501 280.615 51.033 280.913 50.89 281.507 50.927 282.683 51.651 283.267 52.337 283.555 52.843 283.838 53.673 283.826 54.321 283.52 54.787 282.915 55.395 279.929 56.812 284.032 59.348"/><polygon points="216.143 53.959 219.612 230.957 387.633 350.666 403.802 173.021"/><line x1="219.024" x2="219.146" y1="55.817" y2="62.612"/><line x1="224.525" x2="224.593" y1="61.558" y2="66.084"/><polyline points="224.54 62.529 223.954 61.516 223.373 60.826 222.51 60.277 221.94 60.236 221.377 60.518 221.106 61.306 221.117 61.953 221.42 63.104 222.004 64.115 222.583 64.803 223.444 65.352 224.013 65.395 224.578 65.116"/><line x1="226.255" x2="228.047" y1="62.657" y2="68.286"/><polyline points="229.722 64.861 228.047 68.286 227.487 69.208 226.921 69.484 226.35 69.439 226.063 69.255"/><polyline points="231.192 67.725 234.672 69.938 234.665 69.291 234.369 68.458 234.075 67.949 233.491 67.255 232.62 66.702 232.044 66.658 231.471 66.937 231.192 67.725 231.2 68.372 231.5 69.525 232.086 70.54 232.668 71.232 233.536 71.785 234.113 71.832 234.687 71.555"/><line x1="236.69" x2="236.727" y1="69.288" y2="73.819"/><polyline points="236.706 71.233 236.989 70.446 237.566 70.168 238.147 70.214 239.022 70.77"/><polyline points="245.453 72.585 248.69 74.639 246.929 76.119 247.811 76.68 248.4 77.378 248.695 77.89 248.99 79.05 248.991 79.698 248.698 80.482 248.112 80.754 247.233 80.516 246.354 79.956 245.474 79.073 245.18 78.563 244.885 77.73"/><polygon points="63.851 147.637 83.435 325.309 251.315 460.182 251.315 283.685"/><line x1="66.716" x2="67.462" y1="149.745" y2="156.608"/><line x1="72.391" x2="72.874" y1="155.982" y2="160.553"/><polyline points="72.495 156.964 71.853 155.894 71.246 155.15 70.389 154.527 69.852 154.439 69.352 154.678 69.172 155.451 69.242 156.103 69.632 157.289 70.272 158.356 70.877 159.097 71.733 159.72 72.269 159.811 72.771 159.575"/><line x1="74.111" x2="76.308" y1="157.232" y2="163.054"/><polyline points="77.558 159.737 76.308 163.054 75.87 163.938 75.366 164.171 74.828 164.078 74.542 163.87"/><polyline points="79.198 162.746 82.658 165.263 82.592 164.61 82.238 163.745 81.916 163.208 81.305 162.461 80.439 161.831 79.896 161.739 79.386 161.975 79.198 162.746 79.265 163.399 79.652 164.587 80.294 165.658 80.903 166.403 81.766 167.033 82.31 167.127 82.821 166.895"/><line x1="84.487" x2="84.94" y1="164.773" y2="169.345"/><polyline points="84.681 166.736 84.874 165.965 85.388 165.732 85.936 165.826 86.807 166.459"/><line x1="96.511" x2="94.226" y1="171.369" y2="176.113"/><line x1="92.411" x2="96.511" y1="168.393" y2="171.369"/><polygon points="22.584 173.021 46.838 350.666 214.473 489.781 209.703 313.884"/><line x1="25.441" x2="26.369" y1="175.199" y2="182.072"/><line x1="31.159" x2="31.764" y1="181.574" y2="186.15"/><polyline points="31.289 182.556 30.632 181.471 30.018 180.714 29.163 180.069 28.638 179.967 28.156 180.193 28.003 180.96 28.091 181.614 28.506 182.808 29.161 183.89 29.773 184.645 30.626 185.29 31.151 185.394 31.635 185.172"/><line x1="32.873" x2="35.186" y1="182.866" y2="188.737"/><polyline points="36.31 185.456 35.186 188.737 34.785 189.608 34.3 189.827 33.773 189.721 33.488 189.506"/><polyline points="37.998 188.503 41.447 191.106 41.364 190.452 40.993 189.579 40.663 189.034 40.046 188.272 39.182 187.621 38.649 187.516 38.159 187.738 37.998 188.503 38.082 189.157 38.494 190.353 39.152 191.439 39.767 192.199 40.628 192.85 41.161 192.958 41.654 192.74"/><line x1="43.217" x2="43.792" y1="190.663" y2="195.241"/><polyline points="43.464 192.628 43.63 191.864 44.125 191.644 44.662 191.752 45.53 192.407"/><polygon points="52.515 195.581 51.679 195.251 51.467 195.689 51.547 196.346 51.917 197.221 52.539 197.988 53.745 199.196 54.659 200.183 55.321 201.279 55.69 202.153 55.807 203.134 55.593 203.567 55.34 203.673 54.506 203.339 53.342 202.46 52.431 201.474 52.101 200.929 51.731 200.056 51.613 199.075 51.824 198.64 52.327 198.424 53.162 198.756 54.289 199.308 54.834 199.42 55.048 198.984 54.969 198.327 54.599 197.449 53.683 196.46"/><line x1="281.758" x2="281.758" y1="505.589" y2="517.795"/><polyline points="281.758 507.333 282.921 506.171 284.083 505.589 285.827 505.589 286.989 506.171 288.152 507.333 288.733 509.077 288.733 510.239 288.152 511.983 286.989 513.145 285.827 513.727 284.083 513.727 282.921 513.145 281.758 511.983"/><polyline points="293.383 501.521 293.383 511.402 293.964 513.145 295.126 513.727 296.289 513.727"/><line x1="291.639" x2="295.708" y1="505.589" y2="505.589"/><line x1="299.776" x2="299.776" y1="505.589" y2="513.727"/><polyline points="299.776 509.077 300.358 507.333 301.52 506.171 302.682 505.589 304.426 505.589"/><line x1="313.726" x2="313.726" y1="505.589" y2="513.727"/><polyline points="313.726 507.333 312.563 506.171 311.401 505.589 309.657 505.589 308.495 506.171 307.332 507.333 306.751 509.077 306.751 510.239 307.332 511.983 308.495 513.145 309.657 513.727 311.401 513.727 312.563 513.145 313.726 511.983"/><line x1="318.375" x2="318.375" y1="505.589" y2="513.727"/><polyline points="318.375 507.914 320.119 506.171 321.282 505.589 323.025 505.589 324.188 506.171 324.769 507.914 324.769 513.727"/><polyline points="335.231 507.333 334.65 506.171 332.906 505.589 331.163 505.589 329.419 506.171 328.838 507.333 329.419 508.496 330.581 509.077 333.487 509.658 334.65 510.239 335.231 511.402 335.231 511.983 334.65 513.145 332.906 513.727 331.163 513.727 329.419 513.145 328.838 511.983"/><line x1="339.3" x2="339.3" y1="501.521" y2="513.727"/><line x1="350.343" x2="350.343" y1="505.589" y2="513.727"/><polyline points="350.343 507.333 349.18 506.171 348.018 505.589 346.274 505.589 345.112 506.171 343.95 507.333 343.368 509.077 343.368 510.239 343.95 511.983 345.112 513.145 346.274 513.727 348.018 513.727 349.18 513.145 350.343 511.983"/><polyline points="355.574 501.521 355.574 511.402 356.155 513.145 357.318 513.727 358.48 513.727"/><line x1="353.83" x2="357.899" y1="505.589" y2="505.589"/><polyline points="361.386 509.077 368.361 509.077 368.361 507.914 367.78 506.752 367.199 506.171 366.036 505.589 364.292 505.589 363.13 506.171 361.967 507.333 361.386 509.077 361.386 510.239 361.967 511.983 363.13 513.145 364.292 513.727 366.036 513.727 367.199 513.145 368.361 511.983"/><line x1="381.729" x2="392.191" y1="508.496" y2="508.496"/><line x1="396.841" x2="396.841" y1="501.521" y2="513.727"/><polyline points="416.022 501.521 410.209 509.658 418.928 509.658"/><line x1="416.022" x2="416.022" y1="501.521" y2="513.727"/><polyline points="422.996 511.402 422.415 511.983 421.834 511.402 422.415 510.821 422.996 511.402 422.996 512.564 421.834 513.727"/><polyline points="433.458 501.521 427.646 501.521 427.065 506.752 427.646 506.171 429.39 505.589 431.134 505.589 432.877 506.171 434.04 507.333 434.621 509.077 434.621 510.239 434.04 511.983 432.877 513.145 431.134 513.727 429.39 513.727 427.646 513.145 427.065 512.564 426.484 511.402"/><polyline points="439.271 511.402 438.689 511.983 438.108 511.402 438.689 510.821 439.271 511.402 439.271 512.564 438.108 513.727"/><polyline points="450.314 503.265 449.733 502.102 447.989 501.521 446.827 501.521 445.083 502.102 443.921 503.846 443.339 506.752 443.339 509.658 443.921 511.983 445.083 513.145 446.827 513.727 447.408 513.727 449.151 513.145 450.314 511.983 450.895 510.239 450.895 509.658 450.314 507.914 449.151 506.752 447.408 506.171 446.827 506.171 445.083 506.752 443.921 507.914 443.339 509.658"/><polyline points="464.845 501.521 471.238 501.521 467.751 506.171 469.494 506.171 470.657 506.752 471.238 507.333 471.819 509.077 471.819 510.239 471.238 511.983 470.076 513.145 468.332 513.727 466.588 513.727 464.845 513.145 464.263 512.564 463.682 511.402"/><polyline points="482.281 507.333 481.119 506.171 479.957 505.589 478.213 505.589 477.05 506.171 475.888 507.333 475.307 509.077 475.307 510.239 475.888 511.983 477.05 513.145 478.213 513.727 479.957 513.727 481.119 513.145 482.281 511.983"/><line x1="486.35" x2="486.35" y1="505.589" y2="513.727"/><polyline points="486.35 507.914 488.094 506.171 489.256 505.589 491 505.589 492.162 506.171 492.743 507.914 492.743 513.727"/><polyline points="492.743 507.914 494.487 506.171 495.65 505.589 497.393 505.589 498.556 506.171 499.137 507.914 499.137 513.727"/><polygon points="515.993 501.521 514.249 502.102 513.086 503.846 512.505 506.752 512.505 508.496 513.086 511.402 514.249 513.145 515.993 513.727 517.155 513.727 518.899 513.145 520.061 511.402 520.642 508.496 520.642 506.752 520.061 503.846 518.899 502.102 517.155 501.521"/><polygon points="536.917 501.521 535.173 502.102 534.011 503.846 533.429 506.752 533.429 508.496 534.011 511.402 535.173 513.145 536.917 513.727 538.079 513.727 539.823 513.145 540.985 511.402 541.567 508.496 541.567 506.752 540.985 503.846 539.823 502.102 538.079 501.521"/><polygon points="847.802 11.339 844.528 187.623 1012.209 300.691 1034.992 123.078"/><line x1="850.681" x2="850.545" y1="13.088" y2="19.837"/><line x1="856.095" x2="855.991" y1="18.608" y2="23.104"/><polyline points="856.073 19.573 855.512 18.585 854.944 17.919 854.081 17.403 853.499 17.381 852.911 17.681 852.603 18.473 852.59 19.115 852.856 20.249 853.415 21.234 853.982 21.898 854.842 22.415 855.424 22.439 856.013 22.142"/><line x1="857.825" x2="859.444" y1="19.642" y2="25.175"/><polyline points="861.291 21.715 859.444 25.175 858.836 26.11 858.245 26.405 857.662 26.379 857.375 26.206"/><polyline points="862.687 24.511 866.164 26.593 866.183 25.95 865.911 25.132 865.63 24.637 865.059 23.967 864.188 23.447 863.599 23.422 863.003 23.719 862.687 24.511 862.67 25.154 862.933 26.29 863.494 27.279 864.064 27.947 864.932 28.467 865.52 28.494 866.118 28.2"/><line x1="868.256" x2="868.121" y1="25.879" y2="30.381"/><polyline points="868.198 27.811 868.518 27.02 869.12 26.724 869.712 26.75 870.587 27.273"/><polyline points="877.347 30.326 877.946 30.354 878.862 29.911 878.62 36.679"/><polygon points="813.686 32.324 813.686 208.992 981.566 325.309 1001.15 147.637"/><line x1="816.567" x2="816.556" y1="34.127" y2="40.899"/><line x1="822.024" x2="822.004" y1="39.755" y2="44.267"/><polyline points="822.02 40.723 821.447 39.723 820.872 39.045 820.009 38.513 819.433 38.482 818.857 38.773 818.567 39.563 818.565 40.208 818.849 41.35 819.421 42.348 819.994 43.024 820.855 43.556 821.43 43.59 822.008 43.302"/><line x1="823.754" x2="825.457" y1="40.821" y2="46.401"/><polyline points="827.222 42.957 825.457 46.401 824.873 47.331 824.294 47.616 823.717 47.581 823.429 47.403"/><polyline points="828.654 45.787 832.133 47.934 832.14 47.288 831.856 46.463 831.569 45.961 830.991 45.279 830.12 44.743 829.537 44.709 828.952 44.997 828.654 45.787 828.649 46.432 828.93 47.577 829.503 48.579 830.079 49.258 830.948 49.795 831.53 49.831 832.117 49.546"/><line x1="834.19" x2="834.138" y1="47.25" y2="51.767"/><polyline points="834.168 49.189 834.47 48.4 835.06 48.112 835.647 48.148 836.522 48.687"/><polyline points="842.676 51.825 842.681 51.501 842.986 51.033 843.285 50.89 843.878 50.927 845.055 51.651 845.638 52.337 845.926 52.843 846.209 53.673 846.197 54.321 845.891 54.787 845.286 55.395 842.3 56.812 846.403 59.348"/><polygon points="778.514 53.959 781.983 230.957 950.004 350.666 966.173 173.021"/><line x1="781.395" x2="781.517" y1="55.817" y2="62.612"/><line x1="786.896" x2="786.964" y1="61.558" y2="66.084"/><polyline points="786.911 62.529 786.325 61.516 785.744 60.826 784.881 60.277 784.312 60.236 783.748 60.518 783.477 61.306 783.488 61.953 783.791 63.104 784.375 64.115 784.954 64.803 785.815 65.352 786.384 65.395 786.949 65.116"/><line x1="788.626" x2="790.418" y1="62.657" y2="68.286"/><polyline points="792.093 64.861 790.418 68.286 789.859 69.208 789.292 69.484 788.721 69.439 788.434 69.255"/><polyline points="793.563 67.725 797.043 69.938 797.037 69.291 796.74 68.458 796.446 67.949 795.862 67.255 794.991 66.702 794.415 66.658 793.842 66.937 793.563 67.725 793.571 68.372 793.871 69.525 794.457 70.54 795.039 71.232 795.908 71.785 796.484 71.832 797.058 71.555"/><line x1="799.061" x2="799.098" y1="69.288" y2="73.819"/><polyline points="799.077 71.233 799.36 70.446 799.938 70.168 800.518 70.214 801.393 70.77"/><polyline points="807.824 72.585 811.061 74.639 809.3 76.119 810.182 76.68 810.771 77.378 811.066 77.89 811.361 79.05 811.362 79.698 811.069 80.482 810.483 80.754 809.604 80.516 808.725 79.956 807.845 79.073 807.551 78.563 807.256 77.73"/><polygon points="626.222 147.637 645.806 325.309 813.686 460.182 813.686 283.685"/><line x1="629.087" x2="629.833" y1="149.745" y2="156.608"/><line x1="634.762" x2="635.245" y1="155.982" y2="160.553"/><polyline points="634.866 156.964 634.225 155.894 633.618 155.15 632.76 154.527 632.223 154.439 631.723 154.678 631.543 155.451 631.613 156.103 632.003 157.289 632.643 158.356 633.248 159.097 634.104 159.72 634.64 159.811 635.142 159.575"/><line x1="636.482" x2="638.679" y1="157.232" y2="163.054"/><polyline points="639.929 159.737 638.679 163.054 638.241 163.938 637.737 164.171 637.199 164.078 636.913 163.87"/><polyline points="641.569 162.746 645.029 165.263 644.963 164.61 644.609 163.745 644.287 163.208 643.677 162.461 642.811 161.831 642.267 161.739 641.757 161.975 641.569 162.746 641.636 163.399 642.023 164.587 642.665 165.658 643.274 166.403 644.138 167.033 644.681 167.127 645.192 166.895"/><line x1="646.858" x2="647.311" y1="164.773" y2="169.345"/><polyline points="647.052 166.736 647.245 165.965 647.76 165.732 648.307 165.826 649.178 166.459"/><line x1="658.882" x2="656.597" y1="171.369" y2="176.113"/><line x1="654.782" x2="658.882" y1="168.393" y2="171.369"/><polygon points="584.956 173.021 609.209 350.666 776.844 489.781 772.074 313.884"/><line x1="587.812" x2="588.74" y1="175.199" y2="182.072"/><line x1="593.53" x2="594.135" y1="181.574" y2="186.15"/><polyline points="593.66 182.556 593.003 181.471 592.389 180.714 591.535 180.069 591.009 179.967 590.527 180.193 590.374 180.96 590.462 181.614 590.877 182.808 591.532 183.89 592.144 184.645 592.997 185.29 593.523 185.394 594.006 185.172"/><line x1="595.245" x2="597.557" y1="182.866" y2="188.737"/><polyline points="598.681 185.456 597.557 188.737 597.156 189.608 596.671 189.827 596.144 189.721 595.859 189.506"/><polyline points="600.369 188.503 603.818 191.106 603.735 190.452 603.364 189.579 603.034 189.034 602.417 188.272 601.553 187.621 601.02 187.516 600.53 187.738 600.369 188.503 600.453 189.157 600.865 190.353 601.523 191.439 602.138 192.199 602.999 192.85 603.533 192.958 604.025 192.74"/><line x1="605.588" x2="606.163" y1="190.663" y2="195.241"/><polyline points="605.835 192.628 606.001 191.864 606.496 191.644 607.033 191.752 607.901 192.407"/><polygon points="614.886 195.581 614.051 195.251 613.838 195.689 613.918 196.346 614.288 197.221 614.911 197.988 616.116 199.196 617.03 200.183 617.692 201.279 618.062 202.153 618.178 203.134 617.964 203.567 617.712 203.673 616.877 203.339 615.713 202.46 614.802 201.474 614.472 200.929 614.102 200.056 613.984 199.075 614.195 198.64 614.698 198.424 615.533 198.756 616.66 199.308 617.205 199.42 617.419 198.984 617.341 198.327 616.97 197.449 616.054 196.46"/><line x1="816.011" x2="816.011" y1="505.589" y2="517.795"/><polyline points="816.011 507.333 817.173 506.171 818.336 505.589 820.079 505.589 821.242 506.171 822.404 507.333 822.986 509.077 822.986 510.239 822.404 511.983 821.242 513.145 820.079 513.727 818.336 513.727 817.173 513.145 816.011 511.983"/><polyline points="827.635 501.521 827.635 511.402 828.216 513.145 829.379 513.727 830.541 513.727"/><line x1="825.892" x2="829.96" y1="505.589" y2="505.589"/><line x1="834.029" x2="834.029" y1="505.589" y2="513.727"/><polyline points="834.029 509.077 834.61 507.333 835.773 506.171 836.935 505.589 838.679 505.589"/><line x1="847.978" x2="847.978" y1="505.589" y2="513.727"/><polyline points="847.978 507.333 846.816 506.171 845.653 505.589 843.91 505.589 842.747 506.171 841.585 507.333 841.004 509.077 841.004 510.239 841.585 511.983 842.747 513.145 843.91 513.727 845.653 513.727 846.816 513.145 847.978 511.983"/><line x1="852.628" x2="852.628" y1="505.589" y2="513.727"/><polyline points="852.628 507.914 854.372 506.171 855.534 505.589 857.278 505.589 858.44 506.171 859.021 507.914 859.021 513.727"/><polyline points="869.484 507.333 868.902 506.171 867.159 505.589 865.415 505.589 863.671 506.171 863.09 507.333 863.671 508.496 864.834 509.077 867.74 509.658 868.902 510.239 869.484 511.402 869.484 511.983 868.902 513.145 867.159 513.727 865.415 513.727 863.671 513.145 863.09 511.983"/><line x1="873.552" x2="873.552" y1="501.521" y2="513.727"/><line x1="884.596" x2="884.596" y1="505.589" y2="513.727"/><polyline points="884.596 507.333 883.433 506.171 882.271 505.589 880.527 505.589 879.365 506.171 878.202 507.333 877.621 509.077 877.621 510.239 878.202 511.983 879.365 513.145 880.527 513.727 882.271 513.727 883.433 513.145 884.596 511.983"/><polyline points="889.827 501.521 889.827 511.402 890.408 513.145 891.57 513.727 892.733 513.727"/><line x1="888.083" x2="892.152" y1="505.589" y2="505.589"/><polyline points="895.639 509.077 902.614 509.077 902.614 507.914 902.032 506.752 901.451 506.171 900.289 505.589 898.545 505.589 897.383 506.171 896.22 507.333 895.639 509.077 895.639 510.239 896.22 511.983 897.383 513.145 898.545 513.727 900.289 513.727 901.451 513.145 902.614 511.983"/><line x1="915.982" x2="926.444" y1="508.496" y2="508.496"/><line x1="931.094" x2="931.094" y1="501.521" y2="513.727"/><polyline points="950.274 501.521 944.462 509.658 953.18 509.658"/><line x1="950.274" x2="950.274" y1="501.521" y2="513.727"/><polyline points="957.249 511.402 956.668 511.983 956.086 511.402 956.668 510.821 957.249 511.402 957.249 512.564 956.086 513.727"/><polyline points="967.711 501.521 961.899 501.521 961.317 506.752 961.899 506.171 963.642 505.589 965.386 505.589 967.13 506.171 968.292 507.333 968.873 509.077 968.873 510.239 968.292 511.983 967.13 513.145 965.386 513.727 963.642 513.727 961.899 513.145 961.317 512.564 960.736 511.402"/><polyline points="973.523 511.402 972.942 511.983 972.361 511.402 972.942 510.821 973.523 511.402 973.523 512.564 972.361 513.727"/><polyline points="984.567 503.265 983.985 502.102 982.242 501.521 981.079 501.521 979.336 502.102 978.173 503.846 977.592 506.752 977.592 509.658 978.173 511.983 979.336 513.145 981.079 513.727 981.66 513.727 983.404 513.145 984.567 511.983 985.148 510.239 985.148 509.658 984.567 507.914 983.404 506.752 981.66 506.171 981.079 506.171 979.336 506.752 978.173 507.914 977.592 509.658"/><line x1="998.516" x2="1008.978" y1="508.496" y2="508.496"/><line x1="1020.021" x2="1020.021" y1="505.589" y2="513.727"/><polyline points="1020.021 507.333 1018.859 506.171 1017.696 505.589 1015.953 505.589 1014.79 506.171 1013.628 507.333 1013.047 509.077 1013.047 510.239 1013.628 511.983 1014.79 513.145 1015.953 513.727 1017.696 513.727 1018.859 513.145 1020.021 511.983"/><polyline points="1034.552 501.521 1040.946 501.521 1037.458 506.171 1039.202 506.171 1040.364 506.752 1040.946 507.333 1041.527 509.077 1041.527 510.239 1040.946 511.983 1039.783 513.145 1038.039 513.727 1036.296 513.727 1034.552 513.145 1033.971 512.564 1033.389 511.402"/><polyline points="1051.989 507.333 1050.826 506.171 1049.664 505.589 1047.92 505.589 1046.758 506.171 1045.595 507.333 1045.014 509.077 1045.014 510.239 1045.595 511.983 1046.758 513.145 1047.92 513.727 1049.664 513.727 1050.826 513.145 1051.989 511.983"/><line x1="1056.057" x2="1056.057" y1="505.589" y2="513.727"/><polyline points="1056.057 507.914 1057.801 506.171 1058.964 505.589 1060.707 505.589 1061.87 506.171 1062.451 507.914 1062.451 513.727"/><polyline points="1062.451 507.914 1064.195 506.171 1065.357 505.589 1067.101 505.589 1068.263 506.171 1068.844 507.914 1068.844 513.727"/><polygon points="1085.7 501.521 1083.956 502.102 1082.794 503.846 1082.213 506.752 1082.213 508.496 1082.794 511.402 1083.956 513.145 1085.7 513.727 1086.862 513.727 1088.606 513.145 1089.768 511.402 1090.35 508.496 1090.35 506.752 1089.768 503.846 1088.606 502.102 1086.862 501.521"/><polygon points="1106.624 501.521 1104.88 502.102 1103.718 503.846 1103.137 506.752 1103.137 508.496 1103.718 511.402 1104.88 513.145 1106.624 513.727 1107.786 513.727 1109.53 513.145 1110.693 511.402 1111.274 508.496 1111.274 506.752 1110.693 503.846 1109.53 502.102 1107.786 501.521"/></g><g id="layer10" fill="none" stroke="#080" style="display:inline"><polygon points="233.021 111.094 234.891 288.649 410.646 417.514 430.372 240.37"/><line x1="236.04" x2="236.101" y1="113.103" y2="119.944"/><line x1="241.784" x2="241.809" y1="119.144" y2="123.701"/><polyline points="241.79 120.123 241.182 119.074 240.577 118.352 239.672 117.759 239.072 117.689 238.474 117.946 238.181 118.726 238.186 119.377 238.494 120.55 239.099 121.595 239.703 122.315 240.605 122.909 241.205 122.98 241.804 122.727"/><line x1="243.598" x2="245.43" y1="120.334" y2="126.084"/><polyline points="247.233 122.719 245.43 126.084 244.83 126.984 244.23 127.234 243.628 127.161 243.327 126.963"/><polyline points="248.755 125.672 252.403 128.069 252.403 127.417 252.099 126.565 251.794 126.038 251.185 125.312 250.272 124.713 249.664 124.64 249.057 124.894 248.755 125.672 248.756 126.324 249.06 127.499 249.668 128.548 250.275 129.272 251.186 129.872 251.793 129.947 252.402 129.696"/><line x1="254.54" x2="254.531" y1="127.513" y2="132.073"/><polyline points="254.536 129.47 254.843 128.693 255.456 128.441 256.068 128.516 256.986 129.118"/><polyline points="266.226 132.876 263.108 135.429 267.728 138.464"/><line x1="266.226" x2="266.166" y1="132.876" y2="139.73"/><polygon points="195.536 135.257 201.32 312.91 377.2 445.734 393.063 268.989"/><line x1="198.554" x2="198.766" y1="137.331" y2="144.187"/><line x1="204.346" x2="204.472" y1="143.502" y2="148.068"/><polyline points="204.373 144.482 203.751 143.419 203.139 142.683 202.235 142.07 201.642 141.988 201.059 142.234 200.787 143.009 200.806 143.661 201.136 144.842 201.756 145.902 202.366 146.636 203.268 147.249 203.861 147.333 204.445 147.091"/><line x1="206.159" x2="208.091" y1="144.731" y2="150.529"/><polyline points="209.793 147.195 208.091 150.529 207.52 151.418 206.934 151.657 206.34 151.571 206.039 151.366"/><polyline points="211.357 150.185 215.004 152.661 214.99 152.008 214.672 151.148 214.36 150.614 213.744 149.874 212.831 149.255 212.23 149.17 211.638 149.411 211.357 150.185 211.372 150.838 211.699 152.021 212.32 153.085 212.934 153.823 213.845 154.442 214.445 154.53 215.039 154.292"/><line x1="217.098" x2="217.19" y1="152.148" y2="156.717"/><polyline points="217.137 154.109 217.423 153.336 218.02 153.097 218.625 153.184 219.543 153.806"/><polyline points="229.349 158.18 226.262 156.09 225.998 158.831 226.301 158.712 227.22 159.012 228.145 159.638 229.074 160.593 229.7 161.666 230.021 162.856 230.029 163.51 229.734 164.279 229.126 164.512 228.207 164.21 227.285 163.583 226.359 162.63 226.047 162.096 225.73 161.235"/><polygon points="156.803 160.224 166.75 337.893 342.679 474.862 354.401 298.647"/><line x1="159.819" x2="160.192" y1="162.366" y2="169.234"/><line x1="165.659" x2="165.892" y1="168.671" y2="173.245"/><polyline points="165.709 169.654 165.072 168.576 164.453 167.826 163.55 167.192 162.965 167.097 162.398 167.329 162.15 168.099 162.184 168.753 162.536 169.943 163.171 171.017 163.788 171.765 164.689 172.399 165.274 172.496 165.842 172.267"/><line x1="167.47" x2="169.507" y1="169.942" y2="175.789"/><polyline points="171.101 172.489 169.507 175.789 168.968 176.666 168.398 176.893 167.812 176.793 167.511 176.581"/><polyline points="172.709 175.517 176.353 178.077 176.324 177.422 175.99 176.554 175.671 176.013 175.048 175.258 174.136 174.619 173.543 174.52 172.967 174.749 172.709 175.517 172.74 176.17 173.089 177.363 173.726 178.441 174.347 179.194 175.256 179.834 175.849 179.935 176.427 179.71"/><line x1="178.399" x2="178.599" y1="177.609" y2="182.185"/><polyline points="178.485 179.573 178.747 178.806 179.329 178.58 179.926 178.68 180.843 179.324"/><polyline points="190.932 185.123 190.6 184.25 189.661 183.272 189.044 182.84 188.131 182.52 187.553 183.074 187.308 184.498 187.371 186.134 187.728 187.656 188.367 188.741 189.301 189.715 189.608 189.931 190.519 190.254 191.111 190.035 191.383 189.271 191.371 188.944 191.028 187.746 190.387 186.658 189.45 185.682 189.142 185.466 188.231 185.145 187.641 185.368 187.371 186.134"/><polygon points="900.94 43.058 892.393 219.899 1067.38 337.893 1097.221 160.224"/><line x1="903.953" x2="903.614" y1="44.889" y2="51.672"/><line x1="909.554" x2="909.313" y1="50.572" y2="55.092"/><polyline points="909.502 51.543 908.934 50.535 908.349 49.852 907.446 49.312 906.827 49.275 906.192 49.562 905.842 50.351 905.809 50.997 906.06 52.144 906.627 53.148 907.21 53.83 908.111 54.37 908.729 54.409 909.365 54.125"/><line x1="911.364" x2="912.927" y1="51.655" y2="57.259"/><polyline points="914.993 53.824 912.927 57.259 912.253 58.185 911.615 58.466 910.996 58.426 910.695 58.245"/><polyline points="916.397 56.671 920.038 58.851 920.076 58.204 919.81 57.375 919.526 56.87 918.937 56.182 918.025 55.638 917.4 55.598 916.756 55.883 916.397 56.671 916.36 57.317 916.607 58.467 917.175 59.475 917.762 60.16 918.671 60.706 919.297 60.747 919.942 60.466"/><line x1="922.284" x2="922.01" y1="58.184" y2="62.708"/><polyline points="922.166 60.126 922.53 59.338 923.179 59.055 923.809 59.096 924.724 59.643"/><polyline points="934.073 62.868 930.698 65.571 935.305 68.33"/><line x1="934.073" x2="933.615" y1="62.868" y2="69.67"/><polygon points="900.94 43.058 892.393 219.899 1067.38 337.893 1097.221 160.224"/><line x1="903.953" x2="903.614" y1="44.889" y2="51.672"/><line x1="909.554" x2="909.313" y1="50.572" y2="55.092"/><polyline points="909.502 51.543 908.934 50.535 908.349 49.852 907.446 49.312 906.827 49.275 906.192 49.562 905.842 50.351 905.809 50.997 906.06 52.144 906.627 53.148 907.21 53.83 908.111 54.37 908.729 54.409 909.365 54.125"/><line x1="911.364" x2="912.927" y1="51.655" y2="57.259"/><polyline points="914.993 53.824 912.927 57.259 912.253 58.185 911.615 58.466 910.996 58.426 910.695 58.245"/><polyline points="916.397 56.671 920.038 58.851 920.076 58.204 919.81 57.375 919.526 56.87 918.937 56.182 918.025 55.638 917.4 55.598 916.756 55.883 916.397 56.671 916.36 57.317 916.607 58.467 917.175 59.475 917.762 60.16 918.671 60.706 919.297 60.747 919.942 60.466"/><line x1="922.284" x2="922.01" y1="58.184" y2="62.708"/><polyline points="922.166 60.126 922.53 59.338 923.179 59.055 923.809 59.096 924.724 59.643"/><polyline points="934.69 63.236 931.611 61.399 931.111 64.136 931.44 63.995 932.383 64.222 933.305 64.774 934.206 65.65 934.778 66.666 935.019 67.822 934.975 68.469 934.602 69.254 933.944 69.532 933.001 69.302 932.081 68.75 931.184 67.876 930.899 67.37 930.635 66.54"/><polygon points="900.94 43.058 892.393 219.899 1067.38 337.893 1097.221 160.224"/><line x1="903.953" x2="903.614" y1="44.889" y2="51.672"/><line x1="909.554" x2="909.313" y1="50.572" y2="55.092"/><polyline points="909.502 51.543 908.934 50.535 908.349 49.852 907.446 49.312 906.827 49.275 906.192 49.562 905.842 50.351 905.809 50.997 906.06 52.144 906.627 53.148 907.21 53.83 908.111 54.37 908.729 54.409 909.365 54.125"/><line x1="911.364" x2="912.927" y1="51.655" y2="57.259"/><polyline points="914.993 53.824 912.927 57.259 912.253 58.185 911.615 58.466 910.996 58.426 910.695 58.245"/><polyline points="916.397 56.671 920.038 58.851 920.076 58.204 919.81 57.375 919.526 56.87 918.937 56.182 918.025 55.638 917.4 55.598 916.756 55.883 916.397 56.671 916.36 57.317 916.607 58.467 917.175 59.475 917.762 60.16 918.671 60.706 919.297 60.747 919.942 60.466"/><line x1="922.284" x2="922.01" y1="58.184" y2="62.708"/><polyline points="922.166 60.126 922.53 59.338 923.179 59.055 923.809 59.096 924.724 59.643"/><polyline points="934.932 64.395 934.668 63.562 933.765 62.685 933.149 62.317 932.205 62.091 931.525 62.698 931.111 64.136 931.005 65.754 931.226 67.231 931.796 68.244 932.695 69.118 933.001 69.302 933.944 69.532 934.602 69.254 934.975 68.469 934.997 68.145 934.756 66.99 934.184 65.974 933.283 65.098 932.976 64.914 932.032 64.687 931.376 64.967 931.005 65.754"/></g></svg>