<?xml version="1.0" encoding="utf-8" ?>
<svg xmlns="http://www.w3.org/2000/svg" xmlns:cc="http://creativecommons.org/ns" xmlns:dc="http://purl.org/dc/elements/1.1/" xmlns:ev="http://www.w3.org/2001/xml-events" xmlns:inkscape="http://www.inkscape.org/namespaces/inkscape" xmlns:rdf="http://www.w3.org/1999/02/22-rdf-syntax-ns" xmlns:sodipodi="http://sodipodi.sourceforge.net/DTD/sodipodi-0.dtd" xmlns:xlink="http://www.w3.org/1999/xlink" baseProfile="tiny" height="10.0cm" version="1.2" viewBox="0 0 377.95275590551176 377.95275590551176" width="10.0cm">
  <metadata>
    <rdf:RDF>
      <cc:Work>
        <dc:format>image/svg+xml</dc:format>
        <dc:source>vpype -I figures/fig_basic_demo.vpy write figures/fig_basic_demo.svg
</dc:source>
        <dc:date>2022-03-31T12:15:52.940091</dc:date>
      </cc:Work>
    </rdf:RDF>
  </metadata>
  <defs/>
  <g fill="none" id="layer1" inkscape:groupmode="layer" inkscape:label="1" stroke="#0000ff" style="display:inline">
    <polygon points="59.707,59.707 59.707,318.2458 318.2458,318.2458 318.2458,59.707"/>
    <line x1="63.3184" x2="63.3184" y1="61.7995" y2="67.1864"/>
    <line x1="68.1923" x2="68.1923" y1="63.5952" y2="67.1864"/>
    <polyline points="68.1923,64.3647 67.6793,63.8517 67.1662,63.5952 66.3967,63.5952 65.8836,63.8517 65.3706,64.3647 65.1141,65.1343 65.1141,65.6473 65.3706,66.4169 65.8836,66.9299 66.3967,67.1864 67.1662,67.1864 67.6793,66.9299 68.1923,66.4169"/>
    <line x1="69.7314" x2="71.2705" y1="63.5952" y2="67.1864"/>
    <polyline points="72.8096,63.5952 71.2705,67.1864 70.7575,68.2125 70.2445,68.7255 69.7314,68.9821 69.4749,68.9821"/>
    <polyline points="74.0922,65.1343 77.1705,65.1343 77.1705,64.6212 76.9139,64.1082 76.6574,63.8517 76.1444,63.5952 75.3748,63.5952 74.8618,63.8517 74.3488,64.3647 74.0922,65.1343 74.0922,65.6473 74.3488,66.4169 74.8618,66.9299 75.3748,67.1864 76.1444,67.1864 76.6574,66.9299 77.1705,66.4169"/>
    <line x1="78.9661" x2="78.9661" y1="63.5952" y2="67.1864"/>
    <polyline points="78.9661,65.1343 79.2226,64.3647 79.7357,63.8517 80.2487,63.5952 81.0183,63.5952"/>
    <polyline points="86.9182,62.8256 87.4312,62.5691 88.2008,61.7995 88.2008,67.1864"/>
    <polygon points="48.6207,48.6207 48.6207,329.3321 329.3321,329.3321 329.3321,48.6207"/>
    <line x1="52.5418" x2="52.5418" y1="50.8927" y2="56.7415"/>
    <line x1="57.8337" x2="57.8337" y1="52.8423" y2="56.7415"/>
    <polyline points="57.8337,53.6778 57.2767,53.1208 56.7196,52.8423 55.8841,52.8423 55.327,53.1208 54.77,53.6778 54.4915,54.5134 54.4915,55.0704 54.77,55.906 55.327,56.463 55.8841,56.7415 56.7196,56.7415 57.2767,56.463 57.8337,55.906"/>
    <line x1="59.5048" x2="61.1759" y1="52.8423" y2="56.7415"/>
    <polyline points="62.847,52.8423 61.1759,56.7415 60.6189,57.8556 60.0618,58.4127 59.5048,58.6912 59.2263,58.6912"/>
    <polyline points="64.2396,54.5134 67.5818,54.5134 67.5818,53.9564 67.3033,53.3993 67.0248,53.1208 66.4678,52.8423 65.6322,52.8423 65.0752,53.1208 64.5181,53.6778 64.2396,54.5134 64.2396,55.0704 64.5181,55.906 65.0752,56.463 65.6322,56.7415 66.4678,56.7415 67.0248,56.463 67.5818,55.906"/>
    <line x1="69.5315" x2="69.5315" y1="52.8423" y2="56.7415"/>
    <polyline points="69.5315,54.5134 69.81,53.6778 70.367,53.1208 70.9241,52.8423 71.7596,52.8423"/>
    <polyline points="77.6085,52.2853 77.6085,52.0067 77.887,51.4497 78.1655,51.1712 78.7226,50.8927 79.8366,50.8927 80.3937,51.1712 80.6722,51.4497 80.9507,52.0067 80.9507,52.5638 80.6722,53.1208 80.1152,53.9564 77.33,56.7415 81.2292,56.7415"/>
    <polygon points="35.4544,35.4544 35.4544,342.4984 342.4984,342.4984 342.4984,35.4544"/>
    <line x1="39.7434" x2="39.7434" y1="37.9395" y2="44.3371"/>
    <line x1="45.5317" x2="45.5317" y1="40.072" y2="44.3371"/>
    <polyline points="45.5317,40.986 44.9224,40.3767 44.3131,40.072 43.3991,40.072 42.7899,40.3767 42.1806,40.986 41.8759,41.8999 41.8759,42.5092 42.1806,43.4231 42.7899,44.0324 43.3991,44.3371 44.3131,44.3371 44.9224,44.0324 45.5317,43.4231"/>
    <line x1="47.3595" x2="49.1874" y1="40.072" y2="44.3371"/>
    <polyline points="51.0153,40.072 49.1874,44.3371 48.5781,45.5557 47.9688,46.1649 47.3595,46.4696 47.0549,46.4696"/>
    <polyline points="52.5385,41.8999 56.1942,41.8999 56.1942,41.2906 55.8896,40.6813 55.585,40.3767 54.9757,40.072 54.0617,40.072 53.4524,40.3767 52.8431,40.986 52.5385,41.8999 52.5385,42.5092 52.8431,43.4231 53.4524,44.0324 54.0617,44.3371 54.9757,44.3371 55.585,44.0324 56.1942,43.4231"/>
    <line x1="58.3268" x2="58.3268" y1="40.072" y2="44.3371"/>
    <polyline points="58.3268,41.8999 58.6314,40.986 59.2407,40.3767 59.85,40.072 60.7639,40.072"/>
    <polyline points="67.4661,37.9395 70.8172,37.9395 68.9893,40.3767 69.9033,40.3767 70.5126,40.6813 70.8172,40.986 71.1219,41.8999 71.1219,42.5092 70.8172,43.4231 70.2079,44.0324 69.294,44.3371 68.3801,44.3371 67.4661,44.0324 67.1615,43.7278 66.8568,43.1185"/>
    <polygon points="19.5623,19.5623 19.5623,358.3905 358.3905,358.3905 358.3905,19.5623"/>
    <line x1="24.2953" x2="24.2953" y1="22.3046" y2="29.3645"/>
    <line x1="30.6827" x2="30.6827" y1="24.6579" y2="29.3645"/>
    <polyline points="30.6827,25.6665 30.0103,24.9941 29.338,24.6579 28.3294,24.6579 27.6571,24.9941 26.9847,25.6665 26.6485,26.675 26.6485,27.3474 26.9847,28.3559 27.6571,29.0283 28.3294,29.3645 29.338,29.3645 30.0103,29.0283 30.6827,28.3559"/>
    <line x1="32.6998" x2="34.7169" y1="24.6579" y2="29.3645"/>
    <polyline points="36.734,24.6579 34.7169,29.3645 34.0445,30.7092 33.3722,31.3815 32.6998,31.7177 32.3636,31.7177"/>
    <polyline points="38.4149,26.675 42.449,26.675 42.449,26.0026 42.1129,25.3303 41.7767,24.9941 41.1043,24.6579 40.0958,24.6579 39.4234,24.9941 38.7511,25.6665 38.4149,26.675 38.4149,27.3474 38.7511,28.3559 39.4234,29.0283 40.0958,29.3645 41.1043,29.3645 41.7767,29.0283 42.449,28.3559"/>
    <line x1="44.8023" x2="44.8023" y1="24.6579" y2="29.3645"/>
    <polyline points="44.8023,26.675 45.1385,25.6665 45.8109,24.9941 46.4832,24.6579 47.4918,24.6579"/>
    <polyline points="57.5772,22.3046 54.2154,27.0112 59.2581,27.0112"/>
    <line x1="57.5772" x2="57.5772" y1="22.3046" y2="29.3645"/>
    <polygon points="-0.0,-0.0 -0.0,377.9528 377.9528,377.9528 377.9528,-0.0"/>
    <line x1="5.2795" x2="5.2795" y1="3.0591" y2="10.9341"/>
    <line x1="12.4045" x2="12.4045" y1="5.6841" y2="10.9341"/>
    <polyline points="12.4045,6.8091 11.6545,6.0591 10.9045,5.6841 9.7795,5.6841 9.0295,6.0591 8.2795,6.8091 7.9045,7.9341 7.9045,8.6841 8.2795,9.8091 9.0295,10.5591 9.7795,10.9341 10.9045,10.9341 11.6545,10.5591 12.4045,9.8091"/>
    <line x1="14.6545" x2="16.9045" y1="5.6841" y2="10.9341"/>
    <polyline points="19.1545,5.6841 16.9045,10.9341 16.1545,12.4341 15.4045,13.1841 14.6545,13.5591 14.2795,13.5591"/>
    <polyline points="21.0295,7.9341 25.5295,7.9341 25.5295,7.1841 25.1545,6.4341 24.7795,6.0591 24.0295,5.6841 22.9045,5.6841 22.1545,6.0591 21.4045,6.8091 21.0295,7.9341 21.0295,8.6841 21.4045,9.8091 22.1545,10.5591 22.9045,10.9341 24.0295,10.9341 24.7795,10.5591 25.5295,9.8091"/>
    <line x1="28.1545" x2="28.1545" y1="5.6841" y2="10.9341"/>
    <polyline points="28.1545,7.9341 28.5295,6.8091 29.2795,6.0591 30.0295,5.6841 31.1545,5.6841"/>
    <polyline points="43.1545,3.0591 39.4045,3.0591 39.0295,6.4341 39.4045,6.0591 40.5295,5.6841 41.6545,5.6841 42.7795,6.0591 43.5295,6.8091 43.9045,7.9341 43.9045,8.6841 43.5295,9.8091 42.7795,10.5591 41.6545,10.9341 40.5295,10.9341 39.4045,10.5591 39.0295,10.1841 38.6545,9.4341"/>
  </g>
</svg>
