<?xml version="1.0" encoding="utf-8" ?>
<svg xmlns="http://www.w3.org/2000/svg" xmlns:cc="http://creativecommons.org/ns" xmlns:dc="http://purl.org/dc/elements/1.1/" xmlns:ev="http://www.w3.org/2001/xml-events" xmlns:inkscape="http://www.inkscape.org/namespaces/inkscape" xmlns:rdf="http://www.w3.org/1999/02/22-rdf-syntax-ns" xmlns:sodipodi="http://sodipodi.sourceforge.net/DTD/sodipodi-0.dtd" xmlns:xlink="http://www.w3.org/1999/xlink" baseProfile="tiny" height="12.0cm" version="1.2" viewBox="0 0 1133.8582677165352 453.54330708661416" width="30.0cm">
  <metadata>
    <rdf:RDF>
      <cc:Work>
        <dc:format>image/svg+xml</dc:format>
        <dc:source>vpype -I figures/fig_spread.vpy write figures/fig_spread.svg
</dc:source>
        <dc:date>2022-03-31T13:50:39.581177</dc:date>
      </cc:Work>
    </rdf:RDF>
  </metadata>
  <defs/>
  <g fill="none" id="layer6" inkscape:groupmode="layer" inkscape:label="6" stroke="#0000ff" style="display:inline">
    <polygon points="228.7576,11.3386 230.6646,200.5253 409.9248,326.4243 430.0442,136.2625"/>
    <line x1="231.3607" x2="231.3987" y1="14.6494" y2="19.0226"/>
    <line x1="234.8698" x2="234.8896" y1="18.2841" y2="21.1983"/>
    <polyline points="234.874,18.9094 234.5027,18.2634 234.1328,17.8257 233.5804,17.4822 233.2139,17.4616 232.8492,17.6494 232.6703,18.1597 232.6736,18.5759 232.8623,19.3143 233.2331,19.9591 233.6022,20.396 234.1538,20.7397 234.5202,20.7612 234.8853,20.5746"/>
    <line x1="235.9761" x2="237.0998" y1="18.9722" y2="22.5758"/>
    <polyline points="238.1919,20.3505 237.0998,22.5758 236.736,23.1772 236.3701,23.3627 236.0032,23.3406 235.8192,23.2257"/>
    <polyline points="239.122,22.1761 241.3424,23.5583 241.341,23.1416 241.1544,22.6094 240.9684,22.2856 240.5972,21.8465 240.0417,21.501 239.6723,21.4793 239.3041,21.6661 239.122,22.1761 239.1239,22.5926 239.3115,23.3321 239.6829,23.9783 240.0533,24.4167 240.608,24.7623 240.9771,24.7849 241.3458,24.5994"/>
    <line x1="242.6363" x2="242.6439" y1="23.1149" y2="26.0312"/>
    <polyline points="242.6396,24.3659 242.8234,23.856 243.1936,23.6698 243.5644,23.6921 244.1216,24.0387"/>
    <polyline points="248.4028,26.0749 248.776,26.098 249.3367,25.819 249.3321,30.1997"/>
    <polygon points="190.5246,34.6881 196.4244,224.228 375.8122,353.9951 391.9915,163.9187"/>
    <line x1="193.1624" x2="193.2929" y1="38.0579" y2="42.4462"/>
    <line x1="196.7006" x2="196.7821" y1="41.7695" y2="44.6936"/>
    <polyline points="196.7181,42.3969 196.3381,41.7419 195.964,41.296 195.4119,40.941 195.0499,40.9136 194.6942,41.0953 194.5286,41.604 194.5408,42.0216 194.7426,42.766 195.122,43.4197 195.4954,43.8648 196.0466,44.2199 196.4085,44.2482 196.7647,44.0678"/>
    <line x1="197.8065" x2="198.9913" y1="42.4803" y2="46.1166"/>
    <polyline points="200.0214,43.9041 198.9913,46.1166 198.6452,46.7131 198.2883,46.8924 197.9259,46.8634 197.742,46.7448"/>
    <polyline points="200.9776,45.753 203.1971,47.181 203.1869,46.7628 202.9915,46.2254 202.8012,45.897 202.4257,45.4497 201.8704,45.0927 201.5056,45.0641 201.1464,45.2447 200.9776,45.753 200.9883,46.1709 201.189,46.9163 201.569,47.5716 201.9437,48.0182 202.4982,48.3753 202.8628,48.4048 203.2226,48.2255"/>
    <line x1="204.4641" x2="204.5334" y1="46.76" y2="49.6861"/>
    <polyline points="204.4938,48.0152 204.6644,47.5071 205.0256,47.3271 205.3919,47.3564 205.9489,47.7145"/>
    <polyline points="209.8471,49.8069 209.8427,49.5974 210.0205,49.2979 210.2027,49.208 210.5716,49.2379 211.3184,49.7175 211.6961,50.1671 211.887,50.4969 212.082,51.0362 212.0902,51.4554 211.9117,51.7543 211.5508,52.1423 209.7304,53.0335 212.3378,54.7129"/>
    <polygon points="151.0195,58.8144 161.1649,248.6362 340.6024,382.4527 352.5579,192.5785"/>
    <line x1="153.6929" x2="153.9221" y1="62.2453" y2="66.6474"/>
    <line x1="157.2604" x2="157.4076" y1="66.0369" y2="68.97"/>
    <polyline points="157.292,66.6663 156.903,66.002 156.5246,65.5475 155.973,65.1807 155.6162,65.146 155.2703,65.321 155.119,65.8277 155.1405,66.2466 155.3562,66.9968 155.7446,67.6598 156.1222,68.1135 156.6729,68.4805 157.0297,68.516 157.3761,68.3423"/>
    <line x1="158.3651" x2="159.6147" y1="66.7717" y2="70.4407"/>
    <polyline points="160.5778,68.2433 159.6147,70.4407 159.2877,71.0318 158.9404,71.2044 158.5832,71.1681 158.3994,71.0455"/>
    <polyline points="161.5613,70.116 163.7787,71.592 163.7591,71.1726 163.5545,70.6298 163.3597,70.2969 162.9798,69.8409 162.425,69.4719 162.0653,69.4359 161.7159,69.6098 161.5613,70.116 161.5814,70.5351 161.796,71.2864 162.1851,71.951 162.5641,72.4062 163.118,72.7753 163.4776,72.8122 163.8277,72.6397"/>
    <line x1="165.0163" x2="165.1514" y1="71.1954" y2="74.1302"/>
    <polyline points="165.0743,72.4543 165.2306,71.9483 165.582,71.7752 165.9433,71.8119 166.4998,72.182"/>
    <polyline points="170.5262,73.4303 172.5782,74.7939 171.5299,75.7316 172.0891,76.1036 172.4709,76.5618 172.6662,76.8958 172.8791,77.6496 172.8966,78.0691 172.7365,78.5738 172.3815,78.7446 171.8318,78.5819 171.2736,78.2099 170.7066,77.6287 170.5117,77.2954 170.3076,76.7524"/>
    <polygon points="110.1779,83.757 124.84,273.7821 304.2417,411.8404 311.667,222.2976"/>
    <line x1="112.8878" x2="113.2224" y1="87.2513" y2="91.6655"/>
    <line x1="116.4846" x2="116.702" y1="91.1262" y2="94.0672"/>
    <polyline points="116.5312,91.7573 116.1328,91.0835 115.7499,90.6201 115.1993,90.2407 114.8481,90.1983 114.5129,90.3661 114.3769,90.8703 114.4085,91.2904 114.6389,92.0465 115.0367,92.7189 115.4187,93.1815 115.9685,93.561 116.3196,93.6043 116.6554,93.4378"/>
    <line x1="117.5874" x2="118.9053" y1="91.886" y2="95.5881"/>
    <polyline points="119.7964,93.408 118.9053,95.5881 118.5989,96.173 118.2623,96.3384 117.9106,96.2943 117.7272,96.1675"/>
    <polyline points="120.8086,95.305 123.0225,96.8315 122.9928,96.411 122.7784,95.863 122.5789,95.5252 122.1946,95.0602 121.6407,94.6786 121.2866,94.6348 120.9478,94.8014 120.8086,95.305 120.8387,95.7253 121.0681,96.4824 121.4665,97.1565 121.85,97.6207 122.403,98.0024 122.757,98.0472 123.0965,97.882"/>
    <line x1="124.2279" x2="124.4332" y1="96.4611" y2="99.4037"/>
    <polyline points="124.3159,97.7234 124.4569,97.22 124.7977,97.0542 125.1534,97.0988 125.709,97.4816"/>
    <polyline points="131.1839,99.845 129.5193,101.5118 132.309,103.4356"/>
    <line x1="131.1839" x2="131.4753" y1="99.845" y2="104.2645"/>
    <polygon points="67.9308,109.558 87.4005,299.6994 266.6728,442.2047 269.2363,253.1357"/>
    <line x1="70.6782" x2="71.1252" y1="113.118" y2="117.5426"/>
    <line x1="74.304" x2="74.5964" y1="117.0798" y2="120.0276"/>
    <polyline points="74.3667,117.7123 73.9585,117.0288 73.5711,116.5561 73.0218,116.1635 72.6769,116.1128 72.3533,116.2729 72.2338,116.7741 72.2761,117.1952 72.5221,117.9571 72.9297,118.6392 73.3162,119.1111 73.8647,119.5037 74.2096,119.5554 74.5338,119.3967"/>
    <line x1="75.4042" x2="76.7945" y1="117.866" y2="121.6012"/>
    <polyline points="77.608,119.4409 76.7945,121.6012 76.5104,122.1792 76.1853,122.3367 75.8398,122.2842 75.6568,122.1531"/>
    <polyline points="78.6502,121.3629 80.859,122.9426 80.8186,122.5211 80.5939,121.9677 80.3894,121.625 80.0006,121.1507 79.448,120.7558 79.1001,120.7036 78.7729,120.8622 78.6502,121.3629 78.6911,121.7841 78.936,122.5471 79.3444,123.2309 79.7324,123.7044 80.2841,124.0994 80.6319,124.1525 80.9598,123.9953"/>
    <line x1="82.0293" x2="82.3096" y1="122.6004" y2="125.5494"/>
    <polyline points="82.1495,123.8655 82.274,123.3651 82.6032,123.2072 82.9526,123.2603 83.5071,123.6565"/>
    <polyline points="89.3039,126.4164 87.4453,125.0894 87.4348,126.8576 87.6009,126.7792 88.1383,126.966 88.6953,127.3641 89.272,127.9735 89.6821,128.6611 89.9254,129.4266 89.9637,129.848 89.8354,130.3469 89.5025,130.5022 88.9652,130.3142 88.409,129.916 87.8337,129.3076 87.6291,128.9646 87.405,128.411"/>
    <line x1="26.8735" x2="26.8735" y1="388.3362" y2="400.7855"/>
    <polyline points="26.8735,394.2644 25.6878,393.0788 24.5022,392.486 22.7237,392.486 21.5381,393.0788 20.3525,394.2644 19.7596,396.0429 19.7596,397.2285 20.3525,399.007 21.5381,400.1926 22.7237,400.7855 24.5022,400.7855 25.6878,400.1926 26.8735,399.007"/>
    <polyline points="31.0232,396.0429 38.137,396.0429 38.137,394.8573 37.5442,393.6716 36.9514,393.0788 35.7658,392.486 33.9873,392.486 32.8017,393.0788 31.616,394.2644 31.0232,396.0429 31.0232,397.2285 31.616,399.007 32.8017,400.1926 33.9873,400.7855 35.7658,400.7855 36.9514,400.1926 38.137,399.007"/>
    <line x1="42.2868" x2="42.2868" y1="388.3362" y2="400.7855"/>
    <polyline points="47.6221,388.3362 47.6221,398.4142 48.215,400.1926 49.4006,400.7855 50.5862,400.7855"/>
    <line x1="45.8437" x2="49.9934" y1="392.486" y2="392.486"/>
    <line x1="60.6642" x2="60.6642" y1="392.486" y2="400.7855"/>
    <polyline points="60.6642,394.2644 59.4785,393.0788 58.2929,392.486 56.5144,392.486 55.3288,393.0788 54.1432,394.2644 53.5503,396.0429 53.5503,397.2285 54.1432,399.007 55.3288,400.1926 56.5144,400.7855 58.2929,400.7855 59.4785,400.1926 60.6642,399.007"/>
    <line x1="63.0354" x2="73.7062" y1="404.9352" y2="404.9352"/>
    <line x1="82.0057" x2="75.4846" y1="392.486" y2="400.7855"/>
    <line x1="75.4846" x2="82.0057" y1="392.486" y2="392.486"/>
    <line x1="75.4846" x2="82.0057" y1="400.7855" y2="400.7855"/>
    <line x1="95.6405" x2="106.3112" y1="393.6716" y2="393.6716"/>
    <line x1="95.6405" x2="106.3112" y1="397.2285" y2="397.2285"/>
    <polyline points="120.5389,391.3003 120.5389,390.7075 121.1317,389.5219 121.7245,388.9291 122.9102,388.3362 125.2814,388.3362 126.4671,388.9291 127.0599,389.5219 127.6527,390.7075 127.6527,391.8932 127.0599,393.0788 125.8743,394.8573 119.9461,400.7855 128.2455,400.7855"/>
    <polyline points="138.9163,394.2644 137.7306,393.0788 136.545,392.486 134.7666,392.486 133.5809,393.0788 132.3953,394.2644 131.8025,396.0429 131.8025,397.2285 132.3953,399.007 133.5809,400.1926 134.7666,400.7855 136.545,400.7855 137.7306,400.1926 138.9163,399.007"/>
    <line x1="143.066" x2="143.066" y1="392.486" y2="400.7855"/>
    <polyline points="143.066,394.8573 144.8445,393.0788 146.0301,392.486 147.8086,392.486 148.9942,393.0788 149.587,394.8573 149.587,400.7855"/>
    <polyline points="149.587,394.8573 151.3655,393.0788 152.5511,392.486 154.3296,392.486 155.5152,393.0788 156.108,394.8573 156.108,400.7855"/>
    <polygon points="590.111,28.3044 596.3948,224.2538 781.5204,358.2648 798.846,161.7213"/>
    <line x1="592.8377" x2="592.9772" y1="31.7868" y2="36.3389"/>
    <line x1="596.4944" x2="596.5814" y1="35.6193" y2="38.6525"/>
    <polyline points="596.5131,36.2702 596.1201,35.5925 595.7334,35.1319 595.163,34.7665 594.7893,34.7399 594.4223,34.9302 594.2519,35.4588 594.2649,35.892 594.474,36.6632 594.8663,37.3394 595.2522,37.7993 595.8217,38.1649 596.1952,38.1923 596.5628,38.0034"/>
    <line x1="597.6368" x2="598.8637" y1="36.3512" y2="40.1176"/>
    <polyline points="599.9251,37.8171 598.8637,40.1176 598.507,40.7381 598.1386,40.9259 597.7645,40.8977 597.5745,40.7756"/>
    <polyline points="600.9142,39.7304 603.2075,41.2008 603.1966,40.767 602.9944,40.2104 602.7975,39.8707 602.4094,39.4084 601.8356,39.0409 601.4589,39.0131 601.0881,39.2022 600.9142,39.7304 600.9257,40.1639 601.1336,40.9362 601.5266,41.6141 601.914,42.0755 602.4868,42.4433 602.8634,42.4721 603.2347,42.2843"/>
    <line x1="604.5156" x2="604.5896" y1="40.7577" y2="43.7931"/>
    <polyline points="604.5474,42.0598 604.7231,41.5318 605.096,41.3433 605.4743,41.3719 606.05,41.7406"/>
    <polyline points="610.4588,43.9217 610.8398,43.9511 611.405,43.6687 611.499,48.2283"/>
    <polygon points="569.8366,40.6218 578.3507,236.7368 763.5149,372.8804 778.6275,176.4317"/>
    <line x1="572.5822" x2="572.7736" y1="44.1366" y2="48.6965"/>
    <line x1="576.2545" x2="576.3762" y1="48.0114" y2="51.0497"/>
    <polyline points="576.2806,48.6633 575.8828,47.9808 575.4938,47.5155 574.9237,47.1439 574.5527,47.1135 574.1908,47.3004 574.0279,47.828 574.0458,48.2619 574.2623,49.0363 574.6594,49.7174 575.0476,50.1818 575.6168,50.5536 575.9877,50.5849 576.3501,50.3995"/>
    <line x1="577.3964" x2="578.6574" y1="48.7558" y2="52.5398"/>
    <polyline points="579.6836,50.2468 578.6574,52.5398 578.3107,53.1576 577.9474,53.3419 577.576,53.3099 577.386,53.1857"/>
    <polyline points="580.6872,52.1728 582.9795,53.6685 582.9636,53.234 582.7565,52.6745 582.5573,52.3324 582.1668,51.8655 581.5933,51.4917 581.2192,51.46 580.8535,51.6457 580.6872,52.1728 580.7036,52.607 580.9188,53.3825 581.3166,54.0653 581.7063,54.5314 582.2789,54.9054 582.6528,54.938 583.019,54.7538"/>
    <line x1="584.2722" x2="584.3808" y1="53.238" y2="56.2784"/>
    <polyline points="584.3188,54.5423 584.487,54.0153 584.8548,53.8303 585.2305,53.8628 585.8059,54.2378"/>
    <polyline points="589.8275,56.4334 589.8204,56.2156 589.9988,55.9055 590.1844,55.813 590.5628,55.8462 591.3344,56.3486 591.7273,56.818 591.9271,57.1616 592.1339,57.7232 592.1476,58.1587 591.9684,58.4683 591.6035,58.8695 589.7491,59.785 592.4428,61.5445"/>
    <polygon points="549.2133,53.1512 560.0299,249.4113 745.2103,387.7389 758.0282,191.4189"/>
    <line x1="551.978" x2="552.2232" y1="56.6989" y2="61.2662"/>
    <line x1="555.6659" x2="555.8234" y1="60.6168" y2="63.66"/>
    <polyline points="555.6997,61.2698 555.2971,60.5823 554.9058,60.1124 554.336,59.7343 553.9678,59.7001 553.6113,59.8834 553.4562,60.4098 553.4793,60.8445 553.7033,61.622 554.1052,62.3081 554.4957,62.7772 555.0645,63.1554 555.4326,63.1906 555.7897,63.0087"/>
    <line x1="556.8071" x2="558.1032" y1="61.3741" y2="65.1759"/>
    <polyline points="559.0929,62.891 558.1032,65.1759 557.767,65.7907 557.4091,65.9714 557.0404,65.9354 556.8506,65.8091"/>
    <polyline points="560.1113,64.8299 562.4022,66.3514 562.3813,65.9162 562.1691,65.3539 561.9674,65.0093 561.5746,64.5378 561.0014,64.1574 560.6302,64.1218 560.2698,64.3038 560.1113,64.8299 560.1328,65.2647 560.3556,66.0434 560.7583,66.7312 561.1503,67.2019 561.7225,67.5824 562.0937,67.619 562.4546,67.4384"/>
    <line x1="563.6788" x2="563.8233" y1="65.9341" y2="68.9792"/>
    <polyline points="563.7408,67.2404 563.9012,66.7146 564.2636,66.5332 564.6365,66.5697 565.2116,66.9513"/>
    <polyline points="569.37,68.2285 571.4908,69.6345 570.41,70.6125 570.9879,70.996 571.3828,71.4698 571.585,71.8156 571.8059,72.5969 571.8247,73.0322 571.6602,73.5567 571.294,73.7355 570.7262,73.569 570.1494,73.1854 569.5631,72.5848 569.3613,72.2398 569.1498,71.6773"/>
    <polygon points="528.2321,65.898 541.4258,262.2818 726.599,402.8464 737.0375,206.6911"/>
    <line x1="531.0162" x2="531.317" y1="69.4794" y2="74.0535"/>
    <line x1="534.7197" x2="534.9142" y1="73.4413" y2="76.489"/>
    <polyline points="534.7614,74.0953 534.3538,73.4027 533.9602,72.9281 533.3909,72.5434 533.0256,72.5051 532.6747,72.6847 532.5277,73.2099 532.5561,73.6452 532.7878,74.4259 533.1947,75.1171 533.5876,75.5908 534.1559,75.9756 534.5211,76.0149 534.8726,75.8368"/>
    <line x1="535.8599" x2="537.1922" y1="74.2118" y2="78.0313"/>
    <polyline points="538.144,75.7552 537.1922,78.0313 536.8668,78.643 536.5145,78.82 536.1488,78.7798 535.9591,78.6513"/>
    <polyline points="539.1775,77.707 541.4666,79.2552 541.4404,78.8194 541.2231,78.2542 541.0189,77.907 540.6237,77.4308 540.051,77.0438 539.6826,77.004 539.3279,77.1822 539.1775,77.707 539.2043,78.1426 539.4349,78.9244 539.8425,79.6173 540.2369,80.0927 540.8087,80.4798 541.1769,80.5206 541.5323,80.3438"/>
    <line x1="542.7263" x2="542.9079" y1="78.8515" y2="81.901"/>
    <polyline points="542.8042,80.1597 542.9565,79.6352 543.3133,79.4577 543.6833,79.4982 544.258,79.8865"/>
    <polyline points="549.9356,82.251 548.1829,84.0069 551.0682,85.9584"/>
    <line x1="549.9356" x2="550.1904" y1="82.251" y2="86.8316"/>
    <polygon points="506.8835,78.868 522.5318,275.3528 707.6732,418.2091 715.644,222.2563"/>
    <line x1="509.6872" x2="510.0456" y1="82.4836" y2="87.0643"/>
    <line x1="513.4063" x2="513.6392" y1="86.4906" y2="89.5425"/>
    <polyline points="513.4563,87.1454 513.0436,86.4477 512.6475,85.9683 512.0788,85.5769 511.7167,85.5343 511.3717,85.71 511.2331,86.234 511.2669,86.6699 511.5067,87.4537 511.9187,88.15 512.3139,88.6285 512.8817,89.0201 513.2437,89.0636 513.5894,88.8894"/>
    <line x1="514.5454" x2="515.915" y1="87.2746" y2="91.1119"/>
    <polyline points="516.8273,88.8452 515.915,91.1119 515.6009,91.7203 515.2544,91.8933 514.8917,91.8489 514.7022,91.7182"/>
    <polyline points="517.8763,90.8102 520.1633,92.3856 520.1316,91.9492 519.9089,91.3812 519.7022,91.0315 519.3046,90.5503 518.7324,90.1565 518.3672,90.1125 518.0183,90.2868 517.8763,90.8102 517.9086,91.2463 518.1472,92.0313 518.56,92.7293 518.9567,93.2096 519.528,93.6035 519.8931,93.6485 520.2426,93.4757"/>
    <line x1="521.4052" x2="521.6252" y1="91.9962" y2="95.0498"/>
    <polyline points="521.4996,93.3062 521.6435,92.783 521.9945,92.6095 522.3614,92.6543 522.9355,93.0495"/>
    <polyline points="528.974,95.7458 527.0492,94.4222 526.9928,96.2583 527.1698,96.1721 527.7314,96.3504 528.3083,96.7475 528.9004,97.3634 529.3149,98.0654 529.5517,98.853 529.5813,99.2895 529.4333,99.8112 529.0784,99.982 528.517,99.8025 527.941,99.4053 527.3503,98.7905 527.1434,98.4403 526.9215,97.8721"/>
    <line x1="528.7625" x2="528.7625" y1="388.3362" y2="400.7855"/>
    <polyline points="528.7625,394.2644 527.5769,393.0788 526.3913,392.486 524.6128,392.486 523.4272,393.0788 522.2415,394.2644 521.6487,396.0429 521.6487,397.2285 522.2415,399.007 523.4272,400.1926 524.6128,400.7855 526.3913,400.7855 527.5769,400.1926 528.7625,399.007"/>
    <polyline points="532.9123,396.0429 540.0261,396.0429 540.0261,394.8573 539.4333,393.6716 538.8405,393.0788 537.6548,392.486 535.8764,392.486 534.6907,393.0788 533.5051,394.2644 532.9123,396.0429 532.9123,397.2285 533.5051,399.007 534.6907,400.1926 535.8764,400.7855 537.6548,400.7855 538.8405,400.1926 540.0261,399.007"/>
    <line x1="544.1758" x2="544.1758" y1="388.3362" y2="400.7855"/>
    <polyline points="549.5112,388.3362 549.5112,398.4142 550.104,400.1926 551.2897,400.7855 552.4753,400.7855"/>
    <line x1="547.7327" x2="551.8825" y1="392.486" y2="392.486"/>
    <line x1="562.5532" x2="562.5532" y1="392.486" y2="400.7855"/>
    <polyline points="562.5532,394.2644 561.3676,393.0788 560.182,392.486 558.4035,392.486 557.2179,393.0788 556.0322,394.2644 555.4394,396.0429 555.4394,397.2285 556.0322,399.007 557.2179,400.1926 558.4035,400.7855 560.182,400.7855 561.3676,400.1926 562.5532,399.007"/>
    <line x1="564.9245" x2="575.5952" y1="404.9352" y2="404.9352"/>
    <line x1="583.8947" x2="577.3737" y1="392.486" y2="400.7855"/>
    <line x1="577.3737" x2="583.8947" y1="392.486" y2="392.486"/>
    <line x1="577.3737" x2="583.8947" y1="400.7855" y2="400.7855"/>
    <line x1="597.5296" x2="608.2003" y1="393.6716" y2="393.6716"/>
    <line x1="597.5296" x2="608.2003" y1="397.2285" y2="397.2285"/>
    <polyline points="623.6136,390.7075 624.7992,390.1147 626.5777,388.3362 626.5777,400.7855"/>
    <polyline points="640.8053,394.2644 639.6197,393.0788 638.4341,392.486 636.6556,392.486 635.47,393.0788 634.2843,394.2644 633.6915,396.0429 633.6915,397.2285 634.2843,399.007 635.47,400.1926 636.6556,400.7855 638.4341,400.7855 639.6197,400.1926 640.8053,399.007"/>
    <line x1="644.9551" x2="644.9551" y1="392.486" y2="400.7855"/>
    <polyline points="644.9551,394.8573 646.7335,393.0788 647.9192,392.486 649.6976,392.486 650.8833,393.0788 651.4761,394.8573 651.4761,400.7855"/>
    <polyline points="651.4761,394.8573 653.2546,393.0788 654.4402,392.486 656.2186,392.486 657.4043,393.0788 657.9971,394.8573 657.9971,400.7855"/>
    <line x1="901.5944" x2="901.5944" y1="388.3362" y2="400.7855"/>
    <polyline points="901.5944,394.2644 900.4088,393.0788 899.2231,392.486 897.4447,392.486 896.259,393.0788 895.0734,394.2644 894.4806,396.0429 894.4806,397.2285 895.0734,399.007 896.259,400.1926 897.4447,400.7855 899.2231,400.7855 900.4088,400.1926 901.5944,399.007"/>
    <polyline points="905.7441,396.0429 912.858,396.0429 912.858,394.8573 912.2652,393.6716 911.6723,393.0788 910.4867,392.486 908.7082,392.486 907.5226,393.0788 906.337,394.2644 905.7441,396.0429 905.7441,397.2285 906.337,399.007 907.5226,400.1926 908.7082,400.7855 910.4867,400.7855 911.6723,400.1926 912.858,399.007"/>
    <line x1="917.0077" x2="917.0077" y1="388.3362" y2="400.7855"/>
    <polyline points="922.3431,388.3362 922.3431,398.4142 922.9359,400.1926 924.1215,400.7855 925.3072,400.7855"/>
    <line x1="920.5646" x2="924.7144" y1="392.486" y2="392.486"/>
    <line x1="935.3851" x2="935.3851" y1="392.486" y2="400.7855"/>
    <polyline points="935.3851,394.2644 934.1995,393.0788 933.0138,392.486 931.2354,392.486 930.0497,393.0788 928.8641,394.2644 928.2713,396.0429 928.2713,397.2285 928.8641,399.007 930.0497,400.1926 931.2354,400.7855 933.0138,400.7855 934.1995,400.1926 935.3851,399.007"/>
    <line x1="937.7564" x2="948.4271" y1="404.9352" y2="404.9352"/>
    <line x1="956.7266" x2="950.2056" y1="392.486" y2="400.7855"/>
    <line x1="950.2056" x2="956.7266" y1="392.486" y2="392.486"/>
    <line x1="950.2056" x2="956.7266" y1="400.7855" y2="400.7855"/>
    <line x1="970.3614" x2="981.0322" y1="393.6716" y2="393.6716"/>
    <line x1="970.3614" x2="981.0322" y1="397.2285" y2="397.2285"/>
    <polygon points="998.2239,388.3362 996.4455,388.9291 995.2598,390.7075 994.667,393.6716 994.667,395.4501 995.2598,398.4142 996.4455,400.1926 998.2239,400.7855 999.4096,400.7855 1001.188,400.1926 1002.3737,398.4142 1002.9665,395.4501 1002.9665,393.6716 1002.3737,390.7075 1001.188,388.9291 999.4096,388.3362"/>
    <polygon points="1007.1162,397.8214 1006.5234,398.4142 1007.1162,399.007 1007.709,398.4142"/>
    <polyline points="1011.8588,391.3003 1011.8588,390.7075 1012.4516,389.5219 1013.0444,388.9291 1014.23,388.3362 1016.6013,388.3362 1017.787,388.9291 1018.3798,389.5219 1018.9726,390.7075 1018.9726,391.8932 1018.3798,393.0788 1017.1941,394.8573 1011.2659,400.7855 1019.5654,400.7855"/>
    <polyline points="1030.2362,394.2644 1029.0505,393.0788 1027.8649,392.486 1026.0864,392.486 1024.9008,393.0788 1023.7152,394.2644 1023.1223,396.0429 1023.1223,397.2285 1023.7152,399.007 1024.9008,400.1926 1026.0864,400.7855 1027.8649,400.7855 1029.0505,400.1926 1030.2362,399.007"/>
    <line x1="1034.3859" x2="1034.3859" y1="392.486" y2="400.7855"/>
    <polyline points="1034.3859,394.8573 1036.1644,393.0788 1037.35,392.486 1039.1284,392.486 1040.3141,393.0788 1040.9069,394.8573 1040.9069,400.7855"/>
    <polyline points="1040.9069,394.8573 1042.6854,393.0788 1043.871,392.486 1045.6495,392.486 1046.8351,393.0788 1047.4279,394.8573 1047.4279,400.7855"/>
    <polygon points="899.0784,43.1693 909.4991,244.8436 1099.5419,386.077 1114.0986,184.2151"/>
    <line x1="901.9127" x2="902.1489" y1="46.8025" y2="51.5078"/>
    <line x1="905.6963" x2="905.8475" y1="50.8093" y2="53.9445"/>
    <polyline points="905.7287,51.482 905.3166,50.7768 904.9153,50.2958 904.33,49.911 903.9509,49.8788 903.5832,50.0708 903.4216,50.6147 903.4437,51.0625 903.6716,51.862 904.083,52.5657 904.4835,53.0458 905.0679,53.4308 905.4468,53.464 905.8152,53.2736"/>
    <line x1="906.8688" x2="908.1898" y1="51.5801" y2="55.4876"/>
    <polyline points="909.2174,53.1242 908.1898,55.4876 907.8413,56.1241 907.472,56.3133 907.0925,56.2793 906.8975,56.1507"/>
    <polyline points="910.2591,55.1141 912.6131,56.663 912.5931,56.2147 912.3767,55.6369 912.1702,55.2834 911.7674,54.8007 911.1784,54.4135 910.7961,54.3798 910.4244,54.5705 910.2591,55.1141 910.2797,55.5621 910.5063,56.3627 910.9185,57.0683 911.3205,57.5501 911.9085,57.9375 912.2906,57.9721 912.663,57.783"/>
    <line x1="913.9296" x2="914.0671" y1="56.2222" y2="59.3595"/>
    <polyline points="913.9886,57.5681 914.1558,57.0248 914.5298,56.8348 914.9138,56.8693 915.5047,57.2578"/>
    <polyline points="920.0183,59.5691 920.4051,59.6045 920.9723,59.3201 921.1608,64.0329"/>
    <polygon points="894.8181,45.7461 905.7282,247.451 1095.7735,389.1472 1109.8422,187.3148"/>
    <line x1="897.6565" x2="897.9042" y1="49.3862" y2="54.0932"/>
    <line x1="901.4434" x2="901.6022" y1="53.4022" y2="56.5384"/>
    <polyline points="901.4775,54.0751 901.0643,53.3689 900.6625,52.8869 900.0772,52.5007 899.6988,52.4677 899.3322,52.6589 899.1723,53.2027 899.1955,53.6506 899.425,54.4507 899.8375,55.1555 900.2384,55.6366 900.8227,56.0229 901.201,56.057 901.5682,55.8673"/>
    <line x1="902.6157" x2="903.9442" y1="54.1758" y2="58.087"/>
    <polyline points="904.964,55.7253 903.9442,58.087 903.5979,58.7229 903.2298,58.9114 902.8508,58.8765 902.6559,58.7474"/>
    <polyline points="906.0089,57.7179 908.3625,59.2724 908.3415,58.8239 908.124,58.2455 907.917,57.8914 907.5136,57.4077 906.9247,57.0191 906.5431,56.9847 906.1724,57.1746 906.0089,57.7179 906.0305,58.1661 906.2587,58.9674 906.672,59.674 907.0745,60.1568 907.6624,60.5455 908.0439,60.581 908.4152,60.3927"/>
    <line x1="909.6755" x2="909.8207" y1="58.8343" y2="61.9727"/>
    <polyline points="909.7378,60.1807 909.9034,59.6376 910.2762,59.4484 910.6596,59.4837 911.2505,59.8736"/>
    <polyline points="915.3759,62.1591 915.3662,61.9343 915.5446,61.615 915.7329,61.5206 916.1192,61.5566 916.9117,62.0789 917.3176,62.5653 917.5253,62.921 917.7424,63.5016 917.7612,63.9513 917.582,64.2699 917.2143,64.6822 915.3334,65.6178 918.1,67.4472"/>
    <polygon points="890.5428,48.332 901.9454,250.0665 1091.9923,392.2278 1105.5693,190.4265"/>
    <line x1="893.3852" x2="893.6444" y1="51.9791" y2="56.6876"/>
    <line x1="897.1754" x2="897.3419" y1="56.0043" y2="59.1415"/>
    <polyline points="897.2111,56.6775 896.7969,55.9701 896.3946,55.4872 895.8094,55.0996 895.4316,55.0658 895.0662,55.2562 894.9079,55.7997 894.9323,56.2478 895.1634,57.0486 895.5769,57.7544 895.9783,58.2365 896.5625,58.6242 896.9402,58.6591 897.3063,58.4702"/>
    <line x1="898.3475" x2="899.6835" y1="56.7806" y2="60.6956"/>
    <polyline points="900.6955,58.3357 899.6835,60.6956 899.3395,61.3308 898.9725,61.5186 898.5942,61.4828 898.3993,61.3533"/>
    <polyline points="901.7435,60.331 904.0969,61.891 904.0747,61.4423 903.8561,60.8633 903.6486,60.5087 903.2447,60.024 902.6559,59.6341 902.2749,59.5988 901.9054,59.7879 901.7435,60.331 901.7662,60.7793 901.9961,61.5813 902.4104,62.2889 902.8134,62.7727 903.4012,63.1629 903.7821,63.1992 904.1522,63.0116"/>
    <line x1="905.4064" x2="905.5592" y1="61.4557" y2="64.595"/>
    <polyline points="905.4719,62.8025 905.6358,62.2596 906.0075,62.0712 906.3903,62.1074 906.9811,62.4987"/>
    <polyline points="911.2515,63.7998 913.4306,65.2416 912.3224,66.2542 912.9162,66.6476 913.3223,67.1346 913.5303,67.4905 913.7582,68.2953 913.778,68.7441 913.6099,69.2856 913.2342,69.4713 912.6511,69.3017 912.0584,68.9083 911.4558,68.2912 911.2482,67.9362 911.0303,67.357"/>
    <polygon points="886.2523,50.927 898.1508,252.6903 1088.1982,395.319 1101.2798,193.5502"/>
    <line x1="889.0987" x2="889.3696" y1="54.5812" y2="59.2913"/>
    <line x1="892.8922" x2="893.0665" y1="58.6156" y2="61.7539"/>
    <polyline points="892.9296,59.289 892.5144,58.5806 892.1116,58.0967 891.5265,57.7077 891.1493,57.673 890.785,57.8627 890.6285,58.406 890.6539,58.8542 890.8867,59.6557 891.3012,60.3626 891.7031,60.8456 892.2872,61.2347 892.6643,61.2705 893.0292,61.0823"/>
    <line x1="894.0642" x2="895.4078" y1="59.3947" y2="63.3134"/>
    <polyline points="896.4118,60.9553 895.4078,63.3134 895.066,63.9481 894.7002,64.135 894.3225,64.0984 894.1276,63.9684"/>
    <polyline points="897.463,62.9533 899.816,64.5189 899.7927,64.0701 899.5731,63.4905 899.365,63.1353 898.9607,62.6497 898.372,62.2583 897.9915,62.2221 897.6232,62.4105 897.463,62.9533 897.4868,63.4018 897.7183,64.2045 898.1337,64.9132 898.5371,65.398 899.1249,65.7895 899.5052,65.8267 899.8742,65.6399"/>
    <line x1="901.122" x2="901.2826" y1="64.0864" y2="67.2268"/>
    <polyline points="901.1909,65.4336 901.3531,64.891 901.7236,64.7034 902.1058,64.7404 902.6965,65.1331"/>
    <polyline points="908.5466,67.4961 906.7183,69.3285 909.6845,71.3023"/>
    <line x1="908.5466" x2="908.7688" y1="67.4961" y2="72.2135"/>
    <polygon points="881.9465,53.5313 894.3441,255.3223 1084.391,398.4207 1096.9735,196.6862"/>
    <line x1="884.7971" x2="885.0797" y1="57.1926" y2="61.9042"/>
    <line x1="888.5939" x2="888.776" y1="61.2362" y2="64.3755"/>
    <polyline points="888.6329,61.9098 888.2166,61.2004 887.8134,60.7154 887.2284,60.3251 886.8518,60.2896 886.4887,60.4785 886.3338,61.0215 886.3604,61.4699 886.5948,62.272 887.0104,62.98 887.4127,63.464 887.9968,63.8545 888.3733,63.8911 888.737,63.7037"/>
    <line x1="889.7656" x2="891.1168" y1="62.0181" y2="65.9406"/>
    <polyline points="892.1129,63.5842 891.1168,65.9406 890.7773,66.5746 890.4127,66.7607 890.0356,66.7233 889.8407,66.5929"/>
    <polyline points="893.1673,65.585 895.5199,67.1561 895.4955,66.7072 895.2748,66.127 895.0662,65.7713 894.6614,65.2847 894.0727,64.8919 893.6929,64.8549 893.3258,65.0424 893.1673,65.585 893.1922,66.0336 893.4254,66.837 893.8417,67.5468 894.2457,68.0325 894.8334,68.4254 895.2131,68.4635 895.5808,68.2775"/>
    <line x1="896.8223" x2="896.9907" y1="66.7265" y2="69.8678"/>
    <polyline points="896.8946,68.0742 897.0551,67.5318 897.4244,67.345 897.806,67.3829 898.3966,67.7769"/>
    <polyline points="904.6383,70.4178 902.6579,69.0977 902.5624,70.991 902.7487,70.8981 903.3306,71.0691 903.9242,71.4651 904.5292,72.0863 904.9473,72.8001 905.1785,73.6063 905.2005,74.0554 905.0358,74.5963 904.6624,74.7804 904.0806,74.6081 903.4881,74.212 902.8845,73.5919 902.6758,73.2358 902.4558,72.6554"/>
  </g>
</svg>
