<?xml version="1.0" encoding="utf-8" ?>
<svg xmlns="http://www.w3.org/2000/svg" xmlns:cc="http://creativecommons.org/ns" xmlns:dc="http://purl.org/dc/elements/1.1/" xmlns:ev="http://www.w3.org/2001/xml-events" xmlns:inkscape="http://www.inkscape.org/namespaces/inkscape" xmlns:rdf="http://www.w3.org/1999/02/22-rdf-syntax-ns" xmlns:sodipodi="http://sodipodi.sourceforge.net/DTD/sodipodi-0.dtd" xmlns:xlink="http://www.w3.org/1999/xlink" baseProfile="tiny" height="14.0cm" version="1.2" viewBox="0 0 1133.8582677165352 529.1338582677165" width="30.0cm">
  <metadata>
    <rdf:RDF>
      <cc:Work>
        <dc:format>image/svg+xml</dc:format>
        <dc:source>vpype -I figures/fig_ptranslate.vpy write figures/fig_ptranslate.svg
</dc:source>
        <dc:date>2022-03-31T13:50:41.307888</dc:date>
      </cc:Work>
    </rdf:RDF>
  </metadata>
  <defs/>
  <g fill="none" id="layer9" inkscape:groupmode="layer" inkscape:label="9" stroke="#0000ff" style="display:inline">
    <polygon points="285.4306,11.3386 282.1568,187.6229 449.8376,300.6911 472.6206,123.0775"/>
    <line x1="288.3102" x2="288.1742" y1="13.0884" y2="19.8369"/>
    <line x1="293.7243" x2="293.6201" y1="18.6078" y2="23.1039"/>
    <polyline points="293.7019,19.5731 293.141,18.5853 292.5728,17.9193 291.7099,17.4033 291.128,17.3814 290.5397,17.681 290.2321,18.4732 290.2185,19.1152 290.4847,20.2493 291.0442,21.2341 291.6107,21.8984 292.4714,22.4148 293.0529,22.4388 293.6423,22.1423"/>
    <line x1="295.4537" x2="297.0728" y1="19.6419" y2="25.1752"/>
    <polyline points="298.9203,21.7146 297.0728,25.1752 296.4649,26.1104 295.8738,26.4046 295.2911,26.3789 295.0037,26.2062"/>
    <polyline points="300.3159,24.5111 303.7934,26.5933 303.812,25.9499 303.5401,25.1323 303.259,24.6365 302.6875,23.9672 301.817,23.4467 301.2283,23.4221 300.6314,23.7194 300.3159,24.5111 300.2986,25.1538 300.5619,26.2904 301.1228,27.2788 301.6925,27.9465 302.5608,28.4674 303.1491,28.4941 303.7472,28.1999"/>
    <line x1="305.8847" x2="305.7499" y1="25.8789" y2="30.3805"/>
    <polyline points="305.8268,27.8109 306.1467,27.0195 306.7484,26.7235 307.3409,26.7496 308.2155,27.2725"/>
    <polyline points="314.9764,30.3264 315.575,30.3541 316.4911,29.9107 316.2485,36.6786"/>
    <polygon points="251.3148,32.324 251.3148,208.992 419.1947,325.3093 438.7788,147.6373"/>
    <line x1="254.1957" x2="254.1849" y1="34.1267" y2="40.8993"/>
    <line x1="259.6532" x2="259.6324" y1="39.7546" y2="44.2665"/>
    <polyline points="259.6487,40.7234 259.0757,39.7227 258.5013,39.0449 257.6382,38.5131 257.0621,38.4817 256.4855,38.7731 256.1958,39.5634 256.1941,40.2077 256.4782,41.3505 257.0498,42.3481 257.6224,43.0241 258.4834,43.5563 259.0591,43.5898 259.6368,43.3016"/>
    <line x1="261.3832" x2="263.0864" y1="40.8206" y2="46.4014"/>
    <polyline points="264.8511,42.9573 263.0864,46.4014 262.502,47.3305 261.9225,47.6163 261.3456,47.581 261.0581,47.4031"/>
    <polyline points="266.2831,45.7871 269.7622,47.9337 269.7688,47.288 269.4849,46.4628 269.1977,45.9606 268.62,45.2793 267.7491,44.7428 267.1661,44.7086 266.5808,44.9974 266.2831,45.7871 266.2778,46.4321 266.559,47.5773 267.1321,48.5787 267.708,49.2581 268.5766,49.795 269.1593,49.8314 269.7457,49.5457"/>
    <line x1="271.8187" x2="271.7673" y1="47.2502" y2="51.7672"/>
    <polyline points="271.7966,49.1888 272.0987,48.3995 272.6888,48.1121 273.2756,48.1478 274.1506,48.687"/>
    <polyline points="280.3051,51.8248 280.3103,51.5008 280.6145,51.0332 280.9135,50.8896 281.5068,50.9268 282.6835,51.6506 283.2666,52.3374 283.5552,52.843 283.8379,53.6728 283.8262,54.3209 283.5203,54.7872 282.9151,55.3953 279.9291,56.8122 284.0319,59.3482"/>
    <polygon points="216.143,53.959 219.6123,230.9574 387.6327,350.6659 403.8017,173.0212"/>
    <line x1="219.0238" x2="219.1462" y1="55.8171" y2="62.612"/>
    <line x1="224.525" x2="224.5928" y1="61.5577" y2="66.0841"/>
    <polyline points="224.5395,62.5295 223.9539,61.5157 223.3732,60.8258 222.5102,60.2773 221.9405,60.2359 221.3768,60.5183 221.1061,61.3063 221.1171,61.9527 221.4201,63.1041 222.0043,64.1148 222.5831,64.8029 223.444,65.3517 224.0133,65.3953 224.5783,65.1161"/>
    <line x1="226.2548" x2="228.0465" y1="62.6569" y2="68.2857"/>
    <polyline points="229.7224,64.8605 228.0465,68.2857 227.4874,69.2077 226.9206,69.4843 226.35,69.439 226.0626,69.2555"/>
    <polyline points="231.1924,67.7246 234.6715,69.9384 234.6654,69.2907 234.3688,68.4579 234.0752,67.949 233.4911,67.2555 232.6203,66.7021 232.0437,66.6577 231.4711,66.9374 231.1924,67.7246 231.1997,68.3716 231.4999,69.5255 232.0856,70.54 232.6678,71.2317 233.5365,71.7854 234.1128,71.832 234.6866,71.5555"/>
    <line x1="236.6899" x2="236.7272" y1="69.2882" y2="73.8194"/>
    <polyline points="236.7059,71.233 236.989,70.4462 237.5664,70.168 238.1469,70.2141 239.022,70.7702"/>
    <polyline points="245.4527,72.5855 248.6897,74.6393 246.9293,76.1193 247.8111,76.6798 248.3998,77.3783 248.6945,77.8898 248.9899,79.0497 248.9908,79.6977 248.6983,80.4816 248.1122,80.7542 247.2329,80.5165 246.3537,79.956 245.4741,79.0729 245.1802,78.5631 244.8851,77.7297"/>
    <polygon points="63.8507,147.6373 83.4349,325.3093 251.3148,460.1822 251.3148,283.685"/>
    <line x1="66.7157" x2="67.4615" y1="149.7451" y2="156.6077"/>
    <line x1="72.3912" x2="72.8744" y1="155.9824" y2="160.5525"/>
    <polyline points="72.495,156.9638 71.8534,155.8936 71.2465,155.1505 70.3888,154.5271 69.8524,154.4391 69.3517,154.678 69.1719,155.4507 69.2421,156.1034 69.6322,157.2891 70.272,158.3558 70.8769,159.0968 71.7325,159.7203 72.2688,159.8107 72.7711,159.5753"/>
    <line x1="74.1107" x2="76.3076" y1="157.232" y2="163.0545"/>
    <polyline points="77.558,159.7373 76.3076,163.0545 75.8701,163.9383 75.3658,164.1708 74.8281,164.0784 74.5424,163.8699"/>
    <polyline points="79.1981,162.7459 82.6579,165.2633 82.5923,164.6096 82.2378,163.7454 81.9161,163.2081 81.3054,162.4608 80.4395,161.8314 79.8958,161.7395 79.386,161.9748 79.1981,162.7459 79.2648,163.399 79.6523,164.5871 80.2941,165.6581 80.9027,166.4032 81.7665,167.0327 82.31,167.127 82.8214,166.8952"/>
    <line x1="84.4868" x2="84.9399" y1="164.7729" y2="169.3454"/>
    <polyline points="84.6813,166.7356 84.8737,165.9653 85.3884,165.7321 85.9361,165.8261 86.8066,166.4588"/>
    <line x1="96.5109" x2="94.2264" y1="171.3687" y2="176.1131"/>
    <line x1="92.4113" x2="96.5109" y1="168.3934" y2="171.3687"/>
    <polygon points="22.5844,173.0212 46.8379,350.6659 214.473,489.7805 209.703,313.8838"/>
    <line x1="25.4407" x2="26.3685" y1="175.1993" y2="182.0722"/>
    <line x1="31.1594" x2="31.7639" y1="181.5737" y2="186.1502"/>
    <polyline points="31.2893,182.5565 30.6322,181.4712 30.0184,180.7136 29.1635,180.0691 28.6376,179.9674 28.1561,180.1933 28.0032,180.9604 28.0908,181.6141 28.5059,182.8082 29.1611,183.8898 29.7728,184.6453 30.6257,185.2899 31.1515,185.3939 31.6347,185.1716"/>
    <line x1="32.8734" x2="35.1862" y1="182.8657" y2="188.7369"/>
    <polyline points="36.3099,185.4562 35.1862,188.7369 34.7852,189.6082 34.2999,189.8275 33.7726,189.7214 33.4878,189.5059"/>
    <polyline points="37.9976,188.503 41.4468,191.106 41.3639,190.4515 40.9929,189.5792 40.6633,189.0343 40.0457,188.2723 39.1824,187.6215 38.6492,187.5158 38.1586,187.7377 37.9976,188.503 38.0817,189.1569 38.4943,190.3534 39.1516,191.4394 39.7671,192.1992 40.6283,192.8501 41.1614,192.9582 41.6537,192.74"/>
    <line x1="43.2174" x2="43.7921" y1="190.6632" y2="195.2414"/>
    <polyline points="43.4641,192.6284 43.6295,191.8641 44.1251,191.6444 44.6623,191.7524 45.5302,192.4067"/>
    <polygon points="52.5148,195.581 51.6794,195.2511 51.4674,195.6889 51.5468,196.3457 51.9174,197.2214 52.5395,197.9885 53.7447,199.1955 54.659,200.1832 55.3207,201.2785 55.6904,202.1532 55.8069,203.134 55.593,203.5669 55.3405,203.6731 54.5058,203.3391 53.3422,202.4596 52.431,201.4744 52.101,200.9285 51.7314,200.0559 51.6127,199.0753 51.8243,198.6403 52.3272,198.4244 53.1617,198.7558 54.2889,199.3076 54.8336,199.4198 55.0476,198.9837 54.9695,198.3268 54.5989,197.4493 53.6828,196.4603"/>
    <line x1="281.7582" x2="281.7582" y1="505.5895" y2="517.7953"/>
    <polyline points="281.7582,507.3332 282.9207,506.1707 284.0831,505.5895 285.8268,505.5895 286.9893,506.1707 288.1517,507.3332 288.7329,509.0769 288.7329,510.2393 288.1517,511.983 286.9893,513.1455 285.8268,513.7267 284.0831,513.7267 282.9207,513.1455 281.7582,511.983"/>
    <polyline points="293.3828,501.5209 293.3828,511.4018 293.964,513.1455 295.1264,513.7267 296.2889,513.7267"/>
    <line x1="291.6391" x2="295.7077" y1="505.5895" y2="505.5895"/>
    <line x1="299.7763" x2="299.7763" y1="505.5895" y2="513.7267"/>
    <polyline points="299.7763,509.0769 300.3575,507.3332 301.5199,506.1707 302.6824,505.5895 304.4261,505.5895"/>
    <line x1="313.7257" x2="313.7257" y1="505.5895" y2="513.7267"/>
    <polyline points="313.7257,507.3332 312.5632,506.1707 311.4008,505.5895 309.6571,505.5895 308.4947,506.1707 307.3322,507.3332 306.751,509.0769 306.751,510.2393 307.3322,511.983 308.4947,513.1455 309.6571,513.7267 311.4008,513.7267 312.5632,513.1455 313.7257,511.983"/>
    <line x1="318.3755" x2="318.3755" y1="505.5895" y2="513.7267"/>
    <polyline points="318.3755,507.9144 320.1192,506.1707 321.2816,505.5895 323.0253,505.5895 324.1878,506.1707 324.769,507.9144 324.769,513.7267"/>
    <polyline points="335.2311,507.3332 334.6499,506.1707 332.9062,505.5895 331.1625,505.5895 329.4188,506.1707 328.8376,507.3332 329.4188,508.4956 330.5813,509.0769 333.4874,509.6581 334.6499,510.2393 335.2311,511.4018 335.2311,511.983 334.6499,513.1455 332.9062,513.7267 331.1625,513.7267 329.4188,513.1455 328.8376,511.983"/>
    <line x1="339.2997" x2="339.2997" y1="501.5209" y2="513.7267"/>
    <line x1="350.343" x2="350.343" y1="505.5895" y2="513.7267"/>
    <polyline points="350.343,507.3332 349.1805,506.1707 348.0181,505.5895 346.2744,505.5895 345.1119,506.1707 343.9495,507.3332 343.3683,509.0769 343.3683,510.2393 343.9495,511.983 345.1119,513.1455 346.2744,513.7267 348.0181,513.7267 349.1805,513.1455 350.343,511.983"/>
    <polyline points="355.574,501.5209 355.574,511.4018 356.1552,513.1455 357.3177,513.7267 358.4801,513.7267"/>
    <line x1="353.8303" x2="357.8989" y1="505.5895" y2="505.5895"/>
    <polyline points="361.3863,509.0769 368.361,509.0769 368.361,507.9144 367.7798,506.752 367.1985,506.1707 366.0361,505.5895 364.2924,505.5895 363.13,506.1707 361.9675,507.3332 361.3863,509.0769 361.3863,510.2393 361.9675,511.983 363.13,513.1455 364.2924,513.7267 366.0361,513.7267 367.1985,513.1455 368.361,511.983"/>
    <line x1="381.7292" x2="392.1913" y1="508.4956" y2="508.4956"/>
    <line x1="396.8411" x2="396.8411" y1="501.5209" y2="513.7267"/>
    <polyline points="416.0216,501.5209 410.2093,509.6581 418.9277,509.6581"/>
    <line x1="416.0216" x2="416.0216" y1="501.5209" y2="513.7267"/>
    <polyline points="422.9963,511.4018 422.4151,511.983 421.8338,511.4018 422.4151,510.8206 422.9963,511.4018 422.9963,512.5642 421.8338,513.7267"/>
    <polyline points="433.4584,501.5209 427.6461,501.5209 427.0649,506.752 427.6461,506.1707 429.3898,505.5895 431.1335,505.5895 432.8772,506.1707 434.0396,507.3332 434.6208,509.0769 434.6208,510.2393 434.0396,511.983 432.8772,513.1455 431.1335,513.7267 429.3898,513.7267 427.6461,513.1455 427.0649,512.5642 426.4837,511.4018"/>
    <polyline points="439.2706,511.4018 438.6894,511.983 438.1082,511.4018 438.6894,510.8206 439.2706,511.4018 439.2706,512.5642 438.1082,513.7267"/>
    <polyline points="450.314,503.2646 449.7327,502.1022 447.989,501.5209 446.8266,501.5209 445.0829,502.1022 443.9205,503.8458 443.3392,506.752 443.3392,509.6581 443.9205,511.983 445.0829,513.1455 446.8266,513.7267 447.4078,513.7267 449.1515,513.1455 450.314,511.983 450.8952,510.2393 450.8952,509.6581 450.314,507.9144 449.1515,506.752 447.4078,506.1707 446.8266,506.1707 445.0829,506.752 443.9205,507.9144 443.3392,509.6581"/>
    <polyline points="464.8446,501.5209 471.2381,501.5209 467.7508,506.1707 469.4944,506.1707 470.6569,506.752 471.2381,507.3332 471.8193,509.0769 471.8193,510.2393 471.2381,511.983 470.0757,513.1455 468.332,513.7267 466.5883,513.7267 464.8446,513.1455 464.2634,512.5642 463.6822,511.4018"/>
    <polyline points="482.2814,507.3332 481.119,506.1707 479.9565,505.5895 478.2128,505.5895 477.0504,506.1707 475.8879,507.3332 475.3067,509.0769 475.3067,510.2393 475.8879,511.983 477.0504,513.1455 478.2128,513.7267 479.9565,513.7267 481.119,513.1455 482.2814,511.983"/>
    <line x1="486.35" x2="486.35" y1="505.5895" y2="513.7267"/>
    <polyline points="486.35,507.9144 488.0937,506.1707 489.2561,505.5895 490.9998,505.5895 492.1623,506.1707 492.7435,507.9144 492.7435,513.7267"/>
    <polyline points="492.7435,507.9144 494.4872,506.1707 495.6496,505.5895 497.3933,505.5895 498.5558,506.1707 499.137,507.9144 499.137,513.7267"/>
    <polygon points="515.9926,501.5209 514.2489,502.1022 513.0864,503.8458 512.5052,506.752 512.5052,508.4956 513.0864,511.4018 514.2489,513.1455 515.9926,513.7267 517.155,513.7267 518.8987,513.1455 520.0612,511.4018 520.6424,508.4956 520.6424,506.752 520.0612,503.8458 518.8987,502.1022 517.155,501.5209"/>
    <polygon points="536.9167,501.5209 535.173,502.1022 534.0106,503.8458 533.4294,506.752 533.4294,508.4956 534.0106,511.4018 535.173,513.1455 536.9167,513.7267 538.0792,513.7267 539.8229,513.1455 540.9853,511.4018 541.5665,508.4956 541.5665,506.752 540.9853,503.8458 539.8229,502.1022 538.0792,501.5209"/>
    <polygon points="847.8017,11.3386 844.5279,187.6229 1012.2087,300.6911 1034.9917,123.0775"/>
    <line x1="850.6813" x2="850.5453" y1="13.0884" y2="19.8369"/>
    <line x1="856.0954" x2="855.9912" y1="18.6078" y2="23.1039"/>
    <polyline points="856.073,19.5731 855.5121,18.5853 854.9439,17.9193 854.081,17.4033 853.4991,17.3814 852.9108,17.681 852.6032,18.4732 852.5896,19.1152 852.8558,20.2493 853.4153,21.2341 853.9818,21.8984 854.8425,22.4148 855.424,22.4388 856.0134,22.1423"/>
    <line x1="857.8248" x2="859.4439" y1="19.6419" y2="25.1752"/>
    <polyline points="861.2914,21.7146 859.4439,25.1752 858.836,26.1104 858.2449,26.4046 857.6622,26.3789 857.3748,26.2062"/>
    <polyline points="862.687,24.5111 866.1645,26.5933 866.1831,25.9499 865.9112,25.1323 865.6301,24.6365 865.0586,23.9672 864.1881,23.4467 863.5994,23.4221 863.0025,23.7194 862.687,24.5111 862.6697,25.1538 862.933,26.2904 863.4939,27.2788 864.0636,27.9465 864.9319,28.4674 865.5202,28.4941 866.1183,28.1999"/>
    <line x1="868.2558" x2="868.121" y1="25.8789" y2="30.3805"/>
    <polyline points="868.1979,27.8109 868.5178,27.0195 869.1195,26.7235 869.712,26.7496 870.5866,27.2725"/>
    <polyline points="877.3475,30.3264 877.9461,30.3541 878.8622,29.9107 878.6196,36.6786"/>
    <polygon points="813.6859,32.324 813.6859,208.992 981.5658,325.3093 1001.1499,147.6373"/>
    <line x1="816.5668" x2="816.556" y1="34.1267" y2="40.8993"/>
    <line x1="822.0243" x2="822.0035" y1="39.7546" y2="44.2665"/>
    <polyline points="822.0198,40.7234 821.4468,39.7227 820.8724,39.0449 820.0093,38.5131 819.4332,38.4817 818.8566,38.7731 818.5669,39.5634 818.5652,40.2077 818.8493,41.3505 819.4209,42.3481 819.9935,43.0241 820.8545,43.5563 821.4302,43.5898 822.0079,43.3016"/>
    <line x1="823.7543" x2="825.4575" y1="40.8206" y2="46.4014"/>
    <polyline points="827.2222,42.9573 825.4575,46.4014 824.8731,47.3305 824.2936,47.6163 823.7167,47.581 823.4292,47.4031"/>
    <polyline points="828.6542,45.7871 832.1333,47.9337 832.1399,47.288 831.856,46.4628 831.5688,45.9606 830.9911,45.2793 830.1202,44.7428 829.5372,44.7086 828.9519,44.9974 828.6542,45.7871 828.6489,46.4321 828.9301,47.5773 829.5032,48.5787 830.0791,49.2581 830.9477,49.795 831.5304,49.8314 832.1168,49.5457"/>
    <line x1="834.1898" x2="834.1384" y1="47.2502" y2="51.7672"/>
    <polyline points="834.1677,49.1888 834.4698,48.3995 835.0599,48.1121 835.6467,48.1478 836.5217,48.687"/>
    <polyline points="842.6762,51.8248 842.6814,51.5008 842.9856,51.0332 843.2846,50.8896 843.8779,50.9268 845.0546,51.6506 845.6377,52.3374 845.9263,52.843 846.209,53.6728 846.1973,54.3209 845.8914,54.7872 845.2862,55.3953 842.3002,56.8122 846.403,59.3482"/>
    <polygon points="778.5141,53.959 781.9834,230.9574 950.0038,350.6659 966.1728,173.0212"/>
    <line x1="781.3949" x2="781.5173" y1="55.8171" y2="62.612"/>
    <line x1="786.8961" x2="786.9639" y1="61.5577" y2="66.0841"/>
    <polyline points="786.9106,62.5295 786.325,61.5157 785.7443,60.8258 784.8813,60.2773 784.3116,60.2359 783.7479,60.5183 783.4772,61.3063 783.4882,61.9527 783.7912,63.1041 784.3754,64.1148 784.9542,64.8029 785.8151,65.3517 786.3844,65.3953 786.9494,65.1161"/>
    <line x1="788.6259" x2="790.4176" y1="62.6569" y2="68.2857"/>
    <polyline points="792.0935,64.8605 790.4176,68.2857 789.8585,69.2077 789.2917,69.4843 788.7211,69.439 788.4337,69.2555"/>
    <polyline points="793.5635,67.7246 797.0426,69.9384 797.0365,69.2907 796.7399,68.4579 796.4463,67.949 795.8622,67.2555 794.9914,66.7021 794.4148,66.6577 793.8422,66.9374 793.5635,67.7246 793.5708,68.3716 793.871,69.5255 794.4567,70.54 795.0389,71.2317 795.9076,71.7854 796.4839,71.832 797.0577,71.5555"/>
    <line x1="799.061" x2="799.0983" y1="69.2882" y2="73.8194"/>
    <polyline points="799.077,71.233 799.3601,70.4462 799.9375,70.168 800.518,70.2141 801.3931,70.7702"/>
    <polyline points="807.8238,72.5855 811.0608,74.6393 809.3004,76.1193 810.1822,76.6798 810.7709,77.3783 811.0656,77.8898 811.361,79.0497 811.3619,79.6977 811.0694,80.4816 810.4833,80.7542 809.604,80.5165 808.7248,79.956 807.8452,79.0729 807.5513,78.5631 807.2562,77.7297"/>
    <polygon points="626.2218,147.6373 645.806,325.3093 813.6859,460.1822 813.6859,283.685"/>
    <line x1="629.0868" x2="629.8326" y1="149.7451" y2="156.6077"/>
    <line x1="634.7623" x2="635.2455" y1="155.9824" y2="160.5525"/>
    <polyline points="634.8661,156.9638 634.2245,155.8936 633.6176,155.1505 632.7599,154.5271 632.2235,154.4391 631.7228,154.678 631.543,155.4507 631.6132,156.1034 632.0033,157.2891 632.6431,158.3558 633.248,159.0968 634.1036,159.7203 634.6399,159.8107 635.1422,159.5753"/>
    <line x1="636.4818" x2="638.6787" y1="157.232" y2="163.0545"/>
    <polyline points="639.9291,159.7373 638.6787,163.0545 638.2412,163.9383 637.7369,164.1708 637.1992,164.0784 636.9135,163.8699"/>
    <polyline points="641.5692,162.7459 645.029,165.2633 644.9634,164.6096 644.6089,163.7454 644.2872,163.2081 643.6765,162.4608 642.8106,161.8314 642.2669,161.7395 641.7571,161.9748 641.5692,162.7459 641.6359,163.399 642.0234,164.5871 642.6652,165.6581 643.2738,166.4032 644.1376,167.0327 644.6811,167.127 645.1925,166.8952"/>
    <line x1="646.8579" x2="647.311" y1="164.7729" y2="169.3454"/>
    <polyline points="647.0524,166.7356 647.2448,165.9653 647.7595,165.7321 648.3072,165.8261 649.1777,166.4588"/>
    <line x1="658.882" x2="656.5975" y1="171.3687" y2="176.1131"/>
    <line x1="654.7824" x2="658.882" y1="168.3934" y2="171.3687"/>
    <polygon points="584.9555,173.0212 609.209,350.6659 776.844,489.7805 772.0741,313.8838"/>
    <line x1="587.8118" x2="588.7396" y1="175.1993" y2="182.0722"/>
    <line x1="593.5305" x2="594.135" y1="181.5737" y2="186.1502"/>
    <polyline points="593.6604,182.5565 593.0033,181.4712 592.3895,180.7136 591.5346,180.0691 591.0087,179.9674 590.5272,180.1933 590.3743,180.9604 590.4619,181.6141 590.877,182.8082 591.5322,183.8898 592.1439,184.6453 592.9968,185.2899 593.5226,185.3939 594.0058,185.1716"/>
    <line x1="595.2445" x2="597.5573" y1="182.8657" y2="188.7369"/>
    <polyline points="598.681,185.4562 597.5573,188.7369 597.1563,189.6082 596.671,189.8275 596.1437,189.7214 595.8589,189.5059"/>
    <polyline points="600.3687,188.503 603.8179,191.106 603.735,190.4515 603.364,189.5792 603.0344,189.0343 602.4168,188.2723 601.5535,187.6215 601.0203,187.5158 600.5297,187.7377 600.3687,188.503 600.4528,189.1569 600.8654,190.3534 601.5227,191.4394 602.1382,192.1992 602.9994,192.8501 603.5325,192.9582 604.0248,192.74"/>
    <line x1="605.5885" x2="606.1632" y1="190.6632" y2="195.2414"/>
    <polyline points="605.8352,192.6284 606.0006,191.8641 606.4962,191.6444 607.0334,191.7524 607.9013,192.4067"/>
    <polygon points="614.8859,195.581 614.0505,195.2511 613.8385,195.6889 613.9179,196.3457 614.2885,197.2214 614.9106,197.9885 616.1158,199.1955 617.0301,200.1832 617.6918,201.2785 618.0615,202.1532 618.178,203.134 617.9641,203.5669 617.7116,203.6731 616.8769,203.3391 615.7133,202.4596 614.8021,201.4744 614.4721,200.9285 614.1025,200.0559 613.9838,199.0753 614.1954,198.6403 614.6983,198.4244 615.5328,198.7558 616.66,199.3076 617.2047,199.4198 617.4187,198.9837 617.3406,198.3268 616.97,197.4493 616.0539,196.4603"/>
    <line x1="816.0108" x2="816.0108" y1="505.5895" y2="517.7953"/>
    <polyline points="816.0108,507.3332 817.1732,506.1707 818.3357,505.5895 820.0794,505.5895 821.2418,506.1707 822.4043,507.3332 822.9855,509.0769 822.9855,510.2393 822.4043,511.983 821.2418,513.1455 820.0794,513.7267 818.3357,513.7267 817.1732,513.1455 816.0108,511.983"/>
    <polyline points="827.6353,501.5209 827.6353,511.4018 828.2165,513.1455 829.379,513.7267 830.5414,513.7267"/>
    <line x1="825.8916" x2="829.9602" y1="505.5895" y2="505.5895"/>
    <line x1="834.0288" x2="834.0288" y1="505.5895" y2="513.7267"/>
    <polyline points="834.0288,509.0769 834.61,507.3332 835.7725,506.1707 836.9349,505.5895 838.6786,505.5895"/>
    <line x1="847.9782" x2="847.9782" y1="505.5895" y2="513.7267"/>
    <polyline points="847.9782,507.3332 846.8158,506.1707 845.6533,505.5895 843.9097,505.5895 842.7472,506.1707 841.5847,507.3332 841.0035,509.0769 841.0035,510.2393 841.5847,511.983 842.7472,513.1455 843.9097,513.7267 845.6533,513.7267 846.8158,513.1455 847.9782,511.983"/>
    <line x1="852.6281" x2="852.6281" y1="505.5895" y2="513.7267"/>
    <polyline points="852.6281,507.9144 854.3717,506.1707 855.5342,505.5895 857.2779,505.5895 858.4403,506.1707 859.0215,507.9144 859.0215,513.7267"/>
    <polyline points="869.4836,507.3332 868.9024,506.1707 867.1587,505.5895 865.415,505.5895 863.6714,506.1707 863.0901,507.3332 863.6714,508.4956 864.8338,509.0769 867.7399,509.6581 868.9024,510.2393 869.4836,511.4018 869.4836,511.983 868.9024,513.1455 867.1587,513.7267 865.415,513.7267 863.6714,513.1455 863.0901,511.983"/>
    <line x1="873.5522" x2="873.5522" y1="501.5209" y2="513.7267"/>
    <line x1="884.5955" x2="884.5955" y1="505.5895" y2="513.7267"/>
    <polyline points="884.5955,507.3332 883.4331,506.1707 882.2706,505.5895 880.5269,505.5895 879.3645,506.1707 878.202,507.3332 877.6208,509.0769 877.6208,510.2393 878.202,511.983 879.3645,513.1455 880.5269,513.7267 882.2706,513.7267 883.4331,513.1455 884.5955,511.983"/>
    <polyline points="889.8266,501.5209 889.8266,511.4018 890.4078,513.1455 891.5702,513.7267 892.7327,513.7267"/>
    <line x1="888.0829" x2="892.1515" y1="505.5895" y2="505.5895"/>
    <polyline points="895.6388,509.0769 902.6135,509.0769 902.6135,507.9144 902.0323,506.752 901.4511,506.1707 900.2886,505.5895 898.545,505.5895 897.3825,506.1707 896.2201,507.3332 895.6388,509.0769 895.6388,510.2393 896.2201,511.983 897.3825,513.1455 898.545,513.7267 900.2886,513.7267 901.4511,513.1455 902.6135,511.983"/>
    <line x1="915.9818" x2="926.4438" y1="508.4956" y2="508.4956"/>
    <line x1="931.0936" x2="931.0936" y1="501.5209" y2="513.7267"/>
    <polyline points="950.2741,501.5209 944.4619,509.6581 953.1803,509.6581"/>
    <line x1="950.2741" x2="950.2741" y1="501.5209" y2="513.7267"/>
    <polyline points="957.2488,511.4018 956.6676,511.983 956.0864,511.4018 956.6676,510.8206 957.2488,511.4018 957.2488,512.5642 956.0864,513.7267"/>
    <polyline points="967.7109,501.5209 961.8987,501.5209 961.3174,506.752 961.8987,506.1707 963.6423,505.5895 965.386,505.5895 967.1297,506.1707 968.2922,507.3332 968.8734,509.0769 968.8734,510.2393 968.2922,511.983 967.1297,513.1455 965.386,513.7267 963.6423,513.7267 961.8987,513.1455 961.3174,512.5642 960.7362,511.4018"/>
    <polyline points="973.5232,511.4018 972.942,511.983 972.3607,511.4018 972.942,510.8206 973.5232,511.4018 973.5232,512.5642 972.3607,513.7267"/>
    <polyline points="984.5665,503.2646 983.9853,502.1022 982.2416,501.5209 981.0791,501.5209 979.3355,502.1022 978.173,503.8458 977.5918,506.752 977.5918,509.6581 978.173,511.983 979.3355,513.1455 981.0791,513.7267 981.6604,513.7267 983.404,513.1455 984.5665,511.983 985.1477,510.2393 985.1477,509.6581 984.5665,507.9144 983.404,506.752 981.6604,506.1707 981.0791,506.1707 979.3355,506.752 978.173,507.9144 977.5918,509.6581"/>
    <line x1="998.5159" x2="1008.978" y1="508.4956" y2="508.4956"/>
    <line x1="1020.0213" x2="1020.0213" y1="505.5895" y2="513.7267"/>
    <polyline points="1020.0213,507.3332 1018.8589,506.1707 1017.6964,505.5895 1015.9527,505.5895 1014.7903,506.1707 1013.6278,507.3332 1013.0466,509.0769 1013.0466,510.2393 1013.6278,511.983 1014.7903,513.1455 1015.9527,513.7267 1017.6964,513.7267 1018.8589,513.1455 1020.0213,511.983"/>
    <polyline points="1034.552,501.5209 1040.9455,501.5209 1037.4581,506.1707 1039.2018,506.1707 1040.3643,506.752 1040.9455,507.3332 1041.5267,509.0769 1041.5267,510.2393 1040.9455,511.983 1039.783,513.1455 1038.0394,513.7267 1036.2957,513.7267 1034.552,513.1455 1033.9708,512.5642 1033.3895,511.4018"/>
    <polyline points="1051.9888,507.3332 1050.8263,506.1707 1049.6639,505.5895 1047.9202,505.5895 1046.7578,506.1707 1045.5953,507.3332 1045.0141,509.0769 1045.0141,510.2393 1045.5953,511.983 1046.7578,513.1455 1047.9202,513.7267 1049.6639,513.7267 1050.8263,513.1455 1051.9888,511.983"/>
    <line x1="1056.0574" x2="1056.0574" y1="505.5895" y2="513.7267"/>
    <polyline points="1056.0574,507.9144 1057.8011,506.1707 1058.9635,505.5895 1060.7072,505.5895 1061.8696,506.1707 1062.4509,507.9144 1062.4509,513.7267"/>
    <polyline points="1062.4509,507.9144 1064.1946,506.1707 1065.357,505.5895 1067.1007,505.5895 1068.2631,506.1707 1068.8444,507.9144 1068.8444,513.7267"/>
    <polygon points="1085.6999,501.5209 1083.9563,502.1022 1082.7938,503.8458 1082.2126,506.752 1082.2126,508.4956 1082.7938,511.4018 1083.9563,513.1455 1085.6999,513.7267 1086.8624,513.7267 1088.6061,513.1455 1089.7685,511.4018 1090.3497,508.4956 1090.3497,506.752 1089.7685,503.8458 1088.6061,502.1022 1086.8624,501.5209"/>
    <polygon points="1106.6241,501.5209 1104.8804,502.1022 1103.718,503.8458 1103.1367,506.752 1103.1367,508.4956 1103.718,511.4018 1104.8804,513.1455 1106.6241,513.7267 1107.7865,513.7267 1109.5302,513.1455 1110.6927,511.4018 1111.2739,508.4956 1111.2739,506.752 1110.6927,503.8458 1109.5302,502.1022 1107.7865,501.5209"/>
  </g>
  <g fill="none" id="layer10" inkscape:groupmode="layer" inkscape:label="10" stroke="#008800" style="display:inline">
    <polygon points="233.0211,111.0941 234.8908,288.6488 410.6456,417.514 430.3715,240.3696"/>
    <line x1="236.0403" x2="236.1006" y1="113.1026" y2="119.9444"/>
    <line x1="241.7841" x2="241.8092" y1="119.1443" y2="123.7012"/>
    <polyline points="241.7895,120.1228 241.1822,119.0744 240.5767,118.3522 239.672,117.7587 239.0716,117.6894 238.4741,117.9463 238.1807,118.7259 238.1856,119.3767 238.4935,120.5496 239.0992,121.5946 239.7027,122.3149 240.605,122.9087 241.2051,122.9801 241.8039,122.7267"/>
    <line x1="243.5976" x2="245.4296" y1="120.3341" y2="126.0837"/>
    <polyline points="247.2334,122.7195 245.4296,126.0837 244.8303,126.9838 244.2295,127.2345 243.6281,127.1611 243.3268,126.9626"/>
    <polyline points="248.7546,125.6723 252.4028,128.0689 252.4032,127.4171 252.0989,126.5647 251.7944,126.0384 251.1853,125.3122 250.2721,124.7131 249.664,124.6404 249.0569,124.8939 248.7546,125.6723 248.7556,126.3236 249.0603,127.499 249.6677,128.5481 250.2748,129.2722 251.1856,129.8716 251.7933,129.9466 252.4018,129.6965"/>
    <line x1="254.54" x2="254.5314" y1="127.5132" y2="132.0734"/>
    <polyline points="254.5363,129.4705 254.8434,128.6928 255.4558,128.4411 256.0681,128.5157 256.986,129.1179"/>
    <polyline points="266.2255,132.8759 263.1083,135.4293 267.7275,138.4644"/>
    <line x1="266.2255" x2="266.1659" y1="132.8759" y2="139.7299"/>
    <polygon points="195.5357,135.2569 201.3201,312.9099 377.2,445.7344 393.0629,268.9892"/>
    <line x1="198.554" x2="198.7655" y1="137.3308" y2="144.1872"/>
    <line x1="204.3458" x2="204.4716" y1="143.5016" y2="148.0677"/>
    <polyline points="204.3728,144.4821 203.7513,143.4193 203.1389,142.6833 202.2346,142.0701 201.6416,141.9885 201.0589,142.2337 200.7871,143.0088 200.8064,143.661 201.1357,144.8424 201.7556,145.9018 202.3659,146.6357 203.2679,147.2491 203.8605,147.333 204.4447,147.0913"/>
    <line x1="206.1586" x2="208.0906" y1="144.7308" y2="150.5289"/>
    <polyline points="209.793,147.1951 208.0906,150.5289 207.5202,151.4185 206.9339,151.6573 206.3399,151.5714 206.0387,151.3663"/>
    <polyline points="211.357,150.1849 215.0042,152.661 214.9902,152.0079 214.6716,151.1476 214.3599,150.614 213.7437,149.8739 212.8308,149.2549 212.2301,149.1696 211.6376,149.4112 211.357,150.1849 211.3724,150.8375 211.6986,152.0214 212.3202,153.085 212.9343,153.823 213.8448,154.4422 214.4451,154.5298 215.0391,154.2917"/>
    <line x1="217.0976" x2="217.1898" y1="152.1481" y2="156.717"/>
    <polyline points="217.1372,154.1092 217.4226,153.3363 218.0205,153.0966 218.6254,153.184 219.5431,153.8062"/>
    <polyline points="229.349,158.1804 226.2619,156.0903 225.9979,158.8308 226.3007,158.7123 227.2199,159.0115 228.1446,159.6385 229.0744,160.5934 229.7001,161.6664 230.0212,162.8564 230.0294,163.5095 229.7336,164.2787 229.1261,164.5117 228.2073,164.2097 227.2851,163.5825 226.3587,162.6301 226.0468,162.0956 225.7299,161.2349"/>
    <polygon points="156.8031,160.2237 166.7501,337.8933 342.6788,474.8624 354.4005,298.6474"/>
    <line x1="159.8189" x2="160.1916" y1="162.3662" y2="169.2344"/>
    <line x1="165.6586" x2="165.8919" y1="168.6713" y2="173.2449"/>
    <polyline points="165.7087,169.6535 165.0724,168.5758 164.453,167.8255 163.5496,167.1917 162.9649,167.097 162.3982,167.3295 162.1497,168.0994 162.1844,168.7527 162.5364,169.9426 163.1709,171.0167 163.7883,171.7649 164.6893,172.3988 165.2737,172.4959 165.842,172.2669"/>
    <line x1="167.4696" x2="169.5074" y1="169.9419" y2="175.7887"/>
    <polyline points="171.1007,172.4893 169.5074,175.7887 168.9681,176.6664 168.3977,176.8925 167.8119,176.7933 167.511,176.5814"/>
    <polyline points="172.7094,175.5168 176.3534,178.0765 176.3241,177.4224 175.9903,176.5541 175.6713,176.013 175.0479,175.2585 174.1357,174.6185 173.5433,174.5198 172.9667,174.7485 172.7094,175.5168 172.7401,176.1704 173.0891,177.3627 173.7255,178.4412 174.3467,179.1935 175.2565,179.8336 175.8486,179.9347 176.4267,179.7096"/>
    <line x1="178.399" x2="178.5987" y1="177.6095" y2="182.1851"/>
    <polyline points="178.4847,179.5735 178.7469,178.8062 179.3288,178.5796 179.9256,178.6805 180.8426,179.3238"/>
    <polyline points="190.9324,185.1233 190.5996,184.2498 189.6612,183.2721 189.044,182.8398 188.1313,182.5203 187.5528,183.0738 187.3081,184.4975 187.371,186.1337 187.7283,187.6562 188.3672,188.7407 189.301,189.7151 189.6084,189.9313 190.5188,190.2542 191.1107,190.0345 191.3833,189.2712 191.3715,188.9443 191.0276,187.7462 190.387,186.6584 189.4502,185.6818 189.1422,185.4656 188.2309,185.1451 187.6407,185.3682 187.371,186.1337"/>
    <polygon points="900.9402,43.0584 892.3931,219.8987 1067.3798,337.8933 1097.2208,160.2237"/>
    <line x1="903.9532" x2="903.6137" y1="44.8885" y2="51.6725"/>
    <line x1="909.554" x2="909.313" y1="50.5722" y2="55.0915"/>
    <polyline points="909.5022,51.5426 908.934,50.5354 908.3487,49.8516 907.4455,49.3115 906.8271,49.2752 906.1925,49.5622 905.8424,50.3514 905.8093,50.9968 906.0597,52.1439 906.6266,53.148 907.21,53.83 908.1109,54.3704 908.7288,54.4088 909.3645,54.125"/>
    <line x1="911.3642" x2="912.9268" y1="51.6546" y2="57.2594"/>
    <polyline points="914.993,53.8244 912.9268,57.2594 912.2528,58.185 911.6153,58.4663 910.9961,58.4261 910.6954,58.2454"/>
    <polyline points="916.3971,56.6712 920.0375,58.8511 920.0759,58.2044 919.8104,57.3754 919.5256,56.8698 918.9368,56.1825 918.0255,55.6376 917.3997,55.5984 916.7558,55.8827 916.3971,56.6712 916.36,57.3172 916.6072,58.4668 917.1754,59.4747 917.7623,60.1603 918.6712,60.7055 919.2965,60.7469 919.9416,60.4657"/>
    <line x1="922.2841" x2="922.0096" y1="58.1839" y2="62.7082"/>
    <polyline points="922.1663,60.1257 922.5297,59.3376 923.1788,59.0547 923.8087,59.0955 924.7244,59.6431"/>
    <polyline points="934.0735,62.8685 930.6983,65.5706 935.3049,68.3296"/>
    <line x1="934.0735" x2="933.6149" y1="62.8685" y2="69.6702"/>
    <polygon points="900.9402,43.0584 892.3931,219.8987 1067.3798,337.8933 1097.2208,160.2237"/>
    <line x1="903.9532" x2="903.6137" y1="44.8885" y2="51.6725"/>
    <line x1="909.554" x2="909.313" y1="50.5722" y2="55.0915"/>
    <polyline points="909.5022,51.5426 908.934,50.5354 908.3487,49.8516 907.4455,49.3115 906.8271,49.2752 906.1925,49.5622 905.8424,50.3514 905.8093,50.9968 906.0597,52.1439 906.6266,53.148 907.21,53.83 908.1109,54.3704 908.7288,54.4088 909.3645,54.125"/>
    <line x1="911.3642" x2="912.9268" y1="51.6546" y2="57.2594"/>
    <polyline points="914.993,53.8244 912.9268,57.2594 912.2528,58.185 911.6153,58.4663 910.9961,58.4261 910.6954,58.2454"/>
    <polyline points="916.3971,56.6712 920.0375,58.8511 920.0759,58.2044 919.8104,57.3754 919.5256,56.8698 918.9368,56.1825 918.0255,55.6376 917.3997,55.5984 916.7558,55.8827 916.3971,56.6712 916.36,57.3172 916.6072,58.4668 917.1754,59.4747 917.7623,60.1603 918.6712,60.7055 919.2965,60.7469 919.9416,60.4657"/>
    <line x1="922.2841" x2="922.0096" y1="58.1839" y2="62.7082"/>
    <polyline points="922.1663,60.1257 922.5297,59.3376 923.1788,59.0547 923.8087,59.0955 924.7244,59.6431"/>
    <polyline points="934.6899,63.2365 931.611,61.3986 931.1114,64.1358 931.4397,63.9953 932.3827,64.2222 933.305,64.7736 934.2061,65.6498 934.7776,66.6662 935.0193,67.8217 934.9752,68.4688 934.6017,69.2542 933.9436,69.5316 933.0013,69.3021 932.0814,68.7503 931.1836,67.8762 930.8985,67.3698 930.6347,66.5403"/>
    <polygon points="900.9402,43.0584 892.3931,219.8987 1067.3798,337.8933 1097.2208,160.2237"/>
    <line x1="903.9532" x2="903.6137" y1="44.8885" y2="51.6725"/>
    <line x1="909.554" x2="909.313" y1="50.5722" y2="55.0915"/>
    <polyline points="909.5022,51.5426 908.934,50.5354 908.3487,49.8516 907.4455,49.3115 906.8271,49.2752 906.1925,49.5622 905.8424,50.3514 905.8093,50.9968 906.0597,52.1439 906.6266,53.148 907.21,53.83 908.1109,54.3704 908.7288,54.4088 909.3645,54.125"/>
    <line x1="911.3642" x2="912.9268" y1="51.6546" y2="57.2594"/>
    <polyline points="914.993,53.8244 912.9268,57.2594 912.2528,58.185 911.6153,58.4663 910.9961,58.4261 910.6954,58.2454"/>
    <polyline points="916.3971,56.6712 920.0375,58.8511 920.0759,58.2044 919.8104,57.3754 919.5256,56.8698 918.9368,56.1825 918.0255,55.6376 917.3997,55.5984 916.7558,55.8827 916.3971,56.6712 916.36,57.3172 916.6072,58.4668 917.1754,59.4747 917.7623,60.1603 918.6712,60.7055 919.2965,60.7469 919.9416,60.4657"/>
    <line x1="922.2841" x2="922.0096" y1="58.1839" y2="62.7082"/>
    <polyline points="922.1663,60.1257 922.5297,59.3376 923.1788,59.0547 923.8087,59.0955 924.7244,59.6431"/>
    <polyline points="934.932,64.3955 934.6679,63.5616 933.7654,62.6846 933.1495,62.317 932.2046,62.0908 931.5253,62.6979 931.1114,64.1358 931.0049,65.7542 931.2262,67.2306 931.7964,68.2438 932.6946,69.1181 933.0013,69.3021 933.9436,69.5316 934.6017,69.2542 934.9752,68.4688 934.9972,68.1453 934.7556,66.9901 934.1842,65.9739 933.2832,65.0979 932.9758,64.914 932.0324,64.6867 931.3756,64.9671 931.0049,65.7542"/>
  </g>
</svg>
