<svg xmlns="http://www.w3.org/2000/svg" xmlns:cc="http://creativecommons.org/ns" xmlns:ev="http://www.w3.org/2001/xml-events" xmlns:rdf="http://www.w3.org/1999/02/22-rdf-syntax-ns" xmlns:xlink="http://www.w3.org/1999/xlink" width="30cm" height="12cm" baseProfile="tiny" version="1.2" viewBox="0 0 1133.858 453.543"><metadata><rdf:RDF><cc:Work/></rdf:RDF></metadata><g id="layer6" fill="none" stroke="#00f" style="display:inline"><polygon points="228.758 11.339 230.665 200.525 409.925 326.424 430.044 136.262"/><line x1="231.361" x2="231.399" y1="14.649" y2="19.023"/><line x1="234.87" x2="234.89" y1="18.284" y2="21.198"/><polyline points="234.874 18.909 234.503 18.263 234.133 17.826 233.58 17.482 233.214 17.462 232.849 17.649 232.67 18.16 232.674 18.576 232.862 19.314 233.233 19.959 233.602 20.396 234.154 20.74 234.52 20.761 234.885 20.575"/><line x1="235.976" x2="237.1" y1="18.972" y2="22.576"/><polyline points="238.192 20.351 237.1 22.576 236.736 23.177 236.37 23.363 236.003 23.341 235.819 23.226"/><polyline points="239.122 22.176 241.342 23.558 241.341 23.142 241.154 22.609 240.968 22.286 240.597 21.846 240.042 21.501 239.672 21.479 239.304 21.666 239.122 22.176 239.124 22.593 239.311 23.332 239.683 23.978 240.053 24.417 240.608 24.762 240.977 24.785 241.346 24.599"/><line x1="242.636" x2="242.644" y1="23.115" y2="26.031"/><polyline points="242.64 24.366 242.823 23.856 243.194 23.67 243.564 23.692 244.122 24.039"/><polyline points="248.403 26.075 248.776 26.098 249.337 25.819 249.332 30.2"/><polygon points="190.525 34.688 196.424 224.228 375.812 353.995 391.991 163.919"/><line x1="193.162" x2="193.293" y1="38.058" y2="42.446"/><line x1="196.701" x2="196.782" y1="41.77" y2="44.694"/><polyline points="196.718 42.397 196.338 41.742 195.964 41.296 195.412 40.941 195.05 40.914 194.694 41.095 194.529 41.604 194.541 42.022 194.743 42.766 195.122 43.42 195.495 43.865 196.047 44.22 196.409 44.248 196.765 44.068"/><line x1="197.806" x2="198.991" y1="42.48" y2="46.117"/><polyline points="200.021 43.904 198.991 46.117 198.645 46.713 198.288 46.892 197.926 46.863 197.742 46.745"/><polyline points="200.978 45.753 203.197 47.181 203.187 46.763 202.992 46.225 202.801 45.897 202.426 45.45 201.87 45.093 201.506 45.064 201.146 45.245 200.978 45.753 200.988 46.171 201.189 46.916 201.569 47.572 201.944 48.018 202.498 48.375 202.863 48.405 203.223 48.225"/><line x1="204.464" x2="204.533" y1="46.76" y2="49.686"/><polyline points="204.494 48.015 204.664 47.507 205.026 47.327 205.392 47.356 205.949 47.715"/><polyline points="209.847 49.807 209.843 49.597 210.02 49.298 210.203 49.208 210.572 49.238 211.318 49.718 211.696 50.167 211.887 50.497 212.082 51.036 212.09 51.455 211.912 51.754 211.551 52.142 209.73 53.033 212.338 54.713"/><polygon points="151.019 58.814 161.165 248.636 340.602 382.453 352.558 192.578"/><line x1="153.693" x2="153.922" y1="62.245" y2="66.647"/><line x1="157.26" x2="157.408" y1="66.037" y2="68.97"/><polyline points="157.292 66.666 156.903 66.002 156.525 65.547 155.973 65.181 155.616 65.146 155.27 65.321 155.119 65.828 155.141 66.247 155.356 66.997 155.745 67.66 156.122 68.114 156.673 68.481 157.03 68.516 157.376 68.342"/><line x1="158.365" x2="159.615" y1="66.772" y2="70.441"/><polyline points="160.578 68.243 159.615 70.441 159.288 71.032 158.94 71.204 158.583 71.168 158.399 71.046"/><polyline points="161.561 70.116 163.779 71.592 163.759 71.173 163.554 70.63 163.36 70.297 162.98 69.841 162.425 69.472 162.065 69.436 161.716 69.61 161.561 70.116 161.581 70.535 161.796 71.286 162.185 71.951 162.564 72.406 163.118 72.775 163.478 72.812 163.828 72.64"/><line x1="165.016" x2="165.151" y1="71.195" y2="74.13"/><polyline points="165.074 72.454 165.231 71.948 165.582 71.775 165.943 71.812 166.5 72.182"/><polyline points="170.526 73.43 172.578 74.794 171.53 75.732 172.089 76.104 172.471 76.562 172.666 76.896 172.879 77.65 172.897 78.069 172.737 78.574 172.381 78.745 171.832 78.582 171.274 78.21 170.707 77.629 170.512 77.295 170.308 76.752"/><polygon points="110.178 83.757 124.84 273.782 304.242 411.84 311.667 222.298"/><line x1="112.888" x2="113.222" y1="87.251" y2="91.665"/><line x1="116.485" x2="116.702" y1="91.126" y2="94.067"/><polyline points="116.531 91.757 116.133 91.084 115.75 90.62 115.199 90.241 114.848 90.198 114.513 90.366 114.377 90.87 114.409 91.29 114.639 92.046 115.037 92.719 115.419 93.181 115.969 93.561 116.32 93.604 116.655 93.438"/><line x1="117.587" x2="118.905" y1="91.886" y2="95.588"/><polyline points="119.796 93.408 118.905 95.588 118.599 96.173 118.262 96.338 117.911 96.294 117.727 96.168"/><polyline points="120.809 95.305 123.022 96.832 122.993 96.411 122.778 95.863 122.579 95.525 122.195 95.06 121.641 94.679 121.287 94.635 120.948 94.801 120.809 95.305 120.839 95.725 121.068 96.482 121.466 97.156 121.85 97.621 122.403 98.002 122.757 98.047 123.097 97.882"/><line x1="124.228" x2="124.433" y1="96.461" y2="99.404"/><polyline points="124.316 97.723 124.457 97.22 124.798 97.054 125.153 97.099 125.709 97.482"/><polyline points="131.184 99.845 129.519 101.512 132.309 103.436"/><line x1="131.184" x2="131.475" y1="99.845" y2="104.264"/><polygon points="67.931 109.558 87.4 299.699 266.673 442.205 269.236 253.136"/><line x1="70.678" x2="71.125" y1="113.118" y2="117.543"/><line x1="74.304" x2="74.596" y1="117.08" y2="120.028"/><polyline points="74.367 117.712 73.959 117.029 73.571 116.556 73.022 116.163 72.677 116.113 72.353 116.273 72.234 116.774 72.276 117.195 72.522 117.957 72.93 118.639 73.316 119.111 73.865 119.504 74.21 119.555 74.534 119.397"/><line x1="75.404" x2="76.794" y1="117.866" y2="121.601"/><polyline points="77.608 119.441 76.794 121.601 76.51 122.179 76.185 122.337 75.84 122.284 75.657 122.153"/><polyline points="78.65 121.363 80.859 122.943 80.819 122.521 80.594 121.968 80.389 121.625 80.001 121.151 79.448 120.756 79.1 120.704 78.773 120.862 78.65 121.363 78.691 121.784 78.936 122.547 79.344 123.231 79.732 123.704 80.284 124.099 80.632 124.153 80.96 123.995"/><line x1="82.029" x2="82.31" y1="122.6" y2="125.549"/><polyline points="82.15 123.865 82.274 123.365 82.603 123.207 82.953 123.26 83.507 123.656"/><polyline points="89.304 126.416 87.445 125.089 87.435 126.858 87.601 126.779 88.138 126.966 88.695 127.364 89.272 127.974 89.682 128.661 89.925 129.427 89.964 129.848 89.835 130.347 89.502 130.502 88.965 130.314 88.409 129.916 87.834 129.308 87.629 128.965 87.405 128.411"/><line x1="26.873" x2="26.873" y1="388.336" y2="400.786"/><polyline points="26.873 394.264 25.688 393.079 24.502 392.486 22.724 392.486 21.538 393.079 20.352 394.264 19.76 396.043 19.76 397.228 20.352 399.007 21.538 400.193 22.724 400.786 24.502 400.786 25.688 400.193 26.873 399.007"/><polyline points="31.023 396.043 38.137 396.043 38.137 394.857 37.544 393.672 36.951 393.079 35.766 392.486 33.987 392.486 32.802 393.079 31.616 394.264 31.023 396.043 31.023 397.228 31.616 399.007 32.802 400.193 33.987 400.786 35.766 400.786 36.951 400.193 38.137 399.007"/><line x1="42.287" x2="42.287" y1="388.336" y2="400.786"/><polyline points="47.622 388.336 47.622 398.414 48.215 400.193 49.401 400.786 50.586 400.786"/><line x1="45.844" x2="49.993" y1="392.486" y2="392.486"/><line x1="60.664" x2="60.664" y1="392.486" y2="400.786"/><polyline points="60.664 394.264 59.478 393.079 58.293 392.486 56.514 392.486 55.329 393.079 54.143 394.264 53.55 396.043 53.55 397.228 54.143 399.007 55.329 400.193 56.514 400.786 58.293 400.786 59.478 400.193 60.664 399.007"/><line x1="63.035" x2="73.706" y1="404.935" y2="404.935"/><line x1="82.006" x2="75.485" y1="392.486" y2="400.786"/><line x1="75.485" x2="82.006" y1="392.486" y2="392.486"/><line x1="75.485" x2="82.006" y1="400.786" y2="400.786"/><line x1="95.641" x2="106.311" y1="393.672" y2="393.672"/><line x1="95.641" x2="106.311" y1="397.228" y2="397.228"/><polyline points="120.539 391.3 120.539 390.707 121.132 389.522 121.725 388.929 122.91 388.336 125.281 388.336 126.467 388.929 127.06 389.522 127.653 390.707 127.653 391.893 127.06 393.079 125.874 394.857 119.946 400.786 128.245 400.786"/><polyline points="138.916 394.264 137.731 393.079 136.545 392.486 134.767 392.486 133.581 393.079 132.395 394.264 131.803 396.043 131.803 397.228 132.395 399.007 133.581 400.193 134.767 400.786 136.545 400.786 137.731 400.193 138.916 399.007"/><line x1="143.066" x2="143.066" y1="392.486" y2="400.786"/><polyline points="143.066 394.857 144.845 393.079 146.03 392.486 147.809 392.486 148.994 393.079 149.587 394.857 149.587 400.786"/><polyline points="149.587 394.857 151.365 393.079 152.551 392.486 154.33 392.486 155.515 393.079 156.108 394.857 156.108 400.786"/><polygon points="590.111 28.304 596.395 224.254 781.52 358.265 798.846 161.721"/><line x1="592.838" x2="592.977" y1="31.787" y2="36.339"/><line x1="596.494" x2="596.581" y1="35.619" y2="38.653"/><polyline points="596.513 36.27 596.12 35.593 595.733 35.132 595.163 34.767 594.789 34.74 594.422 34.93 594.252 35.459 594.265 35.892 594.474 36.663 594.866 37.339 595.252 37.799 595.822 38.165 596.195 38.192 596.563 38.003"/><line x1="597.637" x2="598.864" y1="36.351" y2="40.118"/><polyline points="599.925 37.817 598.864 40.118 598.507 40.738 598.139 40.926 597.764 40.898 597.574 40.776"/><polyline points="600.914 39.73 603.207 41.201 603.197 40.767 602.994 40.21 602.798 39.871 602.409 39.408 601.836 39.041 601.459 39.013 601.088 39.202 600.914 39.73 600.926 40.164 601.134 40.936 601.527 41.614 601.914 42.075 602.487 42.443 602.863 42.472 603.235 42.284"/><line x1="604.516" x2="604.59" y1="40.758" y2="43.793"/><polyline points="604.547 42.06 604.723 41.532 605.096 41.343 605.474 41.372 606.05 41.741"/><polyline points="610.459 43.922 610.84 43.951 611.405 43.669 611.499 48.228"/><polygon points="569.837 40.622 578.351 236.737 763.515 372.88 778.628 176.432"/><line x1="572.582" x2="572.774" y1="44.137" y2="48.697"/><line x1="576.255" x2="576.376" y1="48.011" y2="51.05"/><polyline points="576.281 48.663 575.883 47.981 575.494 47.516 574.924 47.144 574.553 47.114 574.191 47.3 574.028 47.828 574.046 48.262 574.262 49.036 574.659 49.717 575.048 50.182 575.617 50.554 575.988 50.585 576.35 50.4"/><line x1="577.396" x2="578.657" y1="48.756" y2="52.54"/><polyline points="579.684 50.247 578.657 52.54 578.311 53.158 577.947 53.342 577.576 53.31 577.386 53.186"/><polyline points="580.687 52.173 582.98 53.669 582.964 53.234 582.756 52.675 582.557 52.332 582.167 51.865 581.593 51.492 581.219 51.46 580.854 51.646 580.687 52.173 580.704 52.607 580.919 53.383 581.317 54.065 581.706 54.531 582.279 54.905 582.653 54.938 583.019 54.754"/><line x1="584.272" x2="584.381" y1="53.238" y2="56.278"/><polyline points="584.319 54.542 584.487 54.015 584.855 53.83 585.231 53.863 585.806 54.238"/><polyline points="589.827 56.433 589.82 56.216 589.999 55.906 590.184 55.813 590.563 55.846 591.334 56.349 591.727 56.818 591.927 57.162 592.134 57.723 592.148 58.159 591.968 58.468 591.604 58.87 589.749 59.785 592.443 61.544"/><polygon points="549.213 53.151 560.03 249.411 745.21 387.739 758.028 191.419"/><line x1="551.978" x2="552.223" y1="56.699" y2="61.266"/><line x1="555.666" x2="555.823" y1="60.617" y2="63.66"/><polyline points="555.7 61.27 555.297 60.582 554.906 60.112 554.336 59.734 553.968 59.7 553.611 59.883 553.456 60.41 553.479 60.844 553.703 61.622 554.105 62.308 554.496 62.777 555.064 63.155 555.433 63.191 555.79 63.009"/><line x1="556.807" x2="558.103" y1="61.374" y2="65.176"/><polyline points="559.093 62.891 558.103 65.176 557.767 65.791 557.409 65.971 557.04 65.935 556.851 65.809"/><polyline points="560.111 64.83 562.402 66.351 562.381 65.916 562.169 65.354 561.967 65.009 561.575 64.538 561.001 64.157 560.63 64.122 560.27 64.304 560.111 64.83 560.133 65.265 560.356 66.043 560.758 66.731 561.15 67.202 561.722 67.582 562.094 67.619 562.455 67.438"/><line x1="563.679" x2="563.823" y1="65.934" y2="68.979"/><polyline points="563.741 67.24 563.901 66.715 564.264 66.533 564.636 66.57 565.212 66.951"/><polyline points="569.37 68.228 571.491 69.635 570.41 70.612 570.988 70.996 571.383 71.47 571.585 71.816 571.806 72.597 571.825 73.032 571.66 73.557 571.294 73.736 570.726 73.569 570.149 73.185 569.563 72.585 569.361 72.24 569.15 71.677"/><polygon points="528.232 65.898 541.426 262.282 726.599 402.846 737.038 206.691"/><line x1="531.016" x2="531.317" y1="69.479" y2="74.053"/><line x1="534.72" x2="534.914" y1="73.441" y2="76.489"/><polyline points="534.761 74.095 534.354 73.403 533.96 72.928 533.391 72.543 533.026 72.505 532.675 72.685 532.528 73.21 532.556 73.645 532.788 74.426 533.195 75.117 533.588 75.591 534.156 75.976 534.521 76.015 534.873 75.837"/><line x1="535.86" x2="537.192" y1="74.212" y2="78.031"/><polyline points="538.144 75.755 537.192 78.031 536.867 78.643 536.514 78.82 536.149 78.78 535.959 78.651"/><polyline points="539.178 77.707 541.467 79.255 541.44 78.819 541.223 78.254 541.019 77.907 540.624 77.431 540.051 77.044 539.683 77.004 539.328 77.182 539.178 77.707 539.204 78.143 539.435 78.924 539.842 79.617 540.237 80.093 540.809 80.48 541.177 80.521 541.532 80.344"/><line x1="542.726" x2="542.908" y1="78.852" y2="81.901"/><polyline points="542.804 80.16 542.957 79.635 543.313 79.458 543.683 79.498 544.258 79.886"/><polyline points="549.936 82.251 548.183 84.007 551.068 85.958"/><line x1="549.936" x2="550.19" y1="82.251" y2="86.832"/><polygon points="506.884 78.868 522.532 275.353 707.673 418.209 715.644 222.256"/><line x1="509.687" x2="510.046" y1="82.484" y2="87.064"/><line x1="513.406" x2="513.639" y1="86.491" y2="89.543"/><polyline points="513.456 87.145 513.044 86.448 512.648 85.968 512.079 85.577 511.717 85.534 511.372 85.71 511.233 86.234 511.267 86.67 511.507 87.454 511.919 88.15 512.314 88.629 512.882 89.02 513.244 89.064 513.589 88.889"/><line x1="514.545" x2="515.915" y1="87.275" y2="91.112"/><polyline points="516.827 88.845 515.915 91.112 515.601 91.72 515.254 91.893 514.892 91.849 514.702 91.718"/><polyline points="517.876 90.81 520.163 92.386 520.132 91.949 519.909 91.381 519.702 91.031 519.305 90.55 518.732 90.156 518.367 90.112 518.018 90.287 517.876 90.81 517.909 91.246 518.147 92.031 518.56 92.729 518.957 93.21 519.528 93.603 519.893 93.648 520.243 93.476"/><line x1="521.405" x2="521.625" y1="91.996" y2="95.05"/><polyline points="521.5 93.306 521.644 92.783 521.995 92.609 522.361 92.654 522.936 93.049"/><polyline points="528.974 95.746 527.049 94.422 526.993 96.258 527.17 96.172 527.731 96.35 528.308 96.748 528.9 97.363 529.315 98.065 529.552 98.853 529.581 99.29 529.433 99.811 529.078 99.982 528.517 99.802 527.941 99.405 527.35 98.79 527.143 98.44 526.922 97.872"/><line x1="528.763" x2="528.763" y1="388.336" y2="400.786"/><polyline points="528.763 394.264 527.577 393.079 526.391 392.486 524.613 392.486 523.427 393.079 522.241 394.264 521.649 396.043 521.649 397.228 522.241 399.007 523.427 400.193 524.613 400.786 526.391 400.786 527.577 400.193 528.763 399.007"/><polyline points="532.912 396.043 540.026 396.043 540.026 394.857 539.433 393.672 538.841 393.079 537.655 392.486 535.876 392.486 534.691 393.079 533.505 394.264 532.912 396.043 532.912 397.228 533.505 399.007 534.691 400.193 535.876 400.786 537.655 400.786 538.841 400.193 540.026 399.007"/><line x1="544.176" x2="544.176" y1="388.336" y2="400.786"/><polyline points="549.511 388.336 549.511 398.414 550.104 400.193 551.29 400.786 552.475 400.786"/><line x1="547.733" x2="551.883" y1="392.486" y2="392.486"/><line x1="562.553" x2="562.553" y1="392.486" y2="400.786"/><polyline points="562.553 394.264 561.368 393.079 560.182 392.486 558.404 392.486 557.218 393.079 556.032 394.264 555.439 396.043 555.439 397.228 556.032 399.007 557.218 400.193 558.404 400.786 560.182 400.786 561.368 400.193 562.553 399.007"/><line x1="564.924" x2="575.595" y1="404.935" y2="404.935"/><line x1="583.895" x2="577.374" y1="392.486" y2="400.786"/><line x1="577.374" x2="583.895" y1="392.486" y2="392.486"/><line x1="577.374" x2="583.895" y1="400.786" y2="400.786"/><line x1="597.53" x2="608.2" y1="393.672" y2="393.672"/><line x1="597.53" x2="608.2" y1="397.228" y2="397.228"/><polyline points="623.614 390.707 624.799 390.115 626.578 388.336 626.578 400.786"/><polyline points="640.805 394.264 639.62 393.079 638.434 392.486 636.656 392.486 635.47 393.079 634.284 394.264 633.692 396.043 633.692 397.228 634.284 399.007 635.47 400.193 636.656 400.786 638.434 400.786 639.62 400.193 640.805 399.007"/><line x1="644.955" x2="644.955" y1="392.486" y2="400.786"/><polyline points="644.955 394.857 646.734 393.079 647.919 392.486 649.698 392.486 650.883 393.079 651.476 394.857 651.476 400.786"/><polyline points="651.476 394.857 653.255 393.079 654.44 392.486 656.219 392.486 657.404 393.079 657.997 394.857 657.997 400.786"/><line x1="901.594" x2="901.594" y1="388.336" y2="400.786"/><polyline points="901.594 394.264 900.409 393.079 899.223 392.486 897.445 392.486 896.259 393.079 895.073 394.264 894.481 396.043 894.481 397.228 895.073 399.007 896.259 400.193 897.445 400.786 899.223 400.786 900.409 400.193 901.594 399.007"/><polyline points="905.744 396.043 912.858 396.043 912.858 394.857 912.265 393.672 911.672 393.079 910.487 392.486 908.708 392.486 907.523 393.079 906.337 394.264 905.744 396.043 905.744 397.228 906.337 399.007 907.523 400.193 908.708 400.786 910.487 400.786 911.672 400.193 912.858 399.007"/><line x1="917.008" x2="917.008" y1="388.336" y2="400.786"/><polyline points="922.343 388.336 922.343 398.414 922.936 400.193 924.121 400.786 925.307 400.786"/><line x1="920.565" x2="924.714" y1="392.486" y2="392.486"/><line x1="935.385" x2="935.385" y1="392.486" y2="400.786"/><polyline points="935.385 394.264 934.199 393.079 933.014 392.486 931.235 392.486 930.05 393.079 928.864 394.264 928.271 396.043 928.271 397.228 928.864 399.007 930.05 400.193 931.235 400.786 933.014 400.786 934.199 400.193 935.385 399.007"/><line x1="937.756" x2="948.427" y1="404.935" y2="404.935"/><line x1="956.727" x2="950.206" y1="392.486" y2="400.786"/><line x1="950.206" x2="956.727" y1="392.486" y2="392.486"/><line x1="950.206" x2="956.727" y1="400.786" y2="400.786"/><line x1="970.361" x2="981.032" y1="393.672" y2="393.672"/><line x1="970.361" x2="981.032" y1="397.228" y2="397.228"/><polygon points="998.224 388.336 996.446 388.929 995.26 390.707 994.667 393.672 994.667 395.45 995.26 398.414 996.446 400.193 998.224 400.786 999.41 400.786 1001.188 400.193 1002.374 398.414 1002.966 395.45 1002.966 393.672 1002.374 390.707 1001.188 388.929 999.41 388.336"/><polygon points="1007.116 397.821 1006.523 398.414 1007.116 399.007 1007.709 398.414"/><polyline points="1011.859 391.3 1011.859 390.707 1012.452 389.522 1013.044 388.929 1014.23 388.336 1016.601 388.336 1017.787 388.929 1018.38 389.522 1018.973 390.707 1018.973 391.893 1018.38 393.079 1017.194 394.857 1011.266 400.786 1019.565 400.786"/><polyline points="1030.236 394.264 1029.051 393.079 1027.865 392.486 1026.086 392.486 1024.901 393.079 1023.715 394.264 1023.122 396.043 1023.122 397.228 1023.715 399.007 1024.901 400.193 1026.086 400.786 1027.865 400.786 1029.051 400.193 1030.236 399.007"/><line x1="1034.386" x2="1034.386" y1="392.486" y2="400.786"/><polyline points="1034.386 394.857 1036.164 393.079 1037.35 392.486 1039.128 392.486 1040.314 393.079 1040.907 394.857 1040.907 400.786"/><polyline points="1040.907 394.857 1042.685 393.079 1043.871 392.486 1045.649 392.486 1046.835 393.079 1047.428 394.857 1047.428 400.786"/><polygon points="899.078 43.169 909.499 244.844 1099.542 386.077 1114.099 184.215"/><line x1="901.913" x2="902.149" y1="46.803" y2="51.508"/><line x1="905.696" x2="905.847" y1="50.809" y2="53.944"/><polyline points="905.729 51.482 905.317 50.777 904.915 50.296 904.33 49.911 903.951 49.879 903.583 50.071 903.422 50.615 903.444 51.063 903.672 51.862 904.083 52.566 904.484 53.046 905.068 53.431 905.447 53.464 905.815 53.274"/><line x1="906.869" x2="908.19" y1="51.58" y2="55.488"/><polyline points="909.217 53.124 908.19 55.488 907.841 56.124 907.472 56.313 907.092 56.279 906.898 56.151"/><polyline points="910.259 55.114 912.613 56.663 912.593 56.215 912.377 55.637 912.17 55.283 911.767 54.801 911.178 54.413 910.796 54.38 910.424 54.571 910.259 55.114 910.28 55.562 910.506 56.363 910.918 57.068 911.321 57.55 911.909 57.938 912.291 57.972 912.663 57.783"/><line x1="913.93" x2="914.067" y1="56.222" y2="59.359"/><polyline points="913.989 57.568 914.156 57.025 914.53 56.835 914.914 56.869 915.505 57.258"/><polyline points="920.018 59.569 920.405 59.605 920.972 59.32 921.161 64.033"/><polygon points="894.818 45.746 905.728 247.451 1095.774 389.147 1109.842 187.315"/><line x1="897.657" x2="897.904" y1="49.386" y2="54.093"/><line x1="901.443" x2="901.602" y1="53.402" y2="56.538"/><polyline points="901.477 54.075 901.064 53.369 900.663 52.887 900.077 52.501 899.699 52.468 899.332 52.659 899.172 53.203 899.196 53.651 899.425 54.451 899.837 55.156 900.238 55.637 900.823 56.023 901.201 56.057 901.568 55.867"/><line x1="902.616" x2="903.944" y1="54.176" y2="58.087"/><polyline points="904.964 55.725 903.944 58.087 903.598 58.723 903.23 58.911 902.851 58.877 902.656 58.747"/><polyline points="906.009 57.718 908.362 59.272 908.341 58.824 908.124 58.245 907.917 57.891 907.514 57.408 906.925 57.019 906.543 56.985 906.172 57.175 906.009 57.718 906.03 58.166 906.259 58.967 906.672 59.674 907.074 60.157 907.662 60.545 908.044 60.581 908.415 60.393"/><line x1="909.676" x2="909.821" y1="58.834" y2="61.973"/><polyline points="909.738 60.181 909.903 59.638 910.276 59.448 910.66 59.484 911.25 59.874"/><polyline points="915.376 62.159 915.366 61.934 915.545 61.615 915.733 61.521 916.119 61.557 916.912 62.079 917.318 62.565 917.525 62.921 917.742 63.502 917.761 63.951 917.582 64.27 917.214 64.682 915.333 65.618 918.1 67.447"/><polygon points="890.543 48.332 901.945 250.066 1091.992 392.228 1105.569 190.427"/><line x1="893.385" x2="893.644" y1="51.979" y2="56.688"/><line x1="897.175" x2="897.342" y1="56.004" y2="59.142"/><polyline points="897.211 56.678 896.797 55.97 896.395 55.487 895.809 55.1 895.432 55.066 895.066 55.256 894.908 55.8 894.932 56.248 895.163 57.049 895.577 57.754 895.978 58.236 896.563 58.624 896.94 58.659 897.306 58.47"/><line x1="898.347" x2="899.683" y1="56.781" y2="60.696"/><polyline points="900.696 58.336 899.683 60.696 899.34 61.331 898.972 61.519 898.594 61.483 898.399 61.353"/><polyline points="901.744 60.331 904.097 61.891 904.075 61.442 903.856 60.863 903.649 60.509 903.245 60.024 902.656 59.634 902.275 59.599 901.905 59.788 901.744 60.331 901.766 60.779 901.996 61.581 902.41 62.289 902.813 62.773 903.401 63.163 903.782 63.199 904.152 63.012"/><line x1="905.406" x2="905.559" y1="61.456" y2="64.595"/><polyline points="905.472 62.803 905.636 62.26 906.008 62.071 906.39 62.107 906.981 62.499"/><polyline points="911.251 63.8 913.431 65.242 912.322 66.254 912.916 66.648 913.322 67.135 913.53 67.49 913.758 68.295 913.778 68.744 913.61 69.286 913.234 69.471 912.651 69.302 912.058 68.908 911.456 68.291 911.248 67.936 911.03 67.357"/><polygon points="886.252 50.927 898.151 252.69 1088.198 395.319 1101.28 193.55"/><line x1="889.099" x2="889.37" y1="54.581" y2="59.291"/><line x1="892.892" x2="893.067" y1="58.616" y2="61.754"/><polyline points="892.93 59.289 892.514 58.581 892.112 58.097 891.527 57.708 891.149 57.673 890.785 57.863 890.629 58.406 890.654 58.854 890.887 59.656 891.301 60.363 891.703 60.846 892.287 61.235 892.664 61.27 893.029 61.082"/><line x1="894.064" x2="895.408" y1="59.395" y2="63.313"/><polyline points="896.412 60.955 895.408 63.313 895.066 63.948 894.7 64.135 894.322 64.098 894.128 63.968"/><polyline points="897.463 62.953 899.816 64.519 899.793 64.07 899.573 63.49 899.365 63.135 898.961 62.65 898.372 62.258 897.991 62.222 897.623 62.41 897.463 62.953 897.487 63.402 897.718 64.204 898.134 64.913 898.537 65.398 899.125 65.79 899.505 65.827 899.874 65.64"/><line x1="901.122" x2="901.283" y1="64.086" y2="67.227"/><polyline points="901.191 65.434 901.353 64.891 901.724 64.703 902.106 64.74 902.697 65.133"/><polyline points="908.547 67.496 906.718 69.329 909.684 71.302"/><line x1="908.547" x2="908.769" y1="67.496" y2="72.213"/><polygon points="881.947 53.531 894.344 255.322 1084.391 398.421 1096.974 196.686"/><line x1="884.797" x2="885.08" y1="57.193" y2="61.904"/><line x1="888.594" x2="888.776" y1="61.236" y2="64.376"/><polyline points="888.633 61.91 888.217 61.2 887.813 60.715 887.228 60.325 886.852 60.29 886.489 60.478 886.334 61.022 886.36 61.47 886.595 62.272 887.01 62.98 887.413 63.464 887.997 63.855 888.373 63.891 888.737 63.704"/><line x1="889.766" x2="891.117" y1="62.018" y2="65.941"/><polyline points="892.113 63.584 891.117 65.941 890.777 66.575 890.413 66.761 890.036 66.723 889.841 66.593"/><polyline points="893.167 65.585 895.52 67.156 895.495 66.707 895.275 66.127 895.066 65.771 894.661 65.285 894.073 64.892 893.693 64.855 893.326 65.042 893.167 65.585 893.192 66.034 893.425 66.837 893.842 67.547 894.246 68.032 894.833 68.425 895.213 68.463 895.581 68.278"/><line x1="896.822" x2="896.991" y1="66.727" y2="69.868"/><polyline points="896.895 68.074 897.055 67.532 897.424 67.345 897.806 67.383 898.397 67.777"/><polyline points="904.638 70.418 902.658 69.098 902.562 70.991 902.749 70.898 903.331 71.069 903.924 71.465 904.529 72.086 904.947 72.8 905.178 73.606 905.201 74.055 905.036 74.596 904.662 74.78 904.081 74.608 903.488 74.212 902.885 73.592 902.676 73.236 902.456 72.655"/></g></svg>