<svg xmlns="http://www.w3.org/2000/svg" xmlns:cc="http://creativecommons.org/ns" xmlns:ev="http://www.w3.org/2001/xml-events" xmlns:rdf="http://www.w3.org/1999/02/22-rdf-syntax-ns" xmlns:xlink="http://www.w3.org/1999/xlink" width="30cm" height="10cm" baseProfile="tiny" version="1.2" viewBox="0 0 1133.858 377.953"><metadata><rdf:RDF><cc:Work/></rdf:RDF></metadata><g id="layer6" fill="none" stroke="#00f" style="display:inline"><polygon points="11.339 70.706 11.339 307.246 144.066 249.817 144.066 128.135"/><line x1="14.896" x2="14.896" y1="74.135" y2="78.999"/><line x1="19.552" x2="19.552" y1="77.711" y2="80.898"/><polyline points="19.552 78.394 19.07 77.736 18.585 77.305 17.855 76.999 17.367 77.023 16.876 77.277 16.63 77.865 16.63 78.326 16.876 79.117 17.367 79.777 17.855 80.206 18.585 80.503 19.07 80.473 19.552 80.215"/><line x1="20.989" x2="22.411" y1="78.314" y2="82.063"/><polyline points="23.818 79.501 22.411 82.063 21.939 82.773 21.465 83.033 20.989 83.068 20.751 82.972"/><polyline points="24.978 81.326 27.722 82.463 27.722 82.022 27.495 81.486 27.269 81.17 26.814 80.758 26.128 80.471 25.67 80.5 25.209 80.753 24.978 81.326 24.978 81.772 25.209 82.535 25.67 83.169 26.128 83.578 26.814 83.858 27.269 83.822 27.722 83.566"/><line x1="29.296" x2="29.296" y1="81.8" y2="84.87"/><polyline points="29.296 83.115 29.519 82.551 29.964 82.299 30.408 82.267 31.071 82.545"/><polyline points="36.04 83.99 36.463 83.955 37.095 83.585 37.095 88.049"/><polygon points="21.361 60.533 21.361 317.42 154.653 252.402 154.653 125.551"/><line x1="25.078" x2="25.078" y1="64.396" y2="69.673"/><line x1="29.932" x2="29.932" y1="68.451" y2="71.904"/><polyline points="29.932 69.191 29.429 68.461 28.925 67.975 28.165 67.615 27.655 67.623 27.144 67.88 26.888 68.508 26.888 69.007 27.144 69.875 27.655 70.609 28.165 71.092 28.925 71.441 29.429 71.426 29.932 71.164"/><line x1="31.427" x2="32.905" y1="69.159" y2="73.27"/><polyline points="34.365 70.549 32.905 73.27 32.414 74.021 31.921 74.286 31.427 74.307 31.179 74.194"/><polyline points="35.569 72.566 38.413 73.894 38.413 73.418 38.178 72.83 37.944 72.481 37.472 72.019 36.762 71.683 36.286 71.698 35.809 71.955 35.569 72.566 35.569 73.048 35.809 73.882 36.286 74.584 36.762 75.043 37.472 75.369 37.944 75.347 38.413 75.086"/><line x1="40.042" x2="40.042" y1="73.235" y2="76.55"/><polyline points="40.042 74.656 40.273 74.054 40.733 73.798 41.192 73.779 41.877 74.103"/><polyline points="46.567 75.861 46.567 75.63 46.786 75.274 47.004 75.148 47.44 75.127 48.306 75.543 48.737 75.978 48.952 76.309 49.166 76.868 49.166 77.324 48.952 77.678 48.522 78.161 46.348 79.448 49.38 80.841"/><polygon points="33.269 48.445 33.269 329.508 166.179 255.215 166.179 122.737"/><line x1="37.148" x2="37.148" y1="52.853" y2="58.618"/><line x1="42.195" x2="42.195" y1="57.511" y2="61.277"/><polyline points="42.195 58.318 41.674 57.498 41.15 56.944 40.36 56.516 39.83 56.501 39.298 56.757 39.032 57.431 39.032 57.976 39.298 58.935 39.83 59.76 40.36 60.31 41.15 60.726 41.674 60.733 42.195 60.47"/><line x1="43.747" x2="45.279" y1="58.352" y2="62.901"/><polyline points="46.791 60.003 45.279 62.901 44.77 63.697 44.26 63.964 43.747 63.965 43.49 63.831"/><polyline points="48.037 62.253 50.975 63.827 50.975 63.308 50.733 62.659 50.49 62.268 50.004 61.745 49.27 61.347 48.779 61.342 48.285 61.599 48.037 62.253 48.037 62.778 48.285 63.697 48.779 64.482 49.27 65.003 50.004 65.389 50.49 65.385 50.975 65.123"/><line x1="52.655" x2="52.655" y1="63.182" y2="66.785"/><polyline points="52.655 64.726 52.893 64.082 53.368 63.825 53.84 63.825 54.546 64.207"/><polyline points="59.59 65.194 62.03 66.536 60.706 67.795 61.37 68.155 61.81 68.64 62.03 69.006 62.249 69.864 62.249 70.358 62.03 70.981 61.59 71.243 60.928 71.142 60.261 70.791 59.59 70.188 59.365 69.819 59.141 69.2"/><polygon points="47.652 33.845 47.652 344.107 178.774 258.29 178.774 119.663"/><line x1="51.682" x2="51.682" y1="38.951" y2="45.306"/><line x1="56.908" x2="56.908" y1="44.387" y2="48.528"/><polyline points="56.908 45.274 56.369 44.341 55.827 43.701 55.01 43.182 54.462 43.133 53.911 43.384 53.635 44.11 53.635 44.71 53.911 45.781 54.462 46.721 55.01 47.358 55.827 47.862 56.369 47.899 56.908 47.641"/><line x1="58.51" x2="60.089" y1="45.404" y2="50.49"/><polyline points="61.647 47.395 60.089 50.49 59.565 51.336 59.039 51.6 58.51 51.572 58.244 51.411"/><polyline points="62.928 49.937 65.945 51.828 65.945 51.26 65.697 50.535 65.448 50.093 64.949 49.491 64.195 49.013 63.691 48.979 63.183 49.233 62.928 49.937 62.928 50.513 63.183 51.535 63.691 52.423 64.195 53.022 64.949 53.486 65.448 53.51 65.945 53.249"/><line x1="67.667" x2="67.667" y1="51.217" y2="55.163"/><polyline points="67.667 52.908 67.911 52.216 68.397 51.961 68.881 51.987 69.602 52.445"/><polyline points="76.562 54.971 74.293 57.335 77.678 59.454"/><line x1="76.562" x2="76.562" y1="54.971" y2="60.647"/><polygon points="65.37 15.861 65.37 362.092 192.597 261.664 192.597 116.289"/><line x1="69.523" x2="69.523" y1="21.888" y2="28.965"/><line x1="74.884" x2="74.884" y1="28.351" y2="32.952"/><polyline points="74.884 29.337 74.332 28.258 73.777 27.504 72.94 26.863 72.378 26.765 71.813 27.001 71.529 27.786 71.529 28.454 71.813 29.668 72.378 30.756 72.94 31.506 73.777 32.129 74.332 32.212 74.884 31.966"/><line x1="76.522" x2="78.134" y1="29.605" y2="35.369"/><polyline points="79.722 32.055 78.134 35.369 77.599 36.269 77.062 36.523 76.522 36.453 76.25 36.254"/><polyline points="81.026 34.968 84.09 37.285 84.09 36.657 83.838 35.837 83.586 35.329 83.079 34.626 82.314 34.04 81.801 33.965 81.285 34.208 81.026 34.968 81.026 35.606 81.285 36.757 81.801 37.779 82.314 38.478 83.079 39.047 83.586 39.109 84.09 38.856"/><line x1="85.836" x2="85.836" y1="36.736" y2="41.097"/><polyline points="85.836 38.605 86.082 37.858 86.574 37.612 87.064 37.677 87.793 38.235"/><polyline points="95.253 41.87 92.984 40.107 92.754 42.634 92.984 42.509 93.67 42.735 94.352 43.257 95.029 44.072 95.477 45.007 95.701 46.066 95.701 46.657 95.477 47.378 95.029 47.637 94.352 47.43 93.67 46.923 92.984 46.112 92.754 45.641 92.523 44.866"/><line x1="125.21" x2="125.21" y1="337.431" y2="348.359"/><polyline points="125.21 338.992 125.87 337.335 126.524 336.208 127.495 335.304 128.136 335.218 128.771 335.642 129.087 336.868 129.087 337.883 128.771 339.712 128.136 341.348 127.495 342.485 126.524 343.433 125.87 343.554 125.21 343.155"/><line x1="134.562" x2="134.562" y1="328.725" y2="335.583"/><polyline points="134.562 330.194 133.973 329.765 133.379 329.826 132.48 330.663 131.874 331.726 131.263 333.298 130.956 335.091 130.956 336.095 131.263 337.303 131.874 337.71 132.48 337.617 133.379 336.738 133.973 335.667 134.562 334.113"/><line x1="136.874" x2="136.874" y1="326.573" y2="333.325"/><polyline points="136.874 328.502 137.722 326.262 138.283 325.261 139.115 324.486 139.665 324.447 139.938 325.609 139.938 330.333"/><line x1="146.203" x2="150.556" y1="318.792" y2="314.711"/><line x1="146.203" x2="150.556" y1="321.503" y2="317.337"/><line x1="155.952" x2="159.723" y1="310.912" y2="307.341"/><polyline points="163.47 299.045 161.526 300.81 161.329 304.612 161.526 304.025 162.116 303.074 162.7 302.53 163.279 302.388 163.661 302.82 163.852 303.824 163.852 304.613 163.661 305.98 163.279 307.142 162.7 308.103 162.116 308.674 161.526 308.848 161.329 308.638 161.13 308.024"/><polygon points="166.091 296.665 165.539 297.555 165.168 299.063 164.982 301.188 164.982 302.359 165.168 304.133 165.539 304.942 166.091 304.792 166.456 304.435 167 303.52 167.359 302.022 167.538 299.938 167.538 298.791 167.359 297.045 167 296.224 166.456 296.333"/><line x1="170.669" x2="170.669" y1="292.508" y2="300.321"/><polyline points="170.669 296.228 170.329 295.801 169.988 295.746 169.471 296.227 169.125 296.927 168.776 298.009 168.601 299.31 168.601 300.068 168.776 301.035 169.125 301.452 169.471 301.49 169.988 300.986 170.329 300.279 170.669 299.205"/><polyline points="171.841 296.23 173.797 294.371 173.797 293.648 173.636 293.074 173.476 292.862 173.153 292.8 172.665 293.254 172.337 293.926 172.007 294.969 171.841 296.23 171.841 296.966 172.007 297.911 172.337 298.325 172.665 298.372 173.153 297.895 173.476 297.217 173.797 296.181"/><polyline points="176.606 289.585 176.606 295.228 176.453 296.438 176.301 296.943 175.994 297.603 175.53 298.066 175.219 298.02"/><polyline points="176.606 290.643 176.301 290.223 175.994 290.155 175.53 290.586 175.219 291.233 174.906 292.242 174.749 293.466 174.749 294.184 174.906 295.108 175.219 295.52 175.53 295.573 175.994 295.12 176.301 294.467 176.606 293.465"/><polygon points="245.633 96.326 245.633 281.626 393.781 254.782 393.781 123.171"/><line x1="248.531" x2="248.531" y1="98.343" y2="102.182"/><line x1="252.389" x2="252.389" y1="100.3" y2="102.84"/><polyline points="252.389 100.845 251.986 100.411 251.581 100.159 250.974 100.052 250.569 100.163 250.162 100.456 249.959 100.967 249.959 101.332 250.162 101.913 250.569 102.347 250.974 102.599 251.581 102.703 251.986 102.59 252.389 102.296"/><line x1="253.595" x2="254.796" y1="100.512" y2="103.251"/><polyline points="255.99 100.933 254.796 103.251 254.396 103.906 253.996 104.2 253.595 104.313 253.394 104.279"/><polyline points="256.982 102.186 259.345 102.597 259.345 102.239 259.149 101.847 258.952 101.633 258.56 101.385 257.969 101.281 257.575 101.391 257.179 101.681 256.982 102.186 256.982 102.546 257.179 103.119 257.575 103.546 257.969 103.793 258.56 103.894 258.952 103.782 259.345 103.491"/><line x1="260.713" x2="260.713" y1="101.763" y2="104.261"/><polyline points="260.713 102.834 260.908 102.333 261.297 102.044 261.686 101.934 262.268 102.037"/><polyline points="266.683 102.284 267.063 102.175 267.632 101.748 267.632 105.443"/><polygon points="244.664 87.444 244.664 290.509 402.926 259.141 402.926 118.811"/><line x1="247.843" x2="247.843" y1="89.707" y2="93.912"/><line x1="252.071" x2="252.071" y1="91.922" y2="94.702"/><polyline points="252.071 92.518 251.63 92.036 251.187 91.752 250.522 91.624 250.077 91.738 249.632 92.052 249.409 92.608 249.409 93.007 249.632 93.648 250.077 94.13 250.522 94.412 251.187 94.537 251.63 94.421 252.071 94.106"/><line x1="253.392" x2="254.706" y1="92.176" y2="95.194"/><polyline points="256.013 92.68 254.706 95.194 254.269 95.903 253.831 96.218 253.392 96.335 253.172 96.294"/><polyline points="257.097 94.068 259.679 94.558 259.679 94.167 259.465 93.735 259.251 93.498 258.822 93.22 258.176 93.096 257.745 93.209 257.313 93.519 257.097 94.068 257.097 94.461 257.313 95.091 257.745 95.565 258.176 95.842 258.822 95.962 259.251 95.847 259.679 95.536"/><line x1="261.174" x2="261.174" y1="93.672" y2="96.401"/><polyline points="261.174 94.842 261.386 94.297 261.811 93.989 262.235 93.876 262.87 93.998"/><polyline points="267.269 94.458 267.269 94.266 267.477 93.921 267.684 93.769 268.098 93.657 268.925 93.818 269.337 94.09 269.542 94.322 269.748 94.745 269.748 95.128 269.542 95.472 269.131 95.969 267.062 97.501 269.953 98.041"/><polygon points="243.488 76.678 243.488 301.275 413.368 264.12 413.368 113.833"/><line x1="247.01" x2="247.01" y1="79.254" y2="83.901"/><line x1="251.688" x2="251.688" y1="81.795" y2="84.865"/><polyline points="251.688 82.453 251.199 81.911 250.71 81.588 249.974 81.432 249.483 81.547 248.99 81.884 248.743 82.494 248.743 82.935 248.99 83.648 249.483 84.19 249.974 84.512 250.71 84.663 251.199 84.545 251.688 84.207"/><line x1="253.147" x2="254.598" y1="82.105" y2="85.465"/><polyline points="256.04 82.718 254.598 85.465 254.115 86.238 253.631 86.576 253.147 86.696 252.904 86.647"/><polyline points="257.236 84.273 260.083 84.87 260.083 84.439 259.847 83.957 259.61 83.692 259.137 83.375 258.426 83.225 257.951 83.34 257.474 83.673 257.236 84.273 257.236 84.707 257.474 85.407 257.951 85.939 258.426 86.254 259.137 86.4 259.61 86.282 260.083 85.948"/><line x1="261.728" x2="261.728" y1="83.925" y2="86.934"/><polyline points="261.728 85.215 261.962 84.619 262.43 84.288 262.897 84.173 263.596 84.321"/><polyline points="268.659 83.912 271.152 84.448 269.796 85.848 270.475 85.992 270.927 86.298 271.152 86.557 271.378 87.236 271.378 87.658 271.152 88.243 270.701 88.572 270.022 88.643 269.342 88.503 268.659 88.15 268.431 87.891 268.203 87.42"/><polygon points="242.034 63.358 242.034 314.595 425.406 269.859 425.406 108.094"/><line x1="245.982" x2="245.982" y1="66.339" y2="71.533"/><line x1="251.214" x2="251.214" y1="69.308" y2="72.736"/><polyline points="251.214 70.043 250.668 69.424 250.121 69.05 249.299 68.855 248.749 68.971 248.198 69.334 247.922 70.008 247.922 70.501 248.198 71.304 248.749 71.924 249.299 72.296 250.121 72.485 250.668 72.366 251.214 72.002"/><line x1="252.845" x2="254.464" y1="69.694" y2="73.483"/><polyline points="256.074 70.458 254.464 73.483 253.925 74.333 253.386 74.698 252.845 74.819 252.573 74.758"/><polyline points="257.407 72.225 260.578 72.966 260.578 72.485 260.315 71.943 260.052 71.64 259.526 71.275 258.733 71.088 258.204 71.204 257.673 71.562 257.407 72.225 257.407 72.709 257.673 73.496 258.204 74.101 258.733 74.464 259.526 74.647 260.052 74.527 260.578 74.168"/><line x1="262.409" x2="262.409" y1="71.958" y2="75.309"/><polyline points="262.409 73.394 262.67 72.737 263.19 72.381 263.709 72.265 264.486 72.449"/><polyline points="272.12 72.612 269.601 75.311 273.369 76.19"/><line x1="272.12" x2="272.12" y1="72.612" y2="77.541"/><polygon points="240.188 46.453 240.188 331.5 439.434 276.547 439.434 101.406"/><line x1="244.678" x2="244.678" y1="49.978" y2="55.866"/><line x1="250.616" x2="250.616" y1="53.529" y2="57.409"/><polyline points="250.616 54.36 249.998 53.641 249.378 53.198 248.445 52.948 247.821 53.06 247.195 53.451 246.882 54.205 246.882 54.764 247.195 55.683 247.821 56.404 248.445 56.844 249.378 57.087 249.998 56.971 250.616 56.577"/><line x1="252.463" x2="254.296" y1="54.023" y2="58.365"/><polyline points="256.116 55 254.296 58.365 253.686 59.308 253.075 59.702 252.463 59.821 252.156 59.743"/><polyline points="257.622 57.043 261.201 57.989 261.201 57.446 260.905 56.825 260.608 56.474 260.014 56.043 259.12 55.804 258.522 55.917 257.923 56.303 257.622 57.043 257.622 57.59 257.923 58.488 258.522 59.19 259.12 59.618 260.014 59.851 260.608 59.733 261.201 59.345"/><line x1="263.266" x2="263.266" y1="56.913" y2="60.696"/><polyline points="263.266 58.534 263.559 57.801 264.145 57.418 264.729 57.305 265.604 57.538"/><polyline points="274.739 58.135 271.921 57.37 271.637 59.684 271.921 59.494 272.769 59.455 273.615 59.682 274.458 60.171 275.019 60.848 275.298 61.714 275.298 62.241 275.019 62.958 274.458 63.34 273.615 63.385 272.769 63.165 271.921 62.679 271.637 62.34 271.353 61.734"/><line x1="315.435" x2="315.435" y1="332.584" y2="343.155"/><polyline points="315.435 334.094 316.411 332.768 317.384 331.95 318.834 331.478 319.795 331.664 320.752 332.346 321.229 333.68 321.229 334.673 320.752 336.325 319.795 337.645 318.834 338.471 317.384 338.966 316.411 338.796 315.435 338.121"/><line x1="329.642" x2="329.642" y1="327.962" y2="334.783"/><polyline points="329.642 329.424 328.723 328.75 327.8 328.561 326.409 329.014 325.477 329.809 324.54 331.101 324.07 332.736 324.07 333.723 324.54 335.045 325.477 335.713 326.409 335.887 327.8 335.412 328.723 334.609 329.642 333.322"/><line x1="333.277" x2="333.277" y1="326.78" y2="333.543"/><polyline points="333.277 328.712 334.625 326.823 335.518 326.051 336.851 325.618 337.735 325.808 338.176 327.096 338.176 331.871"/><line x1="348.481" x2="355.882" y1="322.766" y2="320.342"/><line x1="348.481" x2="355.882" y1="325.561" y2="323.086"/><line x1="365.344" x2="372.152" y1="318.582" y2="316.329"/><polyline points="375.103 312.305 375.103 311.869 375.469 310.882 375.834 310.33 376.561 309.665 378.009 309.206 378.728 309.409 379.087 309.725 379.445 310.472 379.445 311.333 379.087 312.31 378.369 313.84 374.737 319.396 379.802 317.667"/><polyline points="386.121 306.632 382.637 307.737 382.285 311.694 382.637 311.152 383.689 310.383 384.735 310.042 385.776 310.127 386.466 310.747 386.81 311.9 386.81 312.744 386.466 314.126 385.776 315.206 384.735 315.984 383.689 316.341 382.637 316.273 382.285 315.966 381.932 315.23"/><line x1="392.898" x2="392.898" y1="304.481" y2="313.198"/><polyline points="392.898 308.632 392.232 308.02 391.563 307.822 390.555 308.149 389.88 308.788 389.202 309.847 388.862 311.218 388.862 312.058 389.202 313.202 389.88 313.81 390.555 313.998 391.563 313.654 392.232 313.01 392.898 311.953"/><polyline points="395.212 309.109 399.111 307.814 399.111 306.998 398.789 306.288 398.467 305.985 397.821 305.786 396.847 306.103 396.195 306.726 395.54 307.764 395.212 309.109 395.212 309.934 395.54 311.061 396.195 311.662 396.847 311.851 397.821 311.519 398.467 310.889 399.111 309.854"/><polyline points="404.805 303.514 404.805 309.939 404.493 311.251 404.181 311.762 403.555 312.382 402.612 312.712 401.981 312.527"/><polyline points="404.805 304.719 404.181 304.12 403.555 303.921 402.612 304.228 401.981 304.838 401.347 305.855 401.029 307.177 401.029 307.989 401.347 309.099 401.981 309.694 402.612 309.884 403.555 309.562 404.181 308.946 404.805 307.931"/><polygon points="491.114 113.162 491.114 264.791 642.744 264.791 642.744 113.162"/><line x1="493.233" x2="493.233" y1="114.389" y2="117.548"/><line x1="496.091" x2="496.091" y1="115.442" y2="117.548"/><polyline points="496.091 115.893 495.79 115.593 495.489 115.442 495.038 115.442 494.737 115.593 494.436 115.893 494.286 116.345 494.286 116.646 494.436 117.097 494.737 117.398 495.038 117.548 495.489 117.548 495.79 117.398 496.091 117.097"/><line x1="496.994" x2="497.896" y1="115.442" y2="117.548"/><polyline points="498.799 115.442 497.896 117.548 497.595 118.15 497.295 118.451 496.994 118.601 496.843 118.601"/><polyline points="499.551 116.345 501.356 116.345 501.356 116.044 501.206 115.743 501.056 115.593 500.755 115.442 500.303 115.442 500.002 115.593 499.702 115.893 499.551 116.345 499.551 116.646 499.702 117.097 500.002 117.398 500.303 117.548 500.755 117.548 501.056 117.398 501.356 117.097"/><line x1="502.41" x2="502.41" y1="115.442" y2="117.548"/><polyline points="502.41 116.345 502.56 115.893 502.861 115.593 503.162 115.442 503.613 115.442"/><polyline points="507.073 114.991 507.374 114.84 507.826 114.389 507.826 117.548"/><polygon points="484.613 106.66 484.613 271.293 649.246 271.293 649.246 106.66"/><line x1="486.912" x2="486.912" y1="107.992" y2="111.422"/><line x1="490.016" x2="490.016" y1="109.136" y2="111.422"/><polyline points="490.016 109.626 489.689 109.299 489.362 109.136 488.872 109.136 488.546 109.299 488.219 109.626 488.056 110.116 488.056 110.442 488.219 110.933 488.546 111.259 488.872 111.422 489.362 111.422 489.689 111.259 490.016 110.933"/><line x1="490.996" x2="491.976" y1="109.136" y2="111.422"/><polyline points="492.956 109.136 491.976 111.422 491.649 112.076 491.323 112.403 490.996 112.566 490.832 112.566"/><polyline points="493.773 110.116 495.733 110.116 495.733 109.789 495.57 109.462 495.406 109.299 495.079 109.136 494.589 109.136 494.263 109.299 493.936 109.626 493.773 110.116 493.773 110.442 493.936 110.933 494.263 111.259 494.589 111.422 495.079 111.422 495.406 111.259 495.733 110.933"/><line x1="496.876" x2="496.876" y1="109.136" y2="111.422"/><polyline points="496.876 110.116 497.04 109.626 497.366 109.299 497.693 109.136 498.183 109.136"/><polyline points="501.613 108.809 501.613 108.646 501.777 108.319 501.94 108.156 502.267 107.992 502.92 107.992 503.247 108.156 503.41 108.319 503.574 108.646 503.574 108.972 503.41 109.299 503.084 109.789 501.45 111.422 503.737 111.422"/><polygon points="476.891 98.938 476.891 279.015 656.968 279.015 656.968 98.938"/><line x1="479.406" x2="479.406" y1="100.395" y2="104.147"/><line x1="482.801" x2="482.801" y1="101.646" y2="104.147"/><polyline points="482.801 102.182 482.443 101.825 482.086 101.646 481.55 101.646 481.193 101.825 480.835 102.182 480.657 102.718 480.657 103.075 480.835 103.611 481.193 103.969 481.55 104.147 482.086 104.147 482.443 103.969 482.801 103.611"/><line x1="483.873" x2="484.945" y1="101.646" y2="104.147"/><polyline points="486.017 101.646 484.945 104.147 484.587 104.862 484.23 105.219 483.873 105.398 483.694 105.398"/><polyline points="486.91 102.718 489.054 102.718 489.054 102.361 488.876 102.003 488.697 101.825 488.34 101.646 487.804 101.646 487.446 101.825 487.089 102.182 486.91 102.718 486.91 103.075 487.089 103.611 487.446 103.969 487.804 104.147 488.34 104.147 488.697 103.969 489.054 103.611"/><line x1="490.305" x2="490.305" y1="101.646" y2="104.147"/><polyline points="490.305 102.718 490.484 102.182 490.841 101.825 491.198 101.646 491.734 101.646"/><polyline points="495.665 100.395 497.63 100.395 496.558 101.825 497.094 101.825 497.452 102.003 497.63 102.182 497.809 102.718 497.809 103.075 497.63 103.611 497.273 103.969 496.737 104.147 496.201 104.147 495.665 103.969 495.486 103.79 495.308 103.433"/><polygon points="467.57 89.617 467.57 288.335 666.288 288.335 666.288 89.617"/><line x1="470.346" x2="470.346" y1="91.226" y2="95.366"/><line x1="474.092" x2="474.092" y1="92.606" y2="95.366"/><polyline points="474.092 93.197 473.698 92.803 473.303 92.606 472.712 92.606 472.318 92.803 471.923 93.197 471.726 93.789 471.726 94.183 471.923 94.775 472.318 95.169 472.712 95.366 473.303 95.366 473.698 95.169 474.092 94.775"/><line x1="475.275" x2="476.458" y1="92.606" y2="95.366"/><polyline points="477.641 92.606 476.458 95.366 476.064 96.155 475.669 96.549 475.275 96.746 475.078 96.746"/><polyline points="478.627 93.789 480.993 93.789 480.993 93.395 480.796 93 480.599 92.803 480.204 92.606 479.613 92.606 479.218 92.803 478.824 93.197 478.627 93.789 478.627 94.183 478.824 94.775 479.218 95.169 479.613 95.366 480.204 95.366 480.599 95.169 480.993 94.775"/><line x1="482.373" x2="482.373" y1="92.606" y2="95.366"/><polyline points="482.373 93.789 482.57 93.197 482.965 92.803 483.359 92.606 483.95 92.606"/><polyline points="489.865 91.226 487.894 93.986 490.851 93.986"/><line x1="489.865" x2="489.865" y1="91.226" y2="95.366"/><polygon points="456.097 78.144 456.097 299.808 677.761 299.808 677.761 78.144"/><line x1="459.193" x2="459.193" y1="79.939" y2="84.557"/><line x1="463.372" x2="463.372" y1="81.478" y2="84.557"/><polyline points="463.372 82.138 462.932 81.698 462.493 81.478 461.833 81.478 461.393 81.698 460.953 82.138 460.733 82.798 460.733 83.237 460.953 83.897 461.393 84.337 461.833 84.557 462.493 84.557 462.932 84.337 463.372 83.897"/><line x1="464.692" x2="466.011" y1="81.478" y2="84.557"/><polyline points="467.331 81.478 466.011 84.557 465.572 85.437 465.132 85.877 464.692 86.097 464.472 86.097"/><polyline points="468.431 82.798 471.07 82.798 471.07 82.358 470.85 81.918 470.63 81.698 470.19 81.478 469.53 81.478 469.091 81.698 468.651 82.138 468.431 82.798 468.431 83.237 468.651 83.897 469.091 84.337 469.53 84.557 470.19 84.557 470.63 84.337 471.07 83.897"/><line x1="472.609" x2="472.609" y1="81.478" y2="84.557"/><polyline points="472.609 82.798 472.829 82.138 473.269 81.698 473.709 81.478 474.369 81.478"/><polyline points="481.407 79.939 479.207 79.939 478.987 81.918 479.207 81.698 479.867 81.478 480.527 81.478 481.187 81.698 481.627 82.138 481.846 82.798 481.846 83.237 481.627 83.897 481.187 84.337 480.527 84.557 479.867 84.557 479.207 84.337 478.987 84.117 478.767 83.677"/><line x1="526.837" x2="526.837" y1="319.684" y2="329.306"/><polyline points="526.837 321.058 527.754 320.142 528.67 319.684 530.045 319.684 530.961 320.142 531.877 321.058 532.336 322.433 532.336 323.349 531.877 324.724 530.961 325.64 530.045 326.099 528.67 326.099 527.754 325.64 526.837 324.724"/><line x1="540.583" x2="540.583" y1="319.684" y2="326.099"/><polyline points="540.583 321.058 539.667 320.142 538.75 319.684 537.376 319.684 536.459 320.142 535.543 321.058 535.085 322.433 535.085 323.349 535.543 324.724 536.459 325.64 537.376 326.099 538.75 326.099 539.667 325.64 540.583 324.724"/><line x1="544.249" x2="544.249" y1="319.684" y2="326.099"/><polyline points="544.249 321.517 545.623 320.142 546.54 319.684 547.914 319.684 548.831 320.142 549.289 321.517 549.289 326.099"/><line x1="560.285" x2="568.533" y1="320.6" y2="320.6"/><line x1="560.285" x2="568.533" y1="323.349" y2="323.349"/><polygon points="581.82 316.476 580.446 316.935 579.529 318.309 579.071 320.6 579.071 321.975 579.529 324.266 580.446 325.64 581.82 326.099 582.737 326.099 584.111 325.64 585.028 324.266 585.486 321.975 585.486 320.6 585.028 318.309 584.111 316.935 582.737 316.476"/><line x1="593.733" x2="593.733" y1="316.476" y2="326.099"/><polyline points="593.733 321.058 592.817 320.142 591.901 319.684 590.526 319.684 589.61 320.142 588.693 321.058 588.235 322.433 588.235 323.349 588.693 324.724 589.61 325.64 590.526 326.099 591.901 326.099 592.817 325.64 593.733 324.724"/><polyline points="596.941 322.433 602.439 322.433 602.439 321.517 601.981 320.6 601.523 320.142 600.606 319.684 599.232 319.684 598.315 320.142 597.399 321.058 596.941 322.433 596.941 323.349 597.399 324.724 598.315 325.64 599.232 326.099 600.606 326.099 601.523 325.64 602.439 324.724"/><polyline points="610.687 319.684 610.687 327.015 610.228 328.389 609.77 328.848 608.854 329.306 607.479 329.306 606.563 328.848"/><polyline points="610.687 321.058 609.77 320.142 608.854 319.684 607.479 319.684 606.563 320.142 605.646 321.058 605.188 322.433 605.188 323.349 605.646 324.724 606.563 325.64 607.479 326.099 608.854 326.099 609.77 325.64 610.687 324.724"/><polygon points="740.077 123.171 740.077 254.782 888.225 281.626 888.225 96.326"/><line x1="741.553" x2="741.553" y1="123.973" y2="126.727"/><line x1="743.564" x2="743.564" y1="124.538" y2="126.383"/><polyline points="743.564 124.933 743.351 124.707 743.139 124.612 742.821 124.668 742.609 124.837 742.397 125.137 742.292 125.549 742.292 125.812 742.397 126.188 742.609 126.415 742.821 126.51 743.139 126.456 743.351 126.288 743.564 125.988"/><line x1="744.204" x2="744.846" y1="124.425" y2="126.165"/><polyline points="745.49 124.199 744.846 126.165 744.631 126.73 744.417 127.031 744.204 127.199 744.097 127.217"/><polyline points="746.028 124.901 747.327 124.675 747.327 124.409 747.218 124.162 747.11 124.048 746.893 123.953 746.568 124.01 746.352 124.18 746.136 124.484 746.028 124.901 746.028 125.166 746.136 125.546 746.352 125.775 746.568 125.871 746.893 125.815 747.11 125.645 747.327 125.341"/><line x1="748.089" x2="748.089" y1="123.742" y2="125.611"/><polyline points="748.089 124.543 748.198 124.124 748.416 123.818 748.635 123.646 748.963 123.589"/><polyline points="751.5 122.739 751.723 122.565 752.057 122.101 752.057 124.933"/><polygon points="730.933 118.811 730.933 259.141 889.195 290.509 889.195 87.444"/><line x1="732.467" x2="732.467" y1="119.648" y2="122.585"/><line x1="734.559" x2="734.559" y1="120.225" y2="122.194"/><polyline points="734.559 120.647 734.337 120.408 734.116 120.31 733.785 120.373 733.565 120.556 733.345 120.879 733.235 121.32 733.235 121.6 733.345 122 733.565 122.239 733.785 122.338 734.116 122.276 734.337 122.095 734.559 121.772"/><line x1="735.225" x2="735.893" y1="120.097" y2="121.945"/><polyline points="736.564 119.839 735.893 121.945 735.67 122.551 735.447 122.874 735.225 123.056 735.114 123.076"/><polyline points="737.124 120.582 738.478 120.325 738.478 120.04 738.364 119.777 738.251 119.657 738.025 119.558 737.687 119.623 737.462 119.808 737.237 120.135 737.124 120.582 737.124 120.865 737.237 121.269 737.462 121.51 737.687 121.61 738.025 121.547 738.251 121.362 738.478 121.036"/><line x1="739.272" x2="739.272" y1="119.319" y2="121.314"/><polyline points="739.272 120.174 739.385 119.725 739.613 119.396 739.841 119.209 740.183 119.143"/><polyline points="742.599 118.391 742.599 118.248 742.715 117.938 742.831 117.771 743.063 117.582 743.527 117.491 743.76 117.59 743.877 117.712 743.994 117.978 743.994 118.267 743.877 118.578 743.644 119.055 742.483 120.714 744.11 120.41"/><polygon points="720.49 113.833 720.49 264.12 890.37 301.275 890.37 76.678"/><line x1="722.085" x2="722.085" y1="114.706" y2="117.852"/><line x1="724.262" x2="724.262" y1="115.293" y2="117.403"/><polyline points="724.262 115.745 724.031 115.493 723.801 115.391 723.457 115.464 723.227 115.663 722.998 116.012 722.884 116.486 722.884 116.787 722.998 117.213 723.227 117.466 723.457 117.569 723.801 117.498 724.031 117.3 724.262 116.951"/><line x1="724.955" x2="725.651" y1="115.146" y2="117.117"/><polyline points="726.349 114.85 725.651 117.117 725.418 117.77 725.187 118.12 724.955 118.318 724.839 118.341"/><polyline points="726.933 115.638 728.344 115.342 728.344 115.037 728.226 114.757 728.108 114.629 727.872 114.527 727.52 114.602 727.285 114.804 727.051 115.157 726.933 115.638 726.933 115.942 727.051 116.373 727.285 116.628 727.52 116.732 727.872 116.659 728.108 116.459 728.344 116.105"/><line x1="729.172" x2="729.172" y1="114.251" y2="116.392"/><polyline points="729.172 115.169 729.29 114.685 729.528 114.329 729.766 114.125 730.123 114.05"/><polyline points="732.765 112.408 734.101 112.121 733.371 113.515 733.735 113.438 733.979 113.542 734.101 113.671 734.223 114.11 734.223 114.421 734.101 114.911 733.857 115.271 733.492 115.501 733.128 115.576 732.765 115.497 732.644 115.368 732.523 115.084"/><polygon points="708.452 108.094 708.452 269.859 891.824 314.595 891.824 63.358"/><line x1="710.11" x2="710.11" y1="109.005" y2="112.393"/><line x1="712.373" x2="712.373" y1="109.599" y2="111.873"/><polyline points="712.373 110.086 712.134 109.818 711.894 109.712 711.536 109.797 711.297 110.016 711.059 110.395 710.94 110.908 710.94 111.232 711.059 111.689 711.297 111.958 711.536 112.065 711.894 111.983 712.134 111.766 712.373 111.385"/><line x1="713.094" x2="713.819" y1="109.428" y2="111.54"/><polyline points="714.546 109.085 713.819 111.54 713.577 112.248 713.336 112.629 713.094 112.846 712.974 112.873"/><polyline points="715.155 109.923 716.624 109.58 716.624 109.251 716.501 108.951 716.378 108.816 716.133 108.71 715.765 108.796 715.521 109.018 715.277 109.403 715.155 109.923 715.155 110.251 715.277 110.714 715.521 110.985 715.765 111.093 716.133 111.008 716.378 110.788 716.624 110.402"/><line x1="717.487" x2="717.487" y1="108.389" y2="110.697"/><polyline points="717.487 109.378 717.611 108.855 717.859 108.466 718.106 108.243 718.479 108.154"/><polyline points="722.25 106.092 720.984 108.728 722.887 108.284"/><line x1="722.25" x2="722.25" y1="106.092" y2="109.602"/><polygon points="694.424 101.406 694.424 276.547 893.67 331.5 893.67 46.453"/><line x1="696.143" x2="696.143" y1="102.357" y2="106.026"/><line x1="698.494" x2="698.494" y1="102.951" y2="105.415"/><polyline points="698.494 103.48 698.245 103.194 697.996 103.085 697.624 103.184 697.376 103.426 697.129 103.842 697.005 104.401 697.005 104.751 697.129 105.244 697.376 105.531 697.624 105.641 697.996 105.545 698.245 105.304 698.494 104.888"/><line x1="699.243" x2="699.996" y1="102.751" y2="105.025"/><polyline points="700.752 102.347 699.996 105.025 699.744 105.797 699.493 106.215 699.243 106.456 699.118 106.488"/><polyline points="701.385 103.243 702.914 102.839 702.914 102.483 702.786 102.16 702.659 102.016 702.403 101.906 702.02 102.008 701.766 102.254 701.512 102.677 701.385 103.243 701.385 103.599 701.512 104.098 701.766 104.387 702.02 104.499 702.403 104.4 702.659 104.155 702.914 103.731"/><line x1="703.813" x2="703.813" y1="101.528" y2="104.033"/><polyline points="703.813 102.602 703.942 102.031 704.2 101.604 704.458 101.356 704.846 101.252"/><polyline points="709.046 98.856 707.722 99.215 707.59 100.88 707.722 100.664 708.118 100.377 708.515 100.271 708.913 100.346 709.179 100.639 709.312 101.149 709.312 101.513 709.179 102.093 708.913 102.526 708.515 102.811 708.118 102.915 707.722 102.836 707.59 102.69 707.459 102.362"/><line x1="735.714" x2="735.714" y1="305.681" y2="314.272"/><polyline points="735.714 306.908 736.361 306.301 737.011 306.103 737.99 306.421 738.646 307.047 739.304 308.088 739.634 309.437 739.634 310.264 739.304 311.394 738.646 311.996 737.99 312.185 737.011 311.851 736.361 311.219 735.714 310.181"/><line x1="745.678" x2="745.678" y1="308.922" y2="314.808"/><polyline points="745.678 310.183 744.996 309.12 744.317 308.479 743.304 308.149 742.631 308.348 741.961 308.961 741.626 310.099 741.626 310.931 741.961 312.291 742.631 313.351 743.304 313.998 744.317 314.344 744.996 314.156 745.678 313.547"/><line x1="748.429" x2="748.429" y1="309.817" y2="315.747"/><polyline points="748.429 311.511 749.471 310.58 750.169 310.383 751.221 310.725 751.926 311.382 752.279 312.781 752.279 317.061"/><line x1="760.964" x2="767.746" y1="314.77" y2="316.991"/><line x1="760.964" x2="767.746" y1="317.397" y2="319.665"/><polyline points="777.17 318.252 777.17 317.796 777.572 317.012 777.976 316.683 778.785 316.483 780.413 316.999 781.232 317.72 781.643 318.313 782.054 319.368 782.054 320.292 781.643 321.081 780.822 322.195 776.768 325.417 782.467 327.362"/><polyline points="790.037 320.053 785.797 318.708 785.378 322.766 785.797 322.437 787.06 322.382 788.33 322.795 789.609 323.682 790.466 324.904 790.895 326.462 790.895 327.406 790.466 328.677 789.609 329.328 788.33 329.363 787.06 328.929 785.797 328.032 785.378 327.423 784.959 326.351"/><line x1="798.787" x2="798.787" y1="322.829" y2="332.931"/><polyline points="798.787 327.639 797.895 326.386 797.007 325.618 795.682 325.187 794.804 325.377 793.929 326.043 793.493 327.324 793.493 328.274 793.929 329.846 794.804 331.095 795.682 331.871 797.007 332.323 797.895 332.146 798.787 331.488"/><polyline points="801.937 330.129 807.449 331.959 807.449 330.978 806.984 329.844 806.52 329.202 805.596 328.411 804.217 327.962 803.302 328.151 802.391 328.824 801.937 330.129 801.937 331.098 802.391 332.705 803.302 333.985 804.217 334.783 805.596 335.254 806.52 335.08 807.449 334.414"/><polyline points="815.99 331.792 815.99 339.802 815.507 341.137 815.025 341.469 814.063 341.632 812.629 341.132 811.678 340.304"/><polyline points="815.99 333.294 815.025 331.978 814.063 331.165 812.629 330.699 811.678 330.885 810.731 331.565 810.259 332.892 810.259 333.881 810.731 335.522 811.678 336.834 812.629 337.654 814.063 338.143 815.025 337.972 815.99 337.299"/><polygon points="989.792 128.135 989.792 249.817 1122.52 307.246 1122.52 70.706"/><line x1="990.752" x2="990.752" y1="128.711" y2="131.264"/><line x1="992.069" x2="992.069" y1="129.01" y2="130.727"/><polyline points="992.069 129.378 991.929 129.191 991.79 129.127 991.581 129.214 991.442 129.395 991.304 129.697 991.235 130.092 991.235 130.335 991.304 130.673 991.442 130.861 991.581 130.926 991.79 130.841 991.929 130.662 992.069 130.359"/><line x1="992.49" x2="992.914" y1="128.833" y2="130.383"/><polyline points="993.34 128.476 992.914 130.383 992.772 130.934 992.631 131.237 992.49 131.417 992.42 131.445"/><polyline points="993.697 129.071 994.56 128.713 994.56 128.463 994.488 128.244 994.416 128.149 994.271 128.085 994.055 128.176 993.912 128.361 993.768 128.669 993.697 129.071 993.697 129.319 993.768 129.662 993.912 129.852 994.055 129.918 994.271 129.829 994.416 129.646 994.56 129.337"/><line x1="995.069" x2="995.069" y1="127.751" y2="129.504"/><polyline points="995.069 128.502 995.142 128.096 995.288 127.784 995.435 127.597 995.655 127.505"/><polyline points="997.365 126.405 997.516 126.214 997.742 125.736 997.742 128.414"/><polygon points="979.205 125.551 979.205 252.402 1112.497 317.42 1112.497 60.533"/><line x1="980.131" x2="980.131" y1="126.133" y2="128.795"/><line x1="981.402" x2="981.402" y1="126.419" y2="128.211"/><polyline points="981.402 126.803 981.267 126.611 981.133 126.547 980.931 126.642 980.797 126.833 980.663 127.151 980.597 127.564 980.597 127.818 980.663 128.169 980.797 128.362 980.931 128.428 981.133 128.335 981.267 128.145 981.402 127.827"/><line x1="981.808" x2="982.217" y1="126.227" y2="127.837"/><polyline points="982.629 125.839 982.217 127.837 982.081 128.414 981.945 128.733 981.808 128.923 981.741 128.954"/><polyline points="982.974 126.453 983.809 126.063 983.809 125.802 983.739 125.574 983.669 125.477 983.529 125.413 983.32 125.512 983.182 125.707 983.043 126.032 982.974 126.453 982.974 126.712 983.043 127.068 983.182 127.264 983.32 127.33 983.529 127.234 983.669 127.039 983.809 126.714"/><line x1="984.301" x2="984.301" y1="125.048" y2="126.879"/><polyline points="984.301 125.833 984.371 125.407 984.513 125.079 984.654 124.881 984.867 124.78"/><polyline points="986.377 123.8 986.377 123.667 986.45 123.367 986.523 123.199 986.669 122.996 986.961 122.856 987.108 122.919 987.182 123.017 987.255 123.249 987.255 123.516 987.182 123.819 987.035 124.288 986.304 125.958 987.329 125.487"/><polygon points="967.68 122.737 967.68 255.215 1100.589 329.508 1100.589 48.445"/><line x1="968.561" x2="968.561" y1="123.325" y2="126.106"/><line x1="969.772" x2="969.772" y1="123.595" y2="125.468"/><polyline points="969.772 123.997 969.643 123.799 969.515 123.735 969.323 123.839 969.195 124.041 969.068 124.376 969.004 124.809 969.004 125.075 969.068 125.44 969.195 125.639 969.323 125.704 969.515 125.603 969.643 125.402 969.772 125.067"/><line x1="970.159" x2="970.549" y1="123.385" y2="125.059"/><polyline points="970.942 122.961 970.549 125.059 970.419 125.665 970.289 126.002 970.159 126.203 970.095 126.237"/><polyline points="971.271 123.595 972.068 123.168 972.068 122.896 972.001 122.659 971.934 122.559 971.801 122.495 971.602 122.603 971.469 122.811 971.337 123.153 971.271 123.595 971.271 123.866 971.337 124.237 971.469 124.439 971.602 124.504 971.801 124.4 971.934 124.193 972.068 123.85"/><line x1="972.538" x2="972.538" y1="122.096" y2="124.012"/><polyline points="972.538 122.917 972.605 122.47 972.74 122.123 972.875 121.913 973.079 121.803"/><polyline points="974.592 120.008 975.362 119.585 974.941 120.933 975.151 120.819 975.292 120.882 975.362 120.984 975.433 121.367 975.433 121.647 975.362 122.104 975.222 122.458 975.011 122.709 974.801 122.82 974.592 122.791 974.522 122.688 974.453 122.447"/><polygon points="955.084 119.663 955.084 258.29 1086.206 344.107 1086.206 33.845"/><line x1="955.909" x2="955.909" y1="120.254" y2="123.165"/><line x1="957.042" x2="957.042" y1="120.504" y2="122.466"/><polyline points="957.042 120.925 956.922 120.721 956.802 120.657 956.622 120.771 956.502 120.987 956.383 121.341 956.323 121.796 956.323 122.074 956.383 122.454 956.502 122.659 956.622 122.725 956.802 122.614 956.922 122.4 957.042 122.045"/><line x1="957.405" x2="957.771" y1="120.274" y2="122.016"/><polyline points="958.139 119.808 957.771 122.016 957.649 122.655 957.527 123.011 957.405 123.226 957.344 123.263"/><polyline points="958.447 120.464 959.195 119.995 959.195 119.71 959.132 119.463 959.069 119.36 958.944 119.297 958.757 119.416 958.633 119.637 958.509 119.999 958.447 120.464 958.447 120.748 958.509 121.135 958.633 121.343 958.757 121.408 958.944 121.293 959.069 121.073 959.195 120.71"/><line x1="959.635" x2="959.635" y1="118.858" y2="120.867"/><polyline points="959.635 119.719 959.699 119.249 959.826 118.881 959.953 118.657 960.144 118.535"/><polyline points="962.092 116.272 961.435 118.736 962.423 118.118"/><line x1="962.092" x2="962.092" y1="116.272" y2="119.352"/><polygon points="941.262 116.289 941.262 261.664 1068.488 362.092 1068.488 15.861"/><line x1="942.014" x2="942.014" y1="116.881" y2="119.935"/><line x1="943.049" x2="943.049" y1="117.107" y2="119.165"/><polyline points="943.049 117.548 942.939 117.338 942.829 117.275 942.665 117.401 942.556 117.63 942.447 118.006 942.393 118.485 942.393 118.777 942.447 119.175 942.556 119.386 942.665 119.451 942.829 119.329 942.939 119.1 943.049 118.724"/><line x1="943.38" x2="943.715" y1="116.853" y2="118.67"/><polyline points="944.051 116.34 943.715 118.67 943.603 119.345 943.492 119.722 943.38 119.951 943.325 119.992"/><polyline points="944.333 117.018 945.017 116.501 945.017 116.2 944.96 115.944 944.902 115.838 944.788 115.775 944.617 115.906 944.503 116.143 944.39 116.528 944.333 117.018 944.333 117.316 944.39 117.721 944.503 117.934 944.617 117.999 944.788 117.872 944.902 117.637 945.017 117.251"/><line x1="945.421" x2="945.421" y1="115.291" y2="117.401"/><polyline points="945.421 116.195 945.479 115.699 945.595 115.308 945.711 115.068 945.886 114.934"/><polyline points="947.794 112.393 947.19 112.862 947.13 114.289 947.19 114.09 947.37 113.798 947.551 113.66 947.733 113.675 947.855 113.891 947.915 114.309 947.915 114.618 947.855 115.128 947.733 115.527 947.551 115.817 947.37 115.952 947.19 115.932 947.13 115.824 947.07 115.562"/><line x1="960.544" x2="960.544" y1="292.649" y2="300.281"/><polyline points="960.544 293.74 960.868 293.315 961.194 293.254 961.686 293.713 962.017 294.389 962.349 295.438 962.516 296.705 962.516 297.445 962.349 298.393 962.017 298.808 961.686 298.853 961.194 298.372 960.868 297.689 960.544 296.647"/><line x1="965.61" x2="965.61" y1="297.365" y2="302.685"/><polyline points="965.61 298.505 965.258 297.416 964.908 296.712 964.387 296.227 964.042 296.281 963.7 296.708 963.529 297.667 963.529 298.414 963.7 299.698 964.042 300.779 964.387 301.49 964.908 301.999 965.258 301.962 965.61 301.545"/><line x1="967.039" x2="967.039" y1="298.696" y2="304.081"/><polyline points="967.039 300.235 967.584 299.59 967.951 299.545 968.504 300.06 968.876 300.797 969.063 302.145 969.063 306.057"/><line x1="973.73" x2="977.476" y1="305.738" y2="309.249"/><line x1="973.73" x2="977.476" y1="308.176" y2="311.761"/><polyline points="985.444 312.717 983.068 310.559 982.835 314.273 983.068 314.055 983.772 314.273 984.484 314.935 985.203 316.049 985.686 317.391 985.929 318.959 985.929 319.851 985.686 320.955 985.203 321.375 984.484 321.117 983.772 320.422 983.068 319.298 982.835 318.635 982.603 317.539"/><polygon points="988.915 315.869 988.157 315.634 987.655 316.533 987.406 318.558 987.406 319.912 987.655 322.407 988.157 324.251 988.915 325.445 989.426 325.944 990.199 326.238 990.718 325.358 990.98 323.297 990.98 321.908 990.718 319.354 990.199 317.494 989.426 316.333"/><line x1="995.855" x2="995.855" y1="322.171" y2="332.223"/><polyline points="995.855 326.957 995.297 325.479 994.743 324.486 993.92 323.72 993.376 323.684 992.837 324.118 992.568 325.269 992.568 326.205 992.837 327.868 993.376 329.331 993.92 330.333 994.743 331.136 995.297 331.201 995.855 330.787"/><polyline points="997.843 330.283 1001.379 333.644 1001.379 332.65 1001.078 331.375 1000.778 330.599 1000.182 329.549 999.296 328.725 998.711 328.668 998.131 329.099 997.843 330.283 997.843 331.253 998.131 332.987 998.711 334.524 999.296 335.583 1000.182 336.448 1000.778 336.535 1001.379 336.127"/><polyline points="1007.01 335.905 1007.01 344.146 1006.686 345.37 1006.363 345.563 1005.723 345.435 1004.771 344.484 1004.143 343.351"/><polyline points="1007.01 337.45 1006.363 335.817 1005.723 334.707 1004.771 333.821 1004.143 333.743 1003.52 334.168 1003.211 335.385 1003.211 336.39 1003.52 338.197 1004.143 339.811 1004.771 340.93 1005.723 341.859 1006.363 341.972 1007.01 341.571"/></g></svg>