<?xml version="1.0" encoding="utf-8" ?>
<svg xmlns="http://www.w3.org/2000/svg" xmlns:cc="http://creativecommons.org/ns" xmlns:dc="http://purl.org/dc/elements/1.1/" xmlns:ev="http://www.w3.org/2001/xml-events" xmlns:inkscape="http://www.inkscape.org/namespaces/inkscape" xmlns:rdf="http://www.w3.org/1999/02/22-rdf-syntax-ns" xmlns:sodipodi="http://sodipodi.sourceforge.net/DTD/sodipodi-0.dtd" xmlns:xlink="http://www.w3.org/1999/xlink" baseProfile="tiny" height="8.0cm" version="1.2" viewBox="0 0 755.9055118110235 302.3622047244094" width="20.0cm">
  <metadata>
    <rdf:RDF>
      <cc:Work>
        <dc:format>image/svg+xml</dc:format>
        <dc:source>vpype -I figures/fig_spread.vpy write figures/fig_spread.svg
</dc:source>
        <dc:date>2022-03-31T12:15:54.058798</dc:date>
      </cc:Work>
    </rdf:RDF>
  </metadata>
  <defs/>
  <g fill="none" id="layer6" inkscape:groupmode="layer" inkscape:label="6" stroke="#0000ff" style="display:inline">
    <polygon points="158.4379,11.3386 159.6758,134.144 276.0377,215.8679 289.0976,92.4295"/>
    <line x1="160.1277" x2="160.1523" y1="13.4877" y2="16.3265"/>
    <line x1="162.4054" x2="162.4183" y1="15.8471" y2="17.7388"/>
    <polyline points="162.4082,16.253 162.1672,15.8336 161.9271,15.5495 161.5685,15.3265 161.3306,15.3132 161.0939,15.4351 160.9777,15.7663 160.9799,16.0365 161.1024,16.5158 161.343,16.9344 161.5827,17.218 161.9407,17.4411 162.1785,17.455 162.4156,17.3339"/>
    <line x1="163.1236" x2="163.853" y1="16.2938" y2="18.6329"/>
    <polyline points="164.5619,17.1884 163.853,18.6329 163.6168,19.0233 163.3793,19.1437 163.1412,19.1293 163.0217,19.0548"/>
    <polyline points="165.1657,18.3735 166.607,19.2707 166.6061,19.0002 166.4849,18.6547 166.3642,18.4445 166.1232,18.1595 165.7626,17.9353 165.5229,17.9212 165.2839,18.0424 165.1657,18.3735 165.1669,18.6438 165.2887,19.1238 165.5297,19.5433 165.7702,19.8279 166.1302,20.0522 166.3699,20.0669 166.6092,19.9465"/>
    <line x1="167.4469" x2="167.4518" y1="18.9829" y2="20.8759"/>
    <polyline points="167.449,19.7949 167.5684,19.4639 167.8086,19.3431 168.0493,19.3576 168.411,19.5825"/>
    <polyline points="171.19,20.9043 171.4323,20.9192 171.7962,20.7381 171.7933,23.5817"/>
    <polygon points="133.62,26.4953 137.4497,149.5299 253.8944,233.7648 264.3967,110.3818"/>
    <line x1="135.3322" x2="135.417" y1="28.6827" y2="31.5313"/>
    <line x1="137.629" x2="137.6819" y1="31.092" y2="32.9901"/>
    <polyline points="137.6403,31.4992 137.3937,31.074 137.1508,30.7846 136.7924,30.5542 136.5575,30.5364 136.3266,30.6544 136.2191,30.9845 136.227,31.2556 136.358,31.7388 136.6043,32.1632 136.8466,32.4521 137.2045,32.6826 137.4393,32.7009 137.6706,32.5839"/>
    <line x1="138.3468" x2="139.1159" y1="31.5534" y2="33.9138"/>
    <polyline points="139.7846,32.4776 139.1159,33.9138 138.8913,34.301 138.6596,34.4174 138.4244,34.3986 138.305,34.3216"/>
    <polyline points="140.4053,33.6778 141.846,34.6047 141.8394,34.3333 141.7126,33.9844 141.589,33.7713 141.3453,33.4809 140.9848,33.2492 140.748,33.2306 140.5148,33.3478 140.4053,33.6778 140.4122,33.949 140.5425,34.4329 140.7892,34.8582 141.0324,35.1481 141.3923,35.3799 141.629,35.3991 141.8625,35.2827"/>
    <line x1="142.6685" x2="142.7134" y1="34.3315" y2="36.2308"/>
    <polyline points="142.6877,35.1462 142.7985,34.8164 143.0329,34.6996 143.2707,34.7186 143.6323,34.951"/>
    <polyline points="146.1626,36.3093 146.1598,36.1732 146.2752,35.9788 146.3935,35.9205 146.633,35.9399 147.1177,36.2512 147.3629,36.5431 147.4868,36.7571 147.6134,37.1072 147.6187,37.3793 147.5028,37.5733 147.2686,37.8252 146.0869,38.4037 147.7794,39.4938"/>
    <polygon points="107.9763,42.1562 114.562,165.3739 231.0389,252.2372 238.7995,128.9856"/>
    <line x1="109.7117" x2="109.8605" y1="44.3833" y2="47.2408"/>
    <line x1="112.0275" x2="112.123" y1="46.8445" y2="48.7485"/>
    <polyline points="112.048,47.253 111.7955,46.8219 111.5498,46.5268 111.1918,46.2887 110.9601,46.2662 110.7356,46.3798 110.6374,46.7087 110.6514,46.9806 110.7914,47.4676 111.0435,47.898 111.2886,48.1925 111.6461,48.4307 111.8777,48.4538 112.1026,48.341"/>
    <line x1="112.7445" x2="113.5556" y1="47.3215" y2="49.7031"/>
    <polyline points="114.1808,48.2767 113.5556,49.7031 113.3434,50.0868 113.118,50.1989 112.8861,50.1753 112.7668,50.0957"/>
    <polyline points="114.8193,49.4923 116.2586,50.4504 116.2459,50.1782 116.1131,49.8259 115.9866,49.6098 115.74,49.3138 115.3799,49.0742 115.1464,49.0509 114.9196,49.1637 114.8193,49.4923 114.8323,49.7644 114.9716,50.2521 115.2242,50.6835 115.4702,50.979 115.8298,51.2185 116.0632,51.2425 116.2904,51.1305"/>
    <line x1="117.062" x2="117.1496" y1="50.193" y2="52.0981"/>
    <polyline points="117.0996,51.0102 117.2011,50.6818 117.4292,50.5693 117.6637,50.5932 118.0249,50.8334"/>
    <polyline points="120.6386,51.6438 121.9706,52.5288 121.2901,53.1376 121.6531,53.3791 121.9009,53.6764 122.0277,53.8933 122.1659,54.3825 122.1772,54.6549 122.0733,54.9825 121.8429,55.0934 121.4861,54.9877 121.1237,54.7463 120.7557,54.369 120.6291,54.1526 120.4967,53.8002"/>
    <polygon points="81.4651,58.347 90.9826,181.6966 207.4364,271.3135 212.2563,148.2769"/>
    <line x1="83.2242" x2="83.4413" y1="60.6153" y2="63.4806"/>
    <line x1="85.5589" x2="85.7" y1="63.1305" y2="65.0396"/>
    <polyline points="85.5892,63.5402 85.3306,63.1028 85.0821,62.802 84.7246,62.5558 84.4967,62.5282 84.2791,62.6372 84.1908,62.9644 84.2113,63.2371 84.3609,63.7279 84.619,64.1644 84.867,64.4647 85.2239,64.711 85.4518,64.7392 85.6698,64.6311"/>
    <line x1="86.2748" x2="87.1303" y1="63.6238" y2="66.0269"/>
    <polyline points="87.7087,64.6117 87.1303,66.0269 86.9314,66.4066 86.7129,66.5139 86.4846,66.4853 86.3655,66.403"/>
    <polyline points="88.3657,65.8431 89.8028,66.834 89.7836,66.561 89.6444,66.2053 89.5149,65.9861 89.2654,65.6842 88.9059,65.4365 88.676,65.4081 88.4561,65.5162 88.3657,65.8431 88.3853,66.1159 88.5342,66.6074 88.7928,67.0449 89.0418,67.3463 89.4007,67.594 89.6305,67.6231 89.8509,67.5159"/>
    <line x1="90.5853" x2="90.7185" y1="66.5936" y2="68.5036"/>
    <polyline points="90.6424,67.413 90.7339,67.0862 90.9552,66.9785 91.186,67.0075 91.5467,67.256"/>
    <polyline points="95.1006,68.7901 94.02,69.8721 95.8309,71.1209"/>
    <line x1="95.1006" x2="95.2897" y1="68.7901" y2="71.6589"/>
    <polygon points="54.0415,75.095 66.6798,198.5202 183.0495,291.0236 184.7136,168.2946"/>
    <line x1="55.8249" x2="56.1151" y1="77.4059" y2="80.278"/>
    <line x1="58.1785" x2="58.3683" y1="79.9776" y2="81.8911"/>
    <polyline points="58.2193,80.3882 57.9543,79.9445 57.7028,79.6377 57.3463,79.3828 57.1224,79.3499 56.9123,79.4538 56.8348,79.7792 56.8622,80.0525 57.0219,80.5471 57.2865,80.9899 57.5373,81.2962 57.8934,81.5511 58.1172,81.5846 58.3277,81.4816"/>
    <line x1="58.8927" x2="59.7952" y1="80.488" y2="82.9126"/>
    <polyline points="60.3233,81.5103 59.7952,82.9126 59.6108,83.2877 59.3998,83.39 59.1755,83.3559 59.0567,83.2708"/>
    <polyline points="60.9998,82.7579 62.4335,83.7833 62.4073,83.5097 62.2615,83.1504 62.1287,82.928 61.8763,82.6201 61.5176,82.3638 61.2918,82.3299 61.0794,82.4329 60.9998,82.7579 61.0263,83.0313 61.1853,83.5266 61.4504,83.9704 61.7022,84.2778 62.0604,84.5342 62.2861,84.5687 62.499,84.4666"/>
    <line x1="63.1932" x2="63.3752" y1="83.5612" y2="85.4755"/>
    <polyline points="63.2713,84.3824 63.352,84.0576 63.5657,83.9551 63.7926,83.9895 64.1525,84.2467"/>
    <polyline points="67.9153,86.0382 66.7089,85.1768 66.7021,86.3246 66.8099,86.2737 67.1587,86.395 67.5203,86.6534 67.8946,87.049 68.1608,87.4953 68.3187,87.9922 68.3436,88.2658 68.2603,88.5896 68.0443,88.6904 67.6955,88.5684 67.3344,88.3099 66.961,87.915 66.8281,87.6923 66.6827,87.333"/>
    <line x1="27.3903" x2="27.3903" y1="256.0564" y2="264.1374"/>
    <polyline points="27.3903,259.9045 26.6207,259.1349 25.8511,258.7501 24.6966,258.7501 23.927,259.1349 23.1574,259.9045 22.7726,261.0589 22.7726,261.8286 23.1574,262.983 23.927,263.7526 24.6966,264.1374 25.8511,264.1374 26.6207,263.7526 27.3903,262.983"/>
    <polyline points="30.084,261.0589 34.7017,261.0589 34.7017,260.2893 34.3169,259.5197 33.9321,259.1349 33.1625,258.7501 32.0081,258.7501 31.2384,259.1349 30.4688,259.9045 30.084,261.0589 30.084,261.8286 30.4688,262.983 31.2384,263.7526 32.0081,264.1374 33.1625,264.1374 33.9321,263.7526 34.7017,262.983"/>
    <line x1="37.3954" x2="37.3954" y1="256.0564" y2="264.1374"/>
    <polyline points="40.8587,256.0564 40.8587,262.5982 41.2436,263.7526 42.0132,264.1374 42.7828,264.1374"/>
    <line x1="39.7043" x2="42.398" y1="258.7501" y2="258.7501"/>
    <line x1="49.3246" x2="49.3246" y1="258.7501" y2="264.1374"/>
    <polyline points="49.3246,259.9045 48.555,259.1349 47.7854,258.7501 46.6309,258.7501 45.8613,259.1349 45.0917,259.9045 44.7069,261.0589 44.7069,261.8286 45.0917,262.983 45.8613,263.7526 46.6309,264.1374 47.7854,264.1374 48.555,263.7526 49.3246,262.983"/>
    <line x1="50.8639" x2="57.7905" y1="266.8311" y2="266.8311"/>
    <line x1="63.1779" x2="58.9449" y1="258.7501" y2="264.1374"/>
    <line x1="58.9449" x2="63.1779" y1="258.7501" y2="258.7501"/>
    <line x1="58.9449" x2="63.1779" y1="264.1374" y2="264.1374"/>
    <line x1="72.0285" x2="78.9552" y1="259.5197" y2="259.5197"/>
    <line x1="72.0285" x2="78.9552" y1="261.8286" y2="261.8286"/>
    <polyline points="88.1907,257.9804 88.1907,257.5956 88.5755,256.826 88.9603,256.4412 89.7299,256.0564 91.2692,256.0564 92.0388,256.4412 92.4236,256.826 92.8084,257.5956 92.8084,258.3652 92.4236,259.1349 91.654,260.2893 87.8059,264.1374 93.1932,264.1374"/>
    <polyline points="100.1199,259.9045 99.3502,259.1349 98.5806,258.7501 97.4262,258.7501 96.6565,259.1349 95.8869,259.9045 95.5021,261.0589 95.5021,261.8286 95.8869,262.983 96.6565,263.7526 97.4262,264.1374 98.5806,264.1374 99.3502,263.7526 100.1199,262.983"/>
    <line x1="102.8135" x2="102.8135" y1="258.7501" y2="264.1374"/>
    <polyline points="102.8135,260.2893 103.968,259.1349 104.7376,258.7501 105.892,258.7501 106.6617,259.1349 107.0465,260.2893 107.0465,264.1374"/>
    <polyline points="107.0465,260.2893 108.2009,259.1349 108.9705,258.7501 110.125,258.7501 110.8946,259.1349 111.2794,260.2893 111.2794,264.1374"/>
    <polygon points="393.0007,22.3515 397.0796,149.5467 517.2488,236.5363 528.4953,108.9554"/>
    <line x1="394.7706" x2="394.8611" y1="24.612" y2="27.5669"/>
    <line x1="397.1442" x2="397.2007" y1="27.0998" y2="29.0687"/>
    <polyline points="397.1564,27.5222 396.9013,27.0824 396.6503,26.7833 396.28,26.5462 396.0374,26.5289 395.7992,26.6525 395.6886,26.9956 395.697,27.2768 395.8328,27.7774 396.0874,28.2163 396.3379,28.5148 396.7076,28.7521 396.9501,28.77 397.1886,28.6473"/>
    <line x1="397.8858" x2="398.6822" y1="27.5748" y2="30.0197"/>
    <polyline points="399.3712,28.5264 398.6822,30.0197 398.4507,30.4225 398.2115,30.5444 397.9687,30.5261 397.8454,30.4468"/>
    <polyline points="400.0133,29.7684 401.5019,30.7228 401.4948,30.4412 401.3635,30.0799 401.2357,29.8594 400.9838,29.5594 400.6113,29.3208 400.3668,29.3027 400.1261,29.4255 400.0133,29.7684 400.0207,30.0498 400.1557,30.5511 400.4108,30.9911 400.6622,31.2906 401.034,31.5293 401.2785,31.548 401.5195,31.4262"/>
    <line x1="402.351" x2="402.3991" y1="30.4352" y2="32.4056"/>
    <polyline points="402.3716,31.2805 402.4857,30.9377 402.7277,30.8153 402.9733,30.8339 403.347,31.0732"/>
    <polyline points="406.2089,32.489 406.4562,32.5081 406.823,32.3248 406.8841,35.2845"/>
    <polygon points="379.8401,30.347 385.3668,157.6497 505.5611,246.0236 515.371,118.5043"/>
    <line x1="381.6223" x2="381.7466" y1="32.6285" y2="35.5884"/>
    <line x1="384.006" x2="384.085" y1="35.1437" y2="37.116"/>
    <polyline points="384.023,35.5669 383.7648,35.1239 383.5123,34.8219 383.1422,34.5806 382.9014,34.5609 382.6665,34.6822 382.5608,35.0247 382.5724,35.3064 382.7129,35.809 382.9706,36.2512 383.2226,36.5526 383.5921,36.794 383.8329,36.8143 384.0681,36.6939"/>
    <line x1="384.7473" x2="385.5658" y1="35.6269" y2="38.0832"/>
    <polyline points="386.232,36.5948 385.5658,38.0832 385.3408,38.4843 385.105,38.6039 384.8639,38.5831 384.7406,38.5025"/>
    <polyline points="386.8834,37.845 388.3714,38.8159 388.3611,38.5338 388.2267,38.1707 388.0973,37.9486 387.8439,37.6456 387.4716,37.4029 387.2288,37.3823 386.9914,37.5028 386.8834,37.845 386.894,38.1269 387.0338,38.6303 387.292,39.0735 387.5449,39.376 387.9166,39.6188 388.1593,39.64 388.3971,39.5204"/>
    <line x1="389.2105" x2="389.2811" y1="38.5365" y2="40.51"/>
    <polyline points="389.2408,39.3831 389.35,39.041 389.5887,38.9209 389.8326,38.942 390.2061,39.1855"/>
    <polyline points="392.8166,40.6107 392.812,40.4693 392.9278,40.268 393.0483,40.208 393.2939,40.2295 393.7948,40.5556 394.0498,40.8603 394.1795,41.0834 394.3137,41.4479 394.3226,41.7306 394.2063,41.9316 393.9694,42.192 392.7657,42.7862 394.5143,43.9284"/>
    <polygon points="366.453,38.4801 373.4743,165.877 493.6791,255.6686 501.9995,128.2329"/>
    <line x1="368.2477" x2="368.4068" y1="40.783" y2="43.7477"/>
    <line x1="370.6415" x2="370.7438" y1="43.3262" y2="45.3016"/>
    <polyline points="370.6635,43.7501 370.4021,43.3038 370.1481,42.9988 369.7783,42.7534 369.5393,42.7311 369.3079,42.8501 369.2072,43.1919 369.2221,43.474 369.3675,43.9787 369.6284,44.4241 369.8819,44.7285 370.2512,44.974 370.4901,44.9969 370.7219,44.8789"/>
    <line x1="371.3823" x2="372.2237" y1="43.8178" y2="46.2856"/>
    <polyline points="372.8661,44.8024 372.2237,46.2856 372.0054,46.6847 371.7731,46.802 371.5337,46.7786 371.4105,46.6966"/>
    <polyline points="373.5271,46.061 375.0142,47.0487 375.0006,46.7662 374.8629,46.4012 374.732,46.1775 374.477,45.8714 374.1049,45.6245 373.8639,45.6013 373.6301,45.7195 373.5271,46.061 373.5411,46.3433 373.6857,46.8487 373.9471,47.2952 374.2016,47.6007 374.573,47.8477 374.814,47.8715 375.0482,47.7543"/>
    <line x1="375.8429" x2="375.9367" y1="46.7778" y2="48.7544"/>
    <polyline points="375.8831,47.6257 375.9873,47.2844 376.2225,47.1667 376.4646,47.1903 376.8379,47.438"/>
    <polyline points="379.5372,48.2672 380.9138,49.1798 380.2122,49.8146 380.5874,50.0636 380.8437,50.3711 380.975,50.5956 381.1184,51.1028 381.1306,51.3853 381.0238,51.7258 380.7861,51.8418 380.4175,51.7338 380.0431,51.4848 379.6626,51.0949 379.5316,50.8709 379.3943,50.5058"/>
    <polygon points="352.8336,46.7543 361.3979,174.2315 481.5981,265.4752 488.374,138.1463"/>
    <line x1="354.6408" x2="354.8361" y1="49.0791" y2="52.0483"/>
    <line x1="357.0449" x2="357.1712" y1="51.6509" y2="53.6292"/>
    <polyline points="357.072,52.0754 356.8074,51.6258 356.5518,51.3177 356.1823,51.068 355.9452,51.0432 355.7174,51.1597 355.622,51.5007 355.6404,51.7833 355.7909,52.29 356.055,52.7386 356.31,53.0462 356.6789,53.296 356.916,53.3215 357.1441,53.2059"/>
    <line x1="357.785" x2="358.6499" y1="52.151" y2="54.6303"/>
    <polyline points="359.2676,53.1529 358.6499,54.6303 358.4386,55.0274 358.2099,55.1423 357.9725,55.1162 357.8494,55.0328"/>
    <polyline points="359.9385,54.4199 361.4245,55.4248 361.4074,55.1419 361.2664,54.775 361.1338,54.5497 360.8773,54.2405 360.5055,53.9893 360.2664,53.9635 360.0362,54.0792 359.9385,54.4199 359.9559,54.7026 360.1056,55.2101 360.3702,55.6598 360.6262,55.9684 360.9974,56.2197 361.2364,56.2462 361.4671,56.1314"/>
    <line x1="362.2421" x2="362.36" y1="55.1628" y2="57.1423"/>
    <polyline points="362.2927,56.012 362.3916,55.6715 362.6232,55.5562 362.8634,55.5826 363.2364,55.8346"/>
    <polyline points="366.9219,57.3695 365.7842,58.5092 367.657,59.776"/>
    <line x1="366.9219" x2="367.0872" y1="57.3695" y2="60.3428"/>
    <polygon points="338.9757,55.1735 349.1334,182.7162 469.313,275.4475 474.487,148.2501"/>
    <line x1="340.7957" x2="341.0283" y1="57.5204" y2="60.4939"/>
    <line x1="343.2099" x2="343.361" y1="60.1215" y2="62.1025"/>
    <polyline points="343.2423,60.5465 342.9744,60.0936 342.7173,59.7824 342.3482,59.5284 342.1131,59.5007 341.8891,59.6148 341.7992,59.9549 341.8211,60.2378 341.9768,60.7467 342.2442,61.1986 342.5007,61.5092 342.8693,61.7634 343.1043,61.7917 343.3287,61.6786"/>
    <line x1="343.9493" x2="344.8383" y1="60.6304" y2="63.1213"/>
    <polyline points="345.4305,61.6499 344.8383,63.1213 344.6344,63.5162 344.4095,63.6285 344.1741,63.5997 344.0511,63.5148"/>
    <polyline points="346.1114,62.9254 347.596,63.9481 347.5754,63.6648 347.4309,63.2961 347.2967,63.069 347.0386,62.7567 346.6672,62.5011 346.4301,62.4725 346.2036,62.5857 346.1114,62.9254 346.1324,63.2085 346.2873,63.7181 346.5552,64.1712 346.8128,64.4829 347.1836,64.7386 347.4206,64.7678 347.6475,64.6557"/>
    <line x1="348.4022" x2="348.5449" y1="63.6953" y2="65.6774"/>
    <polyline points="348.4634,64.5456 348.5568,64.206 348.7847,64.0934 349.0228,64.1225 349.3955,64.379"/>
    <polyline points="353.3152,66.1292 352.0658,65.2701 352.0292,66.4619 352.1441,66.406 352.5086,66.5217 352.8831,66.7795 353.2674,67.1793 353.5365,67.6349 353.6902,68.1462 353.7094,68.4295 353.6133,68.7682 353.383,68.8791 353.0185,68.7625 352.6447,68.5047 352.2612,68.1056 352.1269,67.8783 351.9829,67.5094"/>
    <line x1="353.1779" x2="353.1779" y1="256.0564" y2="264.1374"/>
    <polyline points="353.1779,259.9045 352.4083,259.1349 351.6387,258.7501 350.4843,258.7501 349.7146,259.1349 348.945,259.9045 348.5602,261.0589 348.5602,261.8286 348.945,262.983 349.7146,263.7526 350.4843,264.1374 351.6387,264.1374 352.4083,263.7526 353.1779,262.983"/>
    <polyline points="355.8716,261.0589 360.4894,261.0589 360.4894,260.2893 360.1046,259.5197 359.7198,259.1349 358.9501,258.7501 357.7957,258.7501 357.0261,259.1349 356.2564,259.9045 355.8716,261.0589 355.8716,261.8286 356.2564,262.983 357.0261,263.7526 357.7957,264.1374 358.9501,264.1374 359.7198,263.7526 360.4894,262.983"/>
    <line x1="363.1831" x2="363.1831" y1="256.0564" y2="264.1374"/>
    <polyline points="366.6464,256.0564 366.6464,262.5982 367.0312,263.7526 367.8008,264.1374 368.5704,264.1374"/>
    <line x1="365.4919" x2="368.1856" y1="258.7501" y2="258.7501"/>
    <line x1="375.1123" x2="375.1123" y1="258.7501" y2="264.1374"/>
    <polyline points="375.1123,259.9045 374.3426,259.1349 373.573,258.7501 372.4186,258.7501 371.6489,259.1349 370.8793,259.9045 370.4945,261.0589 370.4945,261.8286 370.8793,262.983 371.6489,263.7526 372.4186,264.1374 373.573,264.1374 374.3426,263.7526 375.1123,262.983"/>
    <line x1="376.6515" x2="383.5781" y1="266.8311" y2="266.8311"/>
    <line x1="388.9655" x2="384.7326" y1="258.7501" y2="264.1374"/>
    <line x1="384.7326" x2="388.9655" y1="258.7501" y2="258.7501"/>
    <line x1="384.7326" x2="388.9655" y1="264.1374" y2="264.1374"/>
    <line x1="397.8162" x2="404.7428" y1="259.5197" y2="259.5197"/>
    <line x1="397.8162" x2="404.7428" y1="261.8286" y2="261.8286"/>
    <polyline points="414.7479,257.5956 415.5176,257.2108 416.672,256.0564 416.672,264.1374"/>
    <polyline points="425.9075,259.9045 425.1379,259.1349 424.3682,258.7501 423.2138,258.7501 422.4442,259.1349 421.6746,259.9045 421.2897,261.0589 421.2897,261.8286 421.6746,262.983 422.4442,263.7526 423.2138,264.1374 424.3682,264.1374 425.1379,263.7526 425.9075,262.983"/>
    <line x1="428.6012" x2="428.6012" y1="258.7501" y2="264.1374"/>
    <polyline points="428.6012,260.2893 429.7556,259.1349 430.5252,258.7501 431.6797,258.7501 432.4493,259.1349 432.8341,260.2893 432.8341,264.1374"/>
    <polyline points="432.8341,260.2893 433.9886,259.1349 434.7582,258.7501 435.9126,258.7501 436.6822,259.1349 437.0671,260.2893 437.0671,264.1374"/>
    <line x1="595.1916" x2="595.1916" y1="256.0564" y2="264.1374"/>
    <polyline points="595.1916,259.9045 594.422,259.1349 593.6524,258.7501 592.4979,258.7501 591.7283,259.1349 590.9587,259.9045 590.5739,261.0589 590.5739,261.8286 590.9587,262.983 591.7283,263.7526 592.4979,264.1374 593.6524,264.1374 594.422,263.7526 595.1916,262.983"/>
    <polyline points="597.8853,261.0589 602.5031,261.0589 602.5031,260.2893 602.1182,259.5197 601.7334,259.1349 600.9638,258.7501 599.8094,258.7501 599.0397,259.1349 598.2701,259.9045 597.8853,261.0589 597.8853,261.8286 598.2701,262.983 599.0397,263.7526 599.8094,264.1374 600.9638,264.1374 601.7334,263.7526 602.5031,262.983"/>
    <line x1="605.1967" x2="605.1967" y1="256.0564" y2="264.1374"/>
    <polyline points="608.6601,256.0564 608.6601,262.5982 609.0449,263.7526 609.8145,264.1374 610.5841,264.1374"/>
    <line x1="607.5056" x2="610.1993" y1="258.7501" y2="258.7501"/>
    <line x1="617.1259" x2="617.1259" y1="258.7501" y2="264.1374"/>
    <polyline points="617.1259,259.9045 616.3563,259.1349 615.5867,258.7501 614.4322,258.7501 613.6626,259.1349 612.893,259.9045 612.5082,261.0589 612.5082,261.8286 612.893,262.983 613.6626,263.7526 614.4322,264.1374 615.5867,264.1374 616.3563,263.7526 617.1259,262.983"/>
    <line x1="618.6652" x2="625.5918" y1="266.8311" y2="266.8311"/>
    <line x1="630.9792" x2="626.7462" y1="258.7501" y2="264.1374"/>
    <line x1="626.7462" x2="630.9792" y1="258.7501" y2="258.7501"/>
    <line x1="626.7462" x2="630.9792" y1="264.1374" y2="264.1374"/>
    <line x1="639.8299" x2="646.7565" y1="259.5197" y2="259.5197"/>
    <line x1="639.8299" x2="646.7565" y1="261.8286" y2="261.8286"/>
    <polygon points="657.916,256.0564 656.7616,256.4412 655.992,257.5956 655.6072,259.5197 655.6072,260.6741 655.992,262.5982 656.7616,263.7526 657.916,264.1374 658.6857,264.1374 659.8401,263.7526 660.6097,262.5982 660.9945,260.6741 660.9945,259.5197 660.6097,257.5956 659.8401,256.4412 658.6857,256.0564"/>
    <polygon points="663.6882,262.2134 663.3034,262.5982 663.6882,262.983 664.073,262.5982"/>
    <polyline points="666.7667,257.9804 666.7667,257.5956 667.1515,256.826 667.5364,256.4412 668.306,256.0564 669.8452,256.0564 670.6149,256.4412 670.9997,256.826 671.3845,257.5956 671.3845,258.3652 670.9997,259.1349 670.23,260.2893 666.3819,264.1374 671.7693,264.1374"/>
    <polyline points="678.6959,259.9045 677.9263,259.1349 677.1567,258.7501 676.0022,258.7501 675.2326,259.1349 674.463,259.9045 674.0782,261.0589 674.0782,261.8286 674.463,262.983 675.2326,263.7526 676.0022,264.1374 677.1567,264.1374 677.9263,263.7526 678.6959,262.983"/>
    <line x1="681.3896" x2="681.3896" y1="258.7501" y2="264.1374"/>
    <polyline points="681.3896,260.2893 682.544,259.1349 683.3137,258.7501 684.4681,258.7501 685.2377,259.1349 685.6225,260.2893 685.6225,264.1374"/>
    <polyline points="685.6225,260.2893 686.777,259.1349 687.5466,258.7501 688.701,258.7501 689.4707,259.1349 689.8555,260.2893 689.8555,264.1374"/>
    <polygon points="593.5584,32.0006 600.3227,162.912 723.6838,254.5899 733.133,123.5567"/>
    <line x1="595.3982" x2="595.5516" y1="34.359" y2="37.4134"/>
    <line x1="597.8542" x2="597.9524" y1="36.9599" y2="38.995"/>
    <polyline points="597.8753,37.3966 597.6078,36.9388 597.3473,36.6266 596.9673,36.3768 596.7213,36.3559 596.4826,36.4805 596.3777,36.8336 596.3921,37.1243 596.54,37.6433 596.807,38.1001 597.067,38.4117 597.4463,38.6616 597.6923,38.6832 597.9314,38.5595"/>
    <line x1="598.6153" x2="599.4728" y1="37.4603" y2="39.9967"/>
    <polyline points="600.1399,38.4626 599.4728,39.9967 599.2466,40.4099 599.0069,40.5327 598.7605,40.5106 598.634,40.4271"/>
    <polyline points="600.8161,39.7542 602.3441,40.7597 602.3311,40.4687 602.1907,40.0936 602.0566,39.8641 601.7951,39.5508 601.4128,39.2995 601.1647,39.2776 600.9233,39.4014 600.8161,39.7542 600.8294,40.0451 600.9765,40.5648 601.2441,41.0228 601.505,41.3355 601.8867,41.587 602.1348,41.6095 602.3765,41.4867"/>
    <line x1="603.1987" x2="603.2879" y1="40.4736" y2="42.5101"/>
    <polyline points="603.2369,41.3472 603.3455,40.9945 603.5883,40.8712 603.8375,40.8936 604.2211,41.1458"/>
    <polyline points="607.151,42.6461 607.4021,42.6691 607.7702,42.4845 607.8926,45.5437"/>
    <polygon points="590.793,33.6733 597.875,164.6045 721.2377,256.5828 730.37,125.5687"/>
    <line x1="592.6354" x2="592.7962" y1="36.0362" y2="39.0916"/>
    <line x1="595.0936" x2="595.1967" y1="38.643" y2="40.6788"/>
    <polyline points="595.1157,39.0799 594.8475,38.6214 594.5867,38.3086 594.2068,38.0579 593.9611,38.0364 593.7232,38.1606 593.6193,38.5135 593.6344,38.8043 593.7834,39.3237 594.0511,39.7811 594.3114,40.0934 594.6907,40.3442 594.9363,40.3663 595.1746,40.2432"/>
    <line x1="595.8545" x2="596.7169" y1="39.1452" y2="41.684"/>
    <polyline points="597.3789,40.151 596.7169,41.684 596.4921,42.0968 596.2532,42.2192 596.0072,42.1965 595.8806,42.1127"/>
    <polyline points="598.0571,41.4444 599.585,42.4535 599.5713,42.1624 599.4301,41.7869 599.2957,41.5571 599.0339,41.2431 598.6517,40.9909 598.4039,40.9685 598.1633,41.0918 598.0571,41.4444 598.0712,41.7354 598.2193,42.2555 598.4876,42.7142 598.7488,43.0276 599.1305,43.2799 599.3781,43.303 599.6191,43.1807"/>
    <line x1="600.4373" x2="600.5315" y1="42.1691" y2="44.2063"/>
    <polyline points="600.4777,43.0431 600.5851,42.6906 600.8272,42.5678 601.0761,42.5907 601.4596,42.8437"/>
    <polyline points="604.1375,44.3274 604.1312,44.1814 604.247,43.9742 604.3692,43.9128 604.62,43.9362 605.1344,44.2753 605.3979,44.591 605.5327,44.8219 605.6737,45.1988 605.6859,45.4907 605.5695,45.6975 605.3308,45.9651 604.1099,46.5725 605.9058,47.76"/>
    <polygon points="588.0178,35.3518 595.4195,166.3023 718.7832,258.5825 727.5964,127.5886"/>
    <line x1="589.8628" x2="590.0311" y1="37.7193" y2="40.7757"/>
    <line x1="592.3231" x2="592.4312" y1="40.3321" y2="42.3686"/>
    <polyline points="592.3463,40.7691 592.0774,40.3099 591.8163,39.9965 591.4365,39.7449 591.1912,39.7229 590.954,39.8465 590.8513,40.1993 590.8671,40.4902 591.0171,41.01 591.2855,41.4682 591.5461,41.7811 591.9253,42.0328 592.1705,42.0554 592.4081,41.9328"/>
    <line x1="593.084" x2="593.9512" y1="40.836" y2="43.3773"/>
    <polyline points="594.6081,41.8455 593.9512,43.3773 593.7279,43.7897 593.4897,43.9116 593.2441,43.8884 593.1176,43.8043"/>
    <polyline points="595.2884,43.1406 596.816,44.1533 596.8016,43.8621 596.6597,43.4862 596.525,43.256 596.2629,42.9414 595.8807,42.6883 595.6333,42.6654 595.3935,42.7881 595.2884,43.1406 595.3032,43.4317 595.4524,43.9523 595.7213,44.4116 595.9829,44.7257 596.3644,44.9789 596.6117,45.0025 596.852,44.8807"/>
    <line x1="597.6661" x2="597.7653" y1="43.8707" y2="45.9086"/>
    <polyline points="597.7086,44.745 597.815,44.3926 598.0563,44.2703 598.3048,44.2938 598.6882,44.5477"/>
    <polyline points="601.4602,45.3924 602.8748,46.3283 602.1554,46.9856 602.5409,47.2409 602.8045,47.5571 602.9395,47.7881 603.0874,48.3105 603.1003,48.6018 602.9911,48.9533 602.7472,49.0738 602.3688,48.9638 601.984,48.7084 601.5929,48.3078 601.4581,48.0774 601.3166,47.7014"/>
    <polygon points="585.2327,37.0363 592.9563,168.0055 716.3204,260.589 724.8119,129.6163"/>
    <line x1="587.0804" x2="587.2562" y1="39.4084" y2="42.4658"/>
    <line x1="589.5428" x2="589.656" y1="42.0272" y2="44.0643"/>
    <polyline points="589.5671,42.4643 589.2976,42.0045 589.0361,41.6903 588.6563,41.4379 588.4115,41.4153 588.175,41.5385 588.0734,41.8911 588.0899,42.1821 588.241,42.7023 588.5101,43.1612 588.7709,43.4747 589.1501,43.7273 589.3949,43.7505 589.6318,43.6284"/>
    <line x1="590.3036" x2="591.1757" y1="42.5329" y2="45.0766"/>
    <polyline points="591.8275,43.5459 591.1757,45.0766 590.9539,45.4886 590.7164,45.6099 590.4713,45.5862 590.3447,45.5018"/>
    <polyline points="592.5098,44.8429 594.0372,45.8591 594.0221,45.5678 593.8795,45.1916 593.7445,44.961 593.482,44.6458 593.0999,44.3917 592.8529,44.3683 592.6138,44.4905 592.5098,44.8429 592.5253,45.134 592.6756,45.655 592.9452,46.1151 593.2071,46.4298 593.5886,46.6839 593.8355,46.708 594.075,46.5868"/>
    <line x1="594.885" x2="594.9892" y1="45.5784" y2="47.6169"/>
    <polyline points="594.9297,46.4529 595.035,46.1007 595.2755,45.9789 595.5236,46.0029 595.907,46.2578"/>
    <polyline points="599.7044,47.7917 598.5176,48.9811 600.4431,50.2624"/>
    <line x1="599.7044" x2="599.8487" y1="47.7917" y2="50.8539"/>
    <polygon points="582.4377,38.7268 590.4853,169.714 713.8491,262.6024 722.0167,131.6519"/>
    <line x1="584.2881" x2="584.4715" y1="41.1034" y2="44.1618"/>
    <line x1="586.7527" x2="586.8709" y1="43.7283" y2="45.766"/>
    <polyline points="586.778,44.1655 586.5078,43.705 586.246,43.3902 585.8663,43.1369 585.6218,43.1138 585.3861,43.2364 585.2856,43.5889 585.3029,43.8799 585.455,44.4007 585.7248,44.8602 585.986,45.1744 586.3651,45.4279 586.6095,45.4516 586.8456,45.33"/>
    <line x1="587.5133" x2="588.3904" y1="44.2358" y2="46.782"/>
    <polyline points="589.0369,45.2524 588.3904,46.782 588.17,47.1935 587.9333,47.3144 587.6886,47.2901 587.562,47.2054"/>
    <polyline points="589.7214,46.5512 591.2485,47.571 591.2327,47.2796 591.0894,46.903 590.954,46.6721 590.6912,46.3562 590.3091,46.1013 590.0626,46.0772 589.8243,46.199 589.7214,46.5512 589.7376,46.8424 589.8889,47.3638 590.1592,47.8246 590.4214,48.1399 590.8029,48.395 591.0493,48.4197 591.2881,48.2989"/>
    <line x1="592.094" x2="592.2033" y1="47.2922" y2="49.3313"/>
    <polyline points="592.1408,48.1669 592.245,47.8149 592.4848,47.6936 592.7325,47.7182 593.1159,47.974"/>
    <polyline points="597.1675,49.6882 595.882,48.8314 595.82,50.0603 595.9409,50.0 596.3186,50.111 596.7039,50.3681 597.0966,50.7713 597.3681,51.2347 597.5181,51.758 597.5324,52.0495 597.4255,52.4006 597.1831,52.5201 596.8055,52.4083 596.4208,52.1511 596.0291,51.7486 595.8936,51.5175 595.7508,51.1407"/>
  </g>
</svg>
