<?xml version="1.0" encoding="utf-8" ?>
<svg xmlns="http://www.w3.org/2000/svg" xmlns:cc="http://creativecommons.org/ns" xmlns:dc="http://purl.org/dc/elements/1.1/" xmlns:ev="http://www.w3.org/2001/xml-events" xmlns:inkscape="http://www.inkscape.org/namespaces/inkscape" xmlns:rdf="http://www.w3.org/1999/02/22-rdf-syntax-ns" xmlns:sodipodi="http://sodipodi.sourceforge.net/DTD/sodipodi-0.dtd" xmlns:xlink="http://www.w3.org/1999/xlink" baseProfile="tiny" height="8.0cm" version="1.2" viewBox="0 0 604.7244094488188 302.3622047244094" width="16.0cm">
  <metadata>
    <rdf:RDF>
      <cc:Work>
        <dc:format>image/svg+xml</dc:format>
        <dc:source>vpype -I figures/fig_protate.vpy write figures/fig_protate.svg
</dc:source>
        <dc:date>2022-03-31T12:27:46.615911</dc:date>
      </cc:Work>
    </rdf:RDF>
  </metadata>
  <defs/>
  <g fill="none" id="layer9" inkscape:groupmode="layer" inkscape:label="9" stroke="#0000ff" style="display:inline">
    <polygon points="149.4041,21.8601 147.6844,114.4571 235.7623,173.8485 247.7295,80.5533"/>
    <line x1="150.9166" x2="150.8452" y1="22.7792" y2="26.324"/>
    <line x1="153.7605" x2="153.7057" y1="25.6784" y2="28.04"/>
    <polyline points="153.7487,26.1854 153.4541,25.6666 153.1556,25.3167 152.7024,25.0457 152.3967,25.0342 152.0877,25.1916 151.9262,25.6077 151.919,25.9449 152.0588,26.5406 152.3527,27.0579 152.6503,27.4069 153.1024,27.6781 153.4078,27.6907 153.7174,27.535"/>
    <line x1="154.6689" x2="155.5194" y1="26.2216" y2="29.128"/>
    <polyline points="156.4898,27.3103 155.5194,29.128 155.2,29.6193 154.8895,29.7738 154.5835,29.7603 154.4325,29.6696"/>
    <polyline points="157.2229,28.7792 159.0495,29.873 159.0593,29.535 158.9165,29.1055 158.7688,28.8451 158.4686,28.4935 158.0114,28.2201 157.7021,28.2072 157.3886,28.3634 157.2229,28.7792 157.2138,29.1168 157.3521,29.7138 157.6467,30.233 157.946,30.5838 158.402,30.8573 158.7111,30.8714 159.0252,30.7168"/>
    <line x1="160.148" x2="160.0772" y1="29.4977" y2="31.8623"/>
    <polyline points="160.1176,30.5125 160.2856,30.0968 160.6017,29.9413 160.9129,29.955 161.3723,30.2297"/>
    <polyline points="164.9236,31.8338 165.238,31.8484 165.7192,31.6155 165.5918,35.1705"/>
    <polygon points="131.484,32.8831 131.484,125.6817 219.6664,186.7798 229.9534,93.4539"/>
    <line x1="132.9973" x2="132.9916" y1="33.83" y2="37.3875"/>
    <line x1="135.8639" x2="135.853" y1="36.7862" y2="39.1562"/>
    <polyline points="135.8616,37.2951 135.5606,36.7694 135.2589,36.4134 134.8055,36.1341 134.5029,36.1176 134.2001,36.2706 134.0479,36.6858 134.047,37.0242 134.1962,37.6245 134.4964,38.1485 134.7972,38.5036 135.2495,38.7831 135.5519,38.8007 135.8553,38.6493"/>
    <line x1="136.7727" x2="137.6673" y1="37.3461" y2="40.2776"/>
    <polyline points="138.5943,38.4685 137.6673,40.2776 137.3603,40.7656 137.056,40.9157 136.7529,40.8972 136.6019,40.8037"/>
    <polyline points="139.3464,39.9549 141.1739,41.0824 141.1774,40.7433 141.0283,40.3098 140.8774,40.046 140.5739,39.6882 140.1165,39.4064 139.8102,39.3884 139.5028,39.5401 139.3464,39.9549 139.3436,40.2937 139.4914,40.8952 139.7924,41.4212 140.0949,41.7781 140.5511,42.0601 140.8572,42.0792 141.1652,41.9292"/>
    <line x1="142.2541" x2="142.2271" y1="40.7234" y2="43.0961"/>
    <polyline points="142.2425,41.7417 142.4012,41.3271 142.7111,41.1761 143.0194,41.1949 143.479,41.4781"/>
    <polyline points="146.7118,43.1263 146.7145,42.9562 146.8743,42.7105 147.0314,42.6351 147.343,42.6546 147.9611,43.0348 148.2674,43.3956 148.419,43.6612 148.5675,44.097 148.5613,44.4375 148.4006,44.6824 148.0827,45.0018 146.5143,45.7461 148.6694,47.0781"/>
    <polygon points="113.0093,44.2473 114.8316,137.2195 203.0878,200.0988 211.581,106.7873"/>
    <line x1="114.5225" x2="114.5868" y1="45.2234" y2="48.7925"/>
    <line x1="117.4121" x2="117.4477" y1="48.2387" y2="50.6163"/>
    <polyline points="117.4198,48.7492 117.1121,48.2167 116.8071,47.8543 116.3538,47.5662 116.0546,47.5445 115.7585,47.6928 115.6163,48.1067 115.622,48.4462 115.7812,49.051 116.0881,49.5819 116.3921,49.9434 116.8443,50.2316 117.1433,50.2545 117.4401,50.1078"/>
    <line x1="118.3207" x2="119.2618" y1="48.8161" y2="51.7727"/>
    <polyline points="120.1422,49.9736 119.2618,51.7727 118.9682,52.257 118.6704,52.4024 118.3707,52.3785 118.2198,52.2822"/>
    <polyline points="120.9143,51.478 122.7418,52.6409 122.7386,52.3007 122.5828,51.8632 122.4286,51.5959 122.1218,51.2316 121.6644,50.9409 121.3614,50.9176 121.0607,51.0645 120.9143,51.478 120.9182,51.8179 121.0758,52.424 121.3835,52.9569 121.6893,53.3202 122.1456,53.6111 122.4483,53.6355 122.7497,53.4903"/>
    <line x1="123.802" x2="123.8216" y1="52.2993" y2="54.6794"/>
    <polyline points="123.8104,53.3209 123.9591,52.9076 124.2624,52.7615 124.5673,52.7857 125.027,53.0778"/>
    <polyline points="128.4048,54.0313 130.1051,55.1101 129.1805,55.8875 129.6436,56.1819 129.9529,56.5488 130.1076,56.8175 130.2628,57.4268 130.2633,57.7671 130.1097,58.1789 129.8018,58.3221 129.3399,58.1972 128.8781,57.9028 128.4161,57.4389 128.2617,57.1712 128.1067,56.7334"/>
    <polygon points="33.0146,93.4539 43.3016,186.7798 131.484,257.6246 131.484,164.9157"/>
    <line x1="34.5195" x2="34.9112" y1="94.561" y2="98.1658"/>
    <line x1="37.5007" x2="37.7545" y1="97.8373" y2="100.2378"/>
    <polyline points="37.5552,98.3528 37.2182,97.7906 36.8994,97.4003 36.4489,97.0729 36.1671,97.0266 35.9041,97.1521 35.8096,97.558 35.8465,97.9008 36.0515,98.5237 36.3875,99.084 36.7053,99.4732 37.1547,99.8007 37.4364,99.8482 37.7002,99.7245"/>
    <line x1="38.4039" x2="39.5578" y1="98.4936" y2="101.552"/>
    <polyline points="40.2146,99.8096 39.5578,101.552 39.3281,102.0163 39.0631,102.1384 38.7807,102.0899 38.6306,101.9804"/>
    <polyline points="41.0761,101.39 42.8934,102.7123 42.859,102.3689 42.6728,101.9149 42.5038,101.6327 42.1831,101.2402 41.7282,100.9096 41.4426,100.8613 41.1748,100.9849 41.0761,101.39 41.1112,101.733 41.3147,102.3571 41.6518,102.9196 41.9715,103.311 42.4252,103.6417 42.7107,103.6912 42.9793,103.5695"/>
    <line x1="43.8541" x2="44.0921" y1="102.4547" y2="104.8565"/>
    <polyline points="43.9563,103.4856 44.0573,103.081 44.3277,102.9585 44.6154,103.0079 45.0727,103.3402"/>
    <line x1="50.1701" x2="48.9701" y1="105.9193" y2="108.4114"/>
    <line x1="48.0166" x2="50.1701" y1="104.3564" y2="105.9193"/>
    <polygon points="11.3386,106.7873 24.0783,200.0988 112.1321,273.1717 109.6265,180.7783"/>
    <line x1="12.8389" x2="13.3263" y1="107.9314" y2="111.5415"/>
    <line x1="15.8428" x2="16.1603" y1="111.2796" y2="113.6835"/>
    <polyline points="15.911,111.7959 15.5659,111.2258 15.2435,110.8278 14.7944,110.4893 14.5182,110.4359 14.2653,110.5546 14.1849,110.9575 14.2309,111.3008 14.449,111.9281 14.7932,112.4962 15.1145,112.893 15.5625,113.2316 15.8386,113.2863 16.0925,113.1695"/>
    <line x1="16.7431" x2="17.958" y1="111.9583" y2="115.0422"/>
    <polyline points="18.5482,113.319 17.958,115.0422 17.7473,115.4999 17.4924,115.6151 17.2154,115.5594 17.0658,115.4462"/>
    <polyline points="19.4347,114.9194 21.2465,116.2867 21.2029,115.9429 21.008,115.4847 20.8349,115.1985 20.5105,114.7982 20.057,114.4564 19.777,114.4009 19.5193,114.5174 19.4347,114.9194 19.4789,115.2629 19.6956,115.8914 20.0409,116.4618 20.3642,116.8609 20.8165,117.2028 21.0966,117.2596 21.3551,117.145"/>
    <line x1="22.1765" x2="22.4784" y1="116.0541" y2="118.4589"/>
    <polyline points="22.3061,117.0864 22.393,116.6849 22.6533,116.5695 22.9355,116.6262 23.3914,116.9699"/>
    <polygon points="27.0602,118.6373 26.6214,118.464 26.51,118.6939 26.5517,119.0389 26.7463,119.4989 27.0731,119.9019 27.7062,120.5358 28.1865,121.0546 28.534,121.63 28.7282,122.0895 28.7894,122.6046 28.6771,122.832 28.5444,122.8878 28.106,122.7124 27.4948,122.2504 27.0161,121.7329 26.8428,121.4462 26.6487,120.9878 26.5863,120.4727 26.6975,120.2442 26.9616,120.1308 27.3999,120.3049 27.9921,120.5947 28.2782,120.6537 28.3906,120.4246 28.3495,120.0796 28.1549,119.6186 27.6737,119.0992"/>
    <line x1="147.4751" x2="147.4751" y1="274.0908" y2="280.5021"/>
    <polyline points="147.4751,275.0067 148.0857,274.3961 148.6963,274.0908 149.6122,274.0908 150.2228,274.3961 150.8334,275.0067 151.1387,275.9226 151.1387,276.5332 150.8334,277.4491 150.2228,278.0597 149.6122,278.365 148.6963,278.365 148.0857,278.0597 147.4751,277.4491"/>
    <line x1="153.2758" x2="153.2758" y1="274.0908" y2="278.365"/>
    <polyline points="153.2758,275.9226 153.5811,275.0067 154.1917,274.3961 154.8023,274.0908 155.7182,274.0908"/>
    <polygon points="158.4659,274.0908 157.8553,274.3961 157.2447,275.0067 156.9394,275.9226 156.9394,276.5332 157.2447,277.4491 157.8553,278.0597 158.4659,278.365 159.3818,278.365 159.9924,278.0597 160.603,277.4491 160.9083,276.5332 160.9083,275.9226 160.603,275.0067 159.9924,274.3961 159.3818,274.0908"/>
    <polyline points="163.3507,271.9537 163.3507,277.1438 163.656,278.0597 164.2666,278.365 164.8772,278.365"/>
    <line x1="162.4348" x2="164.5719" y1="274.0908" y2="274.0908"/>
    <line x1="170.0674" x2="170.0674" y1="274.0908" y2="278.365"/>
    <polyline points="170.0674,275.0067 169.4568,274.3961 168.8462,274.0908 167.9303,274.0908 167.3197,274.3961 166.7091,275.0067 166.4038,275.9226 166.4038,276.5332 166.7091,277.4491 167.3197,278.0597 167.9303,278.365 168.8462,278.365 169.4568,278.0597 170.0674,277.4491"/>
    <polyline points="172.8151,271.9537 172.8151,277.1438 173.1204,278.0597 173.731,278.365 174.3416,278.365"/>
    <line x1="171.8992" x2="174.0363" y1="274.0908" y2="274.0908"/>
    <polyline points="175.8681,275.9226 179.5317,275.9226 179.5317,275.312 179.2264,274.7014 178.9211,274.3961 178.3105,274.0908 177.3946,274.0908 176.784,274.3961 176.1734,275.0067 175.8681,275.9226 175.8681,276.5332 176.1734,277.4491 176.784,278.0597 177.3946,278.365 178.3105,278.365 178.9211,278.0597 179.5317,277.4491"/>
    <line x1="186.5536" x2="192.0491" y1="275.6173" y2="275.6173"/>
    <line x1="194.4915" x2="194.4915" y1="271.9537" y2="278.365"/>
    <polyline points="204.5664,271.9537 201.5134,276.2279 206.0929,276.2279"/>
    <line x1="204.5664" x2="204.5664" y1="271.9537" y2="278.365"/>
    <polyline points="208.2301,277.1438 207.9247,277.4491 207.6194,277.1438 207.9247,276.8385 208.2301,277.1438 208.2301,277.7544 207.6194,278.365"/>
    <polyline points="213.7255,271.9537 210.6725,271.9537 210.3672,274.7014 210.6725,274.3961 211.5884,274.0908 212.5043,274.0908 213.4202,274.3961 214.0308,275.0067 214.3361,275.9226 214.3361,276.5332 214.0308,277.4491 213.4202,278.0597 212.5043,278.365 211.5884,278.365 210.6725,278.0597 210.3672,277.7544 210.0619,277.1438"/>
    <polyline points="216.7785,277.1438 216.4732,277.4491 216.1679,277.1438 216.4732,276.8385 216.7785,277.1438 216.7785,277.7544 216.1679,278.365"/>
    <polyline points="222.5792,272.8696 222.2739,272.259 221.358,271.9537 220.7474,271.9537 219.8315,272.259 219.2209,273.1749 218.9156,274.7014 218.9156,276.2279 219.2209,277.4491 219.8315,278.0597 220.7474,278.365 221.0527,278.365 221.9686,278.0597 222.5792,277.4491 222.8845,276.5332 222.8845,276.2279 222.5792,275.312 221.9686,274.7014 221.0527,274.3961 220.7474,274.3961 219.8315,274.7014 219.2209,275.312 218.9156,276.2279"/>
    <line x1="229.2958" x2="231.1277" y1="274.0908" y2="278.365"/>
    <polyline points="232.9595,274.0908 231.1277,278.365 230.5171,279.5862 229.9065,280.1968 229.2958,280.5021 228.9905,280.5021"/>
    <polyline points="239.6761,273.4802 239.6761,273.1749 239.9814,272.5643 240.2867,272.259 240.8973,271.9537 242.1185,271.9537 242.7291,272.259 243.0344,272.5643 243.3397,273.1749 243.3397,273.7855 243.0344,274.3961 242.4238,275.312 239.3708,278.365 243.645,278.365"/>
    <polygon points="247.3086,271.9537 246.3927,272.259 245.7821,273.1749 245.4768,274.7014 245.4768,275.6173 245.7821,277.1438 246.3927,278.0597 247.3086,278.365 247.9192,278.365 248.8351,278.0597 249.4457,277.1438 249.751,275.6173 249.751,274.7014 249.4457,273.1749 248.8351,272.259 247.9192,271.9537"/>
    <polygon points="444.8012,21.8601 443.0816,114.4571 531.1594,173.8485 543.1267,80.5533"/>
    <line x1="446.3138" x2="446.2423" y1="22.7792" y2="26.324"/>
    <line x1="449.1576" x2="449.1029" y1="25.6784" y2="28.04"/>
    <polyline points="449.1459,26.1854 448.8513,25.6666 448.5528,25.3167 448.0995,25.0457 447.7939,25.0342 447.4849,25.1916 447.3233,25.6077 447.3161,25.9449 447.456,26.5406 447.7499,27.0579 448.0474,27.4069 448.4996,27.6781 448.805,27.6907 449.1146,27.535"/>
    <line x1="450.066" x2="450.9165" y1="26.2216" y2="29.128"/>
    <polyline points="451.8869,27.3103 450.9165,29.128 450.5972,29.6193 450.2867,29.7738 449.9806,29.7603 449.8297,29.6696"/>
    <polyline points="452.62,28.7792 454.4467,29.873 454.4564,29.535 454.3136,29.1055 454.1659,28.8451 453.8658,28.4935 453.4085,28.2201 453.0993,28.2072 452.7857,28.3634 452.62,28.7792 452.6109,29.1168 452.7492,29.7138 453.0439,30.233 453.3431,30.5838 453.7992,30.8573 454.1082,30.8714 454.4224,30.7168"/>
    <line x1="455.5452" x2="455.4743" y1="29.4977" y2="31.8623"/>
    <polyline points="455.5148,30.5125 455.6828,30.0968 455.9988,29.9413 456.31,29.955 456.7694,30.2297"/>
    <polyline points="460.3208,31.8338 460.6352,31.8484 461.1164,31.6155 460.989,35.1705"/>
    <polygon points="426.8812,32.8831 426.8812,125.6817 515.0636,186.7798 525.3506,93.4539"/>
    <line x1="428.3944" x2="428.3888" y1="33.83" y2="37.3875"/>
    <line x1="431.2611" x2="431.2502" y1="36.7862" y2="39.1562"/>
    <polyline points="431.2587,37.2951 430.9578,36.7694 430.656,36.4134 430.2027,36.1341 429.9,36.1176 429.5972,36.2706 429.445,36.6858 429.4441,37.0242 429.5933,37.6245 429.8936,38.1485 430.1944,38.5036 430.6466,38.7831 430.949,38.8007 431.2525,38.6493"/>
    <line x1="432.1698" x2="433.0644" y1="37.3461" y2="40.2776"/>
    <polyline points="433.9914,38.4685 433.0644,40.2776 432.7575,40.7656 432.4531,40.9157 432.15,40.8972 431.9991,40.8037"/>
    <polyline points="434.7436,39.9549 436.5711,41.0824 436.5746,40.7433 436.4254,40.3098 436.2745,40.046 435.9711,39.6882 435.5136,39.4064 435.2074,39.3884 434.9,39.5401 434.7436,39.9549 434.7408,40.2937 434.8885,40.8952 435.1895,41.4212 435.492,41.7781 435.9483,42.0601 436.2544,42.0792 436.5624,41.9292"/>
    <line x1="437.6513" x2="437.6243" y1="40.7234" y2="43.0961"/>
    <polyline points="437.6397,41.7417 437.7984,41.3271 438.1083,41.1761 438.4165,41.1949 438.8762,41.4781"/>
    <polyline points="442.1089,43.1263 442.1117,42.9562 442.2714,42.7105 442.4285,42.6351 442.7402,42.6546 443.3583,43.0348 443.6645,43.3956 443.8161,43.6612 443.9646,44.097 443.9585,44.4375 443.7978,44.6824 443.4799,45.0018 441.9115,45.7461 444.0665,47.0781"/>
    <polygon points="408.4064,44.2473 410.2288,137.2195 498.485,200.0988 506.9781,106.7873"/>
    <line x1="409.9197" x2="409.984" y1="45.2234" y2="48.7925"/>
    <line x1="412.8093" x2="412.8449" y1="48.2387" y2="50.6163"/>
    <polyline points="412.8169,48.7492 412.5093,48.2167 412.2043,47.8543 411.751,47.5662 411.4517,47.5445 411.1556,47.6928 411.0134,48.1067 411.0192,48.4462 411.1784,49.051 411.4852,49.5819 411.7893,49.9434 412.2414,50.2316 412.5405,50.2545 412.8373,50.1078"/>
    <line x1="413.7179" x2="414.659" y1="48.8161" y2="51.7727"/>
    <polyline points="415.5393,49.9736 414.659,51.7727 414.3653,52.257 414.0676,52.4024 413.7679,52.3785 413.6169,52.2822"/>
    <polyline points="416.3115,51.478 418.1389,52.6409 418.1357,52.3007 417.9799,51.8632 417.8257,51.5959 417.5189,51.2316 417.0615,50.9409 416.7586,50.9176 416.4579,51.0645 416.3115,51.478 416.3153,51.8179 416.473,52.424 416.7807,52.9569 417.0865,53.3202 417.5427,53.6111 417.8455,53.6355 418.1469,53.4903"/>
    <line x1="419.1992" x2="419.2187" y1="52.2993" y2="54.6794"/>
    <polyline points="419.2076,53.3209 419.3563,52.9076 419.6595,52.7615 419.9645,52.7857 420.4241,53.0778"/>
    <polyline points="423.802,54.0313 425.5023,55.1101 424.5776,55.8875 425.0408,56.1819 425.35,56.5488 425.5048,56.8175 425.66,57.4268 425.6604,57.7671 425.5068,58.1789 425.1989,58.3221 424.7371,58.1972 424.2752,57.9028 423.8132,57.4389 423.6589,57.1712 423.5039,56.7334"/>
    <polygon points="328.4117,93.4539 338.6987,186.7798 426.8812,257.6246 426.8812,164.9157"/>
    <line x1="329.9166" x2="330.3084" y1="94.561" y2="98.1658"/>
    <line x1="332.8978" x2="333.1516" y1="97.8373" y2="100.2378"/>
    <polyline points="332.9523,98.3528 332.6153,97.7906 332.2966,97.4003 331.846,97.0729 331.5643,97.0266 331.3013,97.1521 331.2068,97.558 331.2437,97.9008 331.4486,98.5237 331.7847,99.084 332.1024,99.4732 332.5518,99.8007 332.8335,99.8482 333.0974,99.7245"/>
    <line x1="333.801" x2="334.955" y1="98.4936" y2="101.552"/>
    <polyline points="335.6118,99.8096 334.955,101.552 334.7252,102.0163 334.4603,102.1384 334.1778,102.0899 334.0278,101.9804"/>
    <polyline points="336.4733,101.39 338.2906,102.7123 338.2562,102.3689 338.07,101.9149 337.901,101.6327 337.5802,101.2402 337.1253,100.9096 336.8398,100.8613 336.572,100.9849 336.4733,101.39 336.5083,101.733 336.7119,102.3571 337.049,102.9196 337.3686,103.311 337.8224,103.6417 338.1079,103.6912 338.3765,103.5695"/>
    <line x1="339.2513" x2="339.4893" y1="102.4547" y2="104.8565"/>
    <polyline points="339.3535,103.4856 339.4545,103.081 339.7249,102.9585 340.0126,103.0079 340.4698,103.3402"/>
    <line x1="345.5672" x2="344.3672" y1="105.9193" y2="108.4114"/>
    <line x1="343.4138" x2="345.5672" y1="104.3564" y2="105.9193"/>
    <polygon points="306.7357,106.7873 319.4754,200.0988 407.5292,273.1717 405.0237,180.7783"/>
    <line x1="308.2361" x2="308.7234" y1="107.9314" y2="111.5415"/>
    <line x1="311.24" x2="311.5575" y1="111.2796" y2="113.6835"/>
    <polyline points="311.3082,111.7959 310.963,111.2258 310.6406,110.8278 310.1916,110.4893 309.9153,110.4359 309.6624,110.5546 309.5821,110.9575 309.6281,111.3008 309.8462,111.9281 310.1903,112.4962 310.5116,112.893 310.9596,113.2316 311.2358,113.2863 311.4896,113.1695"/>
    <line x1="312.1403" x2="313.3551" y1="111.9583" y2="115.0422"/>
    <polyline points="313.9453,113.319 313.3551,115.0422 313.1445,115.4999 312.8895,115.6151 312.6126,115.5594 312.463,115.4462"/>
    <polyline points="314.8319,114.9194 316.6436,116.2867 316.6001,115.9429 316.4052,115.4847 316.2321,115.1985 315.9077,114.7982 315.4542,114.4564 315.1741,114.4009 314.9164,114.5174 314.8319,114.9194 314.876,115.2629 315.0928,115.8914 315.438,116.4618 315.7613,116.8609 316.2137,117.2028 316.4937,117.2596 316.7523,117.145"/>
    <line x1="317.5737" x2="317.8756" y1="116.0541" y2="118.4589"/>
    <polyline points="317.7033,117.0864 317.7901,116.6849 318.0505,116.5695 318.3327,116.6262 318.7885,116.9699"/>
    <polygon points="322.4573,118.6373 322.0185,118.464 321.9072,118.6939 321.9489,119.0389 322.1435,119.4989 322.4703,119.9019 323.1034,120.5358 323.5836,121.0546 323.9312,121.63 324.1254,122.0895 324.1866,122.6046 324.0742,122.832 323.9416,122.8878 323.5031,122.7124 322.8919,122.2504 322.4133,121.7329 322.24,121.4462 322.0459,120.9878 321.9835,120.4727 322.0946,120.2442 322.3588,120.1308 322.7971,120.3049 323.3892,120.5947 323.6754,120.6537 323.7878,120.4246 323.7467,120.0796 323.552,119.6186 323.0708,119.0992"/>
    <line x1="442.8722" x2="442.8722" y1="274.0908" y2="280.5021"/>
    <polyline points="442.8722,275.0067 443.4828,274.3961 444.0934,274.0908 445.0093,274.0908 445.6199,274.3961 446.2305,275.0067 446.5358,275.9226 446.5358,276.5332 446.2305,277.4491 445.6199,278.0597 445.0093,278.365 444.0934,278.365 443.4828,278.0597 442.8722,277.4491"/>
    <line x1="448.673" x2="448.673" y1="274.0908" y2="278.365"/>
    <polyline points="448.673,275.9226 448.9783,275.0067 449.5889,274.3961 450.1995,274.0908 451.1154,274.0908"/>
    <polygon points="453.8631,274.0908 453.2525,274.3961 452.6419,275.0067 452.3366,275.9226 452.3366,276.5332 452.6419,277.4491 453.2525,278.0597 453.8631,278.365 454.779,278.365 455.3896,278.0597 456.0002,277.4491 456.3055,276.5332 456.3055,275.9226 456.0002,275.0067 455.3896,274.3961 454.779,274.0908"/>
    <polyline points="458.7479,271.9537 458.7479,277.1438 459.0532,278.0597 459.6638,278.365 460.2744,278.365"/>
    <line x1="457.832" x2="459.9691" y1="274.0908" y2="274.0908"/>
    <line x1="465.4645" x2="465.4645" y1="274.0908" y2="278.365"/>
    <polyline points="465.4645,275.0067 464.8539,274.3961 464.2433,274.0908 463.3274,274.0908 462.7168,274.3961 462.1062,275.0067 461.8009,275.9226 461.8009,276.5332 462.1062,277.4491 462.7168,278.0597 463.3274,278.365 464.2433,278.365 464.8539,278.0597 465.4645,277.4491"/>
    <polyline points="468.2122,271.9537 468.2122,277.1438 468.5175,278.0597 469.1281,278.365 469.7387,278.365"/>
    <line x1="467.2963" x2="469.4334" y1="274.0908" y2="274.0908"/>
    <polyline points="471.2653,275.9226 474.9289,275.9226 474.9289,275.312 474.6236,274.7014 474.3183,274.3961 473.7077,274.0908 472.7918,274.0908 472.1812,274.3961 471.5706,275.0067 471.2653,275.9226 471.2653,276.5332 471.5706,277.4491 472.1812,278.0597 472.7918,278.365 473.7077,278.365 474.3183,278.0597 474.9289,277.4491"/>
    <line x1="481.9508" x2="487.4462" y1="275.6173" y2="275.6173"/>
    <line x1="489.8886" x2="489.8886" y1="271.9537" y2="278.365"/>
    <polyline points="499.9636,271.9537 496.9106,276.2279 501.4901,276.2279"/>
    <line x1="499.9636" x2="499.9636" y1="271.9537" y2="278.365"/>
    <polyline points="503.6272,277.1438 503.3219,277.4491 503.0166,277.1438 503.3219,276.8385 503.6272,277.1438 503.6272,277.7544 503.0166,278.365"/>
    <polyline points="509.1226,271.9537 506.0696,271.9537 505.7643,274.7014 506.0696,274.3961 506.9855,274.0908 507.9014,274.0908 508.8173,274.3961 509.4279,275.0067 509.7332,275.9226 509.7332,276.5332 509.4279,277.4491 508.8173,278.0597 507.9014,278.365 506.9855,278.365 506.0696,278.0597 505.7643,277.7544 505.459,277.1438"/>
    <polyline points="512.1756,277.1438 511.8703,277.4491 511.565,277.1438 511.8703,276.8385 512.1756,277.1438 512.1756,277.7544 511.565,278.365"/>
    <polyline points="517.9764,272.8696 517.6711,272.259 516.7552,271.9537 516.1446,271.9537 515.2287,272.259 514.6181,273.1749 514.3128,274.7014 514.3128,276.2279 514.6181,277.4491 515.2287,278.0597 516.1446,278.365 516.4499,278.365 517.3658,278.0597 517.9764,277.4491 518.2817,276.5332 518.2817,276.2279 517.9764,275.312 517.3658,274.7014 516.4499,274.3961 516.1446,274.3961 515.2287,274.7014 514.6181,275.312 514.3128,276.2279"/>
    <line x1="525.3036" x2="530.799" y1="275.6173" y2="275.6173"/>
    <polygon points="534.4627,274.0908 533.852,274.3961 533.2414,275.0067 532.9361,275.9226 532.9361,276.5332 533.2414,277.4491 533.852,278.0597 534.4627,278.365 535.3786,278.365 535.9892,278.0597 536.5998,277.4491 536.9051,276.5332 536.9051,275.9226 536.5998,275.0067 535.9892,274.3961 535.3786,274.0908"/>
    <line x1="543.6217" x2="544.8429" y1="274.0908" y2="278.365"/>
    <line x1="546.0641" x2="544.8429" y1="274.0908" y2="278.365"/>
    <line x1="546.0641" x2="547.2853" y1="274.0908" y2="278.365"/>
    <line x1="548.5065" x2="547.2853" y1="274.0908" y2="278.365"/>
    <polygon points="551.8648,274.0908 551.2542,274.3961 550.6436,275.0067 550.3383,275.9226 550.3383,276.5332 550.6436,277.4491 551.2542,278.0597 551.8648,278.365 552.7807,278.365 553.3913,278.0597 554.0019,277.4491 554.3072,276.5332 554.3072,275.9226 554.0019,275.0067 553.3913,274.3961 552.7807,274.0908"/>
    <line x1="556.4444" x2="556.4444" y1="274.0908" y2="278.365"/>
    <polyline points="556.4444,275.9226 556.7497,275.0067 557.3603,274.3961 557.9709,274.0908 558.8868,274.0908"/>
    <line x1="560.4133" x2="560.4133" y1="271.9537" y2="278.365"/>
    <line x1="566.214" x2="566.214" y1="271.9537" y2="278.365"/>
    <polyline points="566.214,275.0067 565.6034,274.3961 564.9928,274.0908 564.0769,274.0908 563.4663,274.3961 562.8557,275.0067 562.5504,275.9226 562.5504,276.5332 562.8557,277.4491 563.4663,278.0597 564.0769,278.365 564.9928,278.365 565.6034,278.0597 566.214,277.4491"/>
    <line x1="572.9306" x2="574.7624" y1="274.0908" y2="278.365"/>
    <polyline points="576.5942,274.0908 574.7624,278.365 574.1518,279.5862 573.5412,280.1968 572.9306,280.5021 572.6253,280.5021"/>
    <polyline points="583.3109,273.4802 583.3109,273.1749 583.6162,272.5643 583.9215,272.259 584.5321,271.9537 585.7533,271.9537 586.3639,272.259 586.6692,272.5643 586.9745,273.1749 586.9745,273.7855 586.6692,274.3961 586.0586,275.312 583.0056,278.365 587.2798,278.365"/>
    <polygon points="590.9434,271.9537 590.0275,272.259 589.4169,273.1749 589.1116,274.7014 589.1116,275.6173 589.4169,277.1438 590.0275,278.0597 590.9434,278.365 591.554,278.365 592.4699,278.0597 593.0805,277.1438 593.3858,275.6173 593.3858,274.7014 593.0805,273.1749 592.4699,272.259 591.554,271.9537"/>
  </g>
  <g fill="none" id="layer10" inkscape:groupmode="layer" inkscape:label="10" stroke="#008800" style="display:inline">
    <polygon points="79.9225,68.1362 85.1549,161.3605 197.7884,200.0202 205.6522,106.7084"/>
    <line x1="81.9142" x2="82.108" y1="68.7632" y2="72.3524"/>
    <line x1="85.7475" x2="85.8669" y1="71.1207" y2="73.5109"/>
    <polyline points="85.7731,71.6339 85.3589,71.1698 84.9532,70.8766 84.3578,70.6937 83.9699,70.7429 83.5912,70.9631 83.4199,71.4147 83.4379,71.7561 83.6626,72.3287 84.0761,72.7914 84.4807,73.0837 85.0746,73.2667 85.4621,73.2185 85.8414,72.9998"/>
    <line x1="86.9399" x2="88.2467" y1="71.4871" y2="74.2444"/>
    <polyline points="89.3281,72.2209 88.2467,74.2444 87.8823,74.8028 87.5022,75.0204 87.1142,75.068 86.9161,75.0069"/>
    <polyline points="90.3707,73.5532 92.7628,74.2892 92.7482,73.9473 92.5341,73.5438 92.3271,73.3113 91.9205,73.0174 91.3218,72.8334 90.9304,72.882 90.5469,73.1017 90.3707,73.5532 90.3861,73.8948 90.6081,74.4679 91.0213,74.9315 91.4268,75.2245 92.024,75.4085 92.415,75.3609 92.799,75.1427"/>
    <line x1="94.1182" x2="94.216" y1="73.6927" y2="76.0841"/>
    <polyline points="94.1602,74.7191 94.3391,74.2676 94.7251,74.0483 95.1184,74.0 95.7189,74.1845"/>
    <polyline points="101.7006,74.8335 99.7714,76.6146 102.7839,77.5416"/>
    <line x1="101.7006" x2="101.818" y1="74.8335" y2="78.427"/>
    <polygon points="59.7095,80.6271 67.0992,173.9227 180.6259,213.7424 186.5536,120.494"/>
    <line x1="61.7176" x2="61.9948" y1="81.2741" y2="84.8717"/>
    <line x1="65.6092" x2="65.784" y1="83.6723" y2="86.068"/>
    <polyline points="65.6468,84.1868 65.2214,83.7178 64.8085,83.4203 64.2083,83.2313 63.8211,83.277 63.4472,83.4939 63.2862,83.9448 63.3121,84.287 63.5503,84.8627 63.9749,85.3302 64.3866,85.6269 64.9853,85.8159 65.3721,85.7712 65.7466,85.5557"/>
    <line x1="66.8113" x2="68.1831" y1="84.0507" y2="86.8255"/>
    <polyline points="69.219,84.8086 68.1831,86.8255 67.8312,87.3813 67.4557,87.5957 67.0684,87.6397 66.8688,87.5766"/>
    <polyline points="70.2934,86.1533 72.705,86.9134 72.6826,86.5708 72.4589,86.1645 72.2464,85.9296 71.8325,85.6313 71.2289,85.4413 70.8382,85.4862 70.4594,85.7026 70.2934,86.1533 70.3167,86.4956 70.5521,87.0719 70.9764,87.5402 71.3891,87.8376 71.9911,88.0277 72.3814,87.9837 72.7608,87.7688"/>
    <line x1="74.0482" x2="74.2011" y1="86.3287" y2="88.7254"/>
    <polyline points="74.1139,87.3574 74.2826,86.9069 74.6641,86.6908 75.0567,86.6462 75.6622,86.8367"/>
    <polyline points="82.0725,87.6718 80.0423,87.0337 79.9283,88.5167 80.121,88.4089 80.7191,88.4285 81.3273,88.62 81.9452,88.9832 82.3698,89.4541 82.6006,90.0323 82.6193,90.3748 82.4448,90.8242 82.0586,91.0383 81.4611,91.0175 80.8545,90.826 80.2385,90.4638 80.0266,90.2291 79.8048,89.8234"/>
    <polygon points="38.8295,93.5302 48.5099,186.8561 162.9327,227.8888 166.792,134.7581"/>
    <line x1="40.8541" x2="41.22" y1="94.1982" y2="97.8028"/>
    <line x1="44.8058" x2="45.0395" y1="96.6386" y2="99.0388"/>
    <polyline points="44.856,97.154 44.4189,96.6802 43.9986,96.3781 43.3936,96.1829 43.0075,96.2247 42.6387,96.4381 42.4889,96.8879 42.5231,97.2307 42.7756,97.8095 43.2118,98.2818 43.631,98.583 44.2344,98.7782 44.6202,98.7375 44.9895,98.5255"/>
    <line x1="46.0175" x2="47.4579" y1="97.0296" y2="99.8214"/>
    <polyline points="48.4446,97.8127 47.4579,99.8214 47.1195,100.3743 46.7492,100.5851 46.3629,100.6252 46.1617,100.56"/>
    <polyline points="49.5524,99.1699 51.9835,99.9553 51.9528,99.6121 51.719,99.2031 51.5007,98.9657 51.0793,98.6628 50.4708,98.4665 50.0811,98.5076 49.7074,98.7204 49.5524,99.1699 49.5841,99.5129 49.8337,100.0922 50.2696,100.5653 50.6898,100.8672 51.2967,101.0636 51.6861,101.0236 52.0603,100.8123"/>
    <line x1="53.3131" x2="53.5246" y1="99.3836" y2="101.7846"/>
    <polyline points="53.4039,100.4142 53.5617,99.9648 53.938,99.7523 54.3298,99.7117 54.9402,99.9086"/>
    <polyline points="61.6201,101.3929 61.3881,100.9822 60.76,100.6118 60.3506,100.4799 59.7506,100.4545 59.3836,100.8396 59.2495,101.6339 59.3195,102.4924 59.5793,103.2439 60.0147,103.7182 60.6401,104.0872 60.844,104.1532 61.4423,104.1801 61.8235,103.9697 61.9872,103.5216 61.9737,103.3501 61.7287,102.7691 61.2926,102.2934 60.6655,101.9235 60.4611,101.8576 59.8621,101.8316 59.4816,102.0434 59.3195,102.4924"/>
    <polygon points="397.9421,78.6663 400.9149,171.9534 515.9181,211.5901 526.6299,118.3284"/>
    <line x1="399.9789" x2="400.0855" y1="79.3101" y2="82.9065"/>
    <line x1="403.8691" x2="403.93" y1="81.7019" y2="84.0968"/>
    <polyline points="403.8822,82.2162 403.4672,81.748 403.0566,81.4511 402.4476,81.2632 402.0465,81.3094 401.6504,81.5268 401.4621,81.9779 401.4717,82.3199 401.6885,82.8952 402.1028,83.3619 402.5122,83.6579 403.1196,83.8459 403.5203,83.8007 403.9169,83.5847"/>
    <line x1="405.0888" x2="406.3641" y1="82.0784" y2="84.8505"/>
    <polyline points="407.5316,82.8325 406.3641,84.8505 405.9739,85.4068 405.5764,85.6217 405.1752,85.6663 404.9726,85.6035"/>
    <polyline points="408.5717,84.1753 411.0185,84.9316 411.0125,84.5891 410.8022,84.1832 410.5949,83.9487 410.1834,83.651 409.5709,83.462 409.1662,83.5075 408.7651,83.7245 408.5717,84.1753 408.5787,84.5175 408.7926,85.0933 409.2064,85.5609 409.6168,85.8576 410.2277,86.0467 410.632,86.0021 411.0335,85.7867"/>
    <line x1="412.4315" x2="412.4699" y1="84.345" y2="86.7409"/>
    <polyline points="412.448,85.3734 412.6442,84.9226 413.0479,84.706 413.4547,84.6608 414.069,84.8505"/>
    <polyline points="420.2195,85.5485 418.1836,87.3169 421.2654,88.2696"/>
    <line x1="420.2195" x2="420.2461" y1="85.5485" y2="89.1486"/>
    <polygon points="385.5325,95.1974 389.8607,188.5241 506.6353,229.7146 516.4441,136.603"/>
    <line x1="387.6025" x2="387.7615" y1="95.8682" y2="99.4736"/>
    <line x1="391.5728" x2="391.6682" y1="98.314" y2="100.7147"/>
    <polyline points="391.5933,98.8296 391.1668,98.3552 390.7471,98.0525 390.1282,97.8565 389.723,97.8977 389.3253,98.1107 389.1412,98.5603 389.1557,98.9032 389.3832,99.4824 389.809,99.9553 390.2275,100.257 390.8447,100.4531 391.2495,100.4129 391.6478,100.2014"/>
    <line x1="392.8123" x2="394.1418" y1="98.7067" y2="101.5006"/>
    <polyline points="395.295,99.4931 394.1418,101.5006 393.7548,102.0531 393.3556,102.2634 392.9503,102.303 392.7444,102.2375"/>
    <polyline points="396.3664,100.8519 398.8532,101.6406 398.8423,101.2973 398.6238,100.8879 398.4108,100.6503 397.9901,100.3468 397.3677,100.1497 396.9587,100.1902 396.5558,100.4025 396.3664,100.8519 396.3782,101.1949 396.6028,101.7746 397.0281,102.2483 397.4476,102.5509 398.0684,102.7481 398.4769,102.7085 398.8803,102.4977"/>
    <line x1="400.2751" x2="400.3472" y1="101.0706" y2="103.4721"/>
    <polyline points="400.306,102.1014 400.4984,101.6522 400.904,101.4402 401.3151,101.4001 401.9395,101.5978"/>
    <polyline points="408.594,102.5077 406.5,101.8454 406.3269,103.329 406.5318,103.2233 407.1548,103.2499 407.7821,103.4486 408.4133,103.8194 408.8388,104.2958 409.0584,104.8774 409.0653,105.2205 408.8668,105.6685 408.4563,105.8784 407.834,105.8507 407.2084,105.6519 406.5792,105.2821 406.3668,105.0447 406.1504,104.6359"/>
    <polygon points="372.5856,112.4444 378.3789,205.7358 496.9764,248.5733 505.7939,155.711"/>
    <line x1="374.6898" x2="374.9056" y1="113.1438" y2="116.7556"/>
    <line x1="378.7435" x2="378.8764" y1="115.6462" y2="118.0509"/>
    <polyline points="378.772,116.1626 378.3334,115.6819 377.9042,115.3732 377.2751,115.1686 376.8658,115.2044 376.4667,115.4123 376.2873,115.8599 376.3073,116.2034 376.5462,116.7863 376.9841,117.2655 377.412,117.5732 378.0394,117.7779 378.4483,117.7431 378.848,117.5368"/>
    <line x1="380.0035" x2="381.3907" y1="116.0561" y2="118.8712"/>
    <polyline points="382.5272,116.877 381.3907,118.8712 381.0075,119.419 380.6068,119.6242 380.1974,119.6583 379.9882,119.5899"/>
    <polyline points="383.6316,118.2519 386.1596,119.0752 386.1435,118.7313 385.9163,118.3185 385.6972,118.0777 385.267,117.7682 384.6342,117.5623 384.2209,117.5974 383.8166,117.8045 383.6316,118.2519 383.6488,118.5954 383.8847,119.1788 384.3221,119.6589 384.7511,119.9674 385.3821,120.1733 385.7949,120.1392 386.1999,119.9336"/>
    <line x1="387.5899" x2="387.6987" y1="118.5238" y2="120.929"/>
    <polyline points="387.6366,119.5562 387.8245,119.1091 388.2318,118.9023 388.6472,118.8677 389.282,119.0742"/>
    <polyline points="396.2615,120.6627 396.0363,120.2481 395.391,119.8678 394.9651,119.7295 394.3331,119.6948 393.9273,120.0744 393.7477,120.867 393.7806,121.7269 394.0189,122.4828 394.4558,122.964 395.0981,123.3428 395.3102,123.412 395.9404,123.4482 396.3528,123.2437 396.5471,122.798 396.5411,122.6262 396.3103,122.0411 395.8727,121.5585 395.2285,121.1787 395.0159,121.1096 394.3848,121.0743 393.9731,121.2803 393.7806,121.7269"/>
  </g>
</svg>
