<svg xmlns="http://www.w3.org/2000/svg" xmlns:cc="http://creativecommons.org/ns" xmlns:ev="http://www.w3.org/2001/xml-events" xmlns:rdf="http://www.w3.org/1999/02/22-rdf-syntax-ns" xmlns:xlink="http://www.w3.org/1999/xlink" width="20cm" height="10cm" baseProfile="tiny" version="1.2" viewBox="0 0 755.906 377.953"><metadata><rdf:RDF><cc:Work/></rdf:RDF></metadata><g id="layer2" fill="none" stroke="#000" style="display:inline"><line x1="636.683" x2="636.683" y1="344.159" y2="352.755"/><polyline points="636.683 348.252 635.864 347.433 635.045 347.024 633.817 347.024 632.998 347.433 632.179 348.252 631.77 349.48 631.77 350.299 632.179 351.527 632.998 352.346 633.817 352.755 635.045 352.755 635.864 352.346 636.683 351.527"/><polyline points="639.548 349.48 644.461 349.48 644.461 348.662 644.051 347.843 643.642 347.433 642.823 347.024 641.595 347.024 640.776 347.433 639.958 348.252 639.548 349.48 639.548 350.299 639.958 351.527 640.776 352.346 641.595 352.755 642.823 352.755 643.642 352.346 644.461 351.527"/><line x1="647.326" x2="647.326" y1="344.159" y2="352.755"/><polyline points="651.011 344.159 651.011 351.118 651.42 352.346 652.239 352.755 653.058 352.755"/><line x1="649.783" x2="652.648" y1="347.024" y2="347.024"/><line x1="660.017" x2="660.017" y1="347.024" y2="352.755"/><polyline points="660.017 348.252 659.198 347.433 658.38 347.024 657.151 347.024 656.333 347.433 655.514 348.252 655.105 349.48 655.105 350.299 655.514 351.527 656.333 352.346 657.151 352.755 658.38 352.755 659.198 352.346 660.017 351.527"/><line x1="661.654" x2="669.023" y1="355.621" y2="355.621"/><line x1="674.755" x2="670.251" y1="347.024" y2="352.755"/><line x1="670.251" x2="674.755" y1="347.024" y2="347.024"/><line x1="670.251" x2="674.755" y1="352.755" y2="352.755"/><polyline points="146.682 344.159 145.863 344.159 145.044 344.568 144.635 345.796 144.635 352.755"/><line x1="143.407" x2="146.272" y1="347.024" y2="347.024"/><polygon points="150.775 347.024 149.957 347.433 149.138 348.252 148.728 349.48 148.728 350.299 149.138 351.527 149.957 352.346 150.775 352.755 152.004 352.755 152.822 352.346 153.641 351.527 154.05 350.299 154.05 349.48 153.641 348.252 152.822 347.433 152.004 347.024"/><polyline points="161.419 348.252 160.6 347.433 159.782 347.024 158.554 347.024 157.735 347.433 156.916 348.252 156.507 349.48 156.507 350.299 156.916 351.527 157.735 352.346 158.554 352.755 159.782 352.755 160.6 352.346 161.419 351.527"/><line x1="168.788" x2="168.788" y1="347.024" y2="352.755"/><polyline points="168.788 348.252 167.969 347.433 167.15 347.024 165.922 347.024 165.103 347.433 164.285 348.252 163.875 349.48 163.875 350.299 164.285 351.527 165.103 352.346 165.922 352.755 167.15 352.755 167.969 352.346 168.788 351.527"/><line x1="172.063" x2="172.063" y1="344.159" y2="352.755"/></g><g id="layer5" fill="none" stroke="#ddd" style="display:inline"><line x1="638.281" x2="638.281" y1="329.816" y2="338.068"/><line x1="638.281" x2="665.788" y1="338.068" y2="338.068"/><line x1="665.788" x2="665.788" y1="338.068" y2="329.816"/><line x1="60.643" x2="60.643" y1="329.816" y2="338.068"/><line x1="60.643" x2="253.189" y1="338.068" y2="338.068"/><line x1="253.189" x2="253.189" y1="338.068" y2="329.816"/><line x1="60.643" x2="665.788" y1="178.53" y2="40.998"/><line x1="60.643" x2="638.281" y1="178.53" y2="40.998"/><line x1="60.643" x2="665.788" y1="178.53" y2="316.063"/><line x1="60.643" x2="638.281" y1="178.53" y2="316.063"/><line x1="60.643" x2="665.788" y1="178.53" y2="178.53"/></g><g id="layer9" fill="none" stroke="#00f" style="display:inline"><line x1="253.189" x2="60.643" y1="40.998" y2="178.53"/><line x1="253.189" x2="60.643" y1="316.063" y2="178.53"/><polyline points="16.251 177.712 15.432 176.893 14.614 176.483 13.386 176.483 12.567 176.893 11.748 177.712 11.339 178.94 11.339 179.758 11.748 180.987 12.567 181.805 13.386 182.215 14.614 182.215 15.432 181.805 16.251 180.987"/><line x1="23.62" x2="23.62" y1="176.483" y2="182.215"/><polyline points="23.62 177.712 22.801 176.893 21.982 176.483 20.754 176.483 19.936 176.893 19.117 177.712 18.707 178.94 18.707 179.758 19.117 180.987 19.936 181.805 20.754 182.215 21.982 182.215 22.801 181.805 23.62 180.987"/><line x1="26.895" x2="26.895" y1="176.483" y2="182.215"/><polyline points="26.895 178.121 28.123 176.893 28.942 176.483 30.17 176.483 30.989 176.893 31.398 178.121 31.398 182.215"/><polyline points="31.398 178.121 32.626 176.893 33.445 176.483 34.673 176.483 35.492 176.893 35.901 178.121 35.901 182.215"/><polyline points="38.767 178.94 43.679 178.94 43.679 178.121 43.27 177.302 42.861 176.893 42.042 176.483 40.814 176.483 39.995 176.893 39.176 177.712 38.767 178.94 38.767 179.758 39.176 180.987 39.995 181.805 40.814 182.215 42.042 182.215 42.861 181.805 43.679 180.987"/><line x1="46.545" x2="46.545" y1="176.483" y2="182.215"/><polyline points="46.545 178.94 46.954 177.712 47.773 176.893 48.592 176.483 49.82 176.483"/><line x1="56.37" x2="56.37" y1="176.483" y2="182.215"/><polyline points="56.37 177.712 55.551 176.893 54.732 176.483 53.504 176.483 52.685 176.893 51.867 177.712 51.457 178.94 51.457 179.758 51.867 180.987 52.685 181.805 53.504 182.215 54.732 182.215 55.551 181.805 56.37 180.987"/><polyline points="83.037 194.504 84.455 192.3 85.658 189.971 86.633 187.538 87.372 185.023 87.869 182.45 88.118 179.841 88.118 177.22 87.869 174.611 87.372 172.037 86.633 169.523 85.658 167.09 84.455 164.761 83.037 162.557"/><line x1="95.288" x2="95.288" y1="173.618" y2="182.215"/><polyline points="95.288 178.121 96.516 176.893 97.335 176.483 98.563 176.483 99.382 176.893 99.791 178.121 99.791 182.215"/><polyline points="105.523 173.618 104.704 173.618 103.885 174.027 103.476 175.255 103.476 182.215"/><line x1="102.248" x2="105.113" y1="176.483" y2="176.483"/><polygon points="109.617 176.483 108.798 176.893 107.979 177.712 107.57 178.94 107.57 179.758 107.979 180.987 108.798 181.805 109.617 182.215 110.845 182.215 111.663 181.805 112.482 180.987 112.891 179.758 112.891 178.94 112.482 177.712 111.663 176.893 110.845 176.483"/><line x1="114.938" x2="117.395" y1="176.483" y2="182.215"/><line x1="119.851" x2="117.395" y1="176.483" y2="182.215"/></g><g id="layer10" fill="none" stroke="#000" style="display:inline"><line x1="253.189" x2="253.189" y1="40.998" y2="316.063"/><line x1="233.539" x2="233.539" y1="22.332" y2="30.929"/><line x1="241.317" x2="241.317" y1="25.197" y2="30.929"/><polyline points="241.317 26.425 240.498 25.607 239.68 25.197 238.452 25.197 237.633 25.607 236.814 26.425 236.405 27.654 236.405 28.472 236.814 29.701 237.633 30.519 238.452 30.929 239.68 30.929 240.498 30.519 241.317 29.701"/><line x1="243.773" x2="246.23" y1="25.197" y2="30.929"/><polyline points="248.686 25.197 246.23 30.929 245.411 32.566 244.592 33.385 243.773 33.794 243.364 33.794"/><polyline points="250.733 27.654 255.645 27.654 255.645 26.835 255.236 26.016 254.827 25.607 254.008 25.197 252.78 25.197 251.961 25.607 251.142 26.425 250.733 27.654 250.733 28.472 251.142 29.701 251.961 30.519 252.78 30.929 254.008 30.929 254.827 30.519 255.645 29.701"/><line x1="258.511" x2="258.511" y1="25.197" y2="30.929"/><polyline points="258.511 27.654 258.92 26.425 259.739 25.607 260.558 25.197 261.786 25.197"/><line x1="270.383" x2="270.383" y1="22.332" y2="30.929"/><line x1="270.383" x2="276.114" y1="22.332" y2="30.929"/><line x1="276.114" x2="276.114" y1="22.332" y2="30.929"/><line x1="638.281" x2="638.281" y1="40.998" y2="316.063"/><line x1="597.753" x2="597.753" y1="22.332" y2="30.929"/><line x1="605.531" x2="605.531" y1="25.197" y2="30.929"/><polyline points="605.531 26.425 604.712 25.607 603.893 25.197 602.665 25.197 601.846 25.607 601.028 26.425 600.618 27.654 600.618 28.472 601.028 29.701 601.846 30.519 602.665 30.929 603.893 30.929 604.712 30.519 605.531 29.701"/><line x1="607.987" x2="610.443" y1="25.197" y2="30.929"/><polyline points="612.9 25.197 610.443 30.929 609.625 32.566 608.806 33.385 607.987 33.794 607.578 33.794"/><polyline points="614.947 27.654 619.859 27.654 619.859 26.835 619.45 26.016 619.04 25.607 618.221 25.197 616.993 25.197 616.175 25.607 615.356 26.425 614.947 27.654 614.947 28.472 615.356 29.701 616.175 30.519 616.993 30.929 618.221 30.929 619.04 30.519 619.859 29.701"/><line x1="622.725" x2="622.725" y1="25.197" y2="30.929"/><polyline points="622.725 27.654 623.134 26.425 623.953 25.607 624.771 25.197 626 25.197"/><polyline points="634.596 24.379 634.596 23.969 635.006 23.151 635.415 22.741 636.234 22.332 637.871 22.332 638.69 22.741 639.1 23.151 639.509 23.969 639.509 24.788 639.1 25.607 638.281 26.835 634.187 30.929 639.918 30.929"/><line x1="665.788" x2="665.788" y1="40.998" y2="316.063"/><line x1="667.425" x2="667.425" y1="22.332" y2="30.929"/><line x1="675.203" x2="675.203" y1="25.197" y2="30.929"/><polyline points="675.203 26.425 674.384 25.607 673.566 25.197 672.337 25.197 671.519 25.607 670.7 26.425 670.291 27.654 670.291 28.472 670.7 29.701 671.519 30.519 672.337 30.929 673.566 30.929 674.384 30.519 675.203 29.701"/><line x1="677.659" x2="680.116" y1="25.197" y2="30.929"/><polyline points="682.572 25.197 680.116 30.929 679.297 32.566 678.478 33.385 677.659 33.794 677.25 33.794"/><polyline points="684.619 27.654 689.531 27.654 689.531 26.835 689.122 26.016 688.712 25.607 687.894 25.197 686.666 25.197 685.847 25.607 685.028 26.425 684.619 27.654 684.619 28.472 685.028 29.701 685.847 30.519 686.666 30.929 687.894 30.929 688.712 30.519 689.531 29.701"/><line x1="692.397" x2="692.397" y1="25.197" y2="30.929"/><polyline points="692.397 27.654 692.806 26.425 693.625 25.607 694.444 25.197 695.672 25.197"/><polyline points="705.087 23.969 705.906 23.56 707.134 22.332 707.134 30.929"/></g><g id="layer11" fill="none" stroke="red" style="display:inline"><line x1="665.788" x2="665.788" y1="178.53" y2="200.536"/><line x1="665.788" x2="643.782" y1="178.53" y2="178.53"/><line x1="649.514" x2="645.01" y1="170.982" y2="176.713"/><line x1="645.01" x2="649.514" y1="170.982" y2="170.982"/><line x1="645.01" x2="649.514" y1="176.713" y2="176.713"/><line x1="672.517" x2="677.02" y1="198.489" y2="204.22"/><line x1="677.02" x2="672.517" y1="198.489" y2="204.22"/><line x1="672.517" x2="674.154" y1="176.483" y2="182.215"/><line x1="675.792" x2="674.154" y1="176.483" y2="182.215"/><line x1="675.792" x2="677.429" y1="176.483" y2="182.215"/><line x1="679.067" x2="677.429" y1="176.483" y2="182.215"/><polygon points="683.57 176.483 682.751 176.893 681.933 177.712 681.523 178.94 681.523 179.758 681.933 180.987 682.751 181.805 683.57 182.215 684.798 182.215 685.617 181.805 686.436 180.987 686.845 179.758 686.845 178.94 686.436 177.712 685.617 176.893 684.798 176.483"/><line x1="689.711" x2="689.711" y1="176.483" y2="182.215"/><polyline points="689.711 178.94 690.12 177.712 690.939 176.893 691.758 176.483 692.986 176.483"/><line x1="695.033" x2="695.033" y1="173.618" y2="182.215"/><line x1="702.811" x2="702.811" y1="173.618" y2="182.215"/><polyline points="702.811 177.712 701.992 176.893 701.173 176.483 699.945 176.483 699.126 176.893 698.308 177.712 697.898 178.94 697.898 179.758 698.308 180.987 699.126 181.805 699.945 182.215 701.173 182.215 701.992 181.805 702.811 180.987"/><polygon points="714.273 176.483 713.454 176.893 712.636 177.712 712.226 178.94 712.226 179.758 712.636 180.987 713.454 181.805 714.273 182.215 715.501 182.215 716.32 181.805 717.139 180.987 717.548 179.758 717.548 178.94 717.139 177.712 716.32 176.893 715.501 176.483"/><line x1="720.414" x2="720.414" y1="176.483" y2="182.215"/><polyline points="720.414 178.94 720.823 177.712 721.642 176.893 722.461 176.483 723.689 176.483"/><polygon points="725.326 173.618 725.736 174.027 726.145 173.618 725.736 173.208"/><line x1="725.736" x2="725.736" y1="176.483" y2="182.215"/><polyline points="733.514 176.483 733.514 183.034 733.104 184.262 732.695 184.671 731.876 185.08 730.648 185.08 729.829 184.671"/><polyline points="733.514 177.712 732.695 176.893 731.876 176.483 730.648 176.483 729.829 176.893 729.011 177.712 728.601 178.94 728.601 179.758 729.011 180.987 729.829 181.805 730.648 182.215 731.876 182.215 732.695 181.805 733.514 180.987"/><polygon points="736.379 173.618 736.789 174.027 737.198 173.618 736.789 173.208"/><line x1="736.789" x2="736.789" y1="176.483" y2="182.215"/><line x1="740.064" x2="740.064" y1="176.483" y2="182.215"/><polyline points="740.064 178.121 741.292 176.893 742.111 176.483 743.339 176.483 744.158 176.893 744.567 178.121 744.567 182.215"/></g><g id="layer12" fill="none" stroke="#0a0" style="display:inline"><polygon points="464.99 178.53 464.359 175.974 462.613 174.003 460.151 173.069 457.537 173.387 455.37 174.882 454.147 177.214 454.147 179.847 455.37 182.178 457.537 183.674 460.151 183.992 462.613 183.058 464.359 181.087"/><polyline points="443.113 194.215 442.295 193.397 441.476 192.987 440.248 192.987 439.429 193.397 438.61 194.215 438.201 195.444 438.201 196.262 438.61 197.49 439.429 198.309 440.248 198.719 441.476 198.719 442.295 198.309 443.113 197.49"/><line x1="450.482" x2="450.482" y1="192.987" y2="198.719"/><polyline points="450.482 194.215 449.663 193.397 448.844 192.987 447.616 192.987 446.798 193.397 445.979 194.215 445.57 195.444 445.57 196.262 445.979 197.49 446.798 198.309 447.616 198.719 448.844 198.719 449.663 198.309 450.482 197.49"/><line x1="453.757" x2="453.757" y1="192.987" y2="198.719"/><polyline points="453.757 194.625 454.985 193.397 455.804 192.987 457.032 192.987 457.851 193.397 458.26 194.625 458.26 198.719"/><polyline points="458.26 194.625 459.488 193.397 460.307 192.987 461.535 192.987 462.354 193.397 462.763 194.625 462.763 198.719"/><polyline points="465.629 195.444 470.541 195.444 470.541 194.625 470.132 193.806 469.723 193.397 468.904 192.987 467.676 192.987 466.857 193.397 466.038 194.215 465.629 195.444 465.629 196.262 466.038 197.49 466.857 198.309 467.676 198.719 468.904 198.719 469.723 198.309 470.541 197.49"/><line x1="473.407" x2="473.407" y1="192.987" y2="198.719"/><polyline points="473.407 195.444 473.816 194.215 474.635 193.397 475.454 192.987 476.682 192.987"/><line x1="483.232" x2="483.232" y1="192.987" y2="198.719"/><polyline points="483.232 194.215 482.413 193.397 481.594 192.987 480.366 192.987 479.548 193.397 478.729 194.215 478.32 195.444 478.32 196.262 478.729 197.49 479.548 198.309 480.366 198.719 481.594 198.719 482.413 198.309 483.232 197.49"/><line x1="445.979" x2="445.979" y1="209.491" y2="215.223"/><polyline points="445.979 210.72 445.16 209.901 444.341 209.491 443.113 209.491 442.295 209.901 441.476 210.72 441.066 211.948 441.066 212.766 441.476 213.994 442.295 214.813 443.113 215.223 444.341 215.223 445.16 214.813 445.979 213.994"/><polygon points="448.844 206.626 449.254 207.035 449.663 206.626 449.254 206.216"/><line x1="449.254" x2="449.254" y1="209.491" y2="215.223"/><line x1="452.529" x2="452.529" y1="209.491" y2="215.223"/><polyline points="452.529 211.129 453.757 209.901 454.576 209.491 455.804 209.491 456.623 209.901 457.032 211.129 457.032 215.223"/><polyline points="457.032 211.129 458.26 209.901 459.079 209.491 460.307 209.491 461.126 209.901 461.535 211.129 461.535 215.223"/><polygon points="464.401 206.626 464.81 207.035 465.219 206.626 464.81 206.216"/><line x1="464.81" x2="464.81" y1="209.491" y2="215.223"/><line x1="468.085" x2="468.085" y1="209.491" y2="215.223"/><polyline points="468.085 211.129 469.313 209.901 470.132 209.491 471.36 209.491 472.179 209.901 472.588 211.129 472.588 215.223"/><polyline points="480.366 209.491 480.366 216.041 479.957 217.269 479.548 217.679 478.729 218.088 477.501 218.088 476.682 217.679"/><polyline points="480.366 210.72 479.548 209.901 478.729 209.491 477.501 209.491 476.682 209.901 475.863 210.72 475.454 211.948 475.454 212.766 475.863 213.994 476.682 214.813 477.501 215.223 478.729 215.223 479.548 214.813 480.366 213.994"/><line x1="446.593" x2="446.593" y1="225.995" y2="234.592"/><polyline points="446.593 227.223 447.412 226.405 448.23 225.995 449.459 225.995 450.277 226.405 451.096 227.223 451.505 228.452 451.505 229.27 451.096 230.498 450.277 231.317 449.459 231.726 448.23 231.726 447.412 231.317 446.593 230.498"/><polygon points="456.009 225.995 455.19 226.405 454.371 227.223 453.962 228.452 453.962 229.27 454.371 230.498 455.19 231.317 456.009 231.726 457.237 231.726 458.055 231.317 458.874 230.498 459.284 229.27 459.284 228.452 458.874 227.223 458.055 226.405 457.237 225.995"/><polygon points="461.74 223.13 462.149 223.539 462.558 223.13 462.149 222.72"/><line x1="462.149" x2="462.149" y1="225.995" y2="231.726"/><line x1="465.424" x2="465.424" y1="225.995" y2="231.726"/><polyline points="465.424 227.633 466.652 226.405 467.471 225.995 468.699 225.995 469.518 226.405 469.927 227.633 469.927 231.726"/><polyline points="473.612 223.13 473.612 230.089 474.021 231.317 474.84 231.726 475.659 231.726"/><line x1="472.384" x2="475.249" y1="225.995" y2="225.995"/></g></svg>