<?xml version="1.0" encoding="utf-8" ?>
<svg xmlns="http://www.w3.org/2000/svg" xmlns:cc="http://creativecommons.org/ns" xmlns:dc="http://purl.org/dc/elements/1.1/" xmlns:ev="http://www.w3.org/2001/xml-events" xmlns:inkscape="http://www.inkscape.org/namespaces/inkscape" xmlns:rdf="http://www.w3.org/1999/02/22-rdf-syntax-ns" xmlns:sodipodi="http://sodipodi.sourceforge.net/DTD/sodipodi-0.dtd" xmlns:xlink="http://www.w3.org/1999/xlink" baseProfile="tiny" height="14.0cm" version="1.2" viewBox="0 0 1133.8582677165352 529.1338582677165" width="30.0cm">
  <metadata>
    <rdf:RDF>
      <cc:Work>
        <dc:format>image/svg+xml</dc:format>
        <dc:source>vpype -I figures/fig_pscale.vpy write figures/fig_pscale.svg
</dc:source>
        <dc:date>2022-03-31T13:50:40.149188</dc:date>
      </cc:Work>
    </rdf:RDF>
  </metadata>
  <defs/>
  <g fill="none" id="layer9" inkscape:groupmode="layer" inkscape:label="9" stroke="#0000ff" style="display:inline">
    <polygon points="270.7008,21.6316 267.4703,195.5792 432.9286,307.1487 455.4096,131.8894"/>
    <line x1="273.5422" x2="273.408" y1="23.3582" y2="30.0173"/>
    <line x1="278.8845" x2="278.7817" y1="28.8044" y2="33.2409"/>
    <polyline points="278.8624,29.757 278.309,28.7823 277.7483,28.1251 276.8968,27.616 276.3226,27.5943 275.7421,27.8899 275.4387,28.6716 275.4252,29.3052 275.6878,30.4242 276.24,31.396 276.799,32.0515 277.6483,32.561 278.2221,32.5847 278.8037,32.2921"/>
    <line x1="280.591" x2="282.1887" y1="29.8248" y2="35.2848"/>
    <polyline points="284.0117,31.8701 282.1887,35.2848 281.5888,36.2076 281.0055,36.4979 280.4305,36.4725 280.147,36.3022"/>
    <polyline points="285.3888,34.6295 288.8202,36.6841 288.8385,36.0493 288.5703,35.2425 288.2928,34.7533 287.7289,34.0928 286.87,33.5792 286.2891,33.5549 285.7001,33.8483 285.3888,34.6295 285.3717,35.2637 285.6315,36.3852 286.185,37.3606 286.7471,38.0194 287.6039,38.5333 288.1844,38.5597 288.7746,38.2694"/>
    <line x1="290.8838" x2="290.7507" y1="35.9791" y2="40.4211"/>
    <polyline points="290.8267,37.8855 291.1423,37.1046 291.736,36.8126 292.3206,36.8383 293.1836,37.3543"/>
    <polyline points="299.855,40.3677 300.4456,40.3951 301.3496,39.9575 301.1102,46.6358"/>
    <polygon points="237.0372,42.3388 237.0372,216.6652 402.6918,331.4406 422.0164,156.1237"/>
    <line x1="239.8799" x2="239.8693" y1="44.1177" y2="50.8005"/>
    <line x1="245.2651" x2="245.2445" y1="49.671" y2="54.123"/>
    <polyline points="245.2606,50.6269 244.6952,49.6395 244.1284,48.9707 243.2767,48.4459 242.7083,48.415 242.1394,48.7024 241.8535,49.4823 241.8518,50.1181 242.1321,51.2457 242.6961,52.23 243.2612,52.8971 244.1108,53.4222 244.6789,53.4553 245.2489,53.1709"/>
    <line x1="246.9721" x2="248.6527" y1="50.7228" y2="56.2297"/>
    <polyline points="250.3941,52.8312 248.6527,56.2297 248.0761,57.1464 247.5043,57.4284 246.935,57.3936 246.6514,57.218"/>
    <polyline points="251.8071,55.6235 255.2401,57.7416 255.2466,57.1045 254.9665,56.2903 254.683,55.7947 254.113,55.1225 253.2537,54.593 252.6784,54.5593 252.1009,54.8443 251.8071,55.6235 251.8018,56.2599 252.0793,57.39 252.6448,58.378 253.2131,59.0485 254.0702,59.5783 254.6451,59.6142 255.2238,59.3323"/>
    <line x1="257.2693" x2="257.2185" y1="57.0672" y2="61.5244"/>
    <polyline points="257.2475,58.9801 257.5456,58.2013 258.1278,57.9176 258.7069,57.9529 259.5703,58.4849"/>
    <polyline points="265.6432,61.5812 265.6484,61.2615 265.9485,60.8001 266.2436,60.6584 266.829,60.695 267.9901,61.4093 268.5654,62.087 268.8502,62.5859 269.1292,63.4047 269.1176,64.0442 268.8158,64.5043 268.2186,65.1043 265.2722,66.5025 269.3206,69.0048"/>
    <polygon points="202.3316,63.687 205.7549,238.3394 371.5481,356.4611 387.5029,181.1711"/>
    <line x1="205.1742" x2="205.295" y1="65.5205" y2="72.2254"/>
    <line x1="210.6025" x2="210.6694" y1="71.185" y2="75.6514"/>
    <polyline points="210.6168,72.144 210.039,71.1436 209.466,70.4628 208.6144,69.9217 208.0523,69.8808 207.496,70.1595 207.2289,70.937 207.2397,71.5749 207.5387,72.711 208.1152,73.7083 208.6863,74.3873 209.5358,74.9288 210.0976,74.9718 210.6551,74.6963"/>
    <line x1="212.3093" x2="214.0773" y1="72.2697" y2="77.8239"/>
    <polyline points="215.731,74.4441 214.0773,77.8239 213.5256,78.7336 212.9663,79.0066 212.4033,78.9619 212.1197,78.7808"/>
    <polyline points="217.1815,77.2702 220.6145,79.4547 220.6085,78.8156 220.3158,77.9938 220.0261,77.4916 219.4498,76.8073 218.5905,76.2612 218.0215,76.2174 217.4565,76.4934 217.1815,77.2702 217.1887,77.9086 217.485,79.0472 218.0629,80.0483 218.6374,80.7308 219.4945,81.2772 220.0632,81.3232 220.6294,81.0504"/>
    <line x1="222.6062" x2="222.6429" y1="78.8131" y2="83.2842"/>
    <polyline points="222.6219,80.7321 222.9013,79.9558 223.471,79.6813 224.0438,79.7267 224.9073,80.2755"/>
    <polyline points="231.2528,82.0667 234.4468,84.0933 232.7098,85.5536 233.5799,86.1067 234.1609,86.7959 234.4516,87.3007 234.7431,88.4452 234.744,89.0846 234.4554,89.8581 233.877,90.1271 233.0094,89.8926 232.1418,89.3395 231.2739,88.4681 230.9839,87.965 230.6928,87.1427"/>
    <polygon points="52.0579,156.1237 71.3825,331.4406 237.0372,464.5258 237.0372,290.368"/>
    <line x1="54.885" x2="55.6209" y1="158.2035" y2="164.9752"/>
    <line x1="60.4853" x2="60.962" y1="164.3581" y2="168.8677"/>
    <polyline points="60.5877,165.3265 59.9546,164.2705 59.3557,163.5372 58.5094,162.9222 57.9801,162.8353 57.486,163.0711 57.3086,163.8335 57.3779,164.4776 57.7628,165.6476 58.3942,166.7001 58.991,167.4313 59.8353,168.0465 60.3644,168.1357 60.8601,167.9034"/>
    <line x1="62.1819" x2="64.3497" y1="165.5912" y2="171.3365"/>
    <polyline points="65.5835,168.0633 64.3497,171.3365 63.9181,172.2086 63.4204,172.438 62.8898,172.3469 62.6079,172.1411"/>
    <polyline points="67.2019,171.032 70.6158,173.516 70.5512,172.871 70.2014,172.0182 69.8838,171.488 69.2813,170.7507 68.4268,170.1297 67.8904,170.039 67.3873,170.2711 67.2019,171.032 67.2677,171.6764 67.6501,172.8488 68.2833,173.9056 68.8839,174.6408 69.7362,175.262 70.2726,175.355 70.7772,175.1264"/>
    <line x1="72.4205" x2="72.8676" y1="173.0321" y2="177.5441"/>
    <polyline points="72.6124,174.9688 72.8022,174.2088 73.3102,173.9786 73.8506,174.0714 74.7095,174.6957"/>
    <line x1="84.2853" x2="82.031" y1="179.5405" y2="184.222"/>
    <line x1="80.2399" x2="84.2853" y1="176.6047" y2="179.5405"/>
    <polygon points="11.3386,181.1711 35.2707,356.4611 200.6837,493.7318 195.9769,320.1665"/>
    <line x1="14.157" x2="15.0726" y1="183.3203" y2="190.1021"/>
    <line x1="19.8" x2="20.3965" y1="189.6102" y2="194.1261"/>
    <polyline points="19.9281,190.58 19.2797,189.5091 18.6741,188.7615 17.8305,188.1256 17.3116,188.0253 16.8365,188.2482 16.6856,189.005 16.772,189.6501 17.1816,190.8283 17.8282,191.8956 18.4318,192.6411 19.2733,193.2772 19.7921,193.3798 20.2689,193.1605"/>
    <line x1="21.4912" x2="23.7734" y1="190.8851" y2="196.6785"/>
    <polyline points="24.8821,193.4413 23.7734,196.6785 23.3777,197.5383 22.8988,197.7546 22.3785,197.6499 22.0975,197.4373"/>
    <polyline points="26.5475,196.4477 29.951,199.0162 29.8692,198.3703 29.5031,197.5096 29.1779,196.972 28.5685,196.2201 27.7166,195.5779 27.1905,195.4736 26.7064,195.6925 26.5475,196.4477 26.6305,197.0929 27.0377,198.2736 27.6862,199.3452 28.2936,200.0949 29.1433,200.7372 29.6694,200.8438 30.1552,200.6285"/>
    <line x1="31.6981" x2="32.2652" y1="198.5793" y2="203.0968"/>
    <polyline points="31.9416,200.5184 32.1048,199.7643 32.5938,199.5475 33.1239,199.6541 33.9803,200.2997"/>
    <polygon points="40.8723,203.4319 40.048,203.1063 39.8388,203.5383 39.9171,204.1864 40.2828,205.0506 40.8966,205.8075 42.0859,206.9984 42.9881,207.973 43.641,209.0538 44.0058,209.917 44.1208,210.8847 43.9097,211.3119 43.6605,211.4167 42.8369,211.0871 41.6887,210.2193 40.7896,209.2472 40.464,208.7085 40.0993,207.8475 39.9821,206.8798 40.1909,206.4506 40.6872,206.2376 41.5106,206.5646 42.6229,207.1091 43.1604,207.2198 43.3716,206.7894 43.2944,206.1413 42.9287,205.2754 42.0248,204.2995"/>
    <line x1="267.0771" x2="267.0771" y1="495.4583" y2="507.5023"/>
    <polyline points="267.0771,497.1789 268.2241,496.0318 269.3712,495.4583 271.0917,495.4583 272.2388,496.0318 273.3858,497.1789 273.9594,498.8994 273.9594,500.0465 273.3858,501.767 272.2388,502.9141 271.0917,503.4876 269.3712,503.4876 268.2241,502.9141 267.0771,501.767"/>
    <polyline points="283.7092,497.1789 283.1357,496.0318 281.4151,495.4583 279.6946,495.4583 277.974,496.0318 277.4005,497.1789 277.974,498.3259 279.1211,498.8994 281.9887,499.4729 283.1357,500.0465 283.7092,501.1935 283.7092,501.767 283.1357,502.9141 281.4151,503.4876 279.6946,503.4876 277.974,502.9141 277.4005,501.767"/>
    <polyline points="294.0326,497.1789 292.8856,496.0318 291.7386,495.4583 290.018,495.4583 288.8709,496.0318 287.7239,497.1789 287.1504,498.8994 287.1504,500.0465 287.7239,501.767 288.8709,502.9141 290.018,503.4876 291.7386,503.4876 292.8856,502.9141 294.0326,501.767"/>
    <line x1="304.356" x2="304.356" y1="495.4583" y2="503.4876"/>
    <polyline points="304.356,497.1789 303.209,496.0318 302.062,495.4583 300.3414,495.4583 299.1943,496.0318 298.0473,497.1789 297.4738,498.8994 297.4738,500.0465 298.0473,501.767 299.1943,502.9141 300.3414,503.4876 302.062,503.4876 303.209,502.9141 304.356,501.767"/>
    <line x1="308.9442" x2="308.9442" y1="491.4436" y2="503.4876"/>
    <polyline points="312.9589,498.8994 319.8412,498.8994 319.8412,497.7524 319.2676,496.6053 318.6941,496.0318 317.5471,495.4583 315.8265,495.4583 314.6794,496.0318 313.5324,497.1789 312.9589,498.8994 312.9589,500.0465 313.5324,501.767 314.6794,502.9141 315.8265,503.4876 317.5471,503.4876 318.6941,502.9141 319.8412,501.767"/>
    <line x1="333.0322" x2="343.3556" y1="498.3259" y2="498.3259"/>
    <line x1="347.9438" x2="347.9438" y1="491.4436" y2="503.4876"/>
    <polyline points="366.87,491.4436 361.1348,499.4729 369.7376,499.4729"/>
    <line x1="366.87" x2="366.87" y1="491.4436" y2="503.4876"/>
    <polyline points="373.7523,501.1935 373.1787,501.767 372.6052,501.1935 373.1787,500.62 373.7523,501.1935 373.7523,502.3406 372.6052,503.4876"/>
    <polyline points="384.0757,491.4436 378.3404,491.4436 377.7669,496.6053 378.3404,496.0318 380.061,495.4583 381.7816,495.4583 383.5021,496.0318 384.6492,497.1789 385.2227,498.8994 385.2227,500.0465 384.6492,501.767 383.5021,502.9141 381.7816,503.4876 380.061,503.4876 378.3404,502.9141 377.7669,502.3406 377.1934,501.1935"/>
    <polyline points="389.8109,501.1935 389.2374,501.767 388.6638,501.1935 389.2374,500.62 389.8109,501.1935 389.8109,502.3406 388.6638,503.4876"/>
    <polyline points="400.7078,493.1642 400.1343,492.0172 398.4137,491.4436 397.2667,491.4436 395.5461,492.0172 394.3991,493.7377 393.8255,496.6053 393.8255,499.4729 394.3991,501.767 395.5461,502.9141 397.2667,503.4876 397.8402,503.4876 399.5608,502.9141 400.7078,501.767 401.2813,500.0465 401.2813,499.4729 400.7078,497.7524 399.5608,496.6053 397.8402,496.0318 397.2667,496.0318 395.5461,496.6053 394.3991,497.7524 393.8255,499.4729"/>
    <polygon points="414.4724,500.62 413.8988,501.1935 414.4724,501.767 415.0459,501.1935"/>
    <polyline points="425.3693,491.4436 419.6341,491.4436 419.0605,496.6053 419.6341,496.0318 421.3546,495.4583 423.0752,495.4583 424.7958,496.0318 425.9428,497.1789 426.5163,498.8994 426.5163,500.0465 425.9428,501.767 424.7958,502.9141 423.0752,503.4876 421.3546,503.4876 419.6341,502.9141 419.0605,502.3406 418.487,501.1935"/>
    <polygon points="439.7073,500.62 439.1338,501.1935 439.7073,501.767 440.2809,501.1935"/>
    <polyline points="450.6043,491.4436 444.869,491.4436 444.2955,496.6053 444.869,496.0318 446.5896,495.4583 448.3102,495.4583 450.0307,496.0318 451.1778,497.1789 451.7513,498.8994 451.7513,500.0465 451.1778,501.767 450.0307,502.9141 448.3102,503.4876 446.5896,503.4876 444.869,502.9141 444.2955,502.3406 443.722,501.1935"/>
    <polygon points="464.9423,500.62 464.3688,501.1935 464.9423,501.767 465.5159,501.1935"/>
    <polyline points="475.8393,491.4436 470.104,491.4436 469.5305,496.6053 470.104,496.0318 471.8246,495.4583 473.5452,495.4583 475.2657,496.0318 476.4128,497.1789 476.9863,498.8994 476.9863,500.0465 476.4128,501.767 475.2657,502.9141 473.5452,503.4876 471.8246,503.4876 470.104,502.9141 469.5305,502.3406 468.957,501.1935"/>
    <polygon points="825.6176,21.6316 822.3872,195.5792 987.8454,307.1487 1010.3264,131.8894"/>
    <line x1="828.4591" x2="828.3248" y1="23.3582" y2="30.0173"/>
    <line x1="833.8013" x2="833.6985" y1="28.8044" y2="33.2409"/>
    <polyline points="833.7793,29.757 833.2258,28.7823 832.6651,28.1251 831.8137,27.616 831.2395,27.5943 830.659,27.8899 830.3555,28.6716 830.342,29.3052 830.6047,30.4242 831.1568,31.396 831.7158,32.0515 832.5651,32.561 833.1389,32.5847 833.7205,32.2921"/>
    <line x1="835.5078" x2="837.1055" y1="29.8248" y2="35.2848"/>
    <polyline points="838.9285,31.8701 837.1055,35.2848 836.5056,36.2076 835.9224,36.4979 835.3474,36.4725 835.0639,36.3022"/>
    <polyline points="840.3056,34.6295 843.7371,36.6841 843.7554,36.0493 843.4871,35.2425 843.2097,34.7533 842.6458,34.0928 841.7869,33.5792 841.2059,33.5549 840.6169,33.8483 840.3056,34.6295 840.2886,35.2637 840.5483,36.3852 841.1018,37.3606 841.664,38.0194 842.5207,38.5333 843.1012,38.5597 843.6914,38.2694"/>
    <line x1="845.8006" x2="845.6676" y1="35.9791" y2="40.4211"/>
    <polyline points="845.7435,37.8855 846.0591,37.1046 846.6528,36.8126 847.2375,36.8383 848.1005,37.3543"/>
    <polyline points="854.7718,40.3677 855.3624,40.3951 856.2664,39.9575 856.0271,46.6358"/>
    <polygon points="791.954,42.3388 791.954,216.6652 957.6086,331.4406 976.9332,156.1237"/>
    <line x1="794.7967" x2="794.7861" y1="44.1177" y2="50.8005"/>
    <line x1="800.1819" x2="800.1614" y1="49.671" y2="54.123"/>
    <polyline points="800.1775,50.6269 799.6121,49.6395 799.0453,48.9707 798.1936,48.4459 797.6251,48.415 797.0562,48.7024 796.7703,49.4823 796.7686,50.1181 797.0489,51.2457 797.613,52.23 798.178,52.8971 799.0276,53.4222 799.5957,53.4553 800.1658,53.1709"/>
    <line x1="801.889" x2="803.5696" y1="50.7228" y2="56.2297"/>
    <polyline points="805.3109,52.8312 803.5696,56.2297 802.9929,57.1464 802.4211,57.4284 801.8518,57.3936 801.5682,57.218"/>
    <polyline points="806.7239,55.6235 810.1569,57.7416 810.1635,57.1045 809.8833,56.2903 809.5999,55.7947 809.0298,55.1225 808.1705,54.593 807.5952,54.5593 807.0177,54.8443 806.7239,55.6235 806.7187,56.2599 806.9962,57.39 807.5616,58.378 808.1299,59.0485 808.987,59.5783 809.562,59.6142 810.1406,59.3323"/>
    <line x1="812.1861" x2="812.1354" y1="57.0672" y2="61.5244"/>
    <polyline points="812.1643,58.9801 812.4624,58.2013 813.0447,57.9176 813.6237,57.9529 814.4872,58.4849"/>
    <polyline points="820.5601,61.5812 820.5652,61.2615 820.8653,60.8001 821.1604,60.6584 821.7458,60.695 822.907,61.4093 823.4823,62.087 823.7671,62.5859 824.0461,63.4047 824.0345,64.0442 823.7326,64.5043 823.1354,65.1043 820.1891,66.5025 824.2375,69.0048"/>
    <polygon points="757.2484,63.687 760.6717,238.3394 926.465,356.4611 942.4197,181.1711"/>
    <line x1="760.0911" x2="760.2118" y1="65.5205" y2="72.2254"/>
    <line x1="765.5193" x2="765.5863" y1="71.185" y2="75.6514"/>
    <polyline points="765.5337,72.144 764.9558,71.1436 764.3828,70.4628 763.5312,69.9217 762.9691,69.8808 762.4129,70.1595 762.1458,70.937 762.1566,71.5749 762.4556,72.711 763.032,73.7083 763.6032,74.3873 764.4526,74.9288 765.0144,74.9718 765.5719,74.6963"/>
    <line x1="767.2262" x2="768.9941" y1="72.2697" y2="77.8239"/>
    <polyline points="770.6479,74.4441 768.9941,77.8239 768.4424,78.7336 767.8832,79.0066 767.3201,78.9619 767.0365,78.7808"/>
    <polyline points="772.0984,77.2702 775.5313,79.4547 775.5253,78.8156 775.2327,77.9938 774.9429,77.4916 774.3666,76.8073 773.5073,76.2612 772.9383,76.2174 772.3734,76.4934 772.0984,77.2702 772.1056,77.9086 772.4018,79.0472 772.9798,80.0483 773.5542,80.7308 774.4114,81.2772 774.98,81.3232 775.5462,81.0504"/>
    <line x1="777.523" x2="777.5598" y1="78.8131" y2="83.2842"/>
    <polyline points="777.5388,80.7321 777.8181,79.9558 778.3879,79.6813 778.9607,79.7267 779.8242,80.2755"/>
    <polyline points="786.1696,82.0667 789.3637,84.0933 787.6267,85.5536 788.4967,86.1067 789.0777,86.7959 789.3684,87.3007 789.66,88.4452 789.6608,89.0846 789.3722,89.8581 788.7939,90.1271 787.9262,89.8926 787.0587,89.3395 786.1907,88.4681 785.9008,87.965 785.6096,87.1427"/>
    <polygon points="606.9748,156.1237 626.2994,331.4406 791.954,464.5258 791.954,290.368"/>
    <line x1="609.8018" x2="610.5377" y1="158.2035" y2="164.9752"/>
    <line x1="615.4021" x2="615.8789" y1="164.3581" y2="168.8677"/>
    <polyline points="615.5045,165.3265 614.8714,164.2705 614.2726,163.5372 613.4262,162.9222 612.897,162.8353 612.4029,163.0711 612.2254,163.8335 612.2947,164.4776 612.6797,165.6476 613.311,166.7001 613.9079,167.4313 614.7521,168.0465 615.2813,168.1357 615.7769,167.9034"/>
    <line x1="617.0987" x2="619.2665" y1="165.5912" y2="171.3365"/>
    <polyline points="620.5004,168.0633 619.2665,171.3365 618.8349,172.2086 618.3372,172.438 617.8066,172.3469 617.5247,172.1411"/>
    <polyline points="622.1187,171.032 625.5326,173.516 625.468,172.871 625.1182,172.0182 624.8007,171.488 624.1981,170.7507 623.3436,170.1297 622.8072,170.039 622.3042,170.2711 622.1187,171.032 622.1845,171.6764 622.567,172.8488 623.2002,173.9056 623.8007,174.6408 624.6531,175.262 625.1894,175.355 625.694,175.1264"/>
    <line x1="627.3374" x2="627.7844" y1="173.0321" y2="177.5441"/>
    <polyline points="627.5293,174.9688 627.7191,174.2088 628.227,173.9786 628.7674,174.0714 629.6264,174.6957"/>
    <line x1="639.2021" x2="636.9478" y1="179.5405" y2="184.222"/>
    <line x1="635.1568" x2="639.2021" y1="176.6047" y2="179.5405"/>
    <polygon points="566.2554,181.1711 590.1875,356.4611 755.6005,493.7318 750.8938,320.1665"/>
    <line x1="569.0739" x2="569.9894" y1="183.3203" y2="190.1021"/>
    <line x1="574.7168" x2="575.3133" y1="189.6102" y2="194.1261"/>
    <polyline points="574.8449,190.58 574.1965,189.5091 573.5909,188.7615 572.7473,188.1256 572.2285,188.0253 571.7533,188.2482 571.6024,189.005 571.6888,189.6501 572.0985,190.8283 572.745,191.8956 573.3486,192.6411 574.1902,193.2772 574.709,193.3798 575.1858,193.1605"/>
    <line x1="576.4081" x2="578.6903" y1="190.8851" y2="196.6785"/>
    <polyline points="579.799,193.4413 578.6903,196.6785 578.2945,197.5383 577.8156,197.7546 577.2953,197.6499 577.0143,197.4373"/>
    <polyline points="581.4644,196.4477 584.8678,199.0162 584.786,198.3703 584.4199,197.5096 584.0947,196.972 583.4853,196.2201 582.6334,195.5779 582.1073,195.4736 581.6232,195.6925 581.4644,196.4477 581.5473,197.0929 581.9545,198.2736 582.6031,199.3452 583.2104,200.0949 584.0602,200.7372 584.5862,200.8438 585.072,200.6285"/>
    <line x1="586.615" x2="587.1821" y1="198.5793" y2="203.0968"/>
    <polyline points="586.8584,200.5184 587.0216,199.7643 587.5107,199.5475 588.0407,199.6541 588.8972,200.2997"/>
    <polygon points="595.7891,203.4319 594.9648,203.1063 594.7556,203.5383 594.834,204.1864 595.1996,205.0506 595.8135,205.8075 597.0027,206.9984 597.9049,207.973 598.5578,209.0538 598.9226,209.917 599.0376,210.8847 598.8265,211.3119 598.5773,211.4167 597.7537,211.0871 596.6056,210.2193 595.7064,209.2472 595.3808,208.7085 595.0162,207.8475 594.899,206.8798 595.1078,206.4506 595.604,206.2376 596.4274,206.5646 597.5397,207.1091 598.0772,207.2198 598.2884,206.7894 598.2113,206.1413 597.8456,205.2754 596.9417,204.2995"/>
    <line x1="821.9939" x2="821.9939" y1="495.4583" y2="507.5023"/>
    <polyline points="821.9939,497.1789 823.141,496.0318 824.288,495.4583 826.0086,495.4583 827.1556,496.0318 828.3027,497.1789 828.8762,498.8994 828.8762,500.0465 828.3027,501.767 827.1556,502.9141 826.0086,503.4876 824.288,503.4876 823.141,502.9141 821.9939,501.767"/>
    <polyline points="838.6261,497.1789 838.0526,496.0318 836.332,495.4583 834.6114,495.4583 832.8908,496.0318 832.3173,497.1789 832.8908,498.3259 834.0379,498.8994 836.9055,499.4729 838.0526,500.0465 838.6261,501.1935 838.6261,501.767 838.0526,502.9141 836.332,503.4876 834.6114,503.4876 832.8908,502.9141 832.3173,501.767"/>
    <polyline points="848.9495,497.1789 847.8024,496.0318 846.6554,495.4583 844.9348,495.4583 843.7878,496.0318 842.6407,497.1789 842.0672,498.8994 842.0672,500.0465 842.6407,501.767 843.7878,502.9141 844.9348,503.4876 846.6554,503.4876 847.8024,502.9141 848.9495,501.767"/>
    <line x1="859.2729" x2="859.2729" y1="495.4583" y2="503.4876"/>
    <polyline points="859.2729,497.1789 858.1258,496.0318 856.9788,495.4583 855.2582,495.4583 854.1112,496.0318 852.9641,497.1789 852.3906,498.8994 852.3906,500.0465 852.9641,501.767 854.1112,502.9141 855.2582,503.4876 856.9788,503.4876 858.1258,502.9141 859.2729,501.767"/>
    <line x1="863.8611" x2="863.8611" y1="491.4436" y2="503.4876"/>
    <polyline points="867.8757,498.8994 874.758,498.8994 874.758,497.7524 874.1845,496.6053 873.6109,496.0318 872.4639,495.4583 870.7433,495.4583 869.5963,496.0318 868.4492,497.1789 867.8757,498.8994 867.8757,500.0465 868.4492,501.767 869.5963,502.9141 870.7433,503.4876 872.4639,503.4876 873.6109,502.9141 874.758,501.767"/>
    <line x1="887.949" x2="898.2724" y1="498.3259" y2="498.3259"/>
    <line x1="902.8606" x2="902.8606" y1="491.4436" y2="503.4876"/>
    <polyline points="921.7868,491.4436 916.0516,499.4729 924.6544,499.4729"/>
    <line x1="921.7868" x2="921.7868" y1="491.4436" y2="503.4876"/>
    <polyline points="928.6691,501.1935 928.0956,501.767 927.5221,501.1935 928.0956,500.62 928.6691,501.1935 928.6691,502.3406 927.5221,503.4876"/>
    <polyline points="938.9925,491.4436 933.2573,491.4436 932.6838,496.6053 933.2573,496.0318 934.9778,495.4583 936.6984,495.4583 938.419,496.0318 939.566,497.1789 940.1395,498.8994 940.1395,500.0465 939.566,501.767 938.419,502.9141 936.6984,503.4876 934.9778,503.4876 933.2573,502.9141 932.6838,502.3406 932.1102,501.1935"/>
    <polyline points="944.7277,501.1935 944.1542,501.767 943.5807,501.1935 944.1542,500.62 944.7277,501.1935 944.7277,502.3406 943.5807,503.4876"/>
    <polyline points="955.6247,493.1642 955.0511,492.0172 953.3306,491.4436 952.1835,491.4436 950.463,492.0172 949.3159,493.7377 948.7424,496.6053 948.7424,499.4729 949.3159,501.767 950.463,502.9141 952.1835,503.4876 952.757,503.4876 954.4776,502.9141 955.6247,501.767 956.1982,500.0465 956.1982,499.4729 955.6247,497.7524 954.4776,496.6053 952.757,496.0318 952.1835,496.0318 950.463,496.6053 949.3159,497.7524 948.7424,499.4729"/>
    <line x1="969.3892" x2="979.7126" y1="498.3259" y2="498.3259"/>
    <polygon points="986.5949,495.4583 985.4478,496.0318 984.3008,497.1789 983.7273,498.8994 983.7273,500.0465 984.3008,501.767 985.4478,502.9141 986.5949,503.4876 988.3154,503.4876 989.4625,502.9141 990.6095,501.767 991.183,500.0465 991.183,498.8994 990.6095,497.1789 989.4625,496.0318 988.3154,495.4583"/>
    <line x1="1003.8005" x2="1006.0946" y1="495.4583" y2="503.4876"/>
    <line x1="1008.3887" x2="1006.0946" y1="495.4583" y2="503.4876"/>
    <line x1="1008.3887" x2="1010.6828" y1="495.4583" y2="503.4876"/>
    <line x1="1012.9769" x2="1010.6828" y1="495.4583" y2="503.4876"/>
    <polygon points="1019.2856,495.4583 1018.1386,496.0318 1016.9916,497.1789 1016.418,498.8994 1016.418,500.0465 1016.9916,501.767 1018.1386,502.9141 1019.2856,503.4876 1021.0062,503.4876 1022.1533,502.9141 1023.3003,501.767 1023.8738,500.0465 1023.8738,498.8994 1023.3003,497.1789 1022.1533,496.0318 1021.0062,495.4583"/>
    <line x1="1027.8885" x2="1027.8885" y1="495.4583" y2="503.4876"/>
    <polyline points="1027.8885,498.8994 1028.462,497.1789 1029.609,496.0318 1030.7561,495.4583 1032.4767,495.4583"/>
    <line x1="1035.3443" x2="1035.3443" y1="491.4436" y2="503.4876"/>
    <line x1="1046.2412" x2="1046.2412" y1="491.4436" y2="503.4876"/>
    <polyline points="1046.2412,497.1789 1045.0942,496.0318 1043.9471,495.4583 1042.2265,495.4583 1041.0795,496.0318 1039.9325,497.1789 1039.3589,498.8994 1039.3589,500.0465 1039.9325,501.767 1041.0795,502.9141 1042.2265,503.4876 1043.9471,503.4876 1045.0942,502.9141 1046.2412,501.767"/>
    <polygon points="1060.0057,500.62 1059.4322,501.1935 1060.0057,501.767 1060.5793,501.1935"/>
    <polyline points="1070.9027,491.4436 1065.1674,491.4436 1064.5939,496.6053 1065.1674,496.0318 1066.888,495.4583 1068.6086,495.4583 1070.3291,496.0318 1071.4762,497.1789 1072.0497,498.8994 1072.0497,500.0465 1071.4762,501.767 1070.3291,502.9141 1068.6086,503.4876 1066.888,503.4876 1065.1674,502.9141 1064.5939,502.3406 1064.0204,501.1935"/>
    <polygon points="1085.2407,500.62 1084.6672,501.1935 1085.2407,501.767 1085.8142,501.1935"/>
    <polyline points="1096.1377,491.4436 1090.4024,491.4436 1089.8289,496.6053 1090.4024,496.0318 1092.123,495.4583 1093.8436,495.4583 1095.5641,496.0318 1096.7112,497.1789 1097.2847,498.8994 1097.2847,500.0465 1096.7112,501.767 1095.5641,502.9141 1093.8436,503.4876 1092.123,503.4876 1090.4024,502.9141 1089.8289,502.3406 1089.2554,501.1935"/>
    <polygon points="1110.4757,500.62 1109.9022,501.1935 1110.4757,501.767 1111.0492,501.1935"/>
    <polyline points="1121.3726,491.4436 1115.6374,491.4436 1115.0639,496.6053 1115.6374,496.0318 1117.358,495.4583 1119.0786,495.4583 1120.7991,496.0318 1121.9462,497.1789 1122.5197,498.8994 1122.5197,500.0465 1121.9462,501.767 1120.7991,502.9141 1119.0786,503.4876 1117.358,503.4876 1115.6374,502.9141 1115.0639,502.3406 1114.4904,501.1935"/>
  </g>
  <g fill="none" id="layer10" inkscape:groupmode="layer" inkscape:label="10" stroke="#008800" style="display:inline">
    <polygon points="210.8122,161.6362 212.1824,249.0297 297.2563,309.8762 300.7108,222.4282"/>
    <line x1="212.2488" x2="212.2962" y1="162.6219" y2="165.8181"/>
    <line x1="214.9841" x2="215.0123" y1="165.529" y2="167.6587"/>
    <polyline points="214.9902,165.9858 214.6996,165.4874 214.4111,165.1412 213.9814,164.8505 213.6972,164.809 213.4153,164.9198 213.2788,165.2795 213.2831,165.5837 213.4325,166.1367 213.7228,166.6344 214.0108,166.9801 214.4399,167.2709 214.724,167.3128 215.0063,167.2028"/>
    <line x1="215.8443" x2="216.7312" y1="166.1111" y2="168.8235"/>
    <polyline points="217.5667,167.2767 216.7312,168.8235 216.452,169.2368 216.1693,169.3462 215.8849,169.3038 215.7418,169.2067"/>
    <polyline points="218.2955,168.6764 220.0207,169.8446 220.0176,169.5402 219.8705,169.1382 219.7251,168.8885 219.4357,168.5414 219.0041,168.2494 218.7181,168.207 218.434,168.317 218.2955,168.6764 218.2989,168.9807 218.4476,169.5342 218.7382,170.0328 219.0271,170.3794 219.4582,170.6715 219.744,170.7143 220.0285,170.6051"/>
    <line x1="221.0195" x2="221.04" y1="169.6132" y2="171.7435"/>
    <polyline points="221.0283,170.5269 221.168,170.1677 221.4533,170.0581 221.7402,170.1009 222.1728,170.3937"/>
    <polyline points="226.5017,172.2602 225.069,173.4144 227.239,174.8838"/>
    <line x1="226.5017" x2="226.5219" y1="172.2602" y2="175.4584"/>
    <polygon points="174.8764,185.3752 178.1729,272.8207 263.2476,335.5423 264.7759,248.1487"/>
    <line x1="176.3124" x2="176.4303" y1="186.392" y2="189.5926"/>
    <line x1="179.0697" x2="179.1448" y1="189.3594" y2="191.4919"/>
    <polyline points="179.0858,189.8168 178.7887,189.3118 178.4969,188.9592 178.0676,188.6591 177.7869,188.6117 177.5119,188.7167 177.3855,189.0739 177.3965,189.3786 177.5559,189.9353 177.8527,190.4395 178.144,190.7916 178.5728,191.0917 178.8534,191.1396 179.1288,191.0354"/>
    <line x1="179.9294" x2="180.8628" y1="189.9601" y2="192.694"/>
    <polyline points="181.6508,191.163 180.8628,192.694 180.5972,193.1018 180.3213,193.2054 180.0404,193.1569 179.8974,193.0568"/>
    <polyline points="182.3994,192.5794 184.1237,193.785 184.1139,193.4802 183.9602,193.0747 183.8114,192.8217 183.5188,192.4682 183.0874,192.1668 182.805,192.1184 182.5278,192.2226 182.3994,192.5794 182.4095,192.8841 182.5682,193.4413 182.8654,193.9466 183.1575,194.2996 183.5883,194.601 183.8707,194.6499 184.1483,194.5465"/>
    <line x1="185.1019" x2="185.1694" y1="193.5744" y2="195.7073"/>
    <polyline points="185.1308,194.4892 185.2603,194.1325 185.5388,194.0289 185.8222,194.0777 186.2546,194.3798"/>
    <polyline points="190.8477,196.5416 189.3999,195.5306 189.2953,196.8034 189.4355,196.7519 189.8649,196.9025 190.2989,197.2057 190.7374,197.6617 191.0355,198.1691 191.1931,198.7276 191.2017,199.0324 191.0698,199.3881 190.7891,199.4902 190.3598,199.339 189.9263,199.0357 189.4886,198.5804 189.3398,198.3271 189.1864,197.9216"/>
    <polygon points="137.7838,209.8784 143.1276,297.3362 228.162,362.021 227.6358,274.7318"/>
    <line x1="139.2185" x2="139.4115" y1="210.9277" y2="214.1314"/>
    <line x1="141.9977" x2="142.1229" y1="213.9578" y2="216.0923"/>
    <polyline points="142.0246,214.4157 141.7206,213.9038 141.4256,213.5446 140.9967,213.2348 140.72,213.181 140.4524,213.2798 140.3369,213.6343 140.3551,213.9392 140.5251,214.4995 140.8287,215.0105 141.1232,215.3693 141.5515,215.679 141.8282,215.7334 142.0961,215.6354"/>
    <line x1="142.8564" x2="143.8389" y1="214.5781" y2="217.3333"/>
    <polyline points="144.576,215.82 143.8389,217.3333 143.5879,217.7352 143.3195,217.8325 143.0425,217.7777 142.8996,217.6743"/>
    <polyline points="145.3452,217.2536 147.0677,218.4984 147.0507,218.1934 146.89,217.7844 146.7378,217.5279 146.4419,217.1677 146.0111,216.8565 145.7325,216.8018 145.4627,216.8996 145.3452,217.2536 145.3625,217.5586 145.5318,218.1194 145.8358,218.6314 146.1312,218.9911 146.5615,219.3024 146.84,219.3576 147.1101,219.2606"/>
    <line x1="148.0234" x2="148.1409" y1="218.3099" y2="220.4446"/>
    <polyline points="148.0738,219.2255 148.1924,218.8717 148.4634,218.7744 148.7429,218.8297 149.1749,219.1417"/>
    <polyline points="153.9067,221.971 153.7462,221.5609 153.3042,221.0946 153.0149,220.8858 152.5891,220.7256 152.3241,220.9753 152.2197,221.6345 152.2599,222.3974 152.4362,223.1114 152.7408,223.6248 153.1818,224.0902 153.3262,224.1947 153.7515,224.3557 154.0247,224.2599 154.1457,223.9071 154.1379,223.7547 153.9697,223.1926 153.6647,222.6784 153.2231,222.2125 153.0786,222.108 152.653,221.9476 152.3802,222.0441 152.2599,222.3974"/>
    <polygon points="817.5796,127.384 816.2697,214.633 901.2733,272.8207 907.3954,185.3752"/>
    <line x1="819.0157" x2="818.9651" y1="128.3257" y2="131.5131"/>
    <line x1="821.7182" x2="821.6811" y1="131.1467" y2="133.2706"/>
    <polyline points="821.7102,131.6022 821.429,131.1134 821.1451,130.7764 820.7155,130.4988 820.4267,130.4657 820.1355,130.5844 819.9849,130.9472 819.9799,131.2506 820.1154,131.7979 820.3963,132.286 820.6797,132.6226 821.1087,132.9002 821.3975,132.9339 821.689,132.8159"/>
    <line x1="822.5783" x2="823.3998" y1="131.7024" y2="134.3827"/>
    <polyline points="824.3005,132.8152 823.3998,134.3827 823.102,134.8032 822.8101,134.9205 822.521,134.8865 822.3779,134.7938"/>
    <polyline points="825.0011,134.1905 826.7261,135.3057 826.7323,135.0021 826.5946,134.6054 826.4538,134.3605 826.1691,134.0226 825.7376,133.7438 825.4471,133.7099 825.1537,133.8279 825.0011,134.1905 824.9952,134.4939 825.13,135.0418 825.4112,135.5308 825.6954,135.8683 826.1264,136.1471 826.4169,136.1815 826.7106,136.0643"/>
    <line x1="827.7527" x2="827.7079" y1="135.0459" y2="137.1705"/>
    <polyline points="827.7335,135.9571 827.8871,135.5947 828.1817,135.4771 828.4732,135.5114 828.9058,135.7909"/>
    <polyline points="833.2661,137.5269 831.7686,138.7201 833.9379,140.1228"/>
    <line x1="833.2661" x2="833.1885" y1="137.5269" y2="140.7169"/>
    <polygon points="800.5614,138.6261 800.1182,225.9316 885.1539,284.9858 890.415,197.529"/>
    <line x1="801.9978" x2="801.9789" y1="139.5822" y2="142.7728"/>
    <line x1="804.7113" x2="804.6953" y1="142.4313" y2="144.5573"/>
    <polyline points="804.7079,142.8873 804.4236,142.3953 804.1382,142.0553 803.7085,141.7734 803.4211,141.7376 803.1329,141.8538 802.9868,142.2156 802.9849,142.5193 803.1249,143.0685 803.4088,143.5598 803.6937,143.8993 804.1229,144.1813 804.4101,144.2176 804.6987,144.1022"/>
    <line x1="805.5715" x2="806.4142" y1="142.9956" y2="145.6866"/>
    <polyline points="807.294,144.1256 806.4142,145.6866 806.1225,146.1048 805.8335,146.2196 805.5459,146.1828 805.4027,146.0887"/>
    <polyline points="808.0038,145.5089 809.729,146.6414 809.7322,146.3375 809.5915,145.939 809.4492,145.6926 809.163,145.3517 808.7314,145.0685 808.4423,145.0319 808.1518,145.1473 808.0038,145.5089 808.0009,145.8127 808.1402,146.3624 808.4245,146.8546 808.7103,147.1951 809.1413,147.4782 809.4303,147.5153 809.721,147.4007"/>
    <line x1="810.7468" x2="810.7231" y1="146.3907" y2="148.5175"/>
    <polyline points="810.7367,147.3028 810.8858,146.9414 811.1774,146.8264 811.4675,146.8635 811.9001,147.1473"/>
    <polyline points="816.5406,149.1157 815.0923,148.1663 814.9289,149.4412 815.0756,149.384 815.5117,149.5166 815.9459,149.8014 816.378,150.2385 816.6632,150.7327 816.8012,151.2838 816.7968,151.5877 816.6453,151.9484 816.3516,152.0619 815.9156,151.9287 815.482,151.6439 815.0506,151.2073 814.9082,150.9607 814.7679,150.5621"/>
    <polygon points="783.28,150.0421 783.7299,237.3959 868.7891,297.3362 873.1613,209.8784"/>
    <line x1="784.7165" x2="784.7303" y1="151.0129" y2="154.2064"/>
    <line x1="787.441" x2="787.4467" y1="153.8907" y2="156.0187"/>
    <polyline points="787.4422,154.3471 787.1548,153.8519 786.8678,153.5089 786.4381,153.2226 786.1523,153.184 785.8672,153.2975 785.7258,153.6583 785.7269,153.9623 785.8716,154.5134 786.1586,155.0079 786.4451,155.3505 786.8742,155.6368 787.16,155.6759 787.4454,155.5631"/>
    <line x1="788.3012" x2="789.1657" y1="154.4638" y2="157.1655"/>
    <polyline points="790.0237,155.6114 789.1657,157.1655 788.8801,157.5813 788.5942,157.6934 788.3082,157.6539 788.165,157.5583"/>
    <polyline points="790.7429,157.0028 792.4682,158.153 792.4683,157.8488 792.3245,157.4486 792.1806,157.2005 791.8928,156.8566 791.4612,156.569 791.1736,156.5296 790.8863,156.6423 790.7429,157.0028 790.7431,157.3069 790.8871,157.8585 791.1745,158.3539 791.4618,158.6974 791.8929,158.985 792.1804,159.0249 792.468,158.913"/>
    <line x1="793.4768" x2="793.4748" y1="157.9118" y2="160.0404"/>
    <polyline points="793.4759,158.8247 793.6204,158.4644 793.909,158.3521 794.1975,158.3919 794.6301,158.6802"/>
    <polyline points="799.4031,161.2488 799.2595,160.8475 798.8254,160.4056 798.5357,160.2127 798.1007,160.076 797.8096,160.3404 797.6623,161.0054 797.6597,161.7661 797.8022,162.4706 798.0901,162.9672 798.5232,163.4084 798.6677,163.5049 799.1022,163.6424 799.3929,163.5315 799.5397,163.172 799.5404,163.0199 799.3976,162.467 799.1094,161.9696 798.6757,161.528 798.5309,161.4316 798.0962,161.2946 797.8059,161.4062 797.6597,161.7661"/>
  </g>
</svg>
