<svg xmlns="http://www.w3.org/2000/svg" xmlns:cc="http://creativecommons.org/ns" xmlns:ev="http://www.w3.org/2001/xml-events" xmlns:rdf="http://www.w3.org/1999/02/22-rdf-syntax-ns" xmlns:xlink="http://www.w3.org/1999/xlink" width="30cm" height="14cm" baseProfile="tiny" version="1.2" viewBox="0 0 1133.858 529.134"><metadata><rdf:RDF><cc:Work/></rdf:RDF></metadata><g id="layer9" fill="none" stroke="#00f" style="display:inline"><polygon points="270.701 21.632 267.47 195.579 432.929 307.149 455.41 131.889"/><line x1="273.542" x2="273.408" y1="23.358" y2="30.017"/><line x1="278.885" x2="278.782" y1="28.804" y2="33.241"/><polyline points="278.862 29.757 278.309 28.782 277.748 28.125 276.897 27.616 276.323 27.594 275.742 27.89 275.439 28.672 275.425 29.305 275.688 30.424 276.24 31.396 276.799 32.051 277.648 32.561 278.222 32.585 278.804 32.292"/><line x1="280.591" x2="282.189" y1="29.825" y2="35.285"/><polyline points="284.012 31.87 282.189 35.285 281.589 36.208 281.005 36.498 280.43 36.472 280.147 36.302"/><polyline points="285.389 34.63 288.82 36.684 288.839 36.049 288.57 35.242 288.293 34.753 287.729 34.093 286.87 33.579 286.289 33.555 285.7 33.848 285.389 34.63 285.372 35.264 285.632 36.385 286.185 37.361 286.747 38.019 287.604 38.533 288.184 38.56 288.775 38.269"/><line x1="290.884" x2="290.751" y1="35.979" y2="40.421"/><polyline points="290.827 37.886 291.142 37.105 291.736 36.813 292.321 36.838 293.184 37.354"/><polyline points="299.855 40.368 300.446 40.395 301.35 39.958 301.11 46.636"/><polygon points="237.037 42.339 237.037 216.665 402.692 331.441 422.016 156.124"/><line x1="239.88" x2="239.869" y1="44.118" y2="50.8"/><line x1="245.265" x2="245.244" y1="49.671" y2="54.123"/><polyline points="245.261 50.627 244.695 49.639 244.128 48.971 243.277 48.446 242.708 48.415 242.139 48.702 241.853 49.482 241.852 50.118 242.132 51.246 242.696 52.23 243.261 52.897 244.111 53.422 244.679 53.455 245.249 53.171"/><line x1="246.972" x2="248.653" y1="50.723" y2="56.23"/><polyline points="250.394 52.831 248.653 56.23 248.076 57.146 247.504 57.428 246.935 57.394 246.651 57.218"/><polyline points="251.807 55.623 255.24 57.742 255.247 57.105 254.966 56.29 254.683 55.795 254.113 55.123 253.254 54.593 252.678 54.559 252.101 54.844 251.807 55.623 251.802 56.26 252.079 57.39 252.645 58.378 253.213 59.048 254.07 59.578 254.645 59.614 255.224 59.332"/><line x1="257.269" x2="257.219" y1="57.067" y2="61.524"/><polyline points="257.248 58.98 257.546 58.201 258.128 57.918 258.707 57.953 259.57 58.485"/><polyline points="265.643 61.581 265.648 61.261 265.949 60.8 266.244 60.658 266.829 60.695 267.99 61.409 268.565 62.087 268.85 62.586 269.129 63.405 269.118 64.044 268.816 64.504 268.219 65.104 265.272 66.502 269.321 69.005"/><polygon points="202.332 63.687 205.755 238.339 371.548 356.461 387.503 181.171"/><line x1="205.174" x2="205.295" y1="65.52" y2="72.225"/><line x1="210.602" x2="210.669" y1="71.185" y2="75.651"/><polyline points="210.617 72.144 210.039 71.144 209.466 70.463 208.614 69.922 208.052 69.881 207.496 70.159 207.229 70.937 207.24 71.575 207.539 72.711 208.115 73.708 208.686 74.387 209.536 74.929 210.098 74.972 210.655 74.696"/><line x1="212.309" x2="214.077" y1="72.27" y2="77.824"/><polyline points="215.731 74.444 214.077 77.824 213.526 78.734 212.966 79.007 212.403 78.962 212.12 78.781"/><polyline points="217.181 77.27 220.614 79.455 220.608 78.816 220.316 77.994 220.026 77.492 219.45 76.807 218.59 76.261 218.022 76.217 217.457 76.493 217.181 77.27 217.189 77.909 217.485 79.047 218.063 80.048 218.637 80.731 219.494 81.277 220.063 81.323 220.629 81.05"/><line x1="222.606" x2="222.643" y1="78.813" y2="83.284"/><polyline points="222.622 80.732 222.901 79.956 223.471 79.681 224.044 79.727 224.907 80.275"/><polyline points="231.253 82.067 234.447 84.093 232.71 85.554 233.58 86.107 234.161 86.796 234.452 87.301 234.743 88.445 234.744 89.085 234.455 89.858 233.877 90.127 233.009 89.893 232.142 89.34 231.274 88.468 230.984 87.965 230.693 87.143"/><polygon points="52.058 156.124 71.382 331.441 237.037 464.526 237.037 290.368"/><line x1="54.885" x2="55.621" y1="158.203" y2="164.975"/><line x1="60.485" x2="60.962" y1="164.358" y2="168.868"/><polyline points="60.588 165.327 59.955 164.27 59.356 163.537 58.509 162.922 57.98 162.835 57.486 163.071 57.309 163.833 57.378 164.478 57.763 165.648 58.394 166.7 58.991 167.431 59.835 168.047 60.364 168.136 60.86 167.903"/><line x1="62.182" x2="64.35" y1="165.591" y2="171.337"/><polyline points="65.584 168.063 64.35 171.337 63.918 172.209 63.42 172.438 62.89 172.347 62.608 172.141"/><polyline points="67.202 171.032 70.616 173.516 70.551 172.871 70.201 172.018 69.884 171.488 69.281 170.751 68.427 170.13 67.89 170.039 67.387 170.271 67.202 171.032 67.268 171.676 67.65 172.849 68.283 173.906 68.884 174.641 69.736 175.262 70.273 175.355 70.777 175.126"/><line x1="72.421" x2="72.868" y1="173.032" y2="177.544"/><polyline points="72.612 174.969 72.802 174.209 73.31 173.979 73.851 174.071 74.71 174.696"/><line x1="84.285" x2="82.031" y1="179.541" y2="184.222"/><line x1="80.24" x2="84.285" y1="176.605" y2="179.541"/><polygon points="11.339 181.171 35.271 356.461 200.684 493.732 195.977 320.166"/><line x1="14.157" x2="15.073" y1="183.32" y2="190.102"/><line x1="19.8" x2="20.396" y1="189.61" y2="194.126"/><polyline points="19.928 190.58 19.28 189.509 18.674 188.762 17.831 188.126 17.312 188.025 16.837 188.248 16.686 189.005 16.772 189.65 17.182 190.828 17.828 191.896 18.432 192.641 19.273 193.277 19.792 193.38 20.269 193.161"/><line x1="21.491" x2="23.773" y1="190.885" y2="196.679"/><polyline points="24.882 193.441 23.773 196.679 23.378 197.538 22.899 197.755 22.378 197.65 22.098 197.437"/><polyline points="26.547 196.448 29.951 199.016 29.869 198.37 29.503 197.51 29.178 196.972 28.569 196.22 27.717 195.578 27.191 195.474 26.706 195.692 26.547 196.448 26.631 197.093 27.038 198.274 27.686 199.345 28.294 200.095 29.143 200.737 29.669 200.844 30.155 200.629"/><line x1="31.698" x2="32.265" y1="198.579" y2="203.097"/><polyline points="31.942 200.518 32.105 199.764 32.594 199.548 33.124 199.654 33.98 200.3"/><polygon points="40.872 203.432 40.048 203.106 39.839 203.538 39.917 204.186 40.283 205.051 40.897 205.808 42.086 206.998 42.988 207.973 43.641 209.054 44.006 209.917 44.121 210.885 43.91 211.312 43.66 211.417 42.837 211.087 41.689 210.219 40.79 209.247 40.464 208.708 40.099 207.847 39.982 206.88 40.191 206.451 40.687 206.238 41.511 206.565 42.623 207.109 43.16 207.22 43.372 206.789 43.294 206.141 42.929 205.275 42.025 204.299"/><line x1="267.077" x2="267.077" y1="495.458" y2="507.502"/><polyline points="267.077 497.179 268.224 496.032 269.371 495.458 271.092 495.458 272.239 496.032 273.386 497.179 273.959 498.899 273.959 500.046 273.386 501.767 272.239 502.914 271.092 503.488 269.371 503.488 268.224 502.914 267.077 501.767"/><polyline points="283.709 497.179 283.136 496.032 281.415 495.458 279.695 495.458 277.974 496.032 277.401 497.179 277.974 498.326 279.121 498.899 281.989 499.473 283.136 500.046 283.709 501.193 283.709 501.767 283.136 502.914 281.415 503.488 279.695 503.488 277.974 502.914 277.401 501.767"/><polyline points="294.033 497.179 292.886 496.032 291.739 495.458 290.018 495.458 288.871 496.032 287.724 497.179 287.15 498.899 287.15 500.046 287.724 501.767 288.871 502.914 290.018 503.488 291.739 503.488 292.886 502.914 294.033 501.767"/><line x1="304.356" x2="304.356" y1="495.458" y2="503.488"/><polyline points="304.356 497.179 303.209 496.032 302.062 495.458 300.341 495.458 299.194 496.032 298.047 497.179 297.474 498.899 297.474 500.046 298.047 501.767 299.194 502.914 300.341 503.488 302.062 503.488 303.209 502.914 304.356 501.767"/><line x1="308.944" x2="308.944" y1="491.444" y2="503.488"/><polyline points="312.959 498.899 319.841 498.899 319.841 497.752 319.268 496.605 318.694 496.032 317.547 495.458 315.827 495.458 314.679 496.032 313.532 497.179 312.959 498.899 312.959 500.046 313.532 501.767 314.679 502.914 315.827 503.488 317.547 503.488 318.694 502.914 319.841 501.767"/><line x1="333.032" x2="343.356" y1="498.326" y2="498.326"/><line x1="347.944" x2="347.944" y1="491.444" y2="503.488"/><polyline points="366.87 491.444 361.135 499.473 369.738 499.473"/><line x1="366.87" x2="366.87" y1="491.444" y2="503.488"/><polyline points="373.752 501.193 373.179 501.767 372.605 501.193 373.179 500.62 373.752 501.193 373.752 502.341 372.605 503.488"/><polyline points="384.076 491.444 378.34 491.444 377.767 496.605 378.34 496.032 380.061 495.458 381.782 495.458 383.502 496.032 384.649 497.179 385.223 498.899 385.223 500.046 384.649 501.767 383.502 502.914 381.782 503.488 380.061 503.488 378.34 502.914 377.767 502.341 377.193 501.193"/><polyline points="389.811 501.193 389.237 501.767 388.664 501.193 389.237 500.62 389.811 501.193 389.811 502.341 388.664 503.488"/><polyline points="400.708 493.164 400.134 492.017 398.414 491.444 397.267 491.444 395.546 492.017 394.399 493.738 393.825 496.605 393.825 499.473 394.399 501.767 395.546 502.914 397.267 503.488 397.84 503.488 399.561 502.914 400.708 501.767 401.281 500.046 401.281 499.473 400.708 497.752 399.561 496.605 397.84 496.032 397.267 496.032 395.546 496.605 394.399 497.752 393.825 499.473"/><polygon points="414.472 500.62 413.899 501.193 414.472 501.767 415.046 501.193"/><polyline points="425.369 491.444 419.634 491.444 419.06 496.605 419.634 496.032 421.355 495.458 423.075 495.458 424.796 496.032 425.943 497.179 426.516 498.899 426.516 500.046 425.943 501.767 424.796 502.914 423.075 503.488 421.355 503.488 419.634 502.914 419.06 502.341 418.487 501.193"/><polygon points="439.707 500.62 439.134 501.193 439.707 501.767 440.281 501.193"/><polyline points="450.604 491.444 444.869 491.444 444.296 496.605 444.869 496.032 446.59 495.458 448.31 495.458 450.031 496.032 451.178 497.179 451.751 498.899 451.751 500.046 451.178 501.767 450.031 502.914 448.31 503.488 446.59 503.488 444.869 502.914 444.296 502.341 443.722 501.193"/><polygon points="464.942 500.62 464.369 501.193 464.942 501.767 465.516 501.193"/><polyline points="475.839 491.444 470.104 491.444 469.531 496.605 470.104 496.032 471.825 495.458 473.545 495.458 475.266 496.032 476.413 497.179 476.986 498.899 476.986 500.046 476.413 501.767 475.266 502.914 473.545 503.488 471.825 503.488 470.104 502.914 469.531 502.341 468.957 501.193"/><polygon points="825.618 21.632 822.387 195.579 987.845 307.149 1010.326 131.889"/><line x1="828.459" x2="828.325" y1="23.358" y2="30.017"/><line x1="833.801" x2="833.698" y1="28.804" y2="33.241"/><polyline points="833.779 29.757 833.226 28.782 832.665 28.125 831.814 27.616 831.24 27.594 830.659 27.89 830.356 28.672 830.342 29.305 830.605 30.424 831.157 31.396 831.716 32.051 832.565 32.561 833.139 32.585 833.721 32.292"/><line x1="835.508" x2="837.106" y1="29.825" y2="35.285"/><polyline points="838.928 31.87 837.106 35.285 836.506 36.208 835.922 36.498 835.347 36.472 835.064 36.302"/><polyline points="840.306 34.63 843.737 36.684 843.755 36.049 843.487 35.242 843.21 34.753 842.646 34.093 841.787 33.579 841.206 33.555 840.617 33.848 840.306 34.63 840.289 35.264 840.548 36.385 841.102 37.361 841.664 38.019 842.521 38.533 843.101 38.56 843.691 38.269"/><line x1="845.801" x2="845.668" y1="35.979" y2="40.421"/><polyline points="845.744 37.886 846.059 37.105 846.653 36.813 847.237 36.838 848.101 37.354"/><polyline points="854.772 40.368 855.362 40.395 856.266 39.958 856.027 46.636"/><polygon points="791.954 42.339 791.954 216.665 957.609 331.441 976.933 156.124"/><line x1="794.797" x2="794.786" y1="44.118" y2="50.8"/><line x1="800.182" x2="800.161" y1="49.671" y2="54.123"/><polyline points="800.178 50.627 799.612 49.639 799.045 48.971 798.194 48.446 797.625 48.415 797.056 48.702 796.77 49.482 796.769 50.118 797.049 51.246 797.613 52.23 798.178 52.897 799.028 53.422 799.596 53.455 800.166 53.171"/><line x1="801.889" x2="803.57" y1="50.723" y2="56.23"/><polyline points="805.311 52.831 803.57 56.23 802.993 57.146 802.421 57.428 801.852 57.394 801.568 57.218"/><polyline points="806.724 55.623 810.157 57.742 810.163 57.105 809.883 56.29 809.6 55.795 809.03 55.123 808.17 54.593 807.595 54.559 807.018 54.844 806.724 55.623 806.719 56.26 806.996 57.39 807.562 58.378 808.13 59.048 808.987 59.578 809.562 59.614 810.141 59.332"/><line x1="812.186" x2="812.135" y1="57.067" y2="61.524"/><polyline points="812.164 58.98 812.462 58.201 813.045 57.918 813.624 57.953 814.487 58.485"/><polyline points="820.56 61.581 820.565 61.261 820.865 60.8 821.16 60.658 821.746 60.695 822.907 61.409 823.482 62.087 823.767 62.586 824.046 63.405 824.034 64.044 823.733 64.504 823.135 65.104 820.189 66.502 824.237 69.005"/><polygon points="757.248 63.687 760.672 238.339 926.465 356.461 942.42 181.171"/><line x1="760.091" x2="760.212" y1="65.52" y2="72.225"/><line x1="765.519" x2="765.586" y1="71.185" y2="75.651"/><polyline points="765.534 72.144 764.956 71.144 764.383 70.463 763.531 69.922 762.969 69.881 762.413 70.159 762.146 70.937 762.157 71.575 762.456 72.711 763.032 73.708 763.603 74.387 764.453 74.929 765.014 74.972 765.572 74.696"/><line x1="767.226" x2="768.994" y1="72.27" y2="77.824"/><polyline points="770.648 74.444 768.994 77.824 768.442 78.734 767.883 79.007 767.32 78.962 767.037 78.781"/><polyline points="772.098 77.27 775.531 79.455 775.525 78.816 775.233 77.994 774.943 77.492 774.367 76.807 773.507 76.261 772.938 76.217 772.373 76.493 772.098 77.27 772.106 77.909 772.402 79.047 772.98 80.048 773.554 80.731 774.411 81.277 774.98 81.323 775.546 81.05"/><line x1="777.523" x2="777.56" y1="78.813" y2="83.284"/><polyline points="777.539 80.732 777.818 79.956 778.388 79.681 778.961 79.727 779.824 80.275"/><polyline points="786.17 82.067 789.364 84.093 787.627 85.554 788.497 86.107 789.078 86.796 789.368 87.301 789.66 88.445 789.661 89.085 789.372 89.858 788.794 90.127 787.926 89.893 787.059 89.34 786.191 88.468 785.901 87.965 785.61 87.143"/><polygon points="606.975 156.124 626.299 331.441 791.954 464.526 791.954 290.368"/><line x1="609.802" x2="610.538" y1="158.203" y2="164.975"/><line x1="615.402" x2="615.879" y1="164.358" y2="168.868"/><polyline points="615.505 165.327 614.871 164.27 614.273 163.537 613.426 162.922 612.897 162.835 612.403 163.071 612.225 163.833 612.295 164.478 612.68 165.648 613.311 166.7 613.908 167.431 614.752 168.047 615.281 168.136 615.777 167.903"/><line x1="617.099" x2="619.266" y1="165.591" y2="171.337"/><polyline points="620.5 168.063 619.266 171.337 618.835 172.209 618.337 172.438 617.807 172.347 617.525 172.141"/><polyline points="622.119 171.032 625.533 173.516 625.468 172.871 625.118 172.018 624.801 171.488 624.198 170.751 623.344 170.13 622.807 170.039 622.304 170.271 622.119 171.032 622.184 171.676 622.567 172.849 623.2 173.906 623.801 174.641 624.653 175.262 625.189 175.355 625.694 175.126"/><line x1="627.337" x2="627.784" y1="173.032" y2="177.544"/><polyline points="627.529 174.969 627.719 174.209 628.227 173.979 628.767 174.071 629.626 174.696"/><line x1="639.202" x2="636.948" y1="179.541" y2="184.222"/><line x1="635.157" x2="639.202" y1="176.605" y2="179.541"/><polygon points="566.255 181.171 590.188 356.461 755.601 493.732 750.894 320.166"/><line x1="569.074" x2="569.989" y1="183.32" y2="190.102"/><line x1="574.717" x2="575.313" y1="189.61" y2="194.126"/><polyline points="574.845 190.58 574.197 189.509 573.591 188.762 572.747 188.126 572.229 188.025 571.753 188.248 571.602 189.005 571.689 189.65 572.098 190.828 572.745 191.896 573.349 192.641 574.19 193.277 574.709 193.38 575.186 193.161"/><line x1="576.408" x2="578.69" y1="190.885" y2="196.679"/><polyline points="579.799 193.441 578.69 196.679 578.294 197.538 577.816 197.755 577.295 197.65 577.014 197.437"/><polyline points="581.464 196.448 584.868 199.016 584.786 198.37 584.42 197.51 584.095 196.972 583.485 196.22 582.633 195.578 582.107 195.474 581.623 195.692 581.464 196.448 581.547 197.093 581.955 198.274 582.603 199.345 583.21 200.095 584.06 200.737 584.586 200.844 585.072 200.629"/><line x1="586.615" x2="587.182" y1="198.579" y2="203.097"/><polyline points="586.858 200.518 587.022 199.764 587.511 199.548 588.041 199.654 588.897 200.3"/><polygon points="595.789 203.432 594.965 203.106 594.756 203.538 594.834 204.186 595.2 205.051 595.813 205.808 597.003 206.998 597.905 207.973 598.558 209.054 598.923 209.917 599.038 210.885 598.827 211.312 598.577 211.417 597.754 211.087 596.606 210.219 595.706 209.247 595.381 208.708 595.016 207.847 594.899 206.88 595.108 206.451 595.604 206.238 596.427 206.565 597.54 207.109 598.077 207.22 598.288 206.789 598.211 206.141 597.846 205.275 596.942 204.299"/><line x1="821.994" x2="821.994" y1="495.458" y2="507.502"/><polyline points="821.994 497.179 823.141 496.032 824.288 495.458 826.009 495.458 827.156 496.032 828.303 497.179 828.876 498.899 828.876 500.046 828.303 501.767 827.156 502.914 826.009 503.488 824.288 503.488 823.141 502.914 821.994 501.767"/><polyline points="838.626 497.179 838.053 496.032 836.332 495.458 834.611 495.458 832.891 496.032 832.317 497.179 832.891 498.326 834.038 498.899 836.905 499.473 838.053 500.046 838.626 501.193 838.626 501.767 838.053 502.914 836.332 503.488 834.611 503.488 832.891 502.914 832.317 501.767"/><polyline points="848.949 497.179 847.802 496.032 846.655 495.458 844.935 495.458 843.788 496.032 842.641 497.179 842.067 498.899 842.067 500.046 842.641 501.767 843.788 502.914 844.935 503.488 846.655 503.488 847.802 502.914 848.949 501.767"/><line x1="859.273" x2="859.273" y1="495.458" y2="503.488"/><polyline points="859.273 497.179 858.126 496.032 856.979 495.458 855.258 495.458 854.111 496.032 852.964 497.179 852.391 498.899 852.391 500.046 852.964 501.767 854.111 502.914 855.258 503.488 856.979 503.488 858.126 502.914 859.273 501.767"/><line x1="863.861" x2="863.861" y1="491.444" y2="503.488"/><polyline points="867.876 498.899 874.758 498.899 874.758 497.752 874.184 496.605 873.611 496.032 872.464 495.458 870.743 495.458 869.596 496.032 868.449 497.179 867.876 498.899 867.876 500.046 868.449 501.767 869.596 502.914 870.743 503.488 872.464 503.488 873.611 502.914 874.758 501.767"/><line x1="887.949" x2="898.272" y1="498.326" y2="498.326"/><line x1="902.861" x2="902.861" y1="491.444" y2="503.488"/><polyline points="921.787 491.444 916.052 499.473 924.654 499.473"/><line x1="921.787" x2="921.787" y1="491.444" y2="503.488"/><polyline points="928.669 501.193 928.096 501.767 927.522 501.193 928.096 500.62 928.669 501.193 928.669 502.341 927.522 503.488"/><polyline points="938.992 491.444 933.257 491.444 932.684 496.605 933.257 496.032 934.978 495.458 936.698 495.458 938.419 496.032 939.566 497.179 940.139 498.899 940.139 500.046 939.566 501.767 938.419 502.914 936.698 503.488 934.978 503.488 933.257 502.914 932.684 502.341 932.11 501.193"/><polyline points="944.728 501.193 944.154 501.767 943.581 501.193 944.154 500.62 944.728 501.193 944.728 502.341 943.581 503.488"/><polyline points="955.625 493.164 955.051 492.017 953.331 491.444 952.183 491.444 950.463 492.017 949.316 493.738 948.742 496.605 948.742 499.473 949.316 501.767 950.463 502.914 952.183 503.488 952.757 503.488 954.478 502.914 955.625 501.767 956.198 500.046 956.198 499.473 955.625 497.752 954.478 496.605 952.757 496.032 952.183 496.032 950.463 496.605 949.316 497.752 948.742 499.473"/><line x1="969.389" x2="979.713" y1="498.326" y2="498.326"/><polygon points="986.595 495.458 985.448 496.032 984.301 497.179 983.727 498.899 983.727 500.046 984.301 501.767 985.448 502.914 986.595 503.488 988.315 503.488 989.462 502.914 990.61 501.767 991.183 500.046 991.183 498.899 990.61 497.179 989.462 496.032 988.315 495.458"/><line x1="1003.801" x2="1006.095" y1="495.458" y2="503.488"/><line x1="1008.389" x2="1006.095" y1="495.458" y2="503.488"/><line x1="1008.389" x2="1010.683" y1="495.458" y2="503.488"/><line x1="1012.977" x2="1010.683" y1="495.458" y2="503.488"/><polygon points="1019.286 495.458 1018.139 496.032 1016.992 497.179 1016.418 498.899 1016.418 500.046 1016.992 501.767 1018.139 502.914 1019.286 503.488 1021.006 503.488 1022.153 502.914 1023.3 501.767 1023.874 500.046 1023.874 498.899 1023.3 497.179 1022.153 496.032 1021.006 495.458"/><line x1="1027.889" x2="1027.889" y1="495.458" y2="503.488"/><polyline points="1027.889 498.899 1028.462 497.179 1029.609 496.032 1030.756 495.458 1032.477 495.458"/><line x1="1035.344" x2="1035.344" y1="491.444" y2="503.488"/><line x1="1046.241" x2="1046.241" y1="491.444" y2="503.488"/><polyline points="1046.241 497.179 1045.094 496.032 1043.947 495.458 1042.226 495.458 1041.08 496.032 1039.932 497.179 1039.359 498.899 1039.359 500.046 1039.932 501.767 1041.08 502.914 1042.226 503.488 1043.947 503.488 1045.094 502.914 1046.241 501.767"/><polygon points="1060.006 500.62 1059.432 501.193 1060.006 501.767 1060.579 501.193"/><polyline points="1070.903 491.444 1065.167 491.444 1064.594 496.605 1065.167 496.032 1066.888 495.458 1068.609 495.458 1070.329 496.032 1071.476 497.179 1072.05 498.899 1072.05 500.046 1071.476 501.767 1070.329 502.914 1068.609 503.488 1066.888 503.488 1065.167 502.914 1064.594 502.341 1064.02 501.193"/><polygon points="1085.241 500.62 1084.667 501.193 1085.241 501.767 1085.814 501.193"/><polyline points="1096.138 491.444 1090.402 491.444 1089.829 496.605 1090.402 496.032 1092.123 495.458 1093.844 495.458 1095.564 496.032 1096.711 497.179 1097.285 498.899 1097.285 500.046 1096.711 501.767 1095.564 502.914 1093.844 503.488 1092.123 503.488 1090.402 502.914 1089.829 502.341 1089.255 501.193"/><polygon points="1110.476 500.62 1109.902 501.193 1110.476 501.767 1111.049 501.193"/><polyline points="1121.373 491.444 1115.637 491.444 1115.064 496.605 1115.637 496.032 1117.358 495.458 1119.079 495.458 1120.799 496.032 1121.946 497.179 1122.52 498.899 1122.52 500.046 1121.946 501.767 1120.799 502.914 1119.079 503.488 1117.358 503.488 1115.637 502.914 1115.064 502.341 1114.49 501.193"/></g><g id="layer10" fill="none" stroke="#080" style="display:inline"><polygon points="210.812 161.636 212.182 249.03 297.256 309.876 300.711 222.428"/><line x1="212.249" x2="212.296" y1="162.622" y2="165.818"/><line x1="214.984" x2="215.012" y1="165.529" y2="167.659"/><polyline points="214.99 165.986 214.7 165.487 214.411 165.141 213.981 164.851 213.697 164.809 213.415 164.92 213.279 165.28 213.283 165.584 213.433 166.137 213.723 166.634 214.011 166.98 214.44 167.271 214.724 167.313 215.006 167.203"/><line x1="215.844" x2="216.731" y1="166.111" y2="168.823"/><polyline points="217.567 167.277 216.731 168.823 216.452 169.237 216.169 169.346 215.885 169.304 215.742 169.207"/><polyline points="218.296 168.676 220.021 169.845 220.018 169.54 219.87 169.138 219.725 168.888 219.436 168.541 219.004 168.249 218.718 168.207 218.434 168.317 218.296 168.676 218.299 168.981 218.448 169.534 218.738 170.033 219.027 170.379 219.458 170.672 219.744 170.714 220.029 170.605"/><line x1="221.019" x2="221.04" y1="169.613" y2="171.744"/><polyline points="221.028 170.527 221.168 170.168 221.453 170.058 221.74 170.101 222.173 170.394"/><polyline points="226.502 172.26 225.069 173.414 227.239 174.884"/><line x1="226.502" x2="226.522" y1="172.26" y2="175.458"/><polygon points="174.876 185.375 178.173 272.821 263.248 335.542 264.776 248.149"/><line x1="176.312" x2="176.43" y1="186.392" y2="189.593"/><line x1="179.07" x2="179.145" y1="189.359" y2="191.492"/><polyline points="179.086 189.817 178.789 189.312 178.497 188.959 178.068 188.659 177.787 188.612 177.512 188.717 177.386 189.074 177.397 189.379 177.556 189.935 177.853 190.44 178.144 190.792 178.573 191.092 178.853 191.14 179.129 191.035"/><line x1="179.929" x2="180.863" y1="189.96" y2="192.694"/><polyline points="181.651 191.163 180.863 192.694 180.597 193.102 180.321 193.205 180.04 193.157 179.897 193.057"/><polyline points="182.399 192.579 184.124 193.785 184.114 193.48 183.96 193.075 183.811 192.822 183.519 192.468 183.087 192.167 182.805 192.118 182.528 192.223 182.399 192.579 182.41 192.884 182.568 193.441 182.865 193.947 183.157 194.3 183.588 194.601 183.871 194.65 184.148 194.547"/><line x1="185.102" x2="185.169" y1="193.574" y2="195.707"/><polyline points="185.131 194.489 185.26 194.132 185.539 194.029 185.822 194.078 186.255 194.38"/><polyline points="190.848 196.542 189.4 195.531 189.295 196.803 189.435 196.752 189.865 196.903 190.299 197.206 190.737 197.662 191.036 198.169 191.193 198.728 191.202 199.032 191.07 199.388 190.789 199.49 190.36 199.339 189.926 199.036 189.489 198.58 189.34 198.327 189.186 197.922"/><polygon points="137.784 209.878 143.128 297.336 228.162 362.021 227.636 274.732"/><line x1="139.219" x2="139.411" y1="210.928" y2="214.131"/><line x1="141.998" x2="142.123" y1="213.958" y2="216.092"/><polyline points="142.025 214.416 141.721 213.904 141.426 213.545 140.997 213.235 140.72 213.181 140.452 213.28 140.337 213.634 140.355 213.939 140.525 214.5 140.829 215.011 141.123 215.369 141.552 215.679 141.828 215.733 142.096 215.635"/><line x1="142.856" x2="143.839" y1="214.578" y2="217.333"/><polyline points="144.576 215.82 143.839 217.333 143.588 217.735 143.32 217.833 143.042 217.778 142.9 217.674"/><polyline points="145.345 217.254 147.068 218.498 147.051 218.193 146.89 217.784 146.738 217.528 146.442 217.168 146.011 216.857 145.732 216.802 145.463 216.9 145.345 217.254 145.363 217.559 145.532 218.119 145.836 218.631 146.131 218.991 146.561 219.302 146.84 219.358 147.11 219.261"/><line x1="148.023" x2="148.141" y1="218.31" y2="220.445"/><polyline points="148.074 219.226 148.192 218.872 148.463 218.774 148.743 218.83 149.175 219.142"/><polyline points="153.907 221.971 153.746 221.561 153.304 221.095 153.015 220.886 152.589 220.726 152.324 220.975 152.22 221.635 152.26 222.397 152.436 223.111 152.741 223.625 153.182 224.09 153.326 224.195 153.751 224.356 154.025 224.26 154.146 223.907 154.138 223.755 153.97 223.193 153.665 222.678 153.223 222.213 153.079 222.108 152.653 221.948 152.38 222.044 152.26 222.397"/><polygon points="817.58 127.384 816.27 214.633 901.273 272.821 907.395 185.375"/><line x1="819.016" x2="818.965" y1="128.326" y2="131.513"/><line x1="821.718" x2="821.681" y1="131.147" y2="133.271"/><polyline points="821.71 131.602 821.429 131.113 821.145 130.776 820.716 130.499 820.427 130.466 820.135 130.584 819.985 130.947 819.98 131.251 820.115 131.798 820.396 132.286 820.68 132.623 821.109 132.9 821.398 132.934 821.689 132.816"/><line x1="822.578" x2="823.4" y1="131.702" y2="134.383"/><polyline points="824.301 132.815 823.4 134.383 823.102 134.803 822.81 134.921 822.521 134.887 822.378 134.794"/><polyline points="825.001 134.19 826.726 135.306 826.732 135.002 826.595 134.605 826.454 134.361 826.169 134.023 825.738 133.744 825.447 133.71 825.154 133.828 825.001 134.19 824.995 134.494 825.13 135.042 825.411 135.531 825.695 135.868 826.126 136.147 826.417 136.181 826.711 136.064"/><line x1="827.753" x2="827.708" y1="135.046" y2="137.171"/><polyline points="827.734 135.957 827.887 135.595 828.182 135.477 828.473 135.511 828.906 135.791"/><polyline points="833.266 137.527 831.769 138.72 833.938 140.123"/><line x1="833.266" x2="833.188" y1="137.527" y2="140.717"/><polygon points="800.561 138.626 800.118 225.932 885.154 284.986 890.415 197.529"/><line x1="801.998" x2="801.979" y1="139.582" y2="142.773"/><line x1="804.711" x2="804.695" y1="142.431" y2="144.557"/><polyline points="804.708 142.887 804.424 142.395 804.138 142.055 803.708 141.773 803.421 141.738 803.133 141.854 802.987 142.216 802.985 142.519 803.125 143.069 803.409 143.56 803.694 143.899 804.123 144.181 804.41 144.218 804.699 144.102"/><line x1="805.572" x2="806.414" y1="142.996" y2="145.687"/><polyline points="807.294 144.126 806.414 145.687 806.122 146.105 805.833 146.22 805.546 146.183 805.403 146.089"/><polyline points="808.004 145.509 809.729 146.641 809.732 146.338 809.591 145.939 809.449 145.693 809.163 145.352 808.731 145.069 808.442 145.032 808.152 145.147 808.004 145.509 808.001 145.813 808.14 146.362 808.424 146.855 808.71 147.195 809.141 147.478 809.43 147.515 809.721 147.401"/><line x1="810.747" x2="810.723" y1="146.391" y2="148.518"/><polyline points="810.737 147.303 810.886 146.941 811.177 146.826 811.467 146.863 811.9 147.147"/><polyline points="816.541 149.116 815.092 148.166 814.929 149.441 815.076 149.384 815.512 149.517 815.946 149.801 816.378 150.238 816.663 150.733 816.801 151.284 816.797 151.588 816.645 151.948 816.352 152.062 815.916 151.929 815.482 151.644 815.051 151.207 814.908 150.961 814.768 150.562"/><polygon points="783.28 150.042 783.73 237.396 868.789 297.336 873.161 209.878"/><line x1="784.716" x2="784.73" y1="151.013" y2="154.206"/><line x1="787.441" x2="787.447" y1="153.891" y2="156.019"/><polyline points="787.442 154.347 787.155 153.852 786.868 153.509 786.438 153.223 786.152 153.184 785.867 153.298 785.726 153.658 785.727 153.962 785.872 154.513 786.159 155.008 786.445 155.351 786.874 155.637 787.16 155.676 787.445 155.563"/><line x1="788.301" x2="789.166" y1="154.464" y2="157.166"/><polyline points="790.024 155.611 789.166 157.166 788.88 157.581 788.594 157.693 788.308 157.654 788.165 157.558"/><polyline points="790.743 157.003 792.468 158.153 792.468 157.849 792.324 157.449 792.181 157.201 791.893 156.857 791.461 156.569 791.174 156.53 790.886 156.642 790.743 157.003 790.743 157.307 790.887 157.858 791.174 158.354 791.462 158.697 791.893 158.985 792.18 159.025 792.468 158.913"/><line x1="793.477" x2="793.475" y1="157.912" y2="160.04"/><polyline points="793.476 158.825 793.62 158.464 793.909 158.352 794.197 158.392 794.63 158.68"/><polyline points="799.403 161.249 799.26 160.847 798.825 160.406 798.536 160.213 798.101 160.076 797.81 160.34 797.662 161.005 797.66 161.766 797.802 162.471 798.09 162.967 798.523 163.408 798.668 163.505 799.102 163.642 799.393 163.531 799.54 163.172 799.54 163.02 799.398 162.467 799.109 161.97 798.676 161.528 798.531 161.432 798.096 161.295 797.806 161.406 797.66 161.766"/></g></svg>