<?xml version="1.0" encoding="utf-8" ?>
<svg xmlns="http://www.w3.org/2000/svg" xmlns:cc="http://creativecommons.org/ns" xmlns:dc="http://purl.org/dc/elements/1.1/" xmlns:ev="http://www.w3.org/2001/xml-events" xmlns:inkscape="http://www.inkscape.org/namespaces/inkscape" xmlns:rdf="http://www.w3.org/1999/02/22-rdf-syntax-ns" xmlns:sodipodi="http://sodipodi.sourceforge.net/DTD/sodipodi-0.dtd" xmlns:xlink="http://www.w3.org/1999/xlink" baseProfile="tiny" height="8.0cm" version="1.2" viewBox="0 0 604.7244094488188 302.3622047244094" width="16.0cm">
  <metadata>
    <rdf:RDF>
      <cc:Work>
        <dc:format>image/svg+xml</dc:format>
        <dc:source>vpype -I figures/fig_ptranslate.vpy write figures/fig_ptranslate.svg
</dc:source>
        <dc:date>2022-03-31T12:23:59.425036</dc:date>
      </cc:Work>
    </rdf:RDF>
  </metadata>
  <defs/>
  <g fill="none" id="layer9" inkscape:groupmode="layer" inkscape:label="9" stroke="#0000ff" style="display:inline">
    <polygon points="151.8643,15.7974 150.1141,110.0444 239.7615,170.4942 251.942,75.5364"/>
    <line x1="153.4039" x2="153.3312" y1="16.7328" y2="20.3408"/>
    <line x1="156.2984" x2="156.2427" y1="19.6837" y2="22.0874"/>
    <polyline points="156.2864,20.1998 155.9866,19.6717 155.6828,19.3156 155.2214,19.0398 154.9103,19.028 154.5958,19.1882 154.4314,19.6117 154.4241,19.955 154.5664,20.5613 154.8656,21.0878 155.1684,21.443 155.6286,21.7191 155.9395,21.7319 156.2546,21.5734"/>
    <line x1="157.223" x2="158.0886" y1="20.2366" y2="23.1948"/>
    <polyline points="159.0763,21.3447 158.0886,23.1948 157.7636,23.6948 157.4476,23.8521 157.1361,23.8384 156.9824,23.7461"/>
    <polyline points="159.8225,22.8398 161.6817,23.953 161.6916,23.609 161.5463,23.1719 161.3959,22.9069 161.0904,22.549 160.625,22.2707 160.3103,22.2576 159.9911,22.4165 159.8225,22.8398 159.8132,23.1834 159.954,23.7911 160.2539,24.3195 160.5585,24.6765 161.0227,24.9549 161.3372,24.9692 161.657,24.8119"/>
    <line x1="162.7997" x2="162.7277" y1="23.571" y2="25.9778"/>
    <polyline points="162.7688,24.604 162.9398,24.1808 163.2615,24.0226 163.5783,24.0365 164.0458,24.3161"/>
    <polyline points="167.6605,25.9488 167.9805,25.9637 168.4703,25.7266 168.3406,29.3449"/>
    <polygon points="133.625,27.0168 133.625,121.469 223.3788,183.6559 233.8491,88.6669"/>
    <line x1="135.1652" x2="135.1594" y1="27.9806" y2="31.6014"/>
    <line x1="138.0829" x2="138.0718" y1="30.9895" y2="33.4016"/>
    <polyline points="138.0806,31.5074 137.7742,30.9724 137.4671,30.61 137.0056,30.3257 136.6976,30.3089 136.3894,30.4647 136.2345,30.8872 136.2336,31.2317 136.3855,31.8427 136.6911,32.376 136.9972,32.7374 137.4575,33.0219 137.7653,33.0399 138.0742,32.8858"/>
    <line x1="139.0079" x2="139.9184" y1="31.5593" y2="34.5431"/>
    <polyline points="140.8619,32.7017 139.9184,34.5431 139.606,35.0397 139.2962,35.1925 138.9877,35.1737 138.8341,35.0786"/>
    <polyline points="141.6275,34.2146 143.4875,35.3622 143.4911,35.0171 143.3393,34.5759 143.1857,34.3074 142.8769,33.9432 142.4113,33.6563 142.0996,33.638 141.7867,33.7924 141.6275,34.2146 141.6246,34.5594 141.775,35.1717 142.0814,35.7071 142.3893,36.0703 142.8537,36.3574 143.1652,36.3768 143.4787,36.2241"/>
    <line x1="144.587" x2="144.5595" y1="34.9968" y2="37.4118"/>
    <polyline points="144.5752,36.0333 144.7367,35.6113 145.0522,35.4576 145.3659,35.4767 145.8337,35.765"/>
    <polyline points="149.1241,37.4426 149.1269,37.2694 149.2895,37.0193 149.4494,36.9426 149.7666,36.9624 150.3957,37.3494 150.7074,37.7166 150.8617,37.9869 151.0129,38.4306 151.0066,38.777 150.843,39.0264 150.5195,39.3515 148.9231,40.109 151.1166,41.4648"/>
    <polygon points="114.821,38.5835 116.6758,133.2124 206.5047,197.2123 215.1492,102.2379"/>
    <line x1="116.3612" x2="116.4267" y1="39.577" y2="43.2097"/>
    <line x1="119.3023" x2="119.3386" y1="42.646" y2="45.066"/>
    <polyline points="119.3101,43.1656 118.997,42.6236 118.6865,42.2547 118.2251,41.9615 117.9206,41.9394 117.6192,42.0904 117.4745,42.5117 117.4803,42.8573 117.6423,43.4728 117.9547,44.0132 118.2641,44.3811 118.7244,44.6745 119.0288,44.6977 119.3308,44.5485"/>
    <line x1="120.2271" x2="121.185" y1="43.2337" y2="46.243"/>
    <polyline points="122.081,44.4119 121.185,46.243 120.8861,46.736 120.5831,46.8839 120.278,46.8596 120.1243,46.7615"/>
    <polyline points="122.8669,45.9431 124.7269,47.1266 124.7237,46.7804 124.5651,46.3351 124.4082,46.063 124.0959,45.6923 123.6303,45.3964 123.322,45.3727 123.0159,45.5222 122.8669,45.9431 122.8708,46.289 123.0313,46.9059 123.3445,47.4483 123.6557,47.8181 124.1201,48.1141 124.4283,48.139 124.735,47.9912"/>
    <line x1="125.8061" x2="125.826" y1="46.779" y2="49.2015"/>
    <polyline points="125.8146,47.8188 125.966,47.3981 126.2747,47.2494 126.585,47.274 127.0529,47.5714"/>
    <polyline points="130.4909,48.5419 132.2215,49.6399 131.2804,50.4311 131.7518,50.7308 132.0665,51.1042 132.2241,51.3777 132.382,51.9978 132.3825,52.3443 132.2261,52.7634 131.9128,52.9091 131.4427,52.782 130.9726,52.4824 130.5024,52.0102 130.3452,51.7377 130.1875,51.2921"/>
    <polygon points="33.4008,88.6669 43.8712,183.6559 133.625,255.7631 133.625,161.4022"/>
    <line x1="34.9326" x2="35.3313" y1="89.7938" y2="93.4628"/>
    <line x1="37.9669" x2="38.2252" y1="93.1284" y2="95.5718"/>
    <polyline points="38.0224,93.6531 37.6794,93.0809 37.3549,92.6837 36.8963,92.3504 36.6096,92.3033 36.3419,92.4311 36.2457,92.8442 36.2833,93.1931 36.4918,93.8271 36.8339,94.3973 37.1573,94.7935 37.6147,95.1268 37.9014,95.1752 38.17,95.0493"/>
    <line x1="38.8861" x2="40.0607" y1="93.7965" y2="96.9094"/>
    <polyline points="40.7292,95.1359 40.0607,96.9094 39.8268,97.3819 39.5572,97.5062 39.2697,97.4568 39.1169,97.3454"/>
    <polyline points="41.6061,96.7444 43.4557,98.0903 43.4207,97.7408 43.2312,97.2788 43.0592,96.9915 42.7327,96.592 42.2697,96.2555 41.9791,96.2064 41.7065,96.3322 41.6061,96.7444 41.6417,97.0936 41.8489,97.7288 42.192,98.3014 42.5174,98.6997 42.9792,99.0363 43.2698,99.0867 43.5432,98.9628"/>
    <line x1="44.4336" x2="44.6758" y1="97.8281" y2="100.2727"/>
    <polyline points="44.5375,98.8774 44.6404,98.4656 44.9156,98.3409 45.2084,98.3912 45.6738,98.7294"/>
    <line x1="50.862" x2="49.6406" y1="101.3544" y2="103.8909"/>
    <line x1="48.6702" x2="50.862" y1="99.7638" y2="101.3544"/>
    <polygon points="11.3386,102.2379 24.3053,197.2123 113.9282,271.5873 111.378,177.5474"/>
    <line x1="12.8657" x2="13.3617" y1="103.4024" y2="107.0768"/>
    <line x1="15.9231" x2="16.2463" y1="106.8103" y2="109.2571"/>
    <polyline points="15.9925,107.3358 15.6412,106.7556 15.3131,106.3505 14.856,106.0059 14.5749,105.9516 14.3174,106.0723 14.2357,106.4824 14.2825,106.8319 14.5044,107.4703 14.8547,108.0486 15.1818,108.4525 15.6377,108.7971 15.9188,108.8527 16.1772,108.7339"/>
    <line x1="16.8394" x2="18.0759" y1="107.5011" y2="110.64"/>
    <polyline points="18.6767,108.886 18.0759,110.64 17.8615,111.1059 17.602,111.2231 17.3201,111.1664 17.1679,111.0511"/>
    <polyline points="19.579,110.5149 21.423,111.9066 21.3787,111.5567 21.1803,111.0903 21.0041,110.799 20.674,110.3916 20.2124,110.0437 19.9273,109.9872 19.665,110.1058 19.579,110.5149 19.6239,110.8646 19.8446,111.5042 20.196,112.0849 20.525,112.4911 20.9854,112.8391 21.2704,112.8969 21.5336,112.7802"/>
    <line x1="22.3697" x2="22.6769" y1="111.6699" y2="114.1175"/>
    <polyline points="22.5015,112.7205 22.59,112.3119 22.8549,112.1945 23.1421,112.2522 23.6062,112.602"/>
    <polygon points="27.3403,114.2991 26.8937,114.1227 26.7803,114.3568 26.8228,114.7079 27.0209,115.1761 27.3535,115.5862 27.9979,116.2315 28.4867,116.7595 28.8404,117.3451 29.0381,117.8128 29.1004,118.3371 28.986,118.5686 28.851,118.6254 28.4048,118.4468 27.7827,117.9766 27.2955,117.4499 27.1191,117.158 26.9215,116.6915 26.858,116.1672 26.9712,115.9347 27.24,115.8193 27.6862,115.9964 28.2888,116.2914 28.5801,116.3514 28.6945,116.1182 28.6527,115.7671 28.4545,115.2979 27.9648,114.7692"/>
    <line x1="149.901" x2="149.901" y1="280.0393" y2="286.5648"/>
    <polyline points="149.901,280.9715 150.5225,280.35 151.1439,280.0393 152.0762,280.0393 152.6977,280.35 153.3191,280.9715 153.6299,281.9037 153.6299,282.5252 153.3191,283.4574 152.6977,284.0789 152.0762,284.3896 151.1439,284.3896 150.5225,284.0789 149.901,283.4574"/>
    <polyline points="156.1158,277.8641 156.1158,283.1467 156.4266,284.0789 157.048,284.3896 157.6695,284.3896"/>
    <line x1="155.1836" x2="157.3588" y1="280.0393" y2="280.0393"/>
    <line x1="159.534" x2="159.534" y1="280.0393" y2="284.3896"/>
    <polyline points="159.534,281.9037 159.8447,280.9715 160.4662,280.35 161.0877,280.0393 162.0199,280.0393"/>
    <line x1="166.9918" x2="166.9918" y1="280.0393" y2="284.3896"/>
    <polyline points="166.9918,280.9715 166.3703,280.35 165.7488,280.0393 164.8166,280.0393 164.1951,280.35 163.5736,280.9715 163.2629,281.9037 163.2629,282.5252 163.5736,283.4574 164.1951,284.0789 164.8166,284.3896 165.7488,284.3896 166.3703,284.0789 166.9918,283.4574"/>
    <line x1="169.4777" x2="169.4777" y1="280.0393" y2="284.3896"/>
    <polyline points="169.4777,281.2822 170.4099,280.35 171.0314,280.0393 171.9637,280.0393 172.5851,280.35 172.8959,281.2822 172.8959,284.3896"/>
    <polyline points="178.4892,280.9715 178.1785,280.35 177.2463,280.0393 176.314,280.0393 175.3818,280.35 175.0711,280.9715 175.3818,281.593 176.0033,281.9037 177.557,282.2145 178.1785,282.5252 178.4892,283.1467 178.4892,283.4574 178.1785,284.0789 177.2463,284.3896 176.314,284.3896 175.3818,284.0789 175.0711,283.4574"/>
    <line x1="180.6644" x2="180.6644" y1="277.8641" y2="284.3896"/>
    <line x1="186.5685" x2="186.5685" y1="280.0393" y2="284.3896"/>
    <polyline points="186.5685,280.9715 185.947,280.35 185.3255,280.0393 184.3933,280.0393 183.7718,280.35 183.1504,280.9715 182.8396,281.9037 182.8396,282.5252 183.1504,283.4574 183.7718,284.0789 184.3933,284.3896 185.3255,284.3896 185.947,284.0789 186.5685,283.4574"/>
    <polyline points="189.3652,277.8641 189.3652,283.1467 189.6759,284.0789 190.2974,284.3896 190.9189,284.3896"/>
    <line x1="188.433" x2="190.6082" y1="280.0393" y2="280.0393"/>
    <polyline points="192.4726,281.9037 196.2015,281.9037 196.2015,281.2822 195.8908,280.6607 195.58,280.35 194.9585,280.0393 194.0263,280.0393 193.4048,280.35 192.7834,280.9715 192.4726,281.9037 192.4726,282.5252 192.7834,283.4574 193.4048,284.0789 194.0263,284.3896 194.9585,284.3896 195.58,284.0789 196.2015,283.4574"/>
    <line x1="203.3486" x2="208.9419" y1="281.593" y2="281.593"/>
    <line x1="211.4279" x2="211.4279" y1="277.8641" y2="284.3896"/>
    <polyline points="221.6823,277.8641 218.5749,282.2145 223.2361,282.2145"/>
    <line x1="221.6823" x2="221.6823" y1="277.8641" y2="284.3896"/>
    <polyline points="225.4112,283.1467 225.1005,283.4574 224.7898,283.1467 225.1005,282.8359 225.4112,283.1467 225.4112,283.7682 224.7898,284.3896"/>
    <polyline points="231.0046,277.8641 227.8972,277.8641 227.5864,280.6607 227.8972,280.35 228.8294,280.0393 229.7616,280.0393 230.6939,280.35 231.3153,280.9715 231.6261,281.9037 231.6261,282.5252 231.3153,283.4574 230.6939,284.0789 229.7616,284.3896 228.8294,284.3896 227.8972,284.0789 227.5864,283.7682 227.2757,283.1467"/>
    <polyline points="234.112,283.1467 233.8013,283.4574 233.4905,283.1467 233.8013,282.8359 234.112,283.1467 234.112,283.7682 233.4905,284.3896"/>
    <polyline points="240.0161,278.7963 239.7054,278.1748 238.7731,277.8641 238.1517,277.8641 237.2194,278.1748 236.5979,279.107 236.2872,280.6607 236.2872,282.2145 236.5979,283.4574 237.2194,284.0789 238.1517,284.3896 238.4624,284.3896 239.3946,284.0789 240.0161,283.4574 240.3269,282.5252 240.3269,282.2145 240.0161,281.2822 239.3946,280.6607 238.4624,280.35 238.1517,280.35 237.2194,280.6607 236.5979,281.2822 236.2872,282.2145"/>
    <polyline points="247.7847,277.8641 251.2028,277.8641 249.3384,280.35 250.2706,280.35 250.8921,280.6607 251.2028,280.9715 251.5136,281.9037 251.5136,282.5252 251.2028,283.4574 250.5813,284.0789 249.6491,284.3896 248.7169,284.3896 247.7847,284.0789 247.4739,283.7682 247.1632,283.1467"/>
    <polyline points="257.1069,280.9715 256.4854,280.35 255.8639,280.0393 254.9317,280.0393 254.3102,280.35 253.6887,280.9715 253.378,281.9037 253.378,282.5252 253.6887,283.4574 254.3102,284.0789 254.9317,284.3896 255.8639,284.3896 256.4854,284.0789 257.1069,283.4574"/>
    <line x1="259.2821" x2="259.2821" y1="280.0393" y2="284.3896"/>
    <polyline points="259.2821,281.2822 260.2143,280.35 260.8358,280.0393 261.768,280.0393 262.3895,280.35 262.7003,281.2822 262.7003,284.3896"/>
    <polyline points="262.7003,281.2822 263.6325,280.35 264.254,280.0393 265.1862,280.0393 265.8077,280.35 266.1184,281.2822 266.1184,284.3896"/>
    <polygon points="275.1299,277.8641 274.1977,278.1748 273.5762,279.107 273.2655,280.6607 273.2655,281.593 273.5762,283.1467 274.1977,284.0789 275.1299,284.3896 275.7514,284.3896 276.6836,284.0789 277.3051,283.1467 277.6159,281.593 277.6159,280.6607 277.3051,279.107 276.6836,278.1748 275.7514,277.8641"/>
    <polygon points="286.3166,277.8641 285.3844,278.1748 284.7629,279.107 284.4522,280.6607 284.4522,281.593 284.7629,283.1467 285.3844,284.0789 286.3166,284.3896 286.9381,284.3896 287.8703,284.0789 288.4918,283.1467 288.8026,281.593 288.8026,280.6607 288.4918,279.107 287.8703,278.1748 286.9381,277.8641"/>
    <polygon points="452.5254,15.7974 450.7751,110.0444 540.4225,170.4942 552.603,75.5364"/>
    <line x1="454.0649" x2="453.9922" y1="16.7328" y2="20.3408"/>
    <line x1="456.9595" x2="456.9037" y1="19.6837" y2="22.0874"/>
    <polyline points="456.9475,20.1998 456.6476,19.6717 456.3438,19.3156 455.8825,19.0398 455.5714,19.028 455.2569,19.1882 455.0925,19.6117 455.0852,19.955 455.2275,20.5613 455.5266,21.0878 455.8295,21.443 456.2896,21.7191 456.6005,21.7319 456.9157,21.5734"/>
    <line x1="457.8841" x2="458.7497" y1="20.2366" y2="23.1948"/>
    <polyline points="459.7374,21.3447 458.7497,23.1948 458.4247,23.6948 458.1086,23.8521 457.7971,23.8384 457.6435,23.7461"/>
    <polyline points="460.4835,22.8398 462.3427,23.953 462.3527,23.609 462.2073,23.1719 462.057,22.9069 461.7515,22.549 461.2861,22.2707 460.9713,22.2576 460.6522,22.4165 460.4835,22.8398 460.4743,23.1834 460.615,23.7911 460.9149,24.3195 461.2195,24.6765 461.6837,24.9549 461.9983,24.9692 462.318,24.8119"/>
    <line x1="463.4608" x2="463.3887" y1="23.571" y2="25.9778"/>
    <polyline points="463.4299,24.604 463.6009,24.1808 463.9225,24.0226 464.2393,24.0365 464.7069,24.3161"/>
    <polyline points="468.3215,25.9488 468.6415,25.9637 469.1313,25.7266 469.0016,29.3449"/>
    <polygon points="434.286,27.0168 434.286,121.469 524.0398,183.6559 534.5101,88.6669"/>
    <line x1="435.8262" x2="435.8205" y1="27.9806" y2="31.6014"/>
    <line x1="438.744" x2="438.7329" y1="30.9895" y2="33.4016"/>
    <polyline points="438.7416,31.5074 438.4353,30.9724 438.1282,30.61 437.6667,30.3257 437.3587,30.3089 437.0505,30.4647 436.8956,30.8872 436.8946,31.2317 437.0465,31.8427 437.3521,32.376 437.6583,32.7374 438.1186,33.0219 438.4264,33.0399 438.7353,32.8858"/>
    <line x1="439.6689" x2="440.5795" y1="31.5593" y2="34.5431"/>
    <polyline points="441.523,32.7017 440.5795,34.5431 440.2671,35.0397 439.9573,35.1925 439.6488,35.1737 439.4951,35.0786"/>
    <polyline points="442.2886,34.2146 444.1486,35.3622 444.1521,35.0171 444.0003,34.5759 443.8468,34.3074 443.5379,33.9432 443.0723,33.6563 442.7606,33.638 442.4477,33.7924 442.2886,34.2146 442.2857,34.5594 442.4361,35.1717 442.7424,35.7071 443.0503,36.0703 443.5147,36.3574 443.8262,36.3768 444.1398,36.2241"/>
    <line x1="445.248" x2="445.2206" y1="34.9968" y2="37.4118"/>
    <polyline points="445.2362,36.0333 445.3978,35.6113 445.7132,35.4576 446.027,35.4767 446.4948,35.765"/>
    <polyline points="449.7852,37.4426 449.788,37.2694 449.9505,37.0193 450.1104,36.9426 450.4276,36.9624 451.0567,37.3494 451.3684,37.7166 451.5228,37.9869 451.6739,38.4306 451.6676,38.777 451.5041,39.0264 451.1805,39.3515 449.5842,40.109 451.7776,41.4648"/>
    <polygon points="415.4821,38.5835 417.3369,133.2124 507.1658,197.2123 515.8103,102.2379"/>
    <line x1="417.0223" x2="417.0877" y1="39.577" y2="43.2097"/>
    <line x1="419.9634" x2="419.9996" y1="42.646" y2="45.066"/>
    <polyline points="419.9711,43.1656 419.6581,42.6236 419.3476,42.2547 418.8862,41.9615 418.5816,41.9394 418.2803,42.0904 418.1355,42.5117 418.1414,42.8573 418.3034,43.4728 418.6157,44.0132 418.9252,44.3811 419.3854,44.6745 419.6898,44.6977 419.9919,44.5485"/>
    <line x1="420.8882" x2="421.8461" y1="43.2337" y2="46.243"/>
    <polyline points="422.7421,44.4119 421.8461,46.243 421.5472,46.736 421.2441,46.8839 420.9391,46.8596 420.7854,46.7615"/>
    <polyline points="423.528,45.9431 425.388,47.1266 425.3848,46.7804 425.2262,46.3351 425.0692,46.063 424.757,45.6923 424.2914,45.3964 423.9831,45.3727 423.677,45.5222 423.528,45.9431 423.5319,46.289 423.6924,46.9059 424.0055,47.4483 424.3168,47.8181 424.7812,48.1141 425.0893,48.139 425.3961,47.9912"/>
    <line x1="426.4671" x2="426.487" y1="46.779" y2="49.2015"/>
    <polyline points="426.4757,47.8188 426.627,47.3981 426.9357,47.2494 427.2461,47.274 427.7139,47.5714"/>
    <polyline points="431.152,48.5419 432.8826,49.6399 431.9414,50.4311 432.4128,50.7308 432.7276,51.1042 432.8851,51.3777 433.0431,51.9978 433.0436,52.3443 432.8872,52.7634 432.5738,52.9091 432.1037,52.782 431.6337,52.4824 431.1634,52.0102 431.0063,51.7377 430.8485,51.2921"/>
    <polygon points="334.0619,88.6669 344.5322,183.6559 434.286,255.7631 434.286,161.4022"/>
    <line x1="335.5936" x2="335.9924" y1="89.7938" y2="93.4628"/>
    <line x1="338.6279" x2="338.8863" y1="93.1284" y2="95.5718"/>
    <polyline points="338.6834,93.6531 338.3404,93.0809 338.0159,92.6837 337.5574,92.3504 337.2706,92.3033 337.0029,92.4311 336.9068,92.8442 336.9443,93.1931 337.1529,93.8271 337.4949,94.3973 337.8183,94.7935 338.2758,95.1268 338.5625,95.1752 338.831,95.0493"/>
    <line x1="339.5472" x2="340.7217" y1="93.7965" y2="96.9094"/>
    <polyline points="341.3903,95.1359 340.7217,96.9094 340.4879,97.3819 340.2182,97.5062 339.9308,97.4568 339.778,97.3454"/>
    <polyline points="342.2671,96.7444 344.1168,98.0903 344.0818,97.7408 343.8922,97.2788 343.7202,96.9915 343.3938,96.592 342.9308,96.2555 342.6401,96.2064 342.3676,96.3322 342.2671,96.7444 342.3028,97.0936 342.51,97.7288 342.853,98.3014 343.1784,98.6997 343.6402,99.0363 343.9308,99.0867 344.2042,98.9628"/>
    <line x1="345.0946" x2="345.3369" y1="97.8281" y2="100.2727"/>
    <polyline points="345.1986,98.8774 345.3014,98.4656 345.5766,98.3409 345.8694,98.3912 346.3348,98.7294"/>
    <line x1="351.5231" x2="350.3017" y1="101.3544" y2="103.8909"/>
    <line x1="349.3313" x2="351.5231" y1="99.7638" y2="101.3544"/>
    <polygon points="311.9996,102.2379 324.9663,197.2123 414.5892,271.5873 412.0391,177.5474"/>
    <line x1="313.5267" x2="314.0228" y1="103.4024" y2="107.0768"/>
    <line x1="316.5841" x2="316.9073" y1="106.8103" y2="109.2571"/>
    <polyline points="316.6535,107.3358 316.3022,106.7556 315.9741,106.3505 315.517,106.0059 315.2359,105.9516 314.9785,106.0723 314.8967,106.4824 314.9435,106.8319 315.1655,107.4703 315.5158,108.0486 315.8428,108.4525 316.2988,108.7971 316.5799,108.8527 316.8382,108.7339"/>
    <line x1="317.5005" x2="318.737" y1="107.5011" y2="110.64"/>
    <polyline points="319.3377,108.886 318.737,110.64 318.5226,111.1059 318.2631,111.2231 317.9812,111.1664 317.8289,111.0511"/>
    <polyline points="320.2401,110.5149 322.0841,111.9066 322.0398,111.5567 321.8414,111.0903 321.6652,110.799 321.335,110.3916 320.8735,110.0437 320.5884,109.9872 320.3261,110.1058 320.2401,110.5149 320.285,110.8646 320.5056,111.5042 320.857,112.0849 321.1861,112.4911 321.6465,112.8391 321.9315,112.8969 322.1947,112.7802"/>
    <line x1="323.0307" x2="323.338" y1="111.6699" y2="114.1175"/>
    <polyline points="323.1626,112.7205 323.251,112.3119 323.516,112.1945 323.8032,112.2522 324.2672,112.602"/>
    <polygon points="328.0014,114.2991 327.5548,114.1227 327.4414,114.3568 327.4839,114.7079 327.682,115.1761 328.0146,115.5862 328.6589,116.2315 329.1477,116.7595 329.5015,117.3451 329.6991,117.8128 329.7615,118.3371 329.6471,118.5686 329.5121,118.6254 329.0658,118.4468 328.4437,117.9766 327.9566,117.4499 327.7801,117.158 327.5826,116.6915 327.5191,116.1672 327.6322,115.9347 327.9011,115.8193 328.3472,115.9964 328.9499,116.2914 329.2411,116.3514 329.3555,116.1182 329.3137,115.7671 329.1156,115.2979 328.6258,114.7692"/>
    <line x1="435.529" x2="435.529" y1="280.0393" y2="286.5648"/>
    <polyline points="435.529,280.9715 436.1505,280.35 436.772,280.0393 437.7042,280.0393 438.3257,280.35 438.9471,280.9715 439.2579,281.9037 439.2579,282.5252 438.9471,283.4574 438.3257,284.0789 437.7042,284.3896 436.772,284.3896 436.1505,284.0789 435.529,283.4574"/>
    <polyline points="441.7438,277.8641 441.7438,283.1467 442.0546,284.0789 442.676,284.3896 443.2975,284.3896"/>
    <line x1="440.8116" x2="442.9868" y1="280.0393" y2="280.0393"/>
    <line x1="445.162" x2="445.162" y1="280.0393" y2="284.3896"/>
    <polyline points="445.162,281.9037 445.4727,280.9715 446.0942,280.35 446.7157,280.0393 447.6479,280.0393"/>
    <line x1="452.6198" x2="452.6198" y1="280.0393" y2="284.3896"/>
    <polyline points="452.6198,280.9715 451.9983,280.35 451.3768,280.0393 450.4446,280.0393 449.8231,280.35 449.2016,280.9715 448.8909,281.9037 448.8909,282.5252 449.2016,283.4574 449.8231,284.0789 450.4446,284.3896 451.3768,284.3896 451.9983,284.0789 452.6198,283.4574"/>
    <line x1="455.1057" x2="455.1057" y1="280.0393" y2="284.3896"/>
    <polyline points="455.1057,281.2822 456.0379,280.35 456.6594,280.0393 457.5917,280.0393 458.2131,280.35 458.5239,281.2822 458.5239,284.3896"/>
    <polyline points="464.1172,280.9715 463.8065,280.35 462.8743,280.0393 461.942,280.0393 461.0098,280.35 460.6991,280.9715 461.0098,281.593 461.6313,281.9037 463.185,282.2145 463.8065,282.5252 464.1172,283.1467 464.1172,283.4574 463.8065,284.0789 462.8743,284.3896 461.942,284.3896 461.0098,284.0789 460.6991,283.4574"/>
    <line x1="466.2924" x2="466.2924" y1="277.8641" y2="284.3896"/>
    <line x1="472.1965" x2="472.1965" y1="280.0393" y2="284.3896"/>
    <polyline points="472.1965,280.9715 471.575,280.35 470.9536,280.0393 470.0213,280.0393 469.3998,280.35 468.7784,280.9715 468.4676,281.9037 468.4676,282.5252 468.7784,283.4574 469.3998,284.0789 470.0213,284.3896 470.9536,284.3896 471.575,284.0789 472.1965,283.4574"/>
    <polyline points="474.9932,277.8641 474.9932,283.1467 475.3039,284.0789 475.9254,284.3896 476.5469,284.3896"/>
    <line x1="474.061" x2="476.2362" y1="280.0393" y2="280.0393"/>
    <polyline points="478.1006,281.9037 481.8295,281.9037 481.8295,281.2822 481.5188,280.6607 481.208,280.35 480.5865,280.0393 479.6543,280.0393 479.0328,280.35 478.4114,280.9715 478.1006,281.9037 478.1006,282.5252 478.4114,283.4574 479.0328,284.0789 479.6543,284.3896 480.5865,284.3896 481.208,284.0789 481.8295,283.4574"/>
    <line x1="488.9766" x2="494.5699" y1="281.593" y2="281.593"/>
    <line x1="497.0559" x2="497.0559" y1="277.8641" y2="284.3896"/>
    <polyline points="507.3103,277.8641 504.2029,282.2145 508.8641,282.2145"/>
    <line x1="507.3103" x2="507.3103" y1="277.8641" y2="284.3896"/>
    <polyline points="511.0392,283.1467 510.7285,283.4574 510.4178,283.1467 510.7285,282.8359 511.0392,283.1467 511.0392,283.7682 510.4178,284.3896"/>
    <polyline points="516.6326,277.8641 513.5252,277.8641 513.2144,280.6607 513.5252,280.35 514.4574,280.0393 515.3896,280.0393 516.3219,280.35 516.9433,280.9715 517.2541,281.9037 517.2541,282.5252 516.9433,283.4574 516.3219,284.0789 515.3896,284.3896 514.4574,284.3896 513.5252,284.0789 513.2144,283.7682 512.9037,283.1467"/>
    <polyline points="519.74,283.1467 519.4293,283.4574 519.1185,283.1467 519.4293,282.8359 519.74,283.1467 519.74,283.7682 519.1185,284.3896"/>
    <polyline points="525.6441,278.7963 525.3334,278.1748 524.4011,277.8641 523.7797,277.8641 522.8474,278.1748 522.226,279.107 521.9152,280.6607 521.9152,282.2145 522.226,283.4574 522.8474,284.0789 523.7797,284.3896 524.0904,284.3896 525.0226,284.0789 525.6441,283.4574 525.9549,282.5252 525.9549,282.2145 525.6441,281.2822 525.0226,280.6607 524.0904,280.35 523.7797,280.35 522.8474,280.6607 522.226,281.2822 521.9152,282.2145"/>
    <line x1="533.1019" x2="538.6953" y1="281.593" y2="281.593"/>
    <line x1="544.5994" x2="544.5994" y1="280.0393" y2="284.3896"/>
    <polyline points="544.5994,280.9715 543.9779,280.35 543.3564,280.0393 542.4242,280.0393 541.8027,280.35 541.1812,280.9715 540.8705,281.9037 540.8705,282.5252 541.1812,283.4574 541.8027,284.0789 542.4242,284.3896 543.3564,284.3896 543.9779,284.0789 544.5994,283.4574"/>
    <polyline points="552.3679,277.8641 555.7861,277.8641 553.9216,280.35 554.8538,280.35 555.4753,280.6607 555.7861,280.9715 556.0968,281.9037 556.0968,282.5252 555.7861,283.4574 555.1646,284.0789 554.2324,284.3896 553.3001,284.3896 552.3679,284.0789 552.0572,283.7682 551.7464,283.1467"/>
    <polyline points="561.6902,280.9715 561.0687,280.35 560.4472,280.0393 559.515,280.0393 558.8935,280.35 558.272,280.9715 557.9613,281.9037 557.9613,282.5252 558.272,283.4574 558.8935,284.0789 559.515,284.3896 560.4472,284.3896 561.0687,284.0789 561.6902,283.4574"/>
    <line x1="563.8654" x2="563.8654" y1="280.0393" y2="284.3896"/>
    <polyline points="563.8654,281.2822 564.7976,280.35 565.4191,280.0393 566.3513,280.0393 566.9728,280.35 567.2835,281.2822 567.2835,284.3896"/>
    <polyline points="567.2835,281.2822 568.2157,280.35 568.8372,280.0393 569.7694,280.0393 570.3909,280.35 570.7017,281.2822 570.7017,284.3896"/>
    <polygon points="579.7132,277.8641 578.781,278.1748 578.1595,279.107 577.8487,280.6607 577.8487,281.593 578.1595,283.1467 578.781,284.0789 579.7132,284.3896 580.3347,284.3896 581.2669,284.0789 581.8884,283.1467 582.1991,281.593 582.1991,280.6607 581.8884,279.107 581.2669,278.1748 580.3347,277.8641"/>
    <polygon points="590.8999,277.8641 589.9677,278.1748 589.3462,279.107 589.0354,280.6607 589.0354,281.593 589.3462,283.1467 589.9677,284.0789 590.8999,284.3896 591.5214,284.3896 592.4536,284.0789 593.0751,283.1467 593.3858,281.593 593.3858,280.6607 593.0751,279.107 592.4536,278.1748 591.5214,277.8641"/>
  </g>
  <g fill="none" id="layer10" inkscape:groupmode="layer" inkscape:label="10" stroke="#008800" style="display:inline">
    <polygon points="123.8446,69.1297 124.8442,164.056 218.8082,232.9513 229.3542,138.2445"/>
    <line x1="125.4588" x2="125.491" y1="70.2036" y2="73.8614"/>
    <line x1="128.5296" x2="128.543" y1="73.4337" y2="75.8699"/>
    <polyline points="128.5325,73.9568 128.2078,73.3963 127.8841,73.0102 127.4004,72.6928 127.0794,72.6558 126.76,72.7931 126.6031,73.21 126.6057,73.5579 126.7703,74.185 127.0942,74.7437 127.4168,75.1287 127.8992,75.4462 128.22,75.4844 128.5401,75.3489"/>
    <line x1="129.4991" x2="130.4786" y1="74.0698" y2="77.1437"/>
    <polyline points="131.4429,75.345 130.4786,77.1437 130.1582,77.6249 129.837,77.7589 129.5154,77.7197 129.3544,77.6135"/>
    <polyline points="132.2562,76.9237 134.2067,78.205 134.2069,77.8565 134.0442,77.4008 133.8814,77.1194 133.5557,76.7312 133.0675,76.4109 132.7424,76.372 132.4178,76.5076 132.2562,76.9237 132.2567,77.2719 132.4197,77.9003 132.7444,78.4612 133.069,78.8484 133.5559,79.1688 133.8808,79.2089 134.2061,79.0752"/>
    <line x1="135.3493" x2="135.3447" y1="77.9079" y2="80.346"/>
    <polyline points="135.3473,78.9544 135.5115,78.5386 135.8389,78.404 136.1663,78.4439 136.657,78.7659"/>
    <polyline points="141.5967,80.775 139.9302,82.1401 142.3997,83.7628"/>
    <line x1="141.5967" x2="141.5648" y1="80.775" y2="84.4393"/>
    <polygon points="103.8037,82.048 106.8963,177.0268 200.9271,248.0388 209.4079,153.5454"/>
    <line x1="105.4174" x2="105.5305" y1="83.1567" y2="86.8224"/>
    <line x1="108.5139" x2="108.5811" y1="86.4558" y2="88.897"/>
    <polyline points="108.5283,86.98 108.1961,86.4118 107.8686,86.0183 107.3852,85.6905 107.0682,85.6469 106.7566,85.7779 106.6113,86.1924 106.6216,86.541 106.7977,87.1727 107.1291,87.739 107.4554,88.1314 107.9376,88.4594 108.2544,88.5042 108.5668,88.375"/>
    <line x1="109.4831" x2="110.516" y1="87.113" y2="90.2128"/>
    <polyline points="111.4261,88.4305 110.516,90.2128 110.211,90.6884 109.8976,90.8161 109.58,90.7702 109.419,90.6606"/>
    <polyline points="112.2623,90.0289 114.2122,91.3527 114.2047,91.0036 114.0344,90.5436 113.8677,90.2583 113.5383,89.8627 113.0502,89.5317 112.7291,89.4861 112.4123,89.6153 112.2623,90.0289 112.2705,90.3778 112.4449,91.0107 112.7772,91.5794 113.1055,91.9739 113.5923,92.305 113.9133,92.3518 114.2308,92.2245"/>
    <line x1="115.3314" x2="115.3807" y1="91.0785" y2="93.5212"/>
    <polyline points="115.3526,92.127 115.5052,91.7137 115.8248,91.5856 116.1482,91.6323 116.6388,91.965"/>
    <polyline points="121.8814,94.3035 120.2309,93.1861 120.0898,94.6513 120.2517,94.5879 120.7431,94.7479 121.2375,95.0831 121.7346,95.5936 122.0691,96.1673 122.2407,96.8035 122.2452,97.1527 122.087,97.5639 121.7622,97.6885 121.271,97.527 120.7779,97.1917 120.2827,96.6825 120.1159,96.3967 119.9465,95.9366"/>
    <polygon points="83.0961,95.396 88.4141,190.3836 182.471,263.6116 188.7378,169.4016"/>
    <line x1="84.7084" x2="84.9077" y1="96.5414" y2="100.2133"/>
    <line x1="87.8305" x2="87.9552" y1="99.9123" y2="102.3575"/>
    <polyline points="87.8573,100.4374 87.5171,99.8613 87.1859,99.4601 86.703,99.1213 86.3904,99.0706 86.0874,99.195 85.9546,99.6066 85.9731,99.9558 86.1613,100.592 86.5005,101.1663 86.8306,101.5663 87.3123,101.9052 87.6247,101.9571 87.9286,101.8347"/>
    <line x1="88.7988" x2="89.8882" y1="100.5916" y2="103.7175"/>
    <polyline points="90.74,101.9535 89.8882,103.7175 89.5999,104.1868 89.2949,104.3076 88.9817,104.2546 88.8209,104.1413"/>
    <polyline points="91.6001,103.5722 93.5483,104.9406 93.5326,104.5909 93.3542,104.1267 93.1836,103.8374 92.8503,103.434 92.3627,103.0919 92.0459,103.0391 91.7376,103.1614 91.6001,103.5722 91.6165,103.9216 91.8031,104.559 92.1433,105.1356 92.4754,105.5378 92.9618,105.88 93.2784,105.9341 93.5875,105.8137"/>
    <line x1="94.6419" x2="94.7487" y1="104.6909" y2="107.1372"/>
    <polyline points="94.6878,105.741 94.8279,105.3307 95.139,105.2096 95.4581,105.2635 95.9483,105.6075"/>
    <polyline points="101.3427,108.7081 101.1647,108.2411 100.663,107.7184 100.3331,107.4872 99.8451,107.3165 99.5359,107.6123 99.405,108.3735 99.4387,109.2483 99.6297,110.0622 99.9713,110.642 100.4705,111.163 100.6348,111.2786 101.1216,111.4512 101.438,111.3338 101.5837,110.9256 101.5774,110.7509 101.3936,110.1104 101.0511,109.5288 100.5503,109.0067 100.3856,108.8911 99.8984,108.7197 99.5828,108.839 99.4387,109.2483"/>
    <polygon points="480.9349,32.7558 476.3653,127.3001 569.9187,190.3836 585.8726,95.396"/>
    <line x1="482.5457" x2="482.3642" y1="33.7342" y2="37.3611"/>
    <line x1="485.5401" x2="485.4112" y1="36.7729" y2="39.189"/>
    <polyline points="485.5124,37.2917 485.2087,36.7532 484.8957,36.3876 484.4128,36.0989 484.0822,36.0795 483.7429,36.2329 483.5558,36.6548 483.5381,36.9999 483.672,37.6131 483.975,38.15 484.2869,38.5146 484.7685,38.8035 485.0989,38.824 485.4388,38.6723"/>
    <line x1="486.5079" x2="487.3433" y1="37.3516" y2="40.3481"/>
    <polyline points="488.448,38.5116 487.3433,40.3481 486.983,40.8429 486.6422,40.9933 486.3111,40.9718 486.1503,40.8752"/>
    <polyline points="489.1986,40.0336 491.1449,41.199 491.1655,40.8533 491.0235,40.4101 490.8712,40.1398 490.5564,39.7723 490.0692,39.481 489.7346,39.46 489.3904,39.6121 489.1986,40.0336 489.1788,40.379 489.3109,40.9936 489.6147,41.5324 489.9285,41.8989 490.4144,42.1904 490.7487,42.2126 491.0936,42.0622"/>
    <line x1="492.346" x2="492.1993" y1="40.8423" y2="43.2612"/>
    <polyline points="492.283,41.8805 492.4773,41.4591 492.8243,41.3079 493.1611,41.3297 493.6507,41.6224"/>
    <polyline points="498.649,43.3469 496.8445,44.7915 499.3073,46.2665"/>
    <line x1="498.649" x2="498.4038" y1="43.3469" y2="46.9833"/>
    <polygon points="480.9349,32.7558 476.3653,127.3001 569.9187,190.3836 585.8726,95.396"/>
    <line x1="482.5457" x2="482.3642" y1="33.7342" y2="37.3611"/>
    <line x1="485.5401" x2="485.4112" y1="36.7729" y2="39.189"/>
    <polyline points="485.5124,37.2917 485.2087,36.7532 484.8957,36.3876 484.4128,36.0989 484.0822,36.0795 483.7429,36.2329 483.5558,36.6548 483.5381,36.9999 483.672,37.6131 483.975,38.15 484.2869,38.5146 484.7685,38.8035 485.0989,38.824 485.4388,38.6723"/>
    <line x1="486.5079" x2="487.3433" y1="37.3516" y2="40.3481"/>
    <polyline points="488.448,38.5116 487.3433,40.3481 486.983,40.8429 486.6422,40.9933 486.3111,40.9718 486.1503,40.8752"/>
    <polyline points="489.1986,40.0336 491.1449,41.199 491.1655,40.8533 491.0235,40.4101 490.8712,40.1398 490.5564,39.7723 490.0692,39.481 489.7346,39.46 489.3904,39.6121 489.1986,40.0336 489.1788,40.379 489.3109,40.9936 489.6147,41.5324 489.9285,41.8989 490.4144,42.1904 490.7487,42.2126 491.0936,42.0622"/>
    <line x1="492.346" x2="492.1993" y1="40.8423" y2="43.2612"/>
    <polyline points="492.283,41.8805 492.4773,41.4591 492.8243,41.3079 493.1611,41.3297 493.6507,41.6224"/>
    <polyline points="498.9785,43.5436 497.3325,42.561 497.0653,44.0244 497.2409,43.9493 497.745,44.0706 498.2381,44.3654 498.7199,44.8338 499.0254,45.3772 499.1546,45.995 499.131,46.3409 498.9314,46.7608 498.5796,46.9092 498.0757,46.7864 497.584,46.4914 497.1039,46.0241 496.9516,45.7534 496.8105,45.3099"/>
    <polygon points="480.9349,32.7558 476.3653,127.3001 569.9187,190.3836 585.8726,95.396"/>
    <line x1="482.5457" x2="482.3642" y1="33.7342" y2="37.3611"/>
    <line x1="485.5401" x2="485.4112" y1="36.7729" y2="39.189"/>
    <polyline points="485.5124,37.2917 485.2087,36.7532 484.8957,36.3876 484.4128,36.0989 484.0822,36.0795 483.7429,36.2329 483.5558,36.6548 483.5381,36.9999 483.672,37.6131 483.975,38.15 484.2869,38.5146 484.7685,38.8035 485.0989,38.824 485.4388,38.6723"/>
    <line x1="486.5079" x2="487.3433" y1="37.3516" y2="40.3481"/>
    <polyline points="488.448,38.5116 487.3433,40.3481 486.983,40.8429 486.6422,40.9933 486.3111,40.9718 486.1503,40.8752"/>
    <polyline points="489.1986,40.0336 491.1449,41.199 491.1655,40.8533 491.0235,40.4101 490.8712,40.1398 490.5564,39.7723 490.0692,39.481 489.7346,39.46 489.3904,39.6121 489.1986,40.0336 489.1788,40.379 489.3109,40.9936 489.6147,41.5324 489.9285,41.8989 490.4144,42.1904 490.7487,42.2126 491.0936,42.0622"/>
    <line x1="492.346" x2="492.1993" y1="40.8423" y2="43.2612"/>
    <polyline points="492.283,41.8805 492.4773,41.4591 492.8243,41.3079 493.1611,41.3297 493.6507,41.6224"/>
    <polyline points="499.1079,44.1632 498.9668,43.7174 498.4843,43.2486 498.155,43.052 497.6498,42.9311 497.2866,43.2556 497.0653,44.0244 497.0084,44.8897 497.1267,45.679 497.4316,46.2206 497.9118,46.6881 498.0757,46.7864 498.5796,46.9092 498.9314,46.7608 499.131,46.3409 499.1428,46.168 499.0137,45.5504 498.7081,45.0071 498.2265,44.5387 498.0621,44.4404 497.5577,44.3189 497.2066,44.4688 497.0084,44.8897"/>
  </g>
</svg>
