<svg xmlns="http://www.w3.org/2000/svg" xmlns:cc="http://creativecommons.org/ns" xmlns:ev="http://www.w3.org/2001/xml-events" xmlns:rdf="http://www.w3.org/1999/02/22-rdf-syntax-ns" xmlns:xlink="http://www.w3.org/1999/xlink" width="30cm" height="7cm" baseProfile="tiny" version="1.2" viewBox="0 0 1133.858 264.567"><metadata><rdf:RDF><cc:Work/></rdf:RDF></metadata><g id="layer6" fill="none" stroke="#00f" style="display:inline"><polygon points="11.339 56.822 11.339 181.75 136.266 181.75 136.266 56.822"/><line x1="13.084" x2="13.084" y1="57.834" y2="60.437"/><line x1="15.439" x2="15.439" y1="58.701" y2="60.437"/><polyline points="15.439 59.073 15.191 58.825 14.943 58.701 14.571 58.701 14.323 58.825 14.075 59.073 13.951 59.445 13.951 59.693 14.075 60.065 14.323 60.313 14.571 60.437 14.943 60.437 15.191 60.313 15.439 60.065"/><line x1="16.183" x2="16.926" y1="58.701" y2="60.437"/><polyline points="17.67 58.701 16.926 60.437 16.678 60.932 16.43 61.18 16.183 61.304 16.058 61.304"/><polyline points="18.29 59.445 19.777 59.445 19.777 59.197 19.653 58.949 19.529 58.825 19.281 58.701 18.909 58.701 18.662 58.825 18.414 59.073 18.29 59.445 18.29 59.693 18.414 60.065 18.662 60.313 18.909 60.437 19.281 60.437 19.529 60.313 19.777 60.065"/><line x1="20.645" x2="20.645" y1="58.701" y2="60.437"/><polyline points="20.645 59.445 20.769 59.073 21.017 58.825 21.265 58.701 21.636 58.701"/><polyline points="24.487 58.33 24.735 58.206 25.107 57.834 25.107 60.437"/><polygon points="14.553 51.465 14.553 187.107 150.194 187.107 150.194 51.465"/><line x1="16.448" x2="16.448" y1="52.563" y2="55.39"/><line x1="19.005" x2="19.005" y1="53.505" y2="55.39"/><polyline points="19.005 53.909 18.735 53.64 18.466 53.505 18.063 53.505 17.793 53.64 17.524 53.909 17.39 54.313 17.39 54.582 17.524 54.986 17.793 55.255 18.063 55.39 18.466 55.39 18.735 55.255 19.005 54.986"/><line x1="19.812" x2="20.62" y1="53.505" y2="55.39"/><polyline points="21.427 53.505 20.62 55.39 20.35 55.928 20.081 56.197 19.812 56.332 19.677 56.332"/><polyline points="22.1 54.313 23.715 54.313 23.715 54.044 23.58 53.775 23.446 53.64 23.177 53.505 22.773 53.505 22.504 53.64 22.235 53.909 22.1 54.313 22.1 54.582 22.235 54.986 22.504 55.255 22.773 55.39 23.177 55.39 23.446 55.255 23.715 54.986"/><line x1="24.657" x2="24.657" y1="53.505" y2="55.39"/><polyline points="24.657 54.313 24.792 53.909 25.061 53.64 25.33 53.505 25.734 53.505"/><polyline points="28.56 53.236 28.56 53.102 28.695 52.833 28.829 52.698 29.098 52.563 29.637 52.563 29.906 52.698 30.04 52.833 30.175 53.102 30.175 53.371 30.04 53.64 29.771 54.044 28.425 55.39 30.309 55.39"/><polygon points="18.37 45.103 18.37 193.469 166.736 193.469 166.736 45.103"/><line x1="20.442" x2="20.442" y1="46.304" y2="49.396"/><line x1="23.239" x2="23.239" y1="47.335" y2="49.396"/><polyline points="23.239 47.776 22.945 47.482 22.651 47.335 22.209 47.335 21.915 47.482 21.62 47.776 21.473 48.218 21.473 48.512 21.62 48.954 21.915 49.248 22.209 49.396 22.651 49.396 22.945 49.248 23.239 48.954"/><line x1="24.123" x2="25.006" y1="47.335" y2="49.396"/><polyline points="25.889 47.335 25.006 49.396 24.712 49.984 24.417 50.279 24.123 50.426 23.975 50.426"/><polyline points="26.625 48.218 28.392 48.218 28.392 47.924 28.244 47.629 28.097 47.482 27.803 47.335 27.361 47.335 27.067 47.482 26.772 47.776 26.625 48.218 26.625 48.512 26.772 48.954 27.067 49.248 27.361 49.396 27.803 49.396 28.097 49.248 28.392 48.954"/><line x1="29.422" x2="29.422" y1="47.335" y2="49.396"/><polyline points="29.422 48.218 29.569 47.776 29.864 47.482 30.158 47.335 30.6 47.335"/><polyline points="33.838 46.304 35.458 46.304 34.574 47.482 35.016 47.482 35.31 47.629 35.458 47.776 35.605 48.218 35.605 48.512 35.458 48.954 35.163 49.248 34.721 49.396 34.28 49.396 33.838 49.248 33.691 49.101 33.544 48.807"/><polygon points="22.977 37.424 22.977 201.148 186.702 201.148 186.702 37.424"/><line x1="25.265" x2="25.265" y1="38.749" y2="42.161"/><line x1="28.351" x2="28.351" y1="39.887" y2="42.161"/><polyline points="28.351 40.374 28.026 40.049 27.701 39.887 27.214 39.887 26.889 40.049 26.564 40.374 26.402 40.861 26.402 41.186 26.564 41.673 26.889 41.998 27.214 42.161 27.701 42.161 28.026 41.998 28.351 41.673"/><line x1="29.326" x2="30.3" y1="39.887" y2="42.161"/><polyline points="31.275 39.887 30.3 42.161 29.975 42.811 29.651 43.136 29.326 43.298 29.163 43.298"/><polyline points="32.087 40.861 34.036 40.861 34.036 40.536 33.874 40.212 33.712 40.049 33.387 39.887 32.899 39.887 32.575 40.049 32.25 40.374 32.087 40.861 32.087 41.186 32.25 41.673 32.575 41.998 32.899 42.161 33.387 42.161 33.712 41.998 34.036 41.673"/><line x1="35.174" x2="35.174" y1="39.887" y2="42.161"/><polyline points="35.174 40.861 35.336 40.374 35.661 40.049 35.986 39.887 36.473 39.887"/><polyline points="41.347 38.749 39.722 41.024 42.159 41.024"/><line x1="41.347" x2="41.347" y1="38.749" y2="42.161"/><polygon points="28.649 27.972 28.649 210.601 211.278 210.601 211.278 27.972"/><line x1="31.2" x2="31.2" y1="29.45" y2="33.255"/><line x1="34.643" x2="34.643" y1="30.718" y2="33.255"/><polyline points="34.643 31.262 34.281 30.899 33.918 30.718 33.375 30.718 33.012 30.899 32.65 31.262 32.469 31.805 32.469 32.168 32.65 32.712 33.012 33.074 33.375 33.255 33.918 33.255 34.281 33.074 34.643 32.712"/><line x1="35.73" x2="36.817" y1="30.718" y2="33.255"/><polyline points="37.905 30.718 36.817 33.255 36.455 33.98 36.093 34.342 35.73 34.523 35.549 34.523"/><polyline points="38.811 31.805 40.985 31.805 40.985 31.443 40.804 31.081 40.623 30.899 40.26 30.718 39.717 30.718 39.354 30.899 38.992 31.262 38.811 31.805 38.811 32.168 38.992 32.712 39.354 33.074 39.717 33.255 40.26 33.255 40.623 33.074 40.985 32.712"/><line x1="42.254" x2="42.254" y1="30.718" y2="33.255"/><polyline points="42.254 31.805 42.435 31.262 42.797 30.899 43.16 30.718 43.703 30.718"/><polyline points="49.502 29.45 47.69 29.45 47.508 31.081 47.69 30.899 48.233 30.718 48.777 30.718 49.32 30.899 49.683 31.262 49.864 31.805 49.864 32.168 49.683 32.712 49.32 33.074 48.777 33.255 48.233 33.255 47.69 33.074 47.508 32.893 47.327 32.53"/><line x1="39.027" x2="39.027" y1="226.448" y2="233.213"/><polyline points="39.027 228.381 40.476 226.931 41.443 226.448 42.892 226.448 43.859 226.931 44.342 228.381 44.342 233.213"/><polyline points="44.342 228.381 45.791 226.931 46.758 226.448 48.208 226.448 49.174 226.931 49.657 228.381 49.657 233.213"/><polygon points="55.456 226.448 54.489 226.931 53.523 227.898 53.04 229.347 53.04 230.314 53.523 231.763 54.489 232.73 55.456 233.213 56.905 233.213 57.872 232.73 58.838 231.763 59.321 230.314 59.321 229.347 58.838 227.898 57.872 226.931 56.905 226.448"/><line x1="61.737" x2="64.636" y1="226.448" y2="233.213"/><line x1="67.536" x2="64.636" y1="226.448" y2="233.213"/><polyline points="69.952 229.347 75.75 229.347 75.75 228.381 75.267 227.414 74.784 226.931 73.817 226.448 72.368 226.448 71.401 226.931 70.435 227.898 69.952 229.347 69.952 230.314 70.435 231.763 71.401 232.73 72.368 233.213 73.817 233.213 74.784 232.73 75.75 231.763"/><line x1="86.864" x2="95.562" y1="227.414" y2="227.414"/><line x1="86.864" x2="95.562" y1="230.314" y2="230.314"/><polyline points="110.541 221.133 109.575 222.099 108.608 223.549 107.642 225.482 107.159 227.898 107.159 229.83 107.642 232.246 108.608 234.179 109.575 235.629 110.541 236.595"/><line x1="113.924" x2="122.621" y1="228.864" y2="228.864"/><polygon points="128.42 223.065 126.97 223.549 126.487 224.515 126.487 225.482 126.97 226.448 127.937 226.931 129.869 227.414 131.319 227.898 132.286 228.864 132.769 229.83 132.769 231.28 132.286 232.246 131.802 232.73 130.353 233.213 128.42 233.213 126.97 232.73 126.487 232.246 126.004 231.28 126.004 229.83 126.487 228.864 127.453 227.898 128.903 227.414 130.836 226.931 131.802 226.448 132.286 225.482 132.286 224.515 131.802 223.549 130.353 223.065"/><polyline points="141.466 227.898 140.5 226.931 139.534 226.448 138.084 226.448 137.118 226.931 136.151 227.898 135.668 229.347 135.668 230.314 136.151 231.763 137.118 232.73 138.084 233.213 139.534 233.213 140.5 232.73 141.466 231.763"/><line x1="144.849" x2="144.849" y1="226.448" y2="233.213"/><polyline points="144.849 228.381 146.298 226.931 147.265 226.448 148.714 226.448 149.681 226.931 150.164 228.381 150.164 233.213"/><polyline points="150.164 228.381 151.614 226.931 152.58 226.448 154.03 226.448 154.996 226.931 155.479 228.381 155.479 233.213"/><polyline points="159.828 231.28 159.345 231.763 158.862 231.28 159.345 230.797 159.828 231.28 159.828 232.246 158.862 233.213"/><polygon points="173.358 223.065 171.908 223.549 170.942 224.998 170.459 227.414 170.459 228.864 170.942 231.28 171.908 232.73 173.358 233.213 174.324 233.213 175.774 232.73 176.74 231.28 177.224 228.864 177.224 227.414 176.74 224.998 175.774 223.549 174.324 223.065"/><polyline points="181.089 231.28 180.606 231.763 180.123 231.28 180.606 230.797 181.089 231.28 181.089 232.246 180.123 233.213"/><polygon points="194.619 223.065 193.169 223.549 192.203 224.998 191.72 227.414 191.72 228.864 192.203 231.28 193.169 232.73 194.619 233.213 195.585 233.213 197.035 232.73 198.001 231.28 198.485 228.864 198.485 227.414 198.001 224.998 197.035 223.549 195.585 223.065"/><polyline points="201.384 221.133 202.35 222.099 203.317 223.549 204.283 225.482 204.766 227.898 204.766 229.83 204.283 232.246 203.317 234.179 202.35 235.629 201.384 236.595"/><polygon points="262.23 56.822 262.23 181.75 387.157 181.75 387.157 56.822"/><line x1="263.975" x2="263.975" y1="57.834" y2="60.437"/><line x1="266.33" x2="266.33" y1="58.701" y2="60.437"/><polyline points="266.33 59.073 266.082 58.825 265.834 58.701 265.462 58.701 265.214 58.825 264.966 59.073 264.842 59.445 264.842 59.693 264.966 60.065 265.214 60.313 265.462 60.437 265.834 60.437 266.082 60.313 266.33 60.065"/><line x1="267.073" x2="267.817" y1="58.701" y2="60.437"/><polyline points="268.561 58.701 267.817 60.437 267.569 60.932 267.321 61.18 267.073 61.304 266.95 61.304"/><polyline points="269.181 59.445 270.668 59.445 270.668 59.197 270.544 58.949 270.42 58.825 270.172 58.701 269.8 58.701 269.553 58.825 269.305 59.073 269.181 59.445 269.181 59.693 269.305 60.065 269.553 60.313 269.8 60.437 270.172 60.437 270.42 60.313 270.668 60.065"/><line x1="271.536" x2="271.536" y1="58.701" y2="60.437"/><polyline points="271.536 59.445 271.66 59.073 271.908 58.825 272.156 58.701 272.527 58.701"/><polyline points="275.378 58.33 275.626 58.206 275.998 57.834 275.998 60.437"/><polygon points="261.158 51.465 261.158 187.107 396.8 187.107 396.8 51.465"/><line x1="263.053" x2="263.053" y1="52.563" y2="55.39"/><line x1="265.61" x2="265.61" y1="53.505" y2="55.39"/><polyline points="265.61 53.909 265.341 53.64 265.072 53.505 264.668 53.505 264.399 53.64 264.13 53.909 263.995 54.313 263.995 54.582 264.13 54.986 264.399 55.255 264.668 55.39 265.072 55.39 265.341 55.255 265.61 54.986"/><line x1="266.418" x2="267.225" y1="53.505" y2="55.39"/><polyline points="268.032 53.505 267.225 55.39 266.956 55.928 266.687 56.197 266.418 56.332 266.283 56.332"/><polyline points="268.705 54.313 270.32 54.313 270.32 54.044 270.186 53.775 270.051 53.64 269.782 53.505 269.378 53.505 269.109 53.64 268.84 53.909 268.705 54.313 268.705 54.582 268.84 54.986 269.109 55.255 269.378 55.39 269.782 55.39 270.051 55.255 270.32 54.986"/><line x1="271.262" x2="271.262" y1="53.505" y2="55.39"/><polyline points="271.262 54.313 271.397 53.909 271.666 53.64 271.935 53.505 272.339 53.505"/><polyline points="275.165 53.236 275.165 53.102 275.3 52.833 275.435 52.698 275.704 52.563 276.242 52.563 276.511 52.698 276.646 52.833 276.78 53.102 276.78 53.371 276.646 53.64 276.377 54.044 275.031 55.39 276.915 55.39"/><polygon points="259.886 45.103 259.886 193.469 408.251 193.469 408.251 45.103"/><line x1="261.958" x2="261.958" y1="46.304" y2="49.396"/><line x1="264.755" x2="264.755" y1="47.335" y2="49.396"/><polyline points="264.755 47.776 264.461 47.482 264.166 47.335 263.725 47.335 263.43 47.482 263.136 47.776 262.989 48.218 262.989 48.512 263.136 48.954 263.43 49.248 263.725 49.396 264.166 49.396 264.461 49.248 264.755 48.954"/><line x1="265.638" x2="266.522" y1="47.335" y2="49.396"/><polyline points="267.405 47.335 266.522 49.396 266.227 49.984 265.933 50.279 265.638 50.426 265.491 50.426"/><polyline points="268.141 48.218 269.907 48.218 269.907 47.924 269.76 47.629 269.613 47.482 269.319 47.335 268.877 47.335 268.582 47.482 268.288 47.776 268.141 48.218 268.141 48.512 268.288 48.954 268.582 49.248 268.877 49.396 269.319 49.396 269.613 49.248 269.907 48.954"/><line x1="270.938" x2="270.938" y1="47.335" y2="49.396"/><polyline points="270.938 48.218 271.085 47.776 271.38 47.482 271.674 47.335 272.115 47.335"/><polyline points="275.354 46.304 276.973 46.304 276.09 47.482 276.532 47.482 276.826 47.629 276.973 47.776 277.12 48.218 277.12 48.512 276.973 48.954 276.679 49.248 276.237 49.396 275.796 49.396 275.354 49.248 275.207 49.101 275.06 48.807"/><polygon points="258.35 37.424 258.35 201.148 422.074 201.148 422.074 37.424"/><line x1="260.637" x2="260.637" y1="38.749" y2="42.161"/><line x1="263.723" x2="263.723" y1="39.887" y2="42.161"/><polyline points="263.723 40.374 263.399 40.049 263.074 39.887 262.586 39.887 262.261 40.049 261.937 40.374 261.774 40.861 261.774 41.186 261.937 41.673 262.261 41.998 262.586 42.161 263.074 42.161 263.399 41.998 263.723 41.673"/><line x1="264.698" x2="265.673" y1="39.887" y2="42.161"/><polyline points="266.647 39.887 265.673 42.161 265.348 42.811 265.023 43.136 264.698 43.298 264.536 43.298"/><polyline points="267.46 40.861 269.409 40.861 269.409 40.536 269.247 40.212 269.084 40.049 268.759 39.887 268.272 39.887 267.947 40.049 267.622 40.374 267.46 40.861 267.46 41.186 267.622 41.673 267.947 41.998 268.272 42.161 268.759 42.161 269.084 41.998 269.409 41.673"/><line x1="270.546" x2="270.546" y1="39.887" y2="42.161"/><polyline points="270.546 40.861 270.709 40.374 271.033 40.049 271.358 39.887 271.846 39.887"/><polyline points="276.719 38.749 275.094 41.024 277.531 41.024"/><line x1="276.719" x2="276.719" y1="38.749" y2="42.161"/><polygon points="256.459 27.972 256.459 210.601 439.089 210.601 439.089 27.972"/><line x1="259.01" x2="259.01" y1="29.45" y2="33.255"/><line x1="262.453" x2="262.453" y1="30.718" y2="33.255"/><polyline points="262.453 31.262 262.091 30.899 261.728 30.718 261.185 30.718 260.822 30.899 260.46 31.262 260.279 31.805 260.279 32.168 260.46 32.712 260.822 33.074 261.185 33.255 261.728 33.255 262.091 33.074 262.453 32.712"/><line x1="263.541" x2="264.628" y1="30.718" y2="33.255"/><polyline points="265.715 30.718 264.628 33.255 264.265 33.98 263.903 34.342 263.541 34.523 263.359 34.523"/><polyline points="266.621 31.805 268.795 31.805 268.795 31.443 268.614 31.081 268.433 30.899 268.071 30.718 267.527 30.718 267.165 30.899 266.802 31.262 266.621 31.805 266.621 32.168 266.802 32.712 267.165 33.074 267.527 33.255 268.071 33.255 268.433 33.074 268.795 32.712"/><line x1="270.064" x2="270.064" y1="30.718" y2="33.255"/><polyline points="270.064 31.805 270.245 31.262 270.608 30.899 270.97 30.718 271.514 30.718"/><polyline points="277.312 29.45 275.5 29.45 275.319 31.081 275.5 30.899 276.043 30.718 276.587 30.718 277.131 30.899 277.493 31.262 277.674 31.805 277.674 32.168 277.493 32.712 277.131 33.074 276.587 33.255 276.043 33.255 275.5 33.074 275.319 32.893 275.137 32.53"/><line x1="266.837" x2="266.837" y1="226.448" y2="233.213"/><polyline points="266.837 228.381 268.287 226.931 269.253 226.448 270.703 226.448 271.669 226.931 272.152 228.381 272.152 233.213"/><polyline points="272.152 228.381 273.602 226.931 274.568 226.448 276.018 226.448 276.984 226.931 277.467 228.381 277.467 233.213"/><polygon points="283.266 226.448 282.3 226.931 281.333 227.898 280.85 229.347 280.85 230.314 281.333 231.763 282.3 232.73 283.266 233.213 284.716 233.213 285.682 232.73 286.648 231.763 287.132 230.314 287.132 229.347 286.648 227.898 285.682 226.931 284.716 226.448"/><line x1="289.548" x2="292.447" y1="226.448" y2="233.213"/><line x1="295.346" x2="292.447" y1="226.448" y2="233.213"/><polyline points="297.762 229.347 303.561 229.347 303.561 228.381 303.077 227.414 302.594 226.931 301.628 226.448 300.178 226.448 299.212 226.931 298.245 227.898 297.762 229.347 297.762 230.314 298.245 231.763 299.212 232.73 300.178 233.213 301.628 233.213 302.594 232.73 303.561 231.763"/><line x1="314.674" x2="323.372" y1="227.414" y2="227.414"/><line x1="314.674" x2="323.372" y1="230.314" y2="230.314"/><polyline points="338.351 221.133 337.385 222.099 336.419 223.549 335.452 225.482 334.969 227.898 334.969 229.83 335.452 232.246 336.419 234.179 337.385 235.629 338.351 236.595"/><line x1="341.734" x2="350.432" y1="228.864" y2="228.864"/><polyline points="358.646 223.065 353.814 229.83 361.062 229.83"/><line x1="358.646" x2="358.646" y1="223.065" y2="233.213"/><polyline points="369.277 227.898 368.31 226.931 367.344 226.448 365.894 226.448 364.928 226.931 363.962 227.898 363.478 229.347 363.478 230.314 363.962 231.763 364.928 232.73 365.894 233.213 367.344 233.213 368.31 232.73 369.277 231.763"/><line x1="372.659" x2="372.659" y1="226.448" y2="233.213"/><polyline points="372.659 228.381 374.109 226.931 375.075 226.448 376.525 226.448 377.491 226.931 377.974 228.381 377.974 233.213"/><polyline points="377.974 228.381 379.424 226.931 380.39 226.448 381.84 226.448 382.807 226.931 383.29 228.381 383.29 233.213"/><polyline points="387.639 231.28 387.155 231.763 386.672 231.28 387.155 230.797 387.639 231.28 387.639 232.246 386.672 233.213"/><polygon points="401.168 223.065 399.719 223.549 398.752 224.998 398.269 227.414 398.269 228.864 398.752 231.28 399.719 232.73 401.168 233.213 402.135 233.213 403.584 232.73 404.551 231.28 405.034 228.864 405.034 227.414 404.551 224.998 403.584 223.549 402.135 223.065"/><polyline points="408.9 231.28 408.416 231.763 407.933 231.28 408.416 230.797 408.9 231.28 408.9 232.246 407.933 233.213"/><polygon points="422.429 223.065 420.98 223.549 420.013 224.998 419.53 227.414 419.53 228.864 420.013 231.28 420.98 232.73 422.429 233.213 423.396 233.213 424.846 232.73 425.812 231.28 426.295 228.864 426.295 227.414 425.812 224.998 424.846 223.549 423.396 223.065"/><polyline points="429.194 221.133 430.161 222.099 431.127 223.549 432.094 225.482 432.577 227.898 432.577 229.83 432.094 232.246 431.127 234.179 430.161 235.629 429.194 236.595"/><polygon points="504.465 56.822 504.465 181.75 629.393 181.75 629.393 56.822"/><line x1="506.21" x2="506.21" y1="57.834" y2="60.437"/><line x1="508.565" x2="508.565" y1="58.701" y2="60.437"/><polyline points="508.565 59.073 508.318 58.825 508.07 58.701 507.698 58.701 507.45 58.825 507.202 59.073 507.078 59.445 507.078 59.693 507.202 60.065 507.45 60.313 507.698 60.437 508.07 60.437 508.318 60.313 508.565 60.065"/><line x1="509.309" x2="510.053" y1="58.701" y2="60.437"/><polyline points="510.797 58.701 510.053 60.437 509.805 60.932 509.557 61.18 509.309 61.304 509.185 61.304"/><polyline points="511.416 59.445 512.904 59.445 512.904 59.197 512.78 58.949 512.656 58.825 512.408 58.701 512.036 58.701 511.788 58.825 511.54 59.073 511.416 59.445 511.416 59.693 511.54 60.065 511.788 60.313 512.036 60.437 512.408 60.437 512.656 60.313 512.904 60.065"/><line x1="513.771" x2="513.771" y1="58.701" y2="60.437"/><polyline points="513.771 59.445 513.895 59.073 514.143 58.825 514.391 58.701 514.763 58.701"/><polyline points="517.614 58.33 517.862 58.206 518.234 57.834 518.234 60.437"/><polygon points="499.108 51.465 499.108 187.107 634.75 187.107 634.75 51.465"/><line x1="501.003" x2="501.003" y1="52.563" y2="55.39"/><line x1="503.56" x2="503.56" y1="53.505" y2="55.39"/><polyline points="503.56 53.909 503.291 53.64 503.022 53.505 502.618 53.505 502.349 53.64 502.08 53.909 501.945 54.313 501.945 54.582 502.08 54.986 502.349 55.255 502.618 55.39 503.022 55.39 503.291 55.255 503.56 54.986"/><line x1="504.368" x2="505.175" y1="53.505" y2="55.39"/><polyline points="505.983 53.505 505.175 55.39 504.906 55.928 504.637 56.197 504.368 56.332 504.233 56.332"/><polyline points="506.656 54.313 508.271 54.313 508.271 54.044 508.136 53.775 508.001 53.64 507.732 53.505 507.328 53.505 507.059 53.64 506.79 53.909 506.656 54.313 506.656 54.582 506.79 54.986 507.059 55.255 507.328 55.39 507.732 55.39 508.001 55.255 508.271 54.986"/><line x1="509.213" x2="509.213" y1="53.505" y2="55.39"/><polyline points="509.213 54.313 509.347 53.909 509.616 53.64 509.885 53.505 510.289 53.505"/><polyline points="513.115 53.236 513.115 53.102 513.25 52.833 513.385 52.698 513.654 52.563 514.192 52.563 514.461 52.698 514.596 52.833 514.73 53.102 514.73 53.371 514.596 53.64 514.327 54.044 512.981 55.39 514.865 55.39"/><polygon points="492.746 45.103 492.746 193.469 641.112 193.469 641.112 45.103"/><line x1="494.819" x2="494.819" y1="46.304" y2="49.396"/><line x1="497.616" x2="497.616" y1="47.335" y2="49.396"/><polyline points="497.616 47.776 497.321 47.482 497.027 47.335 496.585 47.335 496.291 47.482 495.996 47.776 495.849 48.218 495.849 48.512 495.996 48.954 496.291 49.248 496.585 49.396 497.027 49.396 497.321 49.248 497.616 48.954"/><line x1="498.499" x2="499.382" y1="47.335" y2="49.396"/><polyline points="500.265 47.335 499.382 49.396 499.088 49.984 498.793 50.279 498.499 50.426 498.352 50.426"/><polyline points="501.002 48.218 502.768 48.218 502.768 47.924 502.621 47.629 502.474 47.482 502.179 47.335 501.738 47.335 501.443 47.482 501.149 47.776 501.002 48.218 501.002 48.512 501.149 48.954 501.443 49.248 501.738 49.396 502.179 49.396 502.474 49.248 502.768 48.954"/><line x1="503.798" x2="503.798" y1="47.335" y2="49.396"/><polyline points="503.798 48.218 503.946 47.776 504.24 47.482 504.534 47.335 504.976 47.335"/><polyline points="508.215 46.304 509.834 46.304 508.951 47.482 509.392 47.482 509.687 47.629 509.834 47.776 509.981 48.218 509.981 48.512 509.834 48.954 509.539 49.248 509.098 49.396 508.656 49.396 508.215 49.248 508.067 49.101 507.92 48.807"/><polygon points="485.067 37.424 485.067 201.148 648.791 201.148 648.791 37.424"/><line x1="487.354" x2="487.354" y1="38.749" y2="42.161"/><line x1="490.441" x2="490.441" y1="39.887" y2="42.161"/><polyline points="490.441 40.374 490.116 40.049 489.791 39.887 489.303 39.887 488.979 40.049 488.654 40.374 488.491 40.861 488.491 41.186 488.654 41.673 488.979 41.998 489.303 42.161 489.791 42.161 490.116 41.998 490.441 41.673"/><line x1="491.415" x2="492.39" y1="39.887" y2="42.161"/><polyline points="493.365 39.887 492.39 42.161 492.065 42.811 491.74 43.136 491.415 43.298 491.253 43.298"/><polyline points="494.177 40.861 496.126 40.861 496.126 40.536 495.964 40.212 495.801 40.049 495.476 39.887 494.989 39.887 494.664 40.049 494.339 40.374 494.177 40.861 494.177 41.186 494.339 41.673 494.664 41.998 494.989 42.161 495.476 42.161 495.801 41.998 496.126 41.673"/><line x1="497.263" x2="497.263" y1="39.887" y2="42.161"/><polyline points="497.263 40.861 497.426 40.374 497.751 40.049 498.075 39.887 498.563 39.887"/><polyline points="503.436 38.749 501.812 41.024 504.248 41.024"/><line x1="503.436" x2="503.436" y1="38.749" y2="42.161"/><polygon points="475.615 27.972 475.615 210.601 658.244 210.601 658.244 27.972"/><line x1="478.166" x2="478.166" y1="29.45" y2="33.255"/><line x1="481.608" x2="481.608" y1="30.718" y2="33.255"/><polyline points="481.608 31.262 481.246 30.899 480.884 30.718 480.34 30.718 479.978 30.899 479.615 31.262 479.434 31.805 479.434 32.168 479.615 32.712 479.978 33.074 480.34 33.255 480.884 33.255 481.246 33.074 481.608 32.712"/><line x1="482.696" x2="483.783" y1="30.718" y2="33.255"/><polyline points="484.87 30.718 483.783 33.255 483.421 33.98 483.058 34.342 482.696 34.523 482.514 34.523"/><polyline points="485.776 31.805 487.95 31.805 487.95 31.443 487.769 31.081 487.588 30.899 487.226 30.718 486.682 30.718 486.32 30.899 485.957 31.262 485.776 31.805 485.776 32.168 485.957 32.712 486.32 33.074 486.682 33.255 487.226 33.255 487.588 33.074 487.95 32.712"/><line x1="489.219" x2="489.219" y1="30.718" y2="33.255"/><polyline points="489.219 31.805 489.4 31.262 489.763 30.899 490.125 30.718 490.669 30.718"/><polyline points="496.467 29.45 494.655 29.45 494.474 31.081 494.655 30.899 495.199 30.718 495.742 30.718 496.286 30.899 496.648 31.262 496.829 31.805 496.829 32.168 496.648 32.712 496.286 33.074 495.742 33.255 495.199 33.255 494.655 33.074 494.474 32.893 494.293 32.53"/><line x1="492.274" x2="492.274" y1="226.448" y2="233.213"/><polyline points="492.274 228.381 493.723 226.931 494.69 226.448 496.139 226.448 497.106 226.931 497.589 228.381 497.589 233.213"/><polyline points="497.589 228.381 499.039 226.931 500.005 226.448 501.455 226.448 502.421 226.931 502.904 228.381 502.904 233.213"/><polygon points="508.703 226.448 507.736 226.931 506.77 227.898 506.287 229.347 506.287 230.314 506.77 231.763 507.736 232.73 508.703 233.213 510.152 233.213 511.119 232.73 512.085 231.763 512.568 230.314 512.568 229.347 512.085 227.898 511.119 226.931 510.152 226.448"/><line x1="514.984" x2="517.884" y1="226.448" y2="233.213"/><line x1="520.783" x2="517.884" y1="226.448" y2="233.213"/><polyline points="523.199 229.347 528.997 229.347 528.997 228.381 528.514 227.414 528.031 226.931 527.065 226.448 525.615 226.448 524.649 226.931 523.682 227.898 523.199 229.347 523.199 230.314 523.682 231.763 524.649 232.73 525.615 233.213 527.065 233.213 528.031 232.73 528.997 231.763"/><line x1="540.111" x2="548.809" y1="227.414" y2="227.414"/><line x1="540.111" x2="548.809" y1="230.314" y2="230.314"/><polyline points="563.788 221.133 562.822 222.099 561.856 223.549 560.889 225.482 560.406 227.898 560.406 229.83 560.889 232.246 561.856 234.179 562.822 235.629 563.788 236.595"/><polygon points="569.587 223.065 568.137 223.549 567.171 224.998 566.688 227.414 566.688 228.864 567.171 231.28 568.137 232.73 569.587 233.213 570.553 233.213 572.003 232.73 572.969 231.28 573.452 228.864 573.452 227.414 572.969 224.998 572.003 223.549 570.553 223.065"/><polyline points="582.15 227.898 581.184 226.931 580.217 226.448 578.768 226.448 577.801 226.931 576.835 227.898 576.352 229.347 576.352 230.314 576.835 231.763 577.801 232.73 578.768 233.213 580.217 233.213 581.184 232.73 582.15 231.763"/><line x1="585.533" x2="585.533" y1="226.448" y2="233.213"/><polyline points="585.533 228.381 586.982 226.931 587.949 226.448 589.398 226.448 590.365 226.931 590.848 228.381 590.848 233.213"/><polyline points="590.848 228.381 592.298 226.931 593.264 226.448 594.713 226.448 595.68 226.931 596.163 228.381 596.163 233.213"/><polyline points="600.512 231.28 600.029 231.763 599.546 231.28 600.029 230.797 600.512 231.28 600.512 232.246 599.546 233.213"/><polygon points="614.042 223.065 612.592 223.549 611.626 224.998 611.143 227.414 611.143 228.864 611.626 231.28 612.592 232.73 614.042 233.213 615.008 233.213 616.458 232.73 617.424 231.28 617.907 228.864 617.907 227.414 617.424 224.998 616.458 223.549 615.008 223.065"/><polyline points="621.773 231.28 621.29 231.763 620.807 231.28 621.29 230.797 621.773 231.28 621.773 232.246 620.807 233.213"/><polygon points="635.303 223.065 633.853 223.549 632.887 224.998 632.404 227.414 632.404 228.864 632.887 231.28 633.853 232.73 635.303 233.213 636.269 233.213 637.719 232.73 638.685 231.28 639.168 228.864 639.168 227.414 638.685 224.998 637.719 223.549 636.269 223.065"/><polyline points="642.068 221.133 643.034 222.099 644.001 223.549 644.967 225.482 645.45 227.898 645.45 229.83 644.967 232.246 644.001 234.179 643.034 235.629 642.068 236.595"/><polygon points="746.701 56.822 746.701 181.75 871.629 181.75 871.629 56.822"/><line x1="748.446" x2="748.446" y1="57.834" y2="60.437"/><line x1="750.801" x2="750.801" y1="58.701" y2="60.437"/><polyline points="750.801 59.073 750.553 58.825 750.305 58.701 749.934 58.701 749.686 58.825 749.438 59.073 749.314 59.445 749.314 59.693 749.438 60.065 749.686 60.313 749.934 60.437 750.305 60.437 750.553 60.313 750.801 60.065"/><line x1="751.545" x2="752.289" y1="58.701" y2="60.437"/><polyline points="753.032 58.701 752.289 60.437 752.041 60.932 751.793 61.18 751.545 61.304 751.421 61.304"/><polyline points="753.652 59.445 755.139 59.445 755.139 59.197 755.016 58.949 754.892 58.825 754.644 58.701 754.272 58.701 754.024 58.825 753.776 59.073 753.652 59.445 753.652 59.693 753.776 60.065 754.024 60.313 754.272 60.437 754.644 60.437 754.892 60.313 755.139 60.065"/><line x1="756.007" x2="756.007" y1="58.701" y2="60.437"/><polyline points="756.007 59.445 756.131 59.073 756.379 58.825 756.627 58.701 756.999 58.701"/><polyline points="759.85 58.33 760.098 58.206 760.469 57.834 760.469 60.437"/><polygon points="737.058 51.465 737.058 187.107 872.7 187.107 872.7 51.465"/><line x1="738.953" x2="738.953" y1="52.563" y2="55.39"/><line x1="741.51" x2="741.51" y1="53.505" y2="55.39"/><polyline points="741.51 53.909 741.241 53.64 740.972 53.505 740.568 53.505 740.299 53.64 740.03 53.909 739.895 54.313 739.895 54.582 740.03 54.986 740.299 55.255 740.568 55.39 740.972 55.39 741.241 55.255 741.51 54.986"/><line x1="742.318" x2="743.125" y1="53.505" y2="55.39"/><polyline points="743.933 53.505 743.125 55.39 742.856 55.928 742.587 56.197 742.318 56.332 742.183 56.332"/><polyline points="744.606 54.313 746.221 54.313 746.221 54.044 746.086 53.775 745.952 53.64 745.682 53.505 745.279 53.505 745.009 53.64 744.74 53.909 744.606 54.313 744.606 54.582 744.74 54.986 745.009 55.255 745.279 55.39 745.682 55.39 745.952 55.255 746.221 54.986"/><line x1="747.163" x2="747.163" y1="53.505" y2="55.39"/><polyline points="747.163 54.313 747.297 53.909 747.567 53.64 747.836 53.505 748.239 53.505"/><polyline points="751.066 53.236 751.066 53.102 751.2 52.833 751.335 52.698 751.604 52.563 752.142 52.563 752.411 52.698 752.546 52.833 752.681 53.102 752.681 53.371 752.546 53.64 752.277 54.044 750.931 55.39 752.815 55.39"/><polygon points="725.607 45.103 725.607 193.469 873.972 193.469 873.972 45.103"/><line x1="727.679" x2="727.679" y1="46.304" y2="49.396"/><line x1="730.476" x2="730.476" y1="47.335" y2="49.396"/><polyline points="730.476 47.776 730.182 47.482 729.887 47.335 729.446 47.335 729.151 47.482 728.857 47.776 728.71 48.218 728.71 48.512 728.857 48.954 729.151 49.248 729.446 49.396 729.887 49.396 730.182 49.248 730.476 48.954"/><line x1="731.36" x2="732.243" y1="47.335" y2="49.396"/><polyline points="733.126 47.335 732.243 49.396 731.948 49.984 731.654 50.279 731.36 50.426 731.212 50.426"/><polyline points="733.862 48.218 735.629 48.218 735.629 47.924 735.481 47.629 735.334 47.482 735.04 47.335 734.598 47.335 734.304 47.482 734.009 47.776 733.862 48.218 733.862 48.512 734.009 48.954 734.304 49.248 734.598 49.396 735.04 49.396 735.334 49.248 735.629 48.954"/><line x1="736.659" x2="736.659" y1="47.335" y2="49.396"/><polyline points="736.659 48.218 736.806 47.776 737.101 47.482 737.395 47.335 737.837 47.335"/><polyline points="741.075 46.304 742.694 46.304 741.811 47.482 742.253 47.482 742.547 47.629 742.694 47.776 742.842 48.218 742.842 48.512 742.694 48.954 742.4 49.248 741.958 49.396 741.517 49.396 741.075 49.248 740.928 49.101 740.781 48.807"/><polygon points="711.784 37.424 711.784 201.148 875.508 201.148 875.508 37.424"/><line x1="714.071" x2="714.071" y1="38.749" y2="42.161"/><line x1="717.158" x2="717.158" y1="39.887" y2="42.161"/><polyline points="717.158 40.374 716.833 40.049 716.508 39.887 716.021 39.887 715.696 40.049 715.371 40.374 715.208 40.861 715.208 41.186 715.371 41.673 715.696 41.998 716.021 42.161 716.508 42.161 716.833 41.998 717.158 41.673"/><line x1="718.133" x2="719.107" y1="39.887" y2="42.161"/><polyline points="720.082 39.887 719.107 42.161 718.782 42.811 718.457 43.136 718.133 43.298 717.97 43.298"/><polyline points="720.894 40.861 722.843 40.861 722.843 40.536 722.681 40.212 722.519 40.049 722.194 39.887 721.706 39.887 721.381 40.049 721.057 40.374 720.894 40.861 720.894 41.186 721.057 41.673 721.381 41.998 721.706 42.161 722.194 42.161 722.519 41.998 722.843 41.673"/><line x1="723.981" x2="723.981" y1="39.887" y2="42.161"/><polyline points="723.981 40.861 724.143 40.374 724.468 40.049 724.793 39.887 725.28 39.887"/><polyline points="730.153 38.749 728.529 41.024 730.966 41.024"/><line x1="730.153" x2="730.153" y1="38.749" y2="42.161"/><polygon points="694.77 27.972 694.77 210.601 877.399 210.601 877.399 27.972"/><line x1="697.321" x2="697.321" y1="29.45" y2="33.255"/><line x1="700.764" x2="700.764" y1="30.718" y2="33.255"/><polyline points="700.764 31.262 700.401 30.899 700.039 30.718 699.495 30.718 699.133 30.899 698.77 31.262 698.589 31.805 698.589 32.168 698.77 32.712 699.133 33.074 699.495 33.255 700.039 33.255 700.401 33.074 700.764 32.712"/><line x1="701.851" x2="702.938" y1="30.718" y2="33.255"/><polyline points="704.025 30.718 702.938 33.255 702.576 33.98 702.213 34.342 701.851 34.523 701.67 34.523"/><polyline points="704.931 31.805 707.106 31.805 707.106 31.443 706.924 31.081 706.743 30.899 706.381 30.718 705.837 30.718 705.475 30.899 705.112 31.262 704.931 31.805 704.931 32.168 705.112 32.712 705.475 33.074 705.837 33.255 706.381 33.255 706.743 33.074 707.106 32.712"/><line x1="708.374" x2="708.374" y1="30.718" y2="33.255"/><polyline points="708.374 31.805 708.555 31.262 708.918 30.899 709.28 30.718 709.824 30.718"/><polyline points="715.622 29.45 713.81 29.45 713.629 31.081 713.81 30.899 714.354 30.718 714.897 30.718 715.441 30.899 715.803 31.262 715.985 31.805 715.985 32.168 715.803 32.712 715.441 33.074 714.897 33.255 714.354 33.255 713.81 33.074 713.629 32.893 713.448 32.53"/><line x1="711.429" x2="711.429" y1="226.448" y2="233.213"/><polyline points="711.429 228.381 712.878 226.931 713.845 226.448 715.294 226.448 716.261 226.931 716.744 228.381 716.744 233.213"/><polyline points="716.744 228.381 718.194 226.931 719.16 226.448 720.61 226.448 721.576 226.931 722.059 228.381 722.059 233.213"/><polygon points="727.858 226.448 726.891 226.931 725.925 227.898 725.442 229.347 725.442 230.314 725.925 231.763 726.891 232.73 727.858 233.213 729.308 233.213 730.274 232.73 731.24 231.763 731.723 230.314 731.723 229.347 731.24 227.898 730.274 226.931 729.308 226.448"/><line x1="734.139" x2="737.039" y1="226.448" y2="233.213"/><line x1="739.938" x2="737.039" y1="226.448" y2="233.213"/><polyline points="742.354 229.347 748.153 229.347 748.153 228.381 747.669 227.414 747.186 226.931 746.22 226.448 744.77 226.448 743.804 226.931 742.837 227.898 742.354 229.347 742.354 230.314 742.837 231.763 743.804 232.73 744.77 233.213 746.22 233.213 747.186 232.73 748.153 231.763"/><line x1="759.266" x2="767.964" y1="227.414" y2="227.414"/><line x1="759.266" x2="767.964" y1="230.314" y2="230.314"/><polyline points="782.943 221.133 781.977 222.099 781.011 223.549 780.044 225.482 779.561 227.898 779.561 229.83 780.044 232.246 781.011 234.179 781.977 235.629 782.943 236.595"/><polyline points="790.675 223.065 785.843 229.83 793.091 229.83"/><line x1="790.675" x2="790.675" y1="223.065" y2="233.213"/><polyline points="801.305 227.898 800.339 226.931 799.372 226.448 797.923 226.448 796.956 226.931 795.99 227.898 795.507 229.347 795.507 230.314 795.99 231.763 796.956 232.73 797.923 233.213 799.372 233.213 800.339 232.73 801.305 231.763"/><line x1="804.688" x2="804.688" y1="226.448" y2="233.213"/><polyline points="804.688 228.381 806.137 226.931 807.104 226.448 808.553 226.448 809.52 226.931 810.003 228.381 810.003 233.213"/><polyline points="810.003 228.381 811.453 226.931 812.419 226.448 813.869 226.448 814.835 226.931 815.318 228.381 815.318 233.213"/><polyline points="819.667 231.28 819.184 231.763 818.701 231.28 819.184 230.797 819.667 231.28 819.667 232.246 818.701 233.213"/><polygon points="833.197 223.065 831.747 223.549 830.781 224.998 830.298 227.414 830.298 228.864 830.781 231.28 831.747 232.73 833.197 233.213 834.163 233.213 835.613 232.73 836.579 231.28 837.063 228.864 837.063 227.414 836.579 224.998 835.613 223.549 834.163 223.065"/><polyline points="840.928 231.28 840.445 231.763 839.962 231.28 840.445 230.797 840.928 231.28 840.928 232.246 839.962 233.213"/><polygon points="854.458 223.065 853.008 223.549 852.042 224.998 851.559 227.414 851.559 228.864 852.042 231.28 853.008 232.73 854.458 233.213 855.424 233.213 856.874 232.73 857.84 231.28 858.324 228.864 858.324 227.414 857.84 224.998 856.874 223.549 855.424 223.065"/><polyline points="861.223 221.133 862.189 222.099 863.156 223.549 864.122 225.482 864.605 227.898 864.605 229.83 864.122 232.246 863.156 234.179 862.189 235.629 861.223 236.595"/><polygon points="997.592 56.822 997.592 181.75 1122.52 181.75 1122.52 56.822"/><line x1="999.337" x2="999.337" y1="57.834" y2="60.437"/><line x1="1001.692" x2="1001.692" y1="58.701" y2="60.437"/><polyline points="1001.692 59.073 1001.444 58.825 1001.196 58.701 1000.824 58.701 1000.577 58.825 1000.329 59.073 1000.205 59.445 1000.205 59.693 1000.329 60.065 1000.577 60.313 1000.824 60.437 1001.196 60.437 1001.444 60.313 1001.692 60.065"/><line x1="1002.436" x2="1003.18" y1="58.701" y2="60.437"/><polyline points="1003.923 58.701 1003.18 60.437 1002.932 60.932 1002.684 61.18 1002.436 61.304 1002.312 61.304"/><polyline points="1004.543 59.445 1006.03 59.445 1006.03 59.197 1005.907 58.949 1005.783 58.825 1005.535 58.701 1005.163 58.701 1004.915 58.825 1004.667 59.073 1004.543 59.445 1004.543 59.693 1004.667 60.065 1004.915 60.313 1005.163 60.437 1005.535 60.437 1005.783 60.313 1006.03 60.065"/><line x1="1006.898" x2="1006.898" y1="58.701" y2="60.437"/><polyline points="1006.898 59.445 1007.022 59.073 1007.27 58.825 1007.518 58.701 1007.89 58.701"/><polyline points="1010.741 58.33 1010.989 58.206 1011.36 57.834 1011.36 60.437"/><polygon points="983.664 51.465 983.664 187.107 1119.305 187.107 1119.305 51.465"/><line x1="985.559" x2="985.559" y1="52.563" y2="55.39"/><line x1="988.116" x2="988.116" y1="53.505" y2="55.39"/><polyline points="988.116 53.909 987.846 53.64 987.577 53.505 987.174 53.505 986.904 53.64 986.635 53.909 986.501 54.313 986.501 54.582 986.635 54.986 986.904 55.255 987.174 55.39 987.577 55.39 987.846 55.255 988.116 54.986"/><line x1="988.923" x2="989.731" y1="53.505" y2="55.39"/><polyline points="990.538 53.505 989.731 55.39 989.462 55.928 989.192 56.197 988.923 56.332 988.789 56.332"/><polyline points="991.211 54.313 992.826 54.313 992.826 54.044 992.692 53.775 992.557 53.64 992.288 53.505 991.884 53.505 991.615 53.64 991.346 53.909 991.211 54.313 991.211 54.582 991.346 54.986 991.615 55.255 991.884 55.39 992.288 55.39 992.557 55.255 992.826 54.986"/><line x1="993.768" x2="993.768" y1="53.505" y2="55.39"/><polyline points="993.768 54.313 993.903 53.909 994.172 53.64 994.441 53.505 994.845 53.505"/><polyline points="997.671 53.236 997.671 53.102 997.806 52.833 997.94 52.698 998.209 52.563 998.748 52.563 999.017 52.698 999.151 52.833 999.286 53.102 999.286 53.371 999.151 53.64 998.882 54.044 997.536 55.39 999.421 55.39"/><polygon points="967.123 45.103 967.123 193.469 1115.488 193.469 1115.488 45.103"/><line x1="969.195" x2="969.195" y1="46.304" y2="49.396"/><line x1="971.992" x2="971.992" y1="47.335" y2="49.396"/><polyline points="971.992 47.776 971.698 47.482 971.403 47.335 970.962 47.335 970.667 47.482 970.373 47.776 970.226 48.218 970.226 48.512 970.373 48.954 970.667 49.248 970.962 49.396 971.403 49.396 971.698 49.248 971.992 48.954"/><line x1="972.875" x2="973.759" y1="47.335" y2="49.396"/><polyline points="974.642 47.335 973.759 49.396 973.464 49.984 973.17 50.279 972.875 50.426 972.728 50.426"/><polyline points="975.378 48.218 977.144 48.218 977.144 47.924 976.997 47.629 976.85 47.482 976.555 47.335 976.114 47.335 975.819 47.482 975.525 47.776 975.378 48.218 975.378 48.512 975.525 48.954 975.819 49.248 976.114 49.396 976.555 49.396 976.85 49.248 977.144 48.954"/><line x1="978.175" x2="978.175" y1="47.335" y2="49.396"/><polyline points="978.175 48.218 978.322 47.776 978.616 47.482 978.911 47.335 979.352 47.335"/><polyline points="982.591 46.304 984.21 46.304 983.327 47.482 983.769 47.482 984.063 47.629 984.21 47.776 984.357 48.218 984.357 48.512 984.21 48.954 983.916 49.248 983.474 49.396 983.033 49.396 982.591 49.248 982.444 49.101 982.297 48.807"/><polygon points="947.157 37.424 947.157 201.148 1110.881 201.148 1110.881 37.424"/><line x1="949.444" x2="949.444" y1="38.749" y2="42.161"/><line x1="952.53" x2="952.53" y1="39.887" y2="42.161"/><polyline points="952.53 40.374 952.205 40.049 951.88 39.887 951.393 39.887 951.068 40.049 950.743 40.374 950.581 40.861 950.581 41.186 950.743 41.673 951.068 41.998 951.393 42.161 951.88 42.161 952.205 41.998 952.53 41.673"/><line x1="953.505" x2="954.48" y1="39.887" y2="42.161"/><polyline points="955.454 39.887 954.48 42.161 954.155 42.811 953.83 43.136 953.505 43.298 953.342 43.298"/><polyline points="956.266 40.861 958.216 40.861 958.216 40.536 958.053 40.212 957.891 40.049 957.566 39.887 957.079 39.887 956.754 40.049 956.429 40.374 956.266 40.861 956.266 41.186 956.429 41.673 956.754 41.998 957.079 42.161 957.566 42.161 957.891 41.998 958.216 41.673"/><line x1="959.353" x2="959.353" y1="39.887" y2="42.161"/><polyline points="959.353 40.861 959.515 40.374 959.84 40.049 960.165 39.887 960.653 39.887"/><polyline points="965.526 38.749 963.901 41.024 966.338 41.024"/><line x1="965.526" x2="965.526" y1="38.749" y2="42.161"/><polygon points="922.58 27.972 922.58 210.601 1105.209 210.601 1105.209 27.972"/><line x1="925.131" x2="925.131" y1="29.45" y2="33.255"/><line x1="928.574" x2="928.574" y1="30.718" y2="33.255"/><polyline points="928.574 31.262 928.212 30.899 927.849 30.718 927.306 30.718 926.943 30.899 926.581 31.262 926.399 31.805 926.399 32.168 926.581 32.712 926.943 33.074 927.306 33.255 927.849 33.255 928.212 33.074 928.574 32.712"/><line x1="929.661" x2="930.748" y1="30.718" y2="33.255"/><polyline points="931.836 30.718 930.748 33.255 930.386 33.98 930.024 34.342 929.661 34.523 929.48 34.523"/><polyline points="932.742 31.805 934.916 31.805 934.916 31.443 934.735 31.081 934.554 30.899 934.191 30.718 933.648 30.718 933.285 30.899 932.923 31.262 932.742 31.805 932.742 32.168 932.923 32.712 933.285 33.074 933.648 33.255 934.191 33.255 934.554 33.074 934.916 32.712"/><line x1="936.184" x2="936.184" y1="30.718" y2="33.255"/><polyline points="936.184 31.805 936.366 31.262 936.728 30.899 937.09 30.718 937.634 30.718"/><polyline points="943.433 29.45 941.62 29.45 941.439 31.081 941.62 30.899 942.164 30.718 942.708 30.718 943.251 30.899 943.614 31.262 943.795 31.805 943.795 32.168 943.614 32.712 943.251 33.074 942.708 33.255 942.164 33.255 941.62 33.074 941.439 32.893 941.258 32.53"/><line x1="939.239" x2="939.239" y1="226.448" y2="233.213"/><polyline points="939.239 228.381 940.689 226.931 941.655 226.448 943.105 226.448 944.071 226.931 944.554 228.381 944.554 233.213"/><polyline points="944.554 228.381 946.004 226.931 946.971 226.448 948.42 226.448 949.386 226.931 949.87 228.381 949.87 233.213"/><polygon points="955.668 226.448 954.702 226.931 953.735 227.898 953.252 229.347 953.252 230.314 953.735 231.763 954.702 232.73 955.668 233.213 957.118 233.213 958.084 232.73 959.051 231.763 959.534 230.314 959.534 229.347 959.051 227.898 958.084 226.931 957.118 226.448"/><line x1="961.95" x2="964.849" y1="226.448" y2="233.213"/><line x1="967.748" x2="964.849" y1="226.448" y2="233.213"/><polyline points="970.164 229.347 975.963 229.347 975.963 228.381 975.48 227.414 974.996 226.931 974.03 226.448 972.58 226.448 971.614 226.931 970.648 227.898 970.164 229.347 970.164 230.314 970.648 231.763 971.614 232.73 972.58 233.213 974.03 233.213 974.996 232.73 975.963 231.763"/><line x1="987.077" x2="995.774" y1="227.414" y2="227.414"/><line x1="987.077" x2="995.774" y1="230.314" y2="230.314"/><polyline points="1010.754 221.133 1009.787 222.099 1008.821 223.549 1007.855 225.482 1007.371 227.898 1007.371 229.83 1007.855 232.246 1008.821 234.179 1009.787 235.629 1010.754 236.595"/><polygon points="1016.069 223.065 1014.619 223.549 1014.136 224.515 1014.136 225.482 1014.619 226.448 1015.586 226.931 1017.519 227.414 1018.968 227.898 1019.935 228.864 1020.418 229.83 1020.418 231.28 1019.935 232.246 1019.452 232.73 1018.002 233.213 1016.069 233.213 1014.619 232.73 1014.136 232.246 1013.653 231.28 1013.653 229.83 1014.136 228.864 1015.103 227.898 1016.552 227.414 1018.485 226.931 1019.452 226.448 1019.935 225.482 1019.935 224.515 1019.452 223.549 1018.002 223.065"/><polyline points="1029.116 227.898 1028.149 226.931 1027.183 226.448 1025.733 226.448 1024.767 226.931 1023.8 227.898 1023.317 229.347 1023.317 230.314 1023.8 231.763 1024.767 232.73 1025.733 233.213 1027.183 233.213 1028.149 232.73 1029.116 231.763"/><line x1="1032.498" x2="1032.498" y1="226.448" y2="233.213"/><polyline points="1032.498 228.381 1033.948 226.931 1034.914 226.448 1036.364 226.448 1037.33 226.931 1037.813 228.381 1037.813 233.213"/><polyline points="1037.813 228.381 1039.263 226.931 1040.229 226.448 1041.679 226.448 1042.645 226.931 1043.129 228.381 1043.129 233.213"/><polyline points="1047.477 231.28 1046.994 231.763 1046.511 231.28 1046.994 230.797 1047.477 231.28 1047.477 232.246 1046.511 233.213"/><polygon points="1061.007 223.065 1059.558 223.549 1058.591 224.998 1058.108 227.414 1058.108 228.864 1058.591 231.28 1059.558 232.73 1061.007 233.213 1061.974 233.213 1063.423 232.73 1064.39 231.28 1064.873 228.864 1064.873 227.414 1064.39 224.998 1063.423 223.549 1061.974 223.065"/><polyline points="1068.738 231.28 1068.255 231.763 1067.772 231.28 1068.255 230.797 1068.738 231.28 1068.738 232.246 1067.772 233.213"/><polygon points="1082.268 223.065 1080.819 223.549 1079.852 224.998 1079.369 227.414 1079.369 228.864 1079.852 231.28 1080.819 232.73 1082.268 233.213 1083.235 233.213 1084.684 232.73 1085.651 231.28 1086.134 228.864 1086.134 227.414 1085.651 224.998 1084.684 223.549 1083.235 223.065"/><polyline points="1089.033 221.133 1090 222.099 1090.966 223.549 1091.932 225.482 1092.416 227.898 1092.416 229.83 1091.932 232.246 1090.966 234.179 1090 235.629 1089.033 236.595"/></g></svg>