<?xml version="1.0" encoding="utf-8" ?>
<svg xmlns="http://www.w3.org/2000/svg" xmlns:cc="http://creativecommons.org/ns" xmlns:dc="http://purl.org/dc/elements/1.1/" xmlns:ev="http://www.w3.org/2001/xml-events" xmlns:inkscape="http://www.inkscape.org/namespaces/inkscape" xmlns:rdf="http://www.w3.org/1999/02/22-rdf-syntax-ns" xmlns:sodipodi="http://sodipodi.sourceforge.net/DTD/sodipodi-0.dtd" xmlns:xlink="http://www.w3.org/1999/xlink" baseProfile="tiny" height="9.0cm" version="1.2" viewBox="0 0 1133.8582677165352 340.1574803149606" width="30.0cm">
  <metadata>
    <rdf:RDF>
      <cc:Work>
        <dc:format>image/svg+xml</dc:format>
        <dc:source>vpype -I figures/fig_camera.vpy write figures/fig_camera.svg
</dc:source>
        <dc:date>2022-03-31T13:53:24.998076</dc:date>
      </cc:Work>
    </rdf:RDF>
  </metadata>
  <defs/>
  <g fill="none" id="layer6" inkscape:groupmode="layer" inkscape:label="6" stroke="#0000ff" style="display:inline">
    <polygon points="78.4556,66.3178 78.4556,212.1018 224.2396,212.1018 224.2396,66.3178"/>
    <line x1="80.492" x2="80.492" y1="67.4978" y2="70.5353"/>
    <line x1="83.2403" x2="83.2403" y1="68.5103" y2="70.5353"/>
    <polyline points="83.2403,68.9442 82.951,68.6549 82.6617,68.5103 82.2278,68.5103 81.9385,68.6549 81.6492,68.9442 81.5045,69.3782 81.5045,69.6674 81.6492,70.1014 81.9385,70.3907 82.2278,70.5353 82.6617,70.5353 82.951,70.3907 83.2403,70.1014"/>
    <line x1="84.1082" x2="84.976" y1="68.5103" y2="70.5353"/>
    <polyline points="85.8439,68.5103 84.976,70.5353 84.6867,71.1139 84.3974,71.4032 84.1082,71.5478 83.9635,71.5478"/>
    <polyline points="86.5671,69.3782 88.3029,69.3782 88.3029,69.0889 88.1582,68.7996 88.0136,68.6549 87.7243,68.5103 87.2903,68.5103 87.0011,68.6549 86.7118,68.9442 86.5671,69.3782 86.5671,69.6674 86.7118,70.1014 87.0011,70.3907 87.2903,70.5353 87.7243,70.5353 88.0136,70.3907 88.3029,70.1014"/>
    <line x1="89.3154" x2="89.3154" y1="68.5103" y2="70.5353"/>
    <polyline points="89.3154,69.3782 89.46,68.9442 89.7493,68.6549 90.0386,68.5103 90.4725,68.5103"/>
    <polyline points="93.7994,68.0763 94.0887,67.9317 94.5226,67.4978 94.5226,70.5353"/>
    <polygon points="72.2043,60.0665 72.2043,218.3531 230.4909,218.3531 230.4909,60.0665"/>
    <line x1="74.4154" x2="74.4154" y1="61.3476" y2="64.6457"/>
    <line x1="77.3993" x2="77.3993" y1="62.447" y2="64.6457"/>
    <polyline points="77.3993,62.9181 77.0852,62.604 76.7711,62.447 76.3,62.447 75.9859,62.604 75.6718,62.9181 75.5147,63.3893 75.5147,63.7034 75.6718,64.1745 75.9859,64.4886 76.3,64.6457 76.7711,64.6457 77.0852,64.4886 77.3993,64.1745"/>
    <line x1="78.3416" x2="79.2839" y1="62.447" y2="64.6457"/>
    <polyline points="80.2262,62.447 79.2839,64.6457 78.9698,65.2739 78.6557,65.588 78.3416,65.745 78.1846,65.745"/>
    <polyline points="81.0115,63.3893 82.8961,63.3893 82.8961,63.0752 82.739,62.7611 82.582,62.604 82.2679,62.447 81.7967,62.447 81.4826,62.604 81.1685,62.9181 81.0115,63.3893 81.0115,63.7034 81.1685,64.1745 81.4826,64.4886 81.7967,64.6457 82.2679,64.6457 82.582,64.4886 82.8961,64.1745"/>
    <line x1="83.9954" x2="83.9954" y1="62.447" y2="64.6457"/>
    <polyline points="83.9954,63.3893 84.1525,62.9181 84.4666,62.604 84.7807,62.447 85.2518,62.447"/>
    <polyline points="88.5499,62.1329 88.5499,61.9758 88.7069,61.6617 88.864,61.5047 89.1781,61.3476 89.8063,61.3476 90.1204,61.5047 90.2774,61.6617 90.4345,61.9758 90.4345,62.2899 90.2774,62.604 89.9633,63.0752 88.3928,64.6457 90.5915,64.6457"/>
    <polygon points="64.7801,52.6424 64.7801,225.7773 237.9151,225.7773 237.9151,52.6424"/>
    <line x1="67.1986" x2="67.1986" y1="54.0437" y2="57.6511"/>
    <line x1="70.4625" x2="70.4625" y1="55.2461" y2="57.6511"/>
    <polyline points="70.4625,55.7615 70.1189,55.4179 69.7753,55.2461 69.26,55.2461 68.9164,55.4179 68.5729,55.7615 68.4011,56.2768 68.4011,56.6204 68.5729,57.1357 68.9164,57.4793 69.26,57.6511 69.7753,57.6511 70.1189,57.4793 70.4625,57.1357"/>
    <line x1="71.4932" x2="72.5239" y1="55.2461" y2="57.6511"/>
    <polyline points="73.5546,55.2461 72.5239,57.6511 72.1803,58.3382 71.8367,58.6818 71.4932,58.8536 71.3214,58.8536"/>
    <polyline points="74.4135,56.2768 76.4749,56.2768 76.4749,55.9333 76.3031,55.5897 76.1313,55.4179 75.7877,55.2461 75.2724,55.2461 74.9288,55.4179 74.5853,55.7615 74.4135,56.2768 74.4135,56.6204 74.5853,57.1357 74.9288,57.4793 75.2724,57.6511 75.7877,57.6511 76.1313,57.4793 76.4749,57.1357"/>
    <line x1="77.6773" x2="77.6773" y1="55.2461" y2="57.6511"/>
    <polyline points="77.6773,56.2768 77.8491,55.7615 78.1927,55.4179 78.5362,55.2461 79.0516,55.2461"/>
    <polyline points="82.8308,54.0437 84.7204,54.0437 83.6897,55.4179 84.2051,55.4179 84.5486,55.5897 84.7204,55.7615 84.8922,56.2768 84.8922,56.6204 84.7204,57.1357 84.3768,57.4793 83.8615,57.6511 83.3462,57.6511 82.8308,57.4793 82.659,57.3075 82.4872,56.964"/>
    <polygon points="55.8189,43.6812 55.8189,234.7385 246.8763,234.7385 246.8763,43.6812"/>
    <line x1="58.4878" x2="58.4878" y1="45.2275" y2="49.2084"/>
    <line x1="62.0895" x2="62.0895" y1="46.5545" y2="49.2084"/>
    <polyline points="62.0895,47.1232 61.7104,46.744 61.3312,46.5545 60.7625,46.5545 60.3834,46.744 60.0043,47.1232 59.8147,47.6919 59.8147,48.071 60.0043,48.6397 60.3834,49.0188 60.7625,49.2084 61.3312,49.2084 61.7104,49.0188 62.0895,48.6397"/>
    <line x1="63.2269" x2="64.3643" y1="46.5545" y2="49.2084"/>
    <polyline points="65.5017,46.5545 64.3643,49.2084 63.9851,49.9666 63.606,50.3458 63.2269,50.5353 63.0373,50.5353"/>
    <polyline points="66.4495,47.6919 68.7243,47.6919 68.7243,47.3127 68.5347,46.9336 68.3451,46.744 67.966,46.5545 67.3973,46.5545 67.0182,46.744 66.639,47.1232 66.4495,47.6919 66.4495,48.071 66.639,48.6397 67.0182,49.0188 67.3973,49.2084 67.966,49.2084 68.3451,49.0188 68.7243,48.6397"/>
    <line x1="70.0512" x2="70.0512" y1="46.5545" y2="49.2084"/>
    <polyline points="70.0512,47.6919 70.2408,47.1232 70.6199,46.744 70.999,46.5545 71.5677,46.5545"/>
    <polyline points="77.2547,45.2275 75.359,47.8814 78.2025,47.8814"/>
    <line x1="77.2547" x2="77.2547" y1="45.2275" y2="49.2084"/>
    <polygon points="44.7882,32.6505 44.7882,245.7692 257.907,245.7692 257.907,32.6505"/>
    <line x1="47.7652" x2="47.7652" y1="34.3754" y2="38.8159"/>
    <line x1="51.7829" x2="51.7829" y1="35.8556" y2="38.8159"/>
    <polyline points="51.7829,36.4899 51.36,36.067 50.937,35.8556 50.3027,35.8556 49.8798,36.067 49.4569,36.4899 49.2454,37.1243 49.2454,37.5472 49.4569,38.1816 49.8798,38.6045 50.3027,38.8159 50.937,38.8159 51.36,38.6045 51.7829,38.1816"/>
    <line x1="53.0516" x2="54.3203" y1="35.8556" y2="38.8159"/>
    <polyline points="55.589,35.8556 54.3203,38.8159 53.8974,39.6617 53.4745,40.0846 53.0516,40.2961 52.8401,40.2961"/>
    <polyline points="56.6463,37.1243 59.1837,37.1243 59.1837,36.7014 58.9723,36.2785 58.7608,36.067 58.3379,35.8556 57.7036,35.8556 57.2807,36.067 56.8577,36.4899 56.6463,37.1243 56.6463,37.5472 56.8577,38.1816 57.2807,38.6045 57.7036,38.8159 58.3379,38.8159 58.7608,38.6045 59.1837,38.1816"/>
    <line x1="60.6639" x2="60.6639" y1="35.8556" y2="38.8159"/>
    <polyline points="60.6639,37.1243 60.8754,36.4899 61.2983,36.067 61.7212,35.8556 62.3555,35.8556"/>
    <polyline points="69.1221,34.3754 67.0075,34.3754 66.7961,36.2785 67.0075,36.067 67.6419,35.8556 68.2762,35.8556 68.9106,36.067 69.3335,36.4899 69.545,37.1243 69.545,37.5472 69.3335,38.1816 68.9106,38.6045 68.2762,38.8159 67.6419,38.8159 67.0075,38.6045 66.7961,38.393 66.5846,37.9701"/>
    <line x1="132.3168" x2="132.3168" y1="271.3934" y2="282.4947"/>
    <polyline points="132.3168,276.6797 131.2595,275.6225 130.2022,275.0938 128.6163,275.0938 127.5591,275.6225 126.5018,276.6797 125.9732,278.2656 125.9732,279.3229 126.5018,280.9088 127.5591,281.9661 128.6163,282.4947 130.2022,282.4947 131.2595,281.9661 132.3168,280.9088"/>
    <polyline points="136.0172,278.2656 142.3608,278.2656 142.3608,277.2084 141.8322,276.1511 141.3035,275.6225 140.2463,275.0938 138.6604,275.0938 137.6031,275.6225 136.5458,276.6797 136.0172,278.2656 136.0172,279.3229 136.5458,280.9088 137.6031,281.9661 138.6604,282.4947 140.2463,282.4947 141.3035,281.9661 142.3608,280.9088"/>
    <polyline points="149.2331,271.3934 148.1758,271.3934 147.1185,271.922 146.5899,273.5079 146.5899,282.4947"/>
    <line x1="145.004" x2="148.7044" y1="275.0938" y2="275.0938"/>
    <line x1="158.2198" x2="158.2198" y1="275.0938" y2="282.4947"/>
    <polyline points="158.2198,276.6797 157.1626,275.6225 156.1053,275.0938 154.5194,275.0938 153.4621,275.6225 152.4049,276.6797 151.8762,278.2656 151.8762,279.3229 152.4049,280.9088 153.4621,281.9661 154.5194,282.4947 156.1053,282.4947 157.1626,281.9661 158.2198,280.9088"/>
    <polyline points="162.4489,275.0938 162.4489,280.3802 162.9776,281.9661 164.0348,282.4947 165.6207,282.4947 166.678,281.9661 168.2639,280.3802"/>
    <line x1="168.2639" x2="168.2639" y1="275.0938" y2="282.4947"/>
    <line x1="172.493" x2="172.493" y1="271.3934" y2="282.4947"/>
    <polyline points="177.2507,271.3934 177.2507,280.3802 177.7793,281.9661 178.8366,282.4947 179.8939,282.4947"/>
    <line x1="175.6648" x2="179.3652" y1="275.0938" y2="275.0938"/>
    <polygon points="381.7566,75.9414 381.7566,202.4783 524.1927,228.2881 524.1927,50.1315"/>
    <line x1="383.1755" x2="383.1755" y1="76.7126" y2="79.3598"/>
    <line x1="385.1088" x2="385.1088" y1="77.2552" y2="79.0298"/>
    <polyline points="385.1088,77.6355 384.9043,77.4178 384.7,77.3271 384.3941,77.3808 384.1904,77.543 383.987,77.8314 383.8853,78.2281 383.8853,78.4808 383.987,78.8422 384.1904,79.0601 384.3941,79.1518 384.7,79.0995 384.9043,78.938 385.1088,78.6495"/>
    <line x1="385.7238" x2="386.3409" y1="77.1471" y2="78.8194"/>
    <polyline points="386.9601,76.9298 386.3409,78.8194 386.1349,79.3631 385.9292,79.652 385.7238,79.8136 385.6211,79.8309"/>
    <polyline points="387.4778,77.6045 388.7265,77.3877 388.7265,77.1316 388.6221,76.8938 388.5178,76.7841 388.3093,76.6927 387.997,76.7476 387.7892,76.9119 387.5815,77.2036 387.4778,77.6045 387.4778,77.8597 387.5815,78.2247 387.7892,78.4445 387.997,78.5367 388.3093,78.4834 388.5178,78.3198 388.7265,78.028"/>
    <line x1="389.459" x2="389.459" y1="76.4907" y2="78.2871"/>
    <polyline points="389.459,77.2606 389.5638,76.8573 389.7738,76.5638 389.984,76.3984 390.2998,76.3429"/>
    <polyline points="392.7393,75.5256 392.953,75.3583 393.274,74.9123 393.274,77.6358"/>
    <polygon points="372.9643,71.7497 372.9643,206.67 525.1252,236.8281 525.1252,41.5916"/>
    <line x1="374.4395" x2="374.4395" y1="72.5541" y2="75.3774"/>
    <line x1="376.4508" x2="376.4508" y1="73.1085" y2="75.0019"/>
    <polyline points="376.4508,73.5142 376.238,73.2846 376.0254,73.1903 375.707,73.2515 375.4951,73.4271 375.2835,73.7373 375.1778,74.1617 375.1778,74.4311 375.2835,74.8155 375.4951,75.0454 375.707,75.1407 376.0254,75.0813 376.238,74.9064 376.4508,74.5961"/>
    <line x1="377.0908" x2="377.7333" y1="72.9855" y2="74.7624"/>
    <polyline points="378.3781,72.738 377.7333,74.7624 377.5189,75.345 377.3047,75.6558 377.0908,75.8308 376.984,75.8504"/>
    <polyline points="378.9174,73.4516 380.2184,73.2046 380.2184,72.9311 380.1096,72.6785 380.0009,72.5627 379.7836,72.4678 379.4583,72.5304 379.2417,72.7083 379.0254,73.0223 378.9174,73.4516 378.9174,73.724 379.0254,74.1123 379.2417,74.3444 379.4583,74.4403 379.7836,74.3795 380.0009,74.2023 380.2184,73.8882"/>
    <line x1="380.9818" x2="380.9818" y1="72.2375" y2="74.1558"/>
    <polyline points="380.9818,73.0596 381.0912,72.6277 381.3101,72.3115 381.5292,72.1323 381.8585,72.069"/>
    <polyline points="384.1808,71.346 384.1808,71.2077 384.2921,70.9095 384.4035,70.7495 384.6266,70.5677 385.0736,70.4805 385.2975,70.5756 385.4096,70.6925 385.5217,70.9483 385.5217,71.226 385.4096,71.5251 385.1855,71.9841 384.0695,73.5792 385.6339,73.2871"/>
    <polygon points="362.9243,66.9632 362.9243,211.4565 526.2554,247.1791 526.2554,31.2405"/>
    <line x1="364.458" x2="364.458" y1="67.8027" y2="70.8273"/>
    <line x1="366.5506" x2="366.5506" y1="68.367" y2="70.3961"/>
    <polyline points="366.5506,68.8018 366.3291,68.5588 366.1079,68.4609 365.7766,68.5312 365.5561,68.7224 365.3359,69.0579 365.2259,69.5142 365.2259,69.8029 365.3359,70.2132 365.5561,70.4565 365.7766,70.5556 366.1079,70.4873 366.3291,70.2969 366.5506,69.9613"/>
    <line x1="367.2169" x2="367.8859" y1="68.2256" y2="70.1209"/>
    <polyline points="368.5576,67.9412 367.8859,70.1209 367.6626,70.7486 367.4396,71.0848 367.2169,71.2754 367.1057,71.298"/>
    <polyline points="369.1194,68.6984 370.4753,68.4142 370.4753,68.121 370.3619,67.8516 370.2486,67.729 370.0221,67.6305 369.683,67.7025 369.4573,67.8965 369.2319,68.2365 369.1194,68.6984 369.1194,68.9905 369.2319,69.4053 369.4573,69.6509 369.683,69.7506 370.0221,69.6808 370.2486,69.4876 370.4753,69.1475"/>
    <line x1="371.2714" x2="371.2714" y1="67.3655" y2="69.4233"/>
    <polyline points="371.2714,68.2474 371.3854,67.7824 371.6137,67.44 371.8423,67.2444 372.1857,67.1716"/>
    <polyline points="374.7259,65.5933 376.0102,65.3169 375.3085,66.6579 375.659,66.5837 375.8931,66.6831 376.0102,66.8074 376.1275,67.2299 376.1275,67.5281 376.0102,67.9997 375.776,68.3462 375.4252,68.5674 375.0752,68.6395 374.7259,68.563 374.6096,68.4386 374.4934,68.1659"/>
    <polygon points="351.3507,61.4456 351.3507,216.9741 527.6537,259.9857 527.6537,18.4339"/>
    <line x1="352.9443" x2="352.9443" y1="62.3219" y2="65.5787"/>
    <line x1="355.1204" x2="355.1204" y1="62.8926" y2="65.0785"/>
    <polyline points="355.1204,63.361 354.89,63.1031 354.6598,63.0016 354.3153,63.0831 354.086,63.293 353.857,63.6581 353.7426,64.1514 353.7426,64.4624 353.857,64.9023 354.086,65.1606 354.3153,65.2636 354.6598,65.1844 354.89,64.9755 355.1204,64.6101"/>
    <line x1="355.8138" x2="356.5101" y1="62.7285" y2="64.7591"/>
    <polyline points="357.2094,62.3983 356.5101,64.7591 356.2776,65.4393 356.0455,65.8054 355.8138,66.0145 355.698,66.0407"/>
    <polyline points="357.7945,63.2044 359.2074,62.8742 359.2074,62.558 359.0892,62.2696 358.9711,62.1394 358.7351,62.0372 358.3817,62.1209 358.1466,62.3341 357.9118,62.7045 357.7945,63.2044 357.7945,63.5193 357.9118,63.9644 358.1466,64.2253 358.3817,64.3289 358.7351,64.2477 358.9711,64.0354 359.2074,63.6648"/>
    <line x1="360.0372" x2="360.0372" y1="61.7291" y2="63.9484"/>
    <polyline points="360.0372,62.6802 360.1561,62.1767 360.3942,61.8033 360.6326,61.5882 360.9908,61.5035"/>
    <polyline points="364.6168,59.5203 363.3993,62.0546 365.2289,61.6279"/>
    <line x1="364.6168" x2="364.6168" y1="59.5203" y2="62.8958"/>
    <polyline points="337.8632,55.0155 337.8632,223.4041 496.2233,267.0811"/>
    <line x1="529.4283" x2="529.4283" y1="267.0811" y2="11.3386"/>
    <line x1="496.2233" x2="337.8632" y1="11.3386" y2="55.0155"/>
    <line x1="339.5162" x2="339.5162" y1="55.9299" y2="59.4574"/>
    <line x1="341.7757" x2="341.7757" y1="56.5013" y2="58.8703"/>
    <polyline points="341.7757,57.0089 341.5363,56.7344 341.2973,56.6292 340.9394,56.725 340.7013,56.9573 340.4635,57.3578 340.3448,57.8946 340.3448,58.2315 340.4635,58.7057 340.7013,58.9808 340.9394,59.0876 341.2973,58.9946 341.5363,58.7634 341.7757,58.3626"/>
    <line x1="342.4962" x2="343.22" y1="56.3085" y2="58.495"/>
    <polyline points="343.9472,55.9204 343.22,58.495 342.9783,59.2373 342.7371,59.6389 342.4962,59.8703 342.3758,59.9011"/>
    <polyline points="344.5558,56.782 346.0262,56.3934 346.0262,56.0504 345.9031,55.7401 345.7802,55.6014 345.5345,55.4957 345.1668,55.5941 344.9221,55.8305 344.6778,56.2373 344.5558,56.782 344.5558,57.1234 344.6778,57.6037 344.9221,57.8817 345.1668,57.9891 345.5345,57.8935 345.7802,57.6583 346.0262,57.2512"/>
    <line x1="346.8904" x2="346.8904" y1="55.133" y2="57.5412"/>
    <polyline points="346.8904,56.1651 347.0142,55.6161 347.2622,55.2058 347.5105,54.9671 347.8838,54.8673"/>
    <polyline points="351.9213,52.5638 350.6485,52.9092 350.5218,54.5096 350.6485,54.3017 351.0293,54.0258 351.411,53.9237 351.7936,53.9961 352.0491,54.2775 352.1771,54.7682 352.1771,55.118 352.0491,55.6762 351.7936,56.0924 351.411,56.3665 351.0293,56.4657 350.6485,56.3906 350.5218,56.2496 350.3952,55.9348"/>
    <line x1="376.8601" x2="376.8601" y1="275.0938" y2="286.1952"/>
    <polyline points="376.8601,276.6797 377.9174,275.6225 378.9746,275.0938 380.5605,275.0938 381.6178,275.6225 382.6751,276.6797 383.2037,278.2656 383.2037,279.3229 382.6751,280.9088 381.6178,281.9661 380.5605,282.4947 378.9746,282.4947 377.9174,281.9661 376.8601,280.9088"/>
    <line x1="392.7191" x2="392.7191" y1="275.0938" y2="282.4947"/>
    <polyline points="392.7191,276.6797 391.6619,275.6225 390.6046,275.0938 389.0187,275.0938 387.9614,275.6225 386.9042,276.6797 386.3755,278.2656 386.3755,279.3229 386.9042,280.9088 387.9614,281.9661 389.0187,282.4947 390.6046,282.4947 391.6619,281.9661 392.7191,280.9088"/>
    <line x1="396.9482" x2="396.9482" y1="275.0938" y2="282.4947"/>
    <polyline points="396.9482,277.2084 398.5341,275.6225 399.5914,275.0938 401.1773,275.0938 402.2346,275.6225 402.7632,277.2084 402.7632,282.4947"/>
    <line x1="415.4504" x2="424.9658" y1="276.1511" y2="276.1511"/>
    <line x1="415.4504" x2="424.9658" y1="279.3229" y2="279.3229"/>
    <polyline points="437.6531,274.0366 437.6531,273.5079 438.1817,272.4507 438.7103,271.922 439.7676,271.3934 441.8821,271.3934 442.9394,271.922 443.468,272.4507 443.9967,273.5079 443.9967,274.5652 443.468,275.6225 442.4108,277.2084 437.1244,282.4947 444.5253,282.4947"/>
    <polyline points="454.0407,271.3934 448.7544,271.3934 448.2257,276.1511 448.7544,275.6225 450.3403,275.0938 451.9262,275.0938 453.5121,275.6225 454.5694,276.6797 455.098,278.2656 455.098,279.3229 454.5694,280.9088 453.5121,281.9661 451.9262,282.4947 450.3403,282.4947 448.7544,281.9661 448.2257,281.4374 447.6971,280.3802"/>
    <line x1="464.6134" x2="464.6134" y1="271.3934" y2="282.4947"/>
    <polyline points="464.6134,276.6797 463.5561,275.6225 462.4989,275.0938 460.913,275.0938 459.8557,275.6225 458.7984,276.6797 458.2698,278.2656 458.2698,279.3229 458.7984,280.9088 459.8557,281.9661 460.913,282.4947 462.4989,282.4947 463.5561,281.9661 464.6134,280.9088"/>
    <polyline points="468.3139,278.2656 474.6575,278.2656 474.6575,277.2084 474.1288,276.1511 473.6002,275.6225 472.5429,275.0938 470.957,275.0938 469.8998,275.6225 468.8425,276.6797 468.3139,278.2656 468.3139,279.3229 468.8425,280.9088 469.8998,281.9661 470.957,282.4947 472.5429,282.4947 473.6002,281.9661 474.6575,280.9088"/>
    <polyline points="484.1729,275.0938 484.1729,283.552 483.6442,285.1379 483.1156,285.6665 482.0583,286.1952 480.4724,286.1952 479.4152,285.6665"/>
    <polyline points="484.1729,276.6797 483.1156,275.6225 482.0583,275.0938 480.4724,275.0938 479.4152,275.6225 478.3579,276.6797 477.8293,278.2656 477.8293,279.3229 478.3579,280.9088 479.4152,281.9661 480.4724,282.4947 482.0583,282.4947 483.1156,281.9661 484.1729,280.9088"/>
    <polyline points="636.7366,21.5528 665.3679,147.4709 776.4245,188.6798 833.3276,80.3583"/>
    <line x1="833.3276" x2="636.7366" y1="48.3408" y2="21.5528"/>
    <line x1="639.2003" x2="640.1704" y1="23.5788" y2="27.9738"/>
    <line x1="642.3344" x2="642.954" y1="25.4586" y2="28.3866"/>
    <polyline points="642.4682,26.0909 642.0822,25.6272 641.7407,25.3739 641.2963,25.3105 641.046,25.479 640.8419,25.857 640.8311,26.4637 640.9218,26.8809 641.2039,27.526 641.5869,27.9837 641.9248,28.234 642.3653,28.2993 642.6154,28.1358 642.8222,27.764"/>
    <line x1="643.2276" x2="644.7282" y1="25.5859" y2="28.6497"/>
    <polyline points="645.0238,25.842 644.7282,28.6497 644.6028,29.4336 644.3929,29.8014 644.141,29.9624 643.9938,29.9402"/>
    <polyline points="646.0302,27.2179 647.838,27.4801 647.7558,27.0573 647.5218,26.6116 647.3289,26.3775 646.9843,26.1216 646.5305,26.0569 646.2707,26.2262 646.0538,26.6066 646.0302,27.2179 646.1145,27.6383 646.3901,28.2888 646.7728,28.7507 647.1137,29.0035 647.5635,29.0702 647.8231,28.906 648.0425,28.5319"/>
    <line x1="648.6553" x2="649.2198" y1="26.3599" y2="29.3158"/>
    <polyline points="648.8986,27.634 648.9294,27.0202 649.1533,26.6384 649.4185,26.4687 649.8775,26.5342"/>
    <polyline points="653.3116,26.3942 653.5854,26.2222 653.9412,25.6379 654.7176,30.1312"/>
    <polyline points="623.557,26.1835 659.0185,155.0378 773.9871,199.9209 833.3276,92.6755"/>
    <line x1="833.3276" x2="623.557" y1="57.5886" y2="26.1835"/>
    <line x1="626.2129" x2="627.452" y1="28.3418" y2="32.9612"/>
    <line x1="629.5536" x2="630.3495" y1="30.3552" y2="33.4322"/>
    <polyline points="629.7255,31.0201 629.3018,30.5286 628.9352,30.2585 628.4724,30.186 628.2227,30.3593 628.032,30.7528 628.0534,31.3886 628.1694,31.8269 628.4954,32.5066 628.9155,32.9912 629.278,33.258 629.7366,33.3326 629.9864,33.1649 630.1804,32.7783"/>
    <line x1="630.4841" x2="632.1976" y1="30.5008" y2="33.7327"/>
    <polyline points="632.356,30.7937 632.1976,33.7327 632.1091,34.5518 631.9114,34.9337 631.6595,35.0987 631.5062,35.0733"/>
    <polyline points="633.4696,32.2504 635.3546,32.5503 635.2476,32.1057 634.9822,31.635 634.7703,31.3868 634.4002,31.1136 633.9269,31.0395 633.6667,31.2136 633.4621,31.6097 633.4696,32.2504 633.5787,32.6923 633.8978,33.3779 634.3179,33.8672 634.6837,34.1369 635.1527,34.2131 635.4129,34.0447 635.6207,33.6557"/>
    <line x1="636.1434" x2="636.88" y1="31.3864" y2="34.4939"/>
    <polyline points="636.461,32.7263 636.4613,32.0829 636.6738,31.6854 636.9399,31.511 637.419,31.586"/>
    <polyline points="640.6989,31.6624 640.6486,31.4356 640.7105,31.006 640.823,30.8032 641.099,30.6249 641.7529,30.7252 642.13,31.0042 642.3432,31.2579 642.6051,31.7391 642.703,32.1937 642.6373,32.6212 642.458,33.2467 641.3324,35.2177 643.5889,35.5846"/>
    <polyline points="608.4174,31.5029 652.1503,163.2229 771.3038,212.2963 833.3276,107.2902"/>
    <line x1="833.3276" x2="608.4174" y1="68.8618" y2="31.5029"/>
    <line x1="611.2976" x2="612.8773" y1="33.8117" y2="38.6765"/>
    <line x1="614.8739" x2="615.8936" y1="35.9793" y2="39.2191"/>
    <polyline points="615.0944,36.6798 614.6255,36.1572 614.2298,35.8677 613.7479,35.7841 613.5017,35.9619 613.3308,36.3715 613.3943,37.0386 613.5424,37.5001 613.9226,38.2178 614.387,38.7327 614.7778,39.0184 615.2554,39.1043 615.502,38.9327 615.677,38.531"/>
    <line x1="615.8434" x2="617.8188" y1="36.1474" y2="39.5654"/>
    <polyline points="617.7944,36.4856 617.8188,39.5654 617.7798,40.4219 617.6003,40.8184 617.3511,40.9868 617.1915,40.9576"/>
    <polyline points="619.0371,38.0328 621.0033,38.3791 620.8647,37.9109 620.5608,37.4123 620.3261,37.1482 619.9263,36.8552 619.4327,36.7697 619.1749,36.9481 618.9887,37.3604 619.0371,38.0328 619.1779,38.4982 619.5508,39.2225 620.0155,39.7425 620.4103,40.0315 620.8994,40.1195 621.1575,39.9474 621.3478,39.5432"/>
    <line x1="621.7454" x2="622.7014" y1="37.1706" y2="40.4436"/>
    <polyline points="622.1578,38.5825 622.1178,37.9073 622.3126,37.4935 622.5769,37.3147 623.0771,37.4015"/>
    <polyline points="626.3162,36.3655 628.1976,36.6854 627.6923,38.4287 628.2028,38.5174 628.6081,38.8149 628.8427,39.0826 629.2043,39.824 629.3312,40.2964 629.3511,40.9717 629.1387,41.3794 628.6955,41.5218 628.1903,41.4309 627.6219,41.1073 627.3896,40.8438 627.0923,40.3461"/>
    <polyline points="590.8455,37.6768 644.6972,172.1051 768.3353,225.9868 833.3276,124.9112"/>
    <line x1="833.3276" x2="590.8455" y1="82.9076" y2="37.6768"/>
    <line x1="593.9907" x2="596.008" y1="40.1588" y2="45.2917"/>
    <line x1="597.8383" x2="599.1458" y1="42.5061" y2="45.9233"/>
    <polyline points="598.1212,43.2454 597.5975,42.6876 597.1679,42.3758 596.6664,42.2783 596.4281,42.4598 596.2859,42.886 596.4052,43.5867 596.5946,44.0734 597.0428,44.8333 597.5607,45.3822 597.9847,45.6896 598.4816,45.7896 598.7209,45.6152 598.8683,45.1981"/>
    <line x1="598.8477" x2="601.1502" y1="42.7022" y2="46.3268"/>
    <polyline points="600.8801,43.0972 601.1502,46.3268 601.1782,47.2228 601.0255,47.634 600.7831,47.8048 600.6169,47.7707"/>
    <polyline points="602.2809,44.7462 604.3308,45.1508 604.1514,44.6565 603.7994,44.127 603.5371,43.8449 603.1026,43.5291 602.5878,43.429 602.3367,43.611 602.1778,44.0399 602.2809,44.7462 602.4624,45.2372 602.9031,46.0043 603.4218,46.5592 603.8505,46.8704 604.3604,46.973 604.6124,46.7983 604.7765,46.3787"/>
    <line x1="605.0001" x2="606.2397" y1="43.8978" y2="47.3514"/>
    <polyline points="605.5351,45.3884 605.4413,44.679 605.6096,44.2487 605.8679,44.0665 606.3901,44.1679"/>
    <polyline points="611.0801,43.4188 610.5015,46.6003 613.1574,47.1258"/>
    <line x1="611.0801" x2="612.852" y1="43.4188" y2="48.6824"/>
    <polyline points="577.5851,60.1465 636.5811,181.7775 765.0337,241.214 833.3276,146.5725"/>
    <line x1="833.3276" x2="577.5851" y1="100.8923" y2="46.4991"/>
    <line x1="577.8302" x2="579.5143" y1="50.1717" y2="53.782"/>
    <polyline points="578.1949,50.9534 577.6036,50.3556 577.5851,50.3422"/>
    <polyline points="577.5851,52.9123 577.8448,53.1737 578.308,53.5063 578.8242,53.6243 579.0499,53.4485 579.1571,53.0164"/>
    <line x1="578.8793" x2="581.5978" y1="50.4036" y2="54.2581"/>
    <polyline points="580.9929,50.8708 581.5978,54.2581 581.7175,55.1951 581.6037,55.6202 581.3742,55.7918 581.2014,55.7517"/>
    <polyline points="582.5904,52.6353 584.7245,53.1139 584.4915,52.5915 584.0784,52.0273 583.7818,51.7247 583.306,51.3822 582.77,51.2637 582.5321,51.4477 582.4135,51.8928 582.5904,52.6353 582.8255,53.1541 583.3529,53.9686 583.9383,54.563 584.4072,54.9001 584.938,55.0214 585.1777,54.8456 585.3032,54.4112"/>
    <line x1="585.2825" x2="586.8953" y1="51.8191" y2="55.4687"/>
    <polyline points="585.979,53.3953 585.812,52.6497 585.941,52.2032 586.1869,52.0191 586.7313,52.1394"/>
    <polyline points="591.8373,51.5595 589.9697,51.1538 590.8055,53.5217 590.8777,53.2972 591.3208,53.154 591.8779,53.2771 592.548,53.6673 593.1426,54.2821 593.6596,55.1181 593.8789,55.6451 594.021,56.3898 593.8689,56.8273 593.4247,56.9609 592.8732,56.8349 592.2132,56.4498 591.9197,56.1481 591.5152,55.5854"/>
    <line x1="653.9145" x2="653.9145" y1="275.0938" y2="286.1952"/>
    <polyline points="653.9145,276.6797 654.9717,275.6225 656.029,275.0938 657.6149,275.0938 658.6722,275.6225 659.7294,276.6797 660.2581,278.2656 660.2581,279.3229 659.7294,280.9088 658.6722,281.9661 657.6149,282.4947 656.029,282.4947 654.9717,281.9661 653.9145,280.9088"/>
    <line x1="669.7735" x2="669.7735" y1="275.0938" y2="282.4947"/>
    <polyline points="669.7735,276.6797 668.7162,275.6225 667.659,275.0938 666.0731,275.0938 665.0158,275.6225 663.9585,276.6797 663.4299,278.2656 663.4299,279.3229 663.9585,280.9088 665.0158,281.9661 666.0731,282.4947 667.659,282.4947 668.7162,281.9661 669.7735,280.9088"/>
    <line x1="674.0026" x2="674.0026" y1="275.0938" y2="282.4947"/>
    <polyline points="674.0026,277.2084 675.5885,275.6225 676.6457,275.0938 678.2316,275.0938 679.2889,275.6225 679.8175,277.2084 679.8175,282.4947"/>
    <line x1="692.5048" x2="702.0202" y1="276.1511" y2="276.1511"/>
    <line x1="692.5048" x2="702.0202" y1="279.3229" y2="279.3229"/>
    <polyline points="714.7074,274.0366 714.7074,273.5079 715.236,272.4507 715.7647,271.922 716.822,271.3934 718.9365,271.3934 719.9938,271.922 720.5224,272.4507 721.051,273.5079 721.051,274.5652 720.5224,275.6225 719.4651,277.2084 714.1788,282.4947 721.5797,282.4947"/>
    <polyline points="731.0951,271.3934 725.8087,271.3934 725.2801,276.1511 725.8087,275.6225 727.3946,275.0938 728.9805,275.0938 730.5664,275.6225 731.6237,276.6797 732.1523,278.2656 732.1523,279.3229 731.6237,280.9088 730.5664,281.9661 728.9805,282.4947 727.3946,282.4947 725.8087,281.9661 725.2801,281.4374 724.7515,280.3802"/>
    <line x1="741.6678" x2="741.6678" y1="271.3934" y2="282.4947"/>
    <polyline points="741.6678,276.6797 740.6105,275.6225 739.5532,275.0938 737.9673,275.0938 736.9101,275.6225 735.8528,276.6797 735.3242,278.2656 735.3242,279.3229 735.8528,280.9088 736.9101,281.9661 737.9673,282.4947 739.5532,282.4947 740.6105,281.9661 741.6678,280.9088"/>
    <polyline points="745.3682,278.2656 751.7118,278.2656 751.7118,277.2084 751.1832,276.1511 750.6545,275.6225 749.5973,275.0938 748.0114,275.0938 746.9541,275.6225 745.8968,276.6797 745.3682,278.2656 745.3682,279.3229 745.8968,280.9088 746.9541,281.9661 748.0114,282.4947 749.5973,282.4947 750.6545,281.9661 751.7118,280.9088"/>
    <polyline points="761.2272,275.0938 761.2272,283.552 760.6986,285.1379 760.17,285.6665 759.1127,286.1952 757.5268,286.1952 756.4695,285.6665"/>
    <polyline points="761.2272,276.6797 760.17,275.6225 759.1127,275.0938 757.5268,275.0938 756.4695,275.6225 755.4123,276.6797 754.8836,278.2656 754.8836,279.3229 755.4123,280.9088 756.4695,281.9661 757.5268,282.4947 759.1127,282.4947 760.17,281.9661 761.2272,280.9088"/>
    <polyline points="658.4079,292.7053 658.4079,301.692 658.9365,303.2779 659.9938,303.8066 661.051,303.8066"/>
    <line x1="656.822" x2="660.5224" y1="296.4057" y2="296.4057"/>
    <polygon points="663.6942,292.7053 664.2228,293.2339 664.7515,292.7053 664.2228,292.1766"/>
    <line x1="664.2228" x2="664.2228" y1="296.4057" y2="303.8066"/>
    <line x1="668.4519" x2="668.4519" y1="292.7053" y2="303.8066"/>
    <polyline points="673.2096,292.7053 673.2096,301.692 673.7382,303.2779 674.7955,303.8066 675.8528,303.8066"/>
    <line x1="671.6237" x2="675.3242" y1="296.4057" y2="296.4057"/>
    <line x1="687.4827" x2="696.9982" y1="297.463" y2="297.463"/>
    <line x1="687.4827" x2="696.9982" y1="300.6348" y2="300.6348"/>
    <polyline points="714.4431,292.7053 709.1568,300.1061 717.0863,300.1061"/>
    <line x1="714.4431" x2="714.4431" y1="292.7053" y2="303.8066"/>
    <polyline points="726.0731,292.7053 720.7867,292.7053 720.2581,297.463 720.7867,296.9343 722.3726,296.4057 723.9585,296.4057 725.5444,296.9343 726.6017,297.9916 727.1303,299.5775 727.1303,300.6348 726.6017,302.2207 725.5444,303.2779 723.9585,303.8066 722.3726,303.8066 720.7867,303.2779 720.2581,302.7493 719.7294,301.692"/>
    <line x1="736.6457" x2="736.6457" y1="292.7053" y2="303.8066"/>
    <polyline points="736.6457,297.9916 735.5885,296.9343 734.5312,296.4057 732.9453,296.4057 731.888,296.9343 730.8308,297.9916 730.3021,299.5775 730.3021,300.6348 730.8308,302.2207 731.888,303.2779 732.9453,303.8066 734.5312,303.8066 735.5885,303.2779 736.6457,302.2207"/>
    <polyline points="740.3462,299.5775 746.6898,299.5775 746.6898,298.5202 746.1612,297.463 745.6325,296.9343 744.5753,296.4057 742.9894,296.4057 741.9321,296.9343 740.8748,297.9916 740.3462,299.5775 740.3462,300.6348 740.8748,302.2207 741.9321,303.2779 742.9894,303.8066 744.5753,303.8066 745.6325,303.2779 746.6898,302.2207"/>
    <polyline points="756.2052,296.4057 756.2052,304.8639 755.6766,306.4498 755.1479,306.9784 754.0907,307.507 752.5048,307.507 751.4475,306.9784"/>
    <polyline points="756.2052,297.9916 755.1479,296.9343 754.0907,296.4057 752.5048,296.4057 751.4475,296.9343 750.3902,297.9916 749.8616,299.5775 749.8616,300.6348 750.3902,302.2207 751.4475,303.2779 752.5048,303.8066 754.0907,303.8066 755.1479,303.2779 756.2052,302.2207"/>
    <polyline points="913.791,114.7623 942.4223,201.8456 1053.4789,254.675 1110.3819,199.269"/>
    <line x1="1110.3819" x2="913.791" y1="178.868" y2="114.7623"/>
    <line x1="916.2547" x2="917.2247" y1="116.6427" y2="119.6752"/>
    <line x1="919.3888" x2="920.0083" y1="118.5903" y2="120.6043"/>
    <polyline points="919.5226,119.0252 919.1366,118.6374 918.7951,118.3943 918.3507,118.2476 918.1004,118.2951 917.8963,118.4871 917.8854,118.8711 917.9761,119.1586 918.2582,119.6372 918.6412,120.0204 918.9791,120.2608 919.4197,120.4078 919.6698,120.3635 919.8766,120.176"/>
    <line x1="920.282" x2="921.7826" y1="118.8852" y2="121.1964"/>
    <polyline points="922.0781,119.4781 921.7826,121.1964 921.6572,121.6659 921.4472,121.85 921.1953,121.8924 921.0481,121.843"/>
    <polyline points="923.0846,120.5956 924.8924,121.1952 924.8101,120.9061 924.5762,120.5661 924.3832,120.3708 924.0387,120.1253 923.5849,119.9755 923.325,120.0212 923.1082,120.2117 923.0846,120.5956 923.1688,120.8837 923.4444,121.3641 923.8272,121.7499 924.1681,121.9926 924.6179,122.1427 924.8774,122.1002 925.0969,121.9143"/>
    <line x1="925.7096" x2="926.2742" y1="120.677" y2="122.6955"/>
    <polyline points="925.953,121.547 925.9837,121.1633 926.2077,120.9736 926.4728,120.9289 926.9319,121.0805"/>
    <polyline points="930.366,121.8129 930.6398,121.7689 930.9956,121.4817 931.772,124.5305"/>
    <polyline points="900.6113,125.8439 936.0728,211.5464 1047.0357,267.0811"/>
    <line x1="1053.5537" x2="1110.3819" y1="267.0811" y2="221.73"/>
    <line x1="1110.3819" x2="900.6113" y1="200.9987" y2="125.8439"/>
    <line x1="903.2673" x2="904.5063" y1="127.8357" y2="130.8995"/>
    <line x1="906.6079" x2="907.4039" y1="129.9268" y2="131.9596"/>
    <polyline points="906.7799,130.366 906.3561,129.9613 905.9895,129.7027 905.5268,129.5351 905.2771,129.5701 905.0864,129.7512 905.1077,130.1326 905.2238,130.4229 905.5498,130.9124 905.9699,131.3121 906.3323,131.5676 906.791,131.7354 907.0408,131.7036 907.2347,131.5276"/>
    <line x1="907.5385" x2="909.252" y1="130.2639" y2="132.6358"/>
    <polyline points="909.4103,130.942 909.252,132.6358 909.1634,133.0958 908.9658,133.2682 908.7139,133.2977 908.5606,133.2413"/>
    <polyline points="910.5239,132.1031 912.409,132.7889 912.302,132.4974 912.0366,132.1476 911.8246,131.9438 911.4545,131.6825 910.9813,131.5111 910.7211,131.5437 910.5164,131.7225 910.5239,132.1031 910.633,132.3937 910.9521,132.8848 911.3722,133.2873 911.7381,133.5454 912.2071,133.7169 912.4672,133.6876 912.6751,133.5139"/>
    <line x1="913.1977" x2="913.9344" y1="132.314" y2="134.3489"/>
    <polyline points="913.5154,133.1915 913.5157,132.8114 913.7281,132.6339 913.9942,132.6026 914.4733,132.7762"/>
    <polyline points="917.7533,133.7063 917.703,133.5587 917.7649,133.3216 917.8774,133.2321 918.1533,133.2012 918.8073,133.4369 919.1844,133.7035 919.3975,133.9109 919.6595,134.266 919.7573,134.5609 919.6917,134.7958 919.5123,135.117 918.3867,135.9779 920.6433,136.8035"/>
    <polyline points="885.4717,138.5735 929.2047,222.0396 1014.5128,267.0811"/>
    <line x1="1078.6656" x2="1110.3819" y1="267.0811" y2="248.3805"/>
    <line x1="1110.3819" x2="885.4717" y1="227.9763" y2="138.5735"/>
    <line x1="888.3519" x2="889.9317" y1="140.6903" y2="143.762"/>
    <line x1="891.9283" x2="892.9479" y1="142.9474" y2="144.983"/>
    <polyline points="892.1487,143.3875 891.6798,142.965 891.2842,142.6889 890.8023,142.4955 890.5561,142.5137 890.3852,142.6784 890.4486,143.0522 890.5968,143.343 890.977,143.8417 891.4413,144.2588 891.8322,144.5313 892.3097,144.7246 892.5563,144.7098 892.7314,144.5507"/>
    <line x1="892.8977" x2="894.8731" y1="143.3365" y2="145.7623"/>
    <polyline points="894.8487,144.1196 894.8731,145.7623 894.8341,146.2051 894.6547,146.3601 894.4055,146.3724 894.2458,146.3075"/>
    <polyline points="896.0915,145.3254 898.0577,146.1175 897.9191,145.826 897.6151,145.4673 897.3804,145.2544 896.9807,144.9752 896.487,144.7771 896.2292,144.7921 896.043,144.9534 896.0915,145.3254 896.2322,145.6161 896.6052,146.116 897.0699,146.5359 897.4647,146.8114 897.9538,147.0094 898.2118,146.9979 898.4021,146.8421"/>
    <line x1="898.7998" x2="899.7557" y1="145.7053" y2="147.7389"/>
    <polyline points="899.2122,146.5826 899.1722,146.2117 899.367,146.0522 899.6312,146.0391 900.1315,146.2398"/>
    <polyline points="903.3706,146.6916 905.2519,147.4434 904.7466,148.2127 905.2572,148.4178 905.6624,148.7011 905.897,148.9158 906.2587,149.4213 906.3855,149.7113 906.4054,150.0761 906.1931,150.2269 905.7499,150.1654 905.2446,149.9609 904.6763,149.6132 904.4439,149.4015 904.1467,149.0453"/>
    <polyline points="867.8999,153.3481 921.7516,233.4264 981.9898,267.0811"/>
    <line x1="1110.3819" x2="867.8999" y1="261.5889" y2="153.3481"/>
    <line x1="871.045" x2="873.0623" y1="155.606" y2="158.6495"/>
    <line x1="874.8927" x2="876.2002" y1="158.0577" y2="160.0711"/>
    <polyline points="875.1756,158.4933 874.6519,158.0523 874.2222,157.7561 873.7207,157.5305 873.4824,157.5259 873.3403,157.6664 873.4595,158.0253 873.649,158.3132 874.0971,158.818 874.6151,159.253 875.0391,159.5451 875.5359,159.7702 875.7753,159.7783 875.9227,159.6438"/>
    <line x1="875.9021" x2="878.2046" y1="158.5119" y2="160.9792"/>
    <polyline points="877.9345,159.4262 878.2046,160.9792 878.2326,161.393 878.0798,161.5229 877.8374,161.512 877.6712,161.4365"/>
    <polyline points="879.3352,160.6767 881.3852,161.6018 881.2058,161.3141 880.8538,160.948 880.5914,160.7258 880.1569,160.4261 879.6421,160.1945 879.3911,160.1855 879.2322,160.3212 879.3352,160.6767 879.5168,160.9637 879.9575,161.469 880.4762,161.907 880.9049,162.2025 881.4148,162.4335 881.6667,162.4461 881.8308,162.3165"/>
    <line x1="882.0545" x2="883.294" y1="161.2798" y2="163.2849"/>
    <polyline points="882.5895,162.1453 882.4956,161.7916 882.6639,161.6587 882.9222,161.6702 883.4444,161.9052"/>
    <polyline points="888.1344,163.267 887.5559,164.4908 890.2118,165.6899"/>
    <line x1="888.1344" x2="889.9063" y1="163.267" y2="166.2806"/>
    <polyline points="854.6394,179.0572 913.6355,245.8263 949.4668,267.0811"/>
    <line x1="1036.6134" x2="854.6394" y1="267.0811" y2="174.4605"/>
    <line x1="854.8846" x2="856.5686" y1="175.8047" y2="177.7572"/>
    <polyline points="855.2492,176.2275 854.658,175.7675 854.6394,175.7549"/>
    <polyline points="854.6394,176.6206 854.8992,176.8222 855.3624,177.1368 855.8785,177.4023 856.1043,177.4418 856.2115,177.3432"/>
    <line x1="855.9337" x2="858.6522" y1="176.3416" y2="178.8288"/>
    <polyline points="858.0473,177.4233 858.6522,178.8288 858.7719,179.1967 858.6581,179.2902 858.4285,179.2476 858.2558,179.1585"/>
    <polyline points="859.6447,178.7163 861.7788,179.8108 861.5458,179.533 861.1327,179.1623 860.8362,178.9307 860.3604,178.6072 859.8244,178.3329 859.5865,178.2908 859.4678,178.3888 859.6447,178.7163 859.8798,178.9938 860.4072,179.4988 860.9926,179.9551 861.4615,180.2737 861.9923,180.5467 862.232,180.5923 862.3575,180.5009"/>
    <line x1="862.3369" x2="863.9496" y1="179.6188" y2="181.5533"/>
    <polyline points="863.0334,180.4543 862.8664,180.1301 862.9953,180.0361 863.2412,180.0816 863.7856,180.3602"/>
    <polyline points="868.8917,182.398 867.0241,181.4446 867.8599,182.6077 867.932,182.5636 868.3751,182.7091 868.9323,182.9943 869.6023,183.4188 870.197,183.8859 870.714,184.3935 870.9333,184.667 871.0754,184.9799 870.9232,185.0608 870.479,184.9115 869.9275,184.6279 869.2675,184.2095 868.9741,183.9796 868.5695,183.6131"/>
    <line x1="930.9688" x2="930.9688" y1="275.0938" y2="286.1952"/>
    <polyline points="930.9688,276.6797 932.0261,275.6225 933.0834,275.0938 934.6693,275.0938 935.7265,275.6225 936.7838,276.6797 937.3124,278.2656 937.3124,279.3229 936.7838,280.9088 935.7265,281.9661 934.6693,282.4947 933.0834,282.4947 932.0261,281.9661 930.9688,280.9088"/>
    <line x1="946.8278" x2="946.8278" y1="275.0938" y2="282.4947"/>
    <polyline points="946.8278,276.6797 945.7706,275.6225 944.7133,275.0938 943.1274,275.0938 942.0701,275.6225 941.0129,276.6797 940.4842,278.2656 940.4842,279.3229 941.0129,280.9088 942.0701,281.9661 943.1274,282.4947 944.7133,282.4947 945.7706,281.9661 946.8278,280.9088"/>
    <line x1="951.0569" x2="951.0569" y1="275.0938" y2="282.4947"/>
    <polyline points="951.0569,277.2084 952.6428,275.6225 953.7001,275.0938 955.286,275.0938 956.3433,275.6225 956.8719,277.2084 956.8719,282.4947"/>
    <line x1="969.5591" x2="979.0745" y1="276.1511" y2="276.1511"/>
    <line x1="969.5591" x2="979.0745" y1="279.3229" y2="279.3229"/>
    <polyline points="991.7618,274.0366 991.7618,273.5079 992.2904,272.4507 992.819,271.922 993.8763,271.3934 995.9908,271.3934 997.0481,271.922 997.5767,272.4507 998.1054,273.5079 998.1054,274.5652 997.5767,275.6225 996.5195,277.2084 991.2331,282.4947 998.634,282.4947"/>
    <polyline points="1008.1494,271.3934 1002.8631,271.3934 1002.3345,276.1511 1002.8631,275.6225 1004.449,275.0938 1006.0349,275.0938 1007.6208,275.6225 1008.6781,276.6797 1009.2067,278.2656 1009.2067,279.3229 1008.6781,280.9088 1007.6208,281.9661 1006.0349,282.4947 1004.449,282.4947 1002.8631,281.9661 1002.3345,281.4374 1001.8058,280.3802"/>
    <line x1="1018.7221" x2="1018.7221" y1="271.3934" y2="282.4947"/>
    <polyline points="1018.7221,276.6797 1017.6649,275.6225 1016.6076,275.0938 1015.0217,275.0938 1013.9644,275.6225 1012.9071,276.6797 1012.3785,278.2656 1012.3785,279.3229 1012.9071,280.9088 1013.9644,281.9661 1015.0217,282.4947 1016.6076,282.4947 1017.6649,281.9661 1018.7221,280.9088"/>
    <polyline points="1022.4226,278.2656 1028.7662,278.2656 1028.7662,277.2084 1028.2375,276.1511 1027.7089,275.6225 1026.6516,275.0938 1025.0657,275.0938 1024.0085,275.6225 1022.9512,276.6797 1022.4226,278.2656 1022.4226,279.3229 1022.9512,280.9088 1024.0085,281.9661 1025.0657,282.4947 1026.6516,282.4947 1027.7089,281.9661 1028.7662,280.9088"/>
    <polyline points="1038.2816,275.0938 1038.2816,283.552 1037.753,285.1379 1037.2243,285.6665 1036.1671,286.1952 1034.5812,286.1952 1033.5239,285.6665"/>
    <polyline points="1038.2816,276.6797 1037.2243,275.6225 1036.1671,275.0938 1034.5812,275.0938 1033.5239,275.6225 1032.4666,276.6797 1031.938,278.2656 1031.938,279.3229 1032.4666,280.9088 1033.5239,281.9661 1034.5812,282.4947 1036.1671,282.4947 1037.2243,281.9661 1038.2816,280.9088"/>
    <polyline points="935.4622,292.7053 935.4622,301.692 935.9908,303.2779 937.0481,303.8066 938.1054,303.8066"/>
    <line x1="933.8763" x2="937.5767" y1="296.4057" y2="296.4057"/>
    <polygon points="940.7486,292.7053 941.2772,293.2339 941.8058,292.7053 941.2772,292.1766"/>
    <line x1="941.2772" x2="941.2772" y1="296.4057" y2="303.8066"/>
    <line x1="945.5063" x2="945.5063" y1="292.7053" y2="303.8066"/>
    <polyline points="950.264,292.7053 950.264,301.692 950.7926,303.2779 951.8499,303.8066 952.9071,303.8066"/>
    <line x1="948.6781" x2="952.3785" y1="296.4057" y2="296.4057"/>
    <line x1="964.5371" x2="974.0525" y1="297.463" y2="297.463"/>
    <line x1="964.5371" x2="974.0525" y1="300.6348" y2="300.6348"/>
    <polyline points="991.4975,292.7053 986.2111,300.1061 994.1406,300.1061"/>
    <line x1="991.4975" x2="991.4975" y1="292.7053" y2="303.8066"/>
    <polyline points="1003.1274,292.7053 997.8411,292.7053 997.3124,297.463 997.8411,296.9343 999.427,296.4057 1001.0129,296.4057 1002.5988,296.9343 1003.656,297.9916 1004.1847,299.5775 1004.1847,300.6348 1003.656,302.2207 1002.5988,303.2779 1001.0129,303.8066 999.427,303.8066 997.8411,303.2779 997.3124,302.7493 996.7838,301.692"/>
    <line x1="1013.7001" x2="1013.7001" y1="292.7053" y2="303.8066"/>
    <polyline points="1013.7001,297.9916 1012.6428,296.9343 1011.5856,296.4057 1009.9997,296.4057 1008.9424,296.9343 1007.8851,297.9916 1007.3565,299.5775 1007.3565,300.6348 1007.8851,302.2207 1008.9424,303.2779 1009.9997,303.8066 1011.5856,303.8066 1012.6428,303.2779 1013.7001,302.2207"/>
    <polyline points="1017.4005,299.5775 1023.7441,299.5775 1023.7441,298.5202 1023.2155,297.463 1022.6869,296.9343 1021.6296,296.4057 1020.0437,296.4057 1018.9864,296.9343 1017.9292,297.9916 1017.4005,299.5775 1017.4005,300.6348 1017.9292,302.2207 1018.9864,303.2779 1020.0437,303.8066 1021.6296,303.8066 1022.6869,303.2779 1023.7441,302.2207"/>
    <polyline points="1033.2596,296.4057 1033.2596,304.8639 1032.7309,306.4498 1032.2023,306.9784 1031.145,307.507 1029.5591,307.507 1028.5019,306.9784"/>
    <polyline points="1033.2596,297.9916 1032.2023,296.9343 1031.145,296.4057 1029.5591,296.4057 1028.5019,296.9343 1027.4446,297.9916 1026.916,299.5775 1026.916,300.6348 1027.4446,302.2207 1028.5019,303.2779 1029.5591,303.8066 1031.145,303.8066 1032.2023,303.2779 1033.2596,302.2207"/>
    <line x1="900.8367" x2="900.8367" y1="317.7176" y2="325.1185"/>
    <polyline points="900.8367,319.8321 902.4226,318.2462 903.4798,317.7176 905.0657,317.7176 906.123,318.2462 906.6516,319.8321 906.6516,325.1185"/>
    <polyline points="906.6516,319.8321 908.2375,318.2462 909.2948,317.7176 910.8807,317.7176 911.938,318.2462 912.4666,319.8321 912.4666,325.1185"/>
    <polygon points="918.8102,317.7176 917.753,318.2462 916.6957,319.3035 916.1671,320.8894 916.1671,321.9467 916.6957,323.5326 917.753,324.5898 918.8102,325.1185 920.3961,325.1185 921.4534,324.5898 922.5107,323.5326 923.0393,321.9467 923.0393,320.8894 922.5107,319.3035 921.4534,318.2462 920.3961,317.7176"/>
    <line x1="925.6825" x2="928.8543" y1="317.7176" y2="325.1185"/>
    <line x1="932.0261" x2="928.8543" y1="317.7176" y2="325.1185"/>
    <polyline points="934.6693,320.8894 941.0129,320.8894 941.0129,319.8321 940.4842,318.7748 939.9556,318.2462 938.8983,317.7176 937.3124,317.7176 936.2552,318.2462 935.1979,319.3035 934.6693,320.8894 934.6693,321.9467 935.1979,323.5326 936.2552,324.5898 937.3124,325.1185 938.8983,325.1185 939.9556,324.5898 941.0129,323.5326"/>
    <line x1="953.1715" x2="962.6869" y1="318.7748" y2="318.7748"/>
    <line x1="953.1715" x2="962.6869" y1="321.9467" y2="321.9467"/>
    <polyline points="979.0745,311.9026 978.0173,312.9599 976.96,314.5458 975.9027,316.6603 975.3741,319.3035 975.3741,321.418 975.9027,324.0612 976.96,326.1757 978.0173,327.7616 979.0745,328.8189"/>
    <polygon points="985.4182,314.0171 983.8323,314.5458 982.775,316.1317 982.2463,318.7748 982.2463,320.3607 982.775,323.0039 983.8323,324.5898 985.4182,325.1185 986.4754,325.1185 988.0613,324.5898 989.1186,323.0039 989.6472,320.3607 989.6472,318.7748 989.1186,316.1317 988.0613,314.5458 986.4754,314.0171"/>
    <polyline points="993.8763,323.0039 993.3477,323.5326 992.819,323.0039 993.3477,322.4753 993.8763,323.0039 993.8763,324.0612 992.819,325.1185"/>
    <polyline points="1011.8499,314.0171 1006.5635,314.0171 1006.0349,318.7748 1006.5635,318.2462 1008.1494,317.7176 1009.7353,317.7176 1011.3212,318.2462 1012.3785,319.3035 1012.9071,320.8894 1012.9071,321.9467 1012.3785,323.5326 1011.3212,324.5898 1009.7353,325.1185 1008.1494,325.1185 1006.5635,324.5898 1006.0349,324.0612 1005.5063,323.0039"/>
    <polyline points="1022.4226,319.3035 1021.3653,318.2462 1020.308,317.7176 1018.7221,317.7176 1017.6649,318.2462 1016.6076,319.3035 1016.0789,320.8894 1016.0789,321.9467 1016.6076,323.5326 1017.6649,324.5898 1018.7221,325.1185 1020.308,325.1185 1021.3653,324.5898 1022.4226,323.5326"/>
    <line x1="1026.123" x2="1026.123" y1="317.7176" y2="325.1185"/>
    <polyline points="1026.123,319.8321 1027.7089,318.2462 1028.7662,317.7176 1030.3521,317.7176 1031.4093,318.2462 1031.938,319.8321 1031.938,325.1185"/>
    <polyline points="1031.938,319.8321 1033.5239,318.2462 1034.5812,317.7176 1036.1671,317.7176 1037.2243,318.2462 1037.753,319.8321 1037.753,325.1185"/>
    <polyline points="1042.5107,323.0039 1041.982,323.5326 1041.4534,323.0039 1041.982,322.4753 1042.5107,323.0039 1042.5107,324.0612 1041.4534,325.1185"/>
    <polygon points="1057.3124,314.0171 1055.7265,314.5458 1054.6693,316.1317 1054.1406,318.7748 1054.1406,320.3607 1054.6693,323.0039 1055.7265,324.5898 1057.3124,325.1185 1058.3697,325.1185 1059.9556,324.5898 1061.0129,323.0039 1061.5415,320.3607 1061.5415,318.7748 1061.0129,316.1317 1059.9556,314.5458 1058.3697,314.0171"/>
    <polyline points="1064.7133,311.9026 1065.7706,312.9599 1066.8278,314.5458 1067.8851,316.6603 1068.4138,319.3035 1068.4138,321.418 1067.8851,324.0612 1066.8278,326.1757 1065.7706,327.7616 1064.7133,328.8189"/>
  </g>
  <g fill="none" id="layer7" inkscape:groupmode="layer" inkscape:label="7" stroke="#808080" style="display:inline">
    <polygon points="23.4764,11.3386 23.4764,267.0811 279.2188,267.0811 279.2188,11.3386"/>
    <polygon points="300.5307,11.3386 300.5307,267.0811 556.2732,267.0811 556.2732,11.3386"/>
    <polygon points="577.5851,11.3386 577.5851,267.0811 833.3276,267.0811 833.3276,11.3386"/>
    <polygon points="854.6394,11.3386 854.6394,267.0811 1110.3819,267.0811 1110.3819,11.3386"/>
  </g>
</svg>
