<?xml version="1.0" encoding="utf-8" ?>
<svg xmlns="http://www.w3.org/2000/svg" xmlns:cc="http://creativecommons.org/ns" xmlns:dc="http://purl.org/dc/elements/1.1/" xmlns:ev="http://www.w3.org/2001/xml-events" xmlns:inkscape="http://www.inkscape.org/namespaces/inkscape" xmlns:rdf="http://www.w3.org/1999/02/22-rdf-syntax-ns" xmlns:sodipodi="http://sodipodi.sourceforge.net/DTD/sodipodi-0.dtd" xmlns:xlink="http://www.w3.org/1999/xlink" baseProfile="tiny" height="10.0cm" version="1.2" viewBox="0 0 755.9055118110235 377.95275590551176" width="20.0cm">
  <metadata>
    <rdf:RDF>
      <cc:Work>
        <dc:format>image/svg+xml</dc:format>
        <dc:source>vpype -I figures/fig_topview.vpy write figures/fig_topview.svg
</dc:source>
        <dc:date>2022-03-31T12:15:55.272457</dc:date>
      </cc:Work>
    </rdf:RDF>
  </metadata>
  <defs/>
  <g fill="none" id="layer2" inkscape:groupmode="layer" inkscape:label="2" stroke="#000000" style="display:inline">
    <line x1="636.6826" x2="636.6826" y1="344.1585" y2="352.7554"/>
    <polyline points="636.6826,348.2523 635.8639,347.4335 635.0451,347.0242 633.817,347.0242 632.9983,347.4335 632.1795,348.2523 631.7701,349.4804 631.7701,350.2992 632.1795,351.5273 632.9983,352.346 633.817,352.7554 635.0451,352.7554 635.8639,352.346 636.6826,351.5273"/>
    <polyline points="639.5483,349.4804 644.4608,349.4804 644.4608,348.6617 644.0514,347.8429 643.642,347.4335 642.8233,347.0242 641.5951,347.0242 640.7764,347.4335 639.9576,348.2523 639.5483,349.4804 639.5483,350.2992 639.9576,351.5273 640.7764,352.346 641.5951,352.7554 642.8233,352.7554 643.642,352.346 644.4608,351.5273"/>
    <line x1="647.3264" x2="647.3264" y1="344.1585" y2="352.7554"/>
    <polyline points="651.0108,344.1585 651.0108,351.1179 651.4201,352.346 652.2389,352.7554 653.0576,352.7554"/>
    <line x1="649.7826" x2="652.6483" y1="347.0242" y2="347.0242"/>
    <line x1="660.017" x2="660.017" y1="347.0242" y2="352.7554"/>
    <polyline points="660.017,348.2523 659.1983,347.4335 658.3795,347.0242 657.1514,347.0242 656.3326,347.4335 655.5139,348.2523 655.1045,349.4804 655.1045,350.2992 655.5139,351.5273 656.3326,352.346 657.1514,352.7554 658.3795,352.7554 659.1983,352.346 660.017,351.5273"/>
    <line x1="661.6545" x2="669.0233" y1="355.621" y2="355.621"/>
    <line x1="674.7545" x2="670.2514" y1="347.0242" y2="352.7554"/>
    <line x1="670.2514" x2="674.7545" y1="347.0242" y2="347.0242"/>
    <line x1="670.2514" x2="674.7545" y1="352.7554" y2="352.7554"/>
    <polyline points="146.6816,344.1585 145.8629,344.1585 145.0441,344.5679 144.6348,345.796 144.6348,352.7554"/>
    <line x1="143.4066" x2="146.2723" y1="347.0242" y2="347.0242"/>
    <polygon points="150.7754,347.0242 149.9566,347.4335 149.1379,348.2523 148.7285,349.4804 148.7285,350.2992 149.1379,351.5273 149.9566,352.346 150.7754,352.7554 152.0035,352.7554 152.8223,352.346 153.641,351.5273 154.0504,350.2992 154.0504,349.4804 153.641,348.2523 152.8223,347.4335 152.0035,347.0242"/>
    <polyline points="161.4191,348.2523 160.6004,347.4335 159.7816,347.0242 158.5535,347.0242 157.7348,347.4335 156.916,348.2523 156.5066,349.4804 156.5066,350.2992 156.916,351.5273 157.7348,352.346 158.5535,352.7554 159.7816,352.7554 160.6004,352.346 161.4191,351.5273"/>
    <line x1="168.7879" x2="168.7879" y1="347.0242" y2="352.7554"/>
    <polyline points="168.7879,348.2523 167.9691,347.4335 167.1504,347.0242 165.9223,347.0242 165.1035,347.4335 164.2848,348.2523 163.8754,349.4804 163.8754,350.2992 164.2848,351.5273 165.1035,352.346 165.9223,352.7554 167.1504,352.7554 167.9691,352.346 168.7879,351.5273"/>
    <line x1="172.0629" x2="172.0629" y1="344.1585" y2="352.7554"/>
  </g>
  <g fill="none" id="layer5" inkscape:groupmode="layer" inkscape:label="5" stroke="#dddddd" style="display:inline">
    <line x1="638.2809" x2="638.2809" y1="329.8164" y2="338.0684"/>
    <line x1="638.2809" x2="665.7875" y1="338.0684" y2="338.0684"/>
    <line x1="665.7875" x2="665.7875" y1="338.0684" y2="329.8164"/>
    <line x1="60.643" x2="60.643" y1="329.8164" y2="338.0684"/>
    <line x1="60.643" x2="253.189" y1="338.0684" y2="338.0684"/>
    <line x1="253.189" x2="253.189" y1="338.0684" y2="329.8164"/>
    <line x1="60.643" x2="665.7875" y1="178.5303" y2="40.9975"/>
    <line x1="60.643" x2="638.2809" y1="178.5303" y2="40.9975"/>
    <line x1="60.643" x2="665.7875" y1="178.5303" y2="316.0632"/>
    <line x1="60.643" x2="638.2809" y1="178.5303" y2="316.0632"/>
    <line x1="60.643" x2="665.7875" y1="178.5303" y2="178.5303"/>
  </g>
  <g fill="none" id="layer9" inkscape:groupmode="layer" inkscape:label="9" stroke="#0000ff" style="display:inline">
    <line x1="253.189" x2="60.643" y1="40.9975" y2="178.5303"/>
    <line x1="253.189" x2="60.643" y1="316.0632" y2="178.5303"/>
    <polyline points="16.2511,177.7116 15.4323,176.8928 14.6136,176.4835 13.3855,176.4835 12.5667,176.8928 11.748,177.7116 11.3386,178.9397 11.3386,179.7585 11.748,180.9866 12.5667,181.8053 13.3855,182.2147 14.6136,182.2147 15.4323,181.8053 16.2511,180.9866"/>
    <line x1="23.6198" x2="23.6198" y1="176.4835" y2="182.2147"/>
    <polyline points="23.6198,177.7116 22.8011,176.8928 21.9823,176.4835 20.7542,176.4835 19.9355,176.8928 19.1167,177.7116 18.7073,178.9397 18.7073,179.7585 19.1167,180.9866 19.9355,181.8053 20.7542,182.2147 21.9823,182.2147 22.8011,181.8053 23.6198,180.9866"/>
    <line x1="26.8948" x2="26.8948" y1="176.4835" y2="182.2147"/>
    <polyline points="26.8948,178.121 28.123,176.8928 28.9417,176.4835 30.1698,176.4835 30.9886,176.8928 31.398,178.121 31.398,182.2147"/>
    <polyline points="31.398,178.121 32.6261,176.8928 33.4448,176.4835 34.673,176.4835 35.4917,176.8928 35.9011,178.121 35.9011,182.2147"/>
    <polyline points="38.7667,178.9397 43.6792,178.9397 43.6792,178.121 43.2698,177.3022 42.8605,176.8928 42.0417,176.4835 40.8136,176.4835 39.9948,176.8928 39.1761,177.7116 38.7667,178.9397 38.7667,179.7585 39.1761,180.9866 39.9948,181.8053 40.8136,182.2147 42.0417,182.2147 42.8605,181.8053 43.6792,180.9866"/>
    <line x1="46.5448" x2="46.5448" y1="176.4835" y2="182.2147"/>
    <polyline points="46.5448,178.9397 46.9542,177.7116 47.773,176.8928 48.5917,176.4835 49.8198,176.4835"/>
    <line x1="56.3698" x2="56.3698" y1="176.4835" y2="182.2147"/>
    <polyline points="56.3698,177.7116 55.5511,176.8928 54.7323,176.4835 53.5042,176.4835 52.6855,176.8928 51.8667,177.7116 51.4573,178.9397 51.4573,179.7585 51.8667,180.9866 52.6855,181.8053 53.5042,182.2147 54.7323,182.2147 55.5511,181.8053 56.3698,180.9866"/>
    <polyline points="83.0365,194.5035 84.4552,192.2996 85.6576,189.9707 86.6329,187.5379 87.3722,185.0234 87.8689,182.4499 88.1184,179.8408 88.1184,177.2198 87.8689,174.6108 87.3722,172.0373 86.6329,169.5227 85.6576,167.0899 84.4552,164.7611 83.0365,162.5572"/>
    <line x1="95.2884" x2="95.2884" y1="173.6178" y2="182.2147"/>
    <polyline points="95.2884,178.121 96.5165,176.8928 97.3353,176.4835 98.5634,176.4835 99.3822,176.8928 99.7915,178.121 99.7915,182.2147"/>
    <polyline points="105.5228,173.6178 104.704,173.6178 103.8853,174.0272 103.4759,175.2553 103.4759,182.2147"/>
    <line x1="102.2478" x2="105.1134" y1="176.4835" y2="176.4835"/>
    <polygon points="109.6165,176.4835 108.7978,176.8928 107.979,177.7116 107.5697,178.9397 107.5697,179.7585 107.979,180.9866 108.7978,181.8053 109.6165,182.2147 110.8447,182.2147 111.6634,181.8053 112.4822,180.9866 112.8915,179.7585 112.8915,178.9397 112.4822,177.7116 111.6634,176.8928 110.8447,176.4835"/>
    <line x1="114.9384" x2="117.3947" y1="176.4835" y2="182.2147"/>
    <line x1="119.8509" x2="117.3947" y1="176.4835" y2="182.2147"/>
  </g>
  <g fill="none" id="layer10" inkscape:groupmode="layer" inkscape:label="10" stroke="#000000" style="display:inline">
    <line x1="253.189" x2="253.189" y1="40.9975" y2="316.0632"/>
    <line x1="233.539" x2="233.539" y1="22.3317" y2="30.9286"/>
    <line x1="241.3171" x2="241.3171" y1="25.1973" y2="30.9286"/>
    <polyline points="241.3171,26.4255 240.4984,25.6067 239.6796,25.1973 238.4515,25.1973 237.6327,25.6067 236.814,26.4255 236.4046,27.6536 236.4046,28.4723 236.814,29.7005 237.6327,30.5192 238.4515,30.9286 239.6796,30.9286 240.4984,30.5192 241.3171,29.7005"/>
    <line x1="243.7734" x2="246.2296" y1="25.1973" y2="30.9286"/>
    <polyline points="248.6859,25.1973 246.2296,30.9286 245.4109,32.5661 244.5921,33.3848 243.7734,33.7942 243.364,33.7942"/>
    <polyline points="250.7327,27.6536 255.6452,27.6536 255.6452,26.8348 255.2359,26.0161 254.8265,25.6067 254.0077,25.1973 252.7796,25.1973 251.9609,25.6067 251.1421,26.4255 250.7327,27.6536 250.7327,28.4723 251.1421,29.7005 251.9609,30.5192 252.7796,30.9286 254.0077,30.9286 254.8265,30.5192 255.6452,29.7005"/>
    <line x1="258.5109" x2="258.5109" y1="25.1973" y2="30.9286"/>
    <polyline points="258.5109,27.6536 258.9202,26.4255 259.739,25.6067 260.5577,25.1973 261.7859,25.1973"/>
    <line x1="270.3827" x2="270.3827" y1="22.3317" y2="30.9286"/>
    <line x1="270.3827" x2="276.114" y1="22.3317" y2="30.9286"/>
    <line x1="276.114" x2="276.114" y1="22.3317" y2="30.9286"/>
    <line x1="638.2809" x2="638.2809" y1="40.9975" y2="316.0632"/>
    <line x1="597.7528" x2="597.7528" y1="22.3317" y2="30.9286"/>
    <line x1="605.5309" x2="605.5309" y1="25.1973" y2="30.9286"/>
    <polyline points="605.5309,26.4255 604.7122,25.6067 603.8934,25.1973 602.6653,25.1973 601.8465,25.6067 601.0278,26.4255 600.6184,27.6536 600.6184,28.4723 601.0278,29.7005 601.8465,30.5192 602.6653,30.9286 603.8934,30.9286 604.7122,30.5192 605.5309,29.7005"/>
    <line x1="607.9872" x2="610.4434" y1="25.1973" y2="30.9286"/>
    <polyline points="612.8997,25.1973 610.4434,30.9286 609.6247,32.5661 608.8059,33.3848 607.9872,33.7942 607.5778,33.7942"/>
    <polyline points="614.9465,27.6536 619.859,27.6536 619.859,26.8348 619.4497,26.0161 619.0403,25.6067 618.2215,25.1973 616.9934,25.1973 616.1747,25.6067 615.3559,26.4255 614.9465,27.6536 614.9465,28.4723 615.3559,29.7005 616.1747,30.5192 616.9934,30.9286 618.2215,30.9286 619.0403,30.5192 619.859,29.7005"/>
    <line x1="622.7247" x2="622.7247" y1="25.1973" y2="30.9286"/>
    <polyline points="622.7247,27.6536 623.134,26.4255 623.9528,25.6067 624.7715,25.1973 625.9997,25.1973"/>
    <polyline points="634.5965,24.3786 634.5965,23.9692 635.0059,23.1505 635.4153,22.7411 636.234,22.3317 637.8715,22.3317 638.6903,22.7411 639.0997,23.1505 639.509,23.9692 639.509,24.788 639.0997,25.6067 638.2809,26.8348 634.1872,30.9286 639.9184,30.9286"/>
    <line x1="665.7875" x2="665.7875" y1="40.9975" y2="316.0632"/>
    <line x1="667.425" x2="667.425" y1="22.3317" y2="30.9286"/>
    <line x1="675.2031" x2="675.2031" y1="25.1973" y2="30.9286"/>
    <polyline points="675.2031,26.4255 674.3844,25.6067 673.5656,25.1973 672.3375,25.1973 671.5187,25.6067 670.7,26.4255 670.2906,27.6536 670.2906,28.4723 670.7,29.7005 671.5187,30.5192 672.3375,30.9286 673.5656,30.9286 674.3844,30.5192 675.2031,29.7005"/>
    <line x1="677.6594" x2="680.1156" y1="25.1973" y2="30.9286"/>
    <polyline points="682.5719,25.1973 680.1156,30.9286 679.2969,32.5661 678.4781,33.3848 677.6594,33.7942 677.25,33.7942"/>
    <polyline points="684.6187,27.6536 689.5312,27.6536 689.5312,26.8348 689.1219,26.0161 688.7125,25.6067 687.8937,25.1973 686.6656,25.1973 685.8469,25.6067 685.0281,26.4255 684.6187,27.6536 684.6187,28.4723 685.0281,29.7005 685.8469,30.5192 686.6656,30.9286 687.8937,30.9286 688.7125,30.5192 689.5312,29.7005"/>
    <line x1="692.3969" x2="692.3969" y1="25.1973" y2="30.9286"/>
    <polyline points="692.3969,27.6536 692.8062,26.4255 693.625,25.6067 694.4437,25.1973 695.6719,25.1973"/>
    <polyline points="705.0875,23.9692 705.9062,23.5598 707.1344,22.3317 707.1344,30.9286"/>
  </g>
  <g fill="none" id="layer11" inkscape:groupmode="layer" inkscape:label="11" stroke="#ff0000" style="display:inline">
    <line x1="665.7875" x2="665.7875" y1="178.5303" y2="200.5356"/>
    <line x1="665.7875" x2="643.7822" y1="178.5303" y2="178.5303"/>
    <line x1="649.5135" x2="645.0104" y1="170.9821" y2="176.7134"/>
    <line x1="645.0104" x2="649.5135" y1="170.9821" y2="170.9821"/>
    <line x1="645.0104" x2="649.5135" y1="176.7134" y2="176.7134"/>
    <line x1="672.5169" x2="677.02" y1="198.4887" y2="204.22"/>
    <line x1="677.02" x2="672.5169" y1="198.4887" y2="204.22"/>
    <line x1="672.5169" x2="674.1544" y1="176.4835" y2="182.2147"/>
    <line x1="675.7919" x2="674.1544" y1="176.4835" y2="182.2147"/>
    <line x1="675.7919" x2="677.4294" y1="176.4835" y2="182.2147"/>
    <line x1="679.0669" x2="677.4294" y1="176.4835" y2="182.2147"/>
    <polygon points="683.57,176.4835 682.7513,176.8928 681.9325,177.7116 681.5232,178.9397 681.5232,179.7585 681.9325,180.9866 682.7513,181.8053 683.57,182.2147 684.7982,182.2147 685.6169,181.8053 686.4357,180.9866 686.845,179.7585 686.845,178.9397 686.4357,177.7116 685.6169,176.8928 684.7982,176.4835"/>
    <line x1="689.7107" x2="689.7107" y1="176.4835" y2="182.2147"/>
    <polyline points="689.7107,178.9397 690.12,177.7116 690.9388,176.8928 691.7575,176.4835 692.9857,176.4835"/>
    <line x1="695.0325" x2="695.0325" y1="173.6178" y2="182.2147"/>
    <line x1="702.8107" x2="702.8107" y1="173.6178" y2="182.2147"/>
    <polyline points="702.8107,177.7116 701.9919,176.8928 701.1732,176.4835 699.945,176.4835 699.1263,176.8928 698.3075,177.7116 697.8982,178.9397 697.8982,179.7585 698.3075,180.9866 699.1263,181.8053 699.945,182.2147 701.1732,182.2147 701.9919,181.8053 702.8107,180.9866"/>
    <polygon points="714.2732,176.4835 713.4544,176.8928 712.6357,177.7116 712.2263,178.9397 712.2263,179.7585 712.6357,180.9866 713.4544,181.8053 714.2732,182.2147 715.5013,182.2147 716.32,181.8053 717.1388,180.9866 717.5482,179.7585 717.5482,178.9397 717.1388,177.7116 716.32,176.8928 715.5013,176.4835"/>
    <line x1="720.4138" x2="720.4138" y1="176.4835" y2="182.2147"/>
    <polyline points="720.4138,178.9397 720.8232,177.7116 721.6419,176.8928 722.4607,176.4835 723.6888,176.4835"/>
    <polygon points="725.3263,173.6178 725.7357,174.0272 726.1451,173.6178 725.7357,173.2085"/>
    <line x1="725.7357" x2="725.7357" y1="176.4835" y2="182.2147"/>
    <polyline points="733.5138,176.4835 733.5138,183.0335 733.1044,184.2616 732.6951,184.671 731.8763,185.0803 730.6482,185.0803 729.8294,184.671"/>
    <polyline points="733.5138,177.7116 732.6951,176.8928 731.8763,176.4835 730.6482,176.4835 729.8294,176.8928 729.0107,177.7116 728.6013,178.9397 728.6013,179.7585 729.0107,180.9866 729.8294,181.8053 730.6482,182.2147 731.8763,182.2147 732.6951,181.8053 733.5138,180.9866"/>
    <polygon points="736.3794,173.6178 736.7888,174.0272 737.1982,173.6178 736.7888,173.2085"/>
    <line x1="736.7888" x2="736.7888" y1="176.4835" y2="182.2147"/>
    <line x1="740.0638" x2="740.0638" y1="176.4835" y2="182.2147"/>
    <polyline points="740.0638,178.121 741.2919,176.8928 742.1107,176.4835 743.3388,176.4835 744.1576,176.8928 744.5669,178.121 744.5669,182.2147"/>
  </g>
  <g fill="none" id="layer12" inkscape:groupmode="layer" inkscape:label="12" stroke="#00aa00" style="display:inline">
    <polygon points="464.9895,178.5303 464.3594,175.9737 462.6133,174.0028 460.1513,173.0691 457.5374,173.3865 455.3704,174.8823 454.1468,177.2138 454.1468,179.8469 455.3704,182.1784 457.5374,183.6741 460.1513,183.9915 462.6133,183.0578 464.3594,181.0869"/>
    <polyline points="443.1132,194.2155 442.2945,193.3968 441.4757,192.9874 440.2476,192.9874 439.4289,193.3968 438.6101,194.2155 438.2007,195.4436 438.2007,196.2624 438.6101,197.4905 439.4289,198.3093 440.2476,198.7186 441.4757,198.7186 442.2945,198.3093 443.1132,197.4905"/>
    <line x1="450.482" x2="450.482" y1="192.9874" y2="198.7186"/>
    <polyline points="450.482,194.2155 449.6632,193.3968 448.8445,192.9874 447.6164,192.9874 446.7976,193.3968 445.9789,194.2155 445.5695,195.4436 445.5695,196.2624 445.9789,197.4905 446.7976,198.3093 447.6164,198.7186 448.8445,198.7186 449.6632,198.3093 450.482,197.4905"/>
    <line x1="453.757" x2="453.757" y1="192.9874" y2="198.7186"/>
    <polyline points="453.757,194.6249 454.9851,193.3968 455.8039,192.9874 457.032,192.9874 457.8507,193.3968 458.2601,194.6249 458.2601,198.7186"/>
    <polyline points="458.2601,194.6249 459.4882,193.3968 460.307,192.9874 461.5351,192.9874 462.3539,193.3968 462.7632,194.6249 462.7632,198.7186"/>
    <polyline points="465.6289,195.4436 470.5414,195.4436 470.5414,194.6249 470.132,193.8061 469.7226,193.3968 468.9039,192.9874 467.6757,192.9874 466.857,193.3968 466.0382,194.2155 465.6289,195.4436 465.6289,196.2624 466.0382,197.4905 466.857,198.3093 467.6757,198.7186 468.9039,198.7186 469.7226,198.3093 470.5414,197.4905"/>
    <line x1="473.407" x2="473.407" y1="192.9874" y2="198.7186"/>
    <polyline points="473.407,195.4436 473.8164,194.2155 474.6351,193.3968 475.4539,192.9874 476.682,192.9874"/>
    <line x1="483.232" x2="483.232" y1="192.9874" y2="198.7186"/>
    <polyline points="483.232,194.2155 482.4132,193.3968 481.5945,192.9874 480.3664,192.9874 479.5476,193.3968 478.7289,194.2155 478.3195,195.4436 478.3195,196.2624 478.7289,197.4905 479.5476,198.3093 480.3664,198.7186 481.5945,198.7186 482.4132,198.3093 483.232,197.4905"/>
    <line x1="445.9789" x2="445.9789" y1="209.4913" y2="215.2226"/>
    <polyline points="445.9789,210.7195 445.1601,209.9007 444.3414,209.4913 443.1132,209.4913 442.2945,209.9007 441.4757,210.7195 441.0664,211.9476 441.0664,212.7663 441.4757,213.9945 442.2945,214.8132 443.1132,215.2226 444.3414,215.2226 445.1601,214.8132 445.9789,213.9945"/>
    <polygon points="448.8445,206.6257 449.2539,207.0351 449.6632,206.6257 449.2539,206.2163"/>
    <line x1="449.2539" x2="449.2539" y1="209.4913" y2="215.2226"/>
    <line x1="452.5289" x2="452.5289" y1="209.4913" y2="215.2226"/>
    <polyline points="452.5289,211.1288 453.757,209.9007 454.5757,209.4913 455.8039,209.4913 456.6226,209.9007 457.032,211.1288 457.032,215.2226"/>
    <polyline points="457.032,211.1288 458.2601,209.9007 459.0789,209.4913 460.307,209.4913 461.1257,209.9007 461.5351,211.1288 461.5351,215.2226"/>
    <polygon points="464.4007,206.6257 464.8101,207.0351 465.2195,206.6257 464.8101,206.2163"/>
    <line x1="464.8101" x2="464.8101" y1="209.4913" y2="215.2226"/>
    <line x1="468.0851" x2="468.0851" y1="209.4913" y2="215.2226"/>
    <polyline points="468.0851,211.1288 469.3132,209.9007 470.132,209.4913 471.3601,209.4913 472.1789,209.9007 472.5882,211.1288 472.5882,215.2226"/>
    <polyline points="480.3664,209.4913 480.3664,216.0413 479.957,217.2695 479.5476,217.6788 478.7289,218.0882 477.5007,218.0882 476.682,217.6788"/>
    <polyline points="480.3664,210.7195 479.5476,209.9007 478.7289,209.4913 477.5007,209.4913 476.682,209.9007 475.8632,210.7195 475.4539,211.9476 475.4539,212.7663 475.8632,213.9945 476.682,214.8132 477.5007,215.2226 478.7289,215.2226 479.5476,214.8132 480.3664,213.9945"/>
    <line x1="446.5929" x2="446.5929" y1="225.9953" y2="234.5921"/>
    <polyline points="446.5929,227.2234 447.4117,226.4046 448.2304,225.9953 449.4585,225.9953 450.2773,226.4046 451.096,227.2234 451.5054,228.4515 451.5054,229.2703 451.096,230.4984 450.2773,231.3171 449.4585,231.7265 448.2304,231.7265 447.4117,231.3171 446.5929,230.4984"/>
    <polygon points="456.0085,225.9953 455.1898,226.4046 454.371,227.2234 453.9617,228.4515 453.9617,229.2703 454.371,230.4984 455.1898,231.3171 456.0085,231.7265 457.2367,231.7265 458.0554,231.3171 458.8742,230.4984 459.2835,229.2703 459.2835,228.4515 458.8742,227.2234 458.0554,226.4046 457.2367,225.9953"/>
    <polygon points="461.7398,223.1296 462.1492,223.539 462.5585,223.1296 462.1492,222.7203"/>
    <line x1="462.1492" x2="462.1492" y1="225.9953" y2="231.7265"/>
    <line x1="465.4242" x2="465.4242" y1="225.9953" y2="231.7265"/>
    <polyline points="465.4242,227.6328 466.6523,226.4046 467.471,225.9953 468.6992,225.9953 469.5179,226.4046 469.9273,227.6328 469.9273,231.7265"/>
    <polyline points="473.6117,223.1296 473.6117,230.089 474.021,231.3171 474.8398,231.7265 475.6585,231.7265"/>
    <line x1="472.3835" x2="475.2492" y1="225.9953" y2="225.9953"/>
  </g>
</svg>
