<?xml version="1.0" encoding="utf-8" ?>
<svg xmlns="http://www.w3.org/2000/svg" xmlns:cc="http://creativecommons.org/ns" xmlns:dc="http://purl.org/dc/elements/1.1/" xmlns:ev="http://www.w3.org/2001/xml-events" xmlns:inkscape="http://www.inkscape.org/namespaces/inkscape" xmlns:rdf="http://www.w3.org/1999/02/22-rdf-syntax-ns" xmlns:sodipodi="http://sodipodi.sourceforge.net/DTD/sodipodi-0.dtd" xmlns:xlink="http://www.w3.org/1999/xlink" baseProfile="tiny" height="7.0cm" version="1.2" viewBox="0 0 1133.8582677165352 264.56692913385825" width="30.0cm">
  <metadata>
    <rdf:RDF>
      <cc:Work>
        <dc:format>image/svg+xml</dc:format>
        <dc:source>vpype -I figures/fig_move.vpy write figures/fig_move.svg
</dc:source>
        <dc:date>2022-03-31T12:15:54.661536</dc:date>
      </cc:Work>
    </rdf:RDF>
  </metadata>
  <defs/>
  <g fill="none" id="layer6" inkscape:groupmode="layer" inkscape:label="6" stroke="#0000ff" style="display:inline">
    <polygon points="11.3386,57.6681 11.3386,182.5958 136.2662,182.5958 136.2662,57.6681"/>
    <line x1="13.0837" x2="13.0837" y1="58.6793" y2="61.2823"/>
    <line x1="15.4387" x2="15.4387" y1="59.5469" y2="61.2823"/>
    <polyline points="15.4387,59.9188 15.1908,59.6709 14.9429,59.5469 14.5711,59.5469 14.3232,59.6709 14.0753,59.9188 13.9513,60.2906 13.9513,60.5385 14.0753,60.9104 14.3232,61.1583 14.5711,61.2823 14.9429,61.2823 15.1908,61.1583 15.4387,60.9104"/>
    <line x1="16.1825" x2="16.9262" y1="59.5469" y2="61.2823"/>
    <polyline points="17.6699,59.5469 16.9262,61.2823 16.6783,61.7781 16.4304,62.026 16.1825,62.1499 16.0585,62.1499"/>
    <polyline points="18.2896,60.2906 19.7771,60.2906 19.7771,60.0427 19.6531,59.7948 19.5292,59.6709 19.2812,59.5469 18.9094,59.5469 18.6615,59.6709 18.4136,59.9188 18.2896,60.2906 18.2896,60.5385 18.4136,60.9104 18.6615,61.1583 18.9094,61.2823 19.2812,61.2823 19.5292,61.1583 19.7771,60.9104"/>
    <line x1="20.6447" x2="20.6447" y1="59.5469" y2="61.2823"/>
    <polyline points="20.6447,60.2906 20.7687,59.9188 21.0166,59.6709 21.2645,59.5469 21.6363,59.5469"/>
    <polyline points="24.4872,59.1751 24.7351,59.0511 25.107,58.6793 25.107,61.2823"/>
    <polygon points="14.5528,52.3112 14.5528,187.9528 150.1944,187.9528 150.1944,52.3112"/>
    <line x1="16.4475" x2="16.4475" y1="53.409" y2="56.2352"/>
    <line x1="19.0046" x2="19.0046" y1="54.3511" y2="56.2352"/>
    <polyline points="19.0046,54.7548 18.7354,54.4857 18.4662,54.3511 18.0625,54.3511 17.7933,54.4857 17.5242,54.7548 17.3896,55.1586 17.3896,55.4277 17.5242,55.8315 17.7933,56.1006 18.0625,56.2352 18.4662,56.2352 18.7354,56.1006 19.0046,55.8315"/>
    <line x1="19.8121" x2="20.6196" y1="54.3511" y2="56.2352"/>
    <polyline points="21.427,54.3511 20.6196,56.2352 20.3504,56.7735 20.0812,57.0427 19.8121,57.1773 19.6775,57.1773"/>
    <polyline points="22.1,55.1586 23.7149,55.1586 23.7149,54.8894 23.5804,54.6202 23.4458,54.4857 23.1766,54.3511 22.7729,54.3511 22.5037,54.4857 22.2345,54.7548 22.1,55.1586 22.1,55.4277 22.2345,55.8315 22.5037,56.1006 22.7729,56.2352 23.1766,56.2352 23.4458,56.1006 23.7149,55.8315"/>
    <line x1="24.657" x2="24.657" y1="54.3511" y2="56.2352"/>
    <polyline points="24.657,55.1586 24.7916,54.7548 25.0608,54.4857 25.3299,54.3511 25.7337,54.3511"/>
    <polyline points="28.5599,54.0819 28.5599,53.9473 28.6945,53.6782 28.8291,53.5436 29.0982,53.409 29.6365,53.409 29.9057,53.5436 30.0403,53.6782 30.1749,53.9473 30.1749,54.2165 30.0403,54.4857 29.7711,54.8894 28.4253,56.2352 30.3095,56.2352"/>
    <polygon points="18.37,45.9491 18.37,194.3148 166.7357,194.3148 166.7357,45.9491"/>
    <line x1="20.4425" x2="20.4425" y1="47.15" y2="50.2413"/>
    <line x1="23.2394" x2="23.2394" y1="48.1804" y2="50.2413"/>
    <polyline points="23.2394,48.622 22.945,48.3276 22.6506,48.1804 22.209,48.1804 21.9145,48.3276 21.6201,48.622 21.4729,49.0636 21.4729,49.3581 21.6201,49.7997 21.9145,50.0941 22.209,50.2413 22.6506,50.2413 22.945,50.0941 23.2394,49.7997"/>
    <line x1="24.1226" x2="25.0059" y1="48.1804" y2="50.2413"/>
    <polyline points="25.8891,48.1804 25.0059,50.2413 24.7115,50.8301 24.417,51.1245 24.1226,51.2717 23.9754,51.2717"/>
    <polyline points="26.6251,49.0636 28.3916,49.0636 28.3916,48.7692 28.2444,48.4748 28.0972,48.3276 27.8028,48.1804 27.3612,48.1804 27.0668,48.3276 26.7724,48.622 26.6251,49.0636 26.6251,49.3581 26.7724,49.7997 27.0668,50.0941 27.3612,50.2413 27.8028,50.2413 28.0972,50.0941 28.3916,49.7997"/>
    <line x1="29.4221" x2="29.4221" y1="48.1804" y2="50.2413"/>
    <polyline points="29.4221,49.0636 29.5693,48.622 29.8637,48.3276 30.1581,48.1804 30.5997,48.1804"/>
    <polyline points="33.8383,47.15 35.4575,47.15 34.5743,48.3276 35.0159,48.3276 35.3103,48.4748 35.4575,48.622 35.6047,49.0636 35.6047,49.3581 35.4575,49.7997 35.1631,50.0941 34.7215,50.2413 34.2799,50.2413 33.8383,50.0941 33.6911,49.9469 33.5439,49.6525"/>
    <polygon points="22.9775,38.2699 22.9775,201.994 186.7015,201.994 186.7015,38.2699"/>
    <line x1="25.2645" x2="25.2645" y1="39.5951" y2="43.0064"/>
    <line x1="28.351" x2="28.351" y1="40.7322" y2="43.0064"/>
    <polyline points="28.351,41.2195 28.0261,40.8946 27.7012,40.7322 27.2139,40.7322 26.889,40.8946 26.5641,41.2195 26.4016,41.7069 26.4016,42.0318 26.5641,42.5191 26.889,42.844 27.2139,43.0064 27.7012,43.0064 28.0261,42.844 28.351,42.5191"/>
    <line x1="29.3256" x2="30.3003" y1="40.7322" y2="43.0064"/>
    <polyline points="31.275,40.7322 30.3003,43.0064 29.9754,43.6562 29.6505,43.9811 29.3256,44.1435 29.1632,44.1435"/>
    <polyline points="32.0872,41.7069 34.0365,41.7069 34.0365,41.382 33.8741,41.0571 33.7117,40.8946 33.3868,40.7322 32.8994,40.7322 32.5745,40.8946 32.2497,41.2195 32.0872,41.7069 32.0872,42.0318 32.2497,42.5191 32.5745,42.844 32.8994,43.0064 33.3868,43.0064 33.7117,42.844 34.0365,42.5191"/>
    <line x1="35.1737" x2="35.1737" y1="40.7322" y2="43.0064"/>
    <polyline points="35.1737,41.7069 35.3361,41.2195 35.661,40.8946 35.9859,40.7322 36.4732,40.7322"/>
    <polyline points="41.3466,39.5951 39.7221,41.8693 42.1588,41.8693"/>
    <line x1="41.3466" x2="41.3466" y1="39.5951" y2="43.0064"/>
    <polygon points="28.6491,28.8173 28.6491,211.4466 211.2783,211.4466 211.2783,28.8173"/>
    <line x1="31.2002" x2="31.2002" y1="30.2955" y2="34.1007"/>
    <line x1="34.643" x2="34.643" y1="31.5639" y2="34.1007"/>
    <polyline points="34.643,32.1075 34.2806,31.7451 33.9182,31.5639 33.3746,31.5639 33.0122,31.7451 32.6498,32.1075 32.4686,32.6511 32.4686,33.0135 32.6498,33.5571 33.0122,33.9195 33.3746,34.1007 33.9182,34.1007 34.2806,33.9195 34.643,33.5571"/>
    <line x1="35.7302" x2="36.8174" y1="31.5639" y2="34.1007"/>
    <polyline points="37.9047,31.5639 36.8174,34.1007 36.455,34.8256 36.0926,35.188 35.7302,35.3692 35.549,35.3692"/>
    <polyline points="38.8107,32.6511 40.9851,32.6511 40.9851,32.2887 40.8039,31.9263 40.6227,31.7451 40.2603,31.5639 39.7167,31.5639 39.3543,31.7451 38.9919,32.1075 38.8107,32.6511 38.8107,33.0135 38.9919,33.5571 39.3543,33.9195 39.7167,34.1007 40.2603,34.1007 40.6227,33.9195 40.9851,33.5571"/>
    <line x1="42.2535" x2="42.2535" y1="31.5639" y2="34.1007"/>
    <polyline points="42.2535,32.6511 42.4347,32.1075 42.7971,31.7451 43.1595,31.5639 43.7031,31.5639"/>
    <polyline points="49.5016,30.2955 47.6896,30.2955 47.5084,31.9263 47.6896,31.7451 48.2332,31.5639 48.7768,31.5639 49.3204,31.7451 49.6828,32.1075 49.864,32.6511 49.864,33.0135 49.6828,33.5571 49.3204,33.9195 48.7768,34.1007 48.2332,34.1007 47.6896,33.9195 47.5084,33.7383 47.3272,33.3759"/>
    <line x1="56.7316" x2="56.7316" y1="227.822" y2="233.1071"/>
    <polyline points="56.7316,229.332 57.8641,228.1995 58.6191,227.822 59.7516,227.822 60.5066,228.1995 60.8841,229.332 60.8841,233.1071"/>
    <polyline points="60.8841,229.332 62.0167,228.1995 62.7717,227.822 63.9042,227.822 64.6592,228.1995 65.0367,229.332 65.0367,233.1071"/>
    <polygon points="69.5668,227.822 68.8117,228.1995 68.0567,228.9545 67.6792,230.087 67.6792,230.842 68.0567,231.9745 68.8117,232.7296 69.5668,233.1071 70.6993,233.1071 71.4543,232.7296 72.2093,231.9745 72.5868,230.842 72.5868,230.087 72.2093,228.9545 71.4543,228.1995 70.6993,227.822"/>
    <line x1="74.4743" x2="76.7394" y1="227.822" y2="233.1071"/>
    <line x1="79.0044" x2="76.7394" y1="227.822" y2="233.1071"/>
    <polyline points="80.8919,230.087 85.422,230.087 85.422,229.332 85.0445,228.577 84.667,228.1995 83.912,227.822 82.7794,227.822 82.0244,228.1995 81.2694,228.9545 80.8919,230.087 80.8919,230.842 81.2694,231.9745 82.0244,232.7296 82.7794,233.1071 83.912,233.1071 84.667,232.7296 85.422,231.9745"/>
    <line x1="94.1046" x2="100.8997" y1="228.577" y2="228.577"/>
    <line x1="94.1046" x2="100.8997" y1="230.842" y2="230.842"/>
    <polyline points="112.6023,223.6694 111.8473,224.4244 111.0923,225.557 110.3373,227.067 109.9598,228.9545 109.9598,230.4645 110.3373,232.352 111.0923,233.8621 111.8473,234.9946 112.6023,235.7496"/>
    <line x1="115.2449" x2="122.04" y1="229.7095" y2="229.7095"/>
    <polygon points="126.57,225.1795 125.4375,225.557 125.06,226.312 125.06,227.067 125.4375,227.822 126.1925,228.1995 127.7025,228.577 128.8351,228.9545 129.5901,229.7095 129.9676,230.4645 129.9676,231.597 129.5901,232.352 129.2126,232.7296 128.0801,233.1071 126.57,233.1071 125.4375,232.7296 125.06,232.352 124.6825,231.597 124.6825,230.4645 125.06,229.7095 125.815,228.9545 126.9475,228.577 128.4576,228.1995 129.2126,227.822 129.5901,227.067 129.5901,226.312 129.2126,225.557 128.0801,225.1795"/>
    <polyline points="136.7627,228.9545 136.0077,228.1995 135.2526,227.822 134.1201,227.822 133.3651,228.1995 132.6101,228.9545 132.2326,230.087 132.2326,230.842 132.6101,231.9745 133.3651,232.7296 134.1201,233.1071 135.2526,233.1071 136.0077,232.7296 136.7627,231.9745"/>
    <line x1="139.4052" x2="139.4052" y1="227.822" y2="233.1071"/>
    <polyline points="139.4052,229.332 140.5377,228.1995 141.2927,227.822 142.4252,227.822 143.1803,228.1995 143.5578,229.332 143.5578,233.1071"/>
    <polyline points="143.5578,229.332 144.6903,228.1995 145.4453,227.822 146.5778,227.822 147.3328,228.1995 147.7103,229.332 147.7103,233.1071"/>
    <polyline points="151.1079,231.597 150.7304,231.9745 150.3529,231.597 150.7304,231.2195 151.1079,231.597 151.1079,232.352 150.3529,233.1071"/>
    <polygon points="161.678,225.1795 160.5455,225.557 159.7905,226.6895 159.413,228.577 159.413,229.7095 159.7905,231.597 160.5455,232.7296 161.678,233.1071 162.433,233.1071 163.5655,232.7296 164.3205,231.597 164.698,229.7095 164.698,228.577 164.3205,226.6895 163.5655,225.557 162.433,225.1795"/>
    <polyline points="167.7181,231.597 167.3406,231.9745 166.9631,231.597 167.3406,231.2195 167.7181,231.597 167.7181,232.352 166.9631,233.1071"/>
    <polygon points="178.2882,225.1795 177.1557,225.557 176.4007,226.6895 176.0232,228.577 176.0232,229.7095 176.4007,231.597 177.1557,232.7296 178.2882,233.1071 179.0432,233.1071 180.1758,232.7296 180.9308,231.597 181.3083,229.7095 181.3083,228.577 180.9308,226.6895 180.1758,225.557 179.0432,225.1795"/>
    <polyline points="183.5733,223.6694 184.3283,224.4244 185.0833,225.557 185.8383,227.067 186.2158,228.9545 186.2158,230.4645 185.8383,232.352 185.0833,233.8621 184.3283,234.9946 183.5733,235.7496"/>
    <polygon points="262.2296,57.6681 262.2296,182.5958 387.1572,182.5958 387.1572,57.6681"/>
    <line x1="263.9747" x2="263.9747" y1="58.6793" y2="61.2823"/>
    <line x1="266.3297" x2="266.3297" y1="59.5469" y2="61.2823"/>
    <polyline points="266.3297,59.9188 266.0818,59.6709 265.8339,59.5469 265.4621,59.5469 265.2142,59.6709 264.9663,59.9188 264.8423,60.2906 264.8423,60.5385 264.9663,60.9104 265.2142,61.1583 265.4621,61.2823 265.8339,61.2823 266.0818,61.1583 266.3297,60.9104"/>
    <line x1="267.0734" x2="267.8172" y1="59.5469" y2="61.2823"/>
    <polyline points="268.5609,59.5469 267.8172,61.2823 267.5692,61.7781 267.3213,62.026 267.0734,62.1499 266.9495,62.1499"/>
    <polyline points="269.1806,60.2906 270.668,60.2906 270.668,60.0427 270.5441,59.7948 270.4201,59.6709 270.1722,59.5469 269.8004,59.5469 269.5525,59.6709 269.3046,59.9188 269.1806,60.2906 269.1806,60.5385 269.3046,60.9104 269.5525,61.1583 269.8004,61.2823 270.1722,61.2823 270.4201,61.1583 270.668,60.9104"/>
    <line x1="271.5357" x2="271.5357" y1="59.5469" y2="61.2823"/>
    <polyline points="271.5357,60.2906 271.6597,59.9188 271.9076,59.6709 272.1555,59.5469 272.5273,59.5469"/>
    <polyline points="275.3782,59.1751 275.6261,59.0511 275.998,58.6793 275.998,61.2823"/>
    <polygon points="261.1582,52.3112 261.1582,187.9528 396.7998,187.9528 396.7998,52.3112"/>
    <line x1="263.0529" x2="263.0529" y1="53.409" y2="56.2352"/>
    <line x1="265.61" x2="265.61" y1="54.3511" y2="56.2352"/>
    <polyline points="265.61,54.7548 265.3408,54.4857 265.0716,54.3511 264.6679,54.3511 264.3987,54.4857 264.1296,54.7548 263.995,55.1586 263.995,55.4277 264.1296,55.8315 264.3987,56.1006 264.6679,56.2352 265.0716,56.2352 265.3408,56.1006 265.61,55.8315"/>
    <line x1="266.4175" x2="267.225" y1="54.3511" y2="56.2352"/>
    <polyline points="268.0324,54.3511 267.225,56.2352 266.9558,56.7735 266.6866,57.0427 266.4175,57.1773 266.2829,57.1773"/>
    <polyline points="268.7054,55.1586 270.3203,55.1586 270.3203,54.8894 270.1858,54.6202 270.0512,54.4857 269.782,54.3511 269.3783,54.3511 269.1091,54.4857 268.8399,54.7548 268.7054,55.1586 268.7054,55.4277 268.8399,55.8315 269.1091,56.1006 269.3783,56.2352 269.782,56.2352 270.0512,56.1006 270.3203,55.8315"/>
    <line x1="271.2624" x2="271.2624" y1="54.3511" y2="56.2352"/>
    <polyline points="271.2624,55.1586 271.397,54.7548 271.6662,54.4857 271.9353,54.3511 272.3391,54.3511"/>
    <polyline points="275.1653,54.0819 275.1653,53.9473 275.2999,53.6782 275.4345,53.5436 275.7036,53.409 276.2419,53.409 276.5111,53.5436 276.6457,53.6782 276.7803,53.9473 276.7803,54.2165 276.6457,54.4857 276.3765,54.8894 275.0307,56.2352 276.9149,56.2352"/>
    <polygon points="259.8858,45.9491 259.8858,194.3148 408.2514,194.3148 408.2514,45.9491"/>
    <line x1="261.9582" x2="261.9582" y1="47.15" y2="50.2413"/>
    <line x1="264.7552" x2="264.7552" y1="48.1804" y2="50.2413"/>
    <polyline points="264.7552,48.622 264.4608,48.3276 264.1663,48.1804 263.7247,48.1804 263.4303,48.3276 263.1359,48.622 262.9887,49.0636 262.9887,49.3581 263.1359,49.7997 263.4303,50.0941 263.7247,50.2413 264.1663,50.2413 264.4608,50.0941 264.7552,49.7997"/>
    <line x1="265.6384" x2="266.5217" y1="48.1804" y2="50.2413"/>
    <polyline points="267.4049,48.1804 266.5217,50.2413 266.2272,50.8301 265.9328,51.1245 265.6384,51.2717 265.4912,51.2717"/>
    <polyline points="268.1409,49.0636 269.9074,49.0636 269.9074,48.7692 269.7602,48.4748 269.613,48.3276 269.3186,48.1804 268.877,48.1804 268.5825,48.3276 268.2881,48.622 268.1409,49.0636 268.1409,49.3581 268.2881,49.7997 268.5825,50.0941 268.877,50.2413 269.3186,50.2413 269.613,50.0941 269.9074,49.7997"/>
    <line x1="270.9378" x2="270.9378" y1="48.1804" y2="50.2413"/>
    <polyline points="270.9378,49.0636 271.0851,48.622 271.3795,48.3276 271.6739,48.1804 272.1155,48.1804"/>
    <polyline points="275.354,47.15 276.9733,47.15 276.0901,48.3276 276.5317,48.3276 276.8261,48.4748 276.9733,48.622 277.1205,49.0636 277.1205,49.3581 276.9733,49.7997 276.6789,50.0941 276.2373,50.2413 275.7957,50.2413 275.354,50.0941 275.2068,49.9469 275.0596,49.6525"/>
    <polygon points="258.3499,38.2699 258.3499,201.994 422.074,201.994 422.074,38.2699"/>
    <line x1="260.6369" x2="260.6369" y1="39.5951" y2="43.0064"/>
    <line x1="263.7234" x2="263.7234" y1="40.7322" y2="43.0064"/>
    <polyline points="263.7234,41.2195 263.3985,40.8946 263.0736,40.7322 262.5863,40.7322 262.2614,40.8946 261.9365,41.2195 261.7741,41.7069 261.7741,42.0318 261.9365,42.5191 262.2614,42.844 262.5863,43.0064 263.0736,43.0064 263.3985,42.844 263.7234,42.5191"/>
    <line x1="264.6981" x2="265.6727" y1="40.7322" y2="43.0064"/>
    <polyline points="266.6474,40.7322 265.6727,43.0064 265.3479,43.6562 265.023,43.9811 264.6981,44.1435 264.5356,44.1435"/>
    <polyline points="267.4596,41.7069 269.409,41.7069 269.409,41.382 269.2465,41.0571 269.0841,40.8946 268.7592,40.7322 268.2719,40.7322 267.947,40.8946 267.6221,41.2195 267.4596,41.7069 267.4596,42.0318 267.6221,42.5191 267.947,42.844 268.2719,43.0064 268.7592,43.0064 269.0841,42.844 269.409,42.5191"/>
    <line x1="270.5461" x2="270.5461" y1="40.7322" y2="43.0064"/>
    <polyline points="270.5461,41.7069 270.7085,41.2195 271.0334,40.8946 271.3583,40.7322 271.8456,40.7322"/>
    <polyline points="276.719,39.5951 275.0945,41.8693 277.5312,41.8693"/>
    <line x1="276.719" x2="276.719" y1="39.5951" y2="43.0064"/>
    <polygon points="256.4594,28.8173 256.4594,211.4466 439.0887,211.4466 439.0887,28.8173"/>
    <line x1="259.0105" x2="259.0105" y1="30.2955" y2="34.1007"/>
    <line x1="262.4534" x2="262.4534" y1="31.5639" y2="34.1007"/>
    <polyline points="262.4534,32.1075 262.091,31.7451 261.7285,31.5639 261.1849,31.5639 260.8225,31.7451 260.4601,32.1075 260.2789,32.6511 260.2789,33.0135 260.4601,33.5571 260.8225,33.9195 261.1849,34.1007 261.7285,34.1007 262.091,33.9195 262.4534,33.5571"/>
    <line x1="263.5406" x2="264.6278" y1="31.5639" y2="34.1007"/>
    <polyline points="265.715,31.5639 264.6278,34.1007 264.2654,34.8256 263.903,35.188 263.5406,35.3692 263.3594,35.3692"/>
    <polyline points="266.621,32.6511 268.7954,32.6511 268.7954,32.2887 268.6142,31.9263 268.433,31.7451 268.0706,31.5639 267.527,31.5639 267.1646,31.7451 266.8022,32.1075 266.621,32.6511 266.621,33.0135 266.8022,33.5571 267.1646,33.9195 267.527,34.1007 268.0706,34.1007 268.433,33.9195 268.7954,33.5571"/>
    <line x1="270.0639" x2="270.0639" y1="31.5639" y2="34.1007"/>
    <polyline points="270.0639,32.6511 270.2451,32.1075 270.6075,31.7451 270.9699,31.5639 271.5135,31.5639"/>
    <polyline points="277.312,30.2955 275.4999,30.2955 275.3187,31.9263 275.4999,31.7451 276.0435,31.5639 276.5871,31.5639 277.1308,31.7451 277.4932,32.1075 277.6744,32.6511 277.6744,33.0135 277.4932,33.5571 277.1308,33.9195 276.5871,34.1007 276.0435,34.1007 275.4999,33.9195 275.3187,33.7383 275.1375,33.3759"/>
    <line x1="284.5419" x2="284.5419" y1="227.822" y2="233.1071"/>
    <polyline points="284.5419,229.332 285.6744,228.1995 286.4294,227.822 287.562,227.822 288.317,228.1995 288.6945,229.332 288.6945,233.1071"/>
    <polyline points="288.6945,229.332 289.827,228.1995 290.582,227.822 291.7145,227.822 292.4695,228.1995 292.847,229.332 292.847,233.1071"/>
    <polygon points="297.3771,227.822 296.6221,228.1995 295.8671,228.9545 295.4896,230.087 295.4896,230.842 295.8671,231.9745 296.6221,232.7296 297.3771,233.1071 298.5096,233.1071 299.2646,232.7296 300.0196,231.9745 300.3971,230.842 300.3971,230.087 300.0196,228.9545 299.2646,228.1995 298.5096,227.822"/>
    <line x1="302.2847" x2="304.5497" y1="227.822" y2="233.1071"/>
    <line x1="306.8147" x2="304.5497" y1="227.822" y2="233.1071"/>
    <polyline points="308.7023,230.087 313.2323,230.087 313.2323,229.332 312.8548,228.577 312.4773,228.1995 311.7223,227.822 310.5898,227.822 309.8348,228.1995 309.0798,228.9545 308.7023,230.087 308.7023,230.842 309.0798,231.9745 309.8348,232.7296 310.5898,233.1071 311.7223,233.1071 312.4773,232.7296 313.2323,231.9745"/>
    <line x1="321.9149" x2="328.71" y1="228.577" y2="228.577"/>
    <line x1="321.9149" x2="328.71" y1="230.842" y2="230.842"/>
    <polyline points="340.4127,223.6694 339.6577,224.4244 338.9027,225.557 338.1477,227.067 337.7701,228.9545 337.7701,230.4645 338.1477,232.352 338.9027,233.8621 339.6577,234.9946 340.4127,235.7496"/>
    <line x1="343.0552" x2="349.8503" y1="229.7095" y2="229.7095"/>
    <polyline points="356.2679,225.1795 352.4928,230.4645 358.1554,230.4645"/>
    <line x1="356.2679" x2="356.2679" y1="225.1795" y2="233.1071"/>
    <polyline points="364.573,228.9545 363.818,228.1995 363.063,227.822 361.9305,227.822 361.1755,228.1995 360.4205,228.9545 360.0429,230.087 360.0429,230.842 360.4205,231.9745 361.1755,232.7296 361.9305,233.1071 363.063,233.1071 363.818,232.7296 364.573,231.9745"/>
    <line x1="367.2155" x2="367.2155" y1="227.822" y2="233.1071"/>
    <polyline points="367.2155,229.332 368.3481,228.1995 369.1031,227.822 370.2356,227.822 370.9906,228.1995 371.3681,229.332 371.3681,233.1071"/>
    <polyline points="371.3681,229.332 372.5006,228.1995 373.2556,227.822 374.3881,227.822 375.1432,228.1995 375.5207,229.332 375.5207,233.1071"/>
    <polyline points="378.9182,231.597 378.5407,231.9745 378.1632,231.597 378.5407,231.2195 378.9182,231.597 378.9182,232.352 378.1632,233.1071"/>
    <polygon points="389.4883,225.1795 388.3558,225.557 387.6008,226.6895 387.2233,228.577 387.2233,229.7095 387.6008,231.597 388.3558,232.7296 389.4883,233.1071 390.2434,233.1071 391.3759,232.7296 392.1309,231.597 392.5084,229.7095 392.5084,228.577 392.1309,226.6895 391.3759,225.557 390.2434,225.1795"/>
    <polyline points="395.5284,231.597 395.1509,231.9745 394.7734,231.597 395.1509,231.2195 395.5284,231.597 395.5284,232.352 394.7734,233.1071"/>
    <polygon points="406.0986,225.1795 404.9661,225.557 404.211,226.6895 403.8335,228.577 403.8335,229.7095 404.211,231.597 404.9661,232.7296 406.0986,233.1071 406.8536,233.1071 407.9861,232.7296 408.7411,231.597 409.1186,229.7095 409.1186,228.577 408.7411,226.6895 407.9861,225.557 406.8536,225.1795"/>
    <polyline points="411.3836,223.6694 412.1387,224.4244 412.8937,225.557 413.6487,227.067 414.0262,228.9545 414.0262,230.4645 413.6487,232.352 412.8937,233.8621 412.1387,234.9946 411.3836,235.7496"/>
    <polygon points="504.4653,57.6681 504.4653,182.5958 629.393,182.5958 629.393,57.6681"/>
    <line x1="506.2104" x2="506.2104" y1="58.6793" y2="61.2823"/>
    <line x1="508.5655" x2="508.5655" y1="59.5469" y2="61.2823"/>
    <polyline points="508.5655,59.9188 508.3176,59.6709 508.0697,59.5469 507.6978,59.5469 507.4499,59.6709 507.202,59.9188 507.0781,60.2906 507.0781,60.5385 507.202,60.9104 507.4499,61.1583 507.6978,61.2823 508.0697,61.2823 508.3176,61.1583 508.5655,60.9104"/>
    <line x1="509.3092" x2="510.0529" y1="59.5469" y2="61.2823"/>
    <polyline points="510.7966,59.5469 510.0529,61.2823 509.805,61.7781 509.5571,62.026 509.3092,62.1499 509.1852,62.1499"/>
    <polyline points="511.4164,60.2906 512.9038,60.2906 512.9038,60.0427 512.7798,59.7948 512.6559,59.6709 512.408,59.5469 512.0361,59.5469 511.7882,59.6709 511.5403,59.9188 511.4164,60.2906 511.4164,60.5385 511.5403,60.9104 511.7882,61.1583 512.0361,61.2823 512.408,61.2823 512.6559,61.1583 512.9038,60.9104"/>
    <line x1="513.7714" x2="513.7714" y1="59.5469" y2="61.2823"/>
    <polyline points="513.7714,60.2906 513.8954,59.9188 514.1433,59.6709 514.3912,59.5469 514.7631,59.5469"/>
    <polyline points="517.6139,59.1751 517.8618,59.0511 518.2337,58.6793 518.2337,61.2823"/>
    <polygon points="499.1083,52.3112 499.1083,187.9528 634.7499,187.9528 634.7499,52.3112"/>
    <line x1="501.0031" x2="501.0031" y1="53.409" y2="56.2352"/>
    <line x1="503.5601" x2="503.5601" y1="54.3511" y2="56.2352"/>
    <polyline points="503.5601,54.7548 503.291,54.4857 503.0218,54.3511 502.6181,54.3511 502.3489,54.4857 502.0797,54.7548 501.9451,55.1586 501.9451,55.4277 502.0797,55.8315 502.3489,56.1006 502.6181,56.2352 503.0218,56.2352 503.291,56.1006 503.5601,55.8315"/>
    <line x1="504.3676" x2="505.1751" y1="54.3511" y2="56.2352"/>
    <polyline points="505.9826,54.3511 505.1751,56.2352 504.9059,56.7735 504.6368,57.0427 504.3676,57.1773 504.233,57.1773"/>
    <polyline points="506.6555,55.1586 508.2705,55.1586 508.2705,54.8894 508.1359,54.6202 508.0013,54.4857 507.7322,54.3511 507.3284,54.3511 507.0593,54.4857 506.7901,54.7548 506.6555,55.1586 506.6555,55.4277 506.7901,55.8315 507.0593,56.1006 507.3284,56.2352 507.7322,56.2352 508.0013,56.1006 508.2705,55.8315"/>
    <line x1="509.2126" x2="509.2126" y1="54.3511" y2="56.2352"/>
    <polyline points="509.2126,55.1586 509.3471,54.7548 509.6163,54.4857 509.8855,54.3511 510.2892,54.3511"/>
    <polyline points="513.1154,54.0819 513.1154,53.9473 513.25,53.6782 513.3846,53.5436 513.6538,53.409 514.1921,53.409 514.4613,53.5436 514.5958,53.6782 514.7304,53.9473 514.7304,54.2165 514.5958,54.4857 514.3267,54.8894 512.9809,56.2352 514.865,56.2352"/>
    <polygon points="492.7463,45.9491 492.7463,194.3148 641.112,194.3148 641.112,45.9491"/>
    <line x1="494.8188" x2="494.8188" y1="47.15" y2="50.2413"/>
    <line x1="497.6157" x2="497.6157" y1="48.1804" y2="50.2413"/>
    <polyline points="497.6157,48.622 497.3213,48.3276 497.0269,48.1804 496.5853,48.1804 496.2908,48.3276 495.9964,48.622 495.8492,49.0636 495.8492,49.3581 495.9964,49.7997 496.2908,50.0941 496.5853,50.2413 497.0269,50.2413 497.3213,50.0941 497.6157,49.7997"/>
    <line x1="498.4989" x2="499.3822" y1="48.1804" y2="50.2413"/>
    <polyline points="500.2654,48.1804 499.3822,50.2413 499.0878,50.8301 498.7934,51.1245 498.4989,51.2717 498.3517,51.2717"/>
    <polyline points="501.0015,49.0636 502.7679,49.0636 502.7679,48.7692 502.6207,48.4748 502.4735,48.3276 502.1791,48.1804 501.7375,48.1804 501.4431,48.3276 501.1487,48.622 501.0015,49.0636 501.0015,49.3581 501.1487,49.7997 501.4431,50.0941 501.7375,50.2413 502.1791,50.2413 502.4735,50.0941 502.7679,49.7997"/>
    <line x1="503.7984" x2="503.7984" y1="48.1804" y2="50.2413"/>
    <polyline points="503.7984,49.0636 503.9456,48.622 504.24,48.3276 504.5344,48.1804 504.976,48.1804"/>
    <polyline points="508.2146,47.15 509.8339,47.15 508.9506,48.3276 509.3922,48.3276 509.6866,48.4748 509.8339,48.622 509.9811,49.0636 509.9811,49.3581 509.8339,49.7997 509.5394,50.0941 509.0978,50.2413 508.6562,50.2413 508.2146,50.0941 508.0674,49.9469 507.9202,49.6525"/>
    <polygon points="485.0671,38.2699 485.0671,201.994 648.7911,201.994 648.7911,38.2699"/>
    <line x1="487.3541" x2="487.3541" y1="39.5951" y2="43.0064"/>
    <line x1="490.4406" x2="490.4406" y1="40.7322" y2="43.0064"/>
    <polyline points="490.4406,41.2195 490.1157,40.8946 489.7908,40.7322 489.3035,40.7322 488.9786,40.8946 488.6537,41.2195 488.4913,41.7069 488.4913,42.0318 488.6537,42.5191 488.9786,42.844 489.3035,43.0064 489.7908,43.0064 490.1157,42.844 490.4406,42.5191"/>
    <line x1="491.4153" x2="492.3899" y1="40.7322" y2="43.0064"/>
    <polyline points="493.3646,40.7322 492.3899,43.0064 492.065,43.6562 491.7402,43.9811 491.4153,44.1435 491.2528,44.1435"/>
    <polyline points="494.1768,41.7069 496.1262,41.7069 496.1262,41.382 495.9637,41.0571 495.8013,40.8946 495.4764,40.7322 494.9891,40.7322 494.6642,40.8946 494.3393,41.2195 494.1768,41.7069 494.1768,42.0318 494.3393,42.5191 494.6642,42.844 494.9891,43.0064 495.4764,43.0064 495.8013,42.844 496.1262,42.5191"/>
    <line x1="497.2633" x2="497.2633" y1="40.7322" y2="43.0064"/>
    <polyline points="497.2633,41.7069 497.4257,41.2195 497.7506,40.8946 498.0755,40.7322 498.5628,40.7322"/>
    <polyline points="503.4362,39.5951 501.8117,41.8693 504.2484,41.8693"/>
    <line x1="503.4362" x2="503.4362" y1="39.5951" y2="43.0064"/>
    <polygon points="475.6145,28.8173 475.6145,211.4466 658.2438,211.4466 658.2438,28.8173"/>
    <line x1="478.1656" x2="478.1656" y1="30.2955" y2="34.1007"/>
    <line x1="481.6085" x2="481.6085" y1="31.5639" y2="34.1007"/>
    <polyline points="481.6085,32.1075 481.2461,31.7451 480.8836,31.5639 480.34,31.5639 479.9776,31.7451 479.6152,32.1075 479.434,32.6511 479.434,33.0135 479.6152,33.5571 479.9776,33.9195 480.34,34.1007 480.8836,34.1007 481.2461,33.9195 481.6085,33.5571"/>
    <line x1="482.6957" x2="483.7829" y1="31.5639" y2="34.1007"/>
    <polyline points="484.8701,31.5639 483.7829,34.1007 483.4205,34.8256 483.0581,35.188 482.6957,35.3692 482.5145,35.3692"/>
    <polyline points="485.7761,32.6511 487.9505,32.6511 487.9505,32.2887 487.7693,31.9263 487.5881,31.7451 487.2257,31.5639 486.6821,31.5639 486.3197,31.7451 485.9573,32.1075 485.7761,32.6511 485.7761,33.0135 485.9573,33.5571 486.3197,33.9195 486.6821,34.1007 487.2257,34.1007 487.5881,33.9195 487.9505,33.5571"/>
    <line x1="489.219" x2="489.219" y1="31.5639" y2="34.1007"/>
    <polyline points="489.219,32.6511 489.4002,32.1075 489.7626,31.7451 490.125,31.5639 490.6686,31.5639"/>
    <polyline points="496.4671,30.2955 494.655,30.2955 494.4738,31.9263 494.655,31.7451 495.1986,31.5639 495.7422,31.5639 496.2859,31.7451 496.6483,32.1075 496.8295,32.6511 496.8295,33.0135 496.6483,33.5571 496.2859,33.9195 495.7422,34.1007 495.1986,34.1007 494.655,33.9195 494.4738,33.7383 494.2926,33.3759"/>
    <line x1="508.6046" x2="508.6046" y1="227.822" y2="233.1071"/>
    <polyline points="508.6046,229.332 509.7371,228.1995 510.4921,227.822 511.6246,227.822 512.3796,228.1995 512.7571,229.332 512.7571,233.1071"/>
    <polyline points="512.7571,229.332 513.8897,228.1995 514.6447,227.822 515.7772,227.822 516.5322,228.1995 516.9097,229.332 516.9097,233.1071"/>
    <polygon points="521.4398,227.822 520.6848,228.1995 519.9297,228.9545 519.5522,230.087 519.5522,230.842 519.9297,231.9745 520.6848,232.7296 521.4398,233.1071 522.5723,233.1071 523.3273,232.7296 524.0823,231.9745 524.4598,230.842 524.4598,230.087 524.0823,228.9545 523.3273,228.1995 522.5723,227.822"/>
    <line x1="526.3473" x2="528.6124" y1="227.822" y2="233.1071"/>
    <line x1="530.8774" x2="528.6124" y1="227.822" y2="233.1071"/>
    <polyline points="532.7649,230.087 537.295,230.087 537.295,229.332 536.9175,228.577 536.54,228.1995 535.785,227.822 534.6524,227.822 533.8974,228.1995 533.1424,228.9545 532.7649,230.087 532.7649,230.842 533.1424,231.9745 533.8974,232.7296 534.6524,233.1071 535.785,233.1071 536.54,232.7296 537.295,231.9745"/>
    <line x1="545.9776" x2="552.7727" y1="228.577" y2="228.577"/>
    <line x1="545.9776" x2="552.7727" y1="230.842" y2="230.842"/>
    <polyline points="564.4754,223.6694 563.7203,224.4244 562.9653,225.557 562.2103,227.067 561.8328,228.9545 561.8328,230.4645 562.2103,232.352 562.9653,233.8621 563.7203,234.9946 564.4754,235.7496"/>
    <polygon points="569.0054,225.1795 567.8729,225.557 567.1179,226.6895 566.7404,228.577 566.7404,229.7095 567.1179,231.597 567.8729,232.7296 569.0054,233.1071 569.7604,233.1071 570.8929,232.7296 571.6479,231.597 572.0255,229.7095 572.0255,228.577 571.6479,226.6895 570.8929,225.557 569.7604,225.1795"/>
    <polyline points="578.8205,228.9545 578.0655,228.1995 577.3105,227.822 576.178,227.822 575.423,228.1995 574.668,228.9545 574.2905,230.087 574.2905,230.842 574.668,231.9745 575.423,232.7296 576.178,233.1071 577.3105,233.1071 578.0655,232.7296 578.8205,231.9745"/>
    <line x1="581.4631" x2="581.4631" y1="227.822" y2="233.1071"/>
    <polyline points="581.4631,229.332 582.5956,228.1995 583.3506,227.822 584.4831,227.822 585.2381,228.1995 585.6156,229.332 585.6156,233.1071"/>
    <polyline points="585.6156,229.332 586.7482,228.1995 587.5032,227.822 588.6357,227.822 589.3907,228.1995 589.7682,229.332 589.7682,233.1071"/>
    <polyline points="593.1657,231.597 592.7882,231.9745 592.4107,231.597 592.7882,231.2195 593.1657,231.597 593.1657,232.352 592.4107,233.1071"/>
    <polygon points="603.7359,225.1795 602.6034,225.557 601.8484,226.6895 601.4709,228.577 601.4709,229.7095 601.8484,231.597 602.6034,232.7296 603.7359,233.1071 604.4909,233.1071 605.6234,232.7296 606.3784,231.597 606.7559,229.7095 606.7559,228.577 606.3784,226.6895 605.6234,225.557 604.4909,225.1795"/>
    <polyline points="609.776,231.597 609.3985,231.9745 609.021,231.597 609.3985,231.2195 609.776,231.597 609.776,232.352 609.021,233.1071"/>
    <polygon points="620.3461,225.1795 619.2136,225.557 618.4586,226.6895 618.0811,228.577 618.0811,229.7095 618.4586,231.597 619.2136,232.7296 620.3461,233.1071 621.1011,233.1071 622.2336,232.7296 622.9886,231.597 623.3662,229.7095 623.3662,228.577 622.9886,226.6895 622.2336,225.557 621.1011,225.1795"/>
    <polyline points="625.6312,223.6694 626.3862,224.4244 627.1412,225.557 627.8962,227.067 628.2737,228.9545 628.2737,230.4645 627.8962,232.352 627.1412,233.8621 626.3862,234.9946 625.6312,235.7496"/>
    <polygon points="746.7011,57.6681 746.7011,182.5958 871.6287,182.5958 871.6287,57.6681"/>
    <line x1="748.4461" x2="748.4461" y1="58.6793" y2="61.2823"/>
    <line x1="750.8012" x2="750.8012" y1="59.5469" y2="61.2823"/>
    <polyline points="750.8012,59.9188 750.5533,59.6709 750.3054,59.5469 749.9336,59.5469 749.6857,59.6709 749.4378,59.9188 749.3138,60.2906 749.3138,60.5385 749.4378,60.9104 749.6857,61.1583 749.9336,61.2823 750.3054,61.2823 750.5533,61.1583 750.8012,60.9104"/>
    <line x1="751.5449" x2="752.2886" y1="59.5469" y2="61.2823"/>
    <polyline points="753.0323,59.5469 752.2886,61.2823 752.0407,61.7781 751.7928,62.026 751.5449,62.1499 751.421,62.1499"/>
    <polyline points="753.6521,60.2906 755.1395,60.2906 755.1395,60.0427 755.0156,59.7948 754.8916,59.6709 754.6437,59.5469 754.2719,59.5469 754.024,59.6709 753.7761,59.9188 753.6521,60.2906 753.6521,60.5385 753.7761,60.9104 754.024,61.1583 754.2719,61.2823 754.6437,61.2823 754.8916,61.1583 755.1395,60.9104"/>
    <line x1="756.0072" x2="756.0072" y1="59.5469" y2="61.2823"/>
    <polyline points="756.0072,60.2906 756.1311,59.9188 756.379,59.6709 756.6269,59.5469 756.9988,59.5469"/>
    <polyline points="759.8497,59.1751 760.0976,59.0511 760.4694,58.6793 760.4694,61.2823"/>
    <polygon points="737.0585,52.3112 737.0585,187.9528 872.7001,187.9528 872.7001,52.3112"/>
    <line x1="738.9532" x2="738.9532" y1="53.409" y2="56.2352"/>
    <line x1="741.5103" x2="741.5103" y1="54.3511" y2="56.2352"/>
    <polyline points="741.5103,54.7548 741.2411,54.4857 740.972,54.3511 740.5682,54.3511 740.299,54.4857 740.0299,54.7548 739.8953,55.1586 739.8953,55.4277 740.0299,55.8315 740.299,56.1006 740.5682,56.2352 740.972,56.2352 741.2411,56.1006 741.5103,55.8315"/>
    <line x1="742.3178" x2="743.1253" y1="54.3511" y2="56.2352"/>
    <polyline points="743.9328,54.3511 743.1253,56.2352 742.8561,56.7735 742.5869,57.0427 742.3178,57.1773 742.1832,57.1773"/>
    <polyline points="744.6057,55.1586 746.2206,55.1586 746.2206,54.8894 746.0861,54.6202 745.9515,54.4857 745.6823,54.3511 745.2786,54.3511 745.0094,54.4857 744.7402,54.7548 744.6057,55.1586 744.6057,55.4277 744.7402,55.8315 745.0094,56.1006 745.2786,56.2352 745.6823,56.2352 745.9515,56.1006 746.2206,55.8315"/>
    <line x1="747.1627" x2="747.1627" y1="54.3511" y2="56.2352"/>
    <polyline points="747.1627,55.1586 747.2973,54.7548 747.5665,54.4857 747.8356,54.3511 748.2394,54.3511"/>
    <polyline points="751.0656,54.0819 751.0656,53.9473 751.2002,53.6782 751.3348,53.5436 751.6039,53.409 752.1423,53.409 752.4114,53.5436 752.546,53.6782 752.6806,53.9473 752.6806,54.2165 752.546,54.4857 752.2768,54.8894 750.931,56.2352 752.8152,56.2352"/>
    <polygon points="725.6068,45.9491 725.6068,194.3148 873.9725,194.3148 873.9725,45.9491"/>
    <line x1="727.6793" x2="727.6793" y1="47.15" y2="50.2413"/>
    <line x1="730.4762" x2="730.4762" y1="48.1804" y2="50.2413"/>
    <polyline points="730.4762,48.622 730.1818,48.3276 729.8874,48.1804 729.4458,48.1804 729.1514,48.3276 728.857,48.622 728.7098,49.0636 728.7098,49.3581 728.857,49.7997 729.1514,50.0941 729.4458,50.2413 729.8874,50.2413 730.1818,50.0941 730.4762,49.7997"/>
    <line x1="731.3595" x2="732.2427" y1="48.1804" y2="50.2413"/>
    <polyline points="733.126,48.1804 732.2427,50.2413 731.9483,50.8301 731.6539,51.1245 731.3595,51.2717 731.2123,51.2717"/>
    <polyline points="733.862,49.0636 735.6285,49.0636 735.6285,48.7692 735.4813,48.4748 735.3341,48.3276 735.0396,48.1804 734.598,48.1804 734.3036,48.3276 734.0092,48.622 733.862,49.0636 733.862,49.3581 734.0092,49.7997 734.3036,50.0941 734.598,50.2413 735.0396,50.2413 735.3341,50.0941 735.6285,49.7997"/>
    <line x1="736.6589" x2="736.6589" y1="48.1804" y2="50.2413"/>
    <polyline points="736.6589,49.0636 736.8061,48.622 737.1005,48.3276 737.395,48.1804 737.8366,48.1804"/>
    <polyline points="741.0751,47.15 742.6944,47.15 741.8111,48.3276 742.2528,48.3276 742.5472,48.4748 742.6944,48.622 742.8416,49.0636 742.8416,49.3581 742.6944,49.7997 742.4,50.0941 741.9584,50.2413 741.5167,50.2413 741.0751,50.0941 740.9279,49.9469 740.7807,49.6525"/>
    <polygon points="711.7843,38.2699 711.7843,201.994 875.5083,201.994 875.5083,38.2699"/>
    <line x1="714.0713" x2="714.0713" y1="39.5951" y2="43.0064"/>
    <line x1="717.1578" x2="717.1578" y1="40.7322" y2="43.0064"/>
    <polyline points="717.1578,41.2195 716.8329,40.8946 716.508,40.7322 716.0207,40.7322 715.6958,40.8946 715.3709,41.2195 715.2084,41.7069 715.2084,42.0318 715.3709,42.5191 715.6958,42.844 716.0207,43.0064 716.508,43.0064 716.8329,42.844 717.1578,42.5191"/>
    <line x1="718.1325" x2="719.1071" y1="40.7322" y2="43.0064"/>
    <polyline points="720.0818,40.7322 719.1071,43.0064 718.7822,43.6562 718.4573,43.9811 718.1325,44.1435 717.97,44.1435"/>
    <polyline points="720.894,41.7069 722.8434,41.7069 722.8434,41.382 722.6809,41.0571 722.5185,40.8946 722.1936,40.7322 721.7062,40.7322 721.3814,40.8946 721.0565,41.2195 720.894,41.7069 720.894,42.0318 721.0565,42.5191 721.3814,42.844 721.7062,43.0064 722.1936,43.0064 722.5185,42.844 722.8434,42.5191"/>
    <line x1="723.9805" x2="723.9805" y1="40.7322" y2="43.0064"/>
    <polyline points="723.9805,41.7069 724.1429,41.2195 724.4678,40.8946 724.7927,40.7322 725.28,40.7322"/>
    <polyline points="730.1534,39.5951 728.5289,41.8693 730.9656,41.8693"/>
    <line x1="730.1534" x2="730.1534" y1="39.5951" y2="43.0064"/>
    <polygon points="694.7696,28.8173 694.7696,211.4466 877.3989,211.4466 877.3989,28.8173"/>
    <line x1="697.3207" x2="697.3207" y1="30.2955" y2="34.1007"/>
    <line x1="700.7636" x2="700.7636" y1="31.5639" y2="34.1007"/>
    <polyline points="700.7636,32.1075 700.4012,31.7451 700.0387,31.5639 699.4951,31.5639 699.1327,31.7451 698.7703,32.1075 698.5891,32.6511 698.5891,33.0135 698.7703,33.5571 699.1327,33.9195 699.4951,34.1007 700.0387,34.1007 700.4012,33.9195 700.7636,33.5571"/>
    <line x1="701.8508" x2="702.938" y1="31.5639" y2="34.1007"/>
    <polyline points="704.0252,31.5639 702.938,34.1007 702.5756,34.8256 702.2132,35.188 701.8508,35.3692 701.6696,35.3692"/>
    <polyline points="704.9312,32.6511 707.1056,32.6511 707.1056,32.2887 706.9244,31.9263 706.7432,31.7451 706.3808,31.5639 705.8372,31.5639 705.4748,31.7451 705.1124,32.1075 704.9312,32.6511 704.9312,33.0135 705.1124,33.5571 705.4748,33.9195 705.8372,34.1007 706.3808,34.1007 706.7432,33.9195 707.1056,33.5571"/>
    <line x1="708.3741" x2="708.3741" y1="31.5639" y2="34.1007"/>
    <polyline points="708.3741,32.6511 708.5553,32.1075 708.9177,31.7451 709.2801,31.5639 709.8237,31.5639"/>
    <polyline points="715.6222,30.2955 713.8101,30.2955 713.6289,31.9263 713.8101,31.7451 714.3537,31.5639 714.8974,31.5639 715.441,31.7451 715.8034,32.1075 715.9846,32.6511 715.9846,33.0135 715.8034,33.5571 715.441,33.9195 714.8974,34.1007 714.3537,34.1007 713.8101,33.9195 713.6289,33.7383 713.4477,33.3759"/>
    <line x1="727.7597" x2="727.7597" y1="227.822" y2="233.1071"/>
    <polyline points="727.7597,229.332 728.8922,228.1995 729.6472,227.822 730.7797,227.822 731.5347,228.1995 731.9122,229.332 731.9122,233.1071"/>
    <polyline points="731.9122,229.332 733.0448,228.1995 733.7998,227.822 734.9323,227.822 735.6873,228.1995 736.0648,229.332 736.0648,233.1071"/>
    <polygon points="740.5949,227.822 739.8399,228.1995 739.0848,228.9545 738.7073,230.087 738.7073,230.842 739.0848,231.9745 739.8399,232.7296 740.5949,233.1071 741.7274,233.1071 742.4824,232.7296 743.2374,231.9745 743.6149,230.842 743.6149,230.087 743.2374,228.9545 742.4824,228.1995 741.7274,227.822"/>
    <line x1="745.5024" x2="747.7675" y1="227.822" y2="233.1071"/>
    <line x1="750.0325" x2="747.7675" y1="227.822" y2="233.1071"/>
    <polyline points="751.92,230.087 756.4501,230.087 756.4501,229.332 756.0726,228.577 755.6951,228.1995 754.9401,227.822 753.8075,227.822 753.0525,228.1995 752.2975,228.9545 751.92,230.087 751.92,230.842 752.2975,231.9745 753.0525,232.7296 753.8075,233.1071 754.9401,233.1071 755.6951,232.7296 756.4501,231.9745"/>
    <line x1="765.1327" x2="771.9278" y1="228.577" y2="228.577"/>
    <line x1="765.1327" x2="771.9278" y1="230.842" y2="230.842"/>
    <polyline points="783.6305,223.6694 782.8754,224.4244 782.1204,225.557 781.3654,227.067 780.9879,228.9545 780.9879,230.4645 781.3654,232.352 782.1204,233.8621 782.8754,234.9946 783.6305,235.7496"/>
    <polyline points="789.6705,225.1795 785.8955,230.4645 791.5581,230.4645"/>
    <line x1="789.6705" x2="789.6705" y1="225.1795" y2="233.1071"/>
    <polyline points="797.9756,228.9545 797.2206,228.1995 796.4656,227.822 795.3331,227.822 794.5781,228.1995 793.8231,228.9545 793.4456,230.087 793.4456,230.842 793.8231,231.9745 794.5781,232.7296 795.3331,233.1071 796.4656,233.1071 797.2206,232.7296 797.9756,231.9745"/>
    <line x1="800.6182" x2="800.6182" y1="227.822" y2="233.1071"/>
    <polyline points="800.6182,229.332 801.7507,228.1995 802.5057,227.822 803.6382,227.822 804.3932,228.1995 804.7707,229.332 804.7707,233.1071"/>
    <polyline points="804.7707,229.332 805.9033,228.1995 806.6583,227.822 807.7908,227.822 808.5458,228.1995 808.9233,229.332 808.9233,233.1071"/>
    <polyline points="812.3208,231.597 811.9433,231.9745 811.5658,231.597 811.9433,231.2195 812.3208,231.597 812.3208,232.352 811.5658,233.1071"/>
    <polygon points="822.891,225.1795 821.7585,225.557 821.0035,226.6895 820.626,228.577 820.626,229.7095 821.0035,231.597 821.7585,232.7296 822.891,233.1071 823.646,233.1071 824.7785,232.7296 825.5335,231.597 825.911,229.7095 825.911,228.577 825.5335,226.6895 824.7785,225.557 823.646,225.1795"/>
    <polyline points="828.9311,231.597 828.5536,231.9745 828.1761,231.597 828.5536,231.2195 828.9311,231.597 828.9311,232.352 828.1761,233.1071"/>
    <polygon points="839.5012,225.1795 838.3687,225.557 837.6137,226.6895 837.2362,228.577 837.2362,229.7095 837.6137,231.597 838.3687,232.7296 839.5012,233.1071 840.2562,233.1071 841.3887,232.7296 842.1437,231.597 842.5213,229.7095 842.5213,228.577 842.1437,226.6895 841.3887,225.557 840.2562,225.1795"/>
    <polyline points="844.7863,223.6694 845.5413,224.4244 846.2963,225.557 847.0513,227.067 847.4288,228.9545 847.4288,230.4645 847.0513,232.352 846.2963,233.8621 845.5413,234.9946 844.7863,235.7496"/>
    <polygon points="997.592,57.6681 997.592,182.5958 1122.5197,182.5958 1122.5197,57.6681"/>
    <line x1="999.3371" x2="999.3371" y1="58.6793" y2="61.2823"/>
    <line x1="1001.6922" x2="1001.6922" y1="59.5469" y2="61.2823"/>
    <polyline points="1001.6922,59.9188 1001.4443,59.6709 1001.1964,59.5469 1000.8245,59.5469 1000.5766,59.6709 1000.3287,59.9188 1000.2048,60.2906 1000.2048,60.5385 1000.3287,60.9104 1000.5766,61.1583 1000.8245,61.2823 1001.1964,61.2823 1001.4443,61.1583 1001.6922,60.9104"/>
    <line x1="1002.4359" x2="1003.1796" y1="59.5469" y2="61.2823"/>
    <polyline points="1003.9233,59.5469 1003.1796,61.2823 1002.9317,61.7781 1002.6838,62.026 1002.4359,62.1499 1002.312,62.1499"/>
    <polyline points="1004.5431,60.2906 1006.0305,60.2906 1006.0305,60.0427 1005.9066,59.7948 1005.7826,59.6709 1005.5347,59.5469 1005.1629,59.5469 1004.9149,59.6709 1004.667,59.9188 1004.5431,60.2906 1004.5431,60.5385 1004.667,60.9104 1004.9149,61.1583 1005.1629,61.2823 1005.5347,61.2823 1005.7826,61.1583 1006.0305,60.9104"/>
    <line x1="1006.8982" x2="1006.8982" y1="59.5469" y2="61.2823"/>
    <polyline points="1006.8982,60.2906 1007.0221,59.9188 1007.27,59.6709 1007.5179,59.5469 1007.8898,59.5469"/>
    <polyline points="1010.7407,59.1751 1010.9886,59.0511 1011.3604,58.6793 1011.3604,61.2823"/>
    <polygon points="983.6639,52.3112 983.6639,187.9528 1119.3055,187.9528 1119.3055,52.3112"/>
    <line x1="985.5586" x2="985.5586" y1="53.409" y2="56.2352"/>
    <line x1="988.1157" x2="988.1157" y1="54.3511" y2="56.2352"/>
    <polyline points="988.1157,54.7548 987.8465,54.4857 987.5773,54.3511 987.1736,54.3511 986.9044,54.4857 986.6353,54.7548 986.5007,55.1586 986.5007,55.4277 986.6353,55.8315 986.9044,56.1006 987.1736,56.2352 987.5773,56.2352 987.8465,56.1006 988.1157,55.8315"/>
    <line x1="988.9232" x2="989.7307" y1="54.3511" y2="56.2352"/>
    <polyline points="990.5382,54.3511 989.7307,56.2352 989.4615,56.7735 989.1923,57.0427 988.9232,57.1773 988.7886,57.1773"/>
    <polyline points="991.2111,55.1586 992.826,55.1586 992.826,54.8894 992.6915,54.6202 992.5569,54.4857 992.2877,54.3511 991.884,54.3511 991.6148,54.4857 991.3456,54.7548 991.2111,55.1586 991.2111,55.4277 991.3456,55.8315 991.6148,56.1006 991.884,56.2352 992.2877,56.2352 992.5569,56.1006 992.826,55.8315"/>
    <line x1="993.7681" x2="993.7681" y1="54.3511" y2="56.2352"/>
    <polyline points="993.7681,55.1586 993.9027,54.7548 994.1719,54.4857 994.441,54.3511 994.8448,54.3511"/>
    <polyline points="997.671,54.0819 997.671,53.9473 997.8056,53.6782 997.9402,53.5436 998.2093,53.409 998.7476,53.409 999.0168,53.5436 999.1514,53.6782 999.286,53.9473 999.286,54.2165 999.1514,54.4857 998.8822,54.8894 997.5364,56.2352 999.4206,56.2352"/>
    <polygon points="967.1226,45.9491 967.1226,194.3148 1115.4883,194.3148 1115.4883,45.9491"/>
    <line x1="969.1951" x2="969.1951" y1="47.15" y2="50.2413"/>
    <line x1="971.992" x2="971.992" y1="48.1804" y2="50.2413"/>
    <polyline points="971.992,48.622 971.6976,48.3276 971.4032,48.1804 970.9616,48.1804 970.6672,48.3276 970.3727,48.622 970.2255,49.0636 970.2255,49.3581 970.3727,49.7997 970.6672,50.0941 970.9616,50.2413 971.4032,50.2413 971.6976,50.0941 971.992,49.7997"/>
    <line x1="972.8753" x2="973.7585" y1="48.1804" y2="50.2413"/>
    <polyline points="974.6417,48.1804 973.7585,50.2413 973.4641,50.8301 973.1697,51.1245 972.8753,51.2717 972.7281,51.2717"/>
    <polyline points="975.3778,49.0636 977.1442,49.0636 977.1442,48.7692 976.997,48.4748 976.8498,48.3276 976.5554,48.1804 976.1138,48.1804 975.8194,48.3276 975.525,48.622 975.3778,49.0636 975.3778,49.3581 975.525,49.7997 975.8194,50.0941 976.1138,50.2413 976.5554,50.2413 976.8498,50.0941 977.1442,49.7997"/>
    <line x1="978.1747" x2="978.1747" y1="48.1804" y2="50.2413"/>
    <polyline points="978.1747,49.0636 978.3219,48.622 978.6163,48.3276 978.9107,48.1804 979.3523,48.1804"/>
    <polyline points="982.5909,47.15 984.2102,47.15 983.3269,48.3276 983.7685,48.3276 984.063,48.4748 984.2102,48.622 984.3574,49.0636 984.3574,49.3581 984.2102,49.7997 983.9157,50.0941 983.4741,50.2413 983.0325,50.2413 982.5909,50.0941 982.4437,49.9469 982.2965,49.6525"/>
    <polygon points="947.1567,38.2699 947.1567,201.994 1110.8808,201.994 1110.8808,38.2699"/>
    <line x1="949.4438" x2="949.4438" y1="39.5951" y2="43.0064"/>
    <line x1="952.5302" x2="952.5302" y1="40.7322" y2="43.0064"/>
    <polyline points="952.5302,41.2195 952.2053,40.8946 951.8804,40.7322 951.3931,40.7322 951.0682,40.8946 950.7433,41.2195 950.5809,41.7069 950.5809,42.0318 950.7433,42.5191 951.0682,42.844 951.3931,43.0064 951.8804,43.0064 952.2053,42.844 952.5302,42.5191"/>
    <line x1="953.5049" x2="954.4796" y1="40.7322" y2="43.0064"/>
    <polyline points="955.4542,40.7322 954.4796,43.0064 954.1547,43.6562 953.8298,43.9811 953.5049,44.1435 953.3424,44.1435"/>
    <polyline points="956.2664,41.7069 958.2158,41.7069 958.2158,41.382 958.0533,41.0571 957.8909,40.8946 957.566,40.7322 957.0787,40.7322 956.7538,40.8946 956.4289,41.2195 956.2664,41.7069 956.2664,42.0318 956.4289,42.5191 956.7538,42.844 957.0787,43.0064 957.566,43.0064 957.8909,42.844 958.2158,42.5191"/>
    <line x1="959.3529" x2="959.3529" y1="40.7322" y2="43.0064"/>
    <polyline points="959.3529,41.7069 959.5153,41.2195 959.8402,40.8946 960.1651,40.7322 960.6525,40.7322"/>
    <polyline points="965.5258,39.5951 963.9014,41.8693 966.338,41.8693"/>
    <line x1="965.5258" x2="965.5258" y1="39.5951" y2="43.0064"/>
    <polygon points="922.58,28.8173 922.58,211.4466 1105.2092,211.4466 1105.2092,28.8173"/>
    <line x1="925.1311" x2="925.1311" y1="30.2955" y2="34.1007"/>
    <line x1="928.5739" x2="928.5739" y1="31.5639" y2="34.1007"/>
    <polyline points="928.5739,32.1075 928.2115,31.7451 927.8491,31.5639 927.3055,31.5639 926.9431,31.7451 926.5807,32.1075 926.3995,32.6511 926.3995,33.0135 926.5807,33.5571 926.9431,33.9195 927.3055,34.1007 927.8491,34.1007 928.2115,33.9195 928.5739,33.5571"/>
    <line x1="929.6611" x2="930.7483" y1="31.5639" y2="34.1007"/>
    <polyline points="931.8355,31.5639 930.7483,34.1007 930.3859,34.8256 930.0235,35.188 929.6611,35.3692 929.4799,35.3692"/>
    <polyline points="932.7416,32.6511 934.916,32.6511 934.916,32.2887 934.7348,31.9263 934.5536,31.7451 934.1912,31.5639 933.6476,31.5639 933.2852,31.7451 932.9228,32.1075 932.7416,32.6511 932.7416,33.0135 932.9228,33.5571 933.2852,33.9195 933.6476,34.1007 934.1912,34.1007 934.5536,33.9195 934.916,33.5571"/>
    <line x1="936.1844" x2="936.1844" y1="31.5639" y2="34.1007"/>
    <polyline points="936.1844,32.6511 936.3656,32.1075 936.728,31.7451 937.0904,31.5639 937.634,31.5639"/>
    <polyline points="943.4325,30.2955 941.6205,30.2955 941.4393,31.9263 941.6205,31.7451 942.1641,31.5639 942.7077,31.5639 943.2513,31.7451 943.6137,32.1075 943.7949,32.6511 943.7949,33.0135 943.6137,33.5571 943.2513,33.9195 942.7077,34.1007 942.1641,34.1007 941.6205,33.9195 941.4393,33.7383 941.2581,33.3759"/>
    <line x1="955.57" x2="955.57" y1="227.822" y2="233.1071"/>
    <polyline points="955.57,229.332 956.7026,228.1995 957.4576,227.822 958.5901,227.822 959.3451,228.1995 959.7226,229.332 959.7226,233.1071"/>
    <polyline points="959.7226,229.332 960.8551,228.1995 961.6101,227.822 962.7426,227.822 963.4976,228.1995 963.8751,229.332 963.8751,233.1071"/>
    <polygon points="968.4052,227.822 967.6502,228.1995 966.8952,228.9545 966.5177,230.087 966.5177,230.842 966.8952,231.9745 967.6502,232.7296 968.4052,233.1071 969.5377,233.1071 970.2927,232.7296 971.0477,231.9745 971.4253,230.842 971.4253,230.087 971.0477,228.9545 970.2927,228.1995 969.5377,227.822"/>
    <line x1="973.3128" x2="975.5778" y1="227.822" y2="233.1071"/>
    <line x1="977.8428" x2="975.5778" y1="227.822" y2="233.1071"/>
    <polyline points="979.7304,230.087 984.2604,230.087 984.2604,229.332 983.8829,228.577 983.5054,228.1995 982.7504,227.822 981.6179,227.822 980.8629,228.1995 980.1079,228.9545 979.7304,230.087 979.7304,230.842 980.1079,231.9745 980.8629,232.7296 981.6179,233.1071 982.7504,233.1071 983.5054,232.7296 984.2604,231.9745"/>
    <line x1="992.943" x2="999.7381" y1="228.577" y2="228.577"/>
    <line x1="992.943" x2="999.7381" y1="230.842" y2="230.842"/>
    <polyline points="1011.4408,223.6694 1010.6858,224.4244 1009.9308,225.557 1009.1758,227.067 1008.7983,228.9545 1008.7983,230.4645 1009.1758,232.352 1009.9308,233.8621 1010.6858,234.9946 1011.4408,235.7496"/>
    <polygon points="1015.5934,225.1795 1014.4608,225.557 1014.0833,226.312 1014.0833,227.067 1014.4608,227.822 1015.2158,228.1995 1016.7259,228.577 1017.8584,228.9545 1018.6134,229.7095 1018.9909,230.4645 1018.9909,231.597 1018.6134,232.352 1018.2359,232.7296 1017.1034,233.1071 1015.5934,233.1071 1014.4608,232.7296 1014.0833,232.352 1013.7058,231.597 1013.7058,230.4645 1014.0833,229.7095 1014.8383,228.9545 1015.9709,228.577 1017.4809,228.1995 1018.2359,227.822 1018.6134,227.067 1018.6134,226.312 1018.2359,225.557 1017.1034,225.1795"/>
    <polyline points="1025.786,228.9545 1025.031,228.1995 1024.276,227.822 1023.1435,227.822 1022.3884,228.1995 1021.6334,228.9545 1021.2559,230.087 1021.2559,230.842 1021.6334,231.9745 1022.3884,232.7296 1023.1435,233.1071 1024.276,233.1071 1025.031,232.7296 1025.786,231.9745"/>
    <line x1="1028.4285" x2="1028.4285" y1="227.822" y2="233.1071"/>
    <polyline points="1028.4285,229.332 1029.561,228.1995 1030.3161,227.822 1031.4486,227.822 1032.2036,228.1995 1032.5811,229.332 1032.5811,233.1071"/>
    <polyline points="1032.5811,229.332 1033.7136,228.1995 1034.4686,227.822 1035.6011,227.822 1036.3561,228.1995 1036.7336,229.332 1036.7336,233.1071"/>
    <polyline points="1040.1312,231.597 1039.7537,231.9745 1039.3762,231.597 1039.7537,231.2195 1040.1312,231.597 1040.1312,232.352 1039.3762,233.1071"/>
    <polygon points="1050.7013,225.1795 1049.5688,225.557 1048.8138,226.6895 1048.4363,228.577 1048.4363,229.7095 1048.8138,231.597 1049.5688,232.7296 1050.7013,233.1071 1051.4563,233.1071 1052.5889,232.7296 1053.3439,231.597 1053.7214,229.7095 1053.7214,228.577 1053.3439,226.6895 1052.5889,225.557 1051.4563,225.1795"/>
    <polyline points="1056.7414,231.597 1056.3639,231.9745 1055.9864,231.597 1056.3639,231.2195 1056.7414,231.597 1056.7414,232.352 1055.9864,233.1071"/>
    <polygon points="1067.3116,225.1795 1066.179,225.557 1065.424,226.6895 1065.0465,228.577 1065.0465,229.7095 1065.424,231.597 1066.179,232.7296 1067.3116,233.1071 1068.0666,233.1071 1069.1991,232.7296 1069.9541,231.597 1070.3316,229.7095 1070.3316,228.577 1069.9541,226.6895 1069.1991,225.557 1068.0666,225.1795"/>
    <polyline points="1072.5966,223.6694 1073.3516,224.4244 1074.1066,225.557 1074.8617,227.067 1075.2392,228.9545 1075.2392,230.4645 1074.8617,232.352 1074.1066,233.8621 1073.3516,234.9946 1072.5966,235.7496"/>
  </g>
</svg>
