<?xml version="1.0" encoding="utf-8" ?>
<svg xmlns="http://www.w3.org/2000/svg" xmlns:cc="http://creativecommons.org/ns" xmlns:dc="http://purl.org/dc/elements/1.1/" xmlns:ev="http://www.w3.org/2001/xml-events" xmlns:inkscape="http://www.inkscape.org/namespaces/inkscape" xmlns:rdf="http://www.w3.org/1999/02/22-rdf-syntax-ns" xmlns:sodipodi="http://sodipodi.sourceforge.net/DTD/sodipodi-0.dtd" xmlns:xlink="http://www.w3.org/1999/xlink" baseProfile="tiny" height="8.0cm" version="1.2" viewBox="0 0 1133.8582677165352 302.3622047244094" width="30.0cm">
  <metadata>
    <rdf:RDF>
      <cc:Work>
        <dc:format>image/svg+xml</dc:format>
        <dc:source>vpype -I figures/fig_tilt.vpy write figures/fig_tilt.svg
</dc:source>
        <dc:date>2022-03-31T12:15:52.393638</dc:date>
      </cc:Work>
    </rdf:RDF>
  </metadata>
  <defs/>
  <g fill="none" id="layer6" inkscape:groupmode="layer" inkscape:label="6" stroke="#0000ff" style="display:inline">
    <polygon points="151.9797,99.4495 102.311,256.5599 340.4019,256.5599 290.7332,99.4495"/>
    <line x1="153.6894" x2="153.0939" y1="100.1931" y2="102.1307"/>
    <line x1="156.1243" x2="155.7416" y1="100.8352" y2="102.1307"/>
    <polyline points="156.0427,101.1115 155.8199,100.9272 155.5701,100.8352 155.1545,100.8352 154.8497,100.9272 154.5168,101.1115 154.2942,101.3885 154.2381,101.5736 154.293,101.8518 154.5155,102.0376 154.7661,102.1307 155.1842,102.1307 155.4905,102.0376 155.824,101.8518"/>
    <line x1="156.9555" x2="157.4138" y1="100.8352" y2="102.1307"/>
    <polyline points="158.618,100.8352 157.4138,102.1307 157.0273,102.5036 156.6939,102.6906 156.3872,102.7841 156.2474,102.7841"/>
    <polyline points="159.1552,101.3885 160.8218,101.3885 160.8724,101.2038 160.7841,101.0193 160.6708,100.9272 160.419,100.8352 160.0034,100.8352 159.7006,100.9272 159.3717,101.1115 159.1552,101.3885 159.1032,101.5736 159.1642,101.8518 159.3907,102.0376 159.6435,102.1307 160.0615,102.1307 160.3658,102.0376 160.6952,101.8518"/>
    <line x1="161.9429" x2="161.5944" y1="100.8352" y2="102.1307"/>
    <polyline points="161.794,101.3885 162.0073,101.1115 162.3339,100.9272 162.6356,100.8352 163.0512,100.8352"/>
    <polyline points="166.3064,100.5595 166.6059,100.4678 167.0886,100.1931 166.611,102.1307"/>
    <polygon points="148.3495,88.2165 91.2065,251.1898 351.5064,251.1898 294.3633,88.2165"/>
    <line x1="150.1361" x2="149.4762" y1="88.959" y2="90.8952"/>
    <line x1="152.6883" x2="152.2642" y1="89.6004" y2="90.8952"/>
    <polyline points="152.5979,89.8766 152.3664,89.6924 152.105,89.6004 151.6675,89.6004 151.3451,89.6924 150.9916,89.8766 150.7525,90.1534 150.6904,90.3384 150.7435,90.6164 150.9746,90.8022 151.237,90.8952 151.6772,90.8952 152.0013,90.8022 152.3555,90.6164"/>
    <line x1="153.5634" x2="154.025" y1="89.6004" y2="90.8952"/>
    <polyline points="155.3134,89.6004 154.025,90.8952 153.612,91.2681 153.2578,91.455 152.9333,91.5486 152.7861,91.5486"/>
    <polyline points="155.8703,90.1534 157.6249,90.1534 157.6809,89.9688 157.5908,89.7844 157.4729,89.6924 157.2093,89.6004 156.7718,89.6004 156.4516,89.6924 156.1026,89.8766 155.8703,90.1534 155.8126,90.3384 155.8725,90.6164 156.1081,90.8022 156.3728,90.8952 156.813,90.8952 157.1348,90.8022 157.4845,90.6164"/>
    <line x1="158.8135" x2="158.4271" y1="89.6004" y2="90.8952"/>
    <polyline points="158.6485,90.1534 158.8771,89.8766 159.2237,89.6924 159.5426,89.6004 159.9801,89.6004"/>
    <polyline points="163.0938,89.4168 163.1193,89.3251 163.3158,89.1419 163.4866,89.0504 163.8027,88.959 164.3843,88.959 164.6503,89.0504 164.771,89.1419 164.8671,89.3251 164.8175,89.5086 164.622,89.6924 164.2551,89.9688 162.5358,90.8952 164.5901,90.8952"/>
    <polygon points="144.3186,75.743 77.8172,244.7148 364.8957,244.7148 298.3943,75.743"/>
    <line x1="146.1889" x2="145.4535" y1="76.4797" y2="78.4022"/>
    <line x1="148.8703" x2="148.3975" y1="77.1164" y2="78.4022"/>
    <polyline points="148.7695,77.3905 148.5287,77.2077 148.2546,77.1164 147.7927,77.1164 147.4506,77.2077 147.0738,77.3905 146.816,77.6654 146.7467,77.8491 146.7973,78.1252 147.0376,78.3098 147.3129,78.4022 147.7777,78.4022 148.1217,78.3098 148.4993,78.1252"/>
    <line x1="149.794" x2="150.2569" y1="77.1164" y2="78.4022"/>
    <polyline points="151.6413,77.1164 150.2569,78.4022 149.8137,78.7726 149.436,78.9584 149.0915,79.0514 148.9361,79.0514"/>
    <polyline points="152.219,77.6654 154.0715,77.6654 154.1339,77.4821 154.0421,77.2991 153.9193,77.2077 153.6426,77.1164 153.1808,77.1164 152.8412,77.2077 152.4693,77.3905 152.219,77.6654 152.1548,77.8491 152.2129,78.1252 152.4583,78.3098 152.7361,78.4022 153.2009,78.4022 153.5424,78.3098 153.915,78.1252"/>
    <line x1="155.336" x2="154.9054" y1="77.1164" y2="78.4022"/>
    <polyline points="155.1521,77.6654 155.3984,77.3905 155.7675,77.2077 156.1057,77.1164 156.5676,77.1164"/>
    <polyline points="160.1527,76.4797 161.8406,76.4797 160.696,77.2077 161.158,77.2077 161.4383,77.2991 161.5647,77.3905 161.6358,77.6654 161.5803,77.8491 161.3421,78.1252 160.9765,78.3098 160.4835,78.4022 160.0187,78.4022 159.5826,78.3098 159.4566,78.2175 159.3595,78.0331"/>
    <polygon points="139.8164,61.8116 61.3572,236.7548 381.3557,236.7548 302.8964,61.8116"/>
    <line x1="141.7786" x2="140.9539" y1="62.536" y2="64.4279"/>
    <line x1="144.6027" x2="144.0724" y1="63.1623" y2="64.4279"/>
    <polyline points="144.4897,63.4321 144.2389,63.2522 143.9507,63.1623 143.4617,63.1623 143.0973,63.2522 142.694,63.4321 142.4145,63.7026 142.3368,63.8834 142.3839,64.1553 142.6341,64.3369 142.9235,64.4279 143.4159,64.4279 143.7824,64.3369 144.1867,64.1553"/>
    <line x1="145.5808" x2="146.042" y1="63.1623" y2="64.4279"/>
    <polyline points="147.5369,63.1623 146.042,64.4279 145.5641,64.7927 145.1598,64.9757 144.7927,65.0673 144.628,65.0673"/>
    <polyline points="148.1366,63.7026 150.0985,63.7026 150.1685,63.5222 150.0751,63.3421 149.947,63.2522 149.656,63.1623 149.167,63.1623 148.8054,63.2522 148.4077,63.4321 148.1366,63.7026 148.0645,63.8834 148.1201,64.1553 148.3759,64.3369 148.6682,64.4279 149.1606,64.4279 149.5243,64.3369 149.9229,64.1553"/>
    <line x1="151.4491" x2="150.9661" y1="63.1623" y2="64.4279"/>
    <polyline points="151.2429,63.7026 151.5094,63.4321 151.9041,63.2522 152.2641,63.1623 152.7531,63.1623"/>
    <polyline points="157.8612,62.536 155.7883,63.793 158.2419,63.793"/>
    <line x1="157.8612" x2="157.2032" y1="62.536" y2="64.4279"/>
    <polygon points="134.7555,46.1508 40.6332,226.7328 402.0797,226.7328 307.9574,46.1508"/>
    <line x1="136.8185" x2="135.8871" y1="46.8541" y2="48.6925"/>
    <line x1="139.8012" x2="139.2022" y1="47.4624" y2="48.6925"/>
    <polyline points="139.6736,47.7245 139.4121,47.5497 139.1084,47.4624 138.5888,47.4624 138.1991,47.5497 137.7654,47.7245 137.4606,47.9874 137.3728,48.1631 137.4151,48.4274 137.6758,48.604 137.9809,48.6925 138.5043,48.6925 138.8965,48.604 139.3313,48.4274"/>
    <line x1="140.8405" x2="141.2959" y1="47.4624" y2="48.6925"/>
    <polyline points="142.9189,47.4624 141.2959,48.6925 140.7779,49.0472 140.343,49.2252 139.9501,49.3143 139.775,49.3143"/>
    <polyline points="143.5418,47.9874 145.6268,47.9874 145.7058,47.812 145.6113,47.6371 145.4775,47.5497 145.1706,47.4624 144.651,47.4624 144.2644,47.5497 143.837,47.7245 143.5418,47.9874 143.4604,48.1631 143.5122,48.4274 143.7793,48.604 144.0876,48.6925 144.611,48.6925 145.0,48.604 145.4284,48.4274"/>
    <line x1="147.0759" x2="146.5303" y1="47.4624" y2="48.6925"/>
    <polyline points="146.843,47.9874 147.1331,47.7245 147.557,47.5497 147.9419,47.4624 148.4615,47.4624"/>
    <polyline points="154.2487,46.8541 152.523,46.8541 152.0266,47.6371 152.236,47.5497 152.7916,47.4624 153.3112,47.4624 153.7957,47.5497 154.0721,47.7245 154.1404,47.9874 154.0701,48.1631 153.7902,48.4274 153.3706,48.604 152.8115,48.6925 152.288,48.6925 151.8011,48.604 151.6632,48.5156 151.5621,48.3392"/>
    <polyline points="169.3132,276.7373 169.3132,285.4111 169.8235,286.9418 170.8439,287.452 171.8644,287.452"/>
    <line x1="167.7826" x2="171.3541" y1="280.3088" y2="280.3088"/>
    <polygon points="174.4155,276.7373 174.9257,277.2475 175.436,276.7373 174.9257,276.227"/>
    <line x1="174.9257" x2="174.9257" y1="280.3088" y2="287.452"/>
    <line x1="179.0076" x2="179.0076" y1="276.7373" y2="287.452"/>
    <polyline points="183.5996,276.7373 183.5996,285.4111 184.1098,286.9418 185.1303,287.452 186.1507,287.452"/>
    <line x1="182.0689" x2="185.6405" y1="280.3088" y2="280.3088"/>
    <line x1="197.3758" x2="206.5598" y1="281.3293" y2="281.3293"/>
    <line x1="197.3758" x2="206.5598" y1="284.3907" y2="284.3907"/>
    <line x1="218.8053" x2="227.9894" y1="282.86" y2="282.86"/>
    <polyline points="236.6633,276.7373 231.561,283.8804 239.2144,283.8804"/>
    <line x1="236.6633" x2="236.6633" y1="276.7373" y2="287.452"/>
    <polygon points="244.8269,276.7373 243.2962,277.2475 242.2758,278.7782 241.7655,281.3293 241.7655,282.86 242.2758,285.4111 243.2962,286.9418 244.8269,287.452 245.8474,287.452 247.378,286.9418 248.3985,285.4111 248.9087,282.86 248.9087,281.3293 248.3985,278.7782 247.378,277.2475 245.8474,276.7373"/>
    <line x1="258.0928" x2="258.0928" y1="276.7373" y2="287.452"/>
    <polyline points="258.0928,281.8395 257.0724,280.8191 256.0519,280.3088 254.5212,280.3088 253.5008,280.8191 252.4803,281.8395 251.9701,283.3702 251.9701,284.3907 252.4803,285.9213 253.5008,286.9418 254.5212,287.452 256.0519,287.452 257.0724,286.9418 258.0928,285.9213"/>
    <polyline points="261.6644,283.3702 267.7872,283.3702 267.7872,282.3498 267.2769,281.3293 266.7667,280.8191 265.7462,280.3088 264.2156,280.3088 263.1951,280.8191 262.1746,281.8395 261.6644,283.3702 261.6644,284.3907 262.1746,285.9213 263.1951,286.9418 264.2156,287.452 265.7462,287.452 266.7667,286.9418 267.7872,285.9213"/>
    <polyline points="276.9712,280.3088 276.9712,288.4725 276.461,290.0032 275.9508,290.5134 274.9303,291.0236 273.3997,291.0236 272.3792,290.5134"/>
    <polyline points="276.9712,281.8395 275.9508,280.8191 274.9303,280.3088 273.3997,280.3088 272.3792,280.8191 271.3587,281.8395 270.8485,283.3702 270.8485,284.3907 271.3587,285.9213 272.3792,286.9418 273.3997,287.452 274.9303,287.452 275.9508,286.9418 276.9712,285.9213"/>
    <polygon points="482.5044,50.3327 482.5044,219.1821 651.3538,219.1821 651.3538,50.3327"/>
    <line x1="484.863" x2="484.863" y1="51.6993" y2="55.2174"/>
    <line x1="488.0461" x2="488.0461" y1="52.872" y2="55.2174"/>
    <polyline points="488.0461,53.3746 487.7111,53.0396 487.376,52.872 486.8734,52.872 486.5383,53.0396 486.2033,53.3746 486.0357,53.8772 486.0357,54.2123 486.2033,54.7149 486.5383,55.0499 486.8734,55.2174 487.376,55.2174 487.7111,55.0499 488.0461,54.7149"/>
    <line x1="489.0513" x2="490.0565" y1="52.872" y2="55.2174"/>
    <polyline points="491.0617,52.872 490.0565,55.2174 489.7214,55.8876 489.3864,56.2226 489.0513,56.3902 488.8838,56.3902"/>
    <polyline points="491.8993,53.8772 493.9097,53.8772 493.9097,53.5421 493.7421,53.2071 493.5746,53.0396 493.2396,52.872 492.737,52.872 492.4019,53.0396 492.0668,53.3746 491.8993,53.8772 491.8993,54.2123 492.0668,54.7149 492.4019,55.0499 492.737,55.2174 493.2396,55.2174 493.5746,55.0499 493.9097,54.7149"/>
    <line x1="495.0824" x2="495.0824" y1="52.872" y2="55.2174"/>
    <polyline points="495.0824,53.8772 495.2499,53.3746 495.585,53.0396 495.92,52.872 496.4226,52.872"/>
    <polyline points="500.2758,52.3694 500.6109,52.2019 501.1135,51.6993 501.1135,55.2174"/>
    <polygon points="475.264,43.0923 475.264,226.4225 658.5942,226.4225 658.5942,43.0923"/>
    <line x1="477.8249" x2="477.8249" y1="44.5761" y2="48.396"/>
    <line x1="481.281" x2="481.281" y1="45.8494" y2="48.396"/>
    <polyline points="481.281,46.3951 480.9172,46.0313 480.5534,45.8494 480.0077,45.8494 479.6439,46.0313 479.2801,46.3951 479.0982,46.9408 479.0982,47.3046 479.2801,47.8503 479.6439,48.2141 480.0077,48.396 480.5534,48.396 480.9172,48.2141 481.281,47.8503"/>
    <line x1="482.3724" x2="483.4638" y1="45.8494" y2="48.396"/>
    <polyline points="484.5552,45.8494 483.4638,48.396 483.1,49.1236 482.7362,49.4874 482.3724,49.6693 482.1905,49.6693"/>
    <polyline points="485.4646,46.9408 487.6474,46.9408 487.6474,46.577 487.4655,46.2132 487.2836,46.0313 486.9198,45.8494 486.3741,45.8494 486.0103,46.0313 485.6465,46.3951 485.4646,46.9408 485.4646,47.3046 485.6465,47.8503 486.0103,48.2141 486.3741,48.396 486.9198,48.396 487.2836,48.2141 487.6474,47.8503"/>
    <line x1="488.9207" x2="488.9207" y1="45.8494" y2="48.396"/>
    <polyline points="488.9207,46.9408 489.1026,46.3951 489.4664,46.0313 489.8302,45.8494 490.3759,45.8494"/>
    <polyline points="494.1957,45.4856 494.1957,45.3037 494.3776,44.9399 494.5595,44.758 494.9233,44.5761 495.6509,44.5761 496.0147,44.758 496.1966,44.9399 496.3785,45.3037 496.3785,45.6675 496.1966,46.0313 495.8328,46.577 494.0138,48.396 496.5604,48.396"/>
    <polygon points="466.6653,34.4935 466.6653,235.0213 667.193,235.0213 667.193,34.4935"/>
    <line x1="469.4664" x2="469.4664" y1="36.1166" y2="40.2947"/>
    <line x1="473.2466" x2="473.2466" y1="37.5093" y2="40.2947"/>
    <polyline points="473.2466,38.1062 472.8487,37.7082 472.4508,37.5093 471.8539,37.5093 471.456,37.7082 471.0581,38.1062 470.8591,38.703 470.8591,39.101 471.0581,39.6979 471.456,40.0958 471.8539,40.2947 472.4508,40.2947 472.8487,40.0958 473.2466,39.6979"/>
    <line x1="474.4404" x2="475.6342" y1="37.5093" y2="40.2947"/>
    <polyline points="476.8279,37.5093 475.6342,40.2947 475.2363,41.0906 474.8383,41.4885 474.4404,41.6875 474.2415,41.6875"/>
    <polyline points="477.8228,38.703 480.2103,38.703 480.2103,38.3051 480.0113,37.9072 479.8124,37.7082 479.4144,37.5093 478.8176,37.5093 478.4196,37.7082 478.0217,38.1062 477.8228,38.703 477.8228,39.101 478.0217,39.6979 478.4196,40.0958 478.8176,40.2947 479.4144,40.2947 479.8124,40.0958 480.2103,39.6979"/>
    <line x1="481.603" x2="481.603" y1="37.5093" y2="40.2947"/>
    <polyline points="481.603,38.703 481.802,38.1062 482.1999,37.7082 482.5978,37.5093 483.1947,37.5093"/>
    <polyline points="487.5718,36.1166 489.7604,36.1166 488.5667,37.7082 489.1635,37.7082 489.5615,37.9072 489.7604,38.1062 489.9594,38.703 489.9594,39.101 489.7604,39.6979 489.3625,40.0958 488.7656,40.2947 488.1687,40.2947 487.5718,40.0958 487.3729,39.8968 487.1739,39.4989"/>
    <polygon points="456.2863,24.1145 456.2863,245.4003 677.572,245.4003 677.572,24.1145"/>
    <line x1="459.3773" x2="459.3773" y1="25.9056" y2="30.5162"/>
    <line x1="463.5489" x2="463.5489" y1="27.4425" y2="30.5162"/>
    <polyline points="463.5489,28.1011 463.1098,27.662 462.6707,27.4425 462.012,27.4425 461.5729,27.662 461.1338,28.1011 460.9142,28.7598 460.9142,29.1989 461.1338,29.8576 461.5729,30.2967 462.012,30.5162 462.6707,30.5162 463.1098,30.2967 463.5489,29.8576"/>
    <line x1="464.8663" x2="466.1836" y1="27.4425" y2="30.5162"/>
    <polyline points="467.5009,27.4425 466.1836,30.5162 465.7445,31.3945 465.3054,31.8336 464.8663,32.0531 464.6467,32.0531"/>
    <polyline points="468.5987,28.7598 471.2334,28.7598 471.2334,28.3207 471.0139,27.8816 470.7943,27.662 470.3552,27.4425 469.6965,27.4425 469.2574,27.662 468.8183,28.1011 468.5987,28.7598 468.5987,29.1989 468.8183,29.8576 469.2574,30.2967 469.6965,30.5162 470.3552,30.5162 470.7943,30.2967 471.2334,29.8576"/>
    <line x1="472.7703" x2="472.7703" y1="27.4425" y2="30.5162"/>
    <polyline points="472.7703,28.7598 472.9899,28.1011 473.429,27.662 473.8681,27.4425 474.5268,27.4425"/>
    <polyline points="481.1135,25.9056 478.9179,28.9794 482.2113,28.9794"/>
    <line x1="481.1135" x2="481.1135" y1="25.9056" y2="30.5162"/>
    <polygon points="443.5103,11.3386 443.5103,258.1762 690.348,258.1762 690.348,11.3386"/>
    <line x1="446.9583" x2="446.9583" y1="13.3364" y2="18.4795"/>
    <line x1="451.6116" x2="451.6116" y1="15.0508" y2="18.4795"/>
    <polyline points="451.6116,15.7855 451.1218,15.2957 450.632,15.0508 449.8972,15.0508 449.4074,15.2957 448.9176,15.7855 448.6727,16.5202 448.6727,17.0101 448.9176,17.7448 449.4074,18.2346 449.8972,18.4795 450.632,18.4795 451.1218,18.2346 451.6116,17.7448"/>
    <line x1="453.0811" x2="454.5505" y1="15.0508" y2="18.4795"/>
    <polyline points="456.02,15.0508 454.5505,18.4795 454.0607,19.4592 453.5709,19.949 453.0811,20.1939 452.8362,20.1939"/>
    <polyline points="457.2445,16.5202 460.1834,16.5202 460.1834,16.0304 459.9385,15.5406 459.6936,15.2957 459.2038,15.0508 458.4691,15.0508 457.9792,15.2957 457.4894,15.7855 457.2445,16.5202 457.2445,17.0101 457.4894,17.7448 457.9792,18.2346 458.4691,18.4795 459.2038,18.4795 459.6936,18.2346 460.1834,17.7448"/>
    <line x1="461.8978" x2="461.8978" y1="15.0508" y2="18.4795"/>
    <polyline points="461.8978,16.5202 462.1427,15.7855 462.6325,15.2957 463.1223,15.0508 463.8571,15.0508"/>
    <polyline points="471.6942,13.3364 469.2451,13.3364 469.0002,15.5406 469.2451,15.2957 469.9798,15.0508 470.7145,15.0508 471.4493,15.2957 471.9391,15.7855 472.184,16.5202 472.184,17.0101 471.9391,17.7448 471.4493,18.2346 470.7145,18.4795 469.9798,18.4795 469.2451,18.2346 469.0002,17.9897 468.7552,17.4999"/>
    <polyline points="526.6212,276.7373 526.6212,285.4111 527.1314,286.9418 528.1518,287.452 529.1723,287.452"/>
    <line x1="525.0905" x2="528.6621" y1="280.3088" y2="280.3088"/>
    <polygon points="531.7234,276.7373 532.2337,277.2475 532.7439,276.7373 532.2337,276.227"/>
    <line x1="532.2337" x2="532.2337" y1="280.3088" y2="287.452"/>
    <line x1="536.3155" x2="536.3155" y1="276.7373" y2="287.452"/>
    <polyline points="540.9075,276.7373 540.9075,285.4111 541.4178,286.9418 542.4382,287.452 543.4587,287.452"/>
    <line x1="539.3768" x2="542.9484" y1="280.3088" y2="280.3088"/>
    <line x1="554.6837" x2="563.8678" y1="281.3293" y2="281.3293"/>
    <line x1="554.6837" x2="563.8678" y1="284.3907" y2="284.3907"/>
    <polygon points="578.6644,276.7373 577.1337,277.2475 576.1132,278.7782 575.603,281.3293 575.603,282.86 576.1132,285.4111 577.1337,286.9418 578.6644,287.452 579.6848,287.452 581.2155,286.9418 582.236,285.4111 582.7462,282.86 582.7462,281.3293 582.236,278.7782 581.2155,277.2475 579.6848,276.7373"/>
    <line x1="591.9303" x2="591.9303" y1="276.7373" y2="287.452"/>
    <polyline points="591.9303,281.8395 590.9098,280.8191 589.8894,280.3088 588.3587,280.3088 587.3382,280.8191 586.3178,281.8395 585.8076,283.3702 585.8076,284.3907 586.3178,285.9213 587.3382,286.9418 588.3587,287.452 589.8894,287.452 590.9098,286.9418 591.9303,285.9213"/>
    <polyline points="595.5019,283.3702 601.6246,283.3702 601.6246,282.3498 601.1144,281.3293 600.6042,280.8191 599.5837,280.3088 598.053,280.3088 597.0326,280.8191 596.0121,281.8395 595.5019,283.3702 595.5019,284.3907 596.0121,285.9213 597.0326,286.9418 598.053,287.452 599.5837,287.452 600.6042,286.9418 601.6246,285.9213"/>
    <polyline points="610.8087,280.3088 610.8087,288.4725 610.2985,290.0032 609.7882,290.5134 608.7678,291.0236 607.2371,291.0236 606.2167,290.5134"/>
    <polyline points="610.8087,281.8395 609.7882,280.8191 608.7678,280.3088 607.2371,280.3088 606.2167,280.8191 605.1962,281.8395 604.686,283.3702 604.686,284.3907 605.1962,285.9213 606.2167,286.9418 607.2371,287.452 608.7678,287.452 609.7882,286.9418 610.8087,285.9213"/>
    <polygon points="793.4564,12.9549 843.125,170.0653 981.8786,170.0653 1031.5473,12.9549"/>
    <line x1="797.4489" x2="799.1303" y1="15.1243" y2="20.5958"/>
    <line x1="802.4554" x2="803.5276" y1="16.9661" y2="20.5958"/>
    <polyline points="802.687,17.7499 802.0656,17.2277 801.5206,16.9661 800.8194,16.9661 800.4308,17.2277 800.1215,17.7499 800.1247,18.5304 800.2818,19.0489 800.7485,19.824 801.3673,20.3389 801.9075,20.5958 802.6019,20.5958 802.9885,20.3389 803.2996,19.824"/>
    <line x1="803.8577" x2="806.3049" y1="16.9661" y2="20.5958"/>
    <polyline points="806.6623,16.9661 806.3049,20.5958 806.1381,21.6199 805.8245,22.1298 805.4378,22.3843 805.2075,22.3843"/>
    <polyline points="808.2704,18.5304 811.0632,18.5304 810.921,18.0104 810.545,17.489 810.2399,17.2277 809.7006,16.9661 808.9994,16.9661 808.605,17.2277 808.2843,17.7499 808.2704,18.5304 808.4161,19.0489 808.8657,19.824 809.4733,20.3389 810.0079,20.5958 810.7022,20.5958 811.0945,20.3389 811.4169,19.824"/>
    <line x1="812.2714" x2="813.248" y1="16.9661" y2="20.5958"/>
    <polyline points="812.6923,18.5304 812.7155,17.7499 813.0425,17.2277 813.44,16.9661 814.1412,16.9661"/>
    <polyline points="819.3201,16.179 819.7232,15.9159 820.2313,15.1243 821.5797,20.5958"/>
    <polygon points="782.3519,18.325 839.4949,181.2983 985.5087,181.2983 1042.6518,18.325"/>
    <line x1="786.7844" x2="788.7892" y1="20.6617" y2="26.5439"/>
    <line x1="792.3098" x2="793.5876" y1="22.6435" y2="26.5439"/>
    <polyline points="792.5859,23.4864 791.8919,22.9249 791.2888,22.6435 790.523,22.6435 790.1064,22.9249 789.7845,23.4864 789.8117,24.3253 789.9989,24.8825 790.5317,25.7151 791.2226,26.2681 791.8198,26.5439 792.5774,26.5439 792.9918,26.2681 793.3161,25.7151"/>
    <line x1="793.8414" x2="796.6182" y1="22.6435" y2="26.5439"/>
    <polyline points="796.9045,22.6435 796.6182,26.5439 796.4656,27.6432 796.1382,28.1903 795.7237,28.4632 795.4725,28.4632"/>
    <polyline points="798.7049,24.3253 801.754,24.3253 801.5845,23.7665 801.1596,23.2058 800.8192,22.9249 800.2229,22.6435 799.4571,22.6435 799.0337,22.9249 798.6981,23.4864 798.7049,24.3253 798.8785,24.8825 799.3911,25.7151 800.0685,26.2681 800.659,26.5439 801.4166,26.5439 801.8377,26.2681 802.1755,25.7151"/>
    <line x1="803.0308" x2="804.1946" y1="22.6435" y2="26.5439"/>
    <polyline points="803.5326,24.3253 803.537,23.4864 803.8799,22.9249 804.3071,22.6435 805.0729,22.6435"/>
    <polyline points="810.2764,22.0795 810.1978,21.7968 810.2964,21.2301 810.474,20.9461 810.9086,20.6617 811.9351,20.6617 812.5256,20.9461 812.8588,21.2301 813.268,21.7968 813.4205,22.3617 813.3174,22.9249 813.0361,23.7665 811.266,26.5439 814.8016,26.5439"/>
    <polygon points="768.9626,24.8 835.4639,193.7718 989.5397,193.7718 1056.041,24.8"/>
    <line x1="773.9408" x2="776.3723" y1="27.3305" y2="33.6861"/>
    <line x1="780.1034" x2="781.6523" y1="29.4741" y2="33.6861"/>
    <polyline points="780.4384,30.385 779.6534,29.7783 778.9787,29.4741 778.1351,29.4741 777.6868,29.7783 777.3532,30.385 777.4145,31.2914 777.6414,31.8931 778.2589,32.7918 779.0397,33.3885 779.707,33.6861 780.5407,33.6861 780.9866,33.3885 781.3235,32.7918"/>
    <line x1="781.7905" x2="784.9871" y1="29.4741" y2="33.6861"/>
    <polyline points="785.1648,29.4741 784.9871,33.6861 784.8579,34.8715 784.5172,35.4612 784.0709,35.7554 783.7946,35.7554"/>
    <polyline points="787.2063,31.2914 790.5635,31.2914 790.358,30.6877 789.8711,30.0819 789.4866,29.7783 788.8202,29.4741 787.9766,29.4741 787.5199,29.7783 787.1698,30.385 787.2063,31.2914 787.4168,31.8931 788.0097,32.7918 788.7742,33.3885 789.4334,33.6861 790.2671,33.6861 790.7211,33.3885 791.0743,32.7918"/>
    <line x1="791.9132" x2="793.3239" y1="29.4741" y2="33.6861"/>
    <polyline points="792.5219,31.2914 792.4988,30.385 792.8579,29.7783 793.3191,29.4741 794.1627,29.4741"/>
    <polyline points="799.681,27.3305 802.7925,27.3305 801.8483,29.7783 802.6911,29.7783 803.3452,30.0819 803.7177,30.385 804.272,31.2914 804.4538,31.8931 804.4468,32.7918 804.0713,33.3885 803.3282,33.6861 802.4945,33.6861 801.5681,33.3885 801.1969,33.0904 800.7314,32.4928"/>
    <polygon points="752.5026,32.76 830.9618,207.7032 994.0418,207.7032 1072.5011,32.76"/>
    <line x1="758.1745" x2="761.1847" y1="35.5169" y2="42.4219"/>
    <line x1="765.1375" x2="767.0538" y1="37.8489" y2="42.4219"/>
    <polyline points="765.5524,38.8389 764.6507,38.1795 763.8857,37.8489 762.9467,37.8489 762.462,38.1795 762.1194,38.8389 762.2304,39.8234 762.5111,40.4767 763.24,41.452 764.1359,42.0992 764.8915,42.4219 765.8182,42.4219 766.3002,42.0992 766.6474,41.452"/>
    <line x1="767.0153" x2="770.7606" y1="37.8489" y2="42.4219"/>
    <polyline points="770.771,37.8489 770.7606,42.4219 770.6698,43.7067 770.3174,44.3456 769.8348,44.6641 769.5279,44.6641"/>
    <polyline points="773.1228,39.8234 776.8574,39.8234 776.603,39.1677 776.0353,38.5096 775.5944,38.1795 774.8396,37.8489 773.9007,37.8489 773.4056,38.1795 773.0425,38.8389 773.1228,39.8234 773.3832,40.4767 774.0817,41.452 774.9575,42.0992 775.703,42.4219 776.6297,42.4219 777.1218,42.0992 777.4891,41.452"/>
    <line x1="778.2822" x2="780.0276" y1="37.8489" y2="42.4219"/>
    <polyline points="779.0359,39.8234 778.9722,38.8389 779.3465,38.1795 779.8471,37.8489 780.786,37.8489"/>
    <polyline points="789.3639,35.5169 787.8664,40.1504 792.5303,40.1504"/>
    <line x1="789.3639" x2="791.7658" y1="35.5169" y2="42.4219"/>
    <polygon points="731.7786,42.782 825.9008,223.364 999.1028,223.364 1093.2251,42.782"/>
    <line x1="738.3594" x2="742.1827" y1="45.8055" y2="53.3518"/>
    <line x1="746.357" x2="748.7889" y1="48.3583" y2="53.3518"/>
    <polyline points="746.8842,49.4408 745.8282,48.7199 744.9456,48.3583 743.887,48.3583 743.3608,48.7199 743.0151,49.4408 743.2006,50.5164 743.5568,51.2297 744.4371,52.2941 745.485,52.9999 746.355,53.3518 747.3981,53.3518 747.9214,52.9999 748.2738,52.2941"/>
    <line x1="748.4742" x2="752.9612" y1="48.3583" y2="53.3518"/>
    <polyline points="752.7084,48.3583 752.9612,53.3518 752.9331,54.7517 752.5736,55.4474 752.0493,55.7941 751.7041,55.7941"/>
    <polyline points="755.4724,50.5164 759.6798,50.5164 759.3569,49.8001 758.6805,49.0807 758.165,48.7199 757.2955,48.3583 756.237,48.3583 755.6976,48.7199 755.3259,49.4408 755.4724,50.5164 755.8028,51.2297 756.6446,52.2941 757.6669,52.9999 758.5242,53.3518 759.5673,53.3518 760.1033,52.9999 760.4812,52.2941"/>
    <line x1="761.177" x2="763.3919" y1="48.3583" y2="53.3518"/>
    <polyline points="762.1342,50.5164 762.0088,49.4408 762.3948,48.7199 762.9412,48.3583 763.9998,48.3583"/>
    <polyline points="774.2645,45.8055 770.7095,45.8055 771.7085,49.0807 771.9118,48.7199 772.8212,48.3583 773.8797,48.3583 775.0841,48.7199 776.0783,49.4408 776.8604,50.5164 777.1458,51.2297 777.2229,52.2941 776.8099,52.9999 775.9087,53.3518 774.8657,53.3518 773.6774,52.9999 773.1836,52.6474 772.5419,51.94"/>
    <polyline points="867.0916,276.7373 867.0916,285.4111 867.6018,286.9418 868.6223,287.452 869.6427,287.452"/>
    <line x1="865.5609" x2="869.1325" y1="280.3088" y2="280.3088"/>
    <polygon points="872.1938,276.7373 872.7041,277.2475 873.2143,276.7373 872.7041,276.227"/>
    <line x1="872.7041" x2="872.7041" y1="280.3088" y2="287.452"/>
    <line x1="876.7859" x2="876.7859" y1="276.7373" y2="287.452"/>
    <polyline points="881.3779,276.7373 881.3779,285.4111 881.8882,286.9418 882.9086,287.452 883.9291,287.452"/>
    <line x1="879.8473" x2="883.4189" y1="280.3088" y2="280.3088"/>
    <line x1="895.1541" x2="904.3382" y1="281.3293" y2="281.3293"/>
    <line x1="895.1541" x2="904.3382" y1="284.3907" y2="284.3907"/>
    <polyline points="921.1757,276.7373 916.0734,283.8804 923.7268,283.8804"/>
    <line x1="921.1757" x2="921.1757" y1="276.7373" y2="287.452"/>
    <polygon points="929.3393,276.7373 927.8086,277.2475 926.7882,278.7782 926.278,281.3293 926.278,282.86 926.7882,285.4111 927.8086,286.9418 929.3393,287.452 930.3598,287.452 931.8905,286.9418 932.9109,285.4111 933.4212,282.86 933.4212,281.3293 932.9109,278.7782 931.8905,277.2475 930.3598,276.7373"/>
    <line x1="942.6052" x2="942.6052" y1="276.7373" y2="287.452"/>
    <polyline points="942.6052,281.8395 941.5848,280.8191 940.5643,280.3088 939.0337,280.3088 938.0132,280.8191 936.9927,281.8395 936.4825,283.3702 936.4825,284.3907 936.9927,285.9213 938.0132,286.9418 939.0337,287.452 940.5643,287.452 941.5848,286.9418 942.6052,285.9213"/>
    <polyline points="946.1768,283.3702 952.2996,283.3702 952.2996,282.3498 951.7893,281.3293 951.2791,280.8191 950.2587,280.3088 948.728,280.3088 947.7075,280.8191 946.6871,281.8395 946.1768,283.3702 946.1768,284.3907 946.6871,285.9213 947.7075,286.9418 948.728,287.452 950.2587,287.452 951.2791,286.9418 952.2996,285.9213"/>
    <polyline points="961.4837,280.3088 961.4837,288.4725 960.9734,290.0032 960.4632,290.5134 959.4428,291.0236 957.9121,291.0236 956.8916,290.5134"/>
    <polyline points="961.4837,281.8395 960.4632,280.8191 959.4428,280.3088 957.9121,280.3088 956.8916,280.8191 955.8712,281.8395 955.3609,283.3702 955.3609,284.3907 955.8712,285.9213 956.8916,286.9418 957.9121,287.452 959.4428,287.452 960.4632,286.9418 961.4837,285.9213"/>
  </g>
</svg>
